M48
; DRILL file {KiCad 9.0.3} date 2026-04-21T00:18:48-0700
; FORMAT={-:-/ absolute / inch / decimal}
; #@! TF.CreationDate,2026-04-21T00:18:48-07:00
; #@! TF.GenerationSoftware,Kicad,Pcbnew,9.0.3
; #@! TF.FileFunction,Plated,1,4,PTH
FMAT,2
INCH
; #@! TA.AperFunction,Plated,PTH,ViaDrill
T1C0.0079
; #@! TA.AperFunction,Plated,PTH,ComponentDrill
T2C0.0098
; #@! TA.AperFunction,Plated,PTH,ViaDrill
T3C0.0118
; #@! TA.AperFunction,Plated,PTH,ViaDrill
T4C0.0157
; #@! TA.AperFunction,Plated,PTH,ComponentDrill
T5C0.0236
; #@! TA.AperFunction,Plated,PTH,ComponentDrill
T6C0.0394
; #@! TA.AperFunction,Plated,PTH,ComponentDrill
T7C0.0433
; #@! TA.AperFunction,Plated,PTH,ComponentDrill
T8C0.0591
; #@! TA.AperFunction,Plated,PTH,ComponentDrill
T9C0.0669
; #@! TA.AperFunction,Plated,PTH,ComponentDrill
T10C0.0866
%
G90
G05
T1
X7.6731Y-3.866
X7.6815Y-3.8966
X7.701Y-3.8326
X7.7065Y-3.9217
X7.7316Y-3.802
X7.7316Y-3.9467
X7.765Y-3.7686
X7.765Y-3.969
X7.7984Y-3.7351
X7.8374Y-3.7407
X7.8425Y-3.485
X7.8465Y-3.3984
X7.868Y-3.7713
X7.8715Y-3.9478
X7.8784Y-3.9745
X7.9052Y-3.8552
X7.956Y-4.0131
X8.0123Y-3.8399
X8.0134Y-3.8096
X8.0144Y-3.8952
X8.0252Y-3.9213
X8.0592Y-3.6039
X8.0625Y-3.7772
X8.0977Y-3.7821
X8.1043Y-4.1168
X8.1514Y-3.6182
X8.1985Y-3.9237
X8.2212Y-3.8636
X8.237Y-3.7165
X8.2753Y-4.0436
X8.2995Y-4.0024
X8.3329Y-3.9217
X8.344Y-4.0024
X8.3635Y-3.9217
X8.3663Y-3.8465
X8.4331Y-4.0469
X8.4693Y-3.8159
T2
X8.0605Y-3.8258
X8.0605Y-3.8799
X8.0605Y-3.934
X8.1147Y-3.8258
X8.1147Y-3.8799
X8.1147Y-3.934
X8.1688Y-3.8258
X8.1688Y-3.8799
X8.1688Y-3.934
T3
X6.5157Y-3.5512
X6.5157Y-3.5906
X6.5157Y-3.6299
X6.5157Y-3.6693
X6.5157Y-3.7047
X6.5157Y-3.7441
X6.5157Y-3.7835
X6.5157Y-3.8228
X6.5157Y-3.8622
X6.5157Y-3.9016
X6.5157Y-3.9409
X6.5157Y-3.9803
X6.5157Y-4.0197
X6.5157Y-4.0591
X6.5157Y-4.0984
X6.5157Y-4.1378
X6.5157Y-4.1732
X6.5157Y-4.2126
X6.5157Y-4.252
X6.5157Y-4.2913
X6.5315Y-4.5827
X6.5709Y-4.5827
X6.6102Y-4.5827
X6.6457Y-4.5827
X6.685Y-4.5827
X6.7244Y-4.5827
X6.7638Y-4.5827
X6.8031Y-4.5827
X6.811Y-4.1732
X6.8268Y-3.7795
X6.8268Y-4.3142
X6.8425Y-4.5827
X6.8504Y-4.1732
X6.874Y-4.3154
X6.8819Y-4.5827
X6.8898Y-4.1732
X6.9213Y-4.5827
X6.9272Y-4.3169
X6.9291Y-3.7756
X6.9291Y-4.1732
X6.9606Y-4.5827
X6.9685Y-4.1732
X7.0Y-4.5827
X7.0079Y-4.1732
X7.0394Y-4.5827
X7.0472Y-4.1732
X7.0591Y-3.3465
X7.0787Y-4.5827
X7.0866Y-4.1732
X7.0984Y-3.3465
X7.1142Y-4.5827
X7.126Y-4.1732
X7.1378Y-3.3465
X7.1469Y-4.3031
X7.1535Y-4.5827
X7.1654Y-4.1732
X7.1772Y-3.3465
X7.1929Y-4.5827
X7.1996Y-4.3028
X7.2047Y-4.1732
X7.2165Y-3.3465
X7.2323Y-4.5827
X7.2441Y-4.1732
X7.2559Y-3.3465
X7.2717Y-4.5827
X7.2953Y-3.3465
X7.311Y-4.5827
X7.3346Y-3.3465
X7.3504Y-4.3154
X7.3504Y-4.5827
X7.3728Y-3.6399
X7.374Y-3.3465
X7.3898Y-4.5827
X7.4116Y-3.6478
X7.4134Y-3.3465
X7.4291Y-4.5827
X7.4528Y-3.3465
X7.4685Y-4.5827
X7.4921Y-3.3465
X7.4961Y-4.3217
X7.5079Y-4.3858
X7.5118Y-4.5827
X7.5197Y-3.7795
X7.5197Y-3.8189
X7.5197Y-3.8583
X7.5197Y-3.8976
X7.5197Y-3.937
X7.5197Y-3.9764
X7.5197Y-4.0157
X7.5197Y-4.0551
X7.5197Y-4.0945
X7.5276Y-3.3465
X7.5287Y-3.7075
X7.5512Y-3.5236
X7.5591Y-4.252
X7.5591Y-4.3307
X7.5591Y-4.3701
X7.5591Y-4.4094
X7.5591Y-4.4488
X7.5591Y-4.4882
X7.5591Y-4.5276
X7.5591Y-4.5669
X7.5669Y-3.3465
X7.6063Y-3.3465
X7.6331Y-4.048
X7.6457Y-3.3465
X7.6547Y-3.9181
X7.6929Y-3.9748
X7.7331Y-4.0191
X7.7509Y-3.5383
X7.8248Y-4.0953
X7.8268Y-3.4528
X7.8354Y-3.6878
X7.874Y-3.6496
X7.8823Y-3.5961
X7.9181Y-3.5929
X7.9307Y-3.6399
X7.9609Y-4.0702
X7.9614Y-3.5579
X7.9626Y-3.5906
X7.9791Y-3.6399
X7.9803Y-3.3937
X7.9803Y-3.4843
X8.0051Y-3.6583
X8.015Y-3.9524
X8.0311Y-3.5642
X8.0319Y-3.9791
X8.0362Y-4.2323
X8.0366Y-3.4535
X8.0585Y-4.0508
X8.0713Y-3.9697
X8.0866Y-3.4882
X8.0909Y-4.0673
X8.0996Y-3.7035
X8.1062Y-3.9801
X8.1183Y-3.6097
X8.126Y-3.4882
X8.1523Y-3.9805
X8.1535Y-3.545
X8.1723Y-4.0511
X8.1851Y-3.78
X8.1969Y-3.9764
X8.203Y-3.5354
X8.2126Y-3.7992
X8.2165Y-3.4724
X8.2227Y-4.1309
X8.2283Y-3.6024
X8.2456Y-4.0167
X8.2546Y-3.549
X8.2845Y-3.7129
X8.2972Y-4.2681
X8.2992Y-4.1339
X8.3268Y-4.0827
X8.3465Y-3.6772
X8.3669Y-3.6223
X8.374Y-4.0827
X8.3886Y-3.5791
X8.3892Y-3.6446
X8.4213Y-4.0827
X8.4417Y-3.7409
X8.4685Y-4.0827
X8.4724Y-4.0205
X8.4882Y-3.6323
X8.5024Y-3.598
X8.5181Y-4.1068
X8.5315Y-3.4843
X8.5444Y-3.6381
X8.5574Y-4.1796
X8.5712Y-4.1008
X8.5906Y-3.4488
X8.5909Y-4.1796
X8.6086Y-4.1048
X8.611Y-3.9697
X8.626Y-4.1775
X8.6413Y-4.2921
X8.6572Y-4.1738
X8.6685Y-4.2625
X8.6732Y-3.5551
X8.7366Y-4.2682
T4
X7.2801Y-3.5869
X7.3164Y-3.6021
X7.3204Y-3.6412
X7.3465Y-4.3858
X7.3898Y-4.437
X7.7559Y-4.0551
X7.8583Y-3.7146
T6
X7.1102Y-3.4252
X7.1102Y-3.5748
X7.2441Y-3.4252
X7.3819Y-3.4252
X7.5197Y-3.4252
X7.6575Y-3.4252
X7.678Y-4.2083
X7.6811Y-3.7283
X7.778Y-4.2083
X7.878Y-4.2083
X8.0728Y-3.3701
X8.1728Y-3.3701
X8.2728Y-3.3701
X8.3728Y-3.3701
X8.4728Y-3.3701
X8.5728Y-3.3701
T7
X7.6433Y-4.4685
X7.7433Y-4.4685
X7.8433Y-4.4685
X7.9433Y-4.4685
X8.0433Y-4.4685
X8.1433Y-4.4685
X8.2433Y-4.4685
X8.3433Y-4.4685
X8.4433Y-4.4685
X8.5433Y-4.4685
T8
X6.8783Y-3.4886
T9
X6.7783Y-3.3886
X6.7783Y-3.5886
X6.9783Y-3.3886
X6.9783Y-3.5886
T10
X6.6142Y-3.4252
X6.6142Y-4.4094
X8.7402Y-3.4252
X8.7402Y-4.4094
T5
G00X8.5551Y-3.7232
M15
G01X8.5984Y-3.7232
M16
G05
G00X8.5551Y-4.0634
M15
G01X8.5984Y-4.0634
M16
G05
G00X8.7295Y-3.7232
M15
G01X8.7531Y-3.7232
M16
G05
G00X8.7295Y-4.0634
M15
G01X8.7531Y-4.0634
M16
G05
M30
