%TF.GenerationSoftware,KiCad,Pcbnew,9.0.0*%
%TF.CreationDate,2026-04-17T00:13:25-07:00*%
%TF.ProjectId,proves_radio_stick_V1,70726f76-6573-45f7-9261-64696f5f7374,rev?*%
%TF.SameCoordinates,Original*%
%TF.FileFunction,Copper,L4,Bot*%
%TF.FilePolarity,Positive*%
%FSLAX46Y46*%
G04 Gerber Fmt 4.6, Leading zero omitted, Abs format (unit mm)*
G04 Created by KiCad (PCBNEW 9.0.0) date 2026-04-17 00:13:25*
%MOMM*%
%LPD*%
G01*
G04 APERTURE LIST*
%TA.AperFunction,ComponentPad*%
%ADD10C,2.600000*%
%TD*%
%TA.AperFunction,ConnectorPad*%
%ADD11C,4.400000*%
%TD*%
%TA.AperFunction,ComponentPad*%
%ADD12R,1.700000X1.700000*%
%TD*%
%TA.AperFunction,ComponentPad*%
%ADD13C,1.700000*%
%TD*%
%TA.AperFunction,ComponentPad*%
%ADD14C,2.050000*%
%TD*%
%TA.AperFunction,ComponentPad*%
%ADD15C,2.250000*%
%TD*%
%TA.AperFunction,ComponentPad*%
%ADD16C,0.600000*%
%TD*%
%TA.AperFunction,ComponentPad*%
%ADD17O,2.100000X1.000000*%
%TD*%
%TA.AperFunction,ComponentPad*%
%ADD18O,1.600000X1.000000*%
%TD*%
%TA.AperFunction,ViaPad*%
%ADD19C,0.560000*%
%TD*%
%TA.AperFunction,ViaPad*%
%ADD20C,0.460000*%
%TD*%
%TA.AperFunction,ViaPad*%
%ADD21C,0.600000*%
%TD*%
%TA.AperFunction,ViaPad*%
%ADD22C,0.800000*%
%TD*%
%TA.AperFunction,Conductor*%
%ADD23C,0.342392*%
%TD*%
%TA.AperFunction,Conductor*%
%ADD24C,0.152400*%
%TD*%
%TA.AperFunction,Conductor*%
%ADD25C,0.127000*%
%TD*%
%TA.AperFunction,Conductor*%
%ADD26C,0.250000*%
%TD*%
G04 APERTURE END LIST*
D10*
%TO.P,H2,1*%
%TO.N,N/C*%
X222000000Y-112000000D03*
D11*
X222000000Y-112000000D03*
%TD*%
D12*
%TO.P,J1,1,Pin_1*%
%TO.N,SWDIO*%
X200100000Y-106890000D03*
D13*
%TO.P,J1,2,Pin_2*%
%TO.N,GND*%
X197560000Y-106890000D03*
%TO.P,J1,3,Pin_3*%
%TO.N,SWCLK*%
X195020001Y-106890000D03*
%TD*%
D14*
%TO.P,J2,1,In*%
%TO.N,Net-(J2-In)*%
X174710000Y-88610000D03*
D15*
%TO.P,J2,2,Ext*%
%TO.N,GND*%
X172170000Y-86070000D03*
X172170000Y-91150000D03*
X177250000Y-86070000D03*
X177250000Y-91150000D03*
%TD*%
D10*
%TO.P,H4,1*%
%TO.N,N/C*%
X222000000Y-87000000D03*
D11*
X222000000Y-87000000D03*
%TD*%
D10*
%TO.P,H3,1*%
%TO.N,N/C*%
X167000000Y-87000000D03*
D11*
X167000000Y-87000000D03*
%TD*%
D16*
%TO.P,U18,61,GND*%
%TO.N,GND*%
X207487799Y-97174742D03*
X206112799Y-97174742D03*
X204737799Y-97174742D03*
X207487799Y-98549742D03*
X206112799Y-98549742D03*
X204737799Y-98549742D03*
X207487799Y-99924742D03*
X206112799Y-99924742D03*
X204737799Y-99924742D03*
%TD*%
D17*
%TO.P,J12,S1,SHIELD*%
%TO.N,GND*%
X217850000Y-103210000D03*
D18*
X222030000Y-103210000D03*
D17*
X217850000Y-94570000D03*
D18*
X222030000Y-94570000D03*
%TD*%
D10*
%TO.P,H2,1*%
%TO.N,N/C*%
X167000000Y-112000000D03*
D11*
X167000000Y-112000000D03*
%TD*%
D19*
%TO.N,GND*%
X182870000Y-109290000D03*
D20*
X197230577Y-95721315D03*
D19*
X202700000Y-86200000D03*
D20*
X196382048Y-100246798D03*
X195745652Y-99610402D03*
D19*
X176000000Y-95900000D03*
D20*
X199069054Y-95014208D03*
X199200000Y-88520001D03*
D19*
X220300000Y-90300000D03*
X212518920Y-92005508D03*
X210750000Y-108410000D03*
X215200000Y-102120000D03*
X206338112Y-104149194D03*
D20*
X215120378Y-96923396D03*
D19*
X210425189Y-94307101D03*
D20*
X209976361Y-102491677D03*
D19*
X190700000Y-111400000D03*
D20*
X197230577Y-100812483D03*
X195109256Y-98974006D03*
D19*
X181530000Y-109300000D03*
D20*
X207044793Y-91902938D03*
X196382048Y-96569843D03*
D19*
X174600000Y-109610000D03*
D20*
X199300000Y-86320001D03*
D19*
X173400000Y-96000000D03*
D20*
X204888172Y-91508285D03*
X194897124Y-98196188D03*
X195604231Y-97347660D03*
D19*
X173400000Y-109580000D03*
X175950000Y-109650000D03*
X189650000Y-109780000D03*
D20*
X205850207Y-104567220D03*
D19*
X218208500Y-106161500D03*
D20*
X200792725Y-97922936D03*
D19*
X217358500Y-106161500D03*
X218658500Y-104261500D03*
D20*
X210807027Y-101661012D03*
X199846872Y-95792024D03*
D19*
X217708500Y-104161500D03*
X191230000Y-94170000D03*
D21*
X202206133Y-103383877D03*
D20*
X199935260Y-100273606D03*
X202420000Y-94800000D03*
X211938398Y-101661012D03*
D19*
X219099269Y-106108935D03*
X202700000Y-88500000D03*
D20*
X198079105Y-94872786D03*
D22*
X199600000Y-94350000D03*
D19*
X193880000Y-102820000D03*
X190400000Y-109770000D03*
%TO.N,+3V3*%
X219893865Y-106013541D03*
D20*
X214200283Y-102792383D03*
D19*
X208690000Y-87840000D03*
X204130000Y-87720000D03*
D20*
X203513680Y-97532376D03*
D19*
X205900000Y-91380000D03*
D20*
X212504083Y-97701214D03*
X209696798Y-94326782D03*
D21*
X208473574Y-101024615D03*
D20*
X208817335Y-98134389D03*
D19*
X221908500Y-108411500D03*
D20*
X202081746Y-101932630D03*
D21*
X205390589Y-103226573D03*
D19*
X210500000Y-104750000D03*
D20*
X204787936Y-95942130D03*
D19*
X203990000Y-90530000D03*
X216358500Y-104311500D03*
%TO.N,VBUS*%
X218720000Y-100830000D03*
X219830000Y-108730000D03*
X220178917Y-108268364D03*
%TO.N,/USBBOOT*%
X198800000Y-87700000D03*
X208300000Y-90600000D03*
%TO.N,/QSPI_SD1*%
X213086706Y-92573294D03*
X213070000Y-90910000D03*
%TO.N,/QSPI_SD3*%
X214418124Y-95018124D03*
X215960000Y-91390000D03*
%TO.N,/QSPI_SD0*%
X217028124Y-92408124D03*
X215601537Y-92261538D03*
%TO.N,FC_RESET*%
X202220000Y-90370000D03*
D20*
X200111249Y-100951250D03*
%TO.N,SWCLK*%
X203566152Y-98937250D03*
%TO.N,SWDIO*%
X203594538Y-99681113D03*
D19*
%TO.N,RF1_IO2*%
X203581552Y-100390997D03*
X186700000Y-109610000D03*
%TO.N,RF1_RST*%
X187270000Y-92452800D03*
X205730000Y-94070000D03*
%TO.N,RF1_IO5*%
X198751041Y-104021882D03*
X194430000Y-99520000D03*
%TO.N,RF1_IO4*%
X195400000Y-100960000D03*
X196420000Y-102086200D03*
%TO.N,RF1_IO1*%
X199020000Y-93670000D03*
D20*
X203541506Y-96764297D03*
D19*
%TO.N,SPI1_CS0*%
X203330000Y-92920000D03*
X202250000Y-91200000D03*
%TO.N,SPI1_MOSI*%
X200580000Y-91340400D03*
X201440000Y-92452800D03*
%TO.N,SPI1_SCK*%
X202668243Y-92452799D03*
X201470000Y-91270000D03*
D20*
%TO.N,unconnected-(U18-GPIO7-Pad10)*%
X205681816Y-96066340D03*
%TO.N,+1V1*%
X211655555Y-99610402D03*
X208242799Y-99662248D03*
X212433372Y-99610402D03*
D19*
%TO.N,BOOTSEL*%
X209480000Y-89600000D03*
X212000000Y-93400000D03*
%TD*%
D23*
%TO.N,+3V3*%
X216358500Y-104311500D02*
X217503739Y-105456739D01*
D24*
X203513680Y-97532376D02*
X202425568Y-97532376D01*
D23*
X219866340Y-105953660D02*
X219866340Y-105986016D01*
X217503739Y-105456739D02*
X219369418Y-105456739D01*
X221908500Y-107995821D02*
X221908500Y-108411500D01*
X219369418Y-105456739D02*
X219866340Y-105953660D01*
X219866340Y-105953660D02*
X221908500Y-107995821D01*
X219866340Y-105986016D02*
X219893865Y-106013541D01*
D24*
X208473574Y-101024615D02*
X208530143Y-101081184D01*
%TO.N,/USBBOOT*%
X203322000Y-87700000D02*
X198800000Y-87700000D01*
X208300000Y-90600000D02*
X206222000Y-90600000D01*
X206222000Y-90600000D02*
X203322000Y-87700000D01*
%TO.N,/QSPI_SD1*%
X213086706Y-90926706D02*
X213070000Y-90910000D01*
X213086706Y-92573294D02*
X213086706Y-90926706D01*
%TO.N,/QSPI_SD3*%
X214418124Y-95018124D02*
X214418124Y-92656951D01*
X214418124Y-92656951D02*
X215685075Y-91390000D01*
X215685075Y-91390000D02*
X215960000Y-91390000D01*
%TO.N,/QSPI_SD0*%
X217028124Y-92408124D02*
X217000000Y-92380000D01*
X215719999Y-92380000D02*
X215601537Y-92261538D01*
X217000000Y-92380000D02*
X215719999Y-92380000D01*
%TO.N,FC_RESET*%
X204160000Y-95070000D02*
X205518000Y-95070000D01*
X205518000Y-95070000D02*
X206287200Y-94300800D01*
X204160000Y-97603346D02*
X204160000Y-95070000D01*
X203333296Y-98430050D02*
X204160000Y-97603346D01*
X200111249Y-100951250D02*
X202632449Y-98430050D01*
X206287200Y-93839200D02*
X202818000Y-90370000D01*
X202818000Y-90370000D02*
X202220000Y-90370000D01*
X202632449Y-98430050D02*
X203333296Y-98430050D01*
X206287200Y-94300800D02*
X206287200Y-93839200D01*
D25*
%TO.N,SWCLK*%
X203527293Y-98935184D02*
X203488472Y-98974006D01*
D26*
X196196001Y-105714000D02*
X198047116Y-105714000D01*
D25*
X203566152Y-98937250D02*
X203564087Y-98935183D01*
X202781365Y-98974006D02*
X201119664Y-100635707D01*
X203564087Y-98935183D02*
X203527293Y-98935184D01*
D26*
X195020001Y-106890000D02*
X196196001Y-105714000D01*
X199357041Y-102490348D02*
X201119664Y-100727725D01*
X201119664Y-100727725D02*
X201119664Y-100635707D01*
X198047116Y-105714000D02*
X199357041Y-104404075D01*
X199357041Y-104404075D02*
X199357041Y-102490348D01*
D25*
X203488472Y-98974006D02*
X202781365Y-98974006D01*
D26*
%TO.N,SWDIO*%
X200100000Y-106890000D02*
X199892623Y-106682623D01*
D25*
X203594539Y-99602731D02*
X203390076Y-99398270D01*
D26*
X199892623Y-106682623D02*
X199892623Y-102592576D01*
X199892623Y-102592576D02*
X201516704Y-100968495D01*
D25*
X203594538Y-99681113D02*
X203594539Y-99602731D01*
X203390076Y-99398270D02*
X202999956Y-99398270D01*
X202999956Y-99398270D02*
X201473217Y-100925008D01*
D24*
%TO.N,RF1_IO2*%
X187427200Y-110337200D02*
X186700000Y-109610000D01*
X200364400Y-108880000D02*
X199580000Y-108880000D01*
X203581552Y-100390997D02*
X203581552Y-105662848D01*
X198122800Y-110337200D02*
X187427200Y-110337200D01*
X203581552Y-105662848D02*
X200364400Y-108880000D01*
X199580000Y-108880000D02*
X198122800Y-110337200D01*
%TO.N,RF1_RST*%
X187270000Y-92452800D02*
X199729792Y-92452800D01*
X199729792Y-92452800D02*
X201346992Y-94070000D01*
X201346992Y-94070000D02*
X205730000Y-94070000D01*
%TO.N,RF1_IO5*%
X194748000Y-99520000D02*
X194430000Y-99520000D01*
X198751041Y-103523041D02*
X194748000Y-99520000D01*
X198751041Y-104021882D02*
X198751041Y-103523041D01*
D25*
%TO.N,RF1_IO4*%
X196420000Y-101980000D02*
X195400000Y-100960000D01*
X196420000Y-102086200D02*
X196420000Y-101980000D01*
D24*
%TO.N,RF1_IO1*%
X203541506Y-96764297D02*
X200447209Y-93670000D01*
X200447209Y-93670000D02*
X199020000Y-93670000D01*
%TO.N,SPI1_CS0*%
X203330000Y-92280000D02*
X202250000Y-91200000D01*
X203330000Y-92920000D02*
X203330000Y-92280000D01*
%TO.N,SPI1_MOSI*%
X200580000Y-91592800D02*
X201440000Y-92452800D01*
X200580000Y-91340400D02*
X200580000Y-91592800D01*
%TO.N,SPI1_SCK*%
X202652799Y-92452799D02*
X202668243Y-92452799D01*
X201470000Y-91270000D02*
X202652799Y-92452799D01*
%TO.N,unconnected-(U18-GPIO7-Pad10)*%
X205681816Y-96066340D02*
X205410707Y-95795231D01*
%TO.N,+1V1*%
X211655555Y-99610402D02*
X208294645Y-99610402D01*
X208294645Y-99610402D02*
X208242799Y-99662248D01*
%TO.N,BOOTSEL*%
X209480000Y-90880000D02*
X209480000Y-89600000D01*
X212000000Y-93400000D02*
X209480000Y-90880000D01*
%TD*%
M02*
