%TF.GenerationSoftware,KiCad,Pcbnew,9.0.3*%
%TF.CreationDate,2026-04-21T00:18:48-07:00*%
%TF.ProjectId,proves_radio_stick_V1,70726f76-6573-45f7-9261-64696f5f7374,rev?*%
%TF.SameCoordinates,Original*%
%TF.FileFunction,Copper,L4,Bot*%
%TF.FilePolarity,Positive*%
%FSLAX46Y46*%
G04 Gerber Fmt 4.6, Leading zero omitted, Abs format (unit mm)*
G04 Created by KiCad (PCBNEW 9.0.3) date 2026-04-21 00:18:48*
%MOMM*%
%LPD*%
G01*
G04 APERTURE LIST*
G04 Aperture macros list*
%AMRoundRect*
0 Rectangle with rounded corners*
0 $1 Rounding radius*
0 $2 $3 $4 $5 $6 $7 $8 $9 X,Y pos of 4 corners*
0 Add a 4 corners polygon primitive as box body*
4,1,4,$2,$3,$4,$5,$6,$7,$8,$9,$2,$3,0*
0 Add four circle primitives for the rounded corners*
1,1,$1+$1,$2,$3*
1,1,$1+$1,$4,$5*
1,1,$1+$1,$6,$7*
1,1,$1+$1,$8,$9*
0 Add four rect primitives between the rounded corners*
20,1,$1+$1,$2,$3,$4,$5,0*
20,1,$1+$1,$4,$5,$6,$7,0*
20,1,$1+$1,$6,$7,$8,$9,0*
20,1,$1+$1,$8,$9,$2,$3,0*%
G04 Aperture macros list end*
%TA.AperFunction,ComponentPad*%
%ADD10C,2.000000*%
%TD*%
%TA.AperFunction,ComponentPad*%
%ADD11R,1.700000X1.700000*%
%TD*%
%TA.AperFunction,ComponentPad*%
%ADD12C,1.700000*%
%TD*%
%TA.AperFunction,ComponentPad*%
%ADD13C,2.600000*%
%TD*%
%TA.AperFunction,ConnectorPad*%
%ADD14C,4.400000*%
%TD*%
%TA.AperFunction,ComponentPad*%
%ADD15C,2.050000*%
%TD*%
%TA.AperFunction,ComponentPad*%
%ADD16C,2.250000*%
%TD*%
%TA.AperFunction,ComponentPad*%
%ADD17C,0.600000*%
%TD*%
%TA.AperFunction,ComponentPad*%
%ADD18RoundRect,0.249999X-0.850001X-0.850001X0.850001X-0.850001X0.850001X0.850001X-0.850001X0.850001X0*%
%TD*%
%TA.AperFunction,ComponentPad*%
%ADD19C,2.200000*%
%TD*%
%TA.AperFunction,ComponentPad*%
%ADD20O,2.100000X1.000000*%
%TD*%
%TA.AperFunction,ComponentPad*%
%ADD21O,1.600000X1.000000*%
%TD*%
%TA.AperFunction,ViaPad*%
%ADD22C,0.560000*%
%TD*%
%TA.AperFunction,ViaPad*%
%ADD23C,0.800000*%
%TD*%
%TA.AperFunction,ViaPad*%
%ADD24C,0.460000*%
%TD*%
%TA.AperFunction,ViaPad*%
%ADD25C,0.600000*%
%TD*%
%TA.AperFunction,Conductor*%
%ADD26C,0.152400*%
%TD*%
%TA.AperFunction,Conductor*%
%ADD27C,0.342392*%
%TD*%
%TA.AperFunction,Conductor*%
%ADD28C,0.127000*%
%TD*%
%TA.AperFunction,Conductor*%
%ADD29C,0.250000*%
%TD*%
G04 APERTURE END LIST*
D10*
%TO.P,TP7,1,1*%
%TO.N,RF1_RST*%
X195100000Y-94700000D03*
%TD*%
%TO.P,TP6,1,1*%
%TO.N,RF1_IO1*%
X194500000Y-87000000D03*
%TD*%
%TO.P,TP5,1,1*%
%TO.N,RF1_IO0*%
X191000000Y-87000000D03*
%TD*%
%TO.P,TP4,1,1*%
%TO.N,SPI1_MOSI*%
X184000000Y-87000000D03*
%TD*%
%TO.P,TP3,1,1*%
%TO.N,SPI1_SCK*%
X180600000Y-87000000D03*
%TD*%
%TO.P,TP2,1,1*%
%TO.N,SPI1_CS0*%
X180600000Y-90800000D03*
%TD*%
%TO.P,TP1,1,1*%
%TO.N,SPI1_MISO*%
X187500000Y-87000000D03*
%TD*%
D11*
%TO.P,J4,1,Pin_1*%
%TO.N,GND*%
X205050000Y-85600000D03*
D12*
%TO.P,J4,2,Pin_2*%
%TO.N,SCL1*%
X207590000Y-85600000D03*
%TO.P,J4,3,Pin_3*%
%TO.N,SDA1*%
X210129999Y-85600000D03*
%TO.P,J4,4,Pin_4*%
%TO.N,RX*%
X212670000Y-85600000D03*
%TO.P,J4,5,Pin_5*%
%TO.N,TX*%
X215210000Y-85600000D03*
%TO.P,J4,6,Pin_6*%
%TO.N,+3V3*%
X217750000Y-85600000D03*
%TD*%
D13*
%TO.P,H2,1*%
%TO.N,N/C*%
X222000000Y-112000000D03*
D14*
X222000000Y-112000000D03*
%TD*%
D11*
%TO.P,J1,1,Pin_1*%
%TO.N,SWDIO*%
X200100000Y-106890000D03*
D12*
%TO.P,J1,2,Pin_2*%
%TO.N,GND*%
X197560000Y-106890000D03*
%TO.P,J1,3,Pin_3*%
%TO.N,SWCLK*%
X195020001Y-106890000D03*
%TD*%
D15*
%TO.P,J2,1,In*%
%TO.N,Net-(J2-In)*%
X174710000Y-88610000D03*
D16*
%TO.P,J2,2,Ext*%
%TO.N,GND*%
X172170000Y-86070000D03*
X172170000Y-91150000D03*
X177250000Y-86070000D03*
X177250000Y-91150000D03*
%TD*%
D13*
%TO.P,H4,1*%
%TO.N,N/C*%
X222000000Y-87000000D03*
D14*
X222000000Y-87000000D03*
%TD*%
D13*
%TO.P,H3,1*%
%TO.N,N/C*%
X168000000Y-87000000D03*
D14*
X168000000Y-87000000D03*
%TD*%
D17*
%TO.P,U18,61,GND*%
%TO.N,GND*%
X207487799Y-97174742D03*
X206112799Y-97174742D03*
X204737799Y-97174742D03*
X207487799Y-98549742D03*
X206112799Y-98549742D03*
X204737799Y-98549742D03*
X207487799Y-99924742D03*
X206112799Y-99924742D03*
X204737799Y-99924742D03*
%TD*%
D18*
%TO.P,J3,1,Pin_1*%
%TO.N,GND*%
X194140000Y-113500000D03*
D19*
%TO.P,J3,2,Pin_2*%
%TO.N,GPIO22*%
X196680000Y-113500000D03*
%TO.P,J3,3,Pin_3*%
%TO.N,GPIO23*%
X199220000Y-113500000D03*
%TO.P,J3,4,Pin_4*%
%TO.N,GPIO24*%
X201760000Y-113500000D03*
%TO.P,J3,5,Pin_5*%
%TO.N,GPIO25*%
X204300000Y-113500000D03*
%TO.P,J3,6,Pin_6*%
%TO.N,GPIO26*%
X206840000Y-113500000D03*
%TO.P,J3,7,Pin_7*%
%TO.N,GPIO27*%
X209380000Y-113500000D03*
%TO.P,J3,8,Pin_8*%
%TO.N,GPIO28*%
X211920000Y-113500000D03*
%TO.P,J3,9,Pin_9*%
%TO.N,GPIO29*%
X214460000Y-113500000D03*
%TO.P,J3,10,Pin_10*%
%TO.N,GND*%
X217000000Y-113500000D03*
%TD*%
D20*
%TO.P,J12,S1,SHIELD*%
%TO.N,GND*%
X217850000Y-103210000D03*
D21*
X222030000Y-103210000D03*
D20*
X217850000Y-94570000D03*
D21*
X222030000Y-94570000D03*
%TD*%
D13*
%TO.P,H1,1*%
%TO.N,N/C*%
X168000000Y-112000000D03*
D14*
X168000000Y-112000000D03*
%TD*%
D22*
%TO.N,RF1_RST*%
X200000000Y-92700000D03*
%TO.N,RF1_IO0*%
X188253800Y-92653800D03*
D23*
%TO.N,SPI1_MISO*%
X185939334Y-92487125D03*
%TO.N,SPI1_MOSI*%
X185836108Y-91492464D03*
%TO.N,SPI1_SCK*%
X184913800Y-91106000D03*
%TO.N,GND*%
X197000000Y-103000000D03*
D22*
X185699999Y-116400000D03*
X182870000Y-109290000D03*
X172800001Y-116400000D03*
X165500000Y-97100000D03*
X188700000Y-116400000D03*
X176000000Y-106000000D03*
X191000000Y-104000000D03*
X191800000Y-89500000D03*
X165900000Y-116400000D03*
X192000000Y-116000000D03*
X191000000Y-102000000D03*
X175000000Y-106000000D03*
D24*
X197230577Y-95721315D03*
D22*
X184000000Y-106000000D03*
X202700000Y-86200000D03*
X191000000Y-101000000D03*
X168799999Y-116400000D03*
D24*
X196382048Y-100246798D03*
D22*
X165500000Y-103099999D03*
D24*
X195745652Y-99610402D03*
D22*
X176000000Y-95900000D03*
X194200000Y-85000000D03*
D24*
X199069054Y-95014208D03*
D22*
X186300000Y-85000000D03*
X180700000Y-116400000D03*
D24*
X199200000Y-88520001D03*
D22*
X220300000Y-90300000D03*
X212518920Y-92005508D03*
X165500000Y-93200000D03*
X173800000Y-116400000D03*
X210750000Y-108410000D03*
X174000000Y-106000000D03*
X165500000Y-99100000D03*
X192000000Y-111000000D03*
X215200000Y-102120000D03*
X184700000Y-116400000D03*
X193200000Y-85000000D03*
X183700000Y-116400000D03*
X185300000Y-85000000D03*
X183000000Y-106000000D03*
X189700000Y-116400000D03*
D24*
X215120378Y-96923396D03*
D22*
X210425189Y-94307101D03*
D24*
X210192342Y-102707658D03*
D22*
X165500000Y-106999999D03*
X174800000Y-116400000D03*
X190700000Y-111400000D03*
D24*
X197230577Y-100812483D03*
X195109256Y-98974006D03*
D22*
X181699999Y-116400000D03*
X165500000Y-92200001D03*
X192000000Y-114000000D03*
X191000000Y-99000000D03*
X181530000Y-109300000D03*
D24*
X207044793Y-91902938D03*
X196382048Y-96569843D03*
D22*
X165500000Y-108000000D03*
X188300000Y-85000000D03*
X165500000Y-94099999D03*
X178800000Y-116400000D03*
X191000000Y-96000000D03*
X174600000Y-109610000D03*
D24*
X199300000Y-86320001D03*
D22*
X173400000Y-96000000D03*
X191000000Y-97000000D03*
D24*
X204703040Y-91539164D03*
X194897124Y-98196188D03*
D22*
X165500000Y-101100000D03*
X165500000Y-95100000D03*
X165500000Y-105100000D03*
D24*
X195604231Y-97347660D03*
D22*
X190800000Y-116400000D03*
X173400000Y-109580000D03*
X175950000Y-109650000D03*
X171800000Y-116400000D03*
D24*
X205850207Y-104567220D03*
D22*
X179300000Y-85000000D03*
X189300000Y-85000000D03*
X177000000Y-106000000D03*
X169800000Y-116400000D03*
X179000000Y-106000000D03*
X192000000Y-112000000D03*
X218208500Y-106161500D03*
X183300000Y-85000000D03*
X165500000Y-106000000D03*
X192000000Y-110000000D03*
X191000000Y-98000000D03*
X178000000Y-106000000D03*
X191000000Y-100000000D03*
D24*
X200792725Y-97922936D03*
D22*
X192000000Y-108000000D03*
X217358500Y-106161500D03*
X218658500Y-104261500D03*
X184300000Y-85000000D03*
X170800001Y-116400000D03*
X186700000Y-116400000D03*
X190300000Y-85000000D03*
D24*
X210807027Y-101661012D03*
D22*
X165500000Y-102100000D03*
D24*
X199846872Y-95792024D03*
D22*
X217708500Y-104161500D03*
X165500000Y-90200000D03*
X176800000Y-116400000D03*
X192200000Y-85000000D03*
X165500000Y-96100000D03*
X181300000Y-85000000D03*
X165500000Y-109000000D03*
X173000000Y-106000000D03*
X191000000Y-103000000D03*
X165500000Y-98100001D03*
X191230000Y-94170000D03*
X180000000Y-106000000D03*
X167900000Y-116400000D03*
D25*
X202206133Y-103383877D03*
D22*
X179800001Y-116400000D03*
D24*
X199935260Y-100273606D03*
D22*
X165500000Y-104100000D03*
X191200000Y-85000000D03*
X187700000Y-116400000D03*
X165500000Y-100100000D03*
X182300000Y-85000000D03*
X180300000Y-85000000D03*
X177799999Y-116400000D03*
X192000000Y-113000000D03*
X187300000Y-85000000D03*
D24*
X211938398Y-101661012D03*
D22*
X219099269Y-106108935D03*
X202700000Y-88500000D03*
X182700000Y-116400000D03*
X182000000Y-106000000D03*
X175799999Y-116400000D03*
X166900001Y-116400000D03*
X181000000Y-106000000D03*
X165500000Y-91200000D03*
D24*
X198079105Y-94872786D03*
D23*
X199600000Y-94350000D03*
D22*
X193880000Y-102820000D03*
X190400000Y-109770000D03*
X192000000Y-115000000D03*
D23*
%TO.N,+3V3*%
X187700000Y-112700000D03*
D22*
X219893865Y-106013541D03*
D24*
X214200283Y-102792383D03*
D22*
X206400000Y-88600000D03*
X204130000Y-87720000D03*
D24*
X203513680Y-97532376D03*
D22*
X206204293Y-91685707D03*
X218200000Y-87600000D03*
X208856199Y-104924153D03*
D24*
X212504083Y-97701214D03*
X209220000Y-94400000D03*
D22*
X211500000Y-103700000D03*
X208700000Y-88200000D03*
D24*
X208817335Y-98134389D03*
D22*
X221908500Y-108411500D03*
D23*
X186600000Y-111400000D03*
D22*
X213900000Y-103700000D03*
X209439020Y-102025048D03*
D24*
X202081746Y-101932630D03*
D22*
X205510000Y-103310000D03*
X210800000Y-105000000D03*
D24*
X204787936Y-95942130D03*
D22*
X212700000Y-103700000D03*
X216700000Y-88500000D03*
X205400000Y-88600000D03*
X203990000Y-90530000D03*
X215100000Y-103700000D03*
X216358500Y-104311500D03*
%TO.N,VBUS*%
X218720000Y-100830000D03*
X219490000Y-109020000D03*
X220178917Y-108268364D03*
%TO.N,/USBBOOT*%
X198800000Y-87700000D03*
X209000000Y-91500000D03*
%TO.N,/QSPI_SD1*%
X213086706Y-92573294D03*
X213070000Y-90910000D03*
%TO.N,/QSPI_SD3*%
X214418124Y-95018124D03*
X215960000Y-91390000D03*
%TO.N,/QSPI_SD0*%
X217028124Y-92408124D03*
X215601537Y-92261538D03*
%TO.N,TX*%
X208600000Y-96500000D03*
%TO.N,RX*%
X207902778Y-96011478D03*
%TO.N,SDA1*%
X208356200Y-89800000D03*
X207100000Y-90043800D03*
%TO.N,FC_RESET*%
X202220000Y-90370000D03*
D24*
X200111249Y-100951250D03*
%TO.N,SWCLK*%
X203566152Y-98937250D03*
%TO.N,SWDIO*%
X203840000Y-99600000D03*
D22*
%TO.N,RF1_IO2*%
X203581552Y-100390997D03*
X186700000Y-109610000D03*
%TO.N,RF1_RST*%
X187270000Y-92452800D03*
X205730000Y-94070000D03*
%TO.N,RF1_IO5*%
X198751041Y-104021882D03*
X194430000Y-99520000D03*
%TO.N,RF1_IO4*%
X195400000Y-100960000D03*
X196420000Y-102086200D03*
%TO.N,RF1_IO1*%
X199020000Y-93670000D03*
D24*
X203541506Y-96764297D03*
D22*
%TO.N,SPI1_CS0*%
X203330000Y-92920000D03*
X202250000Y-91200000D03*
%TO.N,SPI1_MOSI*%
X200210000Y-91340400D03*
X201440000Y-92452800D03*
%TO.N,SPI1_SCK*%
X202668243Y-92452799D03*
X201120000Y-91260000D03*
D24*
%TO.N,+1V1*%
X211655555Y-99610402D03*
X208242799Y-99662248D03*
X212433372Y-99610402D03*
D22*
%TO.N,BOOTSEL*%
X209667252Y-90144682D03*
X212000000Y-93400000D03*
%TO.N,GPIO25*%
X205898425Y-101095025D03*
%TO.N,GPIO22*%
X204010000Y-101070000D03*
%TO.N,GPIO28*%
X208200000Y-101000000D03*
%TO.N,GPIO26*%
X207068998Y-101105404D03*
%TO.N,GPIO24*%
X205010000Y-100830000D03*
X204120685Y-107501001D03*
%TO.N,GPIO27*%
X207575960Y-102897702D03*
%TO.N,GPIO23*%
X204686783Y-102890334D03*
%TO.N,Firmware_Active*%
X196873002Y-89873600D03*
D24*
X205681816Y-96066340D03*
%TD*%
D26*
%TO.N,RF1_IO1*%
X194500000Y-89150000D02*
X194500000Y-87000000D01*
X199020000Y-93670000D02*
X194500000Y-89150000D01*
%TO.N,RF1_IO0*%
X188607600Y-89392400D02*
X191000000Y-87000000D01*
X188607600Y-92300000D02*
X188607600Y-89392400D01*
X188253800Y-92653800D02*
X188607600Y-92300000D01*
%TO.N,RF1_RST*%
X200076992Y-92776992D02*
X200000000Y-92700000D01*
X200076992Y-92800000D02*
X200076992Y-92776992D01*
X200076992Y-92800000D02*
X201346992Y-94070000D01*
X201346992Y-94070000D02*
X205730000Y-94070000D01*
%TO.N,SPI1_MISO*%
X187500000Y-90926459D02*
X187500000Y-87000000D01*
X185939334Y-92487125D02*
X187500000Y-90926459D01*
%TO.N,SPI1_MOSI*%
X185836108Y-88836108D02*
X184000000Y-87000000D01*
X185836108Y-91492464D02*
X185836108Y-88836108D01*
%TO.N,SPI1_SCK*%
X184706000Y-91106000D02*
X180600000Y-87000000D01*
X184913800Y-91106000D02*
X184706000Y-91106000D01*
D27*
%TO.N,+3V3*%
X216358500Y-104311500D02*
X217503739Y-105456739D01*
X219866340Y-105953660D02*
X219866340Y-105986016D01*
X217503739Y-105456739D02*
X219369418Y-105456739D01*
X221908500Y-107995821D02*
X221908500Y-108411500D01*
X219369418Y-105456739D02*
X219866340Y-105953660D01*
X219866340Y-105953660D02*
X221908500Y-107995821D01*
X219866340Y-105986016D02*
X219893865Y-106013541D01*
D26*
%TO.N,/USBBOOT*%
X208100000Y-90600000D02*
X206222000Y-90600000D01*
X209000000Y-91500000D02*
X208100000Y-90600000D01*
X206222000Y-90600000D02*
X203322000Y-87700000D01*
X203322000Y-87700000D02*
X198800000Y-87700000D01*
%TO.N,/QSPI_SD1*%
X213086706Y-90926706D02*
X213070000Y-90910000D01*
X213086706Y-92573294D02*
X213086706Y-90926706D01*
%TO.N,/QSPI_SD3*%
X214418124Y-95018124D02*
X214418124Y-92656951D01*
X214418124Y-92656951D02*
X215685075Y-91390000D01*
X215685075Y-91390000D02*
X215960000Y-91390000D01*
%TO.N,/QSPI_SD0*%
X217028124Y-92408124D02*
X217000000Y-92380000D01*
X215719999Y-92380000D02*
X215601537Y-92261538D01*
X217000000Y-92380000D02*
X215719999Y-92380000D01*
%TO.N,TX*%
X215210000Y-91238000D02*
X215210000Y-85600000D01*
X210145920Y-96302080D02*
X215210000Y-91238000D01*
X208600000Y-96500000D02*
X208797920Y-96302080D01*
X208797920Y-96302080D02*
X210145920Y-96302080D01*
%TO.N,RX*%
X207902778Y-96011478D02*
X207902778Y-93385222D01*
X209778462Y-91509538D02*
X209778462Y-91043892D01*
X207902778Y-93385222D02*
X209778462Y-91509538D01*
X209110052Y-90375482D02*
X209110052Y-89159948D01*
X209778462Y-91043892D02*
X209110052Y-90375482D01*
X209110052Y-89159948D02*
X212670000Y-85600000D01*
%TO.N,SDA1*%
X208356200Y-89800000D02*
X207343800Y-89800000D01*
X207343800Y-89800000D02*
X207100000Y-90043800D01*
%TO.N,FC_RESET*%
X204160000Y-95070000D02*
X205518000Y-95070000D01*
X205518000Y-95070000D02*
X206287200Y-94300800D01*
X204160000Y-97603346D02*
X204160000Y-95070000D01*
X203333296Y-98430050D02*
X204160000Y-97603346D01*
X200111249Y-100951250D02*
X202632449Y-98430050D01*
X206287200Y-93839200D02*
X202818000Y-90370000D01*
X202818000Y-90370000D02*
X202220000Y-90370000D01*
X202632449Y-98430050D02*
X203333296Y-98430050D01*
X206287200Y-94300800D02*
X206287200Y-93839200D01*
D28*
%TO.N,SWCLK*%
X203527293Y-98935184D02*
X203488472Y-98974006D01*
D29*
X196196001Y-105714000D02*
X198047116Y-105714000D01*
D28*
X203566152Y-98937250D02*
X203564087Y-98935183D01*
X202781365Y-98974006D02*
X201119664Y-100635707D01*
X203564087Y-98935183D02*
X203527293Y-98935184D01*
D29*
X195020001Y-106890000D02*
X196196001Y-105714000D01*
X199357041Y-102490348D02*
X201119664Y-100727725D01*
X201119664Y-100727725D02*
X201119664Y-100635707D01*
X198047116Y-105714000D02*
X199357041Y-104404075D01*
X199357041Y-104404075D02*
X199357041Y-102490348D01*
D28*
X203488472Y-98974006D02*
X202781365Y-98974006D01*
D29*
%TO.N,SWDIO*%
X200100000Y-106890000D02*
X199892623Y-106682623D01*
D28*
X203837269Y-99602731D02*
X203594539Y-99602731D01*
X203840000Y-99600000D02*
X203837269Y-99602731D01*
D29*
X199892623Y-106682623D02*
X199892623Y-102592576D01*
D28*
X203390076Y-99398270D02*
X202999956Y-99398270D01*
D29*
X199892623Y-102592576D02*
X201516704Y-100968495D01*
D28*
X202999956Y-99398270D02*
X201473217Y-100925008D01*
X203594539Y-99602731D02*
X203390076Y-99398270D01*
D26*
%TO.N,RF1_IO2*%
X203581552Y-100390997D02*
X202900000Y-101072549D01*
X192600000Y-108500000D02*
X190762800Y-110337200D01*
X187427200Y-110337200D02*
X186700000Y-109610000D01*
X202900000Y-106344400D02*
X200744400Y-108500000D01*
X202900000Y-101072549D02*
X202900000Y-106344400D01*
X190762800Y-110337200D02*
X187427200Y-110337200D01*
X200744400Y-108500000D02*
X192600000Y-108500000D01*
%TO.N,RF1_IO5*%
X194748000Y-99520000D02*
X194430000Y-99520000D01*
X198751041Y-103523041D02*
X194748000Y-99520000D01*
X198751041Y-104021882D02*
X198751041Y-103523041D01*
D28*
%TO.N,RF1_IO4*%
X196420000Y-101980000D02*
X195400000Y-100960000D01*
X196420000Y-102086200D02*
X196420000Y-101980000D01*
D26*
%TO.N,RF1_IO1*%
X203541506Y-96764297D02*
X200447209Y-93670000D01*
X200447209Y-93670000D02*
X199020000Y-93670000D01*
%TO.N,SPI1_CS0*%
X203330000Y-92280000D02*
X202250000Y-91200000D01*
X203330000Y-92920000D02*
X203330000Y-92280000D01*
%TO.N,SPI1_MOSI*%
X200580000Y-91592800D02*
X201440000Y-92452800D01*
X200210000Y-91340400D02*
X200462400Y-91592800D01*
X200462400Y-91592800D02*
X200580000Y-91592800D01*
%TO.N,SPI1_SCK*%
X201460000Y-91260000D02*
X202652799Y-92452799D01*
X202652799Y-92452799D02*
X202668243Y-92452799D01*
X201120000Y-91260000D02*
X201460000Y-91260000D01*
%TO.N,+1V1*%
X211655555Y-99610402D02*
X208294645Y-99610402D01*
X208294645Y-99610402D02*
X208242799Y-99662248D01*
%TO.N,BOOTSEL*%
X209844682Y-90144682D02*
X212000000Y-92300000D01*
X209667252Y-90144682D02*
X209844682Y-90144682D01*
X212000000Y-92300000D02*
X212000000Y-93400000D01*
%TO.N,GPIO25*%
X206390000Y-101586600D02*
X205898425Y-101095025D01*
X204300000Y-113500000D02*
X205100000Y-112700000D01*
X205100000Y-106600000D02*
X206390000Y-105310000D01*
X206390000Y-105310000D02*
X206390000Y-101586600D01*
X205100000Y-112700000D02*
X205100000Y-106600000D01*
%TO.N,GPIO22*%
X204010000Y-101155086D02*
X203563485Y-101601601D01*
X203563485Y-106616515D02*
X196680000Y-113500000D01*
X204010000Y-101070000D02*
X204010000Y-101155086D01*
X203563485Y-101601601D02*
X203563485Y-106616515D01*
%TO.N,GPIO28*%
X208300000Y-109880000D02*
X211920000Y-113500000D01*
X208300000Y-101570806D02*
X208300000Y-109880000D01*
X208200000Y-101470806D02*
X208300000Y-101570806D01*
X208200000Y-101000000D02*
X208200000Y-101470806D01*
%TO.N,GPIO26*%
X207018760Y-101155642D02*
X207018760Y-113321240D01*
X207068998Y-101105404D02*
X207018760Y-101155642D01*
X207018760Y-113321240D02*
X206840000Y-113500000D01*
%TO.N,GPIO24*%
X205010000Y-100830000D02*
X205010000Y-101175841D01*
X205010000Y-101175841D02*
X204120685Y-102065156D01*
X204120685Y-102065156D02*
X204120685Y-107501001D01*
%TO.N,GPIO27*%
X207575960Y-111695960D02*
X209380000Y-113500000D01*
X207575960Y-102897702D02*
X207575960Y-111695960D01*
%TO.N,GPIO23*%
X204686783Y-108033217D02*
X199220000Y-113500000D01*
X204686783Y-102890334D02*
X204686783Y-108033217D01*
%TO.N,Firmware_Active*%
X205210240Y-90962240D02*
X204060800Y-89812800D01*
X205681816Y-96066340D02*
X206640600Y-95107556D01*
X206640600Y-92908600D02*
X205210240Y-91478240D01*
X196933802Y-89812800D02*
X196873002Y-89873600D01*
X204060800Y-89812800D02*
X196933802Y-89812800D01*
X205210240Y-91478240D02*
X205210240Y-90962240D01*
X206640600Y-95107556D02*
X206640600Y-92908600D01*
%TD*%
M02*
