%TF.GenerationSoftware,KiCad,Pcbnew,9.0.0*%
%TF.CreationDate,2025-04-09T19:33:59-07:00*%
%TF.ProjectId,FC_V5a,46435f56-3561-42e6-9b69-6361645f7063,rev?*%
%TF.SameCoordinates,Original*%
%TF.FileFunction,Soldermask,Bot*%
%TF.FilePolarity,Negative*%
%FSLAX46Y46*%
G04 Gerber Fmt 4.6, Leading zero omitted, Abs format (unit mm)*
G04 Created by KiCad (PCBNEW 9.0.0) date 2025-04-09 19:33:59*
%MOMM*%
%LPD*%
G01*
G04 APERTURE LIST*
G04 Aperture macros list*
%AMRoundRect*
0 Rectangle with rounded corners*
0 $1 Rounding radius*
0 $2 $3 $4 $5 $6 $7 $8 $9 X,Y pos of 4 corners*
0 Add a 4 corners polygon primitive as box body*
4,1,4,$2,$3,$4,$5,$6,$7,$8,$9,$2,$3,0*
0 Add four circle primitives for the rounded corners*
1,1,$1+$1,$2,$3*
1,1,$1+$1,$4,$5*
1,1,$1+$1,$6,$7*
1,1,$1+$1,$8,$9*
0 Add four rect primitives between the rounded corners*
20,1,$1+$1,$2,$3,$4,$5,0*
20,1,$1+$1,$4,$5,$6,$7,0*
20,1,$1+$1,$6,$7,$8,$9,0*
20,1,$1+$1,$8,$9,$2,$3,0*%
%AMRotRect*
0 Rectangle, with rotation*
0 The origin of the aperture is its center*
0 $1 length*
0 $2 width*
0 $3 Rotation angle, in degrees counterclockwise*
0 Add horizontal line*
21,1,$1,$2,0,0,$3*%
%AMFreePoly0*
4,1,23,0.500000,-0.750000,0.000000,-0.750000,0.000000,-0.745722,-0.065263,-0.745722,-0.191342,-0.711940,-0.304381,-0.646677,-0.396677,-0.554381,-0.461940,-0.441342,-0.495722,-0.315263,-0.495722,-0.250000,-0.500000,-0.250000,-0.500000,0.250000,-0.495722,0.250000,-0.495722,0.315263,-0.461940,0.441342,-0.396677,0.554381,-0.304381,0.646677,-0.191342,0.711940,-0.065263,0.745722,0.000000,0.745722,
0.000000,0.750000,0.500000,0.750000,0.500000,-0.750000,0.500000,-0.750000,$1*%
%AMFreePoly1*
4,1,23,0.000000,0.745722,0.065263,0.745722,0.191342,0.711940,0.304381,0.646677,0.396677,0.554381,0.461940,0.441342,0.495722,0.315263,0.495722,0.250000,0.500000,0.250000,0.500000,-0.250000,0.495722,-0.250000,0.495722,-0.315263,0.461940,-0.441342,0.396677,-0.554381,0.304381,-0.646677,0.191342,-0.711940,0.065263,-0.745722,0.000000,-0.745722,0.000000,-0.750000,-0.500000,-0.750000,
-0.500000,0.750000,0.000000,0.750000,0.000000,0.745722,0.000000,0.745722,$1*%
G04 Aperture macros list end*
%ADD10C,2.000000*%
%ADD11C,2.050000*%
%ADD12C,2.250000*%
%ADD13R,1.700000X1.700000*%
%ADD14O,1.700000X1.700000*%
%ADD15C,5.000000*%
%ADD16RoundRect,0.250000X0.575000X-0.350000X0.575000X0.350000X-0.575000X0.350000X-0.575000X-0.350000X0*%
%ADD17O,1.650000X1.200000*%
%ADD18RoundRect,0.250000X-0.575000X0.350000X-0.575000X-0.350000X0.575000X-0.350000X0.575000X0.350000X0*%
%ADD19R,1.000000X1.000000*%
%ADD20O,1.000000X1.000000*%
%ADD21O,1.700000X2.900000*%
%ADD22RoundRect,0.200000X0.275000X-0.200000X0.275000X0.200000X-0.275000X0.200000X-0.275000X-0.200000X0*%
%ADD23RoundRect,0.200000X-0.275000X0.200000X-0.275000X-0.200000X0.275000X-0.200000X0.275000X0.200000X0*%
%ADD24RoundRect,0.225000X-0.250000X0.225000X-0.250000X-0.225000X0.250000X-0.225000X0.250000X0.225000X0*%
%ADD25FreePoly0,270.000000*%
%ADD26FreePoly1,270.000000*%
%ADD27RoundRect,0.250000X0.350000X0.575000X-0.350000X0.575000X-0.350000X-0.575000X0.350000X-0.575000X0*%
%ADD28O,1.200000X1.650000*%
%ADD29RoundRect,0.225000X-0.225000X-0.250000X0.225000X-0.250000X0.225000X0.250000X-0.225000X0.250000X0*%
%ADD30RoundRect,0.140000X0.170000X-0.140000X0.170000X0.140000X-0.170000X0.140000X-0.170000X-0.140000X0*%
%ADD31RoundRect,0.250000X0.325000X1.100000X-0.325000X1.100000X-0.325000X-1.100000X0.325000X-1.100000X0*%
%ADD32RoundRect,0.200000X0.335876X0.053033X0.053033X0.335876X-0.335876X-0.053033X-0.053033X-0.335876X0*%
%ADD33R,2.000000X1.500000*%
%ADD34R,2.000000X3.800000*%
%ADD35R,0.550000X1.000000*%
%ADD36RoundRect,0.200000X0.053033X-0.335876X0.335876X-0.053033X-0.053033X0.335876X-0.335876X0.053033X0*%
%ADD37RoundRect,0.140000X-0.170000X0.140000X-0.170000X-0.140000X0.170000X-0.140000X0.170000X0.140000X0*%
%ADD38RotRect,0.782600X0.254800X225.000000*%
%ADD39RotRect,0.254800X0.782600X225.000000*%
%ADD40RotRect,2.794000X2.794000X225.000000*%
%ADD41RoundRect,0.250000X0.500000X-0.950000X0.500000X0.950000X-0.500000X0.950000X-0.500000X-0.950000X0*%
%ADD42RoundRect,0.250000X0.500000X-0.275000X0.500000X0.275000X-0.500000X0.275000X-0.500000X-0.275000X0*%
%ADD43RoundRect,0.150000X-0.150000X0.825000X-0.150000X-0.825000X0.150000X-0.825000X0.150000X0.825000X0*%
%ADD44RoundRect,0.225000X0.225000X0.250000X-0.225000X0.250000X-0.225000X-0.250000X0.225000X-0.250000X0*%
%ADD45RoundRect,0.200000X0.200000X0.275000X-0.200000X0.275000X-0.200000X-0.275000X0.200000X-0.275000X0*%
%ADD46RoundRect,0.250000X-0.500000X0.950000X-0.500000X-0.950000X0.500000X-0.950000X0.500000X0.950000X0*%
%ADD47RoundRect,0.250000X-0.500000X0.275000X-0.500000X-0.275000X0.500000X-0.275000X0.500000X0.275000X0*%
%ADD48RoundRect,0.140000X0.140000X0.170000X-0.140000X0.170000X-0.140000X-0.170000X0.140000X-0.170000X0*%
%ADD49RoundRect,0.200000X-0.200000X-0.275000X0.200000X-0.275000X0.200000X0.275000X-0.200000X0.275000X0*%
%ADD50R,0.600000X1.100000*%
%ADD51R,1.000000X0.550000*%
%ADD52RoundRect,0.140000X-0.140000X-0.170000X0.140000X-0.170000X0.140000X0.170000X-0.140000X0.170000X0*%
%ADD53RoundRect,0.250000X-1.450000X0.312500X-1.450000X-0.312500X1.450000X-0.312500X1.450000X0.312500X0*%
%ADD54RoundRect,0.250000X1.425000X-0.362500X1.425000X0.362500X-1.425000X0.362500X-1.425000X-0.362500X0*%
%ADD55RoundRect,0.150000X0.150000X-0.825000X0.150000X0.825000X-0.150000X0.825000X-0.150000X-0.825000X0*%
%ADD56R,1.100000X0.700000*%
%ADD57R,0.930000X0.900000*%
%ADD58R,0.780000X1.050000*%
%ADD59R,3.330000X0.700000*%
%ADD60R,2.800000X0.860000*%
%ADD61R,1.830000X1.140000*%
%ADD62R,3.000000X3.100000*%
%ADD63RoundRect,0.100000X0.687500X0.100000X-0.687500X0.100000X-0.687500X-0.100000X0.687500X-0.100000X0*%
%ADD64RoundRect,0.100000X0.100000X-0.625000X0.100000X0.625000X-0.100000X0.625000X-0.100000X-0.625000X0*%
%ADD65R,2.850000X1.650000*%
%ADD66RoundRect,0.250000X1.450000X-0.312500X1.450000X0.312500X-1.450000X0.312500X-1.450000X-0.312500X0*%
%ADD67C,0.650000*%
%ADD68R,1.450000X0.600000*%
%ADD69R,1.450000X0.300000*%
%ADD70O,1.600000X1.000000*%
%ADD71O,2.100000X1.000000*%
%ADD72RoundRect,0.250000X-0.325000X-1.100000X0.325000X-1.100000X0.325000X1.100000X-0.325000X1.100000X0*%
%ADD73RoundRect,0.100000X0.100000X-0.687500X0.100000X0.687500X-0.100000X0.687500X-0.100000X-0.687500X0*%
%ADD74R,1.800000X1.500000*%
%ADD75R,0.600000X2.200000*%
%ADD76R,3.450000X2.150000*%
G04 APERTURE END LIST*
D10*
%TO.C,TP17*%
X192700000Y-133600000D03*
%TD*%
%TO.C,TP15*%
X153000000Y-131000000D03*
%TD*%
D11*
%TO.C,J6*%
X153500000Y-60000000D03*
D12*
X150960000Y-57460000D03*
X150960000Y-62540000D03*
X156040000Y-57460000D03*
X156040000Y-62540000D03*
%TD*%
D13*
%TO.C,J13*%
X183350000Y-124825000D03*
D14*
X180810000Y-124825000D03*
%TD*%
D10*
%TO.C,TP6*%
X196500000Y-122400000D03*
%TD*%
D15*
%TO.C,H2*%
X227300000Y-138000000D03*
%TD*%
D16*
%TO.C,J20*%
X180999999Y-131100000D03*
D17*
X183000000Y-131100000D03*
X180999999Y-129099999D03*
X182999999Y-129100000D03*
%TD*%
D15*
%TO.C,H1*%
X147300000Y-138000000D03*
%TD*%
D16*
%TO.C,J7*%
X168900000Y-133075000D03*
D17*
X170900001Y-133075000D03*
X168900000Y-131074999D03*
X170900000Y-131075000D03*
%TD*%
D16*
%TO.C,J17*%
X150500000Y-125000000D03*
D17*
X152500001Y-125000000D03*
X150500000Y-122999999D03*
X152500000Y-123000000D03*
X150500000Y-121000000D03*
X152500000Y-120999999D03*
X150500000Y-119000000D03*
X152500000Y-119000000D03*
X150500000Y-117000000D03*
X152500000Y-117000000D03*
X150500000Y-115000000D03*
X152500000Y-115000000D03*
%TD*%
D16*
%TO.C,J10*%
X174900000Y-133125000D03*
D17*
X176900001Y-133125000D03*
X174900000Y-131124999D03*
X176900000Y-131125000D03*
%TD*%
D10*
%TO.C,TP4*%
X159000000Y-126400000D03*
%TD*%
D18*
%TO.C,J19*%
X158900000Y-131099999D03*
D17*
X156899999Y-131099999D03*
X158900000Y-133100000D03*
X156900000Y-133099999D03*
%TD*%
D16*
%TO.C,J8*%
X169000000Y-125075000D03*
D17*
X171000001Y-125075000D03*
X169000000Y-123074999D03*
X171000000Y-123075000D03*
%TD*%
D10*
%TO.C,TP2*%
X194200000Y-85200000D03*
%TD*%
%TO.C,TP8*%
X188200000Y-78400000D03*
%TD*%
%TO.C,TP3*%
X149000000Y-131000000D03*
%TD*%
D16*
%TO.C,J29*%
X175000000Y-125075000D03*
D17*
X177000001Y-125075000D03*
X175000000Y-123074999D03*
X177000000Y-123075000D03*
%TD*%
D10*
%TO.C,TP7*%
X184400000Y-78400000D03*
%TD*%
D19*
%TO.C,J22*%
X208275000Y-95550000D03*
D20*
X209545000Y-95550000D03*
X208275000Y-96820000D03*
X209545000Y-96820000D03*
%TD*%
D21*
%TO.C,SW3*%
X214500000Y-131200000D03*
X219300000Y-131200000D03*
X224100000Y-131200000D03*
%TD*%
D10*
%TO.C,TP1*%
X194500000Y-79250000D03*
%TD*%
D16*
%TO.C,J16*%
X222200001Y-73300000D03*
D17*
X224200002Y-73300000D03*
X222200001Y-71299999D03*
X224200001Y-71300000D03*
X222200001Y-69300000D03*
X224200001Y-69299999D03*
X222200001Y-67300000D03*
X224200001Y-67300000D03*
X222200001Y-65300000D03*
X224200001Y-65300000D03*
X222200001Y-63300000D03*
X224200001Y-63300000D03*
%TD*%
D13*
%TO.C,J3*%
X205000000Y-60190000D03*
D14*
X205000000Y-62730000D03*
X205000000Y-65270000D03*
X205000000Y-67810000D03*
X205000000Y-70350000D03*
X205000000Y-72890000D03*
%TD*%
D22*
%TO.C,R43*%
X191131250Y-118875000D03*
X191131250Y-117225000D03*
%TD*%
%TO.C,R71*%
X203208799Y-107066200D03*
X203208799Y-105416200D03*
%TD*%
D23*
%TO.C,R51*%
X214062500Y-97450000D03*
X214062500Y-99100000D03*
%TD*%
D24*
%TO.C,C13*%
X221180000Y-91555000D03*
X221180000Y-93105000D03*
%TD*%
D25*
%TO.C,JP2*%
X175500000Y-117700002D03*
D26*
X175500000Y-119000000D03*
%TD*%
D27*
%TO.C,J21*%
X152825000Y-109000000D03*
D28*
X152825000Y-111000001D03*
X150824999Y-109000000D03*
X150825000Y-111000000D03*
%TD*%
D29*
%TO.C,C40*%
X210725000Y-110000000D03*
X212275000Y-110000000D03*
%TD*%
D30*
%TO.C,C53*%
X212775000Y-119155000D03*
X212775000Y-118195000D03*
%TD*%
D31*
%TO.C,C25*%
X181975000Y-112950000D03*
X179025000Y-112950000D03*
%TD*%
D32*
%TO.C,R67*%
X190408363Y-103808363D03*
X189241637Y-102641637D03*
%TD*%
D33*
%TO.C,IC2*%
X212700000Y-93800000D03*
X212700000Y-91500000D03*
X212700000Y-89200000D03*
D34*
X219000000Y-91500000D03*
%TD*%
D35*
%TO.C,U29*%
X200450000Y-71200001D03*
X199500000Y-71200000D03*
X198550000Y-71200001D03*
X198550000Y-68799999D03*
X199500000Y-68800000D03*
X200450000Y-68799999D03*
%TD*%
D36*
%TO.C,R81*%
X200481453Y-127214905D03*
X201648179Y-126048179D03*
%TD*%
D22*
%TO.C,R66*%
X208000000Y-114475000D03*
X208000000Y-112825000D03*
%TD*%
D37*
%TO.C,C61*%
X161000000Y-109040000D03*
X161000000Y-110000000D03*
%TD*%
D24*
%TO.C,C12*%
X210700000Y-89625000D03*
X210700000Y-91175000D03*
%TD*%
D22*
%TO.C,R38*%
X191131250Y-115775000D03*
X191131250Y-114125000D03*
%TD*%
D30*
%TO.C,C54*%
X194000000Y-128730000D03*
X194000000Y-127770000D03*
%TD*%
D22*
%TO.C,R96*%
X162500000Y-83325000D03*
X162500000Y-81675000D03*
%TD*%
D30*
%TO.C,C27*%
X181600000Y-117980000D03*
X181600000Y-117020000D03*
%TD*%
D23*
%TO.C,R63*%
X178400000Y-107100000D03*
X178400000Y-108750000D03*
%TD*%
D38*
%TO.C,U12*%
X216797153Y-109534628D03*
X217150799Y-109888275D03*
X217504441Y-110241916D03*
X217858084Y-110595559D03*
X218211725Y-110949201D03*
X218565372Y-111302847D03*
D39*
X218565372Y-112297153D03*
X218211725Y-112650799D03*
X217858084Y-113004441D03*
X217504441Y-113358084D03*
X217150799Y-113711725D03*
X216797153Y-114065372D03*
D38*
X215802847Y-114065372D03*
X215449201Y-113711725D03*
X215095559Y-113358084D03*
X214741916Y-113004441D03*
X214388275Y-112650799D03*
X214034628Y-112297153D03*
D39*
X214034628Y-111302847D03*
X214388275Y-110949201D03*
X214741916Y-110595559D03*
X215095559Y-110241916D03*
X215449201Y-109888275D03*
X215802847Y-109534628D03*
D40*
X216300000Y-111800000D03*
%TD*%
D41*
%TO.C,D9*%
X211900000Y-112550000D03*
D42*
X211900000Y-114925000D03*
%TD*%
D37*
%TO.C,C60*%
X162500000Y-109040000D03*
X162500000Y-110000000D03*
%TD*%
D43*
%TO.C,U15*%
X185595000Y-125825000D03*
X186865000Y-125825000D03*
X188135000Y-125825000D03*
X189405000Y-125825000D03*
X189405000Y-130775000D03*
X188135000Y-130775000D03*
X186865000Y-130775000D03*
X185595000Y-130775000D03*
%TD*%
D29*
%TO.C,C36*%
X192656250Y-118750000D03*
X194206250Y-118750000D03*
%TD*%
D23*
%TO.C,R37*%
X191500000Y-109575000D03*
X191500000Y-111225000D03*
%TD*%
D44*
%TO.C,C39*%
X182875000Y-110300000D03*
X181325000Y-110300000D03*
%TD*%
D45*
%TO.C,R85*%
X212725000Y-67700000D03*
X211075000Y-67700000D03*
%TD*%
D44*
%TO.C,C46*%
X170475000Y-107000000D03*
X168925000Y-107000000D03*
%TD*%
D22*
%TO.C,R70*%
X204508800Y-114625000D03*
X204508800Y-112975000D03*
%TD*%
D23*
%TO.C,R89*%
X178425000Y-103000000D03*
X178425000Y-104650000D03*
%TD*%
D24*
%TO.C,C42*%
X204708799Y-106391199D03*
X204708799Y-107941199D03*
%TD*%
D46*
%TO.C,D13*%
X214300000Y-105100000D03*
D47*
X214300000Y-102725000D03*
%TD*%
D45*
%TO.C,R56*%
X219525000Y-116400000D03*
X217875000Y-116400000D03*
%TD*%
D48*
%TO.C,C58*%
X216000000Y-64000000D03*
X215040000Y-64000000D03*
%TD*%
D49*
%TO.C,R36*%
X194575000Y-110000000D03*
X196225000Y-110000000D03*
%TD*%
D24*
%TO.C,C41*%
X210708799Y-106466200D03*
X210708799Y-108016200D03*
%TD*%
D23*
%TO.C,R77*%
X188725000Y-96950000D03*
X188725000Y-98600000D03*
%TD*%
D30*
%TO.C,C80*%
X201635000Y-68835001D03*
X201635000Y-67875001D03*
%TD*%
D29*
%TO.C,C37*%
X192656250Y-117250000D03*
X194206250Y-117250000D03*
%TD*%
D50*
%TO.C,U20*%
X173550000Y-113500000D03*
X174500000Y-113500000D03*
X175450000Y-113500000D03*
X175450000Y-116100000D03*
X173550000Y-116100000D03*
%TD*%
D23*
%TO.C,R65*%
X209875000Y-112650000D03*
X209875000Y-114300000D03*
%TD*%
D45*
%TO.C,R64*%
X179925000Y-110300000D03*
X178275000Y-110300000D03*
%TD*%
D51*
%TO.C,U28*%
X159700001Y-109050000D03*
X159700000Y-110000000D03*
X159700001Y-110950000D03*
X157299999Y-110950000D03*
X157300000Y-110000000D03*
X157299999Y-109050000D03*
%TD*%
D37*
%TO.C,C48*%
X214362499Y-100295000D03*
X214362499Y-101255000D03*
%TD*%
D30*
%TO.C,C79*%
X201585001Y-71385001D03*
X201585001Y-70425001D03*
%TD*%
D22*
%TO.C,R84*%
X195300000Y-125425000D03*
X195300000Y-123775000D03*
%TD*%
D45*
%TO.C,R40*%
X194256250Y-115750000D03*
X192606250Y-115750000D03*
%TD*%
D22*
%TO.C,R74*%
X203208799Y-110066200D03*
X203208799Y-108416200D03*
%TD*%
D23*
%TO.C,R59*%
X221000000Y-117375000D03*
X221000000Y-119025000D03*
%TD*%
D35*
%TO.C,U26*%
X215970000Y-67700001D03*
X215020000Y-67700000D03*
X214070000Y-67700001D03*
X214070000Y-65299999D03*
X215020000Y-65300000D03*
X215970000Y-65299999D03*
%TD*%
D52*
%TO.C,C55*%
X216595000Y-120275000D03*
X217555000Y-120275000D03*
%TD*%
D36*
%TO.C,R83*%
X201559791Y-128257888D03*
X202726517Y-127091162D03*
%TD*%
D53*
%TO.C,L1*%
X178831250Y-115812500D03*
X178831250Y-120087500D03*
%TD*%
D49*
%TO.C,R124*%
X185275000Y-122000000D03*
X186925000Y-122000000D03*
%TD*%
D54*
%TO.C,R75*%
X206008799Y-104803700D03*
X206008799Y-98878700D03*
%TD*%
D51*
%TO.C,U27*%
X166350001Y-109050000D03*
X166350000Y-110000000D03*
X166350001Y-110950000D03*
X163949999Y-110950000D03*
X163950000Y-110000000D03*
X163949999Y-109050000D03*
%TD*%
D22*
%TO.C,R69*%
X206058799Y-114625000D03*
X206058799Y-112975000D03*
%TD*%
D44*
%TO.C,C45*%
X170500000Y-108500000D03*
X168950000Y-108500000D03*
%TD*%
D30*
%TO.C,C76*%
X210100000Y-84980000D03*
X210100000Y-84020000D03*
%TD*%
D52*
%TO.C,C30*%
X188420000Y-132600000D03*
X189380000Y-132600000D03*
%TD*%
D44*
%TO.C,C43*%
X186125000Y-84524999D03*
X184575000Y-84524999D03*
%TD*%
D23*
%TO.C,R42*%
X170400000Y-110175000D03*
X170400000Y-111825000D03*
%TD*%
D55*
%TO.C,U17*%
X175805000Y-111275000D03*
X174535000Y-111275000D03*
X173265000Y-111275000D03*
X171995000Y-111275000D03*
X171995000Y-106325000D03*
X173265000Y-106325000D03*
X174535000Y-106325000D03*
X175805000Y-106325000D03*
%TD*%
D52*
%TO.C,C47*%
X215482499Y-96375001D03*
X216442499Y-96375001D03*
%TD*%
D49*
%TO.C,R50*%
X197485001Y-67355001D03*
X199135001Y-67355001D03*
%TD*%
D23*
%TO.C,R68*%
X211475000Y-96750000D03*
X211475000Y-98400000D03*
%TD*%
D56*
%TO.C,J4*%
X151110000Y-70870000D03*
X151110000Y-71970000D03*
X151110000Y-73070000D03*
X151110000Y-74170000D03*
X151110000Y-75270000D03*
X151110000Y-76370000D03*
X151110000Y-77470000D03*
X151110000Y-78570000D03*
D57*
X163575000Y-69080000D03*
D58*
X163650000Y-73345000D03*
D59*
X162375000Y-79730000D03*
D60*
X151610000Y-79650000D03*
D61*
X151125000Y-66990000D03*
D59*
X162375000Y-66770000D03*
%TD*%
D45*
%TO.C,R87*%
X212725000Y-63800000D03*
X211075000Y-63800000D03*
%TD*%
D30*
%TO.C,C57*%
X199000000Y-128480000D03*
X199000000Y-127520000D03*
%TD*%
D24*
%TO.C,C15*%
X189431250Y-112575000D03*
X189431250Y-114125000D03*
%TD*%
D62*
%TO.C,U10*%
X186231250Y-117650000D03*
D63*
X189093750Y-115700000D03*
X189093750Y-116350000D03*
X189093750Y-117000000D03*
X189093750Y-117650000D03*
X189093750Y-118300000D03*
X189093750Y-118950000D03*
X189093750Y-119600000D03*
X183368750Y-119600000D03*
X183368750Y-118950000D03*
X183368750Y-118300000D03*
X183368750Y-117650000D03*
X183368750Y-117000000D03*
X183368750Y-116350000D03*
X183368750Y-115700000D03*
%TD*%
D23*
%TO.C,R78*%
X190200000Y-96925000D03*
X190200000Y-98575000D03*
%TD*%
D64*
%TO.C,IC6*%
X209323799Y-111001200D03*
X208673800Y-111001200D03*
X208023799Y-111001200D03*
X207373799Y-111001200D03*
X206723798Y-111001200D03*
X206073799Y-111001200D03*
X206073799Y-106701200D03*
X206723798Y-106701200D03*
X207373799Y-106701200D03*
X208023799Y-106701200D03*
X208673800Y-106701200D03*
X209323799Y-106701200D03*
D65*
X207698799Y-108851200D03*
%TD*%
D44*
%TO.C,C16*%
X194206250Y-114250000D03*
X192656250Y-114250000D03*
%TD*%
D22*
%TO.C,R79*%
X166500000Y-114325000D03*
X166500000Y-112675000D03*
%TD*%
D36*
%TO.C,R82*%
X202620451Y-129318548D03*
X203787177Y-128151822D03*
%TD*%
%TO.C,R60*%
X219916637Y-110783363D03*
X221083363Y-109616637D03*
%TD*%
D49*
%TO.C,R54*%
X157174999Y-112500000D03*
X158824999Y-112500000D03*
%TD*%
D66*
%TO.C,L2*%
X210208799Y-104878700D03*
X210208799Y-100603700D03*
%TD*%
D45*
%TO.C,R86*%
X212725000Y-62290000D03*
X211075000Y-62290000D03*
%TD*%
D67*
%TO.C,J12*%
X220750000Y-79530000D03*
X220750000Y-85310000D03*
D68*
X219305000Y-79170000D03*
X219305000Y-79969999D03*
D69*
X219305001Y-81170000D03*
X219305000Y-82170000D03*
X219305000Y-82670000D03*
X219305001Y-83670000D03*
D68*
X219305000Y-84870001D03*
X219305000Y-85670000D03*
X219305000Y-85670000D03*
X219305000Y-84870001D03*
D69*
X219305000Y-84170000D03*
X219305000Y-83170000D03*
X219305000Y-81670000D03*
X219305000Y-80670000D03*
D68*
X219305000Y-79969999D03*
X219305000Y-79170000D03*
D70*
X224400000Y-78100000D03*
D71*
X220220000Y-78100000D03*
D70*
X224400000Y-86740000D03*
D71*
X220220000Y-86740000D03*
%TD*%
D72*
%TO.C,C19*%
X184025000Y-112950000D03*
X186975000Y-112950000D03*
%TD*%
D49*
%TO.C,R11*%
X153175000Y-71000000D03*
X154825000Y-71000000D03*
%TD*%
D48*
%TO.C,C59*%
X166480000Y-108000000D03*
X165520000Y-108000000D03*
%TD*%
%TO.C,C56*%
X216000000Y-69000000D03*
X215040000Y-69000000D03*
%TD*%
D35*
%TO.C,U21*%
X215512499Y-97775000D03*
X216462499Y-97775000D03*
X217412499Y-97775000D03*
X217412499Y-100175000D03*
X216462499Y-100175000D03*
X215512499Y-100175000D03*
%TD*%
D22*
%TO.C,R20*%
X196100000Y-104825000D03*
X196100000Y-103175000D03*
%TD*%
D73*
%TO.C,U16*%
X186575000Y-90862500D03*
X185925000Y-90862500D03*
X185275000Y-90862500D03*
X184625000Y-90862500D03*
X184625000Y-86637500D03*
X185275000Y-86637500D03*
X185925000Y-86637500D03*
X186575000Y-86637500D03*
D74*
X185600000Y-88750000D03*
%TD*%
D16*
%TO.C,J14*%
X164900000Y-133000000D03*
D17*
X162899999Y-133000000D03*
X164900000Y-130999999D03*
X162900000Y-131000000D03*
X164900000Y-129000000D03*
X162900000Y-128999999D03*
X164900000Y-127000000D03*
X162900000Y-127000000D03*
X164900000Y-125000000D03*
X162900000Y-125000000D03*
X164900000Y-123000000D03*
X162900000Y-123000000D03*
%TD*%
D51*
%TO.C,U24*%
X214075000Y-119225000D03*
X214075000Y-118275000D03*
X214075000Y-117325000D03*
X216475000Y-117325000D03*
X216475000Y-118275000D03*
X216475000Y-119225000D03*
%TD*%
D49*
%TO.C,R49*%
X213750000Y-120575000D03*
X215400000Y-120575000D03*
%TD*%
D45*
%TO.C,R95*%
X174925000Y-99700000D03*
X173275000Y-99700000D03*
%TD*%
D75*
%TO.C,U13*%
X185340000Y-108137500D03*
X184070000Y-108137500D03*
X182800000Y-108137500D03*
X181530000Y-108137500D03*
X180260000Y-108137500D03*
D76*
X182800000Y-101837500D03*
%TD*%
D49*
%TO.C,R53*%
X219975000Y-112600000D03*
X221625000Y-112600000D03*
%TD*%
D37*
%TO.C,C62*%
X156000000Y-109040000D03*
X156000000Y-110000000D03*
%TD*%
D49*
%TO.C,R15*%
X213575000Y-108300000D03*
X215225000Y-108300000D03*
%TD*%
D51*
%TO.C,U25*%
X195299999Y-128700000D03*
X195300000Y-127750000D03*
X195299999Y-126800000D03*
X197700001Y-126800000D03*
X197700000Y-127750000D03*
X197700001Y-128700000D03*
%TD*%
D49*
%TO.C,R55*%
X163175000Y-112500000D03*
X164825000Y-112500000D03*
%TD*%
D45*
%TO.C,R88*%
X212725000Y-65300000D03*
X211075000Y-65300000D03*
%TD*%
M02*
