%TF.GenerationSoftware,KiCad,Pcbnew,9.0.0*%
%TF.CreationDate,2026-04-17T00:13:25-07:00*%
%TF.ProjectId,proves_radio_stick_V1,70726f76-6573-45f7-9261-64696f5f7374,rev?*%
%TF.SameCoordinates,Original*%
%TF.FileFunction,Copper,L3,Inr*%
%TF.FilePolarity,Positive*%
%FSLAX46Y46*%
G04 Gerber Fmt 4.6, Leading zero omitted, Abs format (unit mm)*
G04 Created by KiCad (PCBNEW 9.0.0) date 2026-04-17 00:13:25*
%MOMM*%
%LPD*%
G01*
G04 APERTURE LIST*
%TA.AperFunction,ComponentPad*%
%ADD10C,2.600000*%
%TD*%
%TA.AperFunction,ComponentPad*%
%ADD11R,1.700000X1.700000*%
%TD*%
%TA.AperFunction,ComponentPad*%
%ADD12C,1.700000*%
%TD*%
%TA.AperFunction,ComponentPad*%
%ADD13C,2.050000*%
%TD*%
%TA.AperFunction,ComponentPad*%
%ADD14C,2.250000*%
%TD*%
%TA.AperFunction,ComponentPad*%
%ADD15C,0.600000*%
%TD*%
%TA.AperFunction,ComponentPad*%
%ADD16O,2.100000X1.000000*%
%TD*%
%TA.AperFunction,ComponentPad*%
%ADD17O,1.600000X1.000000*%
%TD*%
%TA.AperFunction,ViaPad*%
%ADD18C,0.560000*%
%TD*%
%TA.AperFunction,ViaPad*%
%ADD19C,0.460000*%
%TD*%
%TA.AperFunction,ViaPad*%
%ADD20C,0.600000*%
%TD*%
%TA.AperFunction,ViaPad*%
%ADD21C,0.800000*%
%TD*%
%TA.AperFunction,Conductor*%
%ADD22C,0.152400*%
%TD*%
%TA.AperFunction,Conductor*%
%ADD23C,0.400000*%
%TD*%
G04 APERTURE END LIST*
D10*
%TO.N,N/C*%
%TO.C,H2*%
X222000000Y-112000000D03*
%TD*%
D11*
%TO.N,SWDIO*%
%TO.C,J1*%
X200100000Y-106890000D03*
D12*
%TO.N,GND*%
X197560000Y-106890000D03*
%TO.N,SWCLK*%
X195020001Y-106890000D03*
%TD*%
D13*
%TO.N,Net-(J2-In)*%
%TO.C,J2*%
X174710000Y-88610000D03*
D14*
%TO.N,GND*%
X172170000Y-86070000D03*
X172170000Y-91150000D03*
X177250000Y-86070000D03*
X177250000Y-91150000D03*
%TD*%
D10*
%TO.N,N/C*%
%TO.C,H4*%
X222000000Y-87000000D03*
%TD*%
%TO.N,N/C*%
%TO.C,H3*%
X167000000Y-87000000D03*
%TD*%
D15*
%TO.N,GND*%
%TO.C,U18*%
X207487799Y-97174742D03*
X206112799Y-97174742D03*
X204737799Y-97174742D03*
X207487799Y-98549742D03*
X206112799Y-98549742D03*
X204737799Y-98549742D03*
X207487799Y-99924742D03*
X206112799Y-99924742D03*
X204737799Y-99924742D03*
%TD*%
D16*
%TO.N,GND*%
%TO.C,J12*%
X217850000Y-103210000D03*
D17*
X222030000Y-103210000D03*
D16*
X217850000Y-94570000D03*
D17*
X222030000Y-94570000D03*
%TD*%
D10*
%TO.N,N/C*%
%TO.C,H2*%
X167000000Y-112000000D03*
%TD*%
D18*
%TO.N,GND*%
X182870000Y-109290000D03*
D19*
X197230577Y-95721315D03*
D18*
X202700000Y-86200000D03*
D19*
X196382048Y-100246798D03*
X195745652Y-99610402D03*
D18*
X176000000Y-95900000D03*
D19*
X199069054Y-95014208D03*
X199200000Y-88520001D03*
D18*
X220300000Y-90300000D03*
X212518920Y-92005508D03*
X210750000Y-108410000D03*
X215200000Y-102120000D03*
X206338112Y-104149194D03*
D19*
X215120378Y-96923396D03*
D18*
X210425189Y-94307101D03*
D19*
X209976361Y-102491677D03*
D18*
X190700000Y-111400000D03*
D19*
X197230577Y-100812483D03*
X195109256Y-98974006D03*
D18*
X181530000Y-109300000D03*
D19*
X207044793Y-91902938D03*
X196382048Y-96569843D03*
D18*
X174600000Y-109610000D03*
D19*
X199300000Y-86320001D03*
D18*
X173400000Y-96000000D03*
D19*
X204888172Y-91508285D03*
X194897124Y-98196188D03*
X195604231Y-97347660D03*
D18*
X173400000Y-109580000D03*
X175950000Y-109650000D03*
X189650000Y-109780000D03*
D19*
X205850207Y-104567220D03*
D18*
X218208500Y-106161500D03*
D19*
X200792725Y-97922936D03*
D18*
X217358500Y-106161500D03*
X218658500Y-104261500D03*
D19*
X210807027Y-101661012D03*
X199846872Y-95792024D03*
D18*
X217708500Y-104161500D03*
X191230000Y-94170000D03*
D20*
X202206133Y-103383877D03*
D19*
X199935260Y-100273606D03*
X202420000Y-94800000D03*
X211938398Y-101661012D03*
D18*
X219099269Y-106108935D03*
X202700000Y-88500000D03*
D19*
X198079105Y-94872786D03*
D21*
X199600000Y-94350000D03*
D18*
X193880000Y-102820000D03*
X190400000Y-109770000D03*
%TO.N,+3V3*%
X219893865Y-106013541D03*
D19*
X214200283Y-102792383D03*
D18*
X208690000Y-87840000D03*
X204130000Y-87720000D03*
D19*
X203513680Y-97532376D03*
D18*
X205900000Y-91380000D03*
D19*
X212504083Y-97701214D03*
X209696798Y-94326782D03*
D20*
X208473574Y-101024615D03*
D19*
X208817335Y-98134389D03*
D18*
X221908500Y-108411500D03*
D19*
X202081746Y-101932630D03*
D20*
X205390589Y-103226573D03*
D18*
X210500000Y-104750000D03*
D19*
X204787936Y-95942130D03*
D18*
X203990000Y-90530000D03*
X216358500Y-104311500D03*
%TO.N,VBUS*%
X218720000Y-100830000D03*
X219830000Y-108730000D03*
X220178917Y-108268364D03*
%TO.N,/USBBOOT*%
X198800000Y-87700000D03*
X208300000Y-90600000D03*
%TO.N,/QSPI_SD1*%
X213086706Y-92573294D03*
X213070000Y-90910000D03*
%TO.N,/QSPI_SD3*%
X214418124Y-95018124D03*
X215960000Y-91390000D03*
%TO.N,/QSPI_SD0*%
X217028124Y-92408124D03*
X215601537Y-92261538D03*
%TO.N,FC_RESET*%
X202220000Y-90370000D03*
D19*
X200111249Y-100951250D03*
%TO.N,SWCLK*%
X203566152Y-98937250D03*
%TO.N,SWDIO*%
X203594538Y-99681113D03*
D18*
%TO.N,RF1_IO2*%
X203581552Y-100390997D03*
X186700000Y-109610000D03*
%TO.N,RF1_RST*%
X187270000Y-92452800D03*
X205730000Y-94070000D03*
%TO.N,RF1_IO5*%
X198751041Y-104021882D03*
X194430000Y-99520000D03*
%TO.N,RF1_IO4*%
X195400000Y-100960000D03*
X196420000Y-102086200D03*
%TO.N,RF1_IO1*%
X199020000Y-93670000D03*
D19*
X203541506Y-96764297D03*
D18*
%TO.N,SPI1_CS0*%
X203330000Y-92920000D03*
X202250000Y-91200000D03*
%TO.N,SPI1_MOSI*%
X200580000Y-91340400D03*
X201440000Y-92452800D03*
%TO.N,SPI1_SCK*%
X202668243Y-92452799D03*
X201470000Y-91270000D03*
D19*
%TO.N,unconnected-(U18-GPIO7-Pad10)*%
X205681816Y-96066340D03*
%TO.N,+1V1*%
X211655555Y-99610402D03*
X208242799Y-99662248D03*
X212433372Y-99610402D03*
D18*
%TO.N,BOOTSEL*%
X209480000Y-89600000D03*
X212000000Y-93400000D03*
%TD*%
D22*
%TO.N,+3V3*%
X203513680Y-97532376D02*
X204101739Y-98120435D01*
X203513680Y-97532376D02*
X202425568Y-97532376D01*
X204584487Y-96145579D02*
X204584487Y-96461569D01*
X204787936Y-95942130D02*
X204584487Y-96145579D01*
X204584487Y-96461569D02*
X203513680Y-97532376D01*
D23*
%TO.N,VBUS*%
X220574865Y-102684865D02*
X220574865Y-107985135D01*
X220574865Y-107985135D02*
X219830000Y-108730000D01*
X218720000Y-100830000D02*
X220574865Y-102684865D01*
D22*
%TO.N,RF1_IO1*%
X203541506Y-96764297D02*
X203594539Y-96711264D01*
%TD*%
%TA.AperFunction,Conductor*%
%TO.N,+3V3*%
G36*
X171250172Y-84520185D02*
G01*
X171295927Y-84572989D01*
X171305871Y-84642147D01*
X171276846Y-84705703D01*
X171256018Y-84724818D01*
X171111064Y-84830132D01*
X171111059Y-84830136D01*
X170930136Y-85011059D01*
X170930132Y-85011064D01*
X170779750Y-85218049D01*
X170663589Y-85446024D01*
X170663588Y-85446027D01*
X170584526Y-85689359D01*
X170562203Y-85830298D01*
X170544500Y-85942070D01*
X170544500Y-86197930D01*
X170552438Y-86248048D01*
X170584526Y-86450640D01*
X170663588Y-86693972D01*
X170663589Y-86693975D01*
X170720799Y-86806254D01*
X170778501Y-86919500D01*
X170779750Y-86921950D01*
X170930132Y-87128935D01*
X170930136Y-87128940D01*
X171111059Y-87309863D01*
X171111064Y-87309867D01*
X171291607Y-87441038D01*
X171318053Y-87460252D01*
X171408918Y-87506550D01*
X171546024Y-87576410D01*
X171546027Y-87576411D01*
X171667693Y-87615942D01*
X171789361Y-87655474D01*
X172042070Y-87695500D01*
X172042071Y-87695500D01*
X172297929Y-87695500D01*
X172297930Y-87695500D01*
X172550639Y-87655474D01*
X172793975Y-87576410D01*
X173021947Y-87460252D01*
X173228942Y-87309862D01*
X173409862Y-87128942D01*
X173560252Y-86921947D01*
X173676410Y-86693975D01*
X173755474Y-86450639D01*
X173795500Y-86197930D01*
X173795500Y-85942070D01*
X173755474Y-85689361D01*
X173677537Y-85449494D01*
X173676411Y-85446027D01*
X173676410Y-85446024D01*
X173597621Y-85291394D01*
X173560252Y-85218053D01*
X173541038Y-85191607D01*
X173409867Y-85011064D01*
X173409863Y-85011059D01*
X173228940Y-84830136D01*
X173228935Y-84830132D01*
X173083982Y-84724818D01*
X173041316Y-84669488D01*
X173035337Y-84599875D01*
X173067942Y-84538080D01*
X173128781Y-84503723D01*
X173156867Y-84500500D01*
X176263133Y-84500500D01*
X176330172Y-84520185D01*
X176375927Y-84572989D01*
X176385871Y-84642147D01*
X176356846Y-84705703D01*
X176336018Y-84724818D01*
X176191064Y-84830132D01*
X176191059Y-84830136D01*
X176010136Y-85011059D01*
X176010132Y-85011064D01*
X175859750Y-85218049D01*
X175743589Y-85446024D01*
X175743588Y-85446027D01*
X175664526Y-85689359D01*
X175642203Y-85830298D01*
X175624500Y-85942070D01*
X175624500Y-86197930D01*
X175632438Y-86248048D01*
X175664526Y-86450640D01*
X175743588Y-86693972D01*
X175743589Y-86693975D01*
X175800799Y-86806254D01*
X175858501Y-86919500D01*
X175859750Y-86921950D01*
X176010132Y-87128935D01*
X176010136Y-87128940D01*
X176191059Y-87309863D01*
X176191064Y-87309867D01*
X176371607Y-87441038D01*
X176398053Y-87460252D01*
X176488918Y-87506550D01*
X176626024Y-87576410D01*
X176626027Y-87576411D01*
X176747693Y-87615942D01*
X176869361Y-87655474D01*
X177122070Y-87695500D01*
X177122071Y-87695500D01*
X177377929Y-87695500D01*
X177377930Y-87695500D01*
X177630639Y-87655474D01*
X177730209Y-87623122D01*
X198019500Y-87623122D01*
X198019500Y-87776877D01*
X198049491Y-87927656D01*
X198049494Y-87927665D01*
X198108326Y-88069701D01*
X198108327Y-88069703D01*
X198193745Y-88197539D01*
X198193748Y-88197543D01*
X198302459Y-88306254D01*
X198352572Y-88339738D01*
X198414392Y-88381045D01*
X198459196Y-88434656D01*
X198469500Y-88484146D01*
X198469500Y-88591953D01*
X198497570Y-88733072D01*
X198497573Y-88733082D01*
X198552637Y-88866020D01*
X198552642Y-88866029D01*
X198632582Y-88985667D01*
X198632585Y-88985671D01*
X198734329Y-89087415D01*
X198734333Y-89087418D01*
X198853971Y-89167358D01*
X198853977Y-89167361D01*
X198853978Y-89167362D01*
X198986921Y-89222429D01*
X199128047Y-89250500D01*
X199128051Y-89250501D01*
X199128052Y-89250501D01*
X199271949Y-89250501D01*
X199271950Y-89250500D01*
X199413079Y-89222429D01*
X199546022Y-89167362D01*
X199665667Y-89087418D01*
X199767417Y-88985668D01*
X199847361Y-88866023D01*
X199902428Y-88733080D01*
X199930500Y-88591949D01*
X199930500Y-88448053D01*
X199930489Y-88447997D01*
X199929142Y-88441222D01*
X199929142Y-88441221D01*
X199925542Y-88423122D01*
X201919500Y-88423122D01*
X201919500Y-88576877D01*
X201949491Y-88727656D01*
X201949494Y-88727665D01*
X202008326Y-88869701D01*
X202008327Y-88869703D01*
X202093745Y-88997539D01*
X202093748Y-88997543D01*
X202202456Y-89106251D01*
X202202460Y-89106254D01*
X202330294Y-89191671D01*
X202330295Y-89191671D01*
X202330296Y-89191672D01*
X202330298Y-89191673D01*
X202404546Y-89222427D01*
X202472336Y-89250506D01*
X202472338Y-89250506D01*
X202472343Y-89250508D01*
X202623122Y-89280499D01*
X202623126Y-89280500D01*
X202623127Y-89280500D01*
X202776874Y-89280500D01*
X202776875Y-89280499D01*
X202827136Y-89270502D01*
X202927656Y-89250508D01*
X202927659Y-89250506D01*
X202927664Y-89250506D01*
X203069706Y-89191671D01*
X203197540Y-89106254D01*
X203306254Y-88997540D01*
X203391671Y-88869706D01*
X203450506Y-88727664D01*
X203480500Y-88576873D01*
X203480500Y-88423127D01*
X203467266Y-88356593D01*
X203450508Y-88272343D01*
X203450505Y-88272334D01*
X203391673Y-88130298D01*
X203391672Y-88130296D01*
X203351183Y-88069701D01*
X203306254Y-88002460D01*
X203306251Y-88002456D01*
X203197543Y-87893748D01*
X203197539Y-87893745D01*
X203069703Y-87808327D01*
X203069701Y-87808326D01*
X202927665Y-87749494D01*
X202927656Y-87749491D01*
X202776877Y-87719500D01*
X202776873Y-87719500D01*
X202623127Y-87719500D01*
X202623122Y-87719500D01*
X202472343Y-87749491D01*
X202472334Y-87749494D01*
X202330298Y-87808326D01*
X202330296Y-87808327D01*
X202202460Y-87893745D01*
X202202456Y-87893748D01*
X202093748Y-88002456D01*
X202093745Y-88002460D01*
X202008327Y-88130296D01*
X202008326Y-88130298D01*
X201949494Y-88272334D01*
X201949491Y-88272343D01*
X201919500Y-88423122D01*
X199925542Y-88423122D01*
X199902429Y-88306929D01*
X199902428Y-88306922D01*
X199853875Y-88189704D01*
X199847362Y-88173981D01*
X199847357Y-88173972D01*
X199767417Y-88054334D01*
X199767414Y-88054330D01*
X199665670Y-87952586D01*
X199665666Y-87952583D01*
X199628531Y-87927770D01*
X199583726Y-87874158D01*
X199575019Y-87804833D01*
X199575805Y-87800475D01*
X199580500Y-87776873D01*
X199580500Y-87623126D01*
X199580499Y-87623122D01*
X199550508Y-87472343D01*
X199550505Y-87472334D01*
X199491673Y-87330298D01*
X199491672Y-87330297D01*
X199491671Y-87330294D01*
X199415707Y-87216608D01*
X199394830Y-87149932D01*
X199413314Y-87082552D01*
X199465293Y-87035861D01*
X199494615Y-87026101D01*
X199513079Y-87022429D01*
X199646022Y-86967362D01*
X199765667Y-86887418D01*
X199867417Y-86785668D01*
X199947361Y-86666023D01*
X200002428Y-86533080D01*
X200030500Y-86391949D01*
X200030500Y-86248053D01*
X200005650Y-86123122D01*
X201919500Y-86123122D01*
X201919500Y-86276877D01*
X201949491Y-86427656D01*
X201949494Y-86427665D01*
X202008326Y-86569701D01*
X202008327Y-86569703D01*
X202093745Y-86697539D01*
X202093748Y-86697543D01*
X202202456Y-86806251D01*
X202202460Y-86806254D01*
X202330294Y-86891671D01*
X202330295Y-86891671D01*
X202330296Y-86891672D01*
X202330298Y-86891673D01*
X202424988Y-86930894D01*
X202472336Y-86950506D01*
X202472338Y-86950506D01*
X202472343Y-86950508D01*
X202623122Y-86980499D01*
X202623126Y-86980500D01*
X202623127Y-86980500D01*
X202776874Y-86980500D01*
X202776875Y-86980499D01*
X202842943Y-86967358D01*
X202927656Y-86950508D01*
X202927659Y-86950506D01*
X202927664Y-86950506D01*
X203069706Y-86891671D01*
X203084187Y-86881995D01*
X220199500Y-86881995D01*
X220199500Y-87118004D01*
X220199501Y-87118020D01*
X220227447Y-87330297D01*
X220230307Y-87352014D01*
X220255602Y-87446416D01*
X220291394Y-87579993D01*
X220381714Y-87798045D01*
X220381719Y-87798056D01*
X220436968Y-87893748D01*
X220499727Y-88002450D01*
X220499729Y-88002453D01*
X220499730Y-88002454D01*
X220643406Y-88189697D01*
X220643412Y-88189704D01*
X220810295Y-88356587D01*
X220810302Y-88356593D01*
X220849529Y-88386693D01*
X220997550Y-88500273D01*
X221128918Y-88576118D01*
X221201943Y-88618280D01*
X221201948Y-88618282D01*
X221201951Y-88618284D01*
X221420007Y-88708606D01*
X221647986Y-88769693D01*
X221881989Y-88800500D01*
X221881996Y-88800500D01*
X222118004Y-88800500D01*
X222118011Y-88800500D01*
X222352014Y-88769693D01*
X222579993Y-88708606D01*
X222798049Y-88618284D01*
X223002450Y-88500273D01*
X223189699Y-88356592D01*
X223356592Y-88189699D01*
X223500273Y-88002450D01*
X223618284Y-87798049D01*
X223708606Y-87579993D01*
X223769693Y-87352014D01*
X223800500Y-87118011D01*
X223800500Y-86881989D01*
X223769693Y-86647986D01*
X223708606Y-86420007D01*
X223618284Y-86201951D01*
X223618282Y-86201948D01*
X223618280Y-86201943D01*
X223563417Y-86106919D01*
X223500273Y-85997550D01*
X223356592Y-85810301D01*
X223356587Y-85810295D01*
X223189704Y-85643412D01*
X223189697Y-85643406D01*
X223002454Y-85499730D01*
X223002453Y-85499729D01*
X223002450Y-85499727D01*
X222909439Y-85446027D01*
X222798056Y-85381719D01*
X222798045Y-85381714D01*
X222579993Y-85291394D01*
X222352010Y-85230306D01*
X222118020Y-85199501D01*
X222118017Y-85199500D01*
X222118011Y-85199500D01*
X221881989Y-85199500D01*
X221881983Y-85199500D01*
X221881979Y-85199501D01*
X221647989Y-85230306D01*
X221420006Y-85291394D01*
X221201954Y-85381714D01*
X221201943Y-85381719D01*
X220997545Y-85499730D01*
X220810302Y-85643406D01*
X220810295Y-85643412D01*
X220643412Y-85810295D01*
X220643406Y-85810302D01*
X220499730Y-85997545D01*
X220381719Y-86201943D01*
X220381714Y-86201954D01*
X220291394Y-86420006D01*
X220230306Y-86647989D01*
X220199501Y-86881979D01*
X220199500Y-86881995D01*
X203084187Y-86881995D01*
X203197540Y-86806254D01*
X203197543Y-86806251D01*
X203213546Y-86790249D01*
X203306251Y-86697543D01*
X203306254Y-86697540D01*
X203391671Y-86569706D01*
X203450506Y-86427664D01*
X203452030Y-86420006D01*
X203480499Y-86276877D01*
X203480500Y-86276874D01*
X203480500Y-86123126D01*
X203480499Y-86123122D01*
X203450508Y-85972343D01*
X203450505Y-85972334D01*
X203391673Y-85830298D01*
X203391672Y-85830296D01*
X203378312Y-85810302D01*
X203306254Y-85702460D01*
X203306251Y-85702456D01*
X203197543Y-85593748D01*
X203197539Y-85593745D01*
X203069703Y-85508327D01*
X203069701Y-85508326D01*
X202927665Y-85449494D01*
X202927656Y-85449491D01*
X202776877Y-85419500D01*
X202776873Y-85419500D01*
X202623127Y-85419500D01*
X202623122Y-85419500D01*
X202472343Y-85449491D01*
X202472334Y-85449494D01*
X202330298Y-85508326D01*
X202330296Y-85508327D01*
X202202460Y-85593745D01*
X202202456Y-85593748D01*
X202093748Y-85702456D01*
X202093745Y-85702460D01*
X202008327Y-85830296D01*
X202008326Y-85830298D01*
X201949494Y-85972334D01*
X201949491Y-85972343D01*
X201919500Y-86123122D01*
X200005650Y-86123122D01*
X200002428Y-86106922D01*
X199947361Y-85973979D01*
X199947360Y-85973978D01*
X199947357Y-85973972D01*
X199867417Y-85854334D01*
X199867414Y-85854330D01*
X199765670Y-85752586D01*
X199765666Y-85752583D01*
X199646028Y-85672643D01*
X199646019Y-85672638D01*
X199513081Y-85617574D01*
X199513082Y-85617574D01*
X199513079Y-85617573D01*
X199513075Y-85617572D01*
X199513071Y-85617571D01*
X199371952Y-85589501D01*
X199371948Y-85589501D01*
X199228052Y-85589501D01*
X199228047Y-85589501D01*
X199086928Y-85617571D01*
X199086918Y-85617574D01*
X198953980Y-85672638D01*
X198953971Y-85672643D01*
X198834333Y-85752583D01*
X198834329Y-85752586D01*
X198732585Y-85854330D01*
X198732582Y-85854334D01*
X198652642Y-85973972D01*
X198652637Y-85973981D01*
X198597573Y-86106919D01*
X198597570Y-86106929D01*
X198569500Y-86248048D01*
X198569500Y-86391953D01*
X198597570Y-86533072D01*
X198597573Y-86533082D01*
X198652637Y-86666020D01*
X198652645Y-86666034D01*
X198707303Y-86747836D01*
X198728181Y-86814513D01*
X198709696Y-86881893D01*
X198657717Y-86928583D01*
X198628393Y-86938343D01*
X198572342Y-86949492D01*
X198572334Y-86949494D01*
X198430298Y-87008326D01*
X198430296Y-87008327D01*
X198302460Y-87093745D01*
X198302456Y-87093748D01*
X198193748Y-87202456D01*
X198193745Y-87202460D01*
X198108327Y-87330296D01*
X198108326Y-87330298D01*
X198049494Y-87472334D01*
X198049491Y-87472343D01*
X198019500Y-87623122D01*
X177730209Y-87623122D01*
X177873975Y-87576410D01*
X178101947Y-87460252D01*
X178308942Y-87309862D01*
X178489862Y-87128942D01*
X178640252Y-86921947D01*
X178756410Y-86693975D01*
X178835474Y-86450639D01*
X178875500Y-86197930D01*
X178875500Y-85942070D01*
X178835474Y-85689361D01*
X178757537Y-85449494D01*
X178756411Y-85446027D01*
X178756410Y-85446024D01*
X178677621Y-85291394D01*
X178640252Y-85218053D01*
X178621038Y-85191607D01*
X178489867Y-85011064D01*
X178489863Y-85011059D01*
X178308940Y-84830136D01*
X178308935Y-84830132D01*
X178163982Y-84724818D01*
X178121316Y-84669488D01*
X178115337Y-84599875D01*
X178147942Y-84538080D01*
X178208781Y-84503723D01*
X178236867Y-84500500D01*
X224345500Y-84500500D01*
X224412539Y-84520185D01*
X224458294Y-84572989D01*
X224469500Y-84624500D01*
X224469500Y-114865500D01*
X224449815Y-114932539D01*
X224397011Y-114978294D01*
X224345500Y-114989500D01*
X164324500Y-114989500D01*
X164257461Y-114969815D01*
X164211706Y-114917011D01*
X164200500Y-114865500D01*
X164200500Y-111881995D01*
X165199500Y-111881995D01*
X165199500Y-112118004D01*
X165199501Y-112118020D01*
X165230306Y-112352010D01*
X165291394Y-112579993D01*
X165381714Y-112798045D01*
X165381719Y-112798056D01*
X165452677Y-112920957D01*
X165499727Y-113002450D01*
X165499729Y-113002453D01*
X165499730Y-113002454D01*
X165643406Y-113189697D01*
X165643412Y-113189704D01*
X165810295Y-113356587D01*
X165810301Y-113356592D01*
X165997550Y-113500273D01*
X166128918Y-113576118D01*
X166201943Y-113618280D01*
X166201948Y-113618282D01*
X166201951Y-113618284D01*
X166420007Y-113708606D01*
X166647986Y-113769693D01*
X166881989Y-113800500D01*
X166881996Y-113800500D01*
X167118004Y-113800500D01*
X167118011Y-113800500D01*
X167352014Y-113769693D01*
X167579993Y-113708606D01*
X167798049Y-113618284D01*
X168002450Y-113500273D01*
X168189699Y-113356592D01*
X168356592Y-113189699D01*
X168500273Y-113002450D01*
X168618284Y-112798049D01*
X168708606Y-112579993D01*
X168769693Y-112352014D01*
X168800500Y-112118011D01*
X168800500Y-111881995D01*
X220199500Y-111881995D01*
X220199500Y-112118004D01*
X220199501Y-112118020D01*
X220230306Y-112352010D01*
X220291394Y-112579993D01*
X220381714Y-112798045D01*
X220381719Y-112798056D01*
X220452677Y-112920957D01*
X220499727Y-113002450D01*
X220499729Y-113002453D01*
X220499730Y-113002454D01*
X220643406Y-113189697D01*
X220643412Y-113189704D01*
X220810295Y-113356587D01*
X220810301Y-113356592D01*
X220997550Y-113500273D01*
X221128918Y-113576118D01*
X221201943Y-113618280D01*
X221201948Y-113618282D01*
X221201951Y-113618284D01*
X221420007Y-113708606D01*
X221647986Y-113769693D01*
X221881989Y-113800500D01*
X221881996Y-113800500D01*
X222118004Y-113800500D01*
X222118011Y-113800500D01*
X222352014Y-113769693D01*
X222579993Y-113708606D01*
X222798049Y-113618284D01*
X223002450Y-113500273D01*
X223189699Y-113356592D01*
X223356592Y-113189699D01*
X223500273Y-113002450D01*
X223618284Y-112798049D01*
X223708606Y-112579993D01*
X223769693Y-112352014D01*
X223800500Y-112118011D01*
X223800500Y-111881989D01*
X223769693Y-111647986D01*
X223708606Y-111420007D01*
X223618284Y-111201951D01*
X223618282Y-111201948D01*
X223618280Y-111201943D01*
X223576118Y-111128918D01*
X223500273Y-110997550D01*
X223356592Y-110810301D01*
X223356587Y-110810295D01*
X223189704Y-110643412D01*
X223189697Y-110643406D01*
X223002454Y-110499730D01*
X223002453Y-110499729D01*
X223002450Y-110499727D01*
X222920957Y-110452677D01*
X222798056Y-110381719D01*
X222798045Y-110381714D01*
X222579993Y-110291394D01*
X222352014Y-110230307D01*
X222352013Y-110230306D01*
X222352010Y-110230306D01*
X222118020Y-110199501D01*
X222118017Y-110199500D01*
X222118011Y-110199500D01*
X221881989Y-110199500D01*
X221881983Y-110199500D01*
X221881979Y-110199501D01*
X221647989Y-110230306D01*
X221420006Y-110291394D01*
X221201954Y-110381714D01*
X221201943Y-110381719D01*
X220997545Y-110499730D01*
X220810302Y-110643406D01*
X220810295Y-110643412D01*
X220643412Y-110810295D01*
X220643406Y-110810302D01*
X220499730Y-110997545D01*
X220381719Y-111201943D01*
X220381714Y-111201954D01*
X220291394Y-111420006D01*
X220230306Y-111647989D01*
X220199501Y-111881979D01*
X220199500Y-111881995D01*
X168800500Y-111881995D01*
X168800500Y-111881989D01*
X168769693Y-111647986D01*
X168708606Y-111420007D01*
X168618284Y-111201951D01*
X168618282Y-111201948D01*
X168618280Y-111201943D01*
X168576118Y-111128918D01*
X168500273Y-110997550D01*
X168356592Y-110810301D01*
X168356587Y-110810295D01*
X168189704Y-110643412D01*
X168189697Y-110643406D01*
X168002454Y-110499730D01*
X168002453Y-110499729D01*
X168002450Y-110499727D01*
X167920957Y-110452677D01*
X167798056Y-110381719D01*
X167798045Y-110381714D01*
X167579993Y-110291394D01*
X167352014Y-110230307D01*
X167352013Y-110230306D01*
X167352010Y-110230306D01*
X167118020Y-110199501D01*
X167118017Y-110199500D01*
X167118011Y-110199500D01*
X166881989Y-110199500D01*
X166881983Y-110199500D01*
X166881979Y-110199501D01*
X166647989Y-110230306D01*
X166420006Y-110291394D01*
X166201954Y-110381714D01*
X166201943Y-110381719D01*
X165997545Y-110499730D01*
X165810302Y-110643406D01*
X165810295Y-110643412D01*
X165643412Y-110810295D01*
X165643406Y-110810302D01*
X165499730Y-110997545D01*
X165381719Y-111201943D01*
X165381714Y-111201954D01*
X165291394Y-111420006D01*
X165230306Y-111647989D01*
X165199501Y-111881979D01*
X165199500Y-111881995D01*
X164200500Y-111881995D01*
X164200500Y-109503122D01*
X172619500Y-109503122D01*
X172619500Y-109656877D01*
X172649491Y-109807656D01*
X172649494Y-109807665D01*
X172708326Y-109949701D01*
X172708327Y-109949703D01*
X172793745Y-110077539D01*
X172793748Y-110077543D01*
X172902456Y-110186251D01*
X172902459Y-110186253D01*
X172902460Y-110186254D01*
X173030294Y-110271671D01*
X173030295Y-110271671D01*
X173030296Y-110271672D01*
X173030298Y-110271673D01*
X173044470Y-110277543D01*
X173172336Y-110330506D01*
X173172338Y-110330506D01*
X173172343Y-110330508D01*
X173323122Y-110360499D01*
X173323126Y-110360500D01*
X173323127Y-110360500D01*
X173476874Y-110360500D01*
X173476875Y-110360499D01*
X173527136Y-110350502D01*
X173627656Y-110330508D01*
X173627659Y-110330506D01*
X173627664Y-110330506D01*
X173769706Y-110271671D01*
X173897540Y-110186254D01*
X173897550Y-110186243D01*
X173902250Y-110182388D01*
X173903041Y-110183352D01*
X173958626Y-110152993D01*
X174028318Y-110157969D01*
X174072680Y-110186475D01*
X174102456Y-110216251D01*
X174102460Y-110216254D01*
X174230294Y-110301671D01*
X174230295Y-110301671D01*
X174230296Y-110301672D01*
X174230298Y-110301673D01*
X174324988Y-110340894D01*
X174372336Y-110360506D01*
X174372338Y-110360506D01*
X174372343Y-110360508D01*
X174523122Y-110390499D01*
X174523126Y-110390500D01*
X174523127Y-110390500D01*
X174676874Y-110390500D01*
X174676875Y-110390499D01*
X174748508Y-110376251D01*
X174827656Y-110360508D01*
X174827659Y-110360506D01*
X174827664Y-110360506D01*
X174969706Y-110301671D01*
X175097540Y-110216254D01*
X175131406Y-110182388D01*
X175167319Y-110146476D01*
X175228642Y-110112991D01*
X175298334Y-110117975D01*
X175342681Y-110146476D01*
X175452456Y-110256251D01*
X175452460Y-110256254D01*
X175580294Y-110341671D01*
X175580295Y-110341671D01*
X175580296Y-110341672D01*
X175580298Y-110341673D01*
X175663786Y-110376254D01*
X175722336Y-110400506D01*
X175722338Y-110400506D01*
X175722343Y-110400508D01*
X175873122Y-110430499D01*
X175873126Y-110430500D01*
X175873127Y-110430500D01*
X176026874Y-110430500D01*
X176026875Y-110430499D01*
X176077136Y-110420502D01*
X176177656Y-110400508D01*
X176177659Y-110400506D01*
X176177664Y-110400506D01*
X176319706Y-110341671D01*
X176447540Y-110256254D01*
X176556254Y-110147540D01*
X176641671Y-110019706D01*
X176700506Y-109877664D01*
X176706631Y-109846874D01*
X176730499Y-109726877D01*
X176730500Y-109726874D01*
X176730500Y-109573126D01*
X176730499Y-109573122D01*
X176700508Y-109422343D01*
X176700505Y-109422334D01*
X176700230Y-109421671D01*
X176664849Y-109336251D01*
X176641673Y-109280298D01*
X176641672Y-109280296D01*
X176636433Y-109272456D01*
X176603469Y-109223122D01*
X180749500Y-109223122D01*
X180749500Y-109376877D01*
X180779491Y-109527656D01*
X180779494Y-109527665D01*
X180838326Y-109669701D01*
X180838327Y-109669703D01*
X180923745Y-109797539D01*
X180923748Y-109797543D01*
X181032456Y-109906251D01*
X181032460Y-109906254D01*
X181160294Y-109991671D01*
X181160295Y-109991671D01*
X181160296Y-109991672D01*
X181160298Y-109991673D01*
X181198905Y-110007664D01*
X181302336Y-110050506D01*
X181302338Y-110050506D01*
X181302343Y-110050508D01*
X181453122Y-110080499D01*
X181453126Y-110080500D01*
X181453127Y-110080500D01*
X181606874Y-110080500D01*
X181606875Y-110080499D01*
X181657152Y-110070499D01*
X181757656Y-110050508D01*
X181757659Y-110050506D01*
X181757664Y-110050506D01*
X181899706Y-109991671D01*
X182027540Y-109906254D01*
X182056138Y-109877656D01*
X182117319Y-109816476D01*
X182178642Y-109782991D01*
X182248334Y-109787975D01*
X182292681Y-109816476D01*
X182372456Y-109896251D01*
X182372460Y-109896254D01*
X182500294Y-109981671D01*
X182500295Y-109981671D01*
X182500296Y-109981672D01*
X182500298Y-109981673D01*
X182538905Y-109997664D01*
X182642336Y-110040506D01*
X182642338Y-110040506D01*
X182642343Y-110040508D01*
X182793122Y-110070499D01*
X182793126Y-110070500D01*
X182793127Y-110070500D01*
X182946874Y-110070500D01*
X182946875Y-110070499D01*
X182997136Y-110060502D01*
X183097656Y-110040508D01*
X183097659Y-110040506D01*
X183097664Y-110040506D01*
X183239706Y-109981671D01*
X183367540Y-109896254D01*
X183476254Y-109787540D01*
X183561671Y-109659706D01*
X183614103Y-109533122D01*
X185919500Y-109533122D01*
X185919500Y-109686877D01*
X185949491Y-109837656D01*
X185949494Y-109837665D01*
X186008326Y-109979701D01*
X186008327Y-109979703D01*
X186093745Y-110107539D01*
X186093748Y-110107543D01*
X186202456Y-110216251D01*
X186202460Y-110216254D01*
X186330294Y-110301671D01*
X186330295Y-110301671D01*
X186330296Y-110301672D01*
X186330298Y-110301673D01*
X186424988Y-110340894D01*
X186472336Y-110360506D01*
X186472338Y-110360506D01*
X186472343Y-110360508D01*
X186623122Y-110390499D01*
X186623126Y-110390500D01*
X186623127Y-110390500D01*
X186776874Y-110390500D01*
X186776875Y-110390499D01*
X186848508Y-110376251D01*
X186927656Y-110360508D01*
X186927659Y-110360506D01*
X186927664Y-110360506D01*
X187069706Y-110301671D01*
X187197540Y-110216254D01*
X187306254Y-110107540D01*
X187391671Y-109979706D01*
X187450506Y-109837664D01*
X187456474Y-109807665D01*
X187477268Y-109703122D01*
X188869500Y-109703122D01*
X188869500Y-109856877D01*
X188899491Y-110007656D01*
X188899494Y-110007665D01*
X188958326Y-110149701D01*
X188958327Y-110149703D01*
X189043745Y-110277539D01*
X189043748Y-110277543D01*
X189152456Y-110386251D01*
X189152460Y-110386254D01*
X189280294Y-110471671D01*
X189280295Y-110471671D01*
X189280296Y-110471672D01*
X189280298Y-110471673D01*
X189292348Y-110476664D01*
X189422336Y-110530506D01*
X189422338Y-110530506D01*
X189422343Y-110530508D01*
X189573122Y-110560499D01*
X189573126Y-110560500D01*
X189573127Y-110560500D01*
X189726874Y-110560500D01*
X189726875Y-110560499D01*
X189777152Y-110550499D01*
X189877656Y-110530508D01*
X189877659Y-110530506D01*
X189877664Y-110530506D01*
X189989619Y-110484132D01*
X190059088Y-110476664D01*
X190084523Y-110484133D01*
X190172336Y-110520506D01*
X190172338Y-110520506D01*
X190172343Y-110520508D01*
X190323122Y-110550499D01*
X190323126Y-110550500D01*
X190323127Y-110550500D01*
X190476874Y-110550500D01*
X190476875Y-110550499D01*
X190527136Y-110540502D01*
X190627656Y-110520508D01*
X190627659Y-110520506D01*
X190627664Y-110520506D01*
X190769706Y-110461671D01*
X190897540Y-110376254D01*
X191006254Y-110267540D01*
X191091671Y-110139706D01*
X191150506Y-109997664D01*
X191153688Y-109981671D01*
X191180499Y-109846877D01*
X191180500Y-109846874D01*
X191180500Y-109693126D01*
X191180499Y-109693122D01*
X191150508Y-109542343D01*
X191150505Y-109542334D01*
X191146691Y-109533127D01*
X191124896Y-109480508D01*
X191091673Y-109400298D01*
X191091672Y-109400296D01*
X191079671Y-109382336D01*
X191006254Y-109272460D01*
X191006251Y-109272456D01*
X190897543Y-109163748D01*
X190897539Y-109163745D01*
X190769703Y-109078327D01*
X190769701Y-109078326D01*
X190627665Y-109019494D01*
X190627656Y-109019491D01*
X190476877Y-108989500D01*
X190476873Y-108989500D01*
X190323127Y-108989500D01*
X190323122Y-108989500D01*
X190172343Y-109019491D01*
X190172339Y-109019493D01*
X190172337Y-109019493D01*
X190172336Y-109019494D01*
X190148194Y-109029494D01*
X190060379Y-109065867D01*
X189990910Y-109073334D01*
X189965482Y-109065868D01*
X189877664Y-109029494D01*
X189877657Y-109029492D01*
X189877656Y-109029492D01*
X189877656Y-109029491D01*
X189726877Y-108999500D01*
X189726873Y-108999500D01*
X189573127Y-108999500D01*
X189573122Y-108999500D01*
X189422343Y-109029491D01*
X189422334Y-109029494D01*
X189280298Y-109088326D01*
X189280296Y-109088327D01*
X189152460Y-109173745D01*
X189152456Y-109173748D01*
X189043748Y-109282456D01*
X189043745Y-109282460D01*
X188958327Y-109410296D01*
X188958326Y-109410298D01*
X188899494Y-109552334D01*
X188899491Y-109552343D01*
X188869500Y-109703122D01*
X187477268Y-109703122D01*
X187480500Y-109686875D01*
X187480500Y-109533126D01*
X187480499Y-109533122D01*
X187450508Y-109382343D01*
X187450505Y-109382334D01*
X187444101Y-109366874D01*
X187408240Y-109280296D01*
X187391673Y-109240298D01*
X187391672Y-109240296D01*
X187373517Y-109213126D01*
X187306254Y-109112460D01*
X187306251Y-109112456D01*
X187197543Y-109003748D01*
X187197539Y-109003745D01*
X187069703Y-108918327D01*
X187069701Y-108918326D01*
X186927665Y-108859494D01*
X186927656Y-108859491D01*
X186776877Y-108829500D01*
X186776873Y-108829500D01*
X186623127Y-108829500D01*
X186623122Y-108829500D01*
X186472343Y-108859491D01*
X186472334Y-108859494D01*
X186330298Y-108918326D01*
X186330296Y-108918327D01*
X186202460Y-109003745D01*
X186202456Y-109003748D01*
X186093748Y-109112456D01*
X186093745Y-109112460D01*
X186008327Y-109240296D01*
X186008326Y-109240298D01*
X185949494Y-109382334D01*
X185949491Y-109382343D01*
X185919500Y-109533122D01*
X183614103Y-109533122D01*
X183620506Y-109517664D01*
X183650500Y-109366873D01*
X183650500Y-109213127D01*
X183642667Y-109173746D01*
X183620508Y-109062343D01*
X183620505Y-109062334D01*
X183561673Y-108920298D01*
X183561672Y-108920296D01*
X183560356Y-108918327D01*
X183476254Y-108792460D01*
X183476251Y-108792456D01*
X183367543Y-108683748D01*
X183367539Y-108683745D01*
X183239703Y-108598327D01*
X183239701Y-108598326D01*
X183097665Y-108539494D01*
X183097656Y-108539491D01*
X182946877Y-108509500D01*
X182946873Y-108509500D01*
X182793127Y-108509500D01*
X182793122Y-108509500D01*
X182642343Y-108539491D01*
X182642334Y-108539494D01*
X182500298Y-108598326D01*
X182500296Y-108598327D01*
X182372460Y-108683745D01*
X182372456Y-108683748D01*
X182282681Y-108773524D01*
X182221358Y-108807009D01*
X182151666Y-108802025D01*
X182107319Y-108773524D01*
X182027543Y-108693748D01*
X182027539Y-108693745D01*
X181899703Y-108608327D01*
X181899701Y-108608326D01*
X181757665Y-108549494D01*
X181757656Y-108549491D01*
X181606877Y-108519500D01*
X181606873Y-108519500D01*
X181453127Y-108519500D01*
X181453122Y-108519500D01*
X181302343Y-108549491D01*
X181302334Y-108549494D01*
X181160298Y-108608326D01*
X181160296Y-108608327D01*
X181032460Y-108693745D01*
X181032456Y-108693748D01*
X180923748Y-108802456D01*
X180923745Y-108802460D01*
X180838327Y-108930296D01*
X180838326Y-108930298D01*
X180779494Y-109072334D01*
X180779491Y-109072343D01*
X180749500Y-109223122D01*
X176603469Y-109223122D01*
X176556254Y-109152460D01*
X176556251Y-109152456D01*
X176447543Y-109043748D01*
X176447539Y-109043745D01*
X176319703Y-108958327D01*
X176319701Y-108958326D01*
X176177665Y-108899494D01*
X176177656Y-108899491D01*
X176026877Y-108869500D01*
X176026873Y-108869500D01*
X175873127Y-108869500D01*
X175873122Y-108869500D01*
X175722343Y-108899491D01*
X175722334Y-108899494D01*
X175580298Y-108958326D01*
X175580296Y-108958327D01*
X175452460Y-109043745D01*
X175452456Y-109043748D01*
X175382681Y-109113524D01*
X175321358Y-109147009D01*
X175251666Y-109142025D01*
X175207319Y-109113524D01*
X175097543Y-109003748D01*
X175097539Y-109003745D01*
X174969703Y-108918327D01*
X174969701Y-108918326D01*
X174827665Y-108859494D01*
X174827656Y-108859491D01*
X174676877Y-108829500D01*
X174676873Y-108829500D01*
X174523127Y-108829500D01*
X174523122Y-108829500D01*
X174372343Y-108859491D01*
X174372334Y-108859494D01*
X174230298Y-108918326D01*
X174230296Y-108918327D01*
X174102463Y-109003743D01*
X174097756Y-109007607D01*
X174096968Y-109006647D01*
X174041343Y-109037012D01*
X173971652Y-109032019D01*
X173927319Y-109003524D01*
X173897543Y-108973748D01*
X173897539Y-108973745D01*
X173769703Y-108888327D01*
X173769701Y-108888326D01*
X173627665Y-108829494D01*
X173627656Y-108829491D01*
X173476877Y-108799500D01*
X173476873Y-108799500D01*
X173323127Y-108799500D01*
X173323122Y-108799500D01*
X173172343Y-108829491D01*
X173172334Y-108829494D01*
X173030298Y-108888326D01*
X173030296Y-108888327D01*
X172902460Y-108973745D01*
X172902456Y-108973748D01*
X172793748Y-109082456D01*
X172793745Y-109082460D01*
X172708327Y-109210296D01*
X172708326Y-109210298D01*
X172649494Y-109352334D01*
X172649491Y-109352343D01*
X172619500Y-109503122D01*
X164200500Y-109503122D01*
X164200500Y-108333122D01*
X209969500Y-108333122D01*
X209969500Y-108486877D01*
X209999491Y-108637656D01*
X209999494Y-108637665D01*
X210058326Y-108779701D01*
X210058327Y-108779703D01*
X210143745Y-108907539D01*
X210143748Y-108907543D01*
X210252456Y-109016251D01*
X210252460Y-109016254D01*
X210380294Y-109101671D01*
X210380295Y-109101671D01*
X210380296Y-109101672D01*
X210380298Y-109101673D01*
X210474988Y-109140894D01*
X210522336Y-109160506D01*
X210522338Y-109160506D01*
X210522343Y-109160508D01*
X210673122Y-109190499D01*
X210673126Y-109190500D01*
X210673127Y-109190500D01*
X210826874Y-109190500D01*
X210826875Y-109190499D01*
X210911107Y-109173745D01*
X210977656Y-109160508D01*
X210977659Y-109160506D01*
X210977664Y-109160506D01*
X211119706Y-109101671D01*
X211247540Y-109016254D01*
X211356254Y-108907540D01*
X211441671Y-108779706D01*
X211500506Y-108637664D01*
X211506342Y-108608327D01*
X211527424Y-108502336D01*
X211530500Y-108486873D01*
X211530500Y-108333127D01*
X211527281Y-108316944D01*
X211500508Y-108182343D01*
X211500505Y-108182334D01*
X211441673Y-108040298D01*
X211441672Y-108040296D01*
X211402943Y-107982335D01*
X211356254Y-107912460D01*
X211356251Y-107912456D01*
X211247543Y-107803748D01*
X211247539Y-107803745D01*
X211119703Y-107718327D01*
X211119701Y-107718326D01*
X210977665Y-107659494D01*
X210977656Y-107659491D01*
X210826877Y-107629500D01*
X210826873Y-107629500D01*
X210673127Y-107629500D01*
X210673122Y-107629500D01*
X210522343Y-107659491D01*
X210522334Y-107659494D01*
X210380298Y-107718326D01*
X210380296Y-107718327D01*
X210252460Y-107803745D01*
X210252456Y-107803748D01*
X210143748Y-107912456D01*
X210143745Y-107912460D01*
X210058327Y-108040296D01*
X210058326Y-108040298D01*
X209999494Y-108182334D01*
X209999491Y-108182343D01*
X209969500Y-108333122D01*
X164200500Y-108333122D01*
X164200500Y-106783713D01*
X193669501Y-106783713D01*
X193669501Y-106996287D01*
X193702755Y-107206243D01*
X193750001Y-107351652D01*
X193768445Y-107408414D01*
X193864952Y-107597820D01*
X193989891Y-107769786D01*
X194140214Y-107920109D01*
X194312180Y-108045048D01*
X194312182Y-108045049D01*
X194312185Y-108045051D01*
X194501589Y-108141557D01*
X194703758Y-108207246D01*
X194913714Y-108240500D01*
X194913715Y-108240500D01*
X195126287Y-108240500D01*
X195126288Y-108240500D01*
X195336244Y-108207246D01*
X195538413Y-108141557D01*
X195727817Y-108045051D01*
X195814139Y-107982335D01*
X195899787Y-107920109D01*
X195899789Y-107920106D01*
X195899793Y-107920104D01*
X196050105Y-107769792D01*
X196050107Y-107769788D01*
X196050110Y-107769786D01*
X196175049Y-107597820D01*
X196175051Y-107597817D01*
X196175052Y-107597816D01*
X196179513Y-107589058D01*
X196227484Y-107538262D01*
X196295304Y-107521464D01*
X196361441Y-107543998D01*
X196400484Y-107589054D01*
X196404949Y-107597817D01*
X196529890Y-107769786D01*
X196680213Y-107920109D01*
X196852179Y-108045048D01*
X196852181Y-108045049D01*
X196852184Y-108045051D01*
X197041588Y-108141557D01*
X197243757Y-108207246D01*
X197453713Y-108240500D01*
X197453714Y-108240500D01*
X197666286Y-108240500D01*
X197666287Y-108240500D01*
X197876243Y-108207246D01*
X198078412Y-108141557D01*
X198267816Y-108045051D01*
X198439792Y-107920104D01*
X198553329Y-107806566D01*
X198614648Y-107773084D01*
X198684340Y-107778068D01*
X198740274Y-107819939D01*
X198757189Y-107850917D01*
X198806202Y-107982328D01*
X198806206Y-107982335D01*
X198892452Y-108097544D01*
X198892455Y-108097547D01*
X199007664Y-108183793D01*
X199007671Y-108183797D01*
X199142517Y-108234091D01*
X199142516Y-108234091D01*
X199149444Y-108234835D01*
X199202127Y-108240500D01*
X200997872Y-108240499D01*
X201057483Y-108234091D01*
X201061856Y-108232460D01*
X201119788Y-108210853D01*
X201192328Y-108183797D01*
X201192327Y-108183797D01*
X201192331Y-108183796D01*
X201307546Y-108097546D01*
X201393796Y-107982331D01*
X201444091Y-107847483D01*
X201450500Y-107787873D01*
X201450499Y-105992128D01*
X201444091Y-105932517D01*
X201442810Y-105929083D01*
X201393797Y-105797671D01*
X201393793Y-105797664D01*
X201307547Y-105682455D01*
X201307544Y-105682452D01*
X201192335Y-105596206D01*
X201192328Y-105596202D01*
X201057482Y-105545908D01*
X201057483Y-105545908D01*
X200997883Y-105539501D01*
X200997881Y-105539500D01*
X200997873Y-105539500D01*
X200997864Y-105539500D01*
X199202129Y-105539500D01*
X199202123Y-105539501D01*
X199142516Y-105545908D01*
X199007671Y-105596202D01*
X199007664Y-105596206D01*
X198892455Y-105682452D01*
X198892452Y-105682455D01*
X198806206Y-105797664D01*
X198806203Y-105797669D01*
X198757189Y-105929083D01*
X198715317Y-105985016D01*
X198649853Y-106009433D01*
X198581580Y-105994581D01*
X198553326Y-105973430D01*
X198439786Y-105859890D01*
X198267820Y-105734951D01*
X198078414Y-105638444D01*
X198078413Y-105638443D01*
X198078412Y-105638443D01*
X197876243Y-105572754D01*
X197876241Y-105572753D01*
X197876240Y-105572753D01*
X197714957Y-105547208D01*
X197666287Y-105539500D01*
X197453713Y-105539500D01*
X197405042Y-105547208D01*
X197243760Y-105572753D01*
X197041585Y-105638444D01*
X196852179Y-105734951D01*
X196680213Y-105859890D01*
X196529890Y-106010213D01*
X196404948Y-106182183D01*
X196400482Y-106190949D01*
X196352506Y-106241742D01*
X196284684Y-106258535D01*
X196218550Y-106235995D01*
X196179514Y-106190942D01*
X196175049Y-106182179D01*
X196050110Y-106010213D01*
X195899787Y-105859890D01*
X195727821Y-105734951D01*
X195538415Y-105638444D01*
X195538414Y-105638443D01*
X195538413Y-105638443D01*
X195336244Y-105572754D01*
X195336242Y-105572753D01*
X195336241Y-105572753D01*
X195174958Y-105547208D01*
X195126288Y-105539500D01*
X194913714Y-105539500D01*
X194865043Y-105547208D01*
X194703761Y-105572753D01*
X194501586Y-105638444D01*
X194312180Y-105734951D01*
X194140214Y-105859890D01*
X193989891Y-106010213D01*
X193864952Y-106182179D01*
X193768445Y-106371585D01*
X193702754Y-106573760D01*
X193689247Y-106659040D01*
X193669501Y-106783713D01*
X164200500Y-106783713D01*
X164200500Y-103945004D01*
X197970541Y-103945004D01*
X197970541Y-104098759D01*
X198000532Y-104249538D01*
X198000535Y-104249547D01*
X198059367Y-104391583D01*
X198059368Y-104391585D01*
X198144786Y-104519421D01*
X198144789Y-104519425D01*
X198253497Y-104628133D01*
X198253501Y-104628136D01*
X198381335Y-104713553D01*
X198381336Y-104713553D01*
X198381337Y-104713554D01*
X198381339Y-104713555D01*
X198476029Y-104752776D01*
X198523377Y-104772388D01*
X198523379Y-104772388D01*
X198523384Y-104772390D01*
X198674163Y-104802381D01*
X198674167Y-104802382D01*
X198674168Y-104802382D01*
X198827915Y-104802382D01*
X198827916Y-104802381D01*
X198878177Y-104792384D01*
X198978697Y-104772390D01*
X198978700Y-104772388D01*
X198978705Y-104772388D01*
X199120747Y-104713553D01*
X199248581Y-104628136D01*
X199357295Y-104519422D01*
X199373435Y-104495267D01*
X205119707Y-104495267D01*
X205119707Y-104639172D01*
X205147777Y-104780291D01*
X205147780Y-104780301D01*
X205202844Y-104913239D01*
X205202849Y-104913248D01*
X205282789Y-105032886D01*
X205282792Y-105032890D01*
X205384536Y-105134634D01*
X205384540Y-105134637D01*
X205504178Y-105214577D01*
X205504184Y-105214580D01*
X205504185Y-105214581D01*
X205637128Y-105269648D01*
X205778254Y-105297719D01*
X205778258Y-105297720D01*
X205778259Y-105297720D01*
X205922156Y-105297720D01*
X205922157Y-105297719D01*
X206063286Y-105269648D01*
X206196229Y-105214581D01*
X206315874Y-105134637D01*
X206417624Y-105032887D01*
X206469014Y-104955975D01*
X206522623Y-104911173D01*
X206547919Y-104903251D01*
X206565776Y-104899700D01*
X206707818Y-104840865D01*
X206835652Y-104755448D01*
X206944366Y-104646734D01*
X207029783Y-104518900D01*
X207088618Y-104376858D01*
X207093136Y-104354148D01*
X207108614Y-104276330D01*
X207118612Y-104226067D01*
X207118612Y-104072321D01*
X207104188Y-103999805D01*
X207088620Y-103921537D01*
X207088617Y-103921528D01*
X207087924Y-103919856D01*
X207058071Y-103847781D01*
X207029785Y-103779492D01*
X207029784Y-103779490D01*
X207018798Y-103763049D01*
X206944366Y-103651654D01*
X206944363Y-103651650D01*
X206835655Y-103542942D01*
X206835651Y-103542939D01*
X206707815Y-103457521D01*
X206707813Y-103457520D01*
X206565777Y-103398688D01*
X206565768Y-103398685D01*
X206414989Y-103368694D01*
X206414985Y-103368694D01*
X206261239Y-103368694D01*
X206261234Y-103368694D01*
X206110455Y-103398685D01*
X206110446Y-103398688D01*
X205968410Y-103457520D01*
X205968408Y-103457521D01*
X205840572Y-103542939D01*
X205840568Y-103542942D01*
X205731860Y-103651650D01*
X205731857Y-103651654D01*
X205646440Y-103779488D01*
X205625373Y-103830350D01*
X205581531Y-103884753D01*
X205558267Y-103897456D01*
X205504190Y-103919856D01*
X205504178Y-103919862D01*
X205384540Y-103999802D01*
X205384536Y-103999805D01*
X205282792Y-104101549D01*
X205282789Y-104101553D01*
X205202849Y-104221191D01*
X205202844Y-104221200D01*
X205147780Y-104354138D01*
X205147777Y-104354148D01*
X205119707Y-104495267D01*
X199373435Y-104495267D01*
X199442712Y-104391588D01*
X199501547Y-104249546D01*
X199503770Y-104238373D01*
X199531540Y-104098759D01*
X199531541Y-104098756D01*
X199531541Y-103945008D01*
X199531540Y-103945004D01*
X199501549Y-103794225D01*
X199501546Y-103794216D01*
X199495446Y-103779490D01*
X199442712Y-103652176D01*
X199357295Y-103524342D01*
X199357292Y-103524338D01*
X199248581Y-103415627D01*
X199228253Y-103402045D01*
X199178340Y-103368694D01*
X199120747Y-103330211D01*
X199120744Y-103330209D01*
X199120743Y-103330209D01*
X199120742Y-103330208D01*
X199059956Y-103305030D01*
X201405633Y-103305030D01*
X201405633Y-103462723D01*
X201436394Y-103617366D01*
X201436397Y-103617378D01*
X201496735Y-103763049D01*
X201496742Y-103763062D01*
X201584343Y-103894165D01*
X201584346Y-103894169D01*
X201695840Y-104005663D01*
X201695844Y-104005666D01*
X201826947Y-104093267D01*
X201826960Y-104093274D01*
X201936980Y-104138845D01*
X201972636Y-104153614D01*
X202127286Y-104184376D01*
X202127289Y-104184377D01*
X202127291Y-104184377D01*
X202284977Y-104184377D01*
X202284978Y-104184376D01*
X202439630Y-104153614D01*
X202577198Y-104096632D01*
X202585305Y-104093274D01*
X202585305Y-104093273D01*
X202585312Y-104093271D01*
X202716422Y-104005666D01*
X202827922Y-103894166D01*
X202915527Y-103763056D01*
X202975870Y-103617374D01*
X203006633Y-103462719D01*
X203006633Y-103308543D01*
X216299499Y-103308543D01*
X216337947Y-103501829D01*
X216337950Y-103501839D01*
X216413364Y-103683907D01*
X216413371Y-103683920D01*
X216522860Y-103847781D01*
X216522863Y-103847785D01*
X216662217Y-103987139D01*
X216789700Y-104072320D01*
X216826086Y-104096632D01*
X216826092Y-104096634D01*
X216826093Y-104096635D01*
X216851452Y-104107139D01*
X216905856Y-104150980D01*
X216927921Y-104217274D01*
X216928000Y-104221700D01*
X216928000Y-104238377D01*
X216957991Y-104389156D01*
X216957994Y-104389165D01*
X217016826Y-104531201D01*
X217016827Y-104531203D01*
X217102245Y-104659039D01*
X217102248Y-104659043D01*
X217210956Y-104767751D01*
X217210960Y-104767754D01*
X217338794Y-104853171D01*
X217338795Y-104853171D01*
X217338796Y-104853172D01*
X217338798Y-104853173D01*
X217433488Y-104892394D01*
X217480836Y-104912006D01*
X217480838Y-104912006D01*
X217480843Y-104912008D01*
X217631622Y-104941999D01*
X217631626Y-104942000D01*
X217631627Y-104942000D01*
X217785374Y-104942000D01*
X217785375Y-104941999D01*
X217835636Y-104932002D01*
X217936156Y-104912008D01*
X217936159Y-104912006D01*
X217936164Y-104912006D01*
X218054585Y-104862954D01*
X218124053Y-104855486D01*
X218170927Y-104874414D01*
X218288794Y-104953171D01*
X218288797Y-104953172D01*
X218288798Y-104953173D01*
X218383488Y-104992394D01*
X218430836Y-105012006D01*
X218430838Y-105012006D01*
X218430843Y-105012008D01*
X218581622Y-105041999D01*
X218581626Y-105042000D01*
X218581627Y-105042000D01*
X218735374Y-105042000D01*
X218735375Y-105041999D01*
X218785636Y-105032002D01*
X218886156Y-105012008D01*
X218886159Y-105012006D01*
X218886164Y-105012006D01*
X219028206Y-104953171D01*
X219156040Y-104867754D01*
X219264754Y-104759040D01*
X219350171Y-104631206D01*
X219409006Y-104489164D01*
X219439000Y-104338373D01*
X219439000Y-104184627D01*
X219436499Y-104172052D01*
X219409008Y-104033843D01*
X219409005Y-104033834D01*
X219397336Y-104005663D01*
X219361795Y-103919856D01*
X219350173Y-103891798D01*
X219350172Y-103891797D01*
X219350171Y-103891794D01*
X219294429Y-103808372D01*
X219273552Y-103741696D01*
X219285961Y-103690230D01*
X219284301Y-103689543D01*
X219362049Y-103501839D01*
X219362051Y-103501835D01*
X219377086Y-103426251D01*
X219400500Y-103308543D01*
X219400500Y-103111456D01*
X219362052Y-102918170D01*
X219362051Y-102918169D01*
X219362051Y-102918165D01*
X219354734Y-102900499D01*
X219286635Y-102736092D01*
X219286631Y-102736085D01*
X219283730Y-102731743D01*
X219262852Y-102665065D01*
X219281336Y-102597685D01*
X219333315Y-102550994D01*
X219402285Y-102539818D01*
X219466348Y-102567703D01*
X219474513Y-102575170D01*
X219838046Y-102938703D01*
X219871531Y-103000026D01*
X219874365Y-103026384D01*
X219874365Y-105480874D01*
X219854680Y-105547913D01*
X219801876Y-105593668D01*
X219732718Y-105603612D01*
X219669162Y-105574587D01*
X219662684Y-105568555D01*
X219596812Y-105502683D01*
X219596808Y-105502680D01*
X219468972Y-105417262D01*
X219468970Y-105417261D01*
X219326934Y-105358429D01*
X219326925Y-105358426D01*
X219176146Y-105328435D01*
X219176142Y-105328435D01*
X219022396Y-105328435D01*
X219022391Y-105328435D01*
X218871612Y-105358426D01*
X218871603Y-105358429D01*
X218729570Y-105417260D01*
X218729554Y-105417269D01*
X218678184Y-105451593D01*
X218611507Y-105472470D01*
X218561843Y-105463051D01*
X218436165Y-105410994D01*
X218436156Y-105410991D01*
X218285377Y-105381000D01*
X218285373Y-105381000D01*
X218131627Y-105381000D01*
X218131622Y-105381000D01*
X217980843Y-105410991D01*
X217980834Y-105410994D01*
X217833166Y-105472160D01*
X217832332Y-105470147D01*
X217773533Y-105482381D01*
X217734364Y-105470880D01*
X217733834Y-105472160D01*
X217586165Y-105410994D01*
X217586156Y-105410991D01*
X217435377Y-105381000D01*
X217435373Y-105381000D01*
X217281627Y-105381000D01*
X217281622Y-105381000D01*
X217130843Y-105410991D01*
X217130834Y-105410994D01*
X216988798Y-105469826D01*
X216988796Y-105469827D01*
X216860960Y-105555245D01*
X216860956Y-105555248D01*
X216752248Y-105663956D01*
X216752245Y-105663960D01*
X216666827Y-105791796D01*
X216666826Y-105791798D01*
X216607994Y-105933834D01*
X216607991Y-105933843D01*
X216578000Y-106084622D01*
X216578000Y-106238377D01*
X216607991Y-106389156D01*
X216607994Y-106389165D01*
X216666826Y-106531201D01*
X216666827Y-106531203D01*
X216752245Y-106659039D01*
X216752248Y-106659043D01*
X216860956Y-106767751D01*
X216860960Y-106767754D01*
X216988794Y-106853171D01*
X216988795Y-106853171D01*
X216988796Y-106853172D01*
X216988798Y-106853173D01*
X217076342Y-106889434D01*
X217130836Y-106912006D01*
X217130838Y-106912006D01*
X217130843Y-106912008D01*
X217281622Y-106941999D01*
X217281626Y-106942000D01*
X217281627Y-106942000D01*
X217435374Y-106942000D01*
X217435375Y-106941999D01*
X217485636Y-106932002D01*
X217586156Y-106912008D01*
X217586159Y-106912006D01*
X217586164Y-106912006D01*
X217660398Y-106881257D01*
X217733835Y-106850840D01*
X217734673Y-106852864D01*
X217793401Y-106840613D01*
X217832629Y-106852131D01*
X217833165Y-106850840D01*
X217926344Y-106889435D01*
X217980836Y-106912006D01*
X217980838Y-106912006D01*
X217980843Y-106912008D01*
X218131622Y-106941999D01*
X218131626Y-106942000D01*
X218131627Y-106942000D01*
X218285374Y-106942000D01*
X218285375Y-106941999D01*
X218335636Y-106932002D01*
X218436156Y-106912008D01*
X218436159Y-106912006D01*
X218436164Y-106912006D01*
X218578206Y-106853171D01*
X218629580Y-106818842D01*
X218696257Y-106797964D01*
X218745924Y-106807383D01*
X218801302Y-106830321D01*
X218871605Y-106859441D01*
X218871607Y-106859441D01*
X218871612Y-106859443D01*
X219022391Y-106889434D01*
X219022395Y-106889435D01*
X219022396Y-106889435D01*
X219176143Y-106889435D01*
X219176144Y-106889434D01*
X219226405Y-106879437D01*
X219326925Y-106859443D01*
X219326928Y-106859441D01*
X219326933Y-106859441D01*
X219468975Y-106800606D01*
X219596809Y-106715189D01*
X219596812Y-106715186D01*
X219662684Y-106649315D01*
X219724007Y-106615830D01*
X219793699Y-106620814D01*
X219849632Y-106662686D01*
X219874049Y-106728150D01*
X219874365Y-106736996D01*
X219874365Y-107467544D01*
X219854680Y-107534583D01*
X219813682Y-107572420D01*
X219814276Y-107573309D01*
X219681377Y-107662109D01*
X219681373Y-107662112D01*
X219572665Y-107770820D01*
X219572662Y-107770824D01*
X219487244Y-107898660D01*
X219431961Y-108032126D01*
X219388120Y-108086529D01*
X219386293Y-108087773D01*
X219332468Y-108123739D01*
X219332463Y-108123743D01*
X219223744Y-108232461D01*
X219138327Y-108360296D01*
X219138326Y-108360298D01*
X219079494Y-108502334D01*
X219079491Y-108502343D01*
X219049500Y-108653122D01*
X219049500Y-108806877D01*
X219079491Y-108957656D01*
X219079494Y-108957665D01*
X219138326Y-109099701D01*
X219138327Y-109099703D01*
X219223745Y-109227539D01*
X219223748Y-109227543D01*
X219332456Y-109336251D01*
X219332460Y-109336254D01*
X219460294Y-109421671D01*
X219460295Y-109421671D01*
X219460296Y-109421672D01*
X219460298Y-109421673D01*
X219461899Y-109422336D01*
X219602336Y-109480506D01*
X219602338Y-109480506D01*
X219602343Y-109480508D01*
X219753122Y-109510499D01*
X219753126Y-109510500D01*
X219753127Y-109510500D01*
X219906874Y-109510500D01*
X219906875Y-109510499D01*
X219957136Y-109500502D01*
X220057656Y-109480508D01*
X220057659Y-109480506D01*
X220057664Y-109480506D01*
X220199706Y-109421671D01*
X220327540Y-109336254D01*
X220436254Y-109227540D01*
X220521671Y-109099706D01*
X220562239Y-109001762D01*
X220566870Y-108994831D01*
X220567967Y-108989791D01*
X220589115Y-108961540D01*
X220669813Y-108880842D01*
X220674278Y-108876797D01*
X220787345Y-108763730D01*
X220791385Y-108759270D01*
X221118979Y-108431678D01*
X221195640Y-108316946D01*
X221248445Y-108189464D01*
X221261517Y-108123746D01*
X221275365Y-108054128D01*
X221275365Y-104289860D01*
X221295050Y-104222821D01*
X221347854Y-104177066D01*
X221417012Y-104167122D01*
X221435372Y-104171203D01*
X221438154Y-104172046D01*
X221438165Y-104172051D01*
X221501363Y-104184622D01*
X221631456Y-104210500D01*
X221631459Y-104210500D01*
X222428543Y-104210500D01*
X222596623Y-104177066D01*
X222621835Y-104172051D01*
X222803914Y-104096632D01*
X222967782Y-103987139D01*
X223107139Y-103847782D01*
X223216632Y-103683914D01*
X223292051Y-103501835D01*
X223307086Y-103426251D01*
X223330500Y-103308543D01*
X223330500Y-103111456D01*
X223292052Y-102918170D01*
X223292051Y-102918169D01*
X223292051Y-102918165D01*
X223284734Y-102900499D01*
X223216635Y-102736092D01*
X223216628Y-102736079D01*
X223107139Y-102572218D01*
X223107136Y-102572214D01*
X222967785Y-102432863D01*
X222967781Y-102432860D01*
X222803920Y-102323371D01*
X222803907Y-102323364D01*
X222621839Y-102247950D01*
X222621829Y-102247947D01*
X222428543Y-102209500D01*
X222428541Y-102209500D01*
X221631459Y-102209500D01*
X221631457Y-102209500D01*
X221438170Y-102247947D01*
X221438160Y-102247950D01*
X221287225Y-102310469D01*
X221217756Y-102317938D01*
X221155277Y-102286662D01*
X221136671Y-102264799D01*
X221118979Y-102238322D01*
X221118976Y-102238318D01*
X219479117Y-100598460D01*
X219452237Y-100558231D01*
X219414222Y-100466454D01*
X219411671Y-100460294D01*
X219326254Y-100332460D01*
X219326251Y-100332456D01*
X219217543Y-100223748D01*
X219217539Y-100223745D01*
X219089703Y-100138327D01*
X219089701Y-100138326D01*
X218947665Y-100079494D01*
X218947656Y-100079491D01*
X218796877Y-100049500D01*
X218796873Y-100049500D01*
X218643127Y-100049500D01*
X218643122Y-100049500D01*
X218492343Y-100079491D01*
X218492334Y-100079494D01*
X218350298Y-100138326D01*
X218350296Y-100138327D01*
X218222460Y-100223745D01*
X218222456Y-100223748D01*
X218113748Y-100332456D01*
X218113745Y-100332460D01*
X218028327Y-100460296D01*
X218028326Y-100460298D01*
X217969494Y-100602334D01*
X217969491Y-100602343D01*
X217939500Y-100753122D01*
X217939500Y-100906877D01*
X217969491Y-101057656D01*
X217969493Y-101057660D01*
X217969494Y-101057664D01*
X217979852Y-101082670D01*
X218029552Y-101202660D01*
X218037020Y-101272129D01*
X218005744Y-101334608D01*
X218002672Y-101337792D01*
X217916282Y-101424182D01*
X217839993Y-101556318D01*
X217837331Y-101566254D01*
X217800500Y-101703707D01*
X217800500Y-101856293D01*
X217839992Y-102003678D01*
X217846210Y-102014447D01*
X217851436Y-102023499D01*
X217867909Y-102091399D01*
X217845057Y-102157426D01*
X217790136Y-102200617D01*
X217744049Y-102209500D01*
X217201457Y-102209500D01*
X217008170Y-102247947D01*
X217008160Y-102247950D01*
X216826092Y-102323364D01*
X216826079Y-102323371D01*
X216662218Y-102432860D01*
X216662214Y-102432863D01*
X216522863Y-102572214D01*
X216522860Y-102572218D01*
X216413371Y-102736079D01*
X216413364Y-102736092D01*
X216337952Y-102918157D01*
X216337947Y-102918170D01*
X216299500Y-103111456D01*
X216299500Y-103111459D01*
X216299500Y-103308541D01*
X216299500Y-103308543D01*
X216299499Y-103308543D01*
X203006633Y-103308543D01*
X203006633Y-103305035D01*
X203006633Y-103305032D01*
X203006632Y-103305030D01*
X202999937Y-103271373D01*
X202975870Y-103150380D01*
X202975868Y-103150375D01*
X202915530Y-103004704D01*
X202915523Y-103004691D01*
X202827922Y-102873588D01*
X202827919Y-102873584D01*
X202716425Y-102762090D01*
X202716421Y-102762087D01*
X202585318Y-102674486D01*
X202585305Y-102674479D01*
X202439634Y-102614141D01*
X202439622Y-102614138D01*
X202284978Y-102583377D01*
X202284975Y-102583377D01*
X202127291Y-102583377D01*
X202127288Y-102583377D01*
X201972643Y-102614138D01*
X201972631Y-102614141D01*
X201826960Y-102674479D01*
X201826947Y-102674486D01*
X201695844Y-102762087D01*
X201695840Y-102762090D01*
X201584346Y-102873584D01*
X201584343Y-102873588D01*
X201496742Y-103004691D01*
X201496735Y-103004704D01*
X201436397Y-103150375D01*
X201436394Y-103150387D01*
X201405633Y-103305030D01*
X199059956Y-103305030D01*
X198978706Y-103271376D01*
X198978697Y-103271373D01*
X198827918Y-103241382D01*
X198827914Y-103241382D01*
X198674168Y-103241382D01*
X198674163Y-103241382D01*
X198523384Y-103271373D01*
X198523375Y-103271376D01*
X198381339Y-103330208D01*
X198381337Y-103330209D01*
X198253501Y-103415627D01*
X198253497Y-103415630D01*
X198144789Y-103524338D01*
X198144786Y-103524342D01*
X198059368Y-103652178D01*
X198059367Y-103652180D01*
X198000535Y-103794216D01*
X198000532Y-103794225D01*
X197970541Y-103945004D01*
X164200500Y-103945004D01*
X164200500Y-102743122D01*
X193099500Y-102743122D01*
X193099500Y-102896877D01*
X193129491Y-103047656D01*
X193129494Y-103047665D01*
X193188326Y-103189701D01*
X193188327Y-103189703D01*
X193273745Y-103317539D01*
X193273748Y-103317543D01*
X193382456Y-103426251D01*
X193382460Y-103426254D01*
X193510294Y-103511671D01*
X193510295Y-103511671D01*
X193510296Y-103511672D01*
X193510298Y-103511673D01*
X193585785Y-103542940D01*
X193652336Y-103570506D01*
X193652338Y-103570506D01*
X193652343Y-103570508D01*
X193803122Y-103600499D01*
X193803126Y-103600500D01*
X193803127Y-103600500D01*
X193956874Y-103600500D01*
X193956875Y-103600499D01*
X194007136Y-103590502D01*
X194107656Y-103570508D01*
X194107659Y-103570506D01*
X194107664Y-103570506D01*
X194249706Y-103511671D01*
X194377540Y-103426254D01*
X194486254Y-103317540D01*
X194571671Y-103189706D01*
X194630506Y-103047664D01*
X194639053Y-103004698D01*
X194656266Y-102918157D01*
X194660500Y-102896873D01*
X194660500Y-102743127D01*
X194635520Y-102617543D01*
X194630508Y-102592343D01*
X194630505Y-102592334D01*
X194571673Y-102450298D01*
X194571672Y-102450296D01*
X194551244Y-102419724D01*
X194486254Y-102322460D01*
X194486251Y-102322456D01*
X194377543Y-102213748D01*
X194377539Y-102213745D01*
X194249703Y-102128327D01*
X194249701Y-102128326D01*
X194107665Y-102069494D01*
X194107656Y-102069491D01*
X193956877Y-102039500D01*
X193956873Y-102039500D01*
X193803127Y-102039500D01*
X193803122Y-102039500D01*
X193652343Y-102069491D01*
X193652334Y-102069494D01*
X193510298Y-102128326D01*
X193510296Y-102128327D01*
X193382460Y-102213745D01*
X193382456Y-102213748D01*
X193273748Y-102322456D01*
X193273745Y-102322460D01*
X193188327Y-102450296D01*
X193188326Y-102450298D01*
X193129494Y-102592334D01*
X193129491Y-102592343D01*
X193099500Y-102743122D01*
X164200500Y-102743122D01*
X164200500Y-99443122D01*
X193649500Y-99443122D01*
X193649500Y-99596877D01*
X193679491Y-99747656D01*
X193679494Y-99747665D01*
X193738326Y-99889701D01*
X193738327Y-99889703D01*
X193823745Y-100017539D01*
X193823748Y-100017543D01*
X193932456Y-100126251D01*
X193932460Y-100126254D01*
X194060294Y-100211671D01*
X194060295Y-100211671D01*
X194060296Y-100211672D01*
X194060298Y-100211673D01*
X194140915Y-100245065D01*
X194202336Y-100270506D01*
X194202338Y-100270506D01*
X194202343Y-100270508D01*
X194353122Y-100300499D01*
X194353126Y-100300500D01*
X194353127Y-100300500D01*
X194506874Y-100300500D01*
X194506875Y-100300499D01*
X194552770Y-100291370D01*
X194663639Y-100269318D01*
X194663870Y-100270481D01*
X194727418Y-100269904D01*
X194786537Y-100307143D01*
X194816138Y-100370433D01*
X194806824Y-100439679D01*
X194796668Y-100458084D01*
X194708330Y-100590291D01*
X194708326Y-100590298D01*
X194649494Y-100732334D01*
X194649493Y-100732341D01*
X194619500Y-100883122D01*
X194619500Y-101036877D01*
X194649491Y-101187656D01*
X194649494Y-101187665D01*
X194708326Y-101329701D01*
X194708327Y-101329703D01*
X194793745Y-101457539D01*
X194793748Y-101457543D01*
X194902456Y-101566251D01*
X194902460Y-101566254D01*
X195030294Y-101651671D01*
X195030295Y-101651671D01*
X195030296Y-101651672D01*
X195030298Y-101651673D01*
X195102912Y-101681750D01*
X195172336Y-101710506D01*
X195172338Y-101710506D01*
X195172343Y-101710508D01*
X195323122Y-101740499D01*
X195323126Y-101740500D01*
X195323127Y-101740500D01*
X195476874Y-101740500D01*
X195476874Y-101740499D01*
X195519861Y-101731949D01*
X195589452Y-101738176D01*
X195644630Y-101781038D01*
X195667875Y-101846928D01*
X195665670Y-101877757D01*
X195639500Y-102009322D01*
X195639500Y-102163077D01*
X195669491Y-102313856D01*
X195669494Y-102313865D01*
X195728326Y-102455901D01*
X195728327Y-102455903D01*
X195813745Y-102583739D01*
X195813748Y-102583743D01*
X195922456Y-102692451D01*
X195922460Y-102692454D01*
X196050294Y-102777871D01*
X196050295Y-102777871D01*
X196050296Y-102777872D01*
X196050298Y-102777873D01*
X196131895Y-102811671D01*
X196192336Y-102836706D01*
X196192338Y-102836706D01*
X196192343Y-102836708D01*
X196343122Y-102866699D01*
X196343126Y-102866700D01*
X196343127Y-102866700D01*
X196496874Y-102866700D01*
X196496875Y-102866699D01*
X196547136Y-102856702D01*
X196647656Y-102836708D01*
X196647659Y-102836706D01*
X196647664Y-102836706D01*
X196789706Y-102777871D01*
X196917540Y-102692454D01*
X197026254Y-102583740D01*
X197111671Y-102455906D01*
X197126658Y-102419724D01*
X209245861Y-102419724D01*
X209245861Y-102563629D01*
X209273931Y-102704748D01*
X209273934Y-102704758D01*
X209328998Y-102837696D01*
X209329003Y-102837705D01*
X209408943Y-102957343D01*
X209408946Y-102957347D01*
X209510690Y-103059091D01*
X209510694Y-103059094D01*
X209630332Y-103139034D01*
X209630338Y-103139037D01*
X209630339Y-103139038D01*
X209763282Y-103194105D01*
X209904408Y-103222176D01*
X209904412Y-103222177D01*
X209904413Y-103222177D01*
X210048310Y-103222177D01*
X210048311Y-103222176D01*
X210189440Y-103194105D01*
X210322383Y-103139038D01*
X210442028Y-103059094D01*
X210453466Y-103047656D01*
X210483437Y-103017686D01*
X210543775Y-102957347D01*
X210543778Y-102957344D01*
X210623722Y-102837699D01*
X210678789Y-102704756D01*
X210706861Y-102563625D01*
X210706861Y-102515512D01*
X210726546Y-102448473D01*
X210779350Y-102402718D01*
X210830861Y-102391512D01*
X210878976Y-102391512D01*
X210878977Y-102391511D01*
X211020106Y-102363440D01*
X211153049Y-102308373D01*
X211272694Y-102228429D01*
X211285032Y-102216090D01*
X211346350Y-102182607D01*
X211416042Y-102187589D01*
X211460393Y-102216091D01*
X211472728Y-102228426D01*
X211472732Y-102228430D01*
X211592369Y-102308369D01*
X211592375Y-102308372D01*
X211592376Y-102308373D01*
X211725319Y-102363440D01*
X211831223Y-102384505D01*
X211866445Y-102391511D01*
X211866449Y-102391512D01*
X211866450Y-102391512D01*
X212010347Y-102391512D01*
X212010348Y-102391511D01*
X212151477Y-102363440D01*
X212284420Y-102308373D01*
X212404065Y-102228429D01*
X212505815Y-102126679D01*
X212561646Y-102043122D01*
X214419500Y-102043122D01*
X214419500Y-102196877D01*
X214449491Y-102347656D01*
X214449494Y-102347665D01*
X214508326Y-102489701D01*
X214508327Y-102489703D01*
X214593745Y-102617539D01*
X214593748Y-102617543D01*
X214702456Y-102726251D01*
X214702460Y-102726254D01*
X214830294Y-102811671D01*
X214830295Y-102811671D01*
X214830296Y-102811672D01*
X214830298Y-102811673D01*
X214893132Y-102837699D01*
X214972336Y-102870506D01*
X214972338Y-102870506D01*
X214972343Y-102870508D01*
X215123122Y-102900499D01*
X215123126Y-102900500D01*
X215123127Y-102900500D01*
X215276874Y-102900500D01*
X215276875Y-102900499D01*
X215327136Y-102890502D01*
X215427656Y-102870508D01*
X215427659Y-102870506D01*
X215427664Y-102870506D01*
X215569706Y-102811671D01*
X215697540Y-102726254D01*
X215806254Y-102617540D01*
X215891671Y-102489706D01*
X215950506Y-102347664D01*
X215955520Y-102322460D01*
X215972256Y-102238318D01*
X215980500Y-102196873D01*
X215980500Y-102043127D01*
X215977095Y-102026010D01*
X215950508Y-101892343D01*
X215950505Y-101892334D01*
X215942949Y-101874093D01*
X215907807Y-101789250D01*
X215891673Y-101750298D01*
X215891672Y-101750296D01*
X215885126Y-101740500D01*
X215806254Y-101622460D01*
X215806251Y-101622456D01*
X215697543Y-101513748D01*
X215697539Y-101513745D01*
X215569703Y-101428327D01*
X215569701Y-101428326D01*
X215427665Y-101369494D01*
X215427656Y-101369491D01*
X215276877Y-101339500D01*
X215276873Y-101339500D01*
X215123127Y-101339500D01*
X215123122Y-101339500D01*
X214972343Y-101369491D01*
X214972334Y-101369494D01*
X214830298Y-101428326D01*
X214830296Y-101428327D01*
X214702460Y-101513745D01*
X214702456Y-101513748D01*
X214593748Y-101622456D01*
X214593745Y-101622460D01*
X214508327Y-101750296D01*
X214508326Y-101750298D01*
X214449494Y-101892334D01*
X214449491Y-101892343D01*
X214419500Y-102043122D01*
X212561646Y-102043122D01*
X212585759Y-102007034D01*
X212640826Y-101874091D01*
X212668898Y-101732960D01*
X212668898Y-101589064D01*
X212640826Y-101447933D01*
X212591853Y-101329701D01*
X212585760Y-101314992D01*
X212585755Y-101314983D01*
X212505815Y-101195345D01*
X212505812Y-101195341D01*
X212404068Y-101093597D01*
X212404064Y-101093594D01*
X212284426Y-101013654D01*
X212284417Y-101013649D01*
X212151479Y-100958585D01*
X212151480Y-100958585D01*
X212151477Y-100958584D01*
X212151473Y-100958583D01*
X212151469Y-100958582D01*
X212010350Y-100930512D01*
X212010346Y-100930512D01*
X211866450Y-100930512D01*
X211866445Y-100930512D01*
X211725326Y-100958582D01*
X211725316Y-100958585D01*
X211592378Y-101013649D01*
X211592369Y-101013654D01*
X211472734Y-101093592D01*
X211472732Y-101093593D01*
X211460388Y-101105937D01*
X211399063Y-101139418D01*
X211329371Y-101134429D01*
X211285031Y-101105931D01*
X211272697Y-101093597D01*
X211272693Y-101093594D01*
X211153055Y-101013654D01*
X211153046Y-101013649D01*
X211020108Y-100958585D01*
X211020109Y-100958585D01*
X211020106Y-100958584D01*
X211020102Y-100958583D01*
X211020098Y-100958582D01*
X210878979Y-100930512D01*
X210878975Y-100930512D01*
X210735079Y-100930512D01*
X210735074Y-100930512D01*
X210593955Y-100958582D01*
X210593945Y-100958585D01*
X210461007Y-101013649D01*
X210460998Y-101013654D01*
X210341360Y-101093594D01*
X210341356Y-101093597D01*
X210239612Y-101195341D01*
X210239609Y-101195345D01*
X210159669Y-101314983D01*
X210159664Y-101314992D01*
X210104600Y-101447930D01*
X210104597Y-101447940D01*
X210076527Y-101589059D01*
X210076527Y-101637177D01*
X210056842Y-101704216D01*
X210004038Y-101749971D01*
X209952527Y-101761177D01*
X209904408Y-101761177D01*
X209763289Y-101789247D01*
X209763279Y-101789250D01*
X209630341Y-101844314D01*
X209630332Y-101844319D01*
X209510694Y-101924259D01*
X209510690Y-101924262D01*
X209408946Y-102026006D01*
X209408943Y-102026010D01*
X209329003Y-102145648D01*
X209328998Y-102145657D01*
X209273934Y-102278595D01*
X209273931Y-102278605D01*
X209245861Y-102419724D01*
X197126658Y-102419724D01*
X197170506Y-102313864D01*
X197171182Y-102310469D01*
X197200499Y-102163077D01*
X197200500Y-102163074D01*
X197200500Y-102009326D01*
X197200499Y-102009322D01*
X197199376Y-102003678D01*
X197170506Y-101858536D01*
X197111671Y-101716494D01*
X197111670Y-101716493D01*
X197110818Y-101714435D01*
X197103350Y-101644965D01*
X197134626Y-101582486D01*
X197194715Y-101546834D01*
X197225380Y-101542983D01*
X197302526Y-101542983D01*
X197302527Y-101542982D01*
X197443656Y-101514911D01*
X197576599Y-101459844D01*
X197696244Y-101379900D01*
X197797994Y-101278150D01*
X197877938Y-101158505D01*
X197877939Y-101158502D01*
X197877941Y-101158499D01*
X197904824Y-101093597D01*
X197933005Y-101025562D01*
X197961077Y-100884431D01*
X197961077Y-100740535D01*
X197933005Y-100599404D01*
X197877938Y-100466461D01*
X197877937Y-100466460D01*
X197877934Y-100466454D01*
X197797994Y-100346816D01*
X197797991Y-100346812D01*
X197696247Y-100245068D01*
X197696243Y-100245065D01*
X197631273Y-100201653D01*
X199204760Y-100201653D01*
X199204760Y-100345558D01*
X199232830Y-100486677D01*
X199232833Y-100486687D01*
X199287897Y-100619625D01*
X199287905Y-100619639D01*
X199370715Y-100743574D01*
X199391593Y-100810251D01*
X199389231Y-100836651D01*
X199380749Y-100879298D01*
X199380749Y-101023202D01*
X199408819Y-101164321D01*
X199408822Y-101164331D01*
X199463886Y-101297269D01*
X199463891Y-101297278D01*
X199543831Y-101416916D01*
X199543834Y-101416920D01*
X199645578Y-101518664D01*
X199645582Y-101518667D01*
X199765220Y-101598607D01*
X199765226Y-101598610D01*
X199765227Y-101598611D01*
X199898170Y-101653678D01*
X200039296Y-101681749D01*
X200039300Y-101681750D01*
X200039301Y-101681750D01*
X200183198Y-101681750D01*
X200183199Y-101681749D01*
X200324328Y-101653678D01*
X200457271Y-101598611D01*
X200576916Y-101518667D01*
X200678666Y-101416917D01*
X200758610Y-101297272D01*
X200813677Y-101164329D01*
X200841749Y-101023198D01*
X200841749Y-100879302D01*
X200813677Y-100738171D01*
X200764575Y-100619628D01*
X200758611Y-100605230D01*
X200758606Y-100605221D01*
X200675792Y-100481282D01*
X200668274Y-100457274D01*
X200656939Y-100434817D01*
X200657036Y-100421383D01*
X200654914Y-100414605D01*
X200655561Y-100399549D01*
X200656155Y-100393839D01*
X200665760Y-100345554D01*
X200665760Y-100314119D01*
X202801052Y-100314119D01*
X202801052Y-100467874D01*
X202831043Y-100618653D01*
X202831046Y-100618662D01*
X202889878Y-100760698D01*
X202889879Y-100760700D01*
X202975297Y-100888536D01*
X202975300Y-100888540D01*
X203084008Y-100997248D01*
X203084012Y-100997251D01*
X203211846Y-101082668D01*
X203211847Y-101082668D01*
X203211848Y-101082669D01*
X203211850Y-101082670D01*
X203268023Y-101105937D01*
X203353888Y-101141503D01*
X203353890Y-101141503D01*
X203353895Y-101141505D01*
X203504674Y-101171496D01*
X203504678Y-101171497D01*
X203504679Y-101171497D01*
X203658426Y-101171497D01*
X203658427Y-101171496D01*
X203708688Y-101161499D01*
X203809208Y-101141505D01*
X203809211Y-101141503D01*
X203809216Y-101141503D01*
X203951258Y-101082668D01*
X204079092Y-100997251D01*
X204187806Y-100888537D01*
X204273223Y-100760703D01*
X204283024Y-100737040D01*
X204326862Y-100682638D01*
X204393155Y-100660571D01*
X204445036Y-100669930D01*
X204504302Y-100694479D01*
X204658952Y-100725241D01*
X204658955Y-100725242D01*
X204658957Y-100725242D01*
X204816643Y-100725242D01*
X204816644Y-100725241D01*
X204971296Y-100694479D01*
X205116978Y-100634136D01*
X205248088Y-100546531D01*
X205248091Y-100546528D01*
X205337618Y-100457002D01*
X205398941Y-100423517D01*
X205468633Y-100428501D01*
X205512980Y-100457002D01*
X205602506Y-100546528D01*
X205602510Y-100546531D01*
X205733613Y-100634132D01*
X205733626Y-100634139D01*
X205820037Y-100669931D01*
X205879302Y-100694479D01*
X206033952Y-100725241D01*
X206033955Y-100725242D01*
X206033957Y-100725242D01*
X206191643Y-100725242D01*
X206191644Y-100725241D01*
X206346296Y-100694479D01*
X206491978Y-100634136D01*
X206623088Y-100546531D01*
X206623091Y-100546528D01*
X206712618Y-100457002D01*
X206773941Y-100423517D01*
X206843633Y-100428501D01*
X206887980Y-100457002D01*
X206977506Y-100546528D01*
X206977510Y-100546531D01*
X207108613Y-100634132D01*
X207108626Y-100634139D01*
X207195037Y-100669931D01*
X207254302Y-100694479D01*
X207408952Y-100725241D01*
X207408955Y-100725242D01*
X207408957Y-100725242D01*
X207566643Y-100725242D01*
X207566644Y-100725241D01*
X207721296Y-100694479D01*
X207866978Y-100634136D01*
X207998088Y-100546531D01*
X207998091Y-100546528D01*
X208113896Y-100430724D01*
X208115512Y-100432340D01*
X208164835Y-100398747D01*
X208202937Y-100392748D01*
X208314748Y-100392748D01*
X208314749Y-100392747D01*
X208455878Y-100364676D01*
X208588821Y-100309609D01*
X208708466Y-100229665D01*
X208810216Y-100127915D01*
X208890160Y-100008270D01*
X208945227Y-99875327D01*
X208973299Y-99734196D01*
X208973299Y-99590300D01*
X208969496Y-99571179D01*
X208966587Y-99556553D01*
X208962986Y-99538449D01*
X210925055Y-99538449D01*
X210925055Y-99682354D01*
X210953125Y-99823473D01*
X210953128Y-99823483D01*
X211008192Y-99956421D01*
X211008197Y-99956430D01*
X211088137Y-100076068D01*
X211088140Y-100076072D01*
X211189884Y-100177816D01*
X211189888Y-100177819D01*
X211309526Y-100257759D01*
X211309532Y-100257762D01*
X211309533Y-100257763D01*
X211442476Y-100312830D01*
X211583602Y-100340901D01*
X211583606Y-100340902D01*
X211583607Y-100340902D01*
X211727504Y-100340902D01*
X211727505Y-100340901D01*
X211868634Y-100312830D01*
X211997012Y-100259653D01*
X212066479Y-100252185D01*
X212091913Y-100259653D01*
X212220293Y-100312830D01*
X212361419Y-100340901D01*
X212361423Y-100340902D01*
X212361424Y-100340902D01*
X212505321Y-100340902D01*
X212505322Y-100340901D01*
X212646451Y-100312830D01*
X212779394Y-100257763D01*
X212899039Y-100177819D01*
X213000789Y-100076069D01*
X213080733Y-99956424D01*
X213135800Y-99823481D01*
X213163872Y-99682350D01*
X213163872Y-99538454D01*
X213135800Y-99397323D01*
X213080733Y-99264380D01*
X213080732Y-99264379D01*
X213080729Y-99264373D01*
X213000789Y-99144735D01*
X213000786Y-99144731D01*
X212899042Y-99042987D01*
X212899038Y-99042984D01*
X212779400Y-98963044D01*
X212779391Y-98963039D01*
X212671006Y-98918145D01*
X212646451Y-98907974D01*
X212646447Y-98907973D01*
X212646443Y-98907972D01*
X212505324Y-98879902D01*
X212505320Y-98879902D01*
X212361424Y-98879902D01*
X212361419Y-98879902D01*
X212220300Y-98907972D01*
X212220286Y-98907976D01*
X212091915Y-98961149D01*
X212022446Y-98968618D01*
X211997010Y-98961149D01*
X211917456Y-98928197D01*
X211868634Y-98907974D01*
X211868630Y-98907973D01*
X211868626Y-98907972D01*
X211727507Y-98879902D01*
X211727503Y-98879902D01*
X211583607Y-98879902D01*
X211583602Y-98879902D01*
X211442483Y-98907972D01*
X211442473Y-98907975D01*
X211309535Y-98963039D01*
X211309526Y-98963044D01*
X211189888Y-99042984D01*
X211189884Y-99042987D01*
X211088140Y-99144731D01*
X211088137Y-99144735D01*
X211008197Y-99264373D01*
X211008192Y-99264382D01*
X210953128Y-99397320D01*
X210953125Y-99397330D01*
X210925055Y-99538449D01*
X208962986Y-99538449D01*
X208945228Y-99449176D01*
X208945227Y-99449169D01*
X208890160Y-99316226D01*
X208890159Y-99316225D01*
X208890156Y-99316219D01*
X208810216Y-99196581D01*
X208810213Y-99196577D01*
X208708469Y-99094833D01*
X208708465Y-99094830D01*
X208588827Y-99014890D01*
X208588818Y-99014885D01*
X208455880Y-98959821D01*
X208455878Y-98959820D01*
X208455876Y-98959819D01*
X208455872Y-98959818D01*
X208352488Y-98939254D01*
X208290577Y-98906869D01*
X208256003Y-98846153D01*
X208257781Y-98789499D01*
X208256348Y-98789214D01*
X208288298Y-98628588D01*
X208288299Y-98628586D01*
X208288299Y-98470897D01*
X208288298Y-98470895D01*
X208273949Y-98398758D01*
X208257536Y-98316245D01*
X208237948Y-98268955D01*
X208197196Y-98170569D01*
X208197189Y-98170556D01*
X208109588Y-98039453D01*
X208109585Y-98039449D01*
X208020059Y-97949923D01*
X207986574Y-97888600D01*
X207991558Y-97818908D01*
X208020059Y-97774561D01*
X208109585Y-97685034D01*
X208109588Y-97685031D01*
X208197193Y-97553921D01*
X208257536Y-97408239D01*
X208288299Y-97253584D01*
X208288299Y-97095900D01*
X208288299Y-97095897D01*
X208288298Y-97095895D01*
X208276287Y-97035513D01*
X208257536Y-96941245D01*
X208220339Y-96851443D01*
X214389878Y-96851443D01*
X214389878Y-96995348D01*
X214417948Y-97136467D01*
X214417951Y-97136477D01*
X214473015Y-97269415D01*
X214473020Y-97269424D01*
X214552960Y-97389062D01*
X214552963Y-97389066D01*
X214654707Y-97490810D01*
X214654711Y-97490813D01*
X214774349Y-97570753D01*
X214774355Y-97570756D01*
X214774356Y-97570757D01*
X214907299Y-97625824D01*
X215048425Y-97653895D01*
X215048429Y-97653896D01*
X215048430Y-97653896D01*
X215192327Y-97653896D01*
X215192328Y-97653895D01*
X215333457Y-97625824D01*
X215466400Y-97570757D01*
X215586045Y-97490813D01*
X215687795Y-97389063D01*
X215767739Y-97269418D01*
X215822806Y-97136475D01*
X215850878Y-96995344D01*
X215850878Y-96851448D01*
X215822806Y-96710317D01*
X215773662Y-96591673D01*
X215767740Y-96577376D01*
X215767735Y-96577367D01*
X215687795Y-96457729D01*
X215687792Y-96457725D01*
X215586048Y-96355981D01*
X215586044Y-96355978D01*
X215466406Y-96276038D01*
X215466397Y-96276033D01*
X215349625Y-96227665D01*
X215333457Y-96220968D01*
X215333453Y-96220967D01*
X215333449Y-96220966D01*
X215192330Y-96192896D01*
X215192326Y-96192896D01*
X215048430Y-96192896D01*
X215048425Y-96192896D01*
X214907306Y-96220966D01*
X214907296Y-96220969D01*
X214774358Y-96276033D01*
X214774349Y-96276038D01*
X214654711Y-96355978D01*
X214654707Y-96355981D01*
X214552963Y-96457725D01*
X214552960Y-96457729D01*
X214473020Y-96577367D01*
X214473015Y-96577376D01*
X214417951Y-96710314D01*
X214417948Y-96710324D01*
X214389878Y-96851443D01*
X208220339Y-96851443D01*
X208214044Y-96836245D01*
X208197196Y-96795569D01*
X208197189Y-96795556D01*
X208109588Y-96664453D01*
X208109585Y-96664449D01*
X207998091Y-96552955D01*
X207998087Y-96552952D01*
X207866984Y-96465351D01*
X207866971Y-96465344D01*
X207721300Y-96405006D01*
X207721288Y-96405003D01*
X207566644Y-96374242D01*
X207566641Y-96374242D01*
X207408957Y-96374242D01*
X207408954Y-96374242D01*
X207254309Y-96405003D01*
X207254297Y-96405006D01*
X207108626Y-96465344D01*
X207108613Y-96465351D01*
X206977510Y-96552952D01*
X206977506Y-96552955D01*
X206887980Y-96642482D01*
X206826657Y-96675967D01*
X206756965Y-96670983D01*
X206712618Y-96642482D01*
X206623091Y-96552955D01*
X206623087Y-96552952D01*
X206491984Y-96465351D01*
X206491975Y-96465346D01*
X206448846Y-96447482D01*
X206394443Y-96403641D01*
X206372378Y-96337347D01*
X206381739Y-96285466D01*
X206384244Y-96279419D01*
X206412316Y-96138288D01*
X206412316Y-95994392D01*
X206384244Y-95853261D01*
X206329177Y-95720318D01*
X206329176Y-95720317D01*
X206329173Y-95720311D01*
X206249233Y-95600673D01*
X206249230Y-95600669D01*
X206147486Y-95498925D01*
X206147482Y-95498922D01*
X206027844Y-95418982D01*
X206027835Y-95418977D01*
X205903357Y-95367417D01*
X205894895Y-95363912D01*
X205894891Y-95363911D01*
X205894887Y-95363910D01*
X205753768Y-95335840D01*
X205753764Y-95335840D01*
X205609868Y-95335840D01*
X205609863Y-95335840D01*
X205468744Y-95363910D01*
X205468734Y-95363913D01*
X205335796Y-95418977D01*
X205335787Y-95418982D01*
X205216149Y-95498922D01*
X205216145Y-95498925D01*
X205114401Y-95600669D01*
X205114398Y-95600673D01*
X205034458Y-95720311D01*
X205034453Y-95720320D01*
X204979389Y-95853258D01*
X204979386Y-95853268D01*
X204951316Y-95994387D01*
X204951316Y-95994391D01*
X204951316Y-95994392D01*
X204951316Y-96138288D01*
X204968330Y-96223823D01*
X204969527Y-96229841D01*
X204963299Y-96299433D01*
X204920435Y-96354610D01*
X204854545Y-96377854D01*
X204823718Y-96375649D01*
X204816645Y-96374242D01*
X204816641Y-96374242D01*
X204658957Y-96374242D01*
X204658954Y-96374242D01*
X204504309Y-96405003D01*
X204504297Y-96405006D01*
X204358620Y-96465347D01*
X204355506Y-96467012D01*
X204353689Y-96467389D01*
X204352992Y-96467679D01*
X204352937Y-96467546D01*
X204287102Y-96481247D01*
X204221860Y-96456241D01*
X204193281Y-96422651D01*
X204192252Y-96423340D01*
X204108926Y-96298634D01*
X204108920Y-96298626D01*
X204007176Y-96196882D01*
X204007172Y-96196879D01*
X203887534Y-96116939D01*
X203887525Y-96116934D01*
X203767786Y-96067337D01*
X203754585Y-96061869D01*
X203754581Y-96061868D01*
X203754577Y-96061867D01*
X203613458Y-96033797D01*
X203613454Y-96033797D01*
X203469558Y-96033797D01*
X203469553Y-96033797D01*
X203328434Y-96061867D01*
X203328424Y-96061870D01*
X203195486Y-96116934D01*
X203195477Y-96116939D01*
X203075839Y-96196879D01*
X203075835Y-96196882D01*
X202974091Y-96298626D01*
X202974088Y-96298630D01*
X202894148Y-96418268D01*
X202894143Y-96418277D01*
X202839079Y-96551215D01*
X202839076Y-96551225D01*
X202811006Y-96692344D01*
X202811006Y-96836249D01*
X202839076Y-96977368D01*
X202839079Y-96977378D01*
X202894143Y-97110316D01*
X202894148Y-97110325D01*
X202974088Y-97229963D01*
X202974091Y-97229967D01*
X203075835Y-97331711D01*
X203075839Y-97331714D01*
X203195477Y-97411654D01*
X203195486Y-97411659D01*
X203218771Y-97421304D01*
X203328427Y-97466725D01*
X203464345Y-97493760D01*
X203469553Y-97494796D01*
X203469557Y-97494797D01*
X203469558Y-97494797D01*
X203613455Y-97494797D01*
X203613456Y-97494796D01*
X203754585Y-97466725D01*
X203842916Y-97430136D01*
X203912384Y-97422668D01*
X203974864Y-97453943D01*
X204004929Y-97497246D01*
X204028401Y-97553914D01*
X204028408Y-97553927D01*
X204116009Y-97685030D01*
X204116012Y-97685034D01*
X204205539Y-97774561D01*
X204239024Y-97835884D01*
X204234040Y-97905576D01*
X204205539Y-97949923D01*
X204116012Y-98039449D01*
X204116009Y-98039453D01*
X204028408Y-98170556D01*
X204028402Y-98170568D01*
X204016646Y-98198949D01*
X203972804Y-98253352D01*
X203906509Y-98275415D01*
X203854634Y-98266055D01*
X203779231Y-98234822D01*
X203779227Y-98234821D01*
X203779223Y-98234820D01*
X203638104Y-98206750D01*
X203638100Y-98206750D01*
X203494204Y-98206750D01*
X203494199Y-98206750D01*
X203353080Y-98234820D01*
X203353070Y-98234823D01*
X203220132Y-98289887D01*
X203220123Y-98289892D01*
X203100485Y-98369832D01*
X203100481Y-98369835D01*
X202998737Y-98471579D01*
X202998734Y-98471583D01*
X202918794Y-98591221D01*
X202918789Y-98591230D01*
X202863725Y-98724168D01*
X202863722Y-98724178D01*
X202835652Y-98865297D01*
X202835652Y-99009202D01*
X202863722Y-99150321D01*
X202863725Y-99150331D01*
X202918786Y-99283262D01*
X202919225Y-99284082D01*
X202919324Y-99284561D01*
X202921122Y-99288900D01*
X202920299Y-99289240D01*
X202933473Y-99352484D01*
X202924433Y-99389998D01*
X202892112Y-99468027D01*
X202892108Y-99468041D01*
X202864038Y-99609160D01*
X202864038Y-99753065D01*
X202892108Y-99894183D01*
X202892111Y-99894195D01*
X202898393Y-99909361D01*
X202905860Y-99978830D01*
X202891228Y-100015101D01*
X202892754Y-100015917D01*
X202889877Y-100021298D01*
X202831046Y-100163331D01*
X202831043Y-100163340D01*
X202801052Y-100314119D01*
X200665760Y-100314119D01*
X200665760Y-100201658D01*
X200637688Y-100060527D01*
X200582621Y-99927584D01*
X200582620Y-99927583D01*
X200582617Y-99927577D01*
X200502677Y-99807939D01*
X200502674Y-99807935D01*
X200400930Y-99706191D01*
X200400926Y-99706188D01*
X200281288Y-99626248D01*
X200281279Y-99626243D01*
X200148341Y-99571179D01*
X200148342Y-99571179D01*
X200148339Y-99571178D01*
X200148335Y-99571177D01*
X200148331Y-99571176D01*
X200007212Y-99543106D01*
X200007208Y-99543106D01*
X199863312Y-99543106D01*
X199863307Y-99543106D01*
X199722188Y-99571176D01*
X199722178Y-99571179D01*
X199589240Y-99626243D01*
X199589231Y-99626248D01*
X199469593Y-99706188D01*
X199469589Y-99706191D01*
X199367845Y-99807935D01*
X199367842Y-99807939D01*
X199287902Y-99927577D01*
X199287897Y-99927586D01*
X199232833Y-100060524D01*
X199232830Y-100060534D01*
X199204760Y-100201653D01*
X197631273Y-100201653D01*
X197576605Y-100165125D01*
X197576596Y-100165120D01*
X197443658Y-100110056D01*
X197443659Y-100110056D01*
X197443656Y-100110055D01*
X197443652Y-100110054D01*
X197443648Y-100110053D01*
X197302529Y-100081983D01*
X197302525Y-100081983D01*
X197187321Y-100081983D01*
X197120282Y-100062298D01*
X197074527Y-100009494D01*
X197072760Y-100005435D01*
X197029412Y-99900782D01*
X197029405Y-99900769D01*
X196949465Y-99781131D01*
X196949462Y-99781127D01*
X196847718Y-99679383D01*
X196847714Y-99679380D01*
X196728076Y-99599440D01*
X196728067Y-99599435D01*
X196595127Y-99544370D01*
X196595122Y-99544368D01*
X196553736Y-99536136D01*
X196491825Y-99503750D01*
X196457252Y-99443034D01*
X196456320Y-99438750D01*
X196448080Y-99397323D01*
X196393013Y-99264380D01*
X196393012Y-99264379D01*
X196393009Y-99264373D01*
X196313069Y-99144735D01*
X196313066Y-99144731D01*
X196211322Y-99042987D01*
X196211318Y-99042984D01*
X196091680Y-98963044D01*
X196091671Y-98963039D01*
X195958731Y-98907974D01*
X195958726Y-98907972D01*
X195917340Y-98899740D01*
X195855429Y-98867354D01*
X195820856Y-98806638D01*
X195819924Y-98802354D01*
X195811684Y-98760927D01*
X195756867Y-98628588D01*
X195756618Y-98627986D01*
X195756613Y-98627977D01*
X195676673Y-98508339D01*
X195676670Y-98508335D01*
X195642777Y-98474443D01*
X195641681Y-98472436D01*
X195639716Y-98471271D01*
X195625025Y-98441936D01*
X195609291Y-98413121D01*
X195609134Y-98410201D01*
X195608431Y-98408797D01*
X195608519Y-98398758D01*
X195607165Y-98373526D01*
X195607755Y-98368022D01*
X195627624Y-98268136D01*
X195627624Y-98182942D01*
X195628332Y-98176347D01*
X195639261Y-98149947D01*
X195647309Y-98122543D01*
X195652454Y-98118084D01*
X195655060Y-98111791D01*
X195678528Y-98095491D01*
X195700113Y-98076788D01*
X195710102Y-98073561D01*
X195712446Y-98071934D01*
X195715478Y-98071825D01*
X195727425Y-98067966D01*
X195817310Y-98050088D01*
X195950253Y-97995021D01*
X196069898Y-97915077D01*
X196133992Y-97850983D01*
X200062225Y-97850983D01*
X200062225Y-97994888D01*
X200090295Y-98136007D01*
X200090298Y-98136017D01*
X200145362Y-98268955D01*
X200145367Y-98268964D01*
X200225307Y-98388602D01*
X200225310Y-98388606D01*
X200327054Y-98490350D01*
X200327058Y-98490353D01*
X200446696Y-98570293D01*
X200446702Y-98570296D01*
X200446703Y-98570297D01*
X200579646Y-98625364D01*
X200720772Y-98653435D01*
X200720776Y-98653436D01*
X200720777Y-98653436D01*
X200864674Y-98653436D01*
X200864675Y-98653435D01*
X201005804Y-98625364D01*
X201138747Y-98570297D01*
X201258392Y-98490353D01*
X201360142Y-98388603D01*
X201440086Y-98268958D01*
X201495153Y-98136015D01*
X201523225Y-97994884D01*
X201523225Y-97850988D01*
X201495153Y-97709857D01*
X201440086Y-97576914D01*
X201440085Y-97576913D01*
X201440082Y-97576907D01*
X201360142Y-97457269D01*
X201360139Y-97457265D01*
X201258395Y-97355521D01*
X201258391Y-97355518D01*
X201138753Y-97275578D01*
X201138744Y-97275573D01*
X201005806Y-97220509D01*
X201005807Y-97220509D01*
X201005804Y-97220508D01*
X201005800Y-97220507D01*
X201005796Y-97220506D01*
X200864677Y-97192436D01*
X200864673Y-97192436D01*
X200720777Y-97192436D01*
X200720772Y-97192436D01*
X200579653Y-97220506D01*
X200579643Y-97220509D01*
X200446705Y-97275573D01*
X200446696Y-97275578D01*
X200327058Y-97355518D01*
X200327054Y-97355521D01*
X200225310Y-97457265D01*
X200225307Y-97457269D01*
X200145367Y-97576907D01*
X200145362Y-97576916D01*
X200090298Y-97709854D01*
X200090295Y-97709864D01*
X200062225Y-97850983D01*
X196133992Y-97850983D01*
X196171648Y-97813327D01*
X196251592Y-97693682D01*
X196306659Y-97560739D01*
X196334731Y-97419608D01*
X196334731Y-97419601D01*
X196335328Y-97413547D01*
X196337828Y-97413793D01*
X196354416Y-97357304D01*
X196407220Y-97311549D01*
X196448103Y-97302654D01*
X196447935Y-97300940D01*
X196453990Y-97300343D01*
X196453996Y-97300343D01*
X196595127Y-97272271D01*
X196728070Y-97217204D01*
X196847715Y-97137260D01*
X196949465Y-97035510D01*
X197029409Y-96915865D01*
X197084476Y-96782922D01*
X197112548Y-96641791D01*
X197112548Y-96575815D01*
X197132233Y-96508776D01*
X197185037Y-96463021D01*
X197236548Y-96451815D01*
X197302526Y-96451815D01*
X197302527Y-96451814D01*
X197443656Y-96423743D01*
X197576599Y-96368676D01*
X197696244Y-96288732D01*
X197797994Y-96186982D01*
X197877938Y-96067337D01*
X197933005Y-95934394D01*
X197961077Y-95793263D01*
X197961077Y-95727286D01*
X197980762Y-95660247D01*
X198033566Y-95614492D01*
X198085077Y-95603286D01*
X198151054Y-95603286D01*
X198151055Y-95603285D01*
X198292184Y-95575214D01*
X198425127Y-95520147D01*
X198425126Y-95520147D01*
X198430755Y-95517816D01*
X198431823Y-95520396D01*
X198488468Y-95508574D01*
X198553724Y-95533543D01*
X198566259Y-95544498D01*
X198603383Y-95581622D01*
X198603387Y-95581625D01*
X198723025Y-95661565D01*
X198723031Y-95661568D01*
X198723032Y-95661569D01*
X198855975Y-95716636D01*
X198997106Y-95744708D01*
X198997111Y-95744708D01*
X199003167Y-95745305D01*
X199002920Y-95747805D01*
X199059411Y-95764393D01*
X199105166Y-95817197D01*
X199114059Y-95858079D01*
X199115775Y-95857911D01*
X199116372Y-95863976D01*
X199144442Y-96005095D01*
X199144445Y-96005105D01*
X199199509Y-96138043D01*
X199199514Y-96138052D01*
X199279454Y-96257690D01*
X199279457Y-96257694D01*
X199381201Y-96359438D01*
X199381205Y-96359441D01*
X199500843Y-96439381D01*
X199500849Y-96439384D01*
X199500850Y-96439385D01*
X199633793Y-96494452D01*
X199774919Y-96522523D01*
X199774923Y-96522524D01*
X199774924Y-96522524D01*
X199918821Y-96522524D01*
X199918822Y-96522523D01*
X200059951Y-96494452D01*
X200192894Y-96439385D01*
X200312539Y-96359441D01*
X200414289Y-96257691D01*
X200494233Y-96138046D01*
X200549300Y-96005103D01*
X200577372Y-95863972D01*
X200577372Y-95720076D01*
X200549300Y-95578945D01*
X200498636Y-95456632D01*
X200494234Y-95446004D01*
X200494229Y-95445995D01*
X200414289Y-95326357D01*
X200414286Y-95326353D01*
X200312542Y-95224609D01*
X200250151Y-95182920D01*
X200205347Y-95129307D01*
X200196640Y-95059982D01*
X200226795Y-94996955D01*
X200231343Y-94992155D01*
X200299464Y-94924035D01*
X200398013Y-94776547D01*
X200418102Y-94728047D01*
X201689500Y-94728047D01*
X201689500Y-94871952D01*
X201717570Y-95013071D01*
X201717573Y-95013081D01*
X201772637Y-95146019D01*
X201772642Y-95146028D01*
X201852582Y-95265666D01*
X201852585Y-95265670D01*
X201954329Y-95367414D01*
X201954333Y-95367417D01*
X202073971Y-95447357D01*
X202073977Y-95447360D01*
X202073978Y-95447361D01*
X202206921Y-95502428D01*
X202311407Y-95523211D01*
X202348047Y-95530499D01*
X202348051Y-95530500D01*
X202348052Y-95530500D01*
X202491949Y-95530500D01*
X202491950Y-95530499D01*
X202633079Y-95502428D01*
X202766022Y-95447361D01*
X202885667Y-95367417D01*
X202987417Y-95265667D01*
X203067361Y-95146022D01*
X203122428Y-95013079D01*
X203150500Y-94871948D01*
X203150500Y-94728052D01*
X203122428Y-94586921D01*
X203067361Y-94453978D01*
X203067360Y-94453977D01*
X203067357Y-94453971D01*
X202987417Y-94334333D01*
X202987414Y-94334329D01*
X202885670Y-94232585D01*
X202885666Y-94232582D01*
X202766028Y-94152642D01*
X202766019Y-94152637D01*
X202657158Y-94107546D01*
X202633079Y-94097572D01*
X202633074Y-94097571D01*
X202633071Y-94097570D01*
X202491952Y-94069500D01*
X202491948Y-94069500D01*
X202348052Y-94069500D01*
X202348047Y-94069500D01*
X202206928Y-94097570D01*
X202206918Y-94097573D01*
X202073980Y-94152637D01*
X202073971Y-94152642D01*
X201954333Y-94232582D01*
X201954329Y-94232585D01*
X201852585Y-94334329D01*
X201852582Y-94334333D01*
X201772642Y-94453971D01*
X201772637Y-94453980D01*
X201717573Y-94586918D01*
X201717570Y-94586928D01*
X201689500Y-94728047D01*
X200418102Y-94728047D01*
X200465894Y-94612666D01*
X200474871Y-94567539D01*
X200497459Y-94453978D01*
X200500500Y-94438691D01*
X200500500Y-94261309D01*
X200500500Y-94261306D01*
X200500499Y-94261304D01*
X200465896Y-94087341D01*
X200465893Y-94087332D01*
X200426871Y-93993122D01*
X204949500Y-93993122D01*
X204949500Y-94146877D01*
X204979491Y-94297656D01*
X204979494Y-94297665D01*
X205038326Y-94439701D01*
X205038327Y-94439703D01*
X205123745Y-94567539D01*
X205123748Y-94567543D01*
X205232456Y-94676251D01*
X205232460Y-94676254D01*
X205360294Y-94761671D01*
X205360295Y-94761671D01*
X205360296Y-94761672D01*
X205360298Y-94761673D01*
X205454841Y-94800833D01*
X205502336Y-94820506D01*
X205502338Y-94820506D01*
X205502343Y-94820508D01*
X205653122Y-94850499D01*
X205653126Y-94850500D01*
X205653127Y-94850500D01*
X205806874Y-94850500D01*
X205806875Y-94850499D01*
X205857136Y-94840502D01*
X205957656Y-94820508D01*
X205957659Y-94820506D01*
X205957664Y-94820506D01*
X206099706Y-94761671D01*
X206227540Y-94676254D01*
X206336254Y-94567540D01*
X206421671Y-94439706D01*
X206480506Y-94297664D01*
X206484765Y-94276254D01*
X206493921Y-94230223D01*
X209644689Y-94230223D01*
X209644689Y-94383978D01*
X209674680Y-94534757D01*
X209674683Y-94534766D01*
X209733515Y-94676802D01*
X209733516Y-94676804D01*
X209818934Y-94804640D01*
X209818937Y-94804644D01*
X209927645Y-94913352D01*
X209927649Y-94913355D01*
X210055483Y-94998772D01*
X210055484Y-94998772D01*
X210055485Y-94998773D01*
X210055487Y-94998774D01*
X210104048Y-95018888D01*
X210197525Y-95057607D01*
X210197527Y-95057607D01*
X210197532Y-95057609D01*
X210348311Y-95087600D01*
X210348315Y-95087601D01*
X210348316Y-95087601D01*
X210502063Y-95087601D01*
X210502064Y-95087600D01*
X210552325Y-95077603D01*
X210652845Y-95057609D01*
X210652848Y-95057607D01*
X210652853Y-95057607D01*
X210794895Y-94998772D01*
X210880988Y-94941246D01*
X213637624Y-94941246D01*
X213637624Y-95095001D01*
X213667615Y-95245780D01*
X213667618Y-95245789D01*
X213726450Y-95387825D01*
X213726451Y-95387827D01*
X213811869Y-95515663D01*
X213811872Y-95515667D01*
X213920580Y-95624375D01*
X213920584Y-95624378D01*
X214048418Y-95709795D01*
X214048419Y-95709795D01*
X214048420Y-95709796D01*
X214048422Y-95709797D01*
X214132704Y-95744707D01*
X214190460Y-95768630D01*
X214190462Y-95768630D01*
X214190467Y-95768632D01*
X214341246Y-95798623D01*
X214341250Y-95798624D01*
X214341251Y-95798624D01*
X214494998Y-95798624D01*
X214494999Y-95798623D01*
X214576652Y-95782382D01*
X214645780Y-95768632D01*
X214645783Y-95768630D01*
X214645788Y-95768630D01*
X214787830Y-95709795D01*
X214915664Y-95624378D01*
X215024378Y-95515664D01*
X215109795Y-95387830D01*
X215168630Y-95245788D01*
X215176082Y-95208327D01*
X215198623Y-95095001D01*
X215198624Y-95094998D01*
X215198624Y-94941250D01*
X215198623Y-94941246D01*
X215168632Y-94790467D01*
X215168629Y-94790458D01*
X215162869Y-94776553D01*
X215118131Y-94668543D01*
X216299499Y-94668543D01*
X216337947Y-94861829D01*
X216337950Y-94861839D01*
X216413364Y-95043907D01*
X216413371Y-95043920D01*
X216522860Y-95207781D01*
X216522863Y-95207785D01*
X216662214Y-95347136D01*
X216662218Y-95347139D01*
X216826079Y-95456628D01*
X216826092Y-95456635D01*
X217008160Y-95532049D01*
X217008165Y-95532051D01*
X217008169Y-95532051D01*
X217008170Y-95532052D01*
X217201456Y-95570500D01*
X217201459Y-95570500D01*
X217744049Y-95570500D01*
X217811088Y-95590185D01*
X217856843Y-95642989D01*
X217866787Y-95712147D01*
X217851436Y-95756499D01*
X217839992Y-95776322D01*
X217800500Y-95923707D01*
X217800500Y-96076293D01*
X217839266Y-96220968D01*
X217839993Y-96223681D01*
X217916282Y-96355817D01*
X217916284Y-96355819D01*
X217916285Y-96355821D01*
X218024179Y-96463715D01*
X218024180Y-96463716D01*
X218024182Y-96463717D01*
X218156318Y-96540006D01*
X218156319Y-96540006D01*
X218156322Y-96540008D01*
X218303707Y-96579500D01*
X218303710Y-96579500D01*
X218456290Y-96579500D01*
X218456293Y-96579500D01*
X218603678Y-96540008D01*
X218735821Y-96463715D01*
X218843715Y-96355821D01*
X218920008Y-96223678D01*
X218959500Y-96076293D01*
X218959500Y-95923707D01*
X218920008Y-95776322D01*
X218915567Y-95768630D01*
X218843716Y-95644180D01*
X218839415Y-95638576D01*
X218814218Y-95573407D01*
X218828254Y-95504962D01*
X218868898Y-95459984D01*
X218968031Y-95393745D01*
X219037782Y-95347139D01*
X219177139Y-95207782D01*
X219286632Y-95043914D01*
X219299408Y-95013071D01*
X219357860Y-94871952D01*
X219362051Y-94861835D01*
X219381975Y-94761671D01*
X219400500Y-94668543D01*
X220729499Y-94668543D01*
X220767947Y-94861829D01*
X220767950Y-94861839D01*
X220843364Y-95043907D01*
X220843371Y-95043920D01*
X220952860Y-95207781D01*
X220952863Y-95207785D01*
X221092214Y-95347136D01*
X221092218Y-95347139D01*
X221256079Y-95456628D01*
X221256092Y-95456635D01*
X221438160Y-95532049D01*
X221438165Y-95532051D01*
X221438169Y-95532051D01*
X221438170Y-95532052D01*
X221631456Y-95570500D01*
X221631459Y-95570500D01*
X222428543Y-95570500D01*
X222600549Y-95536285D01*
X222621835Y-95532051D01*
X222765912Y-95472373D01*
X222803907Y-95456635D01*
X222803907Y-95456634D01*
X222803914Y-95456632D01*
X222967782Y-95347139D01*
X223107139Y-95207782D01*
X223216632Y-95043914D01*
X223229408Y-95013071D01*
X223287860Y-94871952D01*
X223292051Y-94861835D01*
X223311975Y-94761671D01*
X223330500Y-94668543D01*
X223330500Y-94471456D01*
X223292052Y-94278170D01*
X223292051Y-94278169D01*
X223292051Y-94278165D01*
X223292049Y-94278160D01*
X223216635Y-94096092D01*
X223216628Y-94096079D01*
X223107139Y-93932218D01*
X223107136Y-93932214D01*
X222967785Y-93792863D01*
X222967781Y-93792860D01*
X222803920Y-93683371D01*
X222803907Y-93683364D01*
X222621839Y-93607950D01*
X222621829Y-93607947D01*
X222428543Y-93569500D01*
X222428541Y-93569500D01*
X221631459Y-93569500D01*
X221631457Y-93569500D01*
X221438170Y-93607947D01*
X221438160Y-93607950D01*
X221256092Y-93683364D01*
X221256079Y-93683371D01*
X221092218Y-93792860D01*
X221092214Y-93792863D01*
X220952863Y-93932214D01*
X220952860Y-93932218D01*
X220843371Y-94096079D01*
X220843364Y-94096092D01*
X220767950Y-94278160D01*
X220767947Y-94278170D01*
X220729500Y-94471456D01*
X220729500Y-94471459D01*
X220729500Y-94668541D01*
X220729500Y-94668543D01*
X220729499Y-94668543D01*
X219400500Y-94668543D01*
X219400500Y-94471456D01*
X219362052Y-94278170D01*
X219362051Y-94278169D01*
X219362051Y-94278165D01*
X219362049Y-94278160D01*
X219286635Y-94096092D01*
X219286628Y-94096079D01*
X219177139Y-93932218D01*
X219177136Y-93932214D01*
X219037785Y-93792863D01*
X219037781Y-93792860D01*
X218873920Y-93683371D01*
X218873907Y-93683364D01*
X218691839Y-93607950D01*
X218691829Y-93607947D01*
X218498543Y-93569500D01*
X218498541Y-93569500D01*
X217201459Y-93569500D01*
X217201457Y-93569500D01*
X217008170Y-93607947D01*
X217008160Y-93607950D01*
X216826092Y-93683364D01*
X216826079Y-93683371D01*
X216662218Y-93792860D01*
X216662214Y-93792863D01*
X216522863Y-93932214D01*
X216522860Y-93932218D01*
X216413371Y-94096079D01*
X216413364Y-94096092D01*
X216337950Y-94278160D01*
X216337947Y-94278170D01*
X216299500Y-94471456D01*
X216299500Y-94471459D01*
X216299500Y-94668541D01*
X216299500Y-94668543D01*
X216299499Y-94668543D01*
X215118131Y-94668543D01*
X215117717Y-94667543D01*
X215109797Y-94648422D01*
X215109796Y-94648421D01*
X215109795Y-94648418D01*
X215024378Y-94520584D01*
X215024375Y-94520580D01*
X214915667Y-94411872D01*
X214915663Y-94411869D01*
X214787827Y-94326451D01*
X214787825Y-94326450D01*
X214645789Y-94267618D01*
X214645780Y-94267615D01*
X214495001Y-94237624D01*
X214494997Y-94237624D01*
X214341251Y-94237624D01*
X214341246Y-94237624D01*
X214190467Y-94267615D01*
X214190458Y-94267618D01*
X214048422Y-94326450D01*
X214048420Y-94326451D01*
X213920584Y-94411869D01*
X213920580Y-94411872D01*
X213811872Y-94520580D01*
X213811869Y-94520584D01*
X213726451Y-94648420D01*
X213726450Y-94648422D01*
X213667618Y-94790458D01*
X213667615Y-94790467D01*
X213637624Y-94941246D01*
X210880988Y-94941246D01*
X210922729Y-94913355D01*
X210922732Y-94913352D01*
X210988607Y-94847478D01*
X211031440Y-94804644D01*
X211031443Y-94804641D01*
X211116860Y-94676807D01*
X211175695Y-94534765D01*
X211177287Y-94526764D01*
X211205688Y-94383978D01*
X211205689Y-94383975D01*
X211205689Y-94230227D01*
X211205688Y-94230223D01*
X211175697Y-94079444D01*
X211175694Y-94079435D01*
X211116862Y-93937399D01*
X211116861Y-93937397D01*
X211113400Y-93932218D01*
X211031443Y-93809561D01*
X211031440Y-93809557D01*
X210922732Y-93700849D01*
X210922728Y-93700846D01*
X210794892Y-93615428D01*
X210794890Y-93615427D01*
X210652854Y-93556595D01*
X210652845Y-93556592D01*
X210502066Y-93526601D01*
X210502062Y-93526601D01*
X210348316Y-93526601D01*
X210348311Y-93526601D01*
X210197532Y-93556592D01*
X210197523Y-93556595D01*
X210055487Y-93615427D01*
X210055485Y-93615428D01*
X209927649Y-93700846D01*
X209927645Y-93700849D01*
X209818937Y-93809557D01*
X209818934Y-93809561D01*
X209733516Y-93937397D01*
X209733515Y-93937399D01*
X209674683Y-94079435D01*
X209674680Y-94079444D01*
X209644689Y-94230223D01*
X206493921Y-94230223D01*
X206499944Y-94199945D01*
X206509777Y-94150506D01*
X206510500Y-94146873D01*
X206510500Y-93993127D01*
X206507013Y-93975598D01*
X206480508Y-93842343D01*
X206480505Y-93842334D01*
X206463093Y-93800298D01*
X206440966Y-93746877D01*
X206421673Y-93700298D01*
X206421672Y-93700296D01*
X206410358Y-93683364D01*
X206336254Y-93572460D01*
X206336251Y-93572456D01*
X206227543Y-93463748D01*
X206227539Y-93463745D01*
X206162275Y-93420137D01*
X206161313Y-93419494D01*
X206099706Y-93378329D01*
X206099703Y-93378327D01*
X206099702Y-93378327D01*
X206099701Y-93378326D01*
X205966424Y-93323122D01*
X211219500Y-93323122D01*
X211219500Y-93476877D01*
X211249491Y-93627656D01*
X211249494Y-93627665D01*
X211308326Y-93769701D01*
X211308327Y-93769703D01*
X211393745Y-93897539D01*
X211393748Y-93897543D01*
X211502456Y-94006251D01*
X211502460Y-94006254D01*
X211630294Y-94091671D01*
X211630295Y-94091671D01*
X211630296Y-94091672D01*
X211630298Y-94091673D01*
X211654255Y-94101596D01*
X211772336Y-94150506D01*
X211772338Y-94150506D01*
X211772343Y-94150508D01*
X211923122Y-94180499D01*
X211923126Y-94180500D01*
X211923127Y-94180500D01*
X212076874Y-94180500D01*
X212076875Y-94180499D01*
X212142028Y-94167540D01*
X212227656Y-94150508D01*
X212227659Y-94150506D01*
X212227664Y-94150506D01*
X212369706Y-94091671D01*
X212497540Y-94006254D01*
X212606254Y-93897540D01*
X212691671Y-93769706D01*
X212750506Y-93627664D01*
X212752940Y-93615430D01*
X212779061Y-93484106D01*
X212780500Y-93476873D01*
X212780500Y-93459271D01*
X212800185Y-93392232D01*
X212852989Y-93346477D01*
X212922147Y-93336533D01*
X212928686Y-93337653D01*
X213009831Y-93353793D01*
X213009832Y-93353794D01*
X213009833Y-93353794D01*
X213163580Y-93353794D01*
X213163581Y-93353793D01*
X213244721Y-93337654D01*
X213314362Y-93323802D01*
X213314365Y-93323800D01*
X213314370Y-93323800D01*
X213456412Y-93264965D01*
X213584246Y-93179548D01*
X213692960Y-93070834D01*
X213778377Y-92943000D01*
X213837212Y-92800958D01*
X213838139Y-92796301D01*
X213858818Y-92692336D01*
X213867206Y-92650167D01*
X213867206Y-92496421D01*
X213858643Y-92453371D01*
X213837214Y-92345637D01*
X213837211Y-92345628D01*
X213787690Y-92226071D01*
X213787682Y-92226053D01*
X213778377Y-92203588D01*
X213765730Y-92184660D01*
X214821037Y-92184660D01*
X214821037Y-92338415D01*
X214851028Y-92489194D01*
X214851031Y-92489203D01*
X214909863Y-92631239D01*
X214909864Y-92631241D01*
X214995282Y-92759077D01*
X214995285Y-92759081D01*
X215103993Y-92867789D01*
X215103997Y-92867792D01*
X215231831Y-92953209D01*
X215231832Y-92953209D01*
X215231833Y-92953210D01*
X215231835Y-92953211D01*
X215326525Y-92992432D01*
X215373873Y-93012044D01*
X215373875Y-93012044D01*
X215373880Y-93012046D01*
X215524659Y-93042037D01*
X215524663Y-93042038D01*
X215524664Y-93042038D01*
X215678411Y-93042038D01*
X215678412Y-93042037D01*
X215728673Y-93032040D01*
X215829193Y-93012046D01*
X215829196Y-93012044D01*
X215829201Y-93012044D01*
X215971243Y-92953209D01*
X216099077Y-92867792D01*
X216170569Y-92796299D01*
X216231890Y-92762816D01*
X216301582Y-92767800D01*
X216357516Y-92809671D01*
X216361338Y-92815073D01*
X216366302Y-92822501D01*
X216421869Y-92905664D01*
X216530580Y-93014375D01*
X216530584Y-93014378D01*
X216658418Y-93099795D01*
X216658419Y-93099795D01*
X216658420Y-93099796D01*
X216658422Y-93099797D01*
X216753112Y-93139018D01*
X216800460Y-93158630D01*
X216800462Y-93158630D01*
X216800467Y-93158632D01*
X216951246Y-93188623D01*
X216951250Y-93188624D01*
X216951251Y-93188624D01*
X217104998Y-93188624D01*
X217104999Y-93188623D01*
X217155260Y-93178626D01*
X217255780Y-93158632D01*
X217255783Y-93158630D01*
X217255788Y-93158630D01*
X217397830Y-93099795D01*
X217525664Y-93014378D01*
X217634378Y-92905664D01*
X217719795Y-92777830D01*
X217778630Y-92635788D01*
X217779098Y-92633438D01*
X217805033Y-92503048D01*
X217808624Y-92484997D01*
X217808624Y-92331251D01*
X217808356Y-92329906D01*
X217778632Y-92180467D01*
X217778629Y-92180458D01*
X217719797Y-92038422D01*
X217719796Y-92038420D01*
X217716758Y-92033874D01*
X217634378Y-91910584D01*
X217634375Y-91910580D01*
X217525667Y-91801872D01*
X217525663Y-91801869D01*
X217397827Y-91716451D01*
X217397825Y-91716450D01*
X217255789Y-91657618D01*
X217255780Y-91657615D01*
X217105001Y-91627624D01*
X217104997Y-91627624D01*
X216951251Y-91627624D01*
X216951246Y-91627624D01*
X216880538Y-91641689D01*
X216810946Y-91635462D01*
X216755769Y-91592599D01*
X216732525Y-91526709D01*
X216734730Y-91495879D01*
X216740500Y-91466873D01*
X216740500Y-91313126D01*
X216740499Y-91313122D01*
X216710508Y-91162343D01*
X216710505Y-91162334D01*
X216710476Y-91162265D01*
X216676609Y-91080500D01*
X216651673Y-91020298D01*
X216651672Y-91020296D01*
X216629339Y-90986873D01*
X216566254Y-90892460D01*
X216566251Y-90892456D01*
X216457543Y-90783748D01*
X216457539Y-90783745D01*
X216329703Y-90698327D01*
X216329701Y-90698326D01*
X216187665Y-90639494D01*
X216187656Y-90639491D01*
X216036877Y-90609500D01*
X216036873Y-90609500D01*
X215883127Y-90609500D01*
X215883122Y-90609500D01*
X215732343Y-90639491D01*
X215732334Y-90639494D01*
X215590298Y-90698326D01*
X215590296Y-90698327D01*
X215462460Y-90783745D01*
X215462456Y-90783748D01*
X215353748Y-90892456D01*
X215353745Y-90892460D01*
X215268327Y-91020296D01*
X215268326Y-91020298D01*
X215209494Y-91162334D01*
X215209491Y-91162343D01*
X215179500Y-91313122D01*
X215179500Y-91466877D01*
X215187558Y-91507387D01*
X215181331Y-91576979D01*
X215138467Y-91632156D01*
X215134833Y-91634679D01*
X215104002Y-91655280D01*
X215104000Y-91655281D01*
X214995283Y-91763998D01*
X214909864Y-91891834D01*
X214909863Y-91891836D01*
X214851031Y-92033872D01*
X214851028Y-92033881D01*
X214821037Y-92184660D01*
X213765730Y-92184660D01*
X213692960Y-92075754D01*
X213692957Y-92075750D01*
X213584249Y-91967042D01*
X213584245Y-91967039D01*
X213456409Y-91881621D01*
X213456407Y-91881620D01*
X213386702Y-91852748D01*
X213332298Y-91808908D01*
X213310233Y-91742613D01*
X213327512Y-91674914D01*
X213378649Y-91627303D01*
X213386702Y-91623626D01*
X213439701Y-91601673D01*
X213439700Y-91601673D01*
X213439706Y-91601671D01*
X213567540Y-91516254D01*
X213676254Y-91407540D01*
X213761671Y-91279706D01*
X213820506Y-91137664D01*
X213820946Y-91135455D01*
X213849545Y-90991672D01*
X213850500Y-90986873D01*
X213850500Y-90833127D01*
X213840678Y-90783746D01*
X213820508Y-90682343D01*
X213820505Y-90682334D01*
X213818243Y-90676874D01*
X213782215Y-90589893D01*
X213761673Y-90540298D01*
X213761672Y-90540296D01*
X213753231Y-90527664D01*
X213676254Y-90412460D01*
X213676251Y-90412456D01*
X213567543Y-90303748D01*
X213567539Y-90303745D01*
X213446879Y-90223122D01*
X219519500Y-90223122D01*
X219519500Y-90376877D01*
X219549491Y-90527656D01*
X219549494Y-90527665D01*
X219608326Y-90669701D01*
X219608327Y-90669703D01*
X219693745Y-90797539D01*
X219693748Y-90797543D01*
X219802456Y-90906251D01*
X219802460Y-90906254D01*
X219930294Y-90991671D01*
X219930295Y-90991671D01*
X219930296Y-90991672D01*
X219930298Y-90991673D01*
X220024988Y-91030894D01*
X220072336Y-91050506D01*
X220072338Y-91050506D01*
X220072343Y-91050508D01*
X220223122Y-91080499D01*
X220223126Y-91080500D01*
X220223127Y-91080500D01*
X220376874Y-91080500D01*
X220376875Y-91080499D01*
X220427136Y-91070502D01*
X220527656Y-91050508D01*
X220527659Y-91050506D01*
X220527664Y-91050506D01*
X220669706Y-90991671D01*
X220797540Y-90906254D01*
X220906254Y-90797540D01*
X220991671Y-90669706D01*
X221050506Y-90527664D01*
X221050833Y-90526024D01*
X221073422Y-90412456D01*
X221080500Y-90376873D01*
X221080500Y-90223127D01*
X221064430Y-90142336D01*
X221050508Y-90072343D01*
X221050505Y-90072334D01*
X220991673Y-89930298D01*
X220991672Y-89930296D01*
X220981266Y-89914723D01*
X220906254Y-89802460D01*
X220906251Y-89802456D01*
X220797543Y-89693748D01*
X220797539Y-89693745D01*
X220669703Y-89608327D01*
X220669701Y-89608326D01*
X220527665Y-89549494D01*
X220527656Y-89549491D01*
X220376877Y-89519500D01*
X220376873Y-89519500D01*
X220223127Y-89519500D01*
X220223122Y-89519500D01*
X220072343Y-89549491D01*
X220072334Y-89549494D01*
X219930298Y-89608326D01*
X219930296Y-89608327D01*
X219802460Y-89693745D01*
X219802456Y-89693748D01*
X219693748Y-89802456D01*
X219693745Y-89802460D01*
X219608327Y-89930296D01*
X219608326Y-89930298D01*
X219549494Y-90072334D01*
X219549491Y-90072343D01*
X219519500Y-90223122D01*
X213446879Y-90223122D01*
X213439703Y-90218327D01*
X213439701Y-90218326D01*
X213297665Y-90159494D01*
X213297656Y-90159491D01*
X213146877Y-90129500D01*
X213146873Y-90129500D01*
X212993127Y-90129500D01*
X212993122Y-90129500D01*
X212842343Y-90159491D01*
X212842334Y-90159494D01*
X212700298Y-90218326D01*
X212700296Y-90218327D01*
X212572460Y-90303745D01*
X212572456Y-90303748D01*
X212463748Y-90412456D01*
X212463745Y-90412460D01*
X212378327Y-90540296D01*
X212378326Y-90540298D01*
X212319494Y-90682334D01*
X212319491Y-90682343D01*
X212289500Y-90833122D01*
X212289500Y-90986877D01*
X212319054Y-91135455D01*
X212312827Y-91205047D01*
X212269964Y-91260224D01*
X212244889Y-91274207D01*
X212149218Y-91313834D01*
X212149216Y-91313835D01*
X212021380Y-91399253D01*
X212021376Y-91399256D01*
X211912668Y-91507964D01*
X211912665Y-91507968D01*
X211827247Y-91635804D01*
X211827246Y-91635806D01*
X211768414Y-91777842D01*
X211768411Y-91777851D01*
X211738420Y-91928630D01*
X211738420Y-92082385D01*
X211768411Y-92233164D01*
X211768414Y-92233173D01*
X211827246Y-92375209D01*
X211827247Y-92375211D01*
X211879472Y-92453371D01*
X211900350Y-92520049D01*
X211881865Y-92587429D01*
X211829886Y-92634119D01*
X211800562Y-92643879D01*
X211772342Y-92649492D01*
X211772334Y-92649494D01*
X211630298Y-92708326D01*
X211630296Y-92708327D01*
X211502460Y-92793745D01*
X211502456Y-92793748D01*
X211393748Y-92902456D01*
X211393745Y-92902460D01*
X211308327Y-93030296D01*
X211308326Y-93030298D01*
X211249494Y-93172334D01*
X211249491Y-93172343D01*
X211219500Y-93323122D01*
X205966424Y-93323122D01*
X205957665Y-93319494D01*
X205957656Y-93319491D01*
X205806877Y-93289500D01*
X205806873Y-93289500D01*
X205653127Y-93289500D01*
X205653122Y-93289500D01*
X205502343Y-93319491D01*
X205502334Y-93319494D01*
X205360298Y-93378326D01*
X205360296Y-93378327D01*
X205232460Y-93463745D01*
X205232456Y-93463748D01*
X205123748Y-93572456D01*
X205123745Y-93572460D01*
X205038327Y-93700296D01*
X205038326Y-93700298D01*
X204979494Y-93842334D01*
X204979491Y-93842343D01*
X204949500Y-93993122D01*
X200426871Y-93993122D01*
X200398016Y-93923459D01*
X200398009Y-93923446D01*
X200299464Y-93775965D01*
X200299461Y-93775961D01*
X200174038Y-93650538D01*
X200174034Y-93650535D01*
X200026553Y-93551990D01*
X200026540Y-93551983D01*
X199862668Y-93484106D01*
X199862662Y-93484104D01*
X199846089Y-93480808D01*
X199784179Y-93448422D01*
X199755723Y-93406646D01*
X199711671Y-93300294D01*
X199626254Y-93172460D01*
X199626251Y-93172456D01*
X199517543Y-93063748D01*
X199517539Y-93063745D01*
X199389703Y-92978327D01*
X199389701Y-92978326D01*
X199247665Y-92919494D01*
X199247656Y-92919491D01*
X199096877Y-92889500D01*
X199096873Y-92889500D01*
X198943127Y-92889500D01*
X198943122Y-92889500D01*
X198792343Y-92919491D01*
X198792334Y-92919494D01*
X198650298Y-92978326D01*
X198650296Y-92978327D01*
X198522460Y-93063745D01*
X198522456Y-93063748D01*
X198413748Y-93172456D01*
X198413745Y-93172460D01*
X198328327Y-93300296D01*
X198328326Y-93300298D01*
X198269494Y-93442334D01*
X198269491Y-93442343D01*
X198239500Y-93593122D01*
X198239500Y-93746877D01*
X198269491Y-93897656D01*
X198269493Y-93897660D01*
X198269494Y-93897664D01*
X198301775Y-93975598D01*
X198309243Y-94045067D01*
X198277967Y-94107546D01*
X198217878Y-94143198D01*
X198163024Y-94144667D01*
X198151053Y-94142286D01*
X198007157Y-94142286D01*
X198007152Y-94142286D01*
X197866033Y-94170356D01*
X197866023Y-94170359D01*
X197733085Y-94225423D01*
X197733076Y-94225428D01*
X197613438Y-94305368D01*
X197613434Y-94305371D01*
X197511690Y-94407115D01*
X197511687Y-94407119D01*
X197431747Y-94526757D01*
X197431742Y-94526766D01*
X197376678Y-94659704D01*
X197376675Y-94659714D01*
X197348605Y-94800833D01*
X197348605Y-94866815D01*
X197328920Y-94933854D01*
X197276116Y-94979609D01*
X197224605Y-94990815D01*
X197158624Y-94990815D01*
X197017505Y-95018885D01*
X197017495Y-95018888D01*
X196884557Y-95073952D01*
X196884548Y-95073957D01*
X196764910Y-95153897D01*
X196764906Y-95153900D01*
X196663162Y-95255644D01*
X196663159Y-95255648D01*
X196583219Y-95375286D01*
X196583214Y-95375295D01*
X196528150Y-95508233D01*
X196528147Y-95508243D01*
X196500077Y-95649362D01*
X196500077Y-95715343D01*
X196480392Y-95782382D01*
X196427588Y-95828137D01*
X196376077Y-95839343D01*
X196310095Y-95839343D01*
X196168976Y-95867413D01*
X196168966Y-95867416D01*
X196036028Y-95922480D01*
X196036019Y-95922485D01*
X195916381Y-96002425D01*
X195916377Y-96002428D01*
X195814633Y-96104172D01*
X195814630Y-96104176D01*
X195734690Y-96223814D01*
X195734685Y-96223823D01*
X195679621Y-96356761D01*
X195679618Y-96356771D01*
X195651548Y-96497890D01*
X195650951Y-96503956D01*
X195648450Y-96503709D01*
X195631863Y-96560199D01*
X195579059Y-96605954D01*
X195538175Y-96614848D01*
X195538344Y-96616563D01*
X195532278Y-96617160D01*
X195391159Y-96645230D01*
X195391149Y-96645233D01*
X195258211Y-96700297D01*
X195258202Y-96700302D01*
X195138564Y-96780242D01*
X195138560Y-96780245D01*
X195036816Y-96881989D01*
X195036813Y-96881993D01*
X194956873Y-97001631D01*
X194956868Y-97001640D01*
X194901804Y-97134578D01*
X194901801Y-97134588D01*
X194873731Y-97275707D01*
X194873731Y-97354265D01*
X194854046Y-97421304D01*
X194801242Y-97467059D01*
X194773922Y-97475882D01*
X194684052Y-97493758D01*
X194684042Y-97493761D01*
X194551104Y-97548825D01*
X194551095Y-97548830D01*
X194431457Y-97628770D01*
X194431453Y-97628773D01*
X194329709Y-97730517D01*
X194329706Y-97730521D01*
X194249766Y-97850159D01*
X194249761Y-97850168D01*
X194194697Y-97983106D01*
X194194694Y-97983116D01*
X194166624Y-98124235D01*
X194166624Y-98268140D01*
X194194694Y-98409259D01*
X194194696Y-98409267D01*
X194201125Y-98424788D01*
X194249761Y-98542207D01*
X194249766Y-98542216D01*
X194275153Y-98580210D01*
X194296031Y-98646888D01*
X194277546Y-98714268D01*
X194225567Y-98760958D01*
X194208053Y-98767760D01*
X194202332Y-98769495D01*
X194060298Y-98828326D01*
X194060296Y-98828327D01*
X193932460Y-98913745D01*
X193932456Y-98913748D01*
X193823748Y-99022456D01*
X193823745Y-99022460D01*
X193738327Y-99150296D01*
X193738326Y-99150298D01*
X193679494Y-99292334D01*
X193679491Y-99292343D01*
X193649500Y-99443122D01*
X164200500Y-99443122D01*
X164200500Y-95923122D01*
X172619500Y-95923122D01*
X172619500Y-96076877D01*
X172649491Y-96227656D01*
X172649494Y-96227665D01*
X172708326Y-96369701D01*
X172708327Y-96369703D01*
X172793745Y-96497539D01*
X172793748Y-96497543D01*
X172902456Y-96606251D01*
X172902460Y-96606254D01*
X173030294Y-96691671D01*
X173030295Y-96691671D01*
X173030296Y-96691672D01*
X173030298Y-96691673D01*
X173124988Y-96730894D01*
X173172336Y-96750506D01*
X173172338Y-96750506D01*
X173172343Y-96750508D01*
X173323122Y-96780499D01*
X173323126Y-96780500D01*
X173323127Y-96780500D01*
X173476874Y-96780500D01*
X173476875Y-96780499D01*
X173565878Y-96762796D01*
X173627656Y-96750508D01*
X173627659Y-96750506D01*
X173627664Y-96750506D01*
X173769706Y-96691671D01*
X173897540Y-96606254D01*
X174006254Y-96497540D01*
X174091671Y-96369706D01*
X174150506Y-96227664D01*
X174151271Y-96223821D01*
X174180499Y-96076877D01*
X174180500Y-96076874D01*
X174180500Y-95923126D01*
X174180499Y-95923125D01*
X174160608Y-95823122D01*
X175219500Y-95823122D01*
X175219500Y-95976877D01*
X175249491Y-96127656D01*
X175249494Y-96127665D01*
X175308326Y-96269701D01*
X175308327Y-96269703D01*
X175393745Y-96397539D01*
X175393748Y-96397543D01*
X175502456Y-96506251D01*
X175502460Y-96506254D01*
X175630294Y-96591671D01*
X175630295Y-96591671D01*
X175630296Y-96591672D01*
X175630298Y-96591673D01*
X175724988Y-96630894D01*
X175772336Y-96650506D01*
X175772338Y-96650506D01*
X175772343Y-96650508D01*
X175923122Y-96680499D01*
X175923126Y-96680500D01*
X175923127Y-96680500D01*
X176076874Y-96680500D01*
X176076875Y-96680499D01*
X176127136Y-96670502D01*
X176227656Y-96650508D01*
X176227659Y-96650506D01*
X176227664Y-96650506D01*
X176369706Y-96591671D01*
X176497540Y-96506254D01*
X176606254Y-96397540D01*
X176691671Y-96269706D01*
X176750506Y-96127664D01*
X176752640Y-96116939D01*
X176780499Y-95976877D01*
X176780500Y-95976874D01*
X176780500Y-95823126D01*
X176780499Y-95823122D01*
X176750508Y-95672343D01*
X176750505Y-95672334D01*
X176746046Y-95661570D01*
X176721905Y-95603286D01*
X176691673Y-95530298D01*
X176691672Y-95530296D01*
X176681894Y-95515663D01*
X176606254Y-95402460D01*
X176606251Y-95402456D01*
X176497543Y-95293748D01*
X176497539Y-95293745D01*
X176369703Y-95208327D01*
X176369701Y-95208326D01*
X176227665Y-95149494D01*
X176227656Y-95149491D01*
X176076877Y-95119500D01*
X176076873Y-95119500D01*
X175923127Y-95119500D01*
X175923122Y-95119500D01*
X175772343Y-95149491D01*
X175772334Y-95149494D01*
X175630298Y-95208326D01*
X175630296Y-95208327D01*
X175502460Y-95293745D01*
X175502456Y-95293748D01*
X175393748Y-95402456D01*
X175393745Y-95402460D01*
X175308327Y-95530296D01*
X175308326Y-95530298D01*
X175249494Y-95672334D01*
X175249491Y-95672343D01*
X175219500Y-95823122D01*
X174160608Y-95823122D01*
X174150506Y-95772336D01*
X174109085Y-95672336D01*
X174091673Y-95630298D01*
X174091672Y-95630296D01*
X174073624Y-95603286D01*
X174006254Y-95502460D01*
X174006251Y-95502456D01*
X173897543Y-95393748D01*
X173897539Y-95393745D01*
X173769703Y-95308327D01*
X173769701Y-95308326D01*
X173627665Y-95249494D01*
X173627656Y-95249491D01*
X173476877Y-95219500D01*
X173476873Y-95219500D01*
X173323127Y-95219500D01*
X173323122Y-95219500D01*
X173172343Y-95249491D01*
X173172334Y-95249494D01*
X173030298Y-95308326D01*
X173030296Y-95308327D01*
X172902460Y-95393745D01*
X172902456Y-95393748D01*
X172793748Y-95502456D01*
X172793745Y-95502460D01*
X172708327Y-95630296D01*
X172708326Y-95630298D01*
X172649494Y-95772334D01*
X172649491Y-95772343D01*
X172619500Y-95923122D01*
X164200500Y-95923122D01*
X164200500Y-94093122D01*
X190449500Y-94093122D01*
X190449500Y-94246877D01*
X190479491Y-94397656D01*
X190479494Y-94397665D01*
X190538326Y-94539701D01*
X190538327Y-94539703D01*
X190623745Y-94667539D01*
X190623748Y-94667543D01*
X190732456Y-94776251D01*
X190732460Y-94776254D01*
X190860294Y-94861671D01*
X190860295Y-94861671D01*
X190860296Y-94861672D01*
X190860298Y-94861673D01*
X190954988Y-94900894D01*
X191002336Y-94920506D01*
X191002338Y-94920506D01*
X191002343Y-94920508D01*
X191153122Y-94950499D01*
X191153126Y-94950500D01*
X191153127Y-94950500D01*
X191306874Y-94950500D01*
X191306875Y-94950499D01*
X191390559Y-94933854D01*
X191457656Y-94920508D01*
X191457659Y-94920506D01*
X191457664Y-94920506D01*
X191599706Y-94861671D01*
X191727540Y-94776254D01*
X191836254Y-94667540D01*
X191921671Y-94539706D01*
X191980506Y-94397664D01*
X191983229Y-94383978D01*
X192004656Y-94276254D01*
X192010500Y-94246873D01*
X192010500Y-94093127D01*
X192005800Y-94069500D01*
X191980508Y-93942343D01*
X191980505Y-93942334D01*
X191972684Y-93923453D01*
X191939085Y-93842336D01*
X191921673Y-93800298D01*
X191921672Y-93800296D01*
X191916705Y-93792863D01*
X191836254Y-93672460D01*
X191836251Y-93672456D01*
X191727543Y-93563748D01*
X191727539Y-93563745D01*
X191599703Y-93478327D01*
X191599701Y-93478326D01*
X191457665Y-93419494D01*
X191457656Y-93419491D01*
X191306877Y-93389500D01*
X191306873Y-93389500D01*
X191153127Y-93389500D01*
X191153122Y-93389500D01*
X191002343Y-93419491D01*
X191002334Y-93419494D01*
X190860298Y-93478326D01*
X190860296Y-93478327D01*
X190732460Y-93563745D01*
X190732456Y-93563748D01*
X190623748Y-93672456D01*
X190623745Y-93672460D01*
X190538327Y-93800296D01*
X190538326Y-93800298D01*
X190479494Y-93942334D01*
X190479491Y-93942343D01*
X190449500Y-94093122D01*
X164200500Y-94093122D01*
X164200500Y-91022070D01*
X170544500Y-91022070D01*
X170544500Y-91277930D01*
X170560746Y-91380499D01*
X170584526Y-91530640D01*
X170663588Y-91773972D01*
X170663589Y-91773975D01*
X170723641Y-91891832D01*
X170765485Y-91973955D01*
X170779750Y-92001950D01*
X170930132Y-92208935D01*
X170930136Y-92208940D01*
X171111059Y-92389863D01*
X171111064Y-92389867D01*
X171266846Y-92503048D01*
X171318053Y-92540252D01*
X171410643Y-92587429D01*
X171546024Y-92656410D01*
X171546027Y-92656411D01*
X171620056Y-92680464D01*
X171789361Y-92735474D01*
X172042070Y-92775500D01*
X172042071Y-92775500D01*
X172297929Y-92775500D01*
X172297930Y-92775500D01*
X172550639Y-92735474D01*
X172793975Y-92656410D01*
X173021947Y-92540252D01*
X173228942Y-92389862D01*
X173409862Y-92208942D01*
X173560252Y-92001947D01*
X173676410Y-91773975D01*
X173755474Y-91530639D01*
X173795500Y-91277930D01*
X173795500Y-91022070D01*
X175624500Y-91022070D01*
X175624500Y-91277930D01*
X175640746Y-91380499D01*
X175664526Y-91530640D01*
X175743588Y-91773972D01*
X175743589Y-91773975D01*
X175803641Y-91891832D01*
X175845485Y-91973955D01*
X175859750Y-92001950D01*
X176010132Y-92208935D01*
X176010136Y-92208940D01*
X176191059Y-92389863D01*
X176191064Y-92389867D01*
X176346846Y-92503048D01*
X176398053Y-92540252D01*
X176490643Y-92587429D01*
X176626024Y-92656410D01*
X176626027Y-92656411D01*
X176700056Y-92680464D01*
X176869361Y-92735474D01*
X177122070Y-92775500D01*
X177122071Y-92775500D01*
X177377929Y-92775500D01*
X177377930Y-92775500D01*
X177630639Y-92735474D01*
X177873975Y-92656410D01*
X178101947Y-92540252D01*
X178308942Y-92389862D01*
X178322882Y-92375922D01*
X186489500Y-92375922D01*
X186489500Y-92529677D01*
X186519491Y-92680456D01*
X186519494Y-92680465D01*
X186578326Y-92822501D01*
X186578327Y-92822503D01*
X186663745Y-92950339D01*
X186663748Y-92950343D01*
X186772456Y-93059051D01*
X186772459Y-93059053D01*
X186772460Y-93059054D01*
X186900294Y-93144471D01*
X186900295Y-93144471D01*
X186900296Y-93144472D01*
X186900298Y-93144473D01*
X186967866Y-93172460D01*
X187042336Y-93203306D01*
X187042338Y-93203306D01*
X187042343Y-93203308D01*
X187193122Y-93233299D01*
X187193126Y-93233300D01*
X187193127Y-93233300D01*
X187346874Y-93233300D01*
X187346875Y-93233299D01*
X187397136Y-93223302D01*
X187497656Y-93203308D01*
X187497659Y-93203306D01*
X187497664Y-93203306D01*
X187639706Y-93144471D01*
X187767540Y-93059054D01*
X187876254Y-92950340D01*
X187961671Y-92822506D01*
X188020506Y-92680464D01*
X188025291Y-92656411D01*
X188050499Y-92529677D01*
X188050500Y-92529674D01*
X188050500Y-92375926D01*
X188050499Y-92375922D01*
X188020508Y-92225143D01*
X188020505Y-92225134D01*
X187961673Y-92083098D01*
X187961672Y-92083096D01*
X187961194Y-92082381D01*
X187876254Y-91955260D01*
X187876253Y-91955259D01*
X187876251Y-91955256D01*
X187767543Y-91846548D01*
X187767539Y-91846545D01*
X187639703Y-91761127D01*
X187639701Y-91761126D01*
X187497665Y-91702294D01*
X187497656Y-91702291D01*
X187346877Y-91672300D01*
X187346873Y-91672300D01*
X187193127Y-91672300D01*
X187193122Y-91672300D01*
X187042343Y-91702291D01*
X187042334Y-91702294D01*
X186900298Y-91761126D01*
X186900296Y-91761127D01*
X186772460Y-91846545D01*
X186772456Y-91846548D01*
X186663748Y-91955256D01*
X186663745Y-91955260D01*
X186578327Y-92083096D01*
X186578326Y-92083098D01*
X186519494Y-92225134D01*
X186519491Y-92225143D01*
X186489500Y-92375922D01*
X178322882Y-92375922D01*
X178489862Y-92208942D01*
X178640252Y-92001947D01*
X178756410Y-91773975D01*
X178835474Y-91530639D01*
X178875500Y-91277930D01*
X178875500Y-91263522D01*
X199799500Y-91263522D01*
X199799500Y-91417277D01*
X199829491Y-91568056D01*
X199829494Y-91568065D01*
X199888326Y-91710101D01*
X199888327Y-91710103D01*
X199973745Y-91837939D01*
X199973748Y-91837943D01*
X200082456Y-91946651D01*
X200082460Y-91946654D01*
X200210294Y-92032071D01*
X200210295Y-92032071D01*
X200210296Y-92032072D01*
X200210298Y-92032073D01*
X200304988Y-92071294D01*
X200352336Y-92090906D01*
X200352338Y-92090906D01*
X200352343Y-92090908D01*
X200503122Y-92120899D01*
X200503126Y-92120900D01*
X200559133Y-92120900D01*
X200626172Y-92140585D01*
X200671927Y-92193389D01*
X200681871Y-92262547D01*
X200680750Y-92269091D01*
X200659500Y-92375922D01*
X200659500Y-92529677D01*
X200689491Y-92680456D01*
X200689494Y-92680465D01*
X200748326Y-92822501D01*
X200748327Y-92822503D01*
X200833745Y-92950339D01*
X200833748Y-92950343D01*
X200942456Y-93059051D01*
X200942459Y-93059053D01*
X200942460Y-93059054D01*
X201070294Y-93144471D01*
X201070295Y-93144471D01*
X201070296Y-93144472D01*
X201070298Y-93144473D01*
X201137866Y-93172460D01*
X201212336Y-93203306D01*
X201212338Y-93203306D01*
X201212343Y-93203308D01*
X201363122Y-93233299D01*
X201363126Y-93233300D01*
X201363127Y-93233300D01*
X201516874Y-93233300D01*
X201516875Y-93233299D01*
X201567136Y-93223302D01*
X201667656Y-93203308D01*
X201667659Y-93203306D01*
X201667664Y-93203306D01*
X201809706Y-93144471D01*
X201937540Y-93059054D01*
X201937544Y-93059050D01*
X201966441Y-93030154D01*
X202027764Y-92996669D01*
X202097456Y-93001653D01*
X202141803Y-93030154D01*
X202170699Y-93059050D01*
X202170703Y-93059053D01*
X202298537Y-93144470D01*
X202298538Y-93144470D01*
X202298539Y-93144471D01*
X202298541Y-93144472D01*
X202383224Y-93179548D01*
X202440579Y-93203305D01*
X202440581Y-93203305D01*
X202440586Y-93203307D01*
X202552658Y-93225599D01*
X202614569Y-93257983D01*
X202634789Y-93284744D01*
X202634945Y-93284641D01*
X202636732Y-93287315D01*
X202637825Y-93288762D01*
X202638327Y-93289701D01*
X202638329Y-93289706D01*
X202669618Y-93336533D01*
X202723745Y-93417539D01*
X202723748Y-93417543D01*
X202832456Y-93526251D01*
X202832460Y-93526254D01*
X202960294Y-93611671D01*
X202960295Y-93611671D01*
X202960296Y-93611672D01*
X202960298Y-93611673D01*
X202998905Y-93627664D01*
X203102336Y-93670506D01*
X203102338Y-93670506D01*
X203102343Y-93670508D01*
X203253122Y-93700499D01*
X203253126Y-93700500D01*
X203253127Y-93700500D01*
X203406874Y-93700500D01*
X203406875Y-93700499D01*
X203457136Y-93690502D01*
X203557656Y-93670508D01*
X203557659Y-93670506D01*
X203557664Y-93670506D01*
X203699706Y-93611671D01*
X203827540Y-93526254D01*
X203936254Y-93417540D01*
X204021671Y-93289706D01*
X204080506Y-93147664D01*
X204081142Y-93144471D01*
X204107482Y-93012044D01*
X204110500Y-92996873D01*
X204110500Y-92843127D01*
X204100678Y-92793746D01*
X204080508Y-92692343D01*
X204080505Y-92692334D01*
X204075588Y-92680464D01*
X204044482Y-92605366D01*
X204021673Y-92550298D01*
X204021672Y-92550296D01*
X204001461Y-92520049D01*
X203936254Y-92422460D01*
X203936251Y-92422456D01*
X203827543Y-92313748D01*
X203827539Y-92313745D01*
X203699703Y-92228327D01*
X203699701Y-92228326D01*
X203557665Y-92169494D01*
X203557657Y-92169492D01*
X203445583Y-92147199D01*
X203383672Y-92114814D01*
X203363454Y-92088053D01*
X203363298Y-92088158D01*
X203361496Y-92085461D01*
X203360414Y-92084029D01*
X203359914Y-92083093D01*
X203274497Y-91955259D01*
X203274494Y-91955255D01*
X203165786Y-91846547D01*
X203165782Y-91846544D01*
X203037946Y-91761126D01*
X203037944Y-91761125D01*
X203001751Y-91746134D01*
X202995988Y-91741490D01*
X202988773Y-91739851D01*
X202969156Y-91719868D01*
X202947347Y-91702294D01*
X202945009Y-91695271D01*
X202939826Y-91689991D01*
X202934126Y-91662573D01*
X202925282Y-91636000D01*
X202926760Y-91627136D01*
X202925606Y-91621584D01*
X202930416Y-91605214D01*
X202933427Y-91587167D01*
X202938039Y-91575140D01*
X202941671Y-91569706D01*
X202996916Y-91436332D01*
X204157672Y-91436332D01*
X204157672Y-91580237D01*
X204184767Y-91716453D01*
X204185744Y-91721364D01*
X204194546Y-91742613D01*
X204240809Y-91854304D01*
X204240814Y-91854313D01*
X204320754Y-91973951D01*
X204320757Y-91973955D01*
X204422501Y-92075699D01*
X204422505Y-92075702D01*
X204542143Y-92155642D01*
X204542149Y-92155645D01*
X204542150Y-92155646D01*
X204675093Y-92210713D01*
X204787965Y-92233164D01*
X204816219Y-92238784D01*
X204816223Y-92238785D01*
X204816224Y-92238785D01*
X204960121Y-92238785D01*
X204960122Y-92238784D01*
X205101251Y-92210713D01*
X205234194Y-92155646D01*
X205353839Y-92075702D01*
X205455589Y-91973952D01*
X205535533Y-91854307D01*
X205542313Y-91837940D01*
X205545194Y-91830985D01*
X206314293Y-91830985D01*
X206314293Y-91974890D01*
X206342363Y-92116009D01*
X206342366Y-92116019D01*
X206397430Y-92248957D01*
X206397435Y-92248966D01*
X206477375Y-92368604D01*
X206477378Y-92368608D01*
X206579122Y-92470352D01*
X206579126Y-92470355D01*
X206698764Y-92550295D01*
X206698770Y-92550298D01*
X206698771Y-92550299D01*
X206831714Y-92605366D01*
X206961790Y-92631239D01*
X206972840Y-92633437D01*
X206972844Y-92633438D01*
X206972845Y-92633438D01*
X207116742Y-92633438D01*
X207116743Y-92633437D01*
X207257872Y-92605366D01*
X207390815Y-92550299D01*
X207510460Y-92470355D01*
X207612210Y-92368605D01*
X207692154Y-92248960D01*
X207747221Y-92116017D01*
X207775293Y-91974886D01*
X207775293Y-91830990D01*
X207747221Y-91689859D01*
X207692154Y-91556916D01*
X207692153Y-91556915D01*
X207692150Y-91556909D01*
X207612210Y-91437271D01*
X207612207Y-91437267D01*
X207510463Y-91335523D01*
X207510459Y-91335520D01*
X207390821Y-91255580D01*
X207390812Y-91255575D01*
X207257874Y-91200511D01*
X207257875Y-91200511D01*
X207257872Y-91200510D01*
X207257868Y-91200509D01*
X207257864Y-91200508D01*
X207116745Y-91172438D01*
X207116741Y-91172438D01*
X206972845Y-91172438D01*
X206972840Y-91172438D01*
X206831721Y-91200508D01*
X206831711Y-91200511D01*
X206698773Y-91255575D01*
X206698764Y-91255580D01*
X206579126Y-91335520D01*
X206579122Y-91335523D01*
X206477378Y-91437267D01*
X206477375Y-91437271D01*
X206397435Y-91556909D01*
X206397430Y-91556918D01*
X206342366Y-91689856D01*
X206342363Y-91689866D01*
X206314293Y-91830985D01*
X205545194Y-91830985D01*
X205567370Y-91777446D01*
X205567370Y-91777445D01*
X205590600Y-91721364D01*
X205618672Y-91580233D01*
X205618672Y-91436337D01*
X205590600Y-91295206D01*
X205535563Y-91162336D01*
X205535534Y-91162265D01*
X205535529Y-91162256D01*
X205455589Y-91042618D01*
X205455586Y-91042614D01*
X205353842Y-90940870D01*
X205353838Y-90940867D01*
X205234200Y-90860927D01*
X205234191Y-90860922D01*
X205101253Y-90805858D01*
X205101254Y-90805858D01*
X205101251Y-90805857D01*
X205101247Y-90805856D01*
X205101243Y-90805855D01*
X204960124Y-90777785D01*
X204960120Y-90777785D01*
X204816224Y-90777785D01*
X204816219Y-90777785D01*
X204675100Y-90805855D01*
X204675090Y-90805858D01*
X204542152Y-90860922D01*
X204542143Y-90860927D01*
X204422505Y-90940867D01*
X204422501Y-90940870D01*
X204320757Y-91042614D01*
X204320754Y-91042618D01*
X204240814Y-91162256D01*
X204240809Y-91162265D01*
X204185745Y-91295203D01*
X204185742Y-91295213D01*
X204157672Y-91436332D01*
X202996916Y-91436332D01*
X203000506Y-91427664D01*
X203009888Y-91380500D01*
X203027556Y-91291672D01*
X203030500Y-91276873D01*
X203030500Y-91123127D01*
X203025411Y-91097543D01*
X203000508Y-90972343D01*
X203000505Y-90972334D01*
X202999827Y-90970698D01*
X202941671Y-90830294D01*
X202936810Y-90823019D01*
X202936211Y-90821106D01*
X202934713Y-90819773D01*
X202925818Y-90787917D01*
X202915932Y-90756345D01*
X202916292Y-90753799D01*
X202915923Y-90752477D01*
X202917701Y-90743839D01*
X202921411Y-90717613D01*
X202923122Y-90712060D01*
X202970506Y-90597664D01*
X202985333Y-90523122D01*
X207519500Y-90523122D01*
X207519500Y-90676877D01*
X207549491Y-90827656D01*
X207549494Y-90827665D01*
X207608326Y-90969701D01*
X207608327Y-90969703D01*
X207693745Y-91097539D01*
X207693748Y-91097543D01*
X207802456Y-91206251D01*
X207802460Y-91206254D01*
X207930294Y-91291671D01*
X207930295Y-91291671D01*
X207930296Y-91291672D01*
X207930298Y-91291673D01*
X207982094Y-91313127D01*
X208072336Y-91350506D01*
X208072338Y-91350506D01*
X208072343Y-91350508D01*
X208223122Y-91380499D01*
X208223126Y-91380500D01*
X208223127Y-91380500D01*
X208376874Y-91380500D01*
X208376875Y-91380499D01*
X208427136Y-91370502D01*
X208527656Y-91350508D01*
X208527659Y-91350506D01*
X208527664Y-91350506D01*
X208669706Y-91291671D01*
X208797540Y-91206254D01*
X208906254Y-91097540D01*
X208991671Y-90969706D01*
X209050506Y-90827664D01*
X209051430Y-90823022D01*
X209076232Y-90698329D01*
X209080500Y-90676873D01*
X209080500Y-90523127D01*
X209072910Y-90484969D01*
X209079137Y-90415377D01*
X209122000Y-90360200D01*
X209187889Y-90336955D01*
X209241975Y-90346214D01*
X209252336Y-90350506D01*
X209252340Y-90350506D01*
X209252343Y-90350508D01*
X209403122Y-90380499D01*
X209403126Y-90380500D01*
X209403127Y-90380500D01*
X209556874Y-90380500D01*
X209556875Y-90380499D01*
X209607136Y-90370502D01*
X209707656Y-90350508D01*
X209707659Y-90350506D01*
X209707664Y-90350506D01*
X209849706Y-90291671D01*
X209977540Y-90206254D01*
X210086254Y-90097540D01*
X210171671Y-89969706D01*
X210230506Y-89827664D01*
X210235520Y-89802460D01*
X210260499Y-89676877D01*
X210260500Y-89676874D01*
X210260500Y-89523126D01*
X210260499Y-89523122D01*
X210230508Y-89372343D01*
X210230505Y-89372334D01*
X210171673Y-89230298D01*
X210171672Y-89230296D01*
X210166415Y-89222429D01*
X210086254Y-89102460D01*
X210086251Y-89102456D01*
X209977543Y-88993748D01*
X209977539Y-88993745D01*
X209849703Y-88908327D01*
X209849701Y-88908326D01*
X209707665Y-88849494D01*
X209707656Y-88849491D01*
X209556877Y-88819500D01*
X209556873Y-88819500D01*
X209403127Y-88819500D01*
X209403122Y-88819500D01*
X209252343Y-88849491D01*
X209252334Y-88849494D01*
X209110298Y-88908326D01*
X209110296Y-88908327D01*
X208982460Y-88993745D01*
X208982456Y-88993748D01*
X208873748Y-89102456D01*
X208873745Y-89102460D01*
X208788327Y-89230296D01*
X208788326Y-89230298D01*
X208729494Y-89372334D01*
X208729491Y-89372343D01*
X208699500Y-89523122D01*
X208699500Y-89523126D01*
X208699500Y-89523127D01*
X208699500Y-89676873D01*
X208699790Y-89678329D01*
X208707090Y-89715032D01*
X208700861Y-89784624D01*
X208657997Y-89839801D01*
X208592107Y-89863044D01*
X208538024Y-89853785D01*
X208527664Y-89849494D01*
X208527656Y-89849491D01*
X208376877Y-89819500D01*
X208376873Y-89819500D01*
X208223127Y-89819500D01*
X208223122Y-89819500D01*
X208072343Y-89849491D01*
X208072334Y-89849494D01*
X207930298Y-89908326D01*
X207930296Y-89908327D01*
X207802460Y-89993745D01*
X207802456Y-89993748D01*
X207693748Y-90102456D01*
X207693745Y-90102460D01*
X207608327Y-90230296D01*
X207608326Y-90230298D01*
X207549494Y-90372334D01*
X207549491Y-90372343D01*
X207519500Y-90523122D01*
X202985333Y-90523122D01*
X203000500Y-90446873D01*
X203000500Y-90293127D01*
X202988002Y-90230294D01*
X202970508Y-90142343D01*
X202970505Y-90142334D01*
X202911673Y-90000298D01*
X202911672Y-90000296D01*
X202907295Y-89993746D01*
X202826254Y-89872460D01*
X202826251Y-89872456D01*
X202717543Y-89763748D01*
X202717539Y-89763745D01*
X202589703Y-89678327D01*
X202589701Y-89678326D01*
X202447665Y-89619494D01*
X202447656Y-89619491D01*
X202296877Y-89589500D01*
X202296873Y-89589500D01*
X202143127Y-89589500D01*
X202143122Y-89589500D01*
X201992343Y-89619491D01*
X201992334Y-89619494D01*
X201850298Y-89678326D01*
X201850296Y-89678327D01*
X201722460Y-89763745D01*
X201722456Y-89763748D01*
X201613748Y-89872456D01*
X201613745Y-89872460D01*
X201528327Y-90000296D01*
X201528326Y-90000298D01*
X201469494Y-90142334D01*
X201469491Y-90142343D01*
X201439500Y-90293122D01*
X201439500Y-90378511D01*
X201419815Y-90445550D01*
X201367011Y-90491305D01*
X201339692Y-90500128D01*
X201242342Y-90519492D01*
X201242334Y-90519494D01*
X201100298Y-90578326D01*
X201032734Y-90623471D01*
X200966056Y-90644348D01*
X200916393Y-90634930D01*
X200870865Y-90616072D01*
X200807664Y-90589894D01*
X200807660Y-90589893D01*
X200807656Y-90589891D01*
X200656877Y-90559900D01*
X200656873Y-90559900D01*
X200503127Y-90559900D01*
X200503122Y-90559900D01*
X200352343Y-90589891D01*
X200352334Y-90589894D01*
X200210298Y-90648726D01*
X200210296Y-90648727D01*
X200082460Y-90734145D01*
X200082456Y-90734148D01*
X199973748Y-90842856D01*
X199973745Y-90842860D01*
X199888327Y-90970696D01*
X199888326Y-90970698D01*
X199829494Y-91112734D01*
X199829491Y-91112743D01*
X199799500Y-91263522D01*
X178875500Y-91263522D01*
X178875500Y-91022070D01*
X178835474Y-90769361D01*
X178788072Y-90623471D01*
X178756411Y-90526027D01*
X178756410Y-90526024D01*
X178700032Y-90415377D01*
X178640252Y-90298053D01*
X178591024Y-90230296D01*
X178489867Y-90091064D01*
X178489863Y-90091059D01*
X178308940Y-89910136D01*
X178308935Y-89910132D01*
X178101950Y-89759750D01*
X178101949Y-89759749D01*
X178101947Y-89759748D01*
X178014187Y-89715032D01*
X177873975Y-89643589D01*
X177873972Y-89643588D01*
X177630640Y-89564526D01*
X177504284Y-89544513D01*
X177377930Y-89524500D01*
X177122070Y-89524500D01*
X177037833Y-89537842D01*
X176869359Y-89564526D01*
X176626027Y-89643588D01*
X176626024Y-89643589D01*
X176398049Y-89759750D01*
X176191064Y-89910132D01*
X176191059Y-89910136D01*
X176010136Y-90091059D01*
X176010132Y-90091064D01*
X175859750Y-90298049D01*
X175743589Y-90526024D01*
X175743588Y-90526027D01*
X175664526Y-90769359D01*
X175624781Y-91020294D01*
X175624500Y-91022070D01*
X173795500Y-91022070D01*
X173755474Y-90769361D01*
X173708072Y-90623471D01*
X173676411Y-90526027D01*
X173676410Y-90526024D01*
X173620032Y-90415377D01*
X173560252Y-90298053D01*
X173511024Y-90230296D01*
X173409867Y-90091064D01*
X173409863Y-90091059D01*
X173228940Y-89910136D01*
X173228935Y-89910132D01*
X173021950Y-89759750D01*
X173021949Y-89759749D01*
X173021947Y-89759748D01*
X172934187Y-89715032D01*
X172793975Y-89643589D01*
X172793972Y-89643588D01*
X172550640Y-89564526D01*
X172424284Y-89544513D01*
X172297930Y-89524500D01*
X172042070Y-89524500D01*
X171957833Y-89537842D01*
X171789359Y-89564526D01*
X171546027Y-89643588D01*
X171546024Y-89643589D01*
X171318049Y-89759750D01*
X171111064Y-89910132D01*
X171111059Y-89910136D01*
X170930136Y-90091059D01*
X170930132Y-90091064D01*
X170779750Y-90298049D01*
X170663589Y-90526024D01*
X170663588Y-90526027D01*
X170584526Y-90769359D01*
X170544781Y-91020294D01*
X170544500Y-91022070D01*
X164200500Y-91022070D01*
X164200500Y-86881995D01*
X165199500Y-86881995D01*
X165199500Y-87118004D01*
X165199501Y-87118020D01*
X165227447Y-87330297D01*
X165230307Y-87352014D01*
X165255602Y-87446416D01*
X165291394Y-87579993D01*
X165381714Y-87798045D01*
X165381719Y-87798056D01*
X165436968Y-87893748D01*
X165499727Y-88002450D01*
X165499729Y-88002453D01*
X165499730Y-88002454D01*
X165643406Y-88189697D01*
X165643412Y-88189704D01*
X165810295Y-88356587D01*
X165810302Y-88356593D01*
X165849529Y-88386693D01*
X165997550Y-88500273D01*
X166128918Y-88576118D01*
X166201943Y-88618280D01*
X166201948Y-88618282D01*
X166201951Y-88618284D01*
X166420007Y-88708606D01*
X166647986Y-88769693D01*
X166881989Y-88800500D01*
X166881996Y-88800500D01*
X167118004Y-88800500D01*
X167118011Y-88800500D01*
X167352014Y-88769693D01*
X167579993Y-88708606D01*
X167798049Y-88618284D01*
X168002450Y-88500273D01*
X168015915Y-88489941D01*
X173184500Y-88489941D01*
X173184500Y-88730059D01*
X173206618Y-88869706D01*
X173222063Y-88967222D01*
X173296265Y-89195593D01*
X173386325Y-89372343D01*
X173405276Y-89409536D01*
X173546414Y-89603796D01*
X173716204Y-89773586D01*
X173910464Y-89914724D01*
X173941022Y-89930294D01*
X174124406Y-90023734D01*
X174124408Y-90023734D01*
X174124411Y-90023736D01*
X174352778Y-90097937D01*
X174589941Y-90135500D01*
X174589942Y-90135500D01*
X174830058Y-90135500D01*
X174830059Y-90135500D01*
X175067222Y-90097937D01*
X175295589Y-90023736D01*
X175509536Y-89914724D01*
X175703796Y-89773586D01*
X175873586Y-89603796D01*
X176014724Y-89409536D01*
X176123736Y-89195589D01*
X176197937Y-88967222D01*
X176235500Y-88730059D01*
X176235500Y-88489941D01*
X176197937Y-88252778D01*
X176123736Y-88024411D01*
X176123734Y-88024408D01*
X176123734Y-88024406D01*
X176066226Y-87911543D01*
X176014724Y-87810464D01*
X175873586Y-87616204D01*
X175703796Y-87446414D01*
X175509536Y-87305276D01*
X175295593Y-87196265D01*
X175067222Y-87122063D01*
X174830059Y-87084500D01*
X174589941Y-87084500D01*
X174531552Y-87093748D01*
X174352777Y-87122063D01*
X174124406Y-87196265D01*
X173910463Y-87305276D01*
X173716201Y-87446416D01*
X173546416Y-87616201D01*
X173405276Y-87810463D01*
X173296265Y-88024406D01*
X173222063Y-88252777D01*
X173192216Y-88441222D01*
X173184500Y-88489941D01*
X168015915Y-88489941D01*
X168157833Y-88381044D01*
X168165750Y-88374968D01*
X168189699Y-88356592D01*
X168356592Y-88189699D01*
X168500273Y-88002450D01*
X168618284Y-87798049D01*
X168708606Y-87579993D01*
X168769693Y-87352014D01*
X168800500Y-87118011D01*
X168800500Y-86881989D01*
X168769693Y-86647986D01*
X168708606Y-86420007D01*
X168618284Y-86201951D01*
X168618282Y-86201948D01*
X168618280Y-86201943D01*
X168563417Y-86106919D01*
X168500273Y-85997550D01*
X168356592Y-85810301D01*
X168356587Y-85810295D01*
X168189704Y-85643412D01*
X168189697Y-85643406D01*
X168002454Y-85499730D01*
X168002453Y-85499729D01*
X168002450Y-85499727D01*
X167909439Y-85446027D01*
X167798056Y-85381719D01*
X167798045Y-85381714D01*
X167579993Y-85291394D01*
X167352010Y-85230306D01*
X167118020Y-85199501D01*
X167118017Y-85199500D01*
X167118011Y-85199500D01*
X166881989Y-85199500D01*
X166881983Y-85199500D01*
X166881979Y-85199501D01*
X166647989Y-85230306D01*
X166420006Y-85291394D01*
X166201954Y-85381714D01*
X166201943Y-85381719D01*
X165997545Y-85499730D01*
X165810302Y-85643406D01*
X165810295Y-85643412D01*
X165643412Y-85810295D01*
X165643406Y-85810302D01*
X165499730Y-85997545D01*
X165381719Y-86201943D01*
X165381714Y-86201954D01*
X165291394Y-86420006D01*
X165230306Y-86647989D01*
X165199501Y-86881979D01*
X165199500Y-86881995D01*
X164200500Y-86881995D01*
X164200500Y-84624500D01*
X164220185Y-84557461D01*
X164272989Y-84511706D01*
X164324500Y-84500500D01*
X171183133Y-84500500D01*
X171250172Y-84520185D01*
G37*
%TD.AperFunction*%
%TD*%
M02*
