%TF.GenerationSoftware,KiCad,Pcbnew,9.0.3*%
%TF.CreationDate,2026-04-21T00:18:48-07:00*%
%TF.ProjectId,proves_radio_stick_V1,70726f76-6573-45f7-9261-64696f5f7374,rev?*%
%TF.SameCoordinates,Original*%
%TF.FileFunction,Copper,L2,Inr*%
%TF.FilePolarity,Positive*%
%FSLAX46Y46*%
G04 Gerber Fmt 4.6, Leading zero omitted, Abs format (unit mm)*
G04 Created by KiCad (PCBNEW 9.0.3) date 2026-04-21 00:18:48*
%MOMM*%
%LPD*%
G01*
G04 APERTURE LIST*
G04 Aperture macros list*
%AMRoundRect*
0 Rectangle with rounded corners*
0 $1 Rounding radius*
0 $2 $3 $4 $5 $6 $7 $8 $9 X,Y pos of 4 corners*
0 Add a 4 corners polygon primitive as box body*
4,1,4,$2,$3,$4,$5,$6,$7,$8,$9,$2,$3,0*
0 Add four circle primitives for the rounded corners*
1,1,$1+$1,$2,$3*
1,1,$1+$1,$4,$5*
1,1,$1+$1,$6,$7*
1,1,$1+$1,$8,$9*
0 Add four rect primitives between the rounded corners*
20,1,$1+$1,$2,$3,$4,$5,0*
20,1,$1+$1,$4,$5,$6,$7,0*
20,1,$1+$1,$6,$7,$8,$9,0*
20,1,$1+$1,$8,$9,$2,$3,0*%
G04 Aperture macros list end*
%TA.AperFunction,ComponentPad*%
%ADD10C,2.000000*%
%TD*%
%TA.AperFunction,ComponentPad*%
%ADD11R,1.700000X1.700000*%
%TD*%
%TA.AperFunction,ComponentPad*%
%ADD12C,1.700000*%
%TD*%
%TA.AperFunction,ComponentPad*%
%ADD13C,2.600000*%
%TD*%
%TA.AperFunction,ComponentPad*%
%ADD14C,2.050000*%
%TD*%
%TA.AperFunction,ComponentPad*%
%ADD15C,2.250000*%
%TD*%
%TA.AperFunction,ComponentPad*%
%ADD16C,0.600000*%
%TD*%
%TA.AperFunction,ComponentPad*%
%ADD17RoundRect,0.249999X-0.850001X-0.850001X0.850001X-0.850001X0.850001X0.850001X-0.850001X0.850001X0*%
%TD*%
%TA.AperFunction,ComponentPad*%
%ADD18C,2.200000*%
%TD*%
%TA.AperFunction,ComponentPad*%
%ADD19O,2.100000X1.000000*%
%TD*%
%TA.AperFunction,ComponentPad*%
%ADD20O,1.600000X1.000000*%
%TD*%
%TA.AperFunction,ViaPad*%
%ADD21C,0.560000*%
%TD*%
%TA.AperFunction,ViaPad*%
%ADD22C,0.800000*%
%TD*%
%TA.AperFunction,ViaPad*%
%ADD23C,0.460000*%
%TD*%
%TA.AperFunction,ViaPad*%
%ADD24C,0.600000*%
%TD*%
%TA.AperFunction,Conductor*%
%ADD25C,0.152400*%
%TD*%
%TA.AperFunction,Conductor*%
%ADD26C,0.400000*%
%TD*%
G04 APERTURE END LIST*
D10*
%TO.N,RF1_RST*%
%TO.C,TP7*%
X195100000Y-94700000D03*
%TD*%
%TO.N,RF1_IO1*%
%TO.C,TP6*%
X194500000Y-87000000D03*
%TD*%
%TO.N,RF1_IO0*%
%TO.C,TP5*%
X191000000Y-87000000D03*
%TD*%
%TO.N,SPI1_MOSI*%
%TO.C,TP4*%
X184000000Y-87000000D03*
%TD*%
%TO.N,SPI1_SCK*%
%TO.C,TP3*%
X180600000Y-87000000D03*
%TD*%
%TO.N,SPI1_CS0*%
%TO.C,TP2*%
X180600000Y-90800000D03*
%TD*%
%TO.N,SPI1_MISO*%
%TO.C,TP1*%
X187500000Y-87000000D03*
%TD*%
D11*
%TO.N,GND*%
%TO.C,J4*%
X205050000Y-85600000D03*
D12*
%TO.N,SCL1*%
X207590000Y-85600000D03*
%TO.N,SDA1*%
X210129999Y-85600000D03*
%TO.N,RX*%
X212670000Y-85600000D03*
%TO.N,TX*%
X215210000Y-85600000D03*
%TO.N,+3V3*%
X217750000Y-85600000D03*
%TD*%
D13*
%TO.N,N/C*%
%TO.C,H2*%
X222000000Y-112000000D03*
%TD*%
D11*
%TO.N,SWDIO*%
%TO.C,J1*%
X200100000Y-106890000D03*
D12*
%TO.N,GND*%
X197560000Y-106890000D03*
%TO.N,SWCLK*%
X195020001Y-106890000D03*
%TD*%
D14*
%TO.N,Net-(J2-In)*%
%TO.C,J2*%
X174710000Y-88610000D03*
D15*
%TO.N,GND*%
X172170000Y-86070000D03*
X172170000Y-91150000D03*
X177250000Y-86070000D03*
X177250000Y-91150000D03*
%TD*%
D13*
%TO.N,N/C*%
%TO.C,H4*%
X222000000Y-87000000D03*
%TD*%
%TO.N,N/C*%
%TO.C,H3*%
X168000000Y-87000000D03*
%TD*%
D16*
%TO.N,GND*%
%TO.C,U18*%
X207487799Y-97174742D03*
X206112799Y-97174742D03*
X204737799Y-97174742D03*
X207487799Y-98549742D03*
X206112799Y-98549742D03*
X204737799Y-98549742D03*
X207487799Y-99924742D03*
X206112799Y-99924742D03*
X204737799Y-99924742D03*
%TD*%
D17*
%TO.N,GND*%
%TO.C,J3*%
X194140000Y-113500000D03*
D18*
%TO.N,GPIO22*%
X196680000Y-113500000D03*
%TO.N,GPIO23*%
X199220000Y-113500000D03*
%TO.N,GPIO24*%
X201760000Y-113500000D03*
%TO.N,GPIO25*%
X204300000Y-113500000D03*
%TO.N,GPIO26*%
X206840000Y-113500000D03*
%TO.N,GPIO27*%
X209380000Y-113500000D03*
%TO.N,GPIO28*%
X211920000Y-113500000D03*
%TO.N,GPIO29*%
X214460000Y-113500000D03*
%TO.N,GND*%
X217000000Y-113500000D03*
%TD*%
D19*
%TO.N,GND*%
%TO.C,J12*%
X217850000Y-103210000D03*
D20*
X222030000Y-103210000D03*
D19*
X217850000Y-94570000D03*
D20*
X222030000Y-94570000D03*
%TD*%
D13*
%TO.N,N/C*%
%TO.C,H1*%
X168000000Y-112000000D03*
%TD*%
D21*
%TO.N,RF1_RST*%
X200000000Y-92700000D03*
%TO.N,RF1_IO0*%
X188253800Y-92653800D03*
D22*
%TO.N,SPI1_MISO*%
X185939334Y-92487125D03*
%TO.N,SPI1_MOSI*%
X185836108Y-91492464D03*
%TO.N,SPI1_SCK*%
X184913800Y-91106000D03*
%TO.N,GND*%
X197000000Y-103000000D03*
D21*
X185699999Y-116400000D03*
X182870000Y-109290000D03*
X172800001Y-116400000D03*
X165500000Y-97100000D03*
X188700000Y-116400000D03*
X176000000Y-106000000D03*
X191000000Y-104000000D03*
X191800000Y-89500000D03*
X165900000Y-116400000D03*
X192000000Y-116000000D03*
X191000000Y-102000000D03*
X175000000Y-106000000D03*
D23*
X197230577Y-95721315D03*
D21*
X184000000Y-106000000D03*
X202700000Y-86200000D03*
X191000000Y-101000000D03*
X168799999Y-116400000D03*
D23*
X196382048Y-100246798D03*
D21*
X165500000Y-103099999D03*
D23*
X195745652Y-99610402D03*
D21*
X176000000Y-95900000D03*
X194200000Y-85000000D03*
D23*
X199069054Y-95014208D03*
D21*
X186300000Y-85000000D03*
X180700000Y-116400000D03*
D23*
X199200000Y-88520001D03*
D21*
X220300000Y-90300000D03*
X212518920Y-92005508D03*
X165500000Y-93200000D03*
X173800000Y-116400000D03*
X210750000Y-108410000D03*
X174000000Y-106000000D03*
X165500000Y-99100000D03*
X192000000Y-111000000D03*
X215200000Y-102120000D03*
X184700000Y-116400000D03*
X193200000Y-85000000D03*
X183700000Y-116400000D03*
X185300000Y-85000000D03*
X183000000Y-106000000D03*
X189700000Y-116400000D03*
D23*
X215120378Y-96923396D03*
D21*
X210425189Y-94307101D03*
D23*
X210192342Y-102707658D03*
D21*
X165500000Y-106999999D03*
X174800000Y-116400000D03*
X190700000Y-111400000D03*
D23*
X197230577Y-100812483D03*
X195109256Y-98974006D03*
D21*
X181699999Y-116400000D03*
X165500000Y-92200001D03*
X192000000Y-114000000D03*
X191000000Y-99000000D03*
X181530000Y-109300000D03*
D23*
X207044793Y-91902938D03*
X196382048Y-96569843D03*
D21*
X165500000Y-108000000D03*
X188300000Y-85000000D03*
X165500000Y-94099999D03*
X178800000Y-116400000D03*
X191000000Y-96000000D03*
X174600000Y-109610000D03*
D23*
X199300000Y-86320001D03*
D21*
X173400000Y-96000000D03*
X191000000Y-97000000D03*
D23*
X204703040Y-91539164D03*
X194897124Y-98196188D03*
D21*
X165500000Y-101100000D03*
X165500000Y-95100000D03*
X165500000Y-105100000D03*
D23*
X195604231Y-97347660D03*
D21*
X190800000Y-116400000D03*
X173400000Y-109580000D03*
X175950000Y-109650000D03*
X171800000Y-116400000D03*
D23*
X205850207Y-104567220D03*
D21*
X179300000Y-85000000D03*
X189300000Y-85000000D03*
X177000000Y-106000000D03*
X169800000Y-116400000D03*
X179000000Y-106000000D03*
X192000000Y-112000000D03*
X218208500Y-106161500D03*
X183300000Y-85000000D03*
X165500000Y-106000000D03*
X192000000Y-110000000D03*
X191000000Y-98000000D03*
X178000000Y-106000000D03*
X191000000Y-100000000D03*
D23*
X200792725Y-97922936D03*
D21*
X192000000Y-108000000D03*
X217358500Y-106161500D03*
X218658500Y-104261500D03*
X184300000Y-85000000D03*
X170800001Y-116400000D03*
X186700000Y-116400000D03*
X190300000Y-85000000D03*
D23*
X210807027Y-101661012D03*
D21*
X165500000Y-102100000D03*
D23*
X199846872Y-95792024D03*
D21*
X217708500Y-104161500D03*
X165500000Y-90200000D03*
X176800000Y-116400000D03*
X192200000Y-85000000D03*
X165500000Y-96100000D03*
X181300000Y-85000000D03*
X165500000Y-109000000D03*
X173000000Y-106000000D03*
X191000000Y-103000000D03*
X165500000Y-98100001D03*
X191230000Y-94170000D03*
X180000000Y-106000000D03*
X167900000Y-116400000D03*
D24*
X202206133Y-103383877D03*
D21*
X179800001Y-116400000D03*
D23*
X199935260Y-100273606D03*
D21*
X165500000Y-104100000D03*
X191200000Y-85000000D03*
X187700000Y-116400000D03*
X165500000Y-100100000D03*
X182300000Y-85000000D03*
X180300000Y-85000000D03*
X177799999Y-116400000D03*
X192000000Y-113000000D03*
X187300000Y-85000000D03*
D23*
X211938398Y-101661012D03*
D21*
X219099269Y-106108935D03*
X202700000Y-88500000D03*
X182700000Y-116400000D03*
X182000000Y-106000000D03*
X175799999Y-116400000D03*
X166900001Y-116400000D03*
X181000000Y-106000000D03*
X165500000Y-91200000D03*
D23*
X198079105Y-94872786D03*
D22*
X199600000Y-94350000D03*
D21*
X193880000Y-102820000D03*
X190400000Y-109770000D03*
X192000000Y-115000000D03*
D22*
%TO.N,+3V3*%
X187700000Y-112700000D03*
D21*
X219893865Y-106013541D03*
D23*
X214200283Y-102792383D03*
D21*
X206400000Y-88600000D03*
X204130000Y-87720000D03*
D23*
X203513680Y-97532376D03*
D21*
X206204293Y-91685707D03*
X218200000Y-87600000D03*
X208856199Y-104924153D03*
D23*
X212504083Y-97701214D03*
X209220000Y-94400000D03*
D21*
X211500000Y-103700000D03*
X208700000Y-88200000D03*
D23*
X208817335Y-98134389D03*
D21*
X221908500Y-108411500D03*
D22*
X186600000Y-111400000D03*
D21*
X213900000Y-103700000D03*
X209439020Y-102025048D03*
D23*
X202081746Y-101932630D03*
D21*
X205510000Y-103310000D03*
X210800000Y-105000000D03*
D23*
X204787936Y-95942130D03*
D21*
X212700000Y-103700000D03*
X216700000Y-88500000D03*
X205400000Y-88600000D03*
X203990000Y-90530000D03*
X215100000Y-103700000D03*
X216358500Y-104311500D03*
%TO.N,VBUS*%
X218720000Y-100830000D03*
X219490000Y-109020000D03*
X220178917Y-108268364D03*
%TO.N,/USBBOOT*%
X198800000Y-87700000D03*
X209000000Y-91500000D03*
%TO.N,/QSPI_SD1*%
X213086706Y-92573294D03*
X213070000Y-90910000D03*
%TO.N,/QSPI_SD3*%
X214418124Y-95018124D03*
X215960000Y-91390000D03*
%TO.N,/QSPI_SD0*%
X217028124Y-92408124D03*
X215601537Y-92261538D03*
%TO.N,TX*%
X208600000Y-96500000D03*
%TO.N,RX*%
X207902778Y-96011478D03*
%TO.N,SDA1*%
X208356200Y-89800000D03*
X207100000Y-90043800D03*
%TO.N,FC_RESET*%
X202220000Y-90370000D03*
D23*
X200111249Y-100951250D03*
%TO.N,SWCLK*%
X203566152Y-98937250D03*
%TO.N,SWDIO*%
X203840000Y-99600000D03*
D21*
%TO.N,RF1_IO2*%
X203581552Y-100390997D03*
X186700000Y-109610000D03*
%TO.N,RF1_RST*%
X187270000Y-92452800D03*
X205730000Y-94070000D03*
%TO.N,RF1_IO5*%
X198751041Y-104021882D03*
X194430000Y-99520000D03*
%TO.N,RF1_IO4*%
X195400000Y-100960000D03*
X196420000Y-102086200D03*
%TO.N,RF1_IO1*%
X199020000Y-93670000D03*
D23*
X203541506Y-96764297D03*
D21*
%TO.N,SPI1_CS0*%
X203330000Y-92920000D03*
X202250000Y-91200000D03*
%TO.N,SPI1_MOSI*%
X200210000Y-91340400D03*
X201440000Y-92452800D03*
%TO.N,SPI1_SCK*%
X202668243Y-92452799D03*
X201120000Y-91260000D03*
D23*
%TO.N,+1V1*%
X211655555Y-99610402D03*
X208242799Y-99662248D03*
X212433372Y-99610402D03*
D21*
%TO.N,BOOTSEL*%
X209667252Y-90144682D03*
X212000000Y-93400000D03*
%TO.N,GPIO25*%
X205898425Y-101095025D03*
%TO.N,GPIO22*%
X204010000Y-101070000D03*
%TO.N,GPIO28*%
X208200000Y-101000000D03*
%TO.N,GPIO26*%
X207068998Y-101105404D03*
%TO.N,GPIO24*%
X205010000Y-100830000D03*
X204120685Y-107501001D03*
%TO.N,GPIO27*%
X207575960Y-102897702D03*
%TO.N,GPIO23*%
X204686783Y-102890334D03*
%TO.N,Firmware_Active*%
X196873002Y-89873600D03*
D23*
X205681816Y-96066340D03*
%TD*%
D25*
%TO.N,GND*%
X202679682Y-95059682D02*
X202679682Y-95116625D01*
D26*
X204454956Y-98266899D02*
X201136688Y-98266899D01*
X206112799Y-98443223D02*
X206112799Y-98549742D01*
D25*
X202420000Y-94800000D02*
X202679682Y-95059682D01*
D26*
X202420000Y-94800000D02*
X202630107Y-95010107D01*
X204737799Y-98549742D02*
X204454956Y-98266899D01*
X201136688Y-98266899D02*
X200792725Y-97922936D01*
X202630107Y-95010107D02*
X202679683Y-95010107D01*
D25*
X202679682Y-95116625D02*
X204737799Y-97174741D01*
D26*
X202679683Y-95010107D02*
X206112799Y-98443223D01*
%TD*%
%TA.AperFunction,Conductor*%
%TO.N,GND*%
G36*
X204055275Y-84518659D02*
G01*
X204073434Y-84562500D01*
X204057946Y-84599892D01*
X204059200Y-84600730D01*
X204011606Y-84671959D01*
X204011604Y-84671962D01*
X204000000Y-84730300D01*
X204000000Y-85349999D01*
X204000001Y-85350000D01*
X204616988Y-85350000D01*
X204584075Y-85407007D01*
X204550000Y-85534174D01*
X204550000Y-85665826D01*
X204584075Y-85792993D01*
X204616988Y-85850000D01*
X204000001Y-85850000D01*
X204000000Y-85850001D01*
X204000000Y-86469699D01*
X204011604Y-86528037D01*
X204011606Y-86528040D01*
X204055805Y-86594189D01*
X204055810Y-86594194D01*
X204121959Y-86638393D01*
X204121962Y-86638395D01*
X204180300Y-86649999D01*
X204180307Y-86650000D01*
X204799999Y-86650000D01*
X204800000Y-86649999D01*
X204800000Y-86033012D01*
X204857007Y-86065925D01*
X204984174Y-86100000D01*
X205115826Y-86100000D01*
X205242993Y-86065925D01*
X205300000Y-86033012D01*
X205300000Y-86649999D01*
X205300001Y-86650000D01*
X205919693Y-86650000D01*
X205919699Y-86649999D01*
X205978037Y-86638395D01*
X205978040Y-86638393D01*
X206044189Y-86594194D01*
X206044194Y-86594189D01*
X206088393Y-86528040D01*
X206088395Y-86528037D01*
X206099999Y-86469699D01*
X206100000Y-86469692D01*
X206100000Y-85850001D01*
X206099999Y-85850000D01*
X205483012Y-85850000D01*
X205515925Y-85792993D01*
X205550000Y-85665826D01*
X205550000Y-85534174D01*
X205515925Y-85407007D01*
X205483012Y-85350000D01*
X206099999Y-85350000D01*
X206100000Y-85349999D01*
X206100000Y-84730307D01*
X206099999Y-84730300D01*
X206088395Y-84671962D01*
X206088393Y-84671959D01*
X206040800Y-84600730D01*
X206042053Y-84599892D01*
X206026566Y-84562500D01*
X206044725Y-84518659D01*
X206088566Y-84500500D01*
X207187644Y-84500500D01*
X207231485Y-84518659D01*
X207249644Y-84562500D01*
X207231485Y-84606341D01*
X207211370Y-84619780D01*
X207092409Y-84669055D01*
X207092398Y-84669061D01*
X206920351Y-84784018D01*
X206920347Y-84784021D01*
X206774021Y-84930347D01*
X206774018Y-84930351D01*
X206659061Y-85102398D01*
X206659059Y-85102400D01*
X206618673Y-85199901D01*
X206579870Y-85293580D01*
X206539500Y-85496535D01*
X206539500Y-85703465D01*
X206579870Y-85906420D01*
X206604433Y-85965720D01*
X206659059Y-86097599D01*
X206659061Y-86097601D01*
X206739461Y-86217930D01*
X206774023Y-86269655D01*
X206920345Y-86415977D01*
X207088060Y-86528040D01*
X207092398Y-86530938D01*
X207092400Y-86530940D01*
X207092401Y-86530940D01*
X207092402Y-86530941D01*
X207283580Y-86610130D01*
X207486535Y-86650500D01*
X207486540Y-86650500D01*
X207693460Y-86650500D01*
X207693465Y-86650500D01*
X207896420Y-86610130D01*
X208087598Y-86530941D01*
X208259655Y-86415977D01*
X208405977Y-86269655D01*
X208520941Y-86097598D01*
X208600130Y-85906420D01*
X208640500Y-85703465D01*
X208640500Y-85496535D01*
X208600130Y-85293580D01*
X208520941Y-85102402D01*
X208405977Y-84930345D01*
X208259655Y-84784023D01*
X208179252Y-84730300D01*
X208087601Y-84669061D01*
X208087600Y-84669060D01*
X208087598Y-84669059D01*
X208087595Y-84669057D01*
X208087590Y-84669055D01*
X207968630Y-84619780D01*
X207935075Y-84586226D01*
X207935076Y-84538774D01*
X207968630Y-84505219D01*
X207992356Y-84500500D01*
X209727643Y-84500500D01*
X209771484Y-84518659D01*
X209789643Y-84562500D01*
X209771484Y-84606341D01*
X209751369Y-84619780D01*
X209632408Y-84669055D01*
X209632397Y-84669061D01*
X209460350Y-84784018D01*
X209460346Y-84784021D01*
X209314020Y-84930347D01*
X209314017Y-84930351D01*
X209199060Y-85102398D01*
X209199058Y-85102400D01*
X209158672Y-85199901D01*
X209119869Y-85293580D01*
X209079499Y-85496535D01*
X209079499Y-85703465D01*
X209119869Y-85906420D01*
X209144432Y-85965720D01*
X209199058Y-86097599D01*
X209199060Y-86097601D01*
X209279460Y-86217930D01*
X209314022Y-86269655D01*
X209460344Y-86415977D01*
X209628059Y-86528040D01*
X209632397Y-86530938D01*
X209632399Y-86530940D01*
X209632400Y-86530940D01*
X209632401Y-86530941D01*
X209823579Y-86610130D01*
X210026534Y-86650500D01*
X210026539Y-86650500D01*
X210233459Y-86650500D01*
X210233464Y-86650500D01*
X210436419Y-86610130D01*
X210627597Y-86530941D01*
X210799654Y-86415977D01*
X210945976Y-86269655D01*
X211060940Y-86097598D01*
X211140129Y-85906420D01*
X211180499Y-85703465D01*
X211180499Y-85496535D01*
X211140129Y-85293580D01*
X211060940Y-85102402D01*
X210945976Y-84930345D01*
X210799654Y-84784023D01*
X210719251Y-84730300D01*
X210627600Y-84669061D01*
X210627599Y-84669060D01*
X210627597Y-84669059D01*
X210627594Y-84669057D01*
X210627589Y-84669055D01*
X210508629Y-84619780D01*
X210475074Y-84586226D01*
X210475075Y-84538774D01*
X210508629Y-84505219D01*
X210532355Y-84500500D01*
X212267644Y-84500500D01*
X212311485Y-84518659D01*
X212329644Y-84562500D01*
X212311485Y-84606341D01*
X212291370Y-84619780D01*
X212172409Y-84669055D01*
X212172398Y-84669061D01*
X212000351Y-84784018D01*
X212000347Y-84784021D01*
X211854021Y-84930347D01*
X211854018Y-84930351D01*
X211739061Y-85102398D01*
X211739059Y-85102400D01*
X211698673Y-85199901D01*
X211659870Y-85293580D01*
X211619500Y-85496535D01*
X211619500Y-85703465D01*
X211659870Y-85906420D01*
X211684433Y-85965720D01*
X211739059Y-86097599D01*
X211739061Y-86097601D01*
X211819461Y-86217930D01*
X211854023Y-86269655D01*
X212000345Y-86415977D01*
X212168060Y-86528040D01*
X212172398Y-86530938D01*
X212172400Y-86530940D01*
X212172401Y-86530940D01*
X212172402Y-86530941D01*
X212363580Y-86610130D01*
X212566535Y-86650500D01*
X212566540Y-86650500D01*
X212773460Y-86650500D01*
X212773465Y-86650500D01*
X212976420Y-86610130D01*
X213167598Y-86530941D01*
X213339655Y-86415977D01*
X213485977Y-86269655D01*
X213600941Y-86097598D01*
X213680130Y-85906420D01*
X213720500Y-85703465D01*
X213720500Y-85496535D01*
X213680130Y-85293580D01*
X213600941Y-85102402D01*
X213485977Y-84930345D01*
X213339655Y-84784023D01*
X213259252Y-84730300D01*
X213167601Y-84669061D01*
X213167600Y-84669060D01*
X213167598Y-84669059D01*
X213167595Y-84669057D01*
X213167590Y-84669055D01*
X213048630Y-84619780D01*
X213015075Y-84586226D01*
X213015076Y-84538774D01*
X213048630Y-84505219D01*
X213072356Y-84500500D01*
X214807644Y-84500500D01*
X214851485Y-84518659D01*
X214869644Y-84562500D01*
X214851485Y-84606341D01*
X214831370Y-84619780D01*
X214712409Y-84669055D01*
X214712398Y-84669061D01*
X214540351Y-84784018D01*
X214540347Y-84784021D01*
X214394021Y-84930347D01*
X214394018Y-84930351D01*
X214279061Y-85102398D01*
X214279059Y-85102400D01*
X214238673Y-85199901D01*
X214199870Y-85293580D01*
X214159500Y-85496535D01*
X214159500Y-85703465D01*
X214199870Y-85906420D01*
X214224433Y-85965720D01*
X214279059Y-86097599D01*
X214279061Y-86097601D01*
X214359461Y-86217930D01*
X214394023Y-86269655D01*
X214540345Y-86415977D01*
X214708060Y-86528040D01*
X214712398Y-86530938D01*
X214712400Y-86530940D01*
X214712401Y-86530940D01*
X214712402Y-86530941D01*
X214903580Y-86610130D01*
X215106535Y-86650500D01*
X215106540Y-86650500D01*
X215313460Y-86650500D01*
X215313465Y-86650500D01*
X215516420Y-86610130D01*
X215707598Y-86530941D01*
X215879655Y-86415977D01*
X216025977Y-86269655D01*
X216140941Y-86097598D01*
X216220130Y-85906420D01*
X216260500Y-85703465D01*
X216260500Y-85496535D01*
X216220130Y-85293580D01*
X216140941Y-85102402D01*
X216025977Y-84930345D01*
X215879655Y-84784023D01*
X215799252Y-84730300D01*
X215707601Y-84669061D01*
X215707600Y-84669060D01*
X215707598Y-84669059D01*
X215707595Y-84669057D01*
X215707590Y-84669055D01*
X215588630Y-84619780D01*
X215555075Y-84586226D01*
X215555076Y-84538774D01*
X215588630Y-84505219D01*
X215612356Y-84500500D01*
X217347644Y-84500500D01*
X217391485Y-84518659D01*
X217409644Y-84562500D01*
X217391485Y-84606341D01*
X217371370Y-84619780D01*
X217252409Y-84669055D01*
X217252398Y-84669061D01*
X217080351Y-84784018D01*
X217080347Y-84784021D01*
X216934021Y-84930347D01*
X216934018Y-84930351D01*
X216819061Y-85102398D01*
X216819059Y-85102400D01*
X216778673Y-85199901D01*
X216739870Y-85293580D01*
X216699500Y-85496535D01*
X216699500Y-85703465D01*
X216739870Y-85906420D01*
X216764433Y-85965720D01*
X216819059Y-86097599D01*
X216819061Y-86097601D01*
X216899461Y-86217930D01*
X216934023Y-86269655D01*
X217080345Y-86415977D01*
X217248060Y-86528040D01*
X217252398Y-86530938D01*
X217252400Y-86530940D01*
X217252401Y-86530940D01*
X217252402Y-86530941D01*
X217443580Y-86610130D01*
X217646535Y-86650500D01*
X217646540Y-86650500D01*
X217853460Y-86650500D01*
X217853465Y-86650500D01*
X218056420Y-86610130D01*
X218247598Y-86530941D01*
X218419655Y-86415977D01*
X218565977Y-86269655D01*
X218680941Y-86097598D01*
X218760130Y-85906420D01*
X218800500Y-85703465D01*
X218800500Y-85496535D01*
X218760130Y-85293580D01*
X218680941Y-85102402D01*
X218565977Y-84930345D01*
X218419655Y-84784023D01*
X218339252Y-84730300D01*
X218247601Y-84669061D01*
X218247600Y-84669060D01*
X218247598Y-84669059D01*
X218247595Y-84669057D01*
X218247590Y-84669055D01*
X218128630Y-84619780D01*
X218095075Y-84586226D01*
X218095076Y-84538774D01*
X218128630Y-84505219D01*
X218152356Y-84500500D01*
X224737500Y-84500500D01*
X224781341Y-84518659D01*
X224799500Y-84562500D01*
X224799500Y-116927500D01*
X224781341Y-116971341D01*
X224737500Y-116989500D01*
X165262500Y-116989500D01*
X165218659Y-116971341D01*
X165200500Y-116927500D01*
X165200500Y-111881908D01*
X166499500Y-111881908D01*
X166499500Y-112118092D01*
X166536447Y-112351368D01*
X166609432Y-112575991D01*
X166609434Y-112575997D01*
X166716653Y-112786427D01*
X166716659Y-112786436D01*
X166740062Y-112818647D01*
X166855483Y-112977510D01*
X167022490Y-113144517D01*
X167213567Y-113283343D01*
X167213569Y-113283344D01*
X167213572Y-113283346D01*
X167424002Y-113390565D01*
X167424008Y-113390568D01*
X167648632Y-113463553D01*
X167881908Y-113500500D01*
X168118092Y-113500500D01*
X168351368Y-113463553D01*
X168575992Y-113390568D01*
X168786433Y-113283343D01*
X168977510Y-113144517D01*
X169144517Y-112977510D01*
X169283343Y-112786433D01*
X169351442Y-112652781D01*
X169367665Y-112620941D01*
X187099500Y-112620941D01*
X187099500Y-112779058D01*
X187140421Y-112931782D01*
X187207249Y-113047532D01*
X187219480Y-113068716D01*
X187331284Y-113180520D01*
X187410342Y-113226163D01*
X187468217Y-113259578D01*
X187620942Y-113300500D01*
X187620943Y-113300500D01*
X187779058Y-113300500D01*
X187931782Y-113259578D01*
X187948372Y-113250000D01*
X188068716Y-113180520D01*
X188180520Y-113068716D01*
X188259577Y-112931784D01*
X188286864Y-112829950D01*
X188300500Y-112779058D01*
X188300500Y-112620943D01*
X188297673Y-112610394D01*
X188297673Y-112610392D01*
X188293759Y-112595784D01*
X192840000Y-112595784D01*
X192840000Y-113249999D01*
X192840001Y-113250000D01*
X193649252Y-113250000D01*
X193627482Y-113287708D01*
X193590000Y-113427591D01*
X193590000Y-113572409D01*
X193627482Y-113712292D01*
X193649252Y-113750000D01*
X192840001Y-113750000D01*
X192840000Y-113750001D01*
X192840000Y-114404215D01*
X192842850Y-114434605D01*
X192887654Y-114562646D01*
X192968205Y-114671790D01*
X192968209Y-114671794D01*
X193077353Y-114752345D01*
X193205395Y-114797149D01*
X193205394Y-114797149D01*
X193235784Y-114799999D01*
X193235796Y-114800000D01*
X193889999Y-114800000D01*
X193890000Y-114799999D01*
X193890000Y-113990747D01*
X193927708Y-114012518D01*
X194067591Y-114050000D01*
X194212409Y-114050000D01*
X194352292Y-114012518D01*
X194390000Y-113990747D01*
X194390000Y-114799999D01*
X194390001Y-114800000D01*
X195044204Y-114800000D01*
X195044215Y-114799999D01*
X195074605Y-114797149D01*
X195202646Y-114752345D01*
X195311790Y-114671794D01*
X195311794Y-114671790D01*
X195392345Y-114562646D01*
X195437149Y-114434605D01*
X195439999Y-114404215D01*
X195440000Y-114404204D01*
X195440000Y-114189208D01*
X195458159Y-114145367D01*
X195502000Y-114127208D01*
X195545841Y-114145367D01*
X195557243Y-114161061D01*
X195567712Y-114181609D01*
X195613000Y-114243942D01*
X195688034Y-114347219D01*
X195832781Y-114491966D01*
X195953228Y-114579475D01*
X195998394Y-114612290D01*
X195998396Y-114612291D01*
X196179866Y-114704754D01*
X196180781Y-114705220D01*
X196375466Y-114768477D01*
X196577648Y-114800500D01*
X196782352Y-114800500D01*
X196984534Y-114768477D01*
X197179219Y-114705220D01*
X197272375Y-114657754D01*
X197361603Y-114612291D01*
X197361605Y-114612290D01*
X197361607Y-114612288D01*
X197361610Y-114612287D01*
X197527219Y-114491966D01*
X197671966Y-114347219D01*
X197792287Y-114181610D01*
X197792416Y-114181358D01*
X197859346Y-114050000D01*
X197885220Y-113999219D01*
X197891034Y-113981324D01*
X197921852Y-113945241D01*
X197969158Y-113941517D01*
X198005242Y-113972335D01*
X198008966Y-113981325D01*
X198014778Y-113999215D01*
X198014782Y-113999224D01*
X198107708Y-114181603D01*
X198107709Y-114181605D01*
X198161582Y-114255755D01*
X198228034Y-114347219D01*
X198372781Y-114491966D01*
X198493228Y-114579475D01*
X198538394Y-114612290D01*
X198538396Y-114612291D01*
X198719866Y-114704754D01*
X198720781Y-114705220D01*
X198915466Y-114768477D01*
X199117648Y-114800500D01*
X199322352Y-114800500D01*
X199524534Y-114768477D01*
X199719219Y-114705220D01*
X199812375Y-114657754D01*
X199901603Y-114612291D01*
X199901605Y-114612290D01*
X199901607Y-114612288D01*
X199901610Y-114612287D01*
X200067219Y-114491966D01*
X200211966Y-114347219D01*
X200332287Y-114181610D01*
X200332416Y-114181358D01*
X200399346Y-114050000D01*
X200425220Y-113999219D01*
X200431034Y-113981324D01*
X200461852Y-113945241D01*
X200509158Y-113941517D01*
X200545242Y-113972335D01*
X200548966Y-113981325D01*
X200554778Y-113999215D01*
X200554782Y-113999224D01*
X200647708Y-114181603D01*
X200647709Y-114181605D01*
X200701582Y-114255755D01*
X200768034Y-114347219D01*
X200912781Y-114491966D01*
X201033228Y-114579475D01*
X201078394Y-114612290D01*
X201078396Y-114612291D01*
X201259866Y-114704754D01*
X201260781Y-114705220D01*
X201455466Y-114768477D01*
X201657648Y-114800500D01*
X201862352Y-114800500D01*
X202064534Y-114768477D01*
X202259219Y-114705220D01*
X202352375Y-114657754D01*
X202441603Y-114612291D01*
X202441605Y-114612290D01*
X202441607Y-114612288D01*
X202441610Y-114612287D01*
X202607219Y-114491966D01*
X202751966Y-114347219D01*
X202872287Y-114181610D01*
X202872416Y-114181358D01*
X202939346Y-114050000D01*
X202965220Y-113999219D01*
X202971034Y-113981324D01*
X203001852Y-113945241D01*
X203049158Y-113941517D01*
X203085242Y-113972335D01*
X203088966Y-113981325D01*
X203094778Y-113999215D01*
X203094782Y-113999224D01*
X203187708Y-114181603D01*
X203187709Y-114181605D01*
X203241582Y-114255755D01*
X203308034Y-114347219D01*
X203452781Y-114491966D01*
X203573228Y-114579475D01*
X203618394Y-114612290D01*
X203618396Y-114612291D01*
X203799866Y-114704754D01*
X203800781Y-114705220D01*
X203995466Y-114768477D01*
X204197648Y-114800500D01*
X204402352Y-114800500D01*
X204604534Y-114768477D01*
X204799219Y-114705220D01*
X204892375Y-114657754D01*
X204981603Y-114612291D01*
X204981605Y-114612290D01*
X204981607Y-114612288D01*
X204981610Y-114612287D01*
X205147219Y-114491966D01*
X205291966Y-114347219D01*
X205412287Y-114181610D01*
X205412416Y-114181358D01*
X205479346Y-114050000D01*
X205505220Y-113999219D01*
X205511034Y-113981324D01*
X205541852Y-113945241D01*
X205589158Y-113941517D01*
X205625242Y-113972335D01*
X205628966Y-113981325D01*
X205634778Y-113999215D01*
X205634782Y-113999224D01*
X205727708Y-114181603D01*
X205727709Y-114181605D01*
X205781582Y-114255755D01*
X205848034Y-114347219D01*
X205992781Y-114491966D01*
X206113228Y-114579475D01*
X206158394Y-114612290D01*
X206158396Y-114612291D01*
X206339866Y-114704754D01*
X206340781Y-114705220D01*
X206535466Y-114768477D01*
X206737648Y-114800500D01*
X206942352Y-114800500D01*
X207144534Y-114768477D01*
X207339219Y-114705220D01*
X207432375Y-114657754D01*
X207521603Y-114612291D01*
X207521605Y-114612290D01*
X207521607Y-114612288D01*
X207521610Y-114612287D01*
X207687219Y-114491966D01*
X207831966Y-114347219D01*
X207952287Y-114181610D01*
X207952416Y-114181358D01*
X208019346Y-114050000D01*
X208045220Y-113999219D01*
X208051034Y-113981324D01*
X208081852Y-113945241D01*
X208129158Y-113941517D01*
X208165242Y-113972335D01*
X208168966Y-113981325D01*
X208174778Y-113999215D01*
X208174782Y-113999224D01*
X208267708Y-114181603D01*
X208267709Y-114181605D01*
X208321582Y-114255755D01*
X208388034Y-114347219D01*
X208532781Y-114491966D01*
X208653228Y-114579475D01*
X208698394Y-114612290D01*
X208698396Y-114612291D01*
X208879866Y-114704754D01*
X208880781Y-114705220D01*
X209075466Y-114768477D01*
X209277648Y-114800500D01*
X209482352Y-114800500D01*
X209684534Y-114768477D01*
X209879219Y-114705220D01*
X209972375Y-114657754D01*
X210061603Y-114612291D01*
X210061605Y-114612290D01*
X210061607Y-114612288D01*
X210061610Y-114612287D01*
X210227219Y-114491966D01*
X210371966Y-114347219D01*
X210492287Y-114181610D01*
X210492416Y-114181358D01*
X210559346Y-114050000D01*
X210585220Y-113999219D01*
X210591034Y-113981324D01*
X210621852Y-113945241D01*
X210669158Y-113941517D01*
X210705242Y-113972335D01*
X210708966Y-113981325D01*
X210714778Y-113999215D01*
X210714782Y-113999224D01*
X210807708Y-114181603D01*
X210807709Y-114181605D01*
X210861582Y-114255755D01*
X210928034Y-114347219D01*
X211072781Y-114491966D01*
X211193228Y-114579475D01*
X211238394Y-114612290D01*
X211238396Y-114612291D01*
X211419866Y-114704754D01*
X211420781Y-114705220D01*
X211615466Y-114768477D01*
X211817648Y-114800500D01*
X212022352Y-114800500D01*
X212224534Y-114768477D01*
X212419219Y-114705220D01*
X212512375Y-114657754D01*
X212601603Y-114612291D01*
X212601605Y-114612290D01*
X212601607Y-114612288D01*
X212601610Y-114612287D01*
X212767219Y-114491966D01*
X212911966Y-114347219D01*
X213032287Y-114181610D01*
X213032416Y-114181358D01*
X213099346Y-114050000D01*
X213125220Y-113999219D01*
X213131034Y-113981324D01*
X213161852Y-113945241D01*
X213209158Y-113941517D01*
X213245242Y-113972335D01*
X213248966Y-113981325D01*
X213254778Y-113999215D01*
X213254782Y-113999224D01*
X213347708Y-114181603D01*
X213347709Y-114181605D01*
X213401582Y-114255755D01*
X213468034Y-114347219D01*
X213612781Y-114491966D01*
X213733228Y-114579475D01*
X213778394Y-114612290D01*
X213778396Y-114612291D01*
X213959866Y-114704754D01*
X213960781Y-114705220D01*
X214155466Y-114768477D01*
X214357648Y-114800500D01*
X214562352Y-114800500D01*
X214764534Y-114768477D01*
X214959219Y-114705220D01*
X215052375Y-114657754D01*
X215141603Y-114612291D01*
X215141605Y-114612290D01*
X215141607Y-114612288D01*
X215141610Y-114612287D01*
X215307219Y-114491966D01*
X215451966Y-114347219D01*
X215572287Y-114181610D01*
X215572416Y-114181358D01*
X215639346Y-114050000D01*
X215665220Y-113999219D01*
X215671296Y-113980517D01*
X215702113Y-113944434D01*
X215749419Y-113940709D01*
X215785503Y-113971526D01*
X215789227Y-113980514D01*
X215795241Y-113999022D01*
X215888141Y-114181352D01*
X215920523Y-114225920D01*
X216476211Y-113670231D01*
X216487482Y-113712292D01*
X216559890Y-113837708D01*
X216662292Y-113940110D01*
X216787708Y-114012518D01*
X216829765Y-114023787D01*
X216274078Y-114579475D01*
X216318647Y-114611857D01*
X216318656Y-114611863D01*
X216500967Y-114704754D01*
X216500973Y-114704756D01*
X216695588Y-114767990D01*
X216897688Y-114800000D01*
X217102312Y-114800000D01*
X217304411Y-114767990D01*
X217499026Y-114704756D01*
X217499032Y-114704754D01*
X217681342Y-114611863D01*
X217681358Y-114611853D01*
X217725920Y-114579476D01*
X217725921Y-114579476D01*
X217170232Y-114023787D01*
X217212292Y-114012518D01*
X217337708Y-113940110D01*
X217440110Y-113837708D01*
X217512518Y-113712292D01*
X217523787Y-113670232D01*
X218079476Y-114225921D01*
X218079476Y-114225920D01*
X218111853Y-114181358D01*
X218111863Y-114181342D01*
X218204754Y-113999032D01*
X218204756Y-113999026D01*
X218267990Y-113804411D01*
X218300000Y-113602311D01*
X218300000Y-113397688D01*
X218267990Y-113195588D01*
X218204756Y-113000973D01*
X218204754Y-113000967D01*
X218111863Y-112818656D01*
X218111857Y-112818647D01*
X218079475Y-112774078D01*
X217523787Y-113329765D01*
X217512518Y-113287708D01*
X217440110Y-113162292D01*
X217337708Y-113059890D01*
X217212292Y-112987482D01*
X217170231Y-112976211D01*
X217725920Y-112420523D01*
X217681352Y-112388141D01*
X217499024Y-112295242D01*
X217304411Y-112232009D01*
X217102312Y-112200000D01*
X216897688Y-112200000D01*
X216695588Y-112232009D01*
X216500975Y-112295242D01*
X216318651Y-112388139D01*
X216274078Y-112420523D01*
X216829767Y-112976212D01*
X216787708Y-112987482D01*
X216662292Y-113059890D01*
X216559890Y-113162292D01*
X216487482Y-113287708D01*
X216476212Y-113329767D01*
X215920523Y-112774078D01*
X215888139Y-112818651D01*
X215795241Y-113000977D01*
X215795240Y-113000978D01*
X215789227Y-113019485D01*
X215758407Y-113055568D01*
X215711101Y-113059289D01*
X215675018Y-113028469D01*
X215671296Y-113019482D01*
X215665221Y-113000784D01*
X215665217Y-113000775D01*
X215572291Y-112818396D01*
X215572290Y-112818394D01*
X215540093Y-112774078D01*
X215451966Y-112652781D01*
X215307219Y-112508034D01*
X215209934Y-112437353D01*
X215141605Y-112387709D01*
X215141603Y-112387708D01*
X214959224Y-112294782D01*
X214959220Y-112294780D01*
X214959219Y-112294780D01*
X214764534Y-112231523D01*
X214688492Y-112219479D01*
X214562352Y-112199500D01*
X214357648Y-112199500D01*
X214155471Y-112231522D01*
X214155469Y-112231522D01*
X214155466Y-112231523D01*
X213960781Y-112294780D01*
X213960775Y-112294782D01*
X213778396Y-112387708D01*
X213778394Y-112387709D01*
X213612782Y-112508033D01*
X213468033Y-112652782D01*
X213347709Y-112818394D01*
X213347708Y-112818396D01*
X213254782Y-113000775D01*
X213254775Y-113000792D01*
X213248965Y-113018675D01*
X213218147Y-113054758D01*
X213170841Y-113058481D01*
X213134758Y-113027663D01*
X213131035Y-113018675D01*
X213125224Y-113000792D01*
X213125221Y-113000784D01*
X213125220Y-113000781D01*
X213099346Y-112950000D01*
X213032291Y-112818396D01*
X213032290Y-112818394D01*
X213000093Y-112774078D01*
X212911966Y-112652781D01*
X212767219Y-112508034D01*
X212669934Y-112437353D01*
X212601605Y-112387709D01*
X212601603Y-112387708D01*
X212419224Y-112294782D01*
X212419220Y-112294780D01*
X212419219Y-112294780D01*
X212224534Y-112231523D01*
X212148492Y-112219479D01*
X212022352Y-112199500D01*
X211817648Y-112199500D01*
X211615471Y-112231522D01*
X211615469Y-112231522D01*
X211615466Y-112231523D01*
X211420781Y-112294780D01*
X211420775Y-112294782D01*
X211238396Y-112387708D01*
X211238394Y-112387709D01*
X211072782Y-112508033D01*
X210928033Y-112652782D01*
X210807709Y-112818394D01*
X210807708Y-112818396D01*
X210714782Y-113000775D01*
X210714775Y-113000792D01*
X210708965Y-113018675D01*
X210678147Y-113054758D01*
X210630841Y-113058481D01*
X210594758Y-113027663D01*
X210591035Y-113018675D01*
X210585224Y-113000792D01*
X210585221Y-113000784D01*
X210585220Y-113000781D01*
X210559346Y-112950000D01*
X210492291Y-112818396D01*
X210492290Y-112818394D01*
X210460093Y-112774078D01*
X210371966Y-112652781D01*
X210227219Y-112508034D01*
X210129934Y-112437353D01*
X210061605Y-112387709D01*
X210061603Y-112387708D01*
X209879224Y-112294782D01*
X209879220Y-112294780D01*
X209879219Y-112294780D01*
X209684534Y-112231523D01*
X209608492Y-112219479D01*
X209482352Y-112199500D01*
X209277648Y-112199500D01*
X209075471Y-112231522D01*
X209075469Y-112231522D01*
X209075466Y-112231523D01*
X208880781Y-112294780D01*
X208880775Y-112294782D01*
X208698396Y-112387708D01*
X208698394Y-112387709D01*
X208532782Y-112508033D01*
X208388033Y-112652782D01*
X208267709Y-112818394D01*
X208267708Y-112818396D01*
X208174782Y-113000775D01*
X208174775Y-113000792D01*
X208168965Y-113018675D01*
X208138147Y-113054758D01*
X208090841Y-113058481D01*
X208054758Y-113027663D01*
X208051035Y-113018675D01*
X208045224Y-113000792D01*
X208045221Y-113000784D01*
X208045220Y-113000781D01*
X208019346Y-112950000D01*
X207952291Y-112818396D01*
X207952290Y-112818394D01*
X207920093Y-112774078D01*
X207831966Y-112652781D01*
X207687219Y-112508034D01*
X207589934Y-112437353D01*
X207521605Y-112387709D01*
X207521603Y-112387708D01*
X207339224Y-112294782D01*
X207339220Y-112294780D01*
X207339219Y-112294780D01*
X207144534Y-112231523D01*
X207068492Y-112219479D01*
X206942352Y-112199500D01*
X206737648Y-112199500D01*
X206535471Y-112231522D01*
X206535469Y-112231522D01*
X206535466Y-112231523D01*
X206340781Y-112294780D01*
X206340775Y-112294782D01*
X206158396Y-112387708D01*
X206158394Y-112387709D01*
X205992782Y-112508033D01*
X205848033Y-112652782D01*
X205727709Y-112818394D01*
X205727708Y-112818396D01*
X205634782Y-113000775D01*
X205634775Y-113000792D01*
X205628965Y-113018675D01*
X205598147Y-113054758D01*
X205550841Y-113058481D01*
X205514758Y-113027663D01*
X205511035Y-113018675D01*
X205505224Y-113000792D01*
X205505221Y-113000784D01*
X205505220Y-113000781D01*
X205479346Y-112950000D01*
X205412291Y-112818396D01*
X205412290Y-112818394D01*
X205380093Y-112774078D01*
X205291966Y-112652781D01*
X205147219Y-112508034D01*
X205049934Y-112437353D01*
X204981605Y-112387709D01*
X204981603Y-112387708D01*
X204799224Y-112294782D01*
X204799220Y-112294780D01*
X204799219Y-112294780D01*
X204604534Y-112231523D01*
X204528492Y-112219479D01*
X204402352Y-112199500D01*
X204197648Y-112199500D01*
X203995471Y-112231522D01*
X203995469Y-112231522D01*
X203995466Y-112231523D01*
X203800781Y-112294780D01*
X203800775Y-112294782D01*
X203618396Y-112387708D01*
X203618394Y-112387709D01*
X203452782Y-112508033D01*
X203308033Y-112652782D01*
X203187709Y-112818394D01*
X203187708Y-112818396D01*
X203094782Y-113000775D01*
X203094775Y-113000792D01*
X203088965Y-113018675D01*
X203058147Y-113054758D01*
X203010841Y-113058481D01*
X202974758Y-113027663D01*
X202971035Y-113018675D01*
X202965224Y-113000792D01*
X202965221Y-113000784D01*
X202965220Y-113000781D01*
X202939346Y-112950000D01*
X202872291Y-112818396D01*
X202872290Y-112818394D01*
X202840093Y-112774078D01*
X202751966Y-112652781D01*
X202607219Y-112508034D01*
X202509934Y-112437353D01*
X202441605Y-112387709D01*
X202441603Y-112387708D01*
X202259224Y-112294782D01*
X202259220Y-112294780D01*
X202259219Y-112294780D01*
X202064534Y-112231523D01*
X201988492Y-112219479D01*
X201862352Y-112199500D01*
X201657648Y-112199500D01*
X201455471Y-112231522D01*
X201455469Y-112231522D01*
X201455466Y-112231523D01*
X201260781Y-112294780D01*
X201260775Y-112294782D01*
X201078396Y-112387708D01*
X201078394Y-112387709D01*
X200912782Y-112508033D01*
X200768033Y-112652782D01*
X200647709Y-112818394D01*
X200647708Y-112818396D01*
X200554782Y-113000775D01*
X200554775Y-113000792D01*
X200548965Y-113018675D01*
X200518147Y-113054758D01*
X200470841Y-113058481D01*
X200434758Y-113027663D01*
X200431035Y-113018675D01*
X200425224Y-113000792D01*
X200425221Y-113000784D01*
X200425220Y-113000781D01*
X200399346Y-112950000D01*
X200332291Y-112818396D01*
X200332290Y-112818394D01*
X200300093Y-112774078D01*
X200211966Y-112652781D01*
X200067219Y-112508034D01*
X199969934Y-112437353D01*
X199901605Y-112387709D01*
X199901603Y-112387708D01*
X199719224Y-112294782D01*
X199719220Y-112294780D01*
X199719219Y-112294780D01*
X199524534Y-112231523D01*
X199448492Y-112219479D01*
X199322352Y-112199500D01*
X199117648Y-112199500D01*
X198915471Y-112231522D01*
X198915469Y-112231522D01*
X198915466Y-112231523D01*
X198720781Y-112294780D01*
X198720775Y-112294782D01*
X198538396Y-112387708D01*
X198538394Y-112387709D01*
X198372782Y-112508033D01*
X198228033Y-112652782D01*
X198107709Y-112818394D01*
X198107708Y-112818396D01*
X198014782Y-113000775D01*
X198014775Y-113000792D01*
X198008965Y-113018675D01*
X197978147Y-113054758D01*
X197930841Y-113058481D01*
X197894758Y-113027663D01*
X197891035Y-113018675D01*
X197885224Y-113000792D01*
X197885221Y-113000784D01*
X197885220Y-113000781D01*
X197859346Y-112950000D01*
X197792291Y-112818396D01*
X197792290Y-112818394D01*
X197760093Y-112774078D01*
X197671966Y-112652781D01*
X197527219Y-112508034D01*
X197429934Y-112437353D01*
X197361605Y-112387709D01*
X197361603Y-112387708D01*
X197179224Y-112294782D01*
X197179220Y-112294780D01*
X197179219Y-112294780D01*
X196984534Y-112231523D01*
X196908492Y-112219479D01*
X196782352Y-112199500D01*
X196577648Y-112199500D01*
X196375471Y-112231522D01*
X196375469Y-112231522D01*
X196375466Y-112231523D01*
X196180781Y-112294780D01*
X196180775Y-112294782D01*
X195998396Y-112387708D01*
X195998394Y-112387709D01*
X195832782Y-112508033D01*
X195688033Y-112652782D01*
X195567710Y-112818393D01*
X195557242Y-112838939D01*
X195521159Y-112869757D01*
X195473852Y-112866033D01*
X195443034Y-112829950D01*
X195440000Y-112810791D01*
X195440000Y-112595795D01*
X195439999Y-112595784D01*
X195437149Y-112565394D01*
X195392345Y-112437353D01*
X195311794Y-112328209D01*
X195311790Y-112328205D01*
X195202646Y-112247654D01*
X195074604Y-112202850D01*
X195074605Y-112202850D01*
X195044215Y-112200000D01*
X194390001Y-112200000D01*
X194390000Y-112200001D01*
X194390000Y-113009252D01*
X194352292Y-112987482D01*
X194212409Y-112950000D01*
X194067591Y-112950000D01*
X193927708Y-112987482D01*
X193890000Y-113009252D01*
X193890000Y-112200001D01*
X193889999Y-112200000D01*
X193235784Y-112200000D01*
X193205394Y-112202850D01*
X193077353Y-112247654D01*
X192968209Y-112328205D01*
X192968205Y-112328209D01*
X192887654Y-112437353D01*
X192842850Y-112565394D01*
X192840000Y-112595784D01*
X188293759Y-112595784D01*
X188259578Y-112468218D01*
X188241758Y-112437353D01*
X188180520Y-112331284D01*
X188068716Y-112219480D01*
X188034109Y-112199500D01*
X187931782Y-112140421D01*
X187779058Y-112099500D01*
X187779057Y-112099500D01*
X187620943Y-112099500D01*
X187620942Y-112099500D01*
X187468217Y-112140421D01*
X187331285Y-112219479D01*
X187219479Y-112331285D01*
X187140421Y-112468217D01*
X187099500Y-112620941D01*
X169367665Y-112620941D01*
X169384077Y-112588732D01*
X169390565Y-112575997D01*
X169390568Y-112575992D01*
X169463553Y-112351368D01*
X169500500Y-112118092D01*
X169500500Y-111881908D01*
X169463553Y-111648632D01*
X169390568Y-111424008D01*
X169338053Y-111320941D01*
X185999500Y-111320941D01*
X185999500Y-111479058D01*
X186040421Y-111631782D01*
X186107249Y-111747532D01*
X186119480Y-111768716D01*
X186231284Y-111880520D01*
X186310342Y-111926163D01*
X186368217Y-111959578D01*
X186520942Y-112000500D01*
X186520943Y-112000500D01*
X186679058Y-112000500D01*
X186831782Y-111959578D01*
X186831784Y-111959577D01*
X186966312Y-111881908D01*
X220499500Y-111881908D01*
X220499500Y-112118092D01*
X220536447Y-112351368D01*
X220609432Y-112575991D01*
X220609434Y-112575997D01*
X220716653Y-112786427D01*
X220716659Y-112786436D01*
X220740062Y-112818647D01*
X220855483Y-112977510D01*
X221022490Y-113144517D01*
X221213567Y-113283343D01*
X221213569Y-113283344D01*
X221213572Y-113283346D01*
X221424002Y-113390565D01*
X221424008Y-113390568D01*
X221648632Y-113463553D01*
X221881908Y-113500500D01*
X222118092Y-113500500D01*
X222351368Y-113463553D01*
X222575992Y-113390568D01*
X222786433Y-113283343D01*
X222977510Y-113144517D01*
X223144517Y-112977510D01*
X223283343Y-112786433D01*
X223390568Y-112575992D01*
X223463553Y-112351368D01*
X223500500Y-112118092D01*
X223500500Y-111881908D01*
X223463553Y-111648632D01*
X223390568Y-111424008D01*
X223283343Y-111213567D01*
X223144517Y-111022490D01*
X222977510Y-110855483D01*
X222786433Y-110716657D01*
X222786427Y-110716653D01*
X222575997Y-110609434D01*
X222575993Y-110609432D01*
X222575992Y-110609432D01*
X222351368Y-110536447D01*
X222118092Y-110499500D01*
X221881908Y-110499500D01*
X221648637Y-110536446D01*
X221648635Y-110536446D01*
X221648632Y-110536447D01*
X221424008Y-110609432D01*
X221424002Y-110609434D01*
X221213572Y-110716653D01*
X221213563Y-110716659D01*
X221022491Y-110855482D01*
X220855482Y-111022491D01*
X220716659Y-111213563D01*
X220716653Y-111213572D01*
X220609434Y-111424002D01*
X220609432Y-111424008D01*
X220536447Y-111648632D01*
X220499500Y-111881908D01*
X186966312Y-111881908D01*
X186968716Y-111880520D01*
X187080520Y-111768716D01*
X187159577Y-111631784D01*
X187200500Y-111479057D01*
X187200500Y-111320943D01*
X187200500Y-111320941D01*
X187159578Y-111168217D01*
X187126163Y-111110342D01*
X187080520Y-111031284D01*
X186968716Y-110919480D01*
X186947532Y-110907249D01*
X186831782Y-110840421D01*
X186679058Y-110799500D01*
X186679057Y-110799500D01*
X186520943Y-110799500D01*
X186520942Y-110799500D01*
X186368217Y-110840421D01*
X186231285Y-110919479D01*
X186119479Y-111031285D01*
X186040421Y-111168217D01*
X185999500Y-111320941D01*
X169338053Y-111320941D01*
X169283343Y-111213567D01*
X169144517Y-111022490D01*
X168977510Y-110855483D01*
X168786433Y-110716657D01*
X168786427Y-110716653D01*
X168575997Y-110609434D01*
X168575993Y-110609432D01*
X168575992Y-110609432D01*
X168351368Y-110536447D01*
X168118092Y-110499500D01*
X167881908Y-110499500D01*
X167648637Y-110536446D01*
X167648635Y-110536446D01*
X167648632Y-110536447D01*
X167424008Y-110609432D01*
X167424002Y-110609434D01*
X167213572Y-110716653D01*
X167213563Y-110716659D01*
X167022491Y-110855482D01*
X166855482Y-111022491D01*
X166716659Y-111213563D01*
X166716653Y-111213572D01*
X166609434Y-111424002D01*
X166609432Y-111424008D01*
X166536447Y-111648632D01*
X166499500Y-111881908D01*
X165200500Y-111881908D01*
X165200500Y-109546741D01*
X186219500Y-109546741D01*
X186219500Y-109673259D01*
X186252245Y-109795466D01*
X186315504Y-109905034D01*
X186404966Y-109994496D01*
X186514534Y-110057755D01*
X186636741Y-110090500D01*
X186636744Y-110090500D01*
X186763256Y-110090500D01*
X186763259Y-110090500D01*
X186885466Y-110057755D01*
X186995034Y-109994496D01*
X187084496Y-109905034D01*
X187147755Y-109795466D01*
X187180500Y-109673259D01*
X187180500Y-109546741D01*
X187147755Y-109424534D01*
X187084496Y-109314966D01*
X186995034Y-109225504D01*
X186885466Y-109162245D01*
X186885463Y-109162244D01*
X186861491Y-109155820D01*
X186763259Y-109129500D01*
X186636741Y-109129500D01*
X186559267Y-109150258D01*
X186514536Y-109162244D01*
X186514535Y-109162244D01*
X186404967Y-109225503D01*
X186315503Y-109314967D01*
X186252244Y-109424535D01*
X186252244Y-109424536D01*
X186219500Y-109546741D01*
X165200500Y-109546741D01*
X165200500Y-108956741D01*
X219009500Y-108956741D01*
X219009500Y-109083259D01*
X219042245Y-109205466D01*
X219105504Y-109315034D01*
X219194966Y-109404496D01*
X219304534Y-109467755D01*
X219426741Y-109500500D01*
X219426744Y-109500500D01*
X219553256Y-109500500D01*
X219553259Y-109500500D01*
X219675466Y-109467755D01*
X219785034Y-109404496D01*
X219874496Y-109315034D01*
X219937755Y-109205466D01*
X219970500Y-109083259D01*
X219970500Y-108956741D01*
X219937755Y-108834534D01*
X219921522Y-108806419D01*
X219915330Y-108759373D01*
X219944217Y-108721726D01*
X219991264Y-108715533D01*
X219993451Y-108716119D01*
X220115658Y-108748864D01*
X220242173Y-108748864D01*
X220242176Y-108748864D01*
X220364383Y-108716119D01*
X220473951Y-108652860D01*
X220563413Y-108563398D01*
X220626672Y-108453830D01*
X220654964Y-108348241D01*
X221428000Y-108348241D01*
X221428000Y-108474759D01*
X221460745Y-108596966D01*
X221524004Y-108706534D01*
X221613466Y-108795996D01*
X221723034Y-108859255D01*
X221845241Y-108892000D01*
X221845244Y-108892000D01*
X221971756Y-108892000D01*
X221971759Y-108892000D01*
X222093966Y-108859255D01*
X222203534Y-108795996D01*
X222292996Y-108706534D01*
X222356255Y-108596966D01*
X222389000Y-108474759D01*
X222389000Y-108348241D01*
X222356255Y-108226034D01*
X222292996Y-108116466D01*
X222203534Y-108027004D01*
X222093966Y-107963745D01*
X222093963Y-107963744D01*
X222069991Y-107957320D01*
X221971759Y-107931000D01*
X221845241Y-107931000D01*
X221767767Y-107951758D01*
X221723036Y-107963744D01*
X221723035Y-107963744D01*
X221613467Y-108027003D01*
X221524003Y-108116467D01*
X221460744Y-108226035D01*
X221460744Y-108226036D01*
X221428000Y-108348241D01*
X220654964Y-108348241D01*
X220659417Y-108331623D01*
X220659417Y-108205105D01*
X220626672Y-108082898D01*
X220563413Y-107973330D01*
X220473951Y-107883868D01*
X220364383Y-107820609D01*
X220364380Y-107820608D01*
X220340408Y-107814184D01*
X220242176Y-107787864D01*
X220115658Y-107787864D01*
X220038184Y-107808622D01*
X219993453Y-107820608D01*
X219993452Y-107820608D01*
X219883884Y-107883867D01*
X219794420Y-107973331D01*
X219731161Y-108082899D01*
X219731161Y-108082900D01*
X219722167Y-108116467D01*
X219698417Y-108205105D01*
X219698417Y-108331623D01*
X219724737Y-108429855D01*
X219731161Y-108453827D01*
X219731163Y-108453832D01*
X219747393Y-108481944D01*
X219753586Y-108528991D01*
X219724698Y-108566637D01*
X219677653Y-108572831D01*
X219654536Y-108566637D01*
X219553259Y-108539500D01*
X219426741Y-108539500D01*
X219349267Y-108560258D01*
X219304536Y-108572244D01*
X219304535Y-108572244D01*
X219194967Y-108635503D01*
X219105503Y-108724967D01*
X219042244Y-108834535D01*
X219042244Y-108834536D01*
X219009500Y-108956741D01*
X165200500Y-108956741D01*
X165200500Y-106786535D01*
X193969501Y-106786535D01*
X193969501Y-106993465D01*
X194009871Y-107196420D01*
X194048674Y-107290099D01*
X194089060Y-107387599D01*
X194089062Y-107387601D01*
X194120777Y-107435067D01*
X194204024Y-107559655D01*
X194350346Y-107705977D01*
X194521906Y-107820609D01*
X194522399Y-107820938D01*
X194522401Y-107820940D01*
X194522402Y-107820940D01*
X194522403Y-107820941D01*
X194713581Y-107900130D01*
X194916536Y-107940500D01*
X194916541Y-107940500D01*
X195123461Y-107940500D01*
X195123466Y-107940500D01*
X195326421Y-107900130D01*
X195517599Y-107820941D01*
X195689656Y-107705977D01*
X195835978Y-107559655D01*
X195950942Y-107387598D01*
X196030131Y-107196420D01*
X196070501Y-106993465D01*
X196070501Y-106786580D01*
X196510000Y-106786580D01*
X196510000Y-106993419D01*
X196550349Y-107196272D01*
X196629500Y-107387358D01*
X196629504Y-107387365D01*
X196661377Y-107435068D01*
X197077037Y-107019407D01*
X197094075Y-107082993D01*
X197159901Y-107197007D01*
X197252993Y-107290099D01*
X197367007Y-107355925D01*
X197430589Y-107372962D01*
X197014930Y-107788621D01*
X197062635Y-107820496D01*
X197062639Y-107820498D01*
X197253730Y-107899651D01*
X197456580Y-107939999D01*
X197456589Y-107940000D01*
X197663411Y-107940000D01*
X197663419Y-107939999D01*
X197866269Y-107899651D01*
X198057359Y-107820498D01*
X198105067Y-107788620D01*
X197689408Y-107372962D01*
X197752993Y-107355925D01*
X197867007Y-107290099D01*
X197960099Y-107197007D01*
X198025925Y-107082993D01*
X198042962Y-107019408D01*
X198458620Y-107435067D01*
X198490498Y-107387359D01*
X198569651Y-107196269D01*
X198609999Y-106993419D01*
X198610000Y-106993410D01*
X198610000Y-106786589D01*
X198609999Y-106786580D01*
X198569651Y-106583730D01*
X198490498Y-106392639D01*
X198490496Y-106392635D01*
X198458621Y-106344930D01*
X198042962Y-106760589D01*
X198025925Y-106697007D01*
X197960099Y-106582993D01*
X197867007Y-106489901D01*
X197752993Y-106424075D01*
X197689407Y-106407037D01*
X198076195Y-106020250D01*
X199049500Y-106020250D01*
X199049500Y-107759749D01*
X199061133Y-107818232D01*
X199090608Y-107862343D01*
X199105448Y-107884552D01*
X199171767Y-107928865D01*
X199171767Y-107928866D01*
X199171769Y-107928867D01*
X199230252Y-107940500D01*
X199230257Y-107940500D01*
X200969743Y-107940500D01*
X200969748Y-107940500D01*
X201028231Y-107928867D01*
X201094552Y-107884552D01*
X201138867Y-107818231D01*
X201150500Y-107759748D01*
X201150500Y-107437742D01*
X203640185Y-107437742D01*
X203640185Y-107564260D01*
X203672930Y-107686467D01*
X203736189Y-107796035D01*
X203825651Y-107885497D01*
X203935219Y-107948756D01*
X204057426Y-107981501D01*
X204057429Y-107981501D01*
X204183941Y-107981501D01*
X204183944Y-107981501D01*
X204306151Y-107948756D01*
X204415719Y-107885497D01*
X204505181Y-107796035D01*
X204568440Y-107686467D01*
X204601185Y-107564260D01*
X204601185Y-107437742D01*
X204568440Y-107315535D01*
X204505181Y-107205967D01*
X204415719Y-107116505D01*
X204306151Y-107053246D01*
X204306148Y-107053245D01*
X204282176Y-107046821D01*
X204183944Y-107020501D01*
X204057426Y-107020501D01*
X203979952Y-107041259D01*
X203935221Y-107053245D01*
X203935220Y-107053245D01*
X203825652Y-107116504D01*
X203736188Y-107205968D01*
X203672929Y-107315536D01*
X203672929Y-107315537D01*
X203657732Y-107372254D01*
X203640185Y-107437742D01*
X201150500Y-107437742D01*
X201150500Y-106020252D01*
X201138867Y-105961769D01*
X201131192Y-105950282D01*
X219413365Y-105950282D01*
X219413365Y-106076800D01*
X219446110Y-106199007D01*
X219509369Y-106308575D01*
X219598831Y-106398037D01*
X219708399Y-106461296D01*
X219830606Y-106494041D01*
X219830609Y-106494041D01*
X219957121Y-106494041D01*
X219957124Y-106494041D01*
X220079331Y-106461296D01*
X220188899Y-106398037D01*
X220278361Y-106308575D01*
X220341620Y-106199007D01*
X220374365Y-106076800D01*
X220374365Y-105950282D01*
X220341620Y-105828075D01*
X220278361Y-105718507D01*
X220188899Y-105629045D01*
X220079331Y-105565786D01*
X220079328Y-105565785D01*
X220055356Y-105559361D01*
X219957124Y-105533041D01*
X219830606Y-105533041D01*
X219753132Y-105553799D01*
X219708401Y-105565785D01*
X219708400Y-105565785D01*
X219598832Y-105629044D01*
X219509368Y-105718508D01*
X219446109Y-105828076D01*
X219446109Y-105828077D01*
X219439931Y-105851134D01*
X219413365Y-105950282D01*
X201131192Y-105950282D01*
X201094552Y-105895448D01*
X201028232Y-105851133D01*
X200969749Y-105839500D01*
X200969748Y-105839500D01*
X199230252Y-105839500D01*
X199230250Y-105839500D01*
X199171767Y-105851133D01*
X199171767Y-105851134D01*
X199105449Y-105895447D01*
X199105447Y-105895449D01*
X199061134Y-105961767D01*
X199061133Y-105961767D01*
X199049500Y-106020250D01*
X198076195Y-106020250D01*
X198105068Y-105991377D01*
X198057365Y-105959504D01*
X198057358Y-105959500D01*
X197866271Y-105880349D01*
X197866272Y-105880349D01*
X197663419Y-105840000D01*
X197456580Y-105840000D01*
X197253727Y-105880349D01*
X197062638Y-105959501D01*
X197062634Y-105959503D01*
X197014931Y-105991377D01*
X197430591Y-106407037D01*
X197367007Y-106424075D01*
X197252993Y-106489901D01*
X197159901Y-106582993D01*
X197094075Y-106697007D01*
X197077037Y-106760591D01*
X196661377Y-106344931D01*
X196629503Y-106392634D01*
X196629501Y-106392638D01*
X196550349Y-106583727D01*
X196510000Y-106786580D01*
X196070501Y-106786580D01*
X196070501Y-106786535D01*
X196030131Y-106583580D01*
X195950942Y-106392402D01*
X195835978Y-106220345D01*
X195689656Y-106074023D01*
X195518265Y-105959504D01*
X195517602Y-105959061D01*
X195517600Y-105959059D01*
X195438411Y-105926258D01*
X195326421Y-105879870D01*
X195163837Y-105847530D01*
X195123467Y-105839500D01*
X195123466Y-105839500D01*
X194916536Y-105839500D01*
X194916534Y-105839500D01*
X194835794Y-105855560D01*
X194713581Y-105879870D01*
X194713579Y-105879871D01*
X194522401Y-105959059D01*
X194522399Y-105959061D01*
X194350352Y-106074018D01*
X194350348Y-106074021D01*
X194204022Y-106220347D01*
X194204019Y-106220351D01*
X194089062Y-106392398D01*
X194089060Y-106392400D01*
X194060523Y-106461296D01*
X194009871Y-106583580D01*
X193969501Y-106786535D01*
X165200500Y-106786535D01*
X165200500Y-104860894D01*
X208375699Y-104860894D01*
X208375699Y-104987412D01*
X208408444Y-105109619D01*
X208471703Y-105219187D01*
X208561165Y-105308649D01*
X208670733Y-105371908D01*
X208792940Y-105404653D01*
X208792943Y-105404653D01*
X208919455Y-105404653D01*
X208919458Y-105404653D01*
X209041665Y-105371908D01*
X209151233Y-105308649D01*
X209240695Y-105219187D01*
X209303954Y-105109619D01*
X209336699Y-104987412D01*
X209336699Y-104936741D01*
X210319500Y-104936741D01*
X210319500Y-105063259D01*
X210352245Y-105185466D01*
X210415504Y-105295034D01*
X210504966Y-105384496D01*
X210614534Y-105447755D01*
X210736741Y-105480500D01*
X210736744Y-105480500D01*
X210863256Y-105480500D01*
X210863259Y-105480500D01*
X210985466Y-105447755D01*
X211095034Y-105384496D01*
X211184496Y-105295034D01*
X211247755Y-105185466D01*
X211280500Y-105063259D01*
X211280500Y-104936741D01*
X211247755Y-104814534D01*
X211184496Y-104704966D01*
X211095034Y-104615504D01*
X210985466Y-104552245D01*
X210985463Y-104552244D01*
X210961491Y-104545820D01*
X210863259Y-104519500D01*
X210736741Y-104519500D01*
X210659267Y-104540258D01*
X210614536Y-104552244D01*
X210614535Y-104552244D01*
X210504967Y-104615503D01*
X210415503Y-104704967D01*
X210352244Y-104814535D01*
X210352244Y-104814536D01*
X210319500Y-104936741D01*
X209336699Y-104936741D01*
X209336699Y-104860894D01*
X209303954Y-104738687D01*
X209240695Y-104629119D01*
X209151233Y-104539657D01*
X209041665Y-104476398D01*
X209041662Y-104476397D01*
X209016432Y-104469637D01*
X208919458Y-104443653D01*
X208792940Y-104443653D01*
X208715466Y-104464411D01*
X208670735Y-104476397D01*
X208670734Y-104476397D01*
X208561166Y-104539656D01*
X208471702Y-104629120D01*
X208408443Y-104738688D01*
X208408443Y-104738689D01*
X208375699Y-104860894D01*
X165200500Y-104860894D01*
X165200500Y-103958623D01*
X198270541Y-103958623D01*
X198270541Y-104085141D01*
X198303286Y-104207348D01*
X198366545Y-104316916D01*
X198456007Y-104406378D01*
X198565575Y-104469637D01*
X198687782Y-104502382D01*
X198687785Y-104502382D01*
X198814297Y-104502382D01*
X198814300Y-104502382D01*
X198936507Y-104469637D01*
X199046075Y-104406378D01*
X199135537Y-104316916D01*
X199175186Y-104248241D01*
X215878000Y-104248241D01*
X215878000Y-104374759D01*
X215910745Y-104496966D01*
X215974004Y-104606534D01*
X216063466Y-104695996D01*
X216173034Y-104759255D01*
X216295241Y-104792000D01*
X216295244Y-104792000D01*
X216421756Y-104792000D01*
X216421759Y-104792000D01*
X216543966Y-104759255D01*
X216653534Y-104695996D01*
X216742996Y-104606534D01*
X216806255Y-104496966D01*
X216839000Y-104374759D01*
X216839000Y-104248241D01*
X216806255Y-104126034D01*
X216742996Y-104016466D01*
X216653534Y-103927004D01*
X216543966Y-103863745D01*
X216543963Y-103863744D01*
X216519991Y-103857320D01*
X216421759Y-103831000D01*
X216295241Y-103831000D01*
X216217767Y-103851758D01*
X216173036Y-103863744D01*
X216173035Y-103863744D01*
X216063467Y-103927003D01*
X215974003Y-104016467D01*
X215910744Y-104126035D01*
X215910744Y-104126036D01*
X215878000Y-104248241D01*
X199175186Y-104248241D01*
X199198796Y-104207348D01*
X199231541Y-104085141D01*
X199231541Y-103958623D01*
X199198796Y-103836416D01*
X199135537Y-103726848D01*
X199046075Y-103637386D01*
X198936507Y-103574127D01*
X198936504Y-103574126D01*
X198912532Y-103567702D01*
X198814300Y-103541382D01*
X198687782Y-103541382D01*
X198610308Y-103562140D01*
X198565577Y-103574126D01*
X198565576Y-103574126D01*
X198456008Y-103637385D01*
X198366544Y-103726849D01*
X198303285Y-103836417D01*
X198303285Y-103836418D01*
X198295963Y-103863745D01*
X198270541Y-103958623D01*
X165200500Y-103958623D01*
X165200500Y-102827075D01*
X204206283Y-102827075D01*
X204206283Y-102953593D01*
X204239028Y-103075800D01*
X204302287Y-103185368D01*
X204391749Y-103274830D01*
X204501317Y-103338089D01*
X204623524Y-103370834D01*
X204623527Y-103370834D01*
X204750039Y-103370834D01*
X204750042Y-103370834D01*
X204872249Y-103338089D01*
X204936501Y-103300992D01*
X204983547Y-103294800D01*
X205021194Y-103323687D01*
X205029500Y-103354687D01*
X205029500Y-103373259D01*
X205062245Y-103495466D01*
X205125504Y-103605034D01*
X205214966Y-103694496D01*
X205324534Y-103757755D01*
X205446741Y-103790500D01*
X205446744Y-103790500D01*
X205573256Y-103790500D01*
X205573259Y-103790500D01*
X205695466Y-103757755D01*
X205805034Y-103694496D01*
X205862789Y-103636741D01*
X211019500Y-103636741D01*
X211019500Y-103763259D01*
X211052245Y-103885466D01*
X211115504Y-103995034D01*
X211204966Y-104084496D01*
X211314534Y-104147755D01*
X211436741Y-104180500D01*
X211436744Y-104180500D01*
X211563256Y-104180500D01*
X211563259Y-104180500D01*
X211685466Y-104147755D01*
X211795034Y-104084496D01*
X211884496Y-103995034D01*
X211947755Y-103885466D01*
X211980500Y-103763259D01*
X211980500Y-103636741D01*
X212219500Y-103636741D01*
X212219500Y-103763259D01*
X212252245Y-103885466D01*
X212315504Y-103995034D01*
X212404966Y-104084496D01*
X212514534Y-104147755D01*
X212636741Y-104180500D01*
X212636744Y-104180500D01*
X212763256Y-104180500D01*
X212763259Y-104180500D01*
X212885466Y-104147755D01*
X212995034Y-104084496D01*
X213084496Y-103995034D01*
X213147755Y-103885466D01*
X213180500Y-103763259D01*
X213180500Y-103636741D01*
X213419500Y-103636741D01*
X213419500Y-103763259D01*
X213452245Y-103885466D01*
X213515504Y-103995034D01*
X213604966Y-104084496D01*
X213714534Y-104147755D01*
X213836741Y-104180500D01*
X213836744Y-104180500D01*
X213963256Y-104180500D01*
X213963259Y-104180500D01*
X214085466Y-104147755D01*
X214195034Y-104084496D01*
X214284496Y-103995034D01*
X214347755Y-103885466D01*
X214380500Y-103763259D01*
X214380500Y-103636741D01*
X214619500Y-103636741D01*
X214619500Y-103763259D01*
X214652245Y-103885466D01*
X214715504Y-103995034D01*
X214804966Y-104084496D01*
X214914534Y-104147755D01*
X215036741Y-104180500D01*
X215036744Y-104180500D01*
X215163256Y-104180500D01*
X215163259Y-104180500D01*
X215285466Y-104147755D01*
X215395034Y-104084496D01*
X215484496Y-103995034D01*
X215547755Y-103885466D01*
X215580500Y-103763259D01*
X215580500Y-103636741D01*
X215547755Y-103514534D01*
X215484496Y-103404966D01*
X215395034Y-103315504D01*
X215285466Y-103252245D01*
X215285463Y-103252244D01*
X215243655Y-103241042D01*
X215163259Y-103219500D01*
X215036741Y-103219500D01*
X214959267Y-103240258D01*
X214914536Y-103252244D01*
X214914535Y-103252244D01*
X214804967Y-103315503D01*
X214715503Y-103404967D01*
X214652244Y-103514535D01*
X214652244Y-103514536D01*
X214619500Y-103636741D01*
X214380500Y-103636741D01*
X214347755Y-103514534D01*
X214284496Y-103404966D01*
X214208252Y-103328722D01*
X214190094Y-103284883D01*
X214208253Y-103241042D01*
X214252094Y-103222883D01*
X214256960Y-103222883D01*
X214337355Y-103201341D01*
X214366450Y-103193545D01*
X214464616Y-103136869D01*
X214544769Y-103056716D01*
X214600608Y-102959999D01*
X216645878Y-102959999D01*
X216645879Y-102960000D01*
X217133012Y-102960000D01*
X217115795Y-102969940D01*
X217059940Y-103025795D01*
X217020444Y-103094204D01*
X217000000Y-103170504D01*
X217000000Y-103249496D01*
X217020444Y-103325796D01*
X217059940Y-103394205D01*
X217115795Y-103450060D01*
X217133012Y-103460000D01*
X216645878Y-103460000D01*
X216679666Y-103541570D01*
X216679670Y-103541577D01*
X216756269Y-103656217D01*
X216756272Y-103656221D01*
X216853778Y-103753727D01*
X216853782Y-103753730D01*
X216968422Y-103830329D01*
X216968424Y-103830331D01*
X217095816Y-103883097D01*
X217231054Y-103909999D01*
X217231061Y-103910000D01*
X217599999Y-103910000D01*
X217600000Y-103909999D01*
X217600000Y-103510000D01*
X218100000Y-103510000D01*
X218100000Y-103909999D01*
X218100001Y-103910000D01*
X218468939Y-103910000D01*
X218468945Y-103909999D01*
X218604183Y-103883097D01*
X218731575Y-103830331D01*
X218731577Y-103830329D01*
X218846217Y-103753730D01*
X218846221Y-103753727D01*
X218943727Y-103656221D01*
X218943730Y-103656217D01*
X219020329Y-103541577D01*
X219020333Y-103541570D01*
X219054121Y-103460000D01*
X218566988Y-103460000D01*
X218584205Y-103450060D01*
X218640060Y-103394205D01*
X218679556Y-103325796D01*
X218700000Y-103249496D01*
X218700000Y-103170504D01*
X218679556Y-103094204D01*
X218640060Y-103025795D01*
X218584205Y-102969940D01*
X218566988Y-102960000D01*
X219054121Y-102960000D01*
X219054121Y-102959999D01*
X221075878Y-102959999D01*
X221075879Y-102960000D01*
X221563012Y-102960000D01*
X221545795Y-102969940D01*
X221489940Y-103025795D01*
X221450444Y-103094204D01*
X221430000Y-103170504D01*
X221430000Y-103249496D01*
X221450444Y-103325796D01*
X221489940Y-103394205D01*
X221545795Y-103450060D01*
X221563012Y-103460000D01*
X221075878Y-103460000D01*
X221109666Y-103541570D01*
X221109670Y-103541577D01*
X221186269Y-103656217D01*
X221186272Y-103656221D01*
X221283778Y-103753727D01*
X221283782Y-103753730D01*
X221398422Y-103830329D01*
X221398424Y-103830331D01*
X221525816Y-103883097D01*
X221661054Y-103909999D01*
X221661061Y-103910000D01*
X221779999Y-103910000D01*
X221780000Y-103909999D01*
X221780000Y-103510000D01*
X222280000Y-103510000D01*
X222280000Y-103909999D01*
X222280001Y-103910000D01*
X222398939Y-103910000D01*
X222398945Y-103909999D01*
X222534183Y-103883097D01*
X222661575Y-103830331D01*
X222661577Y-103830329D01*
X222776217Y-103753730D01*
X222776221Y-103753727D01*
X222873727Y-103656221D01*
X222873730Y-103656217D01*
X222950329Y-103541577D01*
X222950333Y-103541570D01*
X222984121Y-103460000D01*
X222496988Y-103460000D01*
X222514205Y-103450060D01*
X222570060Y-103394205D01*
X222609556Y-103325796D01*
X222630000Y-103249496D01*
X222630000Y-103170504D01*
X222609556Y-103094204D01*
X222570060Y-103025795D01*
X222514205Y-102969940D01*
X222496988Y-102960000D01*
X222984121Y-102960000D01*
X222984121Y-102959999D01*
X222950333Y-102878429D01*
X222950329Y-102878422D01*
X222873730Y-102763782D01*
X222873727Y-102763778D01*
X222776221Y-102666272D01*
X222776217Y-102666269D01*
X222661577Y-102589670D01*
X222661575Y-102589668D01*
X222534183Y-102536902D01*
X222398945Y-102510000D01*
X222280001Y-102510000D01*
X222280000Y-102510001D01*
X222280000Y-102910000D01*
X221780000Y-102910000D01*
X221780000Y-102510001D01*
X221779999Y-102510000D01*
X221661054Y-102510000D01*
X221525816Y-102536902D01*
X221398424Y-102589668D01*
X221398422Y-102589670D01*
X221283782Y-102666269D01*
X221283778Y-102666272D01*
X221186272Y-102763778D01*
X221186269Y-102763782D01*
X221109670Y-102878422D01*
X221109666Y-102878429D01*
X221075878Y-102959999D01*
X219054121Y-102959999D01*
X219020333Y-102878429D01*
X219020329Y-102878422D01*
X218943730Y-102763782D01*
X218943727Y-102763778D01*
X218846221Y-102666272D01*
X218846217Y-102666269D01*
X218731577Y-102589670D01*
X218731575Y-102589668D01*
X218604183Y-102536902D01*
X218468945Y-102510000D01*
X218100001Y-102510000D01*
X218100000Y-102510001D01*
X218100000Y-102910000D01*
X217600000Y-102910000D01*
X217600000Y-102510001D01*
X217599999Y-102510000D01*
X217231054Y-102510000D01*
X217095816Y-102536902D01*
X216968424Y-102589668D01*
X216968422Y-102589670D01*
X216853782Y-102666269D01*
X216853778Y-102666272D01*
X216756272Y-102763778D01*
X216756269Y-102763782D01*
X216679670Y-102878422D01*
X216679666Y-102878429D01*
X216645878Y-102959999D01*
X214600608Y-102959999D01*
X214601445Y-102958550D01*
X214621401Y-102884073D01*
X214630783Y-102849060D01*
X214630783Y-102735705D01*
X214601447Y-102626223D01*
X214601445Y-102626217D01*
X214601445Y-102626216D01*
X214544769Y-102528050D01*
X214464616Y-102447897D01*
X214366450Y-102391221D01*
X214366449Y-102391220D01*
X214366448Y-102391220D01*
X214366442Y-102391218D01*
X214256960Y-102361883D01*
X214256959Y-102361883D01*
X214143607Y-102361883D01*
X214143606Y-102361883D01*
X214034123Y-102391218D01*
X214034117Y-102391220D01*
X213935951Y-102447896D01*
X213855796Y-102528051D01*
X213799120Y-102626217D01*
X213799118Y-102626223D01*
X213769783Y-102735705D01*
X213769783Y-102849060D01*
X213799118Y-102958542D01*
X213799120Y-102958548D01*
X213799121Y-102958550D01*
X213855797Y-103056716D01*
X213912741Y-103113660D01*
X213930900Y-103157500D01*
X213912741Y-103201341D01*
X213868900Y-103219500D01*
X213836741Y-103219500D01*
X213759267Y-103240258D01*
X213714536Y-103252244D01*
X213714535Y-103252244D01*
X213604967Y-103315503D01*
X213515503Y-103404967D01*
X213452244Y-103514535D01*
X213452244Y-103514536D01*
X213419500Y-103636741D01*
X213180500Y-103636741D01*
X213147755Y-103514534D01*
X213084496Y-103404966D01*
X212995034Y-103315504D01*
X212885466Y-103252245D01*
X212885463Y-103252244D01*
X212843655Y-103241042D01*
X212763259Y-103219500D01*
X212636741Y-103219500D01*
X212559267Y-103240258D01*
X212514536Y-103252244D01*
X212514535Y-103252244D01*
X212404967Y-103315503D01*
X212315503Y-103404967D01*
X212252244Y-103514535D01*
X212252244Y-103514536D01*
X212219500Y-103636741D01*
X211980500Y-103636741D01*
X211947755Y-103514534D01*
X211884496Y-103404966D01*
X211795034Y-103315504D01*
X211685466Y-103252245D01*
X211685463Y-103252244D01*
X211643655Y-103241042D01*
X211563259Y-103219500D01*
X211436741Y-103219500D01*
X211359267Y-103240258D01*
X211314536Y-103252244D01*
X211314535Y-103252244D01*
X211204967Y-103315503D01*
X211115503Y-103404967D01*
X211052244Y-103514535D01*
X211052244Y-103514536D01*
X211019500Y-103636741D01*
X205862789Y-103636741D01*
X205894496Y-103605034D01*
X205957755Y-103495466D01*
X205990500Y-103373259D01*
X205990500Y-103246741D01*
X205957755Y-103124534D01*
X205894496Y-103014966D01*
X205805034Y-102925504D01*
X205695466Y-102862245D01*
X205695463Y-102862244D01*
X205671491Y-102855820D01*
X205591707Y-102834443D01*
X207095460Y-102834443D01*
X207095460Y-102960961D01*
X207128205Y-103083168D01*
X207191464Y-103192736D01*
X207280926Y-103282198D01*
X207390494Y-103345457D01*
X207512701Y-103378202D01*
X207512704Y-103378202D01*
X207639216Y-103378202D01*
X207639219Y-103378202D01*
X207761426Y-103345457D01*
X207870994Y-103282198D01*
X207960456Y-103192736D01*
X208023715Y-103083168D01*
X208056460Y-102960961D01*
X208056460Y-102834443D01*
X208023715Y-102712236D01*
X207960456Y-102602668D01*
X207870994Y-102513206D01*
X207761426Y-102449947D01*
X207761423Y-102449946D01*
X207733924Y-102442578D01*
X207639219Y-102417202D01*
X207512701Y-102417202D01*
X207435227Y-102437960D01*
X207390496Y-102449946D01*
X207390495Y-102449946D01*
X207280927Y-102513205D01*
X207191463Y-102602669D01*
X207128204Y-102712237D01*
X207128204Y-102712238D01*
X207121916Y-102735707D01*
X207095460Y-102834443D01*
X205591707Y-102834443D01*
X205573259Y-102829500D01*
X205446741Y-102829500D01*
X205369267Y-102850258D01*
X205324536Y-102862244D01*
X205324532Y-102862246D01*
X205260282Y-102899340D01*
X205213236Y-102905533D01*
X205175589Y-102876645D01*
X205167283Y-102845646D01*
X205167283Y-102827077D01*
X205167283Y-102827075D01*
X205134538Y-102704868D01*
X205071279Y-102595300D01*
X204981817Y-102505838D01*
X204872249Y-102442579D01*
X204872246Y-102442578D01*
X204848274Y-102436154D01*
X204750042Y-102409834D01*
X204623524Y-102409834D01*
X204546050Y-102430592D01*
X204501319Y-102442578D01*
X204501318Y-102442578D01*
X204391750Y-102505837D01*
X204302286Y-102595301D01*
X204239027Y-102704869D01*
X204239027Y-102704870D01*
X204237053Y-102712237D01*
X204206283Y-102827075D01*
X165200500Y-102827075D01*
X165200500Y-102022941D01*
X195939500Y-102022941D01*
X195939500Y-102149459D01*
X195972245Y-102271666D01*
X196035504Y-102381234D01*
X196124966Y-102470696D01*
X196234534Y-102533955D01*
X196356741Y-102566700D01*
X196356744Y-102566700D01*
X196483256Y-102566700D01*
X196483259Y-102566700D01*
X196605466Y-102533955D01*
X196715034Y-102470696D01*
X196804496Y-102381234D01*
X196867755Y-102271666D01*
X196900500Y-102149459D01*
X196900500Y-102022941D01*
X196867755Y-101900734D01*
X196853447Y-101875952D01*
X201651246Y-101875952D01*
X201651246Y-101989307D01*
X201680581Y-102098789D01*
X201680583Y-102098795D01*
X201680584Y-102098797D01*
X201737260Y-102196963D01*
X201817413Y-102277116D01*
X201915579Y-102333792D01*
X201915584Y-102333793D01*
X201915586Y-102333794D01*
X202025069Y-102363130D01*
X202025070Y-102363130D01*
X202138423Y-102363130D01*
X202209705Y-102344029D01*
X202247913Y-102333792D01*
X202346079Y-102277116D01*
X202426232Y-102196963D01*
X202482908Y-102098797D01*
X202512246Y-101989306D01*
X202512246Y-101961789D01*
X208958520Y-101961789D01*
X208958520Y-102088307D01*
X208984840Y-102186539D01*
X208987633Y-102196961D01*
X208991265Y-102210514D01*
X209054524Y-102320082D01*
X209143986Y-102409544D01*
X209253554Y-102472803D01*
X209375761Y-102505548D01*
X209375764Y-102505548D01*
X209502276Y-102505548D01*
X209502279Y-102505548D01*
X209624486Y-102472803D01*
X209734054Y-102409544D01*
X209823516Y-102320082D01*
X209886775Y-102210514D01*
X209919520Y-102088307D01*
X209919520Y-101961789D01*
X209886775Y-101839582D01*
X209823516Y-101730014D01*
X209797207Y-101703705D01*
X217800500Y-101703705D01*
X217800500Y-101856294D01*
X217839989Y-102003670D01*
X217839991Y-102003675D01*
X217839992Y-102003678D01*
X217916285Y-102135821D01*
X218024179Y-102243715D01*
X218156322Y-102320008D01*
X218156328Y-102320009D01*
X218156329Y-102320010D01*
X218303706Y-102359500D01*
X218303707Y-102359500D01*
X218456294Y-102359500D01*
X218552244Y-102333789D01*
X218603678Y-102320008D01*
X218735821Y-102243715D01*
X218843715Y-102135821D01*
X218920008Y-102003678D01*
X218933789Y-101952244D01*
X218959500Y-101856294D01*
X218959500Y-101703705D01*
X218920010Y-101556329D01*
X218920009Y-101556328D01*
X218920008Y-101556322D01*
X218843715Y-101424179D01*
X218817216Y-101397680D01*
X218799058Y-101353841D01*
X218817217Y-101310000D01*
X218845010Y-101293953D01*
X218905466Y-101277755D01*
X219015034Y-101214496D01*
X219104496Y-101125034D01*
X219167755Y-101015466D01*
X219200500Y-100893259D01*
X219200500Y-100766741D01*
X219167755Y-100644534D01*
X219104496Y-100534966D01*
X219015034Y-100445504D01*
X218905466Y-100382245D01*
X218905463Y-100382244D01*
X218881491Y-100375820D01*
X218783259Y-100349500D01*
X218656741Y-100349500D01*
X218579267Y-100370258D01*
X218534536Y-100382244D01*
X218534535Y-100382244D01*
X218424967Y-100445503D01*
X218335503Y-100534967D01*
X218272244Y-100644535D01*
X218272244Y-100644536D01*
X218260888Y-100686918D01*
X218239500Y-100766741D01*
X218239500Y-100893259D01*
X218265820Y-100991491D01*
X218272244Y-101015463D01*
X218272244Y-101015464D01*
X218328577Y-101113036D01*
X218334770Y-101160083D01*
X218305883Y-101197730D01*
X218290930Y-101203923D01*
X218156329Y-101239989D01*
X218156324Y-101239991D01*
X218024180Y-101316284D01*
X218024179Y-101316285D01*
X217916285Y-101424179D01*
X217847811Y-101542780D01*
X217839991Y-101556324D01*
X217839989Y-101556329D01*
X217800500Y-101703705D01*
X209797207Y-101703705D01*
X209734054Y-101640552D01*
X209624486Y-101577293D01*
X209624483Y-101577292D01*
X209600511Y-101570868D01*
X209502279Y-101544548D01*
X209375761Y-101544548D01*
X209298287Y-101565306D01*
X209253556Y-101577292D01*
X209253555Y-101577292D01*
X209143987Y-101640551D01*
X209054523Y-101730015D01*
X208991264Y-101839583D01*
X208991264Y-101839584D01*
X208958520Y-101961789D01*
X202512246Y-101961789D01*
X202512246Y-101875954D01*
X202512246Y-101875952D01*
X202482910Y-101766470D01*
X202482908Y-101766464D01*
X202482908Y-101766463D01*
X202426232Y-101668297D01*
X202346079Y-101588144D01*
X202247913Y-101531468D01*
X202247912Y-101531467D01*
X202247911Y-101531467D01*
X202247905Y-101531465D01*
X202138423Y-101502130D01*
X202138422Y-101502130D01*
X202025070Y-101502130D01*
X202025069Y-101502130D01*
X201915586Y-101531465D01*
X201915580Y-101531467D01*
X201817414Y-101588143D01*
X201737259Y-101668298D01*
X201680583Y-101766464D01*
X201680581Y-101766470D01*
X201651246Y-101875952D01*
X196853447Y-101875952D01*
X196804496Y-101791166D01*
X196715034Y-101701704D01*
X196605466Y-101638445D01*
X196605463Y-101638444D01*
X196581491Y-101632020D01*
X196483259Y-101605700D01*
X196356741Y-101605700D01*
X196279267Y-101626458D01*
X196234536Y-101638444D01*
X196234535Y-101638444D01*
X196124967Y-101701703D01*
X196035503Y-101791167D01*
X195972244Y-101900735D01*
X195972244Y-101900736D01*
X195939500Y-102022941D01*
X165200500Y-102022941D01*
X165200500Y-100896741D01*
X194919500Y-100896741D01*
X194919500Y-101023259D01*
X194952245Y-101145466D01*
X195015504Y-101255034D01*
X195104966Y-101344496D01*
X195214534Y-101407755D01*
X195336741Y-101440500D01*
X195336744Y-101440500D01*
X195463256Y-101440500D01*
X195463259Y-101440500D01*
X195585466Y-101407755D01*
X195695034Y-101344496D01*
X195784496Y-101255034D01*
X195847755Y-101145466D01*
X195880500Y-101023259D01*
X195880500Y-100896741D01*
X195879919Y-100894572D01*
X199680749Y-100894572D01*
X199680749Y-101007927D01*
X199710084Y-101117409D01*
X199710086Y-101117415D01*
X199710087Y-101117417D01*
X199766763Y-101215583D01*
X199846916Y-101295736D01*
X199945082Y-101352412D01*
X199945087Y-101352413D01*
X199945089Y-101352414D01*
X200054572Y-101381750D01*
X200054573Y-101381750D01*
X200167926Y-101381750D01*
X200239208Y-101362649D01*
X200277416Y-101352412D01*
X200375582Y-101295736D01*
X200455735Y-101215583D01*
X200512411Y-101117417D01*
X200537641Y-101023259D01*
X200541749Y-101007927D01*
X200541749Y-100894572D01*
X200512413Y-100785090D01*
X200512411Y-100785084D01*
X200512411Y-100785083D01*
X200455735Y-100686917D01*
X200375582Y-100606764D01*
X200277416Y-100550088D01*
X200277415Y-100550087D01*
X200277414Y-100550087D01*
X200277408Y-100550085D01*
X200167926Y-100520750D01*
X200167925Y-100520750D01*
X200054573Y-100520750D01*
X200054572Y-100520750D01*
X199945089Y-100550085D01*
X199945083Y-100550087D01*
X199846917Y-100606763D01*
X199766762Y-100686918D01*
X199710086Y-100785084D01*
X199710084Y-100785090D01*
X199680749Y-100894572D01*
X195879919Y-100894572D01*
X195847755Y-100774534D01*
X195784496Y-100664966D01*
X195695034Y-100575504D01*
X195585466Y-100512245D01*
X195585463Y-100512244D01*
X195561491Y-100505820D01*
X195463259Y-100479500D01*
X195336741Y-100479500D01*
X195259267Y-100500258D01*
X195214536Y-100512244D01*
X195214535Y-100512244D01*
X195104967Y-100575503D01*
X195015503Y-100664967D01*
X194952244Y-100774535D01*
X194952244Y-100774536D01*
X194939727Y-100821253D01*
X194919500Y-100896741D01*
X165200500Y-100896741D01*
X165200500Y-100327738D01*
X203101052Y-100327738D01*
X203101052Y-100454256D01*
X203133797Y-100576463D01*
X203197056Y-100686031D01*
X203286518Y-100775493D01*
X203396086Y-100838752D01*
X203502673Y-100867311D01*
X203540318Y-100896197D01*
X203546513Y-100943243D01*
X203532834Y-100994296D01*
X203529500Y-101006741D01*
X203529500Y-101133259D01*
X203552021Y-101217310D01*
X203558098Y-101239991D01*
X203562245Y-101255466D01*
X203625504Y-101365034D01*
X203714966Y-101454496D01*
X203824534Y-101517755D01*
X203946741Y-101550500D01*
X203946744Y-101550500D01*
X204073256Y-101550500D01*
X204073259Y-101550500D01*
X204195466Y-101517755D01*
X204305034Y-101454496D01*
X204394496Y-101365034D01*
X204457755Y-101255466D01*
X204490500Y-101133259D01*
X204490500Y-101122587D01*
X204508659Y-101078746D01*
X204552500Y-101060587D01*
X204596341Y-101078746D01*
X204606191Y-101091583D01*
X204625504Y-101125034D01*
X204714966Y-101214496D01*
X204824534Y-101277755D01*
X204946741Y-101310500D01*
X204946744Y-101310500D01*
X205073256Y-101310500D01*
X205073259Y-101310500D01*
X205195466Y-101277755D01*
X205305034Y-101214496D01*
X205330013Y-101189516D01*
X205373852Y-101171357D01*
X205417693Y-101189516D01*
X205433740Y-101217310D01*
X205450667Y-101280483D01*
X205450669Y-101280488D01*
X205450670Y-101280491D01*
X205513929Y-101390059D01*
X205603391Y-101479521D01*
X205712959Y-101542780D01*
X205835166Y-101575525D01*
X205835169Y-101575525D01*
X205961681Y-101575525D01*
X205961684Y-101575525D01*
X206083891Y-101542780D01*
X206193459Y-101479521D01*
X206282921Y-101390059D01*
X206346180Y-101280491D01*
X206378925Y-101158284D01*
X206378925Y-101042145D01*
X206588498Y-101042145D01*
X206588498Y-101168663D01*
X206621243Y-101290870D01*
X206684502Y-101400438D01*
X206773964Y-101489900D01*
X206883532Y-101553159D01*
X207005739Y-101585904D01*
X207005742Y-101585904D01*
X207132254Y-101585904D01*
X207132257Y-101585904D01*
X207254464Y-101553159D01*
X207364032Y-101489900D01*
X207453494Y-101400438D01*
X207516753Y-101290870D01*
X207549498Y-101168663D01*
X207549498Y-101042145D01*
X207524466Y-100948723D01*
X207524466Y-100948721D01*
X207521256Y-100936741D01*
X207719500Y-100936741D01*
X207719500Y-101063259D01*
X207741526Y-101145463D01*
X207748464Y-101171357D01*
X207752245Y-101185466D01*
X207815504Y-101295034D01*
X207904966Y-101384496D01*
X208014534Y-101447755D01*
X208136741Y-101480500D01*
X208136744Y-101480500D01*
X208263256Y-101480500D01*
X208263259Y-101480500D01*
X208385466Y-101447755D01*
X208495034Y-101384496D01*
X208584496Y-101295034D01*
X208647755Y-101185466D01*
X208680500Y-101063259D01*
X208680500Y-100936741D01*
X208647755Y-100814534D01*
X208584496Y-100704966D01*
X208495034Y-100615504D01*
X208385466Y-100552245D01*
X208385463Y-100552244D01*
X208361491Y-100545820D01*
X208263259Y-100519500D01*
X208136741Y-100519500D01*
X208059267Y-100540258D01*
X208014536Y-100552244D01*
X208014535Y-100552244D01*
X207904967Y-100615503D01*
X207815503Y-100704967D01*
X207752244Y-100814535D01*
X207752244Y-100814536D01*
X207745756Y-100838752D01*
X207719500Y-100936741D01*
X207521256Y-100936741D01*
X207516755Y-100919945D01*
X207516754Y-100919943D01*
X207516753Y-100919938D01*
X207453494Y-100810370D01*
X207364032Y-100720908D01*
X207254464Y-100657649D01*
X207254461Y-100657648D01*
X207230489Y-100651224D01*
X207132257Y-100624904D01*
X207005739Y-100624904D01*
X206932478Y-100644534D01*
X206883534Y-100657648D01*
X206883533Y-100657648D01*
X206773965Y-100720907D01*
X206684501Y-100810371D01*
X206621242Y-100919939D01*
X206621242Y-100919940D01*
X206613530Y-100948723D01*
X206588498Y-101042145D01*
X206378925Y-101042145D01*
X206378925Y-101031766D01*
X206346180Y-100909559D01*
X206282921Y-100799991D01*
X206193459Y-100710529D01*
X206083891Y-100647270D01*
X206083888Y-100647269D01*
X206059916Y-100640845D01*
X205961684Y-100614525D01*
X205835166Y-100614525D01*
X205757692Y-100635283D01*
X205712961Y-100647269D01*
X205712960Y-100647269D01*
X205603392Y-100710528D01*
X205603388Y-100710531D01*
X205578411Y-100735508D01*
X205534570Y-100753667D01*
X205490730Y-100735507D01*
X205474684Y-100707715D01*
X205457755Y-100644534D01*
X205394496Y-100534966D01*
X205305034Y-100445504D01*
X205195466Y-100382245D01*
X205195463Y-100382244D01*
X205171491Y-100375820D01*
X205073259Y-100349500D01*
X204946741Y-100349500D01*
X204869267Y-100370258D01*
X204824536Y-100382244D01*
X204824535Y-100382244D01*
X204714967Y-100445503D01*
X204625503Y-100534967D01*
X204562244Y-100644535D01*
X204562244Y-100644536D01*
X204550888Y-100686918D01*
X204529500Y-100766741D01*
X204529500Y-100766743D01*
X204529500Y-100777412D01*
X204511341Y-100821253D01*
X204467500Y-100839412D01*
X204423659Y-100821253D01*
X204413807Y-100808412D01*
X204394500Y-100774972D01*
X204394497Y-100774968D01*
X204394496Y-100774966D01*
X204305034Y-100685504D01*
X204195466Y-100622245D01*
X204195465Y-100622244D01*
X204195464Y-100622244D01*
X204195457Y-100622241D01*
X204088880Y-100593685D01*
X204051233Y-100564798D01*
X204045039Y-100517752D01*
X204062052Y-100454257D01*
X204062052Y-100327740D01*
X204062052Y-100327738D01*
X204029307Y-100205531D01*
X203966048Y-100095963D01*
X203966047Y-100095962D01*
X203964422Y-100093147D01*
X203958229Y-100046100D01*
X203987116Y-100008453D01*
X204002069Y-100002259D01*
X204006167Y-100001162D01*
X204006169Y-100001160D01*
X204006172Y-100001160D01*
X204104326Y-99944490D01*
X204104331Y-99944487D01*
X204104330Y-99944487D01*
X204104333Y-99944486D01*
X204184486Y-99864333D01*
X204241162Y-99766167D01*
X204270500Y-99656676D01*
X204270500Y-99605570D01*
X207812299Y-99605570D01*
X207812299Y-99718925D01*
X207841634Y-99828407D01*
X207841636Y-99828413D01*
X207841637Y-99828415D01*
X207898313Y-99926581D01*
X207978466Y-100006734D01*
X208076632Y-100063410D01*
X208076637Y-100063411D01*
X208076639Y-100063412D01*
X208186122Y-100092748D01*
X208186123Y-100092748D01*
X208299476Y-100092748D01*
X208370758Y-100073647D01*
X208408966Y-100063410D01*
X208507132Y-100006734D01*
X208587285Y-99926581D01*
X208643961Y-99828415D01*
X208660641Y-99766165D01*
X208673299Y-99718925D01*
X208673299Y-99605570D01*
X208662618Y-99565709D01*
X208662618Y-99565708D01*
X208659407Y-99553724D01*
X211225055Y-99553724D01*
X211225055Y-99667079D01*
X211254390Y-99776561D01*
X211254392Y-99776567D01*
X211254393Y-99776569D01*
X211311069Y-99874735D01*
X211391222Y-99954888D01*
X211489388Y-100011564D01*
X211489393Y-100011565D01*
X211489395Y-100011566D01*
X211598878Y-100040902D01*
X211598879Y-100040902D01*
X211712232Y-100040902D01*
X211783514Y-100021801D01*
X211821722Y-100011564D01*
X211919888Y-99954888D01*
X212000041Y-99874735D01*
X212000042Y-99874732D01*
X212000622Y-99874153D01*
X212044463Y-99855993D01*
X212088303Y-99874152D01*
X212088304Y-99874152D01*
X212088884Y-99874732D01*
X212088886Y-99874735D01*
X212169039Y-99954888D01*
X212267205Y-100011564D01*
X212267210Y-100011565D01*
X212267212Y-100011566D01*
X212376695Y-100040902D01*
X212376696Y-100040902D01*
X212490049Y-100040902D01*
X212561331Y-100021801D01*
X212599539Y-100011564D01*
X212697705Y-99954888D01*
X212777858Y-99874735D01*
X212834534Y-99776569D01*
X212863872Y-99667078D01*
X212863872Y-99553726D01*
X212863872Y-99553724D01*
X212834536Y-99444242D01*
X212834534Y-99444236D01*
X212834534Y-99444235D01*
X212777858Y-99346069D01*
X212697705Y-99265916D01*
X212599539Y-99209240D01*
X212599538Y-99209239D01*
X212599537Y-99209239D01*
X212599531Y-99209237D01*
X212490049Y-99179902D01*
X212490048Y-99179902D01*
X212376696Y-99179902D01*
X212376695Y-99179902D01*
X212267212Y-99209237D01*
X212267206Y-99209239D01*
X212169040Y-99265915D01*
X212169036Y-99265918D01*
X212088303Y-99346651D01*
X212044463Y-99364810D01*
X212000622Y-99346651D01*
X212000042Y-99346071D01*
X212000041Y-99346069D01*
X211919888Y-99265916D01*
X211821722Y-99209240D01*
X211821721Y-99209239D01*
X211821720Y-99209239D01*
X211821714Y-99209237D01*
X211712232Y-99179902D01*
X211712231Y-99179902D01*
X211598879Y-99179902D01*
X211598878Y-99179902D01*
X211489395Y-99209237D01*
X211489389Y-99209239D01*
X211391223Y-99265915D01*
X211311068Y-99346070D01*
X211254392Y-99444236D01*
X211254390Y-99444242D01*
X211225055Y-99553724D01*
X208659407Y-99553724D01*
X208643964Y-99496089D01*
X208643961Y-99496082D01*
X208643961Y-99496081D01*
X208587285Y-99397915D01*
X208507132Y-99317762D01*
X208408966Y-99261086D01*
X208408965Y-99261085D01*
X208408964Y-99261085D01*
X208408958Y-99261083D01*
X208299476Y-99231748D01*
X208299475Y-99231748D01*
X208186123Y-99231748D01*
X208186122Y-99231748D01*
X208076639Y-99261083D01*
X208076633Y-99261085D01*
X207978467Y-99317761D01*
X207898312Y-99397916D01*
X207841636Y-99496082D01*
X207841634Y-99496088D01*
X207812299Y-99605570D01*
X204270500Y-99605570D01*
X204270500Y-99543324D01*
X204270500Y-99543322D01*
X204241164Y-99433840D01*
X204241162Y-99433834D01*
X204241162Y-99433833D01*
X204184486Y-99335667D01*
X204104333Y-99255514D01*
X204006167Y-99198838D01*
X204006166Y-99198837D01*
X204006165Y-99198837D01*
X204006160Y-99198835D01*
X204002849Y-99197948D01*
X203965205Y-99169056D01*
X203959016Y-99122009D01*
X203965207Y-99107065D01*
X203967314Y-99103417D01*
X203977551Y-99065209D01*
X203996652Y-98993927D01*
X203996652Y-98880572D01*
X203967316Y-98771090D01*
X203967314Y-98771084D01*
X203967314Y-98771083D01*
X203910638Y-98672917D01*
X203830485Y-98592764D01*
X203732319Y-98536088D01*
X203732318Y-98536087D01*
X203732317Y-98536087D01*
X203732311Y-98536085D01*
X203622829Y-98506750D01*
X203622828Y-98506750D01*
X203509476Y-98506750D01*
X203509475Y-98506750D01*
X203399992Y-98536085D01*
X203399986Y-98536087D01*
X203301820Y-98592763D01*
X203221665Y-98672918D01*
X203164989Y-98771084D01*
X203164987Y-98771090D01*
X203135652Y-98880572D01*
X203135652Y-98993927D01*
X203164987Y-99103409D01*
X203164989Y-99103415D01*
X203164990Y-99103417D01*
X203221666Y-99201583D01*
X203301819Y-99281736D01*
X203301821Y-99281737D01*
X203301825Y-99281740D01*
X203399981Y-99338411D01*
X203399985Y-99338412D01*
X203403289Y-99339297D01*
X203440939Y-99368180D01*
X203447138Y-99415226D01*
X203440945Y-99430181D01*
X203438838Y-99433830D01*
X203438837Y-99433833D01*
X203409500Y-99543322D01*
X203409500Y-99656677D01*
X203438835Y-99766159D01*
X203438837Y-99766165D01*
X203438838Y-99766167D01*
X203467051Y-99815034D01*
X203481248Y-99839623D01*
X203487441Y-99886670D01*
X203458554Y-99924317D01*
X203443600Y-99930510D01*
X203396094Y-99943238D01*
X203396087Y-99943241D01*
X203286519Y-100006500D01*
X203197055Y-100095964D01*
X203133796Y-100205532D01*
X203133796Y-100205533D01*
X203101052Y-100327738D01*
X165200500Y-100327738D01*
X165200500Y-99456741D01*
X193949500Y-99456741D01*
X193949500Y-99583259D01*
X193982245Y-99705466D01*
X194045504Y-99815034D01*
X194134966Y-99904496D01*
X194244534Y-99967755D01*
X194366741Y-100000500D01*
X194366744Y-100000500D01*
X194493256Y-100000500D01*
X194493259Y-100000500D01*
X194615466Y-99967755D01*
X194725034Y-99904496D01*
X194814496Y-99815034D01*
X194877755Y-99705466D01*
X194910500Y-99583259D01*
X194910500Y-99456741D01*
X194877755Y-99334534D01*
X194814496Y-99224966D01*
X194725034Y-99135504D01*
X194615466Y-99072245D01*
X194615463Y-99072244D01*
X194591491Y-99065820D01*
X194493259Y-99039500D01*
X194366741Y-99039500D01*
X194289267Y-99060258D01*
X194244536Y-99072244D01*
X194244535Y-99072244D01*
X194134967Y-99135503D01*
X194045503Y-99224967D01*
X193982244Y-99334535D01*
X193982244Y-99334536D01*
X193967047Y-99391253D01*
X193949500Y-99456741D01*
X165200500Y-99456741D01*
X165200500Y-98077711D01*
X208386835Y-98077711D01*
X208386835Y-98191066D01*
X208416170Y-98300548D01*
X208416172Y-98300554D01*
X208416173Y-98300556D01*
X208472849Y-98398722D01*
X208553002Y-98478875D01*
X208651168Y-98535551D01*
X208651173Y-98535552D01*
X208651175Y-98535553D01*
X208760658Y-98564889D01*
X208760659Y-98564889D01*
X208874012Y-98564889D01*
X208945294Y-98545788D01*
X208983502Y-98535551D01*
X209081668Y-98478875D01*
X209161821Y-98398722D01*
X209218497Y-98300556D01*
X209247835Y-98191065D01*
X209247835Y-98077713D01*
X209247835Y-98077711D01*
X209218499Y-97968229D01*
X209218497Y-97968223D01*
X209218497Y-97968222D01*
X209161821Y-97870056D01*
X209081668Y-97789903D01*
X208983502Y-97733227D01*
X208983501Y-97733226D01*
X208983500Y-97733226D01*
X208983494Y-97733224D01*
X208874012Y-97703889D01*
X208874011Y-97703889D01*
X208760659Y-97703889D01*
X208760658Y-97703889D01*
X208651175Y-97733224D01*
X208651169Y-97733226D01*
X208553003Y-97789902D01*
X208472848Y-97870057D01*
X208416172Y-97968223D01*
X208416170Y-97968229D01*
X208386835Y-98077711D01*
X165200500Y-98077711D01*
X165200500Y-97475698D01*
X203083180Y-97475698D01*
X203083180Y-97589053D01*
X203112515Y-97698535D01*
X203112517Y-97698541D01*
X203112518Y-97698543D01*
X203169194Y-97796709D01*
X203249347Y-97876862D01*
X203347513Y-97933538D01*
X203347518Y-97933539D01*
X203347520Y-97933540D01*
X203457003Y-97962876D01*
X203457004Y-97962876D01*
X203570357Y-97962876D01*
X203641639Y-97943775D01*
X203679847Y-97933538D01*
X203778013Y-97876862D01*
X203858166Y-97796709D01*
X203914842Y-97698543D01*
X203929313Y-97644536D01*
X212073583Y-97644536D01*
X212073583Y-97757891D01*
X212102918Y-97867373D01*
X212102920Y-97867379D01*
X212102921Y-97867381D01*
X212159597Y-97965547D01*
X212239750Y-98045700D01*
X212337916Y-98102376D01*
X212337921Y-98102377D01*
X212337923Y-98102378D01*
X212447406Y-98131714D01*
X212447407Y-98131714D01*
X212560760Y-98131714D01*
X212632042Y-98112613D01*
X212670250Y-98102376D01*
X212768416Y-98045700D01*
X212848569Y-97965547D01*
X212905245Y-97867381D01*
X212915482Y-97829173D01*
X212934583Y-97757891D01*
X212934583Y-97644536D01*
X212905247Y-97535054D01*
X212905245Y-97535048D01*
X212905245Y-97535047D01*
X212848569Y-97436881D01*
X212768416Y-97356728D01*
X212670250Y-97300052D01*
X212670249Y-97300051D01*
X212670248Y-97300051D01*
X212670242Y-97300049D01*
X212560760Y-97270714D01*
X212560759Y-97270714D01*
X212447407Y-97270714D01*
X212447406Y-97270714D01*
X212337923Y-97300049D01*
X212337917Y-97300051D01*
X212239751Y-97356727D01*
X212159596Y-97436882D01*
X212102920Y-97535048D01*
X212102918Y-97535054D01*
X212073583Y-97644536D01*
X203929313Y-97644536D01*
X203944180Y-97589052D01*
X203944180Y-97475700D01*
X203944180Y-97475698D01*
X203914844Y-97366216D01*
X203914842Y-97366210D01*
X203914842Y-97366209D01*
X203858166Y-97268043D01*
X203795178Y-97205055D01*
X203777020Y-97161216D01*
X203795179Y-97117375D01*
X203802814Y-97111521D01*
X203802613Y-97111258D01*
X203805837Y-97108784D01*
X203805836Y-97108784D01*
X203805839Y-97108783D01*
X203885992Y-97028630D01*
X203942668Y-96930464D01*
X203972006Y-96820973D01*
X203972006Y-96707621D01*
X203972006Y-96707619D01*
X203942670Y-96598137D01*
X203942668Y-96598131D01*
X203942668Y-96598130D01*
X203885992Y-96499964D01*
X203805839Y-96419811D01*
X203707673Y-96363135D01*
X203707672Y-96363134D01*
X203707671Y-96363134D01*
X203707665Y-96363132D01*
X203598183Y-96333797D01*
X203598182Y-96333797D01*
X203484830Y-96333797D01*
X203484829Y-96333797D01*
X203375346Y-96363132D01*
X203375340Y-96363134D01*
X203277174Y-96419810D01*
X203197019Y-96499965D01*
X203140343Y-96598131D01*
X203140341Y-96598137D01*
X203111006Y-96707619D01*
X203111006Y-96820974D01*
X203140341Y-96930456D01*
X203140343Y-96930462D01*
X203140344Y-96930464D01*
X203197020Y-97028630D01*
X203260006Y-97091616D01*
X203278165Y-97135456D01*
X203260006Y-97179297D01*
X203252370Y-97185157D01*
X203252570Y-97185417D01*
X203249350Y-97187887D01*
X203169193Y-97268044D01*
X203112517Y-97366210D01*
X203112515Y-97366216D01*
X203083180Y-97475698D01*
X165200500Y-97475698D01*
X165200500Y-94605519D01*
X193899500Y-94605519D01*
X193899500Y-94794481D01*
X193929060Y-94981118D01*
X193987453Y-95160832D01*
X194009238Y-95203587D01*
X194065066Y-95313158D01*
X194073240Y-95329199D01*
X194184310Y-95482073D01*
X194317927Y-95615690D01*
X194470801Y-95726760D01*
X194639168Y-95812547D01*
X194818882Y-95870940D01*
X195005519Y-95900500D01*
X195194481Y-95900500D01*
X195289492Y-95885452D01*
X204357436Y-95885452D01*
X204357436Y-95998807D01*
X204386771Y-96108289D01*
X204386773Y-96108295D01*
X204386774Y-96108297D01*
X204443450Y-96206463D01*
X204523603Y-96286616D01*
X204621769Y-96343292D01*
X204621774Y-96343293D01*
X204621776Y-96343294D01*
X204731259Y-96372630D01*
X204731260Y-96372630D01*
X204844613Y-96372630D01*
X204915895Y-96353529D01*
X204954103Y-96343292D01*
X205052269Y-96286616D01*
X205132422Y-96206463D01*
X205154059Y-96168986D01*
X205191704Y-96140099D01*
X205238751Y-96146292D01*
X205267639Y-96183938D01*
X205267639Y-96183939D01*
X205280651Y-96232499D01*
X205280653Y-96232505D01*
X205280654Y-96232507D01*
X205337330Y-96330673D01*
X205417483Y-96410826D01*
X205515649Y-96467502D01*
X205515654Y-96467503D01*
X205515656Y-96467504D01*
X205625139Y-96496840D01*
X205625140Y-96496840D01*
X205738493Y-96496840D01*
X205809775Y-96477739D01*
X205847983Y-96467502D01*
X205946149Y-96410826D01*
X206026302Y-96330673D01*
X206082978Y-96232507D01*
X206112316Y-96123016D01*
X206112316Y-96009664D01*
X206112316Y-96009662D01*
X206099063Y-95960202D01*
X206099062Y-95960201D01*
X206095852Y-95948221D01*
X206095851Y-95948219D01*
X207422278Y-95948219D01*
X207422278Y-96074737D01*
X207455023Y-96196944D01*
X207518282Y-96306512D01*
X207607744Y-96395974D01*
X207717312Y-96459233D01*
X207839519Y-96491978D01*
X207839522Y-96491978D01*
X207966037Y-96491978D01*
X208041454Y-96471770D01*
X208088500Y-96477963D01*
X208117387Y-96515610D01*
X208119500Y-96531657D01*
X208119500Y-96563259D01*
X208152245Y-96685466D01*
X208215504Y-96795034D01*
X208304966Y-96884496D01*
X208414534Y-96947755D01*
X208536741Y-96980500D01*
X208536744Y-96980500D01*
X208663256Y-96980500D01*
X208663259Y-96980500D01*
X208785466Y-96947755D01*
X208895034Y-96884496D01*
X208984496Y-96795034D01*
X209047755Y-96685466D01*
X209080500Y-96563259D01*
X209080500Y-96436741D01*
X209047755Y-96314534D01*
X208984496Y-96204966D01*
X208895034Y-96115504D01*
X208785466Y-96052245D01*
X208785463Y-96052244D01*
X208745607Y-96041565D01*
X208663259Y-96019500D01*
X208536741Y-96019500D01*
X208461323Y-96039707D01*
X208455811Y-96038982D01*
X208450891Y-96041565D01*
X208432931Y-96035969D01*
X208414278Y-96033513D01*
X208410893Y-96029102D01*
X208405586Y-96027449D01*
X208399258Y-96013939D01*
X208385390Y-95995866D01*
X208383533Y-95985433D01*
X208383278Y-95982628D01*
X208383278Y-95948219D01*
X208376710Y-95923705D01*
X217800500Y-95923705D01*
X217800500Y-96076294D01*
X217839989Y-96223670D01*
X217839991Y-96223675D01*
X217839992Y-96223678D01*
X217916285Y-96355821D01*
X218024179Y-96463715D01*
X218156322Y-96540008D01*
X218156328Y-96540009D01*
X218156329Y-96540010D01*
X218303706Y-96579500D01*
X218303707Y-96579500D01*
X218456294Y-96579500D01*
X218552244Y-96553789D01*
X218603678Y-96540008D01*
X218735821Y-96463715D01*
X218843715Y-96355821D01*
X218920008Y-96223678D01*
X218946981Y-96123016D01*
X218959500Y-96076294D01*
X218959500Y-95923705D01*
X218920010Y-95776329D01*
X218920009Y-95776328D01*
X218920008Y-95776322D01*
X218843715Y-95644179D01*
X218735821Y-95536285D01*
X218603678Y-95459992D01*
X218603675Y-95459991D01*
X218603670Y-95459989D01*
X218456294Y-95420500D01*
X218456293Y-95420500D01*
X218303707Y-95420500D01*
X218303706Y-95420500D01*
X218156329Y-95459989D01*
X218156324Y-95459991D01*
X218156322Y-95459991D01*
X218156322Y-95459992D01*
X218120915Y-95480434D01*
X218024180Y-95536284D01*
X217916284Y-95644180D01*
X217839991Y-95776324D01*
X217839989Y-95776329D01*
X217800500Y-95923705D01*
X208376710Y-95923705D01*
X208350533Y-95826012D01*
X208287274Y-95716444D01*
X208197812Y-95626982D01*
X208088244Y-95563723D01*
X208088241Y-95563722D01*
X208064269Y-95557298D01*
X207966037Y-95530978D01*
X207839519Y-95530978D01*
X207762045Y-95551736D01*
X207717314Y-95563722D01*
X207717313Y-95563722D01*
X207607745Y-95626981D01*
X207518281Y-95716445D01*
X207455022Y-95826013D01*
X207455022Y-95826014D01*
X207422278Y-95948219D01*
X206095851Y-95948219D01*
X206082978Y-95900173D01*
X206026302Y-95802007D01*
X205946149Y-95721854D01*
X205847983Y-95665178D01*
X205847982Y-95665177D01*
X205847981Y-95665177D01*
X205847975Y-95665175D01*
X205738493Y-95635840D01*
X205738492Y-95635840D01*
X205625140Y-95635840D01*
X205625139Y-95635840D01*
X205515656Y-95665175D01*
X205515650Y-95665177D01*
X205417484Y-95721853D01*
X205417483Y-95721853D01*
X205417483Y-95721854D01*
X205337330Y-95802007D01*
X205337329Y-95802009D01*
X205337327Y-95802010D01*
X205315692Y-95839484D01*
X205278045Y-95868371D01*
X205230998Y-95862176D01*
X205202112Y-95824530D01*
X205189100Y-95775970D01*
X205189098Y-95775964D01*
X205189098Y-95775963D01*
X205132422Y-95677797D01*
X205052269Y-95597644D01*
X204954103Y-95540968D01*
X204954102Y-95540967D01*
X204954101Y-95540967D01*
X204954095Y-95540965D01*
X204844613Y-95511630D01*
X204844612Y-95511630D01*
X204731260Y-95511630D01*
X204731259Y-95511630D01*
X204621776Y-95540965D01*
X204621770Y-95540967D01*
X204523604Y-95597643D01*
X204443449Y-95677798D01*
X204386773Y-95775964D01*
X204386771Y-95775970D01*
X204357436Y-95885452D01*
X195289492Y-95885452D01*
X195381118Y-95870940D01*
X195560832Y-95812547D01*
X195729199Y-95726760D01*
X195882073Y-95615690D01*
X196015690Y-95482073D01*
X196126760Y-95329199D01*
X196212547Y-95160832D01*
X196270940Y-94981118D01*
X196275098Y-94954865D01*
X213937624Y-94954865D01*
X213937624Y-95081383D01*
X213970369Y-95203590D01*
X214033628Y-95313158D01*
X214123090Y-95402620D01*
X214232658Y-95465879D01*
X214354865Y-95498624D01*
X214354868Y-95498624D01*
X214481380Y-95498624D01*
X214481383Y-95498624D01*
X214603590Y-95465879D01*
X214713158Y-95402620D01*
X214802620Y-95313158D01*
X214865879Y-95203590D01*
X214898624Y-95081383D01*
X214898624Y-94954865D01*
X214865879Y-94832658D01*
X214802620Y-94723090D01*
X214713158Y-94633628D01*
X214603590Y-94570369D01*
X214603587Y-94570368D01*
X214579615Y-94563944D01*
X214481383Y-94537624D01*
X214354865Y-94537624D01*
X214277391Y-94558382D01*
X214232660Y-94570368D01*
X214232659Y-94570368D01*
X214123091Y-94633627D01*
X214033627Y-94723091D01*
X213970368Y-94832659D01*
X213970368Y-94832660D01*
X213965841Y-94849556D01*
X213937624Y-94954865D01*
X196275098Y-94954865D01*
X196300500Y-94794481D01*
X196300500Y-94605519D01*
X196270940Y-94418882D01*
X196212547Y-94239168D01*
X196126760Y-94070801D01*
X196015690Y-93917927D01*
X195882073Y-93784310D01*
X195729199Y-93673240D01*
X195729197Y-93673239D01*
X195729193Y-93673236D01*
X195729192Y-93673235D01*
X195699135Y-93657920D01*
X195699132Y-93657920D01*
X195598687Y-93606741D01*
X198539500Y-93606741D01*
X198539500Y-93733259D01*
X198572245Y-93855466D01*
X198635504Y-93965034D01*
X198724966Y-94054496D01*
X198834534Y-94117755D01*
X198956741Y-94150500D01*
X198956744Y-94150500D01*
X199083256Y-94150500D01*
X199083259Y-94150500D01*
X199205466Y-94117755D01*
X199315034Y-94054496D01*
X199362789Y-94006741D01*
X205249500Y-94006741D01*
X205249500Y-94133259D01*
X205254120Y-94150500D01*
X205277878Y-94239170D01*
X205282245Y-94255466D01*
X205345504Y-94365034D01*
X205434966Y-94454496D01*
X205544534Y-94517755D01*
X205666741Y-94550500D01*
X205666744Y-94550500D01*
X205793256Y-94550500D01*
X205793259Y-94550500D01*
X205915466Y-94517755D01*
X206025034Y-94454496D01*
X206114496Y-94365034D01*
X206127031Y-94343322D01*
X208789500Y-94343322D01*
X208789500Y-94456677D01*
X208818835Y-94566159D01*
X208818837Y-94566165D01*
X208818838Y-94566167D01*
X208875514Y-94664333D01*
X208955667Y-94744486D01*
X209053833Y-94801162D01*
X209053838Y-94801163D01*
X209053840Y-94801164D01*
X209163323Y-94830500D01*
X209163324Y-94830500D01*
X209276677Y-94830500D01*
X209352959Y-94810060D01*
X209386167Y-94801162D01*
X209484333Y-94744486D01*
X209564486Y-94664333D01*
X209621162Y-94566167D01*
X209650500Y-94456676D01*
X209650500Y-94343324D01*
X209650396Y-94342935D01*
X209650396Y-94342934D01*
X209644251Y-94319999D01*
X216645878Y-94319999D01*
X216645879Y-94320000D01*
X217133012Y-94320000D01*
X217115795Y-94329940D01*
X217059940Y-94385795D01*
X217020444Y-94454204D01*
X217000000Y-94530504D01*
X217000000Y-94609496D01*
X217020444Y-94685796D01*
X217059940Y-94754205D01*
X217115795Y-94810060D01*
X217133012Y-94820000D01*
X216645878Y-94820000D01*
X216679666Y-94901570D01*
X216679670Y-94901577D01*
X216756269Y-95016217D01*
X216756272Y-95016221D01*
X216853778Y-95113727D01*
X216853782Y-95113730D01*
X216968422Y-95190329D01*
X216968424Y-95190331D01*
X217095816Y-95243097D01*
X217231054Y-95269999D01*
X217231061Y-95270000D01*
X217599999Y-95270000D01*
X217600000Y-95269999D01*
X217600000Y-94870000D01*
X218100000Y-94870000D01*
X218100000Y-95269999D01*
X218100001Y-95270000D01*
X218468939Y-95270000D01*
X218468945Y-95269999D01*
X218604183Y-95243097D01*
X218731575Y-95190331D01*
X218731577Y-95190329D01*
X218846217Y-95113730D01*
X218846221Y-95113727D01*
X218943727Y-95016221D01*
X218943730Y-95016217D01*
X219020329Y-94901577D01*
X219020333Y-94901570D01*
X219054121Y-94820000D01*
X218566988Y-94820000D01*
X218584205Y-94810060D01*
X218640060Y-94754205D01*
X218679556Y-94685796D01*
X218700000Y-94609496D01*
X218700000Y-94530504D01*
X218679556Y-94454204D01*
X218640060Y-94385795D01*
X218584205Y-94329940D01*
X218566988Y-94320000D01*
X219054121Y-94320000D01*
X219054121Y-94319999D01*
X221075878Y-94319999D01*
X221075879Y-94320000D01*
X221563012Y-94320000D01*
X221545795Y-94329940D01*
X221489940Y-94385795D01*
X221450444Y-94454204D01*
X221430000Y-94530504D01*
X221430000Y-94609496D01*
X221450444Y-94685796D01*
X221489940Y-94754205D01*
X221545795Y-94810060D01*
X221563012Y-94820000D01*
X221075878Y-94820000D01*
X221109666Y-94901570D01*
X221109670Y-94901577D01*
X221186269Y-95016217D01*
X221186272Y-95016221D01*
X221283778Y-95113727D01*
X221283782Y-95113730D01*
X221398422Y-95190329D01*
X221398424Y-95190331D01*
X221525816Y-95243097D01*
X221661054Y-95269999D01*
X221661061Y-95270000D01*
X221779999Y-95270000D01*
X221780000Y-95269999D01*
X221780000Y-94870000D01*
X222280000Y-94870000D01*
X222280000Y-95269999D01*
X222280001Y-95270000D01*
X222398939Y-95270000D01*
X222398945Y-95269999D01*
X222534183Y-95243097D01*
X222661575Y-95190331D01*
X222661577Y-95190329D01*
X222776217Y-95113730D01*
X222776221Y-95113727D01*
X222873727Y-95016221D01*
X222873730Y-95016217D01*
X222950329Y-94901577D01*
X222950333Y-94901570D01*
X222984121Y-94820000D01*
X222496988Y-94820000D01*
X222514205Y-94810060D01*
X222570060Y-94754205D01*
X222609556Y-94685796D01*
X222630000Y-94609496D01*
X222630000Y-94530504D01*
X222609556Y-94454204D01*
X222570060Y-94385795D01*
X222514205Y-94329940D01*
X222496988Y-94320000D01*
X222984121Y-94320000D01*
X222984121Y-94319999D01*
X222950333Y-94238429D01*
X222950329Y-94238422D01*
X222873730Y-94123782D01*
X222873727Y-94123778D01*
X222776221Y-94026272D01*
X222776217Y-94026269D01*
X222661577Y-93949670D01*
X222661575Y-93949668D01*
X222534183Y-93896902D01*
X222398945Y-93870000D01*
X222280001Y-93870000D01*
X222280000Y-93870001D01*
X222280000Y-94270000D01*
X221780000Y-94270000D01*
X221780000Y-93870001D01*
X221779999Y-93870000D01*
X221661054Y-93870000D01*
X221525816Y-93896902D01*
X221398424Y-93949668D01*
X221398422Y-93949670D01*
X221283782Y-94026269D01*
X221283778Y-94026272D01*
X221186272Y-94123778D01*
X221186269Y-94123782D01*
X221109670Y-94238422D01*
X221109666Y-94238429D01*
X221075878Y-94319999D01*
X219054121Y-94319999D01*
X219020333Y-94238429D01*
X219020329Y-94238422D01*
X218943730Y-94123782D01*
X218943727Y-94123778D01*
X218846221Y-94026272D01*
X218846217Y-94026269D01*
X218731577Y-93949670D01*
X218731575Y-93949668D01*
X218604183Y-93896902D01*
X218468945Y-93870000D01*
X218100001Y-93870000D01*
X218100000Y-93870001D01*
X218100000Y-94270000D01*
X217600000Y-94270000D01*
X217600000Y-93870001D01*
X217599999Y-93870000D01*
X217231054Y-93870000D01*
X217095816Y-93896902D01*
X216968424Y-93949668D01*
X216968422Y-93949670D01*
X216853782Y-94026269D01*
X216853778Y-94026272D01*
X216756272Y-94123778D01*
X216756269Y-94123782D01*
X216679670Y-94238422D01*
X216679666Y-94238429D01*
X216645878Y-94319999D01*
X209644251Y-94319999D01*
X209621164Y-94233840D01*
X209621162Y-94233834D01*
X209621162Y-94233833D01*
X209564486Y-94135667D01*
X209484333Y-94055514D01*
X209386167Y-93998838D01*
X209386166Y-93998837D01*
X209386165Y-93998837D01*
X209386159Y-93998835D01*
X209276677Y-93969500D01*
X209276676Y-93969500D01*
X209163324Y-93969500D01*
X209163323Y-93969500D01*
X209053840Y-93998835D01*
X209053834Y-93998837D01*
X208955668Y-94055513D01*
X208875513Y-94135668D01*
X208818837Y-94233834D01*
X208818835Y-94233840D01*
X208789500Y-94343322D01*
X206127031Y-94343322D01*
X206177755Y-94255466D01*
X206210500Y-94133259D01*
X206210500Y-94006741D01*
X206177755Y-93884534D01*
X206114496Y-93774966D01*
X206025034Y-93685504D01*
X205915466Y-93622245D01*
X205915463Y-93622244D01*
X205891491Y-93615820D01*
X205793259Y-93589500D01*
X205666741Y-93589500D01*
X205602389Y-93606743D01*
X205544536Y-93622244D01*
X205544535Y-93622244D01*
X205434967Y-93685503D01*
X205345503Y-93774967D01*
X205282244Y-93884535D01*
X205282244Y-93884536D01*
X205267047Y-93941253D01*
X205249500Y-94006741D01*
X199362789Y-94006741D01*
X199404496Y-93965034D01*
X199467755Y-93855466D01*
X199500500Y-93733259D01*
X199500500Y-93606741D01*
X199467755Y-93484534D01*
X199404496Y-93374966D01*
X199315034Y-93285504D01*
X199205466Y-93222245D01*
X199205463Y-93222244D01*
X199176688Y-93214534D01*
X199083259Y-93189500D01*
X198956741Y-93189500D01*
X198879267Y-93210258D01*
X198834536Y-93222244D01*
X198834535Y-93222244D01*
X198724967Y-93285503D01*
X198635503Y-93374967D01*
X198572244Y-93484535D01*
X198572244Y-93484536D01*
X198539500Y-93606741D01*
X195598687Y-93606741D01*
X195560832Y-93587453D01*
X195381118Y-93529060D01*
X195194481Y-93499500D01*
X195005519Y-93499500D01*
X194818887Y-93529059D01*
X194818885Y-93529059D01*
X194818882Y-93529060D01*
X194703728Y-93566476D01*
X194639170Y-93587452D01*
X194470801Y-93673239D01*
X194317930Y-93784307D01*
X194184307Y-93917930D01*
X194073239Y-94070801D01*
X194032631Y-94150500D01*
X193987453Y-94239168D01*
X193929060Y-94418882D01*
X193929059Y-94418885D01*
X193929059Y-94418887D01*
X193923419Y-94454496D01*
X193899500Y-94605519D01*
X165200500Y-94605519D01*
X165200500Y-91045720D01*
X170845000Y-91045720D01*
X170845000Y-91254279D01*
X170877625Y-91460266D01*
X170942074Y-91658622D01*
X170942074Y-91658623D01*
X171036758Y-91844449D01*
X171036761Y-91844454D01*
X171072626Y-91893818D01*
X171415884Y-91550559D01*
X171416740Y-91552626D01*
X171509762Y-91691844D01*
X171628156Y-91810238D01*
X171767374Y-91903260D01*
X171769437Y-91904114D01*
X171426180Y-92247372D01*
X171475545Y-92283238D01*
X171475550Y-92283241D01*
X171661377Y-92377925D01*
X171859733Y-92442374D01*
X172065720Y-92475000D01*
X172274280Y-92475000D01*
X172480266Y-92442374D01*
X172678622Y-92377925D01*
X172678623Y-92377925D01*
X172864456Y-92283237D01*
X172913818Y-92247372D01*
X172570561Y-91904115D01*
X172572626Y-91903260D01*
X172711844Y-91810238D01*
X172830238Y-91691844D01*
X172923260Y-91552626D01*
X172924115Y-91550561D01*
X173267372Y-91893818D01*
X173303237Y-91844456D01*
X173397925Y-91658623D01*
X173397925Y-91658622D01*
X173462374Y-91460266D01*
X173495000Y-91254279D01*
X173495000Y-91045720D01*
X175925000Y-91045720D01*
X175925000Y-91254279D01*
X175957625Y-91460266D01*
X176022074Y-91658622D01*
X176022074Y-91658623D01*
X176116758Y-91844449D01*
X176116761Y-91844454D01*
X176152626Y-91893818D01*
X176495884Y-91550559D01*
X176496740Y-91552626D01*
X176589762Y-91691844D01*
X176708156Y-91810238D01*
X176847374Y-91903260D01*
X176849437Y-91904114D01*
X176506180Y-92247372D01*
X176555545Y-92283238D01*
X176555550Y-92283241D01*
X176741377Y-92377925D01*
X176939733Y-92442374D01*
X177145720Y-92475000D01*
X177354280Y-92475000D01*
X177560266Y-92442374D01*
X177758622Y-92377925D01*
X177758623Y-92377925D01*
X177944456Y-92283237D01*
X177993818Y-92247372D01*
X177650561Y-91904115D01*
X177652626Y-91903260D01*
X177791844Y-91810238D01*
X177910238Y-91691844D01*
X178003260Y-91552626D01*
X178004115Y-91550561D01*
X178347372Y-91893818D01*
X178383237Y-91844456D01*
X178477925Y-91658623D01*
X178477925Y-91658622D01*
X178542374Y-91460266D01*
X178575000Y-91254279D01*
X178575000Y-91045720D01*
X178542374Y-90839733D01*
X178504200Y-90722242D01*
X178498766Y-90705519D01*
X179399500Y-90705519D01*
X179399500Y-90894480D01*
X179428017Y-91074536D01*
X179429060Y-91081118D01*
X179487453Y-91260832D01*
X179519260Y-91323256D01*
X179573239Y-91429198D01*
X179679508Y-91575464D01*
X179684310Y-91582073D01*
X179817927Y-91715690D01*
X179970801Y-91826760D01*
X180139168Y-91912547D01*
X180318882Y-91970940D01*
X180505519Y-92000500D01*
X180694481Y-92000500D01*
X180881118Y-91970940D01*
X181060832Y-91912547D01*
X181229199Y-91826760D01*
X181382073Y-91715690D01*
X181515690Y-91582073D01*
X181626760Y-91429199D01*
X181712547Y-91260832D01*
X181770940Y-91081118D01*
X181779521Y-91026941D01*
X184313300Y-91026941D01*
X184313300Y-91185058D01*
X184354221Y-91337782D01*
X184416393Y-91445466D01*
X184433280Y-91474716D01*
X184545084Y-91586520D01*
X184607314Y-91622448D01*
X184682017Y-91665578D01*
X184834742Y-91706500D01*
X184834743Y-91706500D01*
X184992858Y-91706500D01*
X185125136Y-91671056D01*
X185145584Y-91665577D01*
X185175398Y-91648363D01*
X185222443Y-91642169D01*
X185260090Y-91671056D01*
X185266284Y-91686010D01*
X185276528Y-91724240D01*
X185276530Y-91724246D01*
X185276531Y-91724248D01*
X185355588Y-91861180D01*
X185467392Y-91972984D01*
X185467394Y-91972985D01*
X185467398Y-91972988D01*
X185484174Y-91982674D01*
X185513062Y-92020321D01*
X185506867Y-92067367D01*
X185497015Y-92080207D01*
X185458816Y-92118406D01*
X185458813Y-92118410D01*
X185379755Y-92255342D01*
X185338834Y-92408066D01*
X185338834Y-92566183D01*
X185379755Y-92718907D01*
X185446583Y-92834657D01*
X185458814Y-92855841D01*
X185570618Y-92967645D01*
X185618058Y-92995034D01*
X185707551Y-93046703D01*
X185860276Y-93087625D01*
X185860277Y-93087625D01*
X186018392Y-93087625D01*
X186171116Y-93046703D01*
X186171118Y-93046702D01*
X186308050Y-92967645D01*
X186419854Y-92855841D01*
X186498911Y-92718909D01*
X186503132Y-92703158D01*
X186539834Y-92566183D01*
X186539834Y-92408069D01*
X186539377Y-92406363D01*
X186535078Y-92390317D01*
X186534870Y-92389541D01*
X186789500Y-92389541D01*
X186789500Y-92516059D01*
X186810274Y-92593588D01*
X186818681Y-92624967D01*
X186822245Y-92638266D01*
X186885504Y-92747834D01*
X186974966Y-92837296D01*
X187084534Y-92900555D01*
X187206741Y-92933300D01*
X187206744Y-92933300D01*
X187333256Y-92933300D01*
X187333259Y-92933300D01*
X187455466Y-92900555D01*
X187565034Y-92837296D01*
X187654496Y-92747834D01*
X187666432Y-92727158D01*
X187704076Y-92698272D01*
X187751123Y-92704464D01*
X187780012Y-92742110D01*
X187780012Y-92742112D01*
X187806042Y-92839258D01*
X187806044Y-92839263D01*
X187806045Y-92839266D01*
X187869304Y-92948834D01*
X187958766Y-93038296D01*
X188068334Y-93101555D01*
X188190541Y-93134300D01*
X188190544Y-93134300D01*
X188317056Y-93134300D01*
X188317059Y-93134300D01*
X188439266Y-93101555D01*
X188548834Y-93038296D01*
X188638296Y-92948834D01*
X188701555Y-92839266D01*
X188734300Y-92717059D01*
X188734300Y-92636741D01*
X199519500Y-92636741D01*
X199519500Y-92763259D01*
X199552245Y-92885466D01*
X199615504Y-92995034D01*
X199704966Y-93084496D01*
X199814534Y-93147755D01*
X199936741Y-93180500D01*
X199936744Y-93180500D01*
X200063256Y-93180500D01*
X200063259Y-93180500D01*
X200185466Y-93147755D01*
X200295034Y-93084496D01*
X200384496Y-92995034D01*
X200447755Y-92885466D01*
X200480500Y-92763259D01*
X200480500Y-92636741D01*
X200447755Y-92514534D01*
X200387690Y-92410499D01*
X200384498Y-92404969D01*
X200384497Y-92404968D01*
X200384496Y-92404966D01*
X200369071Y-92389541D01*
X200959500Y-92389541D01*
X200959500Y-92516059D01*
X200980274Y-92593588D01*
X200988681Y-92624967D01*
X200992245Y-92638266D01*
X201055504Y-92747834D01*
X201144966Y-92837296D01*
X201254534Y-92900555D01*
X201376741Y-92933300D01*
X201376744Y-92933300D01*
X201503256Y-92933300D01*
X201503259Y-92933300D01*
X201625466Y-92900555D01*
X201735034Y-92837296D01*
X201824496Y-92747834D01*
X201887755Y-92638266D01*
X201920500Y-92516059D01*
X201920500Y-92389541D01*
X201920500Y-92389540D01*
X202187743Y-92389540D01*
X202187743Y-92516058D01*
X202214063Y-92614290D01*
X202220079Y-92636741D01*
X202220488Y-92638265D01*
X202283747Y-92747833D01*
X202373209Y-92837295D01*
X202482777Y-92900554D01*
X202604984Y-92933299D01*
X202604987Y-92933299D01*
X202731503Y-92933299D01*
X202771453Y-92922594D01*
X202818499Y-92928787D01*
X202847387Y-92966434D01*
X202849500Y-92982481D01*
X202849500Y-92983259D01*
X202882245Y-93105466D01*
X202945504Y-93215034D01*
X203034966Y-93304496D01*
X203144534Y-93367755D01*
X203266741Y-93400500D01*
X203266744Y-93400500D01*
X203393256Y-93400500D01*
X203393259Y-93400500D01*
X203515466Y-93367755D01*
X203569184Y-93336741D01*
X211519500Y-93336741D01*
X211519500Y-93463259D01*
X211552245Y-93585466D01*
X211615504Y-93695034D01*
X211704966Y-93784496D01*
X211814534Y-93847755D01*
X211936741Y-93880500D01*
X211936744Y-93880500D01*
X212063256Y-93880500D01*
X212063259Y-93880500D01*
X212185466Y-93847755D01*
X212295034Y-93784496D01*
X212384496Y-93695034D01*
X212447755Y-93585466D01*
X212480500Y-93463259D01*
X212480500Y-93336741D01*
X212447755Y-93214534D01*
X212384496Y-93104966D01*
X212295034Y-93015504D01*
X212185466Y-92952245D01*
X212185463Y-92952244D01*
X212161491Y-92945820D01*
X212063259Y-92919500D01*
X211936741Y-92919500D01*
X211859267Y-92940258D01*
X211814536Y-92952244D01*
X211814535Y-92952244D01*
X211704967Y-93015503D01*
X211615503Y-93104967D01*
X211552244Y-93214535D01*
X211552244Y-93214536D01*
X211537047Y-93271253D01*
X211519500Y-93336741D01*
X203569184Y-93336741D01*
X203625034Y-93304496D01*
X203714496Y-93215034D01*
X203777755Y-93105466D01*
X203810500Y-92983259D01*
X203810500Y-92856741D01*
X203777755Y-92734534D01*
X203714496Y-92624966D01*
X203625034Y-92535504D01*
X203580920Y-92510035D01*
X212606206Y-92510035D01*
X212606206Y-92636553D01*
X212638951Y-92758760D01*
X212702210Y-92868328D01*
X212791672Y-92957790D01*
X212901240Y-93021049D01*
X213023447Y-93053794D01*
X213023450Y-93053794D01*
X213149962Y-93053794D01*
X213149965Y-93053794D01*
X213272172Y-93021049D01*
X213381740Y-92957790D01*
X213471202Y-92868328D01*
X213534461Y-92758760D01*
X213567206Y-92636553D01*
X213567206Y-92510035D01*
X213534461Y-92387828D01*
X213471202Y-92278260D01*
X213391221Y-92198279D01*
X215121037Y-92198279D01*
X215121037Y-92324797D01*
X215153782Y-92447004D01*
X215217041Y-92556572D01*
X215306503Y-92646034D01*
X215416071Y-92709293D01*
X215538278Y-92742038D01*
X215538281Y-92742038D01*
X215664793Y-92742038D01*
X215664796Y-92742038D01*
X215787003Y-92709293D01*
X215896571Y-92646034D01*
X215986033Y-92556572D01*
X216049292Y-92447004D01*
X216076660Y-92344865D01*
X216547624Y-92344865D01*
X216547624Y-92471383D01*
X216559187Y-92514536D01*
X216579552Y-92590543D01*
X216580369Y-92593590D01*
X216643628Y-92703158D01*
X216733090Y-92792620D01*
X216842658Y-92855879D01*
X216964865Y-92888624D01*
X216964868Y-92888624D01*
X217091380Y-92888624D01*
X217091383Y-92888624D01*
X217213590Y-92855879D01*
X217323158Y-92792620D01*
X217412620Y-92703158D01*
X217475879Y-92593590D01*
X217508624Y-92471383D01*
X217508624Y-92344865D01*
X217475879Y-92222658D01*
X217412620Y-92113090D01*
X217323158Y-92023628D01*
X217213590Y-91960369D01*
X217213587Y-91960368D01*
X217189615Y-91953944D01*
X217091383Y-91927624D01*
X216964865Y-91927624D01*
X216887391Y-91948382D01*
X216842660Y-91960368D01*
X216842659Y-91960368D01*
X216733091Y-92023627D01*
X216643627Y-92113091D01*
X216580368Y-92222659D01*
X216580368Y-92222660D01*
X216571611Y-92255342D01*
X216547624Y-92344865D01*
X216076660Y-92344865D01*
X216082037Y-92324797D01*
X216082037Y-92198279D01*
X216049292Y-92076072D01*
X215986033Y-91966504D01*
X215986032Y-91966503D01*
X215984001Y-91962985D01*
X215985922Y-91961875D01*
X215975481Y-91922933D01*
X215999202Y-91881835D01*
X216020906Y-91871129D01*
X216023254Y-91870500D01*
X216023259Y-91870500D01*
X216145466Y-91837755D01*
X216255034Y-91774496D01*
X216344496Y-91685034D01*
X216407755Y-91575466D01*
X216440500Y-91453259D01*
X216440500Y-91326741D01*
X216407755Y-91204534D01*
X216344496Y-91094966D01*
X216255034Y-91005504D01*
X216145466Y-90942245D01*
X216145463Y-90942244D01*
X216110541Y-90932887D01*
X216023259Y-90909500D01*
X215896741Y-90909500D01*
X215829926Y-90927403D01*
X215774536Y-90942244D01*
X215774535Y-90942244D01*
X215664967Y-91005503D01*
X215575503Y-91094967D01*
X215512244Y-91204535D01*
X215512244Y-91204536D01*
X215504425Y-91233718D01*
X215479500Y-91326741D01*
X215479500Y-91453259D01*
X215503371Y-91542347D01*
X215511997Y-91574543D01*
X215512245Y-91575466D01*
X215572886Y-91680500D01*
X215577536Y-91688553D01*
X215575616Y-91689661D01*
X215586054Y-91728613D01*
X215562327Y-91769708D01*
X215540631Y-91780407D01*
X215416078Y-91813780D01*
X215416072Y-91813782D01*
X215306504Y-91877041D01*
X215217040Y-91966505D01*
X215153781Y-92076073D01*
X215153781Y-92076074D01*
X215121037Y-92198279D01*
X213391221Y-92198279D01*
X213381740Y-92188798D01*
X213272172Y-92125539D01*
X213272169Y-92125538D01*
X213245551Y-92118406D01*
X213149965Y-92092794D01*
X213023447Y-92092794D01*
X212947701Y-92113090D01*
X212901242Y-92125538D01*
X212901241Y-92125538D01*
X212791673Y-92188797D01*
X212702209Y-92278261D01*
X212638950Y-92387829D01*
X212638950Y-92387830D01*
X212625106Y-92439500D01*
X212606206Y-92510035D01*
X203580920Y-92510035D01*
X203515466Y-92472245D01*
X203515463Y-92472244D01*
X203491491Y-92465820D01*
X203393259Y-92439500D01*
X203266741Y-92439500D01*
X203226789Y-92450205D01*
X203179742Y-92444010D01*
X203150855Y-92406363D01*
X203148743Y-92390317D01*
X203148743Y-92389542D01*
X203148743Y-92389541D01*
X203148743Y-92389540D01*
X203115998Y-92267333D01*
X203052739Y-92157765D01*
X202963277Y-92068303D01*
X202853709Y-92005044D01*
X202853706Y-92005043D01*
X202823367Y-91996914D01*
X202731502Y-91972299D01*
X202604984Y-91972299D01*
X202527510Y-91993057D01*
X202482779Y-92005043D01*
X202482778Y-92005043D01*
X202373210Y-92068302D01*
X202283746Y-92157766D01*
X202220487Y-92267334D01*
X202220487Y-92267335D01*
X202216226Y-92283238D01*
X202187743Y-92389540D01*
X201920500Y-92389540D01*
X201887755Y-92267334D01*
X201824496Y-92157766D01*
X201735034Y-92068304D01*
X201625466Y-92005045D01*
X201625463Y-92005044D01*
X201595120Y-91996914D01*
X201503259Y-91972300D01*
X201376741Y-91972300D01*
X201299267Y-91993058D01*
X201254536Y-92005044D01*
X201254535Y-92005044D01*
X201144967Y-92068303D01*
X201055503Y-92157767D01*
X200992244Y-92267335D01*
X200992244Y-92267336D01*
X200979338Y-92315503D01*
X200959500Y-92389541D01*
X200369071Y-92389541D01*
X200295034Y-92315504D01*
X200185466Y-92252245D01*
X200185463Y-92252244D01*
X200161491Y-92245820D01*
X200063259Y-92219500D01*
X199936741Y-92219500D01*
X199859267Y-92240258D01*
X199814536Y-92252244D01*
X199814535Y-92252244D01*
X199704967Y-92315503D01*
X199615503Y-92404967D01*
X199552244Y-92514535D01*
X199552244Y-92514536D01*
X199540981Y-92556572D01*
X199519500Y-92636741D01*
X188734300Y-92636741D01*
X188734300Y-92590541D01*
X188701555Y-92468334D01*
X188638296Y-92358766D01*
X188548834Y-92269304D01*
X188439266Y-92206045D01*
X188439263Y-92206044D01*
X188410283Y-92198279D01*
X188317059Y-92173300D01*
X188190541Y-92173300D01*
X188113067Y-92194058D01*
X188068336Y-92206044D01*
X188068335Y-92206044D01*
X187958767Y-92269303D01*
X187958766Y-92269303D01*
X187958766Y-92269304D01*
X187869304Y-92358766D01*
X187869303Y-92358768D01*
X187869299Y-92358772D01*
X187857367Y-92379440D01*
X187819720Y-92408327D01*
X187772674Y-92402133D01*
X187743787Y-92364486D01*
X187717755Y-92267334D01*
X187654496Y-92157766D01*
X187565034Y-92068304D01*
X187455466Y-92005045D01*
X187455463Y-92005044D01*
X187425120Y-91996914D01*
X187333259Y-91972300D01*
X187206741Y-91972300D01*
X187129267Y-91993058D01*
X187084536Y-92005044D01*
X187084535Y-92005044D01*
X186974967Y-92068303D01*
X186885503Y-92157767D01*
X186822244Y-92267335D01*
X186822244Y-92267336D01*
X186809338Y-92315503D01*
X186789500Y-92389541D01*
X186534870Y-92389541D01*
X186498912Y-92255342D01*
X186442577Y-92157767D01*
X186419854Y-92118409D01*
X186308050Y-92006605D01*
X186305348Y-92005045D01*
X186291266Y-91996914D01*
X186262379Y-91959266D01*
X186268574Y-91912220D01*
X186278425Y-91899382D01*
X186316628Y-91861180D01*
X186395685Y-91724248D01*
X186395688Y-91724240D01*
X186436608Y-91571522D01*
X186436608Y-91413405D01*
X186403307Y-91289124D01*
X186403306Y-91289123D01*
X186400096Y-91277143D01*
X186400095Y-91277141D01*
X199729500Y-91277141D01*
X199729500Y-91403659D01*
X199762245Y-91525866D01*
X199825504Y-91635434D01*
X199914966Y-91724896D01*
X200024534Y-91788155D01*
X200146741Y-91820900D01*
X200146744Y-91820900D01*
X200273256Y-91820900D01*
X200273259Y-91820900D01*
X200395466Y-91788155D01*
X200505034Y-91724896D01*
X200594496Y-91635434D01*
X200635137Y-91565040D01*
X200672783Y-91536154D01*
X200719829Y-91542347D01*
X200732671Y-91552200D01*
X200735502Y-91555031D01*
X200735504Y-91555034D01*
X200824966Y-91644496D01*
X200934534Y-91707755D01*
X201056741Y-91740500D01*
X201056744Y-91740500D01*
X201183256Y-91740500D01*
X201183259Y-91740500D01*
X201305466Y-91707755D01*
X201415034Y-91644496D01*
X201504496Y-91555034D01*
X201567755Y-91445466D01*
X201600500Y-91323259D01*
X201600500Y-91196741D01*
X201567755Y-91074534D01*
X201504496Y-90964966D01*
X201415034Y-90875504D01*
X201305466Y-90812245D01*
X201305463Y-90812244D01*
X201281491Y-90805820D01*
X201183259Y-90779500D01*
X201056741Y-90779500D01*
X200993501Y-90796445D01*
X200934536Y-90812244D01*
X200934535Y-90812244D01*
X200824967Y-90875503D01*
X200824966Y-90875503D01*
X200824966Y-90875504D01*
X200735504Y-90964966D01*
X200735503Y-90964968D01*
X200735499Y-90964972D01*
X200694862Y-91035358D01*
X200657215Y-91064245D01*
X200610169Y-91058051D01*
X200597328Y-91048199D01*
X200594497Y-91045368D01*
X200594496Y-91045366D01*
X200505034Y-90955904D01*
X200395466Y-90892645D01*
X200395463Y-90892644D01*
X200371491Y-90886220D01*
X200273259Y-90859900D01*
X200146741Y-90859900D01*
X200088506Y-90875504D01*
X200024536Y-90892644D01*
X200024535Y-90892644D01*
X199914967Y-90955903D01*
X199825503Y-91045367D01*
X199762244Y-91154935D01*
X199762244Y-91154936D01*
X199747047Y-91211653D01*
X199729500Y-91277141D01*
X186400095Y-91277141D01*
X186395685Y-91260680D01*
X186391989Y-91254279D01*
X186363519Y-91204966D01*
X186316628Y-91123748D01*
X186204824Y-91011944D01*
X186167680Y-90990499D01*
X186067890Y-90932885D01*
X185915166Y-90891964D01*
X185915165Y-90891964D01*
X185757051Y-90891964D01*
X185757050Y-90891964D01*
X185604326Y-90932885D01*
X185574508Y-90950100D01*
X185527461Y-90956292D01*
X185489815Y-90927403D01*
X185483623Y-90912452D01*
X185473379Y-90874223D01*
X185473377Y-90874217D01*
X185473377Y-90874216D01*
X185394320Y-90737284D01*
X185282516Y-90625480D01*
X185252510Y-90608156D01*
X185145582Y-90546421D01*
X184992858Y-90505500D01*
X184992857Y-90505500D01*
X184834743Y-90505500D01*
X184834742Y-90505500D01*
X184682017Y-90546421D01*
X184545085Y-90625479D01*
X184433279Y-90737285D01*
X184354221Y-90874217D01*
X184313300Y-91026941D01*
X181779521Y-91026941D01*
X181800500Y-90894481D01*
X181800500Y-90705519D01*
X181770940Y-90518882D01*
X181712547Y-90339168D01*
X181626760Y-90170801D01*
X181515690Y-90017927D01*
X181382073Y-89884310D01*
X181345344Y-89857625D01*
X181343708Y-89856436D01*
X181280264Y-89810341D01*
X196392502Y-89810341D01*
X196392502Y-89936859D01*
X196425247Y-90059066D01*
X196488506Y-90168634D01*
X196577968Y-90258096D01*
X196687536Y-90321355D01*
X196809743Y-90354100D01*
X196809746Y-90354100D01*
X196936258Y-90354100D01*
X196936261Y-90354100D01*
X197058468Y-90321355D01*
X197083780Y-90306741D01*
X201739500Y-90306741D01*
X201739500Y-90433259D01*
X201772245Y-90555466D01*
X201835504Y-90665034D01*
X201924966Y-90754496D01*
X201924968Y-90754497D01*
X201926630Y-90756159D01*
X201944789Y-90800000D01*
X201926630Y-90843839D01*
X201894967Y-90875503D01*
X201865503Y-90904967D01*
X201802244Y-91014535D01*
X201802244Y-91014536D01*
X201792141Y-91052244D01*
X201769500Y-91136741D01*
X201769500Y-91263259D01*
X201802245Y-91385466D01*
X201865504Y-91495034D01*
X201954966Y-91584496D01*
X202064534Y-91647755D01*
X202186741Y-91680500D01*
X202186744Y-91680500D01*
X202313256Y-91680500D01*
X202313259Y-91680500D01*
X202435466Y-91647755D01*
X202479299Y-91622448D01*
X205723793Y-91622448D01*
X205723793Y-91748966D01*
X205741161Y-91813783D01*
X205756357Y-91870500D01*
X205756538Y-91871173D01*
X205819797Y-91980741D01*
X205909259Y-92070203D01*
X206018827Y-92133462D01*
X206141034Y-92166207D01*
X206141037Y-92166207D01*
X206267549Y-92166207D01*
X206267552Y-92166207D01*
X206389759Y-92133462D01*
X206499327Y-92070203D01*
X206588789Y-91980741D01*
X206652048Y-91871173D01*
X206684793Y-91748966D01*
X206684793Y-91622448D01*
X206652048Y-91500241D01*
X206615386Y-91436741D01*
X208519500Y-91436741D01*
X208519500Y-91563259D01*
X208552245Y-91685466D01*
X208615504Y-91795034D01*
X208704966Y-91884496D01*
X208814534Y-91947755D01*
X208936741Y-91980500D01*
X208936744Y-91980500D01*
X209063256Y-91980500D01*
X209063259Y-91980500D01*
X209185466Y-91947755D01*
X209295034Y-91884496D01*
X209384496Y-91795034D01*
X209447755Y-91685466D01*
X209480500Y-91563259D01*
X209480500Y-91436741D01*
X209447755Y-91314534D01*
X209384496Y-91204966D01*
X209295034Y-91115504D01*
X209185466Y-91052245D01*
X209185463Y-91052244D01*
X209159793Y-91045366D01*
X209063259Y-91019500D01*
X208936741Y-91019500D01*
X208877558Y-91035358D01*
X208814536Y-91052244D01*
X208814535Y-91052244D01*
X208704967Y-91115503D01*
X208615503Y-91204967D01*
X208552244Y-91314535D01*
X208552244Y-91314536D01*
X208546015Y-91337784D01*
X208519500Y-91436741D01*
X206615386Y-91436741D01*
X206588789Y-91390673D01*
X206499327Y-91301211D01*
X206389759Y-91237952D01*
X206389756Y-91237951D01*
X206365784Y-91231527D01*
X206267552Y-91205207D01*
X206141034Y-91205207D01*
X206063560Y-91225965D01*
X206018829Y-91237951D01*
X206018828Y-91237951D01*
X205909260Y-91301210D01*
X205819796Y-91390674D01*
X205756537Y-91500242D01*
X205756537Y-91500243D01*
X205749672Y-91525864D01*
X205723793Y-91622448D01*
X202479299Y-91622448D01*
X202545034Y-91584496D01*
X202634496Y-91495034D01*
X202697755Y-91385466D01*
X202730500Y-91263259D01*
X202730500Y-91136741D01*
X202697755Y-91014534D01*
X202634496Y-90904966D01*
X202545034Y-90815504D01*
X202545031Y-90815502D01*
X202543370Y-90813841D01*
X202525211Y-90770000D01*
X202543369Y-90726160D01*
X202604496Y-90665034D01*
X202667755Y-90555466D01*
X202691529Y-90466741D01*
X203509500Y-90466741D01*
X203509500Y-90593259D01*
X203542245Y-90715466D01*
X203605504Y-90825034D01*
X203694966Y-90914496D01*
X203804534Y-90977755D01*
X203926741Y-91010500D01*
X203926744Y-91010500D01*
X204053256Y-91010500D01*
X204053259Y-91010500D01*
X204175466Y-90977755D01*
X204285034Y-90914496D01*
X204352789Y-90846741D01*
X212589500Y-90846741D01*
X212589500Y-90973259D01*
X212622245Y-91095466D01*
X212685504Y-91205034D01*
X212774966Y-91294496D01*
X212884534Y-91357755D01*
X213006741Y-91390500D01*
X213006744Y-91390500D01*
X213133256Y-91390500D01*
X213133259Y-91390500D01*
X213255466Y-91357755D01*
X213365034Y-91294496D01*
X213454496Y-91205034D01*
X213517755Y-91095466D01*
X213550500Y-90973259D01*
X213550500Y-90846741D01*
X213517755Y-90724534D01*
X213454496Y-90614966D01*
X213365034Y-90525504D01*
X213255466Y-90462245D01*
X213255463Y-90462244D01*
X213230435Y-90455538D01*
X213133259Y-90429500D01*
X213006741Y-90429500D01*
X212942807Y-90446631D01*
X212884536Y-90462244D01*
X212884535Y-90462244D01*
X212774967Y-90525503D01*
X212685503Y-90614967D01*
X212622244Y-90724535D01*
X212622244Y-90724536D01*
X212608364Y-90776339D01*
X212589500Y-90846741D01*
X204352789Y-90846741D01*
X204374496Y-90825034D01*
X204437755Y-90715466D01*
X204470500Y-90593259D01*
X204470500Y-90466741D01*
X204437755Y-90344534D01*
X204374496Y-90234966D01*
X204285034Y-90145504D01*
X204175466Y-90082245D01*
X204175463Y-90082244D01*
X204148300Y-90074966D01*
X204053259Y-90049500D01*
X203926741Y-90049500D01*
X203849267Y-90070258D01*
X203804536Y-90082244D01*
X203804535Y-90082244D01*
X203694967Y-90145503D01*
X203605503Y-90234967D01*
X203542244Y-90344535D01*
X203542244Y-90344536D01*
X203528257Y-90396740D01*
X203509500Y-90466741D01*
X202691529Y-90466741D01*
X202700500Y-90433259D01*
X202700500Y-90306741D01*
X202667755Y-90184534D01*
X202604496Y-90074966D01*
X202515034Y-89985504D01*
X202506438Y-89980541D01*
X206619500Y-89980541D01*
X206619500Y-90107059D01*
X206652245Y-90229266D01*
X206715504Y-90338834D01*
X206804966Y-90428296D01*
X206914534Y-90491555D01*
X207036741Y-90524300D01*
X207036744Y-90524300D01*
X207163256Y-90524300D01*
X207163259Y-90524300D01*
X207285466Y-90491555D01*
X207395034Y-90428296D01*
X207484496Y-90338834D01*
X207547755Y-90229266D01*
X207580500Y-90107059D01*
X207580500Y-89980541D01*
X207547755Y-89858334D01*
X207484496Y-89748766D01*
X207472471Y-89736741D01*
X207875700Y-89736741D01*
X207875700Y-89863259D01*
X207908445Y-89985466D01*
X207971704Y-90095034D01*
X208061166Y-90184496D01*
X208170734Y-90247755D01*
X208292941Y-90280500D01*
X208292944Y-90280500D01*
X208419456Y-90280500D01*
X208419459Y-90280500D01*
X208541666Y-90247755D01*
X208651234Y-90184496D01*
X208740696Y-90095034D01*
X208748554Y-90081423D01*
X209186752Y-90081423D01*
X209186752Y-90207941D01*
X209219497Y-90330148D01*
X209282756Y-90439716D01*
X209372218Y-90529178D01*
X209481786Y-90592437D01*
X209603993Y-90625182D01*
X209603996Y-90625182D01*
X209730508Y-90625182D01*
X209730511Y-90625182D01*
X209852718Y-90592437D01*
X209962286Y-90529178D01*
X210051748Y-90439716D01*
X210115007Y-90330148D01*
X210147752Y-90207941D01*
X210147752Y-90081423D01*
X210115007Y-89959216D01*
X210051748Y-89849648D01*
X209962286Y-89760186D01*
X209852718Y-89696927D01*
X209852715Y-89696926D01*
X209819909Y-89688136D01*
X209730511Y-89664182D01*
X209603993Y-89664182D01*
X209526519Y-89684940D01*
X209481788Y-89696926D01*
X209481787Y-89696926D01*
X209372219Y-89760185D01*
X209282755Y-89849649D01*
X209219496Y-89959217D01*
X209219496Y-89959218D01*
X209186752Y-90081423D01*
X208748554Y-90081423D01*
X208803955Y-89985466D01*
X208836700Y-89863259D01*
X208836700Y-89736741D01*
X208803955Y-89614534D01*
X208740696Y-89504966D01*
X208651234Y-89415504D01*
X208541666Y-89352245D01*
X208541663Y-89352244D01*
X208517691Y-89345820D01*
X208419459Y-89319500D01*
X208292941Y-89319500D01*
X208215467Y-89340258D01*
X208170736Y-89352244D01*
X208170735Y-89352244D01*
X208061167Y-89415503D01*
X207971703Y-89504967D01*
X207908444Y-89614535D01*
X207908444Y-89614536D01*
X207896761Y-89658138D01*
X207875700Y-89736741D01*
X207472471Y-89736741D01*
X207395034Y-89659304D01*
X207285466Y-89596045D01*
X207285463Y-89596044D01*
X207261491Y-89589620D01*
X207163259Y-89563300D01*
X207036741Y-89563300D01*
X206959267Y-89584058D01*
X206914536Y-89596044D01*
X206914535Y-89596044D01*
X206804967Y-89659303D01*
X206715503Y-89748767D01*
X206652244Y-89858335D01*
X206652244Y-89858336D01*
X206645285Y-89884310D01*
X206619500Y-89980541D01*
X202506438Y-89980541D01*
X202405466Y-89922245D01*
X202405463Y-89922244D01*
X202381491Y-89915820D01*
X202283259Y-89889500D01*
X202156741Y-89889500D01*
X202079267Y-89910258D01*
X202034536Y-89922244D01*
X202034535Y-89922244D01*
X201924967Y-89985503D01*
X201835503Y-90074967D01*
X201772244Y-90184535D01*
X201772244Y-90184536D01*
X201739500Y-90306741D01*
X197083780Y-90306741D01*
X197168036Y-90258096D01*
X197257498Y-90168634D01*
X197320757Y-90059066D01*
X197353502Y-89936859D01*
X197353502Y-89810341D01*
X197320757Y-89688134D01*
X197257498Y-89578566D01*
X197168036Y-89489104D01*
X197058468Y-89425845D01*
X197058465Y-89425844D01*
X197034493Y-89419420D01*
X196936261Y-89393100D01*
X196809743Y-89393100D01*
X196732269Y-89413858D01*
X196687538Y-89425844D01*
X196687537Y-89425844D01*
X196577969Y-89489103D01*
X196488505Y-89578567D01*
X196425246Y-89688135D01*
X196425246Y-89688136D01*
X196392502Y-89810341D01*
X181280264Y-89810341D01*
X181229198Y-89773239D01*
X181148160Y-89731949D01*
X181060832Y-89687453D01*
X180881118Y-89629060D01*
X180694481Y-89599500D01*
X180505519Y-89599500D01*
X180318887Y-89629059D01*
X180318885Y-89629059D01*
X180318882Y-89629060D01*
X180210788Y-89664182D01*
X180139170Y-89687452D01*
X180139168Y-89687452D01*
X180139168Y-89687453D01*
X180137828Y-89688136D01*
X179970801Y-89773239D01*
X179817930Y-89884307D01*
X179684307Y-90017930D01*
X179573239Y-90170801D01*
X179487452Y-90339170D01*
X179482601Y-90354100D01*
X179429060Y-90518882D01*
X179429059Y-90518885D01*
X179429059Y-90518887D01*
X179399500Y-90705519D01*
X178498766Y-90705519D01*
X178477925Y-90641377D01*
X178477925Y-90641376D01*
X178383241Y-90455550D01*
X178383238Y-90455545D01*
X178347372Y-90406180D01*
X178004114Y-90749437D01*
X178003260Y-90747374D01*
X177910238Y-90608156D01*
X177791844Y-90489762D01*
X177652626Y-90396740D01*
X177650559Y-90395884D01*
X177993818Y-90052626D01*
X177944454Y-90016761D01*
X177944449Y-90016758D01*
X177758622Y-89922074D01*
X177560266Y-89857625D01*
X177354280Y-89825000D01*
X177145720Y-89825000D01*
X176939733Y-89857625D01*
X176741377Y-89922074D01*
X176741376Y-89922074D01*
X176555550Y-90016758D01*
X176555538Y-90016765D01*
X176506180Y-90052626D01*
X176849438Y-90395884D01*
X176847374Y-90396740D01*
X176708156Y-90489762D01*
X176589762Y-90608156D01*
X176496740Y-90747374D01*
X176495884Y-90749438D01*
X176152626Y-90406180D01*
X176116765Y-90455538D01*
X176116758Y-90455550D01*
X176022074Y-90641376D01*
X176022074Y-90641377D01*
X175957625Y-90839733D01*
X175925000Y-91045720D01*
X173495000Y-91045720D01*
X173462374Y-90839733D01*
X173397925Y-90641377D01*
X173397925Y-90641376D01*
X173303241Y-90455550D01*
X173303238Y-90455545D01*
X173267372Y-90406180D01*
X172924114Y-90749437D01*
X172923260Y-90747374D01*
X172830238Y-90608156D01*
X172711844Y-90489762D01*
X172572626Y-90396740D01*
X172570559Y-90395884D01*
X172913818Y-90052626D01*
X172864454Y-90016761D01*
X172864449Y-90016758D01*
X172678622Y-89922074D01*
X172480266Y-89857625D01*
X172274280Y-89825000D01*
X172065720Y-89825000D01*
X171859733Y-89857625D01*
X171661377Y-89922074D01*
X171661376Y-89922074D01*
X171475550Y-90016758D01*
X171475538Y-90016765D01*
X171426180Y-90052626D01*
X171769438Y-90395884D01*
X171767374Y-90396740D01*
X171628156Y-90489762D01*
X171509762Y-90608156D01*
X171416740Y-90747374D01*
X171415884Y-90749438D01*
X171072626Y-90406180D01*
X171036765Y-90455538D01*
X171036758Y-90455550D01*
X170942074Y-90641376D01*
X170942074Y-90641377D01*
X170877625Y-90839733D01*
X170845000Y-91045720D01*
X165200500Y-91045720D01*
X165200500Y-88513551D01*
X173484500Y-88513551D01*
X173484500Y-88706449D01*
X173514676Y-88896972D01*
X173574285Y-89080429D01*
X173661859Y-89252302D01*
X173775241Y-89408359D01*
X173911641Y-89544759D01*
X174067698Y-89658141D01*
X174239571Y-89745715D01*
X174423028Y-89805324D01*
X174613551Y-89835500D01*
X174806449Y-89835500D01*
X174996972Y-89805324D01*
X175180429Y-89745715D01*
X175352302Y-89658141D01*
X175508359Y-89544759D01*
X175644759Y-89408359D01*
X175758141Y-89252302D01*
X175845715Y-89080429D01*
X175905324Y-88896972D01*
X175935500Y-88706449D01*
X175935500Y-88536741D01*
X204919500Y-88536741D01*
X204919500Y-88663259D01*
X204952245Y-88785466D01*
X205015504Y-88895034D01*
X205104966Y-88984496D01*
X205214534Y-89047755D01*
X205336741Y-89080500D01*
X205336744Y-89080500D01*
X205463256Y-89080500D01*
X205463259Y-89080500D01*
X205585466Y-89047755D01*
X205695034Y-88984496D01*
X205784496Y-88895034D01*
X205846307Y-88787972D01*
X205883953Y-88759087D01*
X205931000Y-88765280D01*
X205953691Y-88787971D01*
X206015504Y-88895034D01*
X206104966Y-88984496D01*
X206214534Y-89047755D01*
X206336741Y-89080500D01*
X206336744Y-89080500D01*
X206463256Y-89080500D01*
X206463259Y-89080500D01*
X206585466Y-89047755D01*
X206695034Y-88984496D01*
X206784496Y-88895034D01*
X206847755Y-88785466D01*
X206880500Y-88663259D01*
X206880500Y-88536741D01*
X206847755Y-88414534D01*
X206784496Y-88304966D01*
X206695034Y-88215504D01*
X206585466Y-88152245D01*
X206585463Y-88152244D01*
X206556624Y-88144517D01*
X206527603Y-88136741D01*
X208219500Y-88136741D01*
X208219500Y-88263259D01*
X208252245Y-88385466D01*
X208315504Y-88495034D01*
X208404966Y-88584496D01*
X208514534Y-88647755D01*
X208636741Y-88680500D01*
X208636744Y-88680500D01*
X208763256Y-88680500D01*
X208763259Y-88680500D01*
X208885466Y-88647755D01*
X208995034Y-88584496D01*
X209084496Y-88495034D01*
X209118151Y-88436741D01*
X216219500Y-88436741D01*
X216219500Y-88563259D01*
X216252245Y-88685466D01*
X216315504Y-88795034D01*
X216404966Y-88884496D01*
X216514534Y-88947755D01*
X216636741Y-88980500D01*
X216636744Y-88980500D01*
X216763256Y-88980500D01*
X216763259Y-88980500D01*
X216885466Y-88947755D01*
X216995034Y-88884496D01*
X217084496Y-88795034D01*
X217147755Y-88685466D01*
X217180500Y-88563259D01*
X217180500Y-88436741D01*
X217147755Y-88314534D01*
X217084496Y-88204966D01*
X216995034Y-88115504D01*
X216885466Y-88052245D01*
X216885463Y-88052244D01*
X216861491Y-88045820D01*
X216763259Y-88019500D01*
X216636741Y-88019500D01*
X216559267Y-88040258D01*
X216514536Y-88052244D01*
X216514535Y-88052244D01*
X216404967Y-88115503D01*
X216315503Y-88204967D01*
X216252244Y-88314535D01*
X216252244Y-88314536D01*
X216237047Y-88371253D01*
X216219500Y-88436741D01*
X209118151Y-88436741D01*
X209147755Y-88385466D01*
X209180500Y-88263259D01*
X209180500Y-88136741D01*
X209147755Y-88014534D01*
X209084496Y-87904966D01*
X208995034Y-87815504D01*
X208885466Y-87752245D01*
X208885463Y-87752244D01*
X208861491Y-87745820D01*
X208763259Y-87719500D01*
X208636741Y-87719500D01*
X208559267Y-87740258D01*
X208514536Y-87752244D01*
X208514535Y-87752244D01*
X208404967Y-87815503D01*
X208315503Y-87904967D01*
X208252244Y-88014535D01*
X208252244Y-88014536D01*
X208242141Y-88052244D01*
X208219500Y-88136741D01*
X206527603Y-88136741D01*
X206463259Y-88119500D01*
X206336741Y-88119500D01*
X206272389Y-88136743D01*
X206214536Y-88152244D01*
X206214535Y-88152244D01*
X206104967Y-88215503D01*
X206015503Y-88304967D01*
X206005076Y-88323028D01*
X205966083Y-88390567D01*
X205953694Y-88412025D01*
X205916047Y-88440912D01*
X205869000Y-88434719D01*
X205846306Y-88412025D01*
X205833918Y-88390568D01*
X205784496Y-88304966D01*
X205695034Y-88215504D01*
X205585466Y-88152245D01*
X205585463Y-88152244D01*
X205556624Y-88144517D01*
X205463259Y-88119500D01*
X205336741Y-88119500D01*
X205272389Y-88136743D01*
X205214536Y-88152244D01*
X205214535Y-88152244D01*
X205104967Y-88215503D01*
X205015503Y-88304967D01*
X204952244Y-88414535D01*
X204952244Y-88414536D01*
X204937047Y-88471253D01*
X204919500Y-88536741D01*
X175935500Y-88536741D01*
X175935500Y-88513551D01*
X175905324Y-88323028D01*
X175845715Y-88139571D01*
X175758141Y-87967698D01*
X175644759Y-87811641D01*
X175508359Y-87675241D01*
X175371761Y-87575997D01*
X175352305Y-87561861D01*
X175352300Y-87561858D01*
X175303005Y-87536741D01*
X175180429Y-87474285D01*
X174996972Y-87414676D01*
X174996075Y-87414534D01*
X174806449Y-87384500D01*
X174613551Y-87384500D01*
X174423033Y-87414675D01*
X174423031Y-87414675D01*
X174423028Y-87414676D01*
X174239571Y-87474285D01*
X174239570Y-87474285D01*
X174067699Y-87561858D01*
X174067694Y-87561861D01*
X173911642Y-87675240D01*
X173775240Y-87811642D01*
X173661861Y-87967694D01*
X173661858Y-87967699D01*
X173574285Y-88139570D01*
X173574285Y-88139571D01*
X173514676Y-88323028D01*
X173514675Y-88323031D01*
X173514675Y-88323033D01*
X173496665Y-88436743D01*
X173484500Y-88513551D01*
X165200500Y-88513551D01*
X165200500Y-86881908D01*
X166499500Y-86881908D01*
X166499500Y-87118092D01*
X166536447Y-87351368D01*
X166600571Y-87548721D01*
X166609432Y-87575991D01*
X166609434Y-87575997D01*
X166716653Y-87786427D01*
X166716657Y-87786433D01*
X166855483Y-87977510D01*
X167022490Y-88144517D01*
X167213567Y-88283343D01*
X167213569Y-88283344D01*
X167213572Y-88283346D01*
X167413989Y-88385463D01*
X167424008Y-88390568D01*
X167648632Y-88463553D01*
X167881908Y-88500500D01*
X168118092Y-88500500D01*
X168351368Y-88463553D01*
X168575992Y-88390568D01*
X168786433Y-88283343D01*
X168977510Y-88144517D01*
X169144517Y-87977510D01*
X169283343Y-87786433D01*
X169390568Y-87575992D01*
X169463553Y-87351368D01*
X169500500Y-87118092D01*
X169500500Y-86881908D01*
X169463553Y-86648632D01*
X169390568Y-86424008D01*
X169336522Y-86317936D01*
X169283346Y-86213572D01*
X169283340Y-86213563D01*
X169144517Y-86022490D01*
X169087747Y-85965720D01*
X170845000Y-85965720D01*
X170845000Y-86174279D01*
X170877625Y-86380266D01*
X170942074Y-86578622D01*
X170942074Y-86578623D01*
X171036758Y-86764449D01*
X171036761Y-86764454D01*
X171072626Y-86813818D01*
X171415884Y-86470559D01*
X171416740Y-86472626D01*
X171509762Y-86611844D01*
X171628156Y-86730238D01*
X171767374Y-86823260D01*
X171769437Y-86824114D01*
X171426180Y-87167372D01*
X171475545Y-87203238D01*
X171475550Y-87203241D01*
X171661377Y-87297925D01*
X171859733Y-87362374D01*
X172065720Y-87395000D01*
X172274280Y-87395000D01*
X172480266Y-87362374D01*
X172678622Y-87297925D01*
X172678623Y-87297925D01*
X172864456Y-87203237D01*
X172913818Y-87167372D01*
X172570561Y-86824115D01*
X172572626Y-86823260D01*
X172711844Y-86730238D01*
X172830238Y-86611844D01*
X172923260Y-86472626D01*
X172924115Y-86470561D01*
X173267372Y-86813818D01*
X173303237Y-86764456D01*
X173397925Y-86578623D01*
X173397925Y-86578622D01*
X173462374Y-86380266D01*
X173495000Y-86174279D01*
X173495000Y-85965720D01*
X175925000Y-85965720D01*
X175925000Y-86174279D01*
X175957625Y-86380266D01*
X176022074Y-86578622D01*
X176022074Y-86578623D01*
X176116758Y-86764449D01*
X176116761Y-86764454D01*
X176152626Y-86813818D01*
X176495884Y-86470559D01*
X176496740Y-86472626D01*
X176589762Y-86611844D01*
X176708156Y-86730238D01*
X176847374Y-86823260D01*
X176849437Y-86824114D01*
X176506180Y-87167372D01*
X176555545Y-87203238D01*
X176555550Y-87203241D01*
X176741377Y-87297925D01*
X176939733Y-87362374D01*
X177145720Y-87395000D01*
X177354280Y-87395000D01*
X177560266Y-87362374D01*
X177758622Y-87297925D01*
X177758623Y-87297925D01*
X177944456Y-87203237D01*
X177993818Y-87167372D01*
X177731965Y-86905519D01*
X179399500Y-86905519D01*
X179399500Y-87094481D01*
X179403240Y-87118092D01*
X179427654Y-87272244D01*
X179429060Y-87281118D01*
X179487453Y-87460832D01*
X179531949Y-87548160D01*
X179573239Y-87629198D01*
X179670641Y-87763259D01*
X179684310Y-87782073D01*
X179817927Y-87915690D01*
X179970801Y-88026760D01*
X180139168Y-88112547D01*
X180318882Y-88170940D01*
X180505519Y-88200500D01*
X180694481Y-88200500D01*
X180881118Y-88170940D01*
X181060832Y-88112547D01*
X181229199Y-88026760D01*
X181382073Y-87915690D01*
X181515690Y-87782073D01*
X181626760Y-87629199D01*
X181712547Y-87460832D01*
X181770940Y-87281118D01*
X181800500Y-87094481D01*
X181800500Y-86905519D01*
X182799500Y-86905519D01*
X182799500Y-87094481D01*
X182803240Y-87118092D01*
X182827654Y-87272244D01*
X182829060Y-87281118D01*
X182887453Y-87460832D01*
X182931949Y-87548160D01*
X182973239Y-87629198D01*
X183070641Y-87763259D01*
X183084310Y-87782073D01*
X183217927Y-87915690D01*
X183370801Y-88026760D01*
X183539168Y-88112547D01*
X183718882Y-88170940D01*
X183905519Y-88200500D01*
X184094481Y-88200500D01*
X184281118Y-88170940D01*
X184460832Y-88112547D01*
X184629199Y-88026760D01*
X184782073Y-87915690D01*
X184915690Y-87782073D01*
X185026760Y-87629199D01*
X185112547Y-87460832D01*
X185170940Y-87281118D01*
X185200500Y-87094481D01*
X185200500Y-86905519D01*
X186299500Y-86905519D01*
X186299500Y-87094481D01*
X186303240Y-87118092D01*
X186327654Y-87272244D01*
X186329060Y-87281118D01*
X186387453Y-87460832D01*
X186431949Y-87548160D01*
X186473239Y-87629198D01*
X186570641Y-87763259D01*
X186584310Y-87782073D01*
X186717927Y-87915690D01*
X186870801Y-88026760D01*
X187039168Y-88112547D01*
X187218882Y-88170940D01*
X187405519Y-88200500D01*
X187594481Y-88200500D01*
X187781118Y-88170940D01*
X187960832Y-88112547D01*
X188129199Y-88026760D01*
X188282073Y-87915690D01*
X188415690Y-87782073D01*
X188526760Y-87629199D01*
X188612547Y-87460832D01*
X188670940Y-87281118D01*
X188700500Y-87094481D01*
X188700500Y-86905519D01*
X189799500Y-86905519D01*
X189799500Y-87094481D01*
X189803240Y-87118092D01*
X189827654Y-87272244D01*
X189829060Y-87281118D01*
X189887453Y-87460832D01*
X189931949Y-87548160D01*
X189973239Y-87629198D01*
X190070641Y-87763259D01*
X190084310Y-87782073D01*
X190217927Y-87915690D01*
X190370801Y-88026760D01*
X190539168Y-88112547D01*
X190718882Y-88170940D01*
X190905519Y-88200500D01*
X191094481Y-88200500D01*
X191281118Y-88170940D01*
X191460832Y-88112547D01*
X191629199Y-88026760D01*
X191782073Y-87915690D01*
X191915690Y-87782073D01*
X192026760Y-87629199D01*
X192112547Y-87460832D01*
X192170940Y-87281118D01*
X192200500Y-87094481D01*
X192200500Y-86905519D01*
X193299500Y-86905519D01*
X193299500Y-87094481D01*
X193303240Y-87118092D01*
X193327654Y-87272244D01*
X193329060Y-87281118D01*
X193387453Y-87460832D01*
X193431949Y-87548160D01*
X193473239Y-87629198D01*
X193570641Y-87763259D01*
X193584310Y-87782073D01*
X193717927Y-87915690D01*
X193870801Y-88026760D01*
X194039168Y-88112547D01*
X194218882Y-88170940D01*
X194405519Y-88200500D01*
X194594481Y-88200500D01*
X194781118Y-88170940D01*
X194960832Y-88112547D01*
X195129199Y-88026760D01*
X195282073Y-87915690D01*
X195415690Y-87782073D01*
X195521280Y-87636741D01*
X198319500Y-87636741D01*
X198319500Y-87763259D01*
X198352245Y-87885466D01*
X198415504Y-87995034D01*
X198504966Y-88084496D01*
X198614534Y-88147755D01*
X198736741Y-88180500D01*
X198736744Y-88180500D01*
X198863256Y-88180500D01*
X198863259Y-88180500D01*
X198985466Y-88147755D01*
X199095034Y-88084496D01*
X199184496Y-87995034D01*
X199247755Y-87885466D01*
X199280500Y-87763259D01*
X199280500Y-87656741D01*
X203649500Y-87656741D01*
X203649500Y-87783259D01*
X203658140Y-87815503D01*
X203676885Y-87885464D01*
X203682245Y-87905466D01*
X203745504Y-88015034D01*
X203834966Y-88104496D01*
X203944534Y-88167755D01*
X204066741Y-88200500D01*
X204066744Y-88200500D01*
X204193256Y-88200500D01*
X204193259Y-88200500D01*
X204315466Y-88167755D01*
X204425034Y-88104496D01*
X204514496Y-88015034D01*
X204577755Y-87905466D01*
X204610500Y-87783259D01*
X204610500Y-87656741D01*
X204581557Y-87548723D01*
X204581557Y-87548721D01*
X204578347Y-87536741D01*
X217719500Y-87536741D01*
X217719500Y-87663259D01*
X217722711Y-87675241D01*
X217751653Y-87783259D01*
X217752245Y-87785466D01*
X217815504Y-87895034D01*
X217904966Y-87984496D01*
X218014534Y-88047755D01*
X218136741Y-88080500D01*
X218136744Y-88080500D01*
X218263256Y-88080500D01*
X218263259Y-88080500D01*
X218385466Y-88047755D01*
X218495034Y-87984496D01*
X218584496Y-87895034D01*
X218647755Y-87785466D01*
X218680500Y-87663259D01*
X218680500Y-87536741D01*
X218647755Y-87414534D01*
X218584496Y-87304966D01*
X218495034Y-87215504D01*
X218385466Y-87152245D01*
X218385463Y-87152244D01*
X218361491Y-87145820D01*
X218263259Y-87119500D01*
X218136741Y-87119500D01*
X218059267Y-87140258D01*
X218014536Y-87152244D01*
X218014535Y-87152244D01*
X217904967Y-87215503D01*
X217815503Y-87304967D01*
X217752244Y-87414535D01*
X217752244Y-87414536D01*
X217739840Y-87460829D01*
X217719500Y-87536741D01*
X204578347Y-87536741D01*
X204577757Y-87534541D01*
X204577756Y-87534539D01*
X204577755Y-87534534D01*
X204514496Y-87424966D01*
X204425034Y-87335504D01*
X204315466Y-87272245D01*
X204315463Y-87272244D01*
X204291491Y-87265820D01*
X204193259Y-87239500D01*
X204066741Y-87239500D01*
X203989267Y-87260258D01*
X203944536Y-87272244D01*
X203944535Y-87272244D01*
X203834967Y-87335503D01*
X203745503Y-87424967D01*
X203682244Y-87534535D01*
X203682244Y-87534536D01*
X203674923Y-87561859D01*
X203649500Y-87656741D01*
X199280500Y-87656741D01*
X199280500Y-87636741D01*
X199247755Y-87514534D01*
X199184496Y-87404966D01*
X199095034Y-87315504D01*
X198985466Y-87252245D01*
X198985463Y-87252244D01*
X198961491Y-87245820D01*
X198863259Y-87219500D01*
X198736741Y-87219500D01*
X198662099Y-87239500D01*
X198614536Y-87252244D01*
X198614535Y-87252244D01*
X198504967Y-87315503D01*
X198415503Y-87404967D01*
X198352244Y-87514535D01*
X198352244Y-87514536D01*
X198346294Y-87536743D01*
X198319500Y-87636741D01*
X195521280Y-87636741D01*
X195526760Y-87629199D01*
X195612547Y-87460832D01*
X195670940Y-87281118D01*
X195700500Y-87094481D01*
X195700500Y-86905519D01*
X195696760Y-86881908D01*
X220499500Y-86881908D01*
X220499500Y-87118092D01*
X220536447Y-87351368D01*
X220600571Y-87548721D01*
X220609432Y-87575991D01*
X220609434Y-87575997D01*
X220716653Y-87786427D01*
X220716657Y-87786433D01*
X220855483Y-87977510D01*
X221022490Y-88144517D01*
X221213567Y-88283343D01*
X221213569Y-88283344D01*
X221213572Y-88283346D01*
X221413989Y-88385463D01*
X221424008Y-88390568D01*
X221648632Y-88463553D01*
X221881908Y-88500500D01*
X222118092Y-88500500D01*
X222351368Y-88463553D01*
X222575992Y-88390568D01*
X222786433Y-88283343D01*
X222977510Y-88144517D01*
X223144517Y-87977510D01*
X223283343Y-87786433D01*
X223390568Y-87575992D01*
X223463553Y-87351368D01*
X223500500Y-87118092D01*
X223500500Y-86881908D01*
X223463553Y-86648632D01*
X223390568Y-86424008D01*
X223336522Y-86317936D01*
X223283346Y-86213572D01*
X223283340Y-86213563D01*
X223144517Y-86022490D01*
X222977510Y-85855483D01*
X222786433Y-85716657D01*
X222786427Y-85716653D01*
X222575997Y-85609434D01*
X222575993Y-85609432D01*
X222575992Y-85609432D01*
X222351368Y-85536447D01*
X222299020Y-85528156D01*
X222118092Y-85499500D01*
X221881908Y-85499500D01*
X221648637Y-85536446D01*
X221648635Y-85536446D01*
X221648632Y-85536447D01*
X221424008Y-85609432D01*
X221424002Y-85609434D01*
X221213572Y-85716653D01*
X221213563Y-85716659D01*
X221022491Y-85855482D01*
X220855482Y-86022491D01*
X220716659Y-86213563D01*
X220716653Y-86213572D01*
X220609434Y-86424002D01*
X220609432Y-86424008D01*
X220536447Y-86648632D01*
X220536446Y-86648635D01*
X220536446Y-86648637D01*
X220518103Y-86764454D01*
X220499500Y-86881908D01*
X195696760Y-86881908D01*
X195678158Y-86764456D01*
X195670940Y-86718882D01*
X195612547Y-86539168D01*
X195526760Y-86370801D01*
X195415690Y-86217927D01*
X195282073Y-86084310D01*
X195262376Y-86069999D01*
X195129198Y-85973239D01*
X195049646Y-85932706D01*
X194960832Y-85887453D01*
X194960829Y-85887452D01*
X194960827Y-85887451D01*
X194960820Y-85887448D01*
X194948010Y-85883285D01*
X194948004Y-85883285D01*
X194781118Y-85829060D01*
X194736946Y-85822064D01*
X194594481Y-85799500D01*
X194405519Y-85799500D01*
X194218887Y-85829059D01*
X194218885Y-85829059D01*
X194218882Y-85829060D01*
X194137561Y-85855483D01*
X194039170Y-85887452D01*
X193870801Y-85973239D01*
X193717930Y-86084307D01*
X193584307Y-86217930D01*
X193473239Y-86370801D01*
X193387452Y-86539170D01*
X193374633Y-86578623D01*
X193329060Y-86718882D01*
X193299500Y-86905519D01*
X192200500Y-86905519D01*
X192170940Y-86718882D01*
X192112547Y-86539168D01*
X192026760Y-86370801D01*
X191915690Y-86217927D01*
X191782073Y-86084310D01*
X191762376Y-86069999D01*
X191629198Y-85973239D01*
X191548160Y-85931949D01*
X191460832Y-85887453D01*
X191281118Y-85829060D01*
X191236946Y-85822064D01*
X191094481Y-85799500D01*
X190905519Y-85799500D01*
X190718887Y-85829059D01*
X190718885Y-85829059D01*
X190718882Y-85829060D01*
X190637561Y-85855483D01*
X190539170Y-85887452D01*
X190370801Y-85973239D01*
X190217930Y-86084307D01*
X190084307Y-86217930D01*
X189973239Y-86370801D01*
X189887452Y-86539170D01*
X189874633Y-86578623D01*
X189829060Y-86718882D01*
X189799500Y-86905519D01*
X188700500Y-86905519D01*
X188670940Y-86718882D01*
X188612547Y-86539168D01*
X188526760Y-86370801D01*
X188415690Y-86217927D01*
X188282073Y-86084310D01*
X188262376Y-86069999D01*
X188129198Y-85973239D01*
X188048160Y-85931949D01*
X187960832Y-85887453D01*
X187781118Y-85829060D01*
X187736946Y-85822064D01*
X187594481Y-85799500D01*
X187405519Y-85799500D01*
X187218887Y-85829059D01*
X187218885Y-85829059D01*
X187218882Y-85829060D01*
X187137561Y-85855483D01*
X187039170Y-85887452D01*
X186870801Y-85973239D01*
X186717930Y-86084307D01*
X186584307Y-86217930D01*
X186473239Y-86370801D01*
X186387452Y-86539170D01*
X186374633Y-86578623D01*
X186329060Y-86718882D01*
X186299500Y-86905519D01*
X185200500Y-86905519D01*
X185170940Y-86718882D01*
X185112547Y-86539168D01*
X185026760Y-86370801D01*
X184915690Y-86217927D01*
X184782073Y-86084310D01*
X184762376Y-86069999D01*
X184629198Y-85973239D01*
X184548160Y-85931949D01*
X184460832Y-85887453D01*
X184281118Y-85829060D01*
X184236946Y-85822064D01*
X184094481Y-85799500D01*
X183905519Y-85799500D01*
X183718887Y-85829059D01*
X183718885Y-85829059D01*
X183718882Y-85829060D01*
X183637561Y-85855483D01*
X183539170Y-85887452D01*
X183370801Y-85973239D01*
X183217930Y-86084307D01*
X183084307Y-86217930D01*
X182973239Y-86370801D01*
X182887452Y-86539170D01*
X182874633Y-86578623D01*
X182829060Y-86718882D01*
X182799500Y-86905519D01*
X181800500Y-86905519D01*
X181770940Y-86718882D01*
X181712547Y-86539168D01*
X181626760Y-86370801D01*
X181515690Y-86217927D01*
X181382073Y-86084310D01*
X181362376Y-86069999D01*
X181229198Y-85973239D01*
X181148160Y-85931949D01*
X181060832Y-85887453D01*
X180881118Y-85829060D01*
X180836946Y-85822064D01*
X180694481Y-85799500D01*
X180505519Y-85799500D01*
X180318887Y-85829059D01*
X180318885Y-85829059D01*
X180318882Y-85829060D01*
X180237561Y-85855483D01*
X180139170Y-85887452D01*
X179970801Y-85973239D01*
X179817930Y-86084307D01*
X179684307Y-86217930D01*
X179573239Y-86370801D01*
X179487452Y-86539170D01*
X179474633Y-86578623D01*
X179429060Y-86718882D01*
X179399500Y-86905519D01*
X177731965Y-86905519D01*
X177650561Y-86824115D01*
X177652626Y-86823260D01*
X177791844Y-86730238D01*
X177910238Y-86611844D01*
X178003260Y-86472626D01*
X178004115Y-86470561D01*
X178347372Y-86813818D01*
X178383237Y-86764456D01*
X178477925Y-86578623D01*
X178477925Y-86578622D01*
X178542374Y-86380266D01*
X178575000Y-86174279D01*
X178575000Y-85965720D01*
X178542374Y-85759733D01*
X178477925Y-85561377D01*
X178477925Y-85561376D01*
X178383241Y-85375550D01*
X178383238Y-85375545D01*
X178347372Y-85326180D01*
X178004114Y-85669437D01*
X178003260Y-85667374D01*
X177910238Y-85528156D01*
X177791844Y-85409762D01*
X177652626Y-85316740D01*
X177650559Y-85315884D01*
X177993818Y-84972626D01*
X177944454Y-84936761D01*
X177944449Y-84936758D01*
X177758622Y-84842074D01*
X177560266Y-84777625D01*
X177354280Y-84745000D01*
X177145720Y-84745000D01*
X176939733Y-84777625D01*
X176741377Y-84842074D01*
X176741376Y-84842074D01*
X176555550Y-84936758D01*
X176555538Y-84936765D01*
X176506180Y-84972626D01*
X176849438Y-85315884D01*
X176847374Y-85316740D01*
X176708156Y-85409762D01*
X176589762Y-85528156D01*
X176496740Y-85667374D01*
X176495884Y-85669438D01*
X176152626Y-85326180D01*
X176116765Y-85375538D01*
X176116758Y-85375550D01*
X176022074Y-85561376D01*
X176022074Y-85561377D01*
X175957625Y-85759733D01*
X175925000Y-85965720D01*
X173495000Y-85965720D01*
X173462374Y-85759733D01*
X173397925Y-85561377D01*
X173397925Y-85561376D01*
X173303241Y-85375550D01*
X173303238Y-85375545D01*
X173267372Y-85326180D01*
X172924114Y-85669437D01*
X172923260Y-85667374D01*
X172830238Y-85528156D01*
X172711844Y-85409762D01*
X172572626Y-85316740D01*
X172570559Y-85315884D01*
X172913818Y-84972626D01*
X172864454Y-84936761D01*
X172864449Y-84936758D01*
X172678622Y-84842074D01*
X172480266Y-84777625D01*
X172274280Y-84745000D01*
X172065720Y-84745000D01*
X171859733Y-84777625D01*
X171661377Y-84842074D01*
X171661376Y-84842074D01*
X171475550Y-84936758D01*
X171475538Y-84936765D01*
X171426180Y-84972626D01*
X171769438Y-85315884D01*
X171767374Y-85316740D01*
X171628156Y-85409762D01*
X171509762Y-85528156D01*
X171416740Y-85667374D01*
X171415884Y-85669438D01*
X171072626Y-85326180D01*
X171036765Y-85375538D01*
X171036758Y-85375550D01*
X170942074Y-85561376D01*
X170942074Y-85561377D01*
X170877625Y-85759733D01*
X170845000Y-85965720D01*
X169087747Y-85965720D01*
X168977510Y-85855483D01*
X168786433Y-85716657D01*
X168786427Y-85716653D01*
X168575997Y-85609434D01*
X168575993Y-85609432D01*
X168575992Y-85609432D01*
X168351368Y-85536447D01*
X168299020Y-85528156D01*
X168118092Y-85499500D01*
X167881908Y-85499500D01*
X167648637Y-85536446D01*
X167648635Y-85536446D01*
X167648632Y-85536447D01*
X167424008Y-85609432D01*
X167424002Y-85609434D01*
X167213572Y-85716653D01*
X167213563Y-85716659D01*
X167022491Y-85855482D01*
X166855482Y-86022491D01*
X166716659Y-86213563D01*
X166716653Y-86213572D01*
X166609434Y-86424002D01*
X166609432Y-86424008D01*
X166536447Y-86648632D01*
X166536446Y-86648635D01*
X166536446Y-86648637D01*
X166518103Y-86764454D01*
X166499500Y-86881908D01*
X165200500Y-86881908D01*
X165200500Y-84562500D01*
X165218659Y-84518659D01*
X165262500Y-84500500D01*
X204011434Y-84500500D01*
X204055275Y-84518659D01*
G37*
%TD.AperFunction*%
%TD*%
M02*
