%TF.GenerationSoftware,KiCad,Pcbnew,9.0.3*%
%TF.CreationDate,2026-04-20T23:01:57-07:00*%
%TF.ProjectId,proves_radio_stick_V1,70726f76-6573-45f7-9261-64696f5f7374,rev?*%
%TF.SameCoordinates,Original*%
%TF.FileFunction,Legend,Bot*%
%TF.FilePolarity,Positive*%
%FSLAX46Y46*%
G04 Gerber Fmt 4.6, Leading zero omitted, Abs format (unit mm)*
G04 Created by KiCad (PCBNEW 9.0.3) date 2026-04-20 23:01:57*
%MOMM*%
%LPD*%
G01*
G04 APERTURE LIST*
G04 Aperture macros list*
%AMRoundRect*
0 Rectangle with rounded corners*
0 $1 Rounding radius*
0 $2 $3 $4 $5 $6 $7 $8 $9 X,Y pos of 4 corners*
0 Add a 4 corners polygon primitive as box body*
4,1,4,$2,$3,$4,$5,$6,$7,$8,$9,$2,$3,0*
0 Add four circle primitives for the rounded corners*
1,1,$1+$1,$2,$3*
1,1,$1+$1,$4,$5*
1,1,$1+$1,$6,$7*
1,1,$1+$1,$8,$9*
0 Add four rect primitives between the rounded corners*
20,1,$1+$1,$2,$3,$4,$5,0*
20,1,$1+$1,$4,$5,$6,$7,0*
20,1,$1+$1,$6,$7,$8,$9,0*
20,1,$1+$1,$8,$9,$2,$3,0*%
G04 Aperture macros list end*
%ADD10C,0.150000*%
%ADD11R,1.700000X1.700000*%
%ADD12C,1.700000*%
%ADD13C,2.600000*%
%ADD14C,4.400000*%
%ADD15RoundRect,0.249999X-0.850001X-0.850001X0.850001X-0.850001X0.850001X0.850001X-0.850001X0.850001X0*%
%ADD16C,2.200000*%
%ADD17C,2.050000*%
%ADD18C,2.250000*%
%ADD19C,0.650000*%
%ADD20O,2.100000X1.000000*%
%ADD21O,1.600000X1.000000*%
G04 APERTURE END LIST*
D10*
X217785717Y-97259875D02*
X218357145Y-97259875D01*
X218071431Y-97259875D02*
X218071431Y-96259875D01*
X218071431Y-96259875D02*
X218166669Y-96402732D01*
X218166669Y-96402732D02*
X218261907Y-96497970D01*
X218261907Y-96497970D02*
X218357145Y-96545589D01*
X216642859Y-96355113D02*
X216595240Y-96307494D01*
X216595240Y-96307494D02*
X216500002Y-96259875D01*
X216500002Y-96259875D02*
X216261907Y-96259875D01*
X216261907Y-96259875D02*
X216166669Y-96307494D01*
X216166669Y-96307494D02*
X216119050Y-96355113D01*
X216119050Y-96355113D02*
X216071431Y-96450351D01*
X216071431Y-96450351D02*
X216071431Y-96545589D01*
X216071431Y-96545589D02*
X216119050Y-96688446D01*
X216119050Y-96688446D02*
X216690478Y-97259875D01*
X216690478Y-97259875D02*
X216071431Y-97259875D01*
X214976192Y-96259875D02*
X214357145Y-96259875D01*
X214357145Y-96259875D02*
X214690478Y-96640827D01*
X214690478Y-96640827D02*
X214547621Y-96640827D01*
X214547621Y-96640827D02*
X214452383Y-96688446D01*
X214452383Y-96688446D02*
X214404764Y-96736065D01*
X214404764Y-96736065D02*
X214357145Y-96831303D01*
X214357145Y-96831303D02*
X214357145Y-97069398D01*
X214357145Y-97069398D02*
X214404764Y-97164636D01*
X214404764Y-97164636D02*
X214452383Y-97212256D01*
X214452383Y-97212256D02*
X214547621Y-97259875D01*
X214547621Y-97259875D02*
X214833335Y-97259875D01*
X214833335Y-97259875D02*
X214928573Y-97212256D01*
X214928573Y-97212256D02*
X214976192Y-97164636D01*
X212738097Y-96593208D02*
X212738097Y-97259875D01*
X212976192Y-96212256D02*
X213214287Y-96926541D01*
X213214287Y-96926541D02*
X212595240Y-96926541D01*
X210976192Y-96259875D02*
X211452382Y-96259875D01*
X211452382Y-96259875D02*
X211500001Y-96736065D01*
X211500001Y-96736065D02*
X211452382Y-96688446D01*
X211452382Y-96688446D02*
X211357144Y-96640827D01*
X211357144Y-96640827D02*
X211119049Y-96640827D01*
X211119049Y-96640827D02*
X211023811Y-96688446D01*
X211023811Y-96688446D02*
X210976192Y-96736065D01*
X210976192Y-96736065D02*
X210928573Y-96831303D01*
X210928573Y-96831303D02*
X210928573Y-97069398D01*
X210928573Y-97069398D02*
X210976192Y-97164636D01*
X210976192Y-97164636D02*
X211023811Y-97212256D01*
X211023811Y-97212256D02*
X211119049Y-97259875D01*
X211119049Y-97259875D02*
X211357144Y-97259875D01*
X211357144Y-97259875D02*
X211452382Y-97212256D01*
X211452382Y-97212256D02*
X211500001Y-97164636D01*
X209309525Y-96259875D02*
X209500001Y-96259875D01*
X209500001Y-96259875D02*
X209595239Y-96307494D01*
X209595239Y-96307494D02*
X209642858Y-96355113D01*
X209642858Y-96355113D02*
X209738096Y-96497970D01*
X209738096Y-96497970D02*
X209785715Y-96688446D01*
X209785715Y-96688446D02*
X209785715Y-97069398D01*
X209785715Y-97069398D02*
X209738096Y-97164636D01*
X209738096Y-97164636D02*
X209690477Y-97212256D01*
X209690477Y-97212256D02*
X209595239Y-97259875D01*
X209595239Y-97259875D02*
X209404763Y-97259875D01*
X209404763Y-97259875D02*
X209309525Y-97212256D01*
X209309525Y-97212256D02*
X209261906Y-97164636D01*
X209261906Y-97164636D02*
X209214287Y-97069398D01*
X209214287Y-97069398D02*
X209214287Y-96831303D01*
X209214287Y-96831303D02*
X209261906Y-96736065D01*
X209261906Y-96736065D02*
X209309525Y-96688446D01*
X209309525Y-96688446D02*
X209404763Y-96640827D01*
X209404763Y-96640827D02*
X209595239Y-96640827D01*
X209595239Y-96640827D02*
X209690477Y-96688446D01*
X209690477Y-96688446D02*
X209738096Y-96736065D01*
X209738096Y-96736065D02*
X209785715Y-96831303D01*
X208119048Y-96259875D02*
X207452382Y-96259875D01*
X207452382Y-96259875D02*
X207880953Y-97259875D01*
X206309524Y-97164636D02*
X206261905Y-97212256D01*
X206261905Y-97212256D02*
X206309524Y-97259875D01*
X206309524Y-97259875D02*
X206357143Y-97212256D01*
X206357143Y-97212256D02*
X206309524Y-97164636D01*
X206309524Y-97164636D02*
X206309524Y-97259875D01*
X205071429Y-97164636D02*
X205023810Y-97212256D01*
X205023810Y-97212256D02*
X205071429Y-97259875D01*
X205071429Y-97259875D02*
X205119048Y-97212256D01*
X205119048Y-97212256D02*
X205071429Y-97164636D01*
X205071429Y-97164636D02*
X205071429Y-97259875D01*
X203833334Y-97164636D02*
X203785715Y-97212256D01*
X203785715Y-97212256D02*
X203833334Y-97259875D01*
X203833334Y-97259875D02*
X203880953Y-97212256D01*
X203880953Y-97212256D02*
X203833334Y-97164636D01*
X203833334Y-97164636D02*
X203833334Y-97259875D01*
X202595239Y-97259875D02*
X202595239Y-96259875D01*
X202595239Y-96736065D02*
X202023811Y-96736065D01*
X202023811Y-97259875D02*
X202023811Y-96259875D01*
X201404763Y-97259875D02*
X201500001Y-97212256D01*
X201500001Y-97212256D02*
X201547620Y-97164636D01*
X201547620Y-97164636D02*
X201595239Y-97069398D01*
X201595239Y-97069398D02*
X201595239Y-96783684D01*
X201595239Y-96783684D02*
X201547620Y-96688446D01*
X201547620Y-96688446D02*
X201500001Y-96640827D01*
X201500001Y-96640827D02*
X201404763Y-96593208D01*
X201404763Y-96593208D02*
X201261906Y-96593208D01*
X201261906Y-96593208D02*
X201166668Y-96640827D01*
X201166668Y-96640827D02*
X201119049Y-96688446D01*
X201119049Y-96688446D02*
X201071430Y-96783684D01*
X201071430Y-96783684D02*
X201071430Y-97069398D01*
X201071430Y-97069398D02*
X201119049Y-97164636D01*
X201119049Y-97164636D02*
X201166668Y-97212256D01*
X201166668Y-97212256D02*
X201261906Y-97259875D01*
X201261906Y-97259875D02*
X201404763Y-97259875D01*
X200738096Y-96593208D02*
X200547620Y-97259875D01*
X200547620Y-97259875D02*
X200357144Y-96783684D01*
X200357144Y-96783684D02*
X200166668Y-97259875D01*
X200166668Y-97259875D02*
X199976192Y-96593208D01*
X198833334Y-97259875D02*
X198833334Y-96593208D01*
X198833334Y-96688446D02*
X198785715Y-96640827D01*
X198785715Y-96640827D02*
X198690477Y-96593208D01*
X198690477Y-96593208D02*
X198547620Y-96593208D01*
X198547620Y-96593208D02*
X198452382Y-96640827D01*
X198452382Y-96640827D02*
X198404763Y-96736065D01*
X198404763Y-96736065D02*
X198404763Y-97259875D01*
X198404763Y-96736065D02*
X198357144Y-96640827D01*
X198357144Y-96640827D02*
X198261906Y-96593208D01*
X198261906Y-96593208D02*
X198119049Y-96593208D01*
X198119049Y-96593208D02*
X198023810Y-96640827D01*
X198023810Y-96640827D02*
X197976191Y-96736065D01*
X197976191Y-96736065D02*
X197976191Y-97259875D01*
X197071430Y-97259875D02*
X197071430Y-96736065D01*
X197071430Y-96736065D02*
X197119049Y-96640827D01*
X197119049Y-96640827D02*
X197214287Y-96593208D01*
X197214287Y-96593208D02*
X197404763Y-96593208D01*
X197404763Y-96593208D02*
X197500001Y-96640827D01*
X197071430Y-97212256D02*
X197166668Y-97259875D01*
X197166668Y-97259875D02*
X197404763Y-97259875D01*
X197404763Y-97259875D02*
X197500001Y-97212256D01*
X197500001Y-97212256D02*
X197547620Y-97117017D01*
X197547620Y-97117017D02*
X197547620Y-97021779D01*
X197547620Y-97021779D02*
X197500001Y-96926541D01*
X197500001Y-96926541D02*
X197404763Y-96878922D01*
X197404763Y-96878922D02*
X197166668Y-96878922D01*
X197166668Y-96878922D02*
X197071430Y-96831303D01*
X196595239Y-96593208D02*
X196595239Y-97259875D01*
X196595239Y-96688446D02*
X196547620Y-96640827D01*
X196547620Y-96640827D02*
X196452382Y-96593208D01*
X196452382Y-96593208D02*
X196309525Y-96593208D01*
X196309525Y-96593208D02*
X196214287Y-96640827D01*
X196214287Y-96640827D02*
X196166668Y-96736065D01*
X196166668Y-96736065D02*
X196166668Y-97259875D01*
X195785715Y-96593208D02*
X195547620Y-97259875D01*
X195309525Y-96593208D02*
X195547620Y-97259875D01*
X195547620Y-97259875D02*
X195642858Y-97497970D01*
X195642858Y-97497970D02*
X195690477Y-97545589D01*
X195690477Y-97545589D02*
X195785715Y-97593208D01*
X194166667Y-97259875D02*
X194166667Y-96593208D01*
X194166667Y-96688446D02*
X194119048Y-96640827D01*
X194119048Y-96640827D02*
X194023810Y-96593208D01*
X194023810Y-96593208D02*
X193880953Y-96593208D01*
X193880953Y-96593208D02*
X193785715Y-96640827D01*
X193785715Y-96640827D02*
X193738096Y-96736065D01*
X193738096Y-96736065D02*
X193738096Y-97259875D01*
X193738096Y-96736065D02*
X193690477Y-96640827D01*
X193690477Y-96640827D02*
X193595239Y-96593208D01*
X193595239Y-96593208D02*
X193452382Y-96593208D01*
X193452382Y-96593208D02*
X193357143Y-96640827D01*
X193357143Y-96640827D02*
X193309524Y-96736065D01*
X193309524Y-96736065D02*
X193309524Y-97259875D01*
X192690477Y-97259875D02*
X192785715Y-97212256D01*
X192785715Y-97212256D02*
X192833334Y-97164636D01*
X192833334Y-97164636D02*
X192880953Y-97069398D01*
X192880953Y-97069398D02*
X192880953Y-96783684D01*
X192880953Y-96783684D02*
X192833334Y-96688446D01*
X192833334Y-96688446D02*
X192785715Y-96640827D01*
X192785715Y-96640827D02*
X192690477Y-96593208D01*
X192690477Y-96593208D02*
X192547620Y-96593208D01*
X192547620Y-96593208D02*
X192452382Y-96640827D01*
X192452382Y-96640827D02*
X192404763Y-96688446D01*
X192404763Y-96688446D02*
X192357144Y-96783684D01*
X192357144Y-96783684D02*
X192357144Y-97069398D01*
X192357144Y-97069398D02*
X192404763Y-97164636D01*
X192404763Y-97164636D02*
X192452382Y-97212256D01*
X192452382Y-97212256D02*
X192547620Y-97259875D01*
X192547620Y-97259875D02*
X192690477Y-97259875D01*
X191928572Y-97259875D02*
X191928572Y-96593208D01*
X191928572Y-96783684D02*
X191880953Y-96688446D01*
X191880953Y-96688446D02*
X191833334Y-96640827D01*
X191833334Y-96640827D02*
X191738096Y-96593208D01*
X191738096Y-96593208D02*
X191642858Y-96593208D01*
X190928572Y-97212256D02*
X191023810Y-97259875D01*
X191023810Y-97259875D02*
X191214286Y-97259875D01*
X191214286Y-97259875D02*
X191309524Y-97212256D01*
X191309524Y-97212256D02*
X191357143Y-97117017D01*
X191357143Y-97117017D02*
X191357143Y-96736065D01*
X191357143Y-96736065D02*
X191309524Y-96640827D01*
X191309524Y-96640827D02*
X191214286Y-96593208D01*
X191214286Y-96593208D02*
X191023810Y-96593208D01*
X191023810Y-96593208D02*
X190928572Y-96640827D01*
X190928572Y-96640827D02*
X190880953Y-96736065D01*
X190880953Y-96736065D02*
X190880953Y-96831303D01*
X190880953Y-96831303D02*
X191357143Y-96926541D01*
X189261905Y-97259875D02*
X189261905Y-96259875D01*
X189261905Y-97212256D02*
X189357143Y-97259875D01*
X189357143Y-97259875D02*
X189547619Y-97259875D01*
X189547619Y-97259875D02*
X189642857Y-97212256D01*
X189642857Y-97212256D02*
X189690476Y-97164636D01*
X189690476Y-97164636D02*
X189738095Y-97069398D01*
X189738095Y-97069398D02*
X189738095Y-96783684D01*
X189738095Y-96783684D02*
X189690476Y-96688446D01*
X189690476Y-96688446D02*
X189642857Y-96640827D01*
X189642857Y-96640827D02*
X189547619Y-96593208D01*
X189547619Y-96593208D02*
X189357143Y-96593208D01*
X189357143Y-96593208D02*
X189261905Y-96640827D01*
X188357143Y-97259875D02*
X188357143Y-96736065D01*
X188357143Y-96736065D02*
X188404762Y-96640827D01*
X188404762Y-96640827D02*
X188500000Y-96593208D01*
X188500000Y-96593208D02*
X188690476Y-96593208D01*
X188690476Y-96593208D02*
X188785714Y-96640827D01*
X188357143Y-97212256D02*
X188452381Y-97259875D01*
X188452381Y-97259875D02*
X188690476Y-97259875D01*
X188690476Y-97259875D02*
X188785714Y-97212256D01*
X188785714Y-97212256D02*
X188833333Y-97117017D01*
X188833333Y-97117017D02*
X188833333Y-97021779D01*
X188833333Y-97021779D02*
X188785714Y-96926541D01*
X188785714Y-96926541D02*
X188690476Y-96878922D01*
X188690476Y-96878922D02*
X188452381Y-96878922D01*
X188452381Y-96878922D02*
X188357143Y-96831303D01*
X187976190Y-96593208D02*
X187738095Y-97259875D01*
X187500000Y-96593208D02*
X187738095Y-97259875D01*
X187738095Y-97259875D02*
X187833333Y-97497970D01*
X187833333Y-97497970D02*
X187880952Y-97545589D01*
X187880952Y-97545589D02*
X187976190Y-97593208D01*
X187166666Y-97212256D02*
X187071428Y-97259875D01*
X187071428Y-97259875D02*
X186880952Y-97259875D01*
X186880952Y-97259875D02*
X186785714Y-97212256D01*
X186785714Y-97212256D02*
X186738095Y-97117017D01*
X186738095Y-97117017D02*
X186738095Y-97069398D01*
X186738095Y-97069398D02*
X186785714Y-96974160D01*
X186785714Y-96974160D02*
X186880952Y-96926541D01*
X186880952Y-96926541D02*
X187023809Y-96926541D01*
X187023809Y-96926541D02*
X187119047Y-96878922D01*
X187119047Y-96878922D02*
X187166666Y-96783684D01*
X187166666Y-96783684D02*
X187166666Y-96736065D01*
X187166666Y-96736065D02*
X187119047Y-96640827D01*
X187119047Y-96640827D02*
X187023809Y-96593208D01*
X187023809Y-96593208D02*
X186880952Y-96593208D01*
X186880952Y-96593208D02*
X186785714Y-96640827D01*
X185119047Y-96593208D02*
X185119047Y-97259875D01*
X185547618Y-96593208D02*
X185547618Y-97117017D01*
X185547618Y-97117017D02*
X185499999Y-97212256D01*
X185499999Y-97212256D02*
X185404761Y-97259875D01*
X185404761Y-97259875D02*
X185261904Y-97259875D01*
X185261904Y-97259875D02*
X185166666Y-97212256D01*
X185166666Y-97212256D02*
X185119047Y-97164636D01*
X184642856Y-96593208D02*
X184642856Y-97259875D01*
X184642856Y-96688446D02*
X184595237Y-96640827D01*
X184595237Y-96640827D02*
X184499999Y-96593208D01*
X184499999Y-96593208D02*
X184357142Y-96593208D01*
X184357142Y-96593208D02*
X184261904Y-96640827D01*
X184261904Y-96640827D02*
X184214285Y-96736065D01*
X184214285Y-96736065D02*
X184214285Y-97259875D01*
X183880951Y-96593208D02*
X183499999Y-96593208D01*
X183738094Y-96259875D02*
X183738094Y-97117017D01*
X183738094Y-97117017D02*
X183690475Y-97212256D01*
X183690475Y-97212256D02*
X183595237Y-97259875D01*
X183595237Y-97259875D02*
X183499999Y-97259875D01*
X183166665Y-97259875D02*
X183166665Y-96593208D01*
X183166665Y-96259875D02*
X183214284Y-96307494D01*
X183214284Y-96307494D02*
X183166665Y-96355113D01*
X183166665Y-96355113D02*
X183119046Y-96307494D01*
X183119046Y-96307494D02*
X183166665Y-96259875D01*
X183166665Y-96259875D02*
X183166665Y-96355113D01*
X182547618Y-97259875D02*
X182642856Y-97212256D01*
X182642856Y-97212256D02*
X182690475Y-97117017D01*
X182690475Y-97117017D02*
X182690475Y-96259875D01*
X181547617Y-96593208D02*
X181166665Y-96593208D01*
X181404760Y-96259875D02*
X181404760Y-97117017D01*
X181404760Y-97117017D02*
X181357141Y-97212256D01*
X181357141Y-97212256D02*
X181261903Y-97259875D01*
X181261903Y-97259875D02*
X181166665Y-97259875D01*
X180833331Y-97259875D02*
X180833331Y-96259875D01*
X180404760Y-97259875D02*
X180404760Y-96736065D01*
X180404760Y-96736065D02*
X180452379Y-96640827D01*
X180452379Y-96640827D02*
X180547617Y-96593208D01*
X180547617Y-96593208D02*
X180690474Y-96593208D01*
X180690474Y-96593208D02*
X180785712Y-96640827D01*
X180785712Y-96640827D02*
X180833331Y-96688446D01*
X179547617Y-97212256D02*
X179642855Y-97259875D01*
X179642855Y-97259875D02*
X179833331Y-97259875D01*
X179833331Y-97259875D02*
X179928569Y-97212256D01*
X179928569Y-97212256D02*
X179976188Y-97117017D01*
X179976188Y-97117017D02*
X179976188Y-96736065D01*
X179976188Y-96736065D02*
X179928569Y-96640827D01*
X179928569Y-96640827D02*
X179833331Y-96593208D01*
X179833331Y-96593208D02*
X179642855Y-96593208D01*
X179642855Y-96593208D02*
X179547617Y-96640827D01*
X179547617Y-96640827D02*
X179499998Y-96736065D01*
X179499998Y-96736065D02*
X179499998Y-96831303D01*
X179499998Y-96831303D02*
X179976188Y-96926541D01*
X178404759Y-96593208D02*
X178214283Y-97259875D01*
X178214283Y-97259875D02*
X178023807Y-96783684D01*
X178023807Y-96783684D02*
X177833331Y-97259875D01*
X177833331Y-97259875D02*
X177642855Y-96593208D01*
X176880950Y-97212256D02*
X176976188Y-97259875D01*
X176976188Y-97259875D02*
X177166664Y-97259875D01*
X177166664Y-97259875D02*
X177261902Y-97212256D01*
X177261902Y-97212256D02*
X177309521Y-97117017D01*
X177309521Y-97117017D02*
X177309521Y-96736065D01*
X177309521Y-96736065D02*
X177261902Y-96640827D01*
X177261902Y-96640827D02*
X177166664Y-96593208D01*
X177166664Y-96593208D02*
X176976188Y-96593208D01*
X176976188Y-96593208D02*
X176880950Y-96640827D01*
X176880950Y-96640827D02*
X176833331Y-96736065D01*
X176833331Y-96736065D02*
X176833331Y-96831303D01*
X176833331Y-96831303D02*
X177309521Y-96926541D01*
X176023807Y-97212256D02*
X176119045Y-97259875D01*
X176119045Y-97259875D02*
X176309521Y-97259875D01*
X176309521Y-97259875D02*
X176404759Y-97212256D01*
X176404759Y-97212256D02*
X176452378Y-97117017D01*
X176452378Y-97117017D02*
X176452378Y-96736065D01*
X176452378Y-96736065D02*
X176404759Y-96640827D01*
X176404759Y-96640827D02*
X176309521Y-96593208D01*
X176309521Y-96593208D02*
X176119045Y-96593208D01*
X176119045Y-96593208D02*
X176023807Y-96640827D01*
X176023807Y-96640827D02*
X175976188Y-96736065D01*
X175976188Y-96736065D02*
X175976188Y-96831303D01*
X175976188Y-96831303D02*
X176452378Y-96926541D01*
X175547616Y-97259875D02*
X175547616Y-96259875D01*
X175452378Y-96878922D02*
X175166664Y-97259875D01*
X175166664Y-96593208D02*
X175547616Y-96974160D01*
X174357140Y-97212256D02*
X174452378Y-97259875D01*
X174452378Y-97259875D02*
X174642854Y-97259875D01*
X174642854Y-97259875D02*
X174738092Y-97212256D01*
X174738092Y-97212256D02*
X174785711Y-97117017D01*
X174785711Y-97117017D02*
X174785711Y-96736065D01*
X174785711Y-96736065D02*
X174738092Y-96640827D01*
X174738092Y-96640827D02*
X174642854Y-96593208D01*
X174642854Y-96593208D02*
X174452378Y-96593208D01*
X174452378Y-96593208D02*
X174357140Y-96640827D01*
X174357140Y-96640827D02*
X174309521Y-96736065D01*
X174309521Y-96736065D02*
X174309521Y-96831303D01*
X174309521Y-96831303D02*
X174785711Y-96926541D01*
X173880949Y-96593208D02*
X173880949Y-97259875D01*
X173880949Y-96688446D02*
X173833330Y-96640827D01*
X173833330Y-96640827D02*
X173738092Y-96593208D01*
X173738092Y-96593208D02*
X173595235Y-96593208D01*
X173595235Y-96593208D02*
X173499997Y-96640827D01*
X173499997Y-96640827D02*
X173452378Y-96736065D01*
X173452378Y-96736065D02*
X173452378Y-97259875D01*
X172547616Y-97259875D02*
X172547616Y-96259875D01*
X172547616Y-97212256D02*
X172642854Y-97259875D01*
X172642854Y-97259875D02*
X172833330Y-97259875D01*
X172833330Y-97259875D02*
X172928568Y-97212256D01*
X172928568Y-97212256D02*
X172976187Y-97164636D01*
X172976187Y-97164636D02*
X173023806Y-97069398D01*
X173023806Y-97069398D02*
X173023806Y-96783684D01*
X173023806Y-96783684D02*
X172976187Y-96688446D01*
X172976187Y-96688446D02*
X172928568Y-96640827D01*
X172928568Y-96640827D02*
X172833330Y-96593208D01*
X172833330Y-96593208D02*
X172642854Y-96593208D01*
X172642854Y-96593208D02*
X172547616Y-96640827D01*
X171928568Y-97164636D02*
X171880949Y-97212256D01*
X171880949Y-97212256D02*
X171928568Y-97259875D01*
X171928568Y-97259875D02*
X171976187Y-97212256D01*
X171976187Y-97212256D02*
X171928568Y-97164636D01*
X171928568Y-97164636D02*
X171928568Y-97259875D01*
X172119044Y-96307494D02*
X172023806Y-96259875D01*
X172023806Y-96259875D02*
X171785711Y-96259875D01*
X171785711Y-96259875D02*
X171690473Y-96307494D01*
X171690473Y-96307494D02*
X171642854Y-96402732D01*
X171642854Y-96402732D02*
X171642854Y-96497970D01*
X171642854Y-96497970D02*
X171690473Y-96593208D01*
X171690473Y-96593208D02*
X171738092Y-96640827D01*
X171738092Y-96640827D02*
X171833330Y-96688446D01*
X171833330Y-96688446D02*
X171880949Y-96736065D01*
X171880949Y-96736065D02*
X171928568Y-96831303D01*
X171928568Y-96831303D02*
X171928568Y-96878922D01*
X215785715Y-98869819D02*
X216357143Y-98869819D01*
X216071429Y-98869819D02*
X216071429Y-97869819D01*
X216071429Y-97869819D02*
X216166667Y-98012676D01*
X216166667Y-98012676D02*
X216261905Y-98107914D01*
X216261905Y-98107914D02*
X216357143Y-98155533D01*
X214642857Y-97965057D02*
X214595238Y-97917438D01*
X214595238Y-97917438D02*
X214500000Y-97869819D01*
X214500000Y-97869819D02*
X214261905Y-97869819D01*
X214261905Y-97869819D02*
X214166667Y-97917438D01*
X214166667Y-97917438D02*
X214119048Y-97965057D01*
X214119048Y-97965057D02*
X214071429Y-98060295D01*
X214071429Y-98060295D02*
X214071429Y-98155533D01*
X214071429Y-98155533D02*
X214119048Y-98298390D01*
X214119048Y-98298390D02*
X214690476Y-98869819D01*
X214690476Y-98869819D02*
X214071429Y-98869819D01*
X212976190Y-97869819D02*
X212357143Y-97869819D01*
X212357143Y-97869819D02*
X212690476Y-98250771D01*
X212690476Y-98250771D02*
X212547619Y-98250771D01*
X212547619Y-98250771D02*
X212452381Y-98298390D01*
X212452381Y-98298390D02*
X212404762Y-98346009D01*
X212404762Y-98346009D02*
X212357143Y-98441247D01*
X212357143Y-98441247D02*
X212357143Y-98679342D01*
X212357143Y-98679342D02*
X212404762Y-98774580D01*
X212404762Y-98774580D02*
X212452381Y-98822200D01*
X212452381Y-98822200D02*
X212547619Y-98869819D01*
X212547619Y-98869819D02*
X212833333Y-98869819D01*
X212833333Y-98869819D02*
X212928571Y-98822200D01*
X212928571Y-98822200D02*
X212976190Y-98774580D01*
X211166666Y-98869819D02*
X211166666Y-97869819D01*
X211166666Y-97869819D02*
X210595238Y-98869819D01*
X210595238Y-98869819D02*
X210595238Y-97869819D01*
X209976190Y-98869819D02*
X210071428Y-98822200D01*
X210071428Y-98822200D02*
X210119047Y-98774580D01*
X210119047Y-98774580D02*
X210166666Y-98679342D01*
X210166666Y-98679342D02*
X210166666Y-98393628D01*
X210166666Y-98393628D02*
X210119047Y-98298390D01*
X210119047Y-98298390D02*
X210071428Y-98250771D01*
X210071428Y-98250771D02*
X209976190Y-98203152D01*
X209976190Y-98203152D02*
X209833333Y-98203152D01*
X209833333Y-98203152D02*
X209738095Y-98250771D01*
X209738095Y-98250771D02*
X209690476Y-98298390D01*
X209690476Y-98298390D02*
X209642857Y-98393628D01*
X209642857Y-98393628D02*
X209642857Y-98679342D01*
X209642857Y-98679342D02*
X209690476Y-98774580D01*
X209690476Y-98774580D02*
X209738095Y-98822200D01*
X209738095Y-98822200D02*
X209833333Y-98869819D01*
X209833333Y-98869819D02*
X209976190Y-98869819D01*
X209309523Y-98203152D02*
X209119047Y-98869819D01*
X209119047Y-98869819D02*
X208928571Y-98393628D01*
X208928571Y-98393628D02*
X208738095Y-98869819D01*
X208738095Y-98869819D02*
X208547619Y-98203152D01*
X207404761Y-98869819D02*
X207404761Y-97869819D01*
X206880952Y-97869819D02*
X206976190Y-98060295D01*
X206452381Y-98869819D02*
X206452381Y-98203152D01*
X206452381Y-98298390D02*
X206404762Y-98250771D01*
X206404762Y-98250771D02*
X206309524Y-98203152D01*
X206309524Y-98203152D02*
X206166667Y-98203152D01*
X206166667Y-98203152D02*
X206071429Y-98250771D01*
X206071429Y-98250771D02*
X206023810Y-98346009D01*
X206023810Y-98346009D02*
X206023810Y-98869819D01*
X206023810Y-98346009D02*
X205976191Y-98250771D01*
X205976191Y-98250771D02*
X205880953Y-98203152D01*
X205880953Y-98203152D02*
X205738096Y-98203152D01*
X205738096Y-98203152D02*
X205642857Y-98250771D01*
X205642857Y-98250771D02*
X205595238Y-98346009D01*
X205595238Y-98346009D02*
X205595238Y-98869819D01*
X204357143Y-98869819D02*
X204357143Y-98203152D01*
X204357143Y-97869819D02*
X204404762Y-97917438D01*
X204404762Y-97917438D02*
X204357143Y-97965057D01*
X204357143Y-97965057D02*
X204309524Y-97917438D01*
X204309524Y-97917438D02*
X204357143Y-97869819D01*
X204357143Y-97869819D02*
X204357143Y-97965057D01*
X203880953Y-98203152D02*
X203880953Y-98869819D01*
X203880953Y-98298390D02*
X203833334Y-98250771D01*
X203833334Y-98250771D02*
X203738096Y-98203152D01*
X203738096Y-98203152D02*
X203595239Y-98203152D01*
X203595239Y-98203152D02*
X203500001Y-98250771D01*
X203500001Y-98250771D02*
X203452382Y-98346009D01*
X203452382Y-98346009D02*
X203452382Y-98869819D01*
X202357143Y-98203152D02*
X201976191Y-98203152D01*
X202214286Y-97869819D02*
X202214286Y-98726961D01*
X202214286Y-98726961D02*
X202166667Y-98822200D01*
X202166667Y-98822200D02*
X202071429Y-98869819D01*
X202071429Y-98869819D02*
X201976191Y-98869819D01*
X201642857Y-98869819D02*
X201642857Y-97869819D01*
X201214286Y-98869819D02*
X201214286Y-98346009D01*
X201214286Y-98346009D02*
X201261905Y-98250771D01*
X201261905Y-98250771D02*
X201357143Y-98203152D01*
X201357143Y-98203152D02*
X201500000Y-98203152D01*
X201500000Y-98203152D02*
X201595238Y-98250771D01*
X201595238Y-98250771D02*
X201642857Y-98298390D01*
X200357143Y-98822200D02*
X200452381Y-98869819D01*
X200452381Y-98869819D02*
X200642857Y-98869819D01*
X200642857Y-98869819D02*
X200738095Y-98822200D01*
X200738095Y-98822200D02*
X200785714Y-98726961D01*
X200785714Y-98726961D02*
X200785714Y-98346009D01*
X200785714Y-98346009D02*
X200738095Y-98250771D01*
X200738095Y-98250771D02*
X200642857Y-98203152D01*
X200642857Y-98203152D02*
X200452381Y-98203152D01*
X200452381Y-98203152D02*
X200357143Y-98250771D01*
X200357143Y-98250771D02*
X200309524Y-98346009D01*
X200309524Y-98346009D02*
X200309524Y-98441247D01*
X200309524Y-98441247D02*
X200785714Y-98536485D01*
X199166666Y-98822200D02*
X199071428Y-98869819D01*
X199071428Y-98869819D02*
X198880952Y-98869819D01*
X198880952Y-98869819D02*
X198785714Y-98822200D01*
X198785714Y-98822200D02*
X198738095Y-98726961D01*
X198738095Y-98726961D02*
X198738095Y-98679342D01*
X198738095Y-98679342D02*
X198785714Y-98584104D01*
X198785714Y-98584104D02*
X198880952Y-98536485D01*
X198880952Y-98536485D02*
X199023809Y-98536485D01*
X199023809Y-98536485D02*
X199119047Y-98488866D01*
X199119047Y-98488866D02*
X199166666Y-98393628D01*
X199166666Y-98393628D02*
X199166666Y-98346009D01*
X199166666Y-98346009D02*
X199119047Y-98250771D01*
X199119047Y-98250771D02*
X199023809Y-98203152D01*
X199023809Y-98203152D02*
X198880952Y-98203152D01*
X198880952Y-98203152D02*
X198785714Y-98250771D01*
X198452380Y-98203152D02*
X198071428Y-98203152D01*
X198309523Y-97869819D02*
X198309523Y-98726961D01*
X198309523Y-98726961D02*
X198261904Y-98822200D01*
X198261904Y-98822200D02*
X198166666Y-98869819D01*
X198166666Y-98869819D02*
X198071428Y-98869819D01*
X197309523Y-98203152D02*
X197309523Y-98869819D01*
X197738094Y-98203152D02*
X197738094Y-98726961D01*
X197738094Y-98726961D02*
X197690475Y-98822200D01*
X197690475Y-98822200D02*
X197595237Y-98869819D01*
X197595237Y-98869819D02*
X197452380Y-98869819D01*
X197452380Y-98869819D02*
X197357142Y-98822200D01*
X197357142Y-98822200D02*
X197309523Y-98774580D01*
X196404761Y-98869819D02*
X196404761Y-97869819D01*
X196404761Y-98822200D02*
X196499999Y-98869819D01*
X196499999Y-98869819D02*
X196690475Y-98869819D01*
X196690475Y-98869819D02*
X196785713Y-98822200D01*
X196785713Y-98822200D02*
X196833332Y-98774580D01*
X196833332Y-98774580D02*
X196880951Y-98679342D01*
X196880951Y-98679342D02*
X196880951Y-98393628D01*
X196880951Y-98393628D02*
X196833332Y-98298390D01*
X196833332Y-98298390D02*
X196785713Y-98250771D01*
X196785713Y-98250771D02*
X196690475Y-98203152D01*
X196690475Y-98203152D02*
X196499999Y-98203152D01*
X196499999Y-98203152D02*
X196404761Y-98250771D01*
X195928570Y-98869819D02*
X195928570Y-98203152D01*
X195928570Y-97869819D02*
X195976189Y-97917438D01*
X195976189Y-97917438D02*
X195928570Y-97965057D01*
X195928570Y-97965057D02*
X195880951Y-97917438D01*
X195880951Y-97917438D02*
X195928570Y-97869819D01*
X195928570Y-97869819D02*
X195928570Y-97965057D01*
X195309523Y-98869819D02*
X195404761Y-98822200D01*
X195404761Y-98822200D02*
X195452380Y-98774580D01*
X195452380Y-98774580D02*
X195499999Y-98679342D01*
X195499999Y-98679342D02*
X195499999Y-98393628D01*
X195499999Y-98393628D02*
X195452380Y-98298390D01*
X195452380Y-98298390D02*
X195404761Y-98250771D01*
X195404761Y-98250771D02*
X195309523Y-98203152D01*
X195309523Y-98203152D02*
X195166666Y-98203152D01*
X195166666Y-98203152D02*
X195071428Y-98250771D01*
X195071428Y-98250771D02*
X195023809Y-98298390D01*
X195023809Y-98298390D02*
X194976190Y-98393628D01*
X194976190Y-98393628D02*
X194976190Y-98679342D01*
X194976190Y-98679342D02*
X195023809Y-98774580D01*
X195023809Y-98774580D02*
X195071428Y-98822200D01*
X195071428Y-98822200D02*
X195166666Y-98869819D01*
X195166666Y-98869819D02*
X195309523Y-98869819D01*
X193642856Y-98869819D02*
X193738094Y-98822200D01*
X193738094Y-98822200D02*
X193785713Y-98726961D01*
X193785713Y-98726961D02*
X193785713Y-97869819D01*
X193119046Y-98869819D02*
X193214284Y-98822200D01*
X193214284Y-98822200D02*
X193261903Y-98774580D01*
X193261903Y-98774580D02*
X193309522Y-98679342D01*
X193309522Y-98679342D02*
X193309522Y-98393628D01*
X193309522Y-98393628D02*
X193261903Y-98298390D01*
X193261903Y-98298390D02*
X193214284Y-98250771D01*
X193214284Y-98250771D02*
X193119046Y-98203152D01*
X193119046Y-98203152D02*
X192976189Y-98203152D01*
X192976189Y-98203152D02*
X192880951Y-98250771D01*
X192880951Y-98250771D02*
X192833332Y-98298390D01*
X192833332Y-98298390D02*
X192785713Y-98393628D01*
X192785713Y-98393628D02*
X192785713Y-98679342D01*
X192785713Y-98679342D02*
X192833332Y-98774580D01*
X192833332Y-98774580D02*
X192880951Y-98822200D01*
X192880951Y-98822200D02*
X192976189Y-98869819D01*
X192976189Y-98869819D02*
X193119046Y-98869819D01*
X192214284Y-98869819D02*
X192309522Y-98822200D01*
X192309522Y-98822200D02*
X192357141Y-98774580D01*
X192357141Y-98774580D02*
X192404760Y-98679342D01*
X192404760Y-98679342D02*
X192404760Y-98393628D01*
X192404760Y-98393628D02*
X192357141Y-98298390D01*
X192357141Y-98298390D02*
X192309522Y-98250771D01*
X192309522Y-98250771D02*
X192214284Y-98203152D01*
X192214284Y-98203152D02*
X192071427Y-98203152D01*
X192071427Y-98203152D02*
X191976189Y-98250771D01*
X191976189Y-98250771D02*
X191928570Y-98298390D01*
X191928570Y-98298390D02*
X191880951Y-98393628D01*
X191880951Y-98393628D02*
X191880951Y-98679342D01*
X191880951Y-98679342D02*
X191928570Y-98774580D01*
X191928570Y-98774580D02*
X191976189Y-98822200D01*
X191976189Y-98822200D02*
X192071427Y-98869819D01*
X192071427Y-98869819D02*
X192214284Y-98869819D01*
X191452379Y-98869819D02*
X191452379Y-97869819D01*
X191357141Y-98488866D02*
X191071427Y-98869819D01*
X191071427Y-98203152D02*
X191452379Y-98584104D01*
X190642855Y-98869819D02*
X190642855Y-98203152D01*
X190642855Y-97869819D02*
X190690474Y-97917438D01*
X190690474Y-97917438D02*
X190642855Y-97965057D01*
X190642855Y-97965057D02*
X190595236Y-97917438D01*
X190595236Y-97917438D02*
X190642855Y-97869819D01*
X190642855Y-97869819D02*
X190642855Y-97965057D01*
X190166665Y-98203152D02*
X190166665Y-98869819D01*
X190166665Y-98298390D02*
X190119046Y-98250771D01*
X190119046Y-98250771D02*
X190023808Y-98203152D01*
X190023808Y-98203152D02*
X189880951Y-98203152D01*
X189880951Y-98203152D02*
X189785713Y-98250771D01*
X189785713Y-98250771D02*
X189738094Y-98346009D01*
X189738094Y-98346009D02*
X189738094Y-98869819D01*
X188833332Y-98203152D02*
X188833332Y-99012676D01*
X188833332Y-99012676D02*
X188880951Y-99107914D01*
X188880951Y-99107914D02*
X188928570Y-99155533D01*
X188928570Y-99155533D02*
X189023808Y-99203152D01*
X189023808Y-99203152D02*
X189166665Y-99203152D01*
X189166665Y-99203152D02*
X189261903Y-99155533D01*
X188833332Y-98822200D02*
X188928570Y-98869819D01*
X188928570Y-98869819D02*
X189119046Y-98869819D01*
X189119046Y-98869819D02*
X189214284Y-98822200D01*
X189214284Y-98822200D02*
X189261903Y-98774580D01*
X189261903Y-98774580D02*
X189309522Y-98679342D01*
X189309522Y-98679342D02*
X189309522Y-98393628D01*
X189309522Y-98393628D02*
X189261903Y-98298390D01*
X189261903Y-98298390D02*
X189214284Y-98250771D01*
X189214284Y-98250771D02*
X189119046Y-98203152D01*
X189119046Y-98203152D02*
X188928570Y-98203152D01*
X188928570Y-98203152D02*
X188833332Y-98250771D01*
X187166665Y-98869819D02*
X187166665Y-98346009D01*
X187166665Y-98346009D02*
X187214284Y-98250771D01*
X187214284Y-98250771D02*
X187309522Y-98203152D01*
X187309522Y-98203152D02*
X187499998Y-98203152D01*
X187499998Y-98203152D02*
X187595236Y-98250771D01*
X187166665Y-98822200D02*
X187261903Y-98869819D01*
X187261903Y-98869819D02*
X187499998Y-98869819D01*
X187499998Y-98869819D02*
X187595236Y-98822200D01*
X187595236Y-98822200D02*
X187642855Y-98726961D01*
X187642855Y-98726961D02*
X187642855Y-98631723D01*
X187642855Y-98631723D02*
X187595236Y-98536485D01*
X187595236Y-98536485D02*
X187499998Y-98488866D01*
X187499998Y-98488866D02*
X187261903Y-98488866D01*
X187261903Y-98488866D02*
X187166665Y-98441247D01*
X186833331Y-98203152D02*
X186452379Y-98203152D01*
X186690474Y-97869819D02*
X186690474Y-98726961D01*
X186690474Y-98726961D02*
X186642855Y-98822200D01*
X186642855Y-98822200D02*
X186547617Y-98869819D01*
X186547617Y-98869819D02*
X186452379Y-98869819D01*
X185452378Y-98203152D02*
X185214283Y-98869819D01*
X184976188Y-98203152D02*
X185214283Y-98869819D01*
X185214283Y-98869819D02*
X185309521Y-99107914D01*
X185309521Y-99107914D02*
X185357140Y-99155533D01*
X185357140Y-99155533D02*
X185452378Y-99203152D01*
X184452378Y-98869819D02*
X184547616Y-98822200D01*
X184547616Y-98822200D02*
X184595235Y-98774580D01*
X184595235Y-98774580D02*
X184642854Y-98679342D01*
X184642854Y-98679342D02*
X184642854Y-98393628D01*
X184642854Y-98393628D02*
X184595235Y-98298390D01*
X184595235Y-98298390D02*
X184547616Y-98250771D01*
X184547616Y-98250771D02*
X184452378Y-98203152D01*
X184452378Y-98203152D02*
X184309521Y-98203152D01*
X184309521Y-98203152D02*
X184214283Y-98250771D01*
X184214283Y-98250771D02*
X184166664Y-98298390D01*
X184166664Y-98298390D02*
X184119045Y-98393628D01*
X184119045Y-98393628D02*
X184119045Y-98679342D01*
X184119045Y-98679342D02*
X184166664Y-98774580D01*
X184166664Y-98774580D02*
X184214283Y-98822200D01*
X184214283Y-98822200D02*
X184309521Y-98869819D01*
X184309521Y-98869819D02*
X184452378Y-98869819D01*
X183261902Y-98203152D02*
X183261902Y-98869819D01*
X183690473Y-98203152D02*
X183690473Y-98726961D01*
X183690473Y-98726961D02*
X183642854Y-98822200D01*
X183642854Y-98822200D02*
X183547616Y-98869819D01*
X183547616Y-98869819D02*
X183404759Y-98869819D01*
X183404759Y-98869819D02*
X183309521Y-98822200D01*
X183309521Y-98822200D02*
X183261902Y-98774580D01*
X182785711Y-98869819D02*
X182785711Y-98203152D01*
X182785711Y-98393628D02*
X182738092Y-98298390D01*
X182738092Y-98298390D02*
X182690473Y-98250771D01*
X182690473Y-98250771D02*
X182595235Y-98203152D01*
X182595235Y-98203152D02*
X182499997Y-98203152D01*
X181404758Y-98869819D02*
X181404758Y-98203152D01*
X181404758Y-97869819D02*
X181452377Y-97917438D01*
X181452377Y-97917438D02*
X181404758Y-97965057D01*
X181404758Y-97965057D02*
X181357139Y-97917438D01*
X181357139Y-97917438D02*
X181404758Y-97869819D01*
X181404758Y-97869819D02*
X181404758Y-97965057D01*
X180928568Y-98869819D02*
X180928568Y-98203152D01*
X180928568Y-98298390D02*
X180880949Y-98250771D01*
X180880949Y-98250771D02*
X180785711Y-98203152D01*
X180785711Y-98203152D02*
X180642854Y-98203152D01*
X180642854Y-98203152D02*
X180547616Y-98250771D01*
X180547616Y-98250771D02*
X180499997Y-98346009D01*
X180499997Y-98346009D02*
X180499997Y-98869819D01*
X180499997Y-98346009D02*
X180452378Y-98250771D01*
X180452378Y-98250771D02*
X180357140Y-98203152D01*
X180357140Y-98203152D02*
X180214283Y-98203152D01*
X180214283Y-98203152D02*
X180119044Y-98250771D01*
X180119044Y-98250771D02*
X180071425Y-98346009D01*
X180071425Y-98346009D02*
X180071425Y-98869819D01*
X179166664Y-98869819D02*
X179166664Y-98346009D01*
X179166664Y-98346009D02*
X179214283Y-98250771D01*
X179214283Y-98250771D02*
X179309521Y-98203152D01*
X179309521Y-98203152D02*
X179499997Y-98203152D01*
X179499997Y-98203152D02*
X179595235Y-98250771D01*
X179166664Y-98822200D02*
X179261902Y-98869819D01*
X179261902Y-98869819D02*
X179499997Y-98869819D01*
X179499997Y-98869819D02*
X179595235Y-98822200D01*
X179595235Y-98822200D02*
X179642854Y-98726961D01*
X179642854Y-98726961D02*
X179642854Y-98631723D01*
X179642854Y-98631723D02*
X179595235Y-98536485D01*
X179595235Y-98536485D02*
X179499997Y-98488866D01*
X179499997Y-98488866D02*
X179261902Y-98488866D01*
X179261902Y-98488866D02*
X179166664Y-98441247D01*
X178261902Y-98203152D02*
X178261902Y-99012676D01*
X178261902Y-99012676D02*
X178309521Y-99107914D01*
X178309521Y-99107914D02*
X178357140Y-99155533D01*
X178357140Y-99155533D02*
X178452378Y-99203152D01*
X178452378Y-99203152D02*
X178595235Y-99203152D01*
X178595235Y-99203152D02*
X178690473Y-99155533D01*
X178261902Y-98822200D02*
X178357140Y-98869819D01*
X178357140Y-98869819D02*
X178547616Y-98869819D01*
X178547616Y-98869819D02*
X178642854Y-98822200D01*
X178642854Y-98822200D02*
X178690473Y-98774580D01*
X178690473Y-98774580D02*
X178738092Y-98679342D01*
X178738092Y-98679342D02*
X178738092Y-98393628D01*
X178738092Y-98393628D02*
X178690473Y-98298390D01*
X178690473Y-98298390D02*
X178642854Y-98250771D01*
X178642854Y-98250771D02*
X178547616Y-98203152D01*
X178547616Y-98203152D02*
X178357140Y-98203152D01*
X178357140Y-98203152D02*
X178261902Y-98250771D01*
X177404759Y-98822200D02*
X177499997Y-98869819D01*
X177499997Y-98869819D02*
X177690473Y-98869819D01*
X177690473Y-98869819D02*
X177785711Y-98822200D01*
X177785711Y-98822200D02*
X177833330Y-98726961D01*
X177833330Y-98726961D02*
X177833330Y-98346009D01*
X177833330Y-98346009D02*
X177785711Y-98250771D01*
X177785711Y-98250771D02*
X177690473Y-98203152D01*
X177690473Y-98203152D02*
X177499997Y-98203152D01*
X177499997Y-98203152D02*
X177404759Y-98250771D01*
X177404759Y-98250771D02*
X177357140Y-98346009D01*
X177357140Y-98346009D02*
X177357140Y-98441247D01*
X177357140Y-98441247D02*
X177833330Y-98536485D01*
X176166663Y-98774580D02*
X176119044Y-98822200D01*
X176119044Y-98822200D02*
X176166663Y-98869819D01*
X176166663Y-98869819D02*
X176214282Y-98822200D01*
X176214282Y-98822200D02*
X176166663Y-98774580D01*
X176166663Y-98774580D02*
X176166663Y-98869819D01*
X174928568Y-98774580D02*
X174880949Y-98822200D01*
X174880949Y-98822200D02*
X174928568Y-98869819D01*
X174928568Y-98869819D02*
X174976187Y-98822200D01*
X174976187Y-98822200D02*
X174928568Y-98774580D01*
X174928568Y-98774580D02*
X174928568Y-98869819D01*
X173690473Y-98774580D02*
X173642854Y-98822200D01*
X173642854Y-98822200D02*
X173690473Y-98869819D01*
X173690473Y-98869819D02*
X173738092Y-98822200D01*
X173738092Y-98822200D02*
X173690473Y-98774580D01*
X173690473Y-98774580D02*
X173690473Y-98869819D01*
X196961904Y-112069819D02*
X196961904Y-111069819D01*
X196961904Y-111069819D02*
X196723809Y-111069819D01*
X196723809Y-111069819D02*
X196580952Y-111117438D01*
X196580952Y-111117438D02*
X196485714Y-111212676D01*
X196485714Y-111212676D02*
X196438095Y-111307914D01*
X196438095Y-111307914D02*
X196390476Y-111498390D01*
X196390476Y-111498390D02*
X196390476Y-111641247D01*
X196390476Y-111641247D02*
X196438095Y-111831723D01*
X196438095Y-111831723D02*
X196485714Y-111926961D01*
X196485714Y-111926961D02*
X196580952Y-112022200D01*
X196580952Y-112022200D02*
X196723809Y-112069819D01*
X196723809Y-112069819D02*
X196961904Y-112069819D01*
X199561904Y-112069819D02*
X199561904Y-111069819D01*
X199561904Y-111069819D02*
X199323809Y-111069819D01*
X199323809Y-111069819D02*
X199180952Y-111117438D01*
X199180952Y-111117438D02*
X199085714Y-111212676D01*
X199085714Y-111212676D02*
X199038095Y-111307914D01*
X199038095Y-111307914D02*
X198990476Y-111498390D01*
X198990476Y-111498390D02*
X198990476Y-111641247D01*
X198990476Y-111641247D02*
X199038095Y-111831723D01*
X199038095Y-111831723D02*
X199085714Y-111926961D01*
X199085714Y-111926961D02*
X199180952Y-112022200D01*
X199180952Y-112022200D02*
X199323809Y-112069819D01*
X199323809Y-112069819D02*
X199561904Y-112069819D01*
X204661904Y-112069819D02*
X204661904Y-111069819D01*
X204661904Y-111069819D02*
X204423809Y-111069819D01*
X204423809Y-111069819D02*
X204280952Y-111117438D01*
X204280952Y-111117438D02*
X204185714Y-111212676D01*
X204185714Y-111212676D02*
X204138095Y-111307914D01*
X204138095Y-111307914D02*
X204090476Y-111498390D01*
X204090476Y-111498390D02*
X204090476Y-111641247D01*
X204090476Y-111641247D02*
X204138095Y-111831723D01*
X204138095Y-111831723D02*
X204185714Y-111926961D01*
X204185714Y-111926961D02*
X204280952Y-112022200D01*
X204280952Y-112022200D02*
X204423809Y-112069819D01*
X204423809Y-112069819D02*
X204661904Y-112069819D01*
X202061904Y-112069819D02*
X202061904Y-111069819D01*
X202061904Y-111069819D02*
X201823809Y-111069819D01*
X201823809Y-111069819D02*
X201680952Y-111117438D01*
X201680952Y-111117438D02*
X201585714Y-111212676D01*
X201585714Y-111212676D02*
X201538095Y-111307914D01*
X201538095Y-111307914D02*
X201490476Y-111498390D01*
X201490476Y-111498390D02*
X201490476Y-111641247D01*
X201490476Y-111641247D02*
X201538095Y-111831723D01*
X201538095Y-111831723D02*
X201585714Y-111926961D01*
X201585714Y-111926961D02*
X201680952Y-112022200D01*
X201680952Y-112022200D02*
X201823809Y-112069819D01*
X201823809Y-112069819D02*
X202061904Y-112069819D01*
X209638094Y-111784104D02*
X209161904Y-111784104D01*
X209733332Y-112069819D02*
X209399999Y-111069819D01*
X209399999Y-111069819D02*
X209066666Y-112069819D01*
X207038094Y-111784104D02*
X206561904Y-111784104D01*
X207133332Y-112069819D02*
X206799999Y-111069819D01*
X206799999Y-111069819D02*
X206466666Y-112069819D01*
X212138094Y-111784104D02*
X211661904Y-111784104D01*
X212233332Y-112069819D02*
X211899999Y-111069819D01*
X211899999Y-111069819D02*
X211566666Y-112069819D01*
X214738094Y-111784104D02*
X214261904Y-111784104D01*
X214833332Y-112069819D02*
X214499999Y-111069819D01*
X214499999Y-111069819D02*
X214166666Y-112069819D01*
X195500000Y-110800000D02*
X195500000Y-116700000D01*
X198050000Y-110800000D02*
X198050000Y-116700000D01*
X205550000Y-116700000D02*
X205550000Y-110800000D01*
X200550000Y-110800000D02*
X200550000Y-116700000D01*
X203150000Y-110800000D02*
X203150000Y-116700000D01*
X208100000Y-110800000D02*
X208100000Y-116700000D01*
X192600000Y-114800000D02*
X218600000Y-114800000D01*
X210600000Y-110800000D02*
X210600000Y-116700000D01*
X213200000Y-110800000D02*
X213200000Y-116700000D01*
X215600000Y-116700000D02*
X215600000Y-110800000D01*
X192500000Y-110800000D02*
X218600000Y-110800000D01*
X218600000Y-116700000D01*
X192500000Y-116700000D01*
X192500000Y-110800000D01*
X217939411Y-115317438D02*
X218034649Y-115269819D01*
X218034649Y-115269819D02*
X218177506Y-115269819D01*
X218177506Y-115269819D02*
X218320363Y-115317438D01*
X218320363Y-115317438D02*
X218415601Y-115412676D01*
X218415601Y-115412676D02*
X218463220Y-115507914D01*
X218463220Y-115507914D02*
X218510839Y-115698390D01*
X218510839Y-115698390D02*
X218510839Y-115841247D01*
X218510839Y-115841247D02*
X218463220Y-116031723D01*
X218463220Y-116031723D02*
X218415601Y-116126961D01*
X218415601Y-116126961D02*
X218320363Y-116222200D01*
X218320363Y-116222200D02*
X218177506Y-116269819D01*
X218177506Y-116269819D02*
X218082268Y-116269819D01*
X218082268Y-116269819D02*
X217939411Y-116222200D01*
X217939411Y-116222200D02*
X217891792Y-116174580D01*
X217891792Y-116174580D02*
X217891792Y-115841247D01*
X217891792Y-115841247D02*
X218082268Y-115841247D01*
X217463220Y-116269819D02*
X217463220Y-115269819D01*
X217463220Y-115269819D02*
X216891792Y-116269819D01*
X216891792Y-116269819D02*
X216891792Y-115269819D01*
X216415601Y-116269819D02*
X216415601Y-115269819D01*
X216415601Y-115269819D02*
X216177506Y-115269819D01*
X216177506Y-115269819D02*
X216034649Y-115317438D01*
X216034649Y-115317438D02*
X215939411Y-115412676D01*
X215939411Y-115412676D02*
X215891792Y-115507914D01*
X215891792Y-115507914D02*
X215844173Y-115698390D01*
X215844173Y-115698390D02*
X215844173Y-115841247D01*
X215844173Y-115841247D02*
X215891792Y-116031723D01*
X215891792Y-116031723D02*
X215939411Y-116126961D01*
X215939411Y-116126961D02*
X216034649Y-116222200D01*
X216034649Y-116222200D02*
X216177506Y-116269819D01*
X216177506Y-116269819D02*
X216415601Y-116269819D01*
X215210839Y-115365057D02*
X215163220Y-115317438D01*
X215163220Y-115317438D02*
X215067982Y-115269819D01*
X215067982Y-115269819D02*
X214829887Y-115269819D01*
X214829887Y-115269819D02*
X214734649Y-115317438D01*
X214734649Y-115317438D02*
X214687030Y-115365057D01*
X214687030Y-115365057D02*
X214639411Y-115460295D01*
X214639411Y-115460295D02*
X214639411Y-115555533D01*
X214639411Y-115555533D02*
X214687030Y-115698390D01*
X214687030Y-115698390D02*
X215258458Y-116269819D01*
X215258458Y-116269819D02*
X214639411Y-116269819D01*
X214163220Y-116269819D02*
X213972744Y-116269819D01*
X213972744Y-116269819D02*
X213877506Y-116222200D01*
X213877506Y-116222200D02*
X213829887Y-116174580D01*
X213829887Y-116174580D02*
X213734649Y-116031723D01*
X213734649Y-116031723D02*
X213687030Y-115841247D01*
X213687030Y-115841247D02*
X213687030Y-115460295D01*
X213687030Y-115460295D02*
X213734649Y-115365057D01*
X213734649Y-115365057D02*
X213782268Y-115317438D01*
X213782268Y-115317438D02*
X213877506Y-115269819D01*
X213877506Y-115269819D02*
X214067982Y-115269819D01*
X214067982Y-115269819D02*
X214163220Y-115317438D01*
X214163220Y-115317438D02*
X214210839Y-115365057D01*
X214210839Y-115365057D02*
X214258458Y-115460295D01*
X214258458Y-115460295D02*
X214258458Y-115698390D01*
X214258458Y-115698390D02*
X214210839Y-115793628D01*
X214210839Y-115793628D02*
X214163220Y-115841247D01*
X214163220Y-115841247D02*
X214067982Y-115888866D01*
X214067982Y-115888866D02*
X213877506Y-115888866D01*
X213877506Y-115888866D02*
X213782268Y-115841247D01*
X213782268Y-115841247D02*
X213734649Y-115793628D01*
X213734649Y-115793628D02*
X213687030Y-115698390D01*
X212710839Y-115365057D02*
X212663220Y-115317438D01*
X212663220Y-115317438D02*
X212567982Y-115269819D01*
X212567982Y-115269819D02*
X212329887Y-115269819D01*
X212329887Y-115269819D02*
X212234649Y-115317438D01*
X212234649Y-115317438D02*
X212187030Y-115365057D01*
X212187030Y-115365057D02*
X212139411Y-115460295D01*
X212139411Y-115460295D02*
X212139411Y-115555533D01*
X212139411Y-115555533D02*
X212187030Y-115698390D01*
X212187030Y-115698390D02*
X212758458Y-116269819D01*
X212758458Y-116269819D02*
X212139411Y-116269819D01*
X211567982Y-115698390D02*
X211663220Y-115650771D01*
X211663220Y-115650771D02*
X211710839Y-115603152D01*
X211710839Y-115603152D02*
X211758458Y-115507914D01*
X211758458Y-115507914D02*
X211758458Y-115460295D01*
X211758458Y-115460295D02*
X211710839Y-115365057D01*
X211710839Y-115365057D02*
X211663220Y-115317438D01*
X211663220Y-115317438D02*
X211567982Y-115269819D01*
X211567982Y-115269819D02*
X211377506Y-115269819D01*
X211377506Y-115269819D02*
X211282268Y-115317438D01*
X211282268Y-115317438D02*
X211234649Y-115365057D01*
X211234649Y-115365057D02*
X211187030Y-115460295D01*
X211187030Y-115460295D02*
X211187030Y-115507914D01*
X211187030Y-115507914D02*
X211234649Y-115603152D01*
X211234649Y-115603152D02*
X211282268Y-115650771D01*
X211282268Y-115650771D02*
X211377506Y-115698390D01*
X211377506Y-115698390D02*
X211567982Y-115698390D01*
X211567982Y-115698390D02*
X211663220Y-115746009D01*
X211663220Y-115746009D02*
X211710839Y-115793628D01*
X211710839Y-115793628D02*
X211758458Y-115888866D01*
X211758458Y-115888866D02*
X211758458Y-116079342D01*
X211758458Y-116079342D02*
X211710839Y-116174580D01*
X211710839Y-116174580D02*
X211663220Y-116222200D01*
X211663220Y-116222200D02*
X211567982Y-116269819D01*
X211567982Y-116269819D02*
X211377506Y-116269819D01*
X211377506Y-116269819D02*
X211282268Y-116222200D01*
X211282268Y-116222200D02*
X211234649Y-116174580D01*
X211234649Y-116174580D02*
X211187030Y-116079342D01*
X211187030Y-116079342D02*
X211187030Y-115888866D01*
X211187030Y-115888866D02*
X211234649Y-115793628D01*
X211234649Y-115793628D02*
X211282268Y-115746009D01*
X211282268Y-115746009D02*
X211377506Y-115698390D01*
X210110839Y-115365057D02*
X210063220Y-115317438D01*
X210063220Y-115317438D02*
X209967982Y-115269819D01*
X209967982Y-115269819D02*
X209729887Y-115269819D01*
X209729887Y-115269819D02*
X209634649Y-115317438D01*
X209634649Y-115317438D02*
X209587030Y-115365057D01*
X209587030Y-115365057D02*
X209539411Y-115460295D01*
X209539411Y-115460295D02*
X209539411Y-115555533D01*
X209539411Y-115555533D02*
X209587030Y-115698390D01*
X209587030Y-115698390D02*
X210158458Y-116269819D01*
X210158458Y-116269819D02*
X209539411Y-116269819D01*
X209206077Y-115269819D02*
X208539411Y-115269819D01*
X208539411Y-115269819D02*
X208967982Y-116269819D01*
X207610839Y-115365057D02*
X207563220Y-115317438D01*
X207563220Y-115317438D02*
X207467982Y-115269819D01*
X207467982Y-115269819D02*
X207229887Y-115269819D01*
X207229887Y-115269819D02*
X207134649Y-115317438D01*
X207134649Y-115317438D02*
X207087030Y-115365057D01*
X207087030Y-115365057D02*
X207039411Y-115460295D01*
X207039411Y-115460295D02*
X207039411Y-115555533D01*
X207039411Y-115555533D02*
X207087030Y-115698390D01*
X207087030Y-115698390D02*
X207658458Y-116269819D01*
X207658458Y-116269819D02*
X207039411Y-116269819D01*
X206182268Y-115269819D02*
X206372744Y-115269819D01*
X206372744Y-115269819D02*
X206467982Y-115317438D01*
X206467982Y-115317438D02*
X206515601Y-115365057D01*
X206515601Y-115365057D02*
X206610839Y-115507914D01*
X206610839Y-115507914D02*
X206658458Y-115698390D01*
X206658458Y-115698390D02*
X206658458Y-116079342D01*
X206658458Y-116079342D02*
X206610839Y-116174580D01*
X206610839Y-116174580D02*
X206563220Y-116222200D01*
X206563220Y-116222200D02*
X206467982Y-116269819D01*
X206467982Y-116269819D02*
X206277506Y-116269819D01*
X206277506Y-116269819D02*
X206182268Y-116222200D01*
X206182268Y-116222200D02*
X206134649Y-116174580D01*
X206134649Y-116174580D02*
X206087030Y-116079342D01*
X206087030Y-116079342D02*
X206087030Y-115841247D01*
X206087030Y-115841247D02*
X206134649Y-115746009D01*
X206134649Y-115746009D02*
X206182268Y-115698390D01*
X206182268Y-115698390D02*
X206277506Y-115650771D01*
X206277506Y-115650771D02*
X206467982Y-115650771D01*
X206467982Y-115650771D02*
X206563220Y-115698390D01*
X206563220Y-115698390D02*
X206610839Y-115746009D01*
X206610839Y-115746009D02*
X206658458Y-115841247D01*
X205110839Y-115365057D02*
X205063220Y-115317438D01*
X205063220Y-115317438D02*
X204967982Y-115269819D01*
X204967982Y-115269819D02*
X204729887Y-115269819D01*
X204729887Y-115269819D02*
X204634649Y-115317438D01*
X204634649Y-115317438D02*
X204587030Y-115365057D01*
X204587030Y-115365057D02*
X204539411Y-115460295D01*
X204539411Y-115460295D02*
X204539411Y-115555533D01*
X204539411Y-115555533D02*
X204587030Y-115698390D01*
X204587030Y-115698390D02*
X205158458Y-116269819D01*
X205158458Y-116269819D02*
X204539411Y-116269819D01*
X203634649Y-115269819D02*
X204110839Y-115269819D01*
X204110839Y-115269819D02*
X204158458Y-115746009D01*
X204158458Y-115746009D02*
X204110839Y-115698390D01*
X204110839Y-115698390D02*
X204015601Y-115650771D01*
X204015601Y-115650771D02*
X203777506Y-115650771D01*
X203777506Y-115650771D02*
X203682268Y-115698390D01*
X203682268Y-115698390D02*
X203634649Y-115746009D01*
X203634649Y-115746009D02*
X203587030Y-115841247D01*
X203587030Y-115841247D02*
X203587030Y-116079342D01*
X203587030Y-116079342D02*
X203634649Y-116174580D01*
X203634649Y-116174580D02*
X203682268Y-116222200D01*
X203682268Y-116222200D02*
X203777506Y-116269819D01*
X203777506Y-116269819D02*
X204015601Y-116269819D01*
X204015601Y-116269819D02*
X204110839Y-116222200D01*
X204110839Y-116222200D02*
X204158458Y-116174580D01*
X202510839Y-115365057D02*
X202463220Y-115317438D01*
X202463220Y-115317438D02*
X202367982Y-115269819D01*
X202367982Y-115269819D02*
X202129887Y-115269819D01*
X202129887Y-115269819D02*
X202034649Y-115317438D01*
X202034649Y-115317438D02*
X201987030Y-115365057D01*
X201987030Y-115365057D02*
X201939411Y-115460295D01*
X201939411Y-115460295D02*
X201939411Y-115555533D01*
X201939411Y-115555533D02*
X201987030Y-115698390D01*
X201987030Y-115698390D02*
X202558458Y-116269819D01*
X202558458Y-116269819D02*
X201939411Y-116269819D01*
X201082268Y-115603152D02*
X201082268Y-116269819D01*
X201320363Y-115222200D02*
X201558458Y-115936485D01*
X201558458Y-115936485D02*
X200939411Y-115936485D01*
X200110839Y-115365057D02*
X200063220Y-115317438D01*
X200063220Y-115317438D02*
X199967982Y-115269819D01*
X199967982Y-115269819D02*
X199729887Y-115269819D01*
X199729887Y-115269819D02*
X199634649Y-115317438D01*
X199634649Y-115317438D02*
X199587030Y-115365057D01*
X199587030Y-115365057D02*
X199539411Y-115460295D01*
X199539411Y-115460295D02*
X199539411Y-115555533D01*
X199539411Y-115555533D02*
X199587030Y-115698390D01*
X199587030Y-115698390D02*
X200158458Y-116269819D01*
X200158458Y-116269819D02*
X199539411Y-116269819D01*
X199206077Y-115269819D02*
X198587030Y-115269819D01*
X198587030Y-115269819D02*
X198920363Y-115650771D01*
X198920363Y-115650771D02*
X198777506Y-115650771D01*
X198777506Y-115650771D02*
X198682268Y-115698390D01*
X198682268Y-115698390D02*
X198634649Y-115746009D01*
X198634649Y-115746009D02*
X198587030Y-115841247D01*
X198587030Y-115841247D02*
X198587030Y-116079342D01*
X198587030Y-116079342D02*
X198634649Y-116174580D01*
X198634649Y-116174580D02*
X198682268Y-116222200D01*
X198682268Y-116222200D02*
X198777506Y-116269819D01*
X198777506Y-116269819D02*
X199063220Y-116269819D01*
X199063220Y-116269819D02*
X199158458Y-116222200D01*
X199158458Y-116222200D02*
X199206077Y-116174580D01*
X197510839Y-115365057D02*
X197463220Y-115317438D01*
X197463220Y-115317438D02*
X197367982Y-115269819D01*
X197367982Y-115269819D02*
X197129887Y-115269819D01*
X197129887Y-115269819D02*
X197034649Y-115317438D01*
X197034649Y-115317438D02*
X196987030Y-115365057D01*
X196987030Y-115365057D02*
X196939411Y-115460295D01*
X196939411Y-115460295D02*
X196939411Y-115555533D01*
X196939411Y-115555533D02*
X196987030Y-115698390D01*
X196987030Y-115698390D02*
X197558458Y-116269819D01*
X197558458Y-116269819D02*
X196939411Y-116269819D01*
X196558458Y-115365057D02*
X196510839Y-115317438D01*
X196510839Y-115317438D02*
X196415601Y-115269819D01*
X196415601Y-115269819D02*
X196177506Y-115269819D01*
X196177506Y-115269819D02*
X196082268Y-115317438D01*
X196082268Y-115317438D02*
X196034649Y-115365057D01*
X196034649Y-115365057D02*
X195987030Y-115460295D01*
X195987030Y-115460295D02*
X195987030Y-115555533D01*
X195987030Y-115555533D02*
X196034649Y-115698390D01*
X196034649Y-115698390D02*
X196606077Y-116269819D01*
X196606077Y-116269819D02*
X195987030Y-116269819D01*
X194761904Y-115317438D02*
X194857142Y-115269819D01*
X194857142Y-115269819D02*
X194999999Y-115269819D01*
X194999999Y-115269819D02*
X195142856Y-115317438D01*
X195142856Y-115317438D02*
X195238094Y-115412676D01*
X195238094Y-115412676D02*
X195285713Y-115507914D01*
X195285713Y-115507914D02*
X195333332Y-115698390D01*
X195333332Y-115698390D02*
X195333332Y-115841247D01*
X195333332Y-115841247D02*
X195285713Y-116031723D01*
X195285713Y-116031723D02*
X195238094Y-116126961D01*
X195238094Y-116126961D02*
X195142856Y-116222200D01*
X195142856Y-116222200D02*
X194999999Y-116269819D01*
X194999999Y-116269819D02*
X194904761Y-116269819D01*
X194904761Y-116269819D02*
X194761904Y-116222200D01*
X194761904Y-116222200D02*
X194714285Y-116174580D01*
X194714285Y-116174580D02*
X194714285Y-115841247D01*
X194714285Y-115841247D02*
X194904761Y-115841247D01*
X194285713Y-116269819D02*
X194285713Y-115269819D01*
X194285713Y-115269819D02*
X193714285Y-116269819D01*
X193714285Y-116269819D02*
X193714285Y-115269819D01*
X193238094Y-116269819D02*
X193238094Y-115269819D01*
X193238094Y-115269819D02*
X192999999Y-115269819D01*
X192999999Y-115269819D02*
X192857142Y-115317438D01*
X192857142Y-115317438D02*
X192761904Y-115412676D01*
X192761904Y-115412676D02*
X192714285Y-115507914D01*
X192714285Y-115507914D02*
X192666666Y-115698390D01*
X192666666Y-115698390D02*
X192666666Y-115841247D01*
X192666666Y-115841247D02*
X192714285Y-116031723D01*
X192714285Y-116031723D02*
X192761904Y-116126961D01*
X192761904Y-116126961D02*
X192857142Y-116222200D01*
X192857142Y-116222200D02*
X192999999Y-116269819D01*
X192999999Y-116269819D02*
X193238094Y-116269819D01*
%LPC*%
D11*
%TO.C,J4*%
X205050000Y-85600000D03*
D12*
X207590000Y-85600000D03*
X210129999Y-85600000D03*
X212670000Y-85600000D03*
X215210000Y-85600000D03*
X217750000Y-85600000D03*
%TD*%
D13*
%TO.C,H1*%
X168000000Y-112000000D03*
D14*
X168000000Y-112000000D03*
%TD*%
D15*
%TO.C,J3*%
X194140000Y-113500000D03*
D16*
X196680000Y-113500000D03*
X199220000Y-113500000D03*
X201760000Y-113500000D03*
X204300000Y-113500000D03*
X206840000Y-113500000D03*
X209380000Y-113500000D03*
X211920000Y-113500000D03*
X214460000Y-113500000D03*
X217000000Y-113500000D03*
%TD*%
D13*
%TO.C,H2*%
X222000000Y-112000000D03*
D14*
X222000000Y-112000000D03*
%TD*%
D11*
%TO.C,J1*%
X200100000Y-106890000D03*
D12*
X197560000Y-106890000D03*
X195020001Y-106890000D03*
%TD*%
D17*
%TO.C,J2*%
X174710000Y-88610000D03*
D18*
X172170000Y-86070000D03*
X172170000Y-91150000D03*
X177250000Y-86070000D03*
X177250000Y-91150000D03*
%TD*%
D13*
%TO.C,H4*%
X222000000Y-87000000D03*
D14*
X222000000Y-87000000D03*
%TD*%
D13*
%TO.C,H3*%
X168000000Y-87000000D03*
D14*
X168000000Y-87000000D03*
%TD*%
D19*
%TO.C,J12*%
X218380000Y-101780000D03*
X218380000Y-96000000D03*
D20*
X217850000Y-103210000D03*
D21*
X222030000Y-103210000D03*
D20*
X217850000Y-94570000D03*
D21*
X222030000Y-94570000D03*
%TD*%
%LPD*%
M02*
