%TF.GenerationSoftware,KiCad,Pcbnew,9.0.0*%
%TF.CreationDate,2026-04-17T00:13:25-07:00*%
%TF.ProjectId,proves_radio_stick_V1,70726f76-6573-45f7-9261-64696f5f7374,rev?*%
%TF.SameCoordinates,Original*%
%TF.FileFunction,Copper,L2,Inr*%
%TF.FilePolarity,Positive*%
%FSLAX46Y46*%
G04 Gerber Fmt 4.6, Leading zero omitted, Abs format (unit mm)*
G04 Created by KiCad (PCBNEW 9.0.0) date 2026-04-17 00:13:25*
%MOMM*%
%LPD*%
G01*
G04 APERTURE LIST*
%TA.AperFunction,ComponentPad*%
%ADD10C,2.600000*%
%TD*%
%TA.AperFunction,ComponentPad*%
%ADD11R,1.700000X1.700000*%
%TD*%
%TA.AperFunction,ComponentPad*%
%ADD12C,1.700000*%
%TD*%
%TA.AperFunction,ComponentPad*%
%ADD13C,2.050000*%
%TD*%
%TA.AperFunction,ComponentPad*%
%ADD14C,2.250000*%
%TD*%
%TA.AperFunction,ComponentPad*%
%ADD15C,0.600000*%
%TD*%
%TA.AperFunction,ComponentPad*%
%ADD16O,2.100000X1.000000*%
%TD*%
%TA.AperFunction,ComponentPad*%
%ADD17O,1.600000X1.000000*%
%TD*%
%TA.AperFunction,ViaPad*%
%ADD18C,0.560000*%
%TD*%
%TA.AperFunction,ViaPad*%
%ADD19C,0.460000*%
%TD*%
%TA.AperFunction,ViaPad*%
%ADD20C,0.600000*%
%TD*%
%TA.AperFunction,ViaPad*%
%ADD21C,0.800000*%
%TD*%
%TA.AperFunction,Conductor*%
%ADD22C,0.152400*%
%TD*%
%TA.AperFunction,Conductor*%
%ADD23C,0.400000*%
%TD*%
G04 APERTURE END LIST*
D10*
%TO.N,N/C*%
%TO.C,H2*%
X222000000Y-112000000D03*
%TD*%
D11*
%TO.N,SWDIO*%
%TO.C,J1*%
X200100000Y-106890000D03*
D12*
%TO.N,GND*%
X197560000Y-106890000D03*
%TO.N,SWCLK*%
X195020001Y-106890000D03*
%TD*%
D13*
%TO.N,Net-(J2-In)*%
%TO.C,J2*%
X174710000Y-88610000D03*
D14*
%TO.N,GND*%
X172170000Y-86070000D03*
X172170000Y-91150000D03*
X177250000Y-86070000D03*
X177250000Y-91150000D03*
%TD*%
D10*
%TO.N,N/C*%
%TO.C,H4*%
X222000000Y-87000000D03*
%TD*%
%TO.N,N/C*%
%TO.C,H3*%
X167000000Y-87000000D03*
%TD*%
D15*
%TO.N,GND*%
%TO.C,U18*%
X207487799Y-97174742D03*
X206112799Y-97174742D03*
X204737799Y-97174742D03*
X207487799Y-98549742D03*
X206112799Y-98549742D03*
X204737799Y-98549742D03*
X207487799Y-99924742D03*
X206112799Y-99924742D03*
X204737799Y-99924742D03*
%TD*%
D16*
%TO.N,GND*%
%TO.C,J12*%
X217850000Y-103210000D03*
D17*
X222030000Y-103210000D03*
D16*
X217850000Y-94570000D03*
D17*
X222030000Y-94570000D03*
%TD*%
D10*
%TO.N,N/C*%
%TO.C,H2*%
X167000000Y-112000000D03*
%TD*%
D18*
%TO.N,GND*%
X182870000Y-109290000D03*
D19*
X197230577Y-95721315D03*
D18*
X202700000Y-86200000D03*
D19*
X196382048Y-100246798D03*
X195745652Y-99610402D03*
D18*
X176000000Y-95900000D03*
D19*
X199069054Y-95014208D03*
X199200000Y-88520001D03*
D18*
X220300000Y-90300000D03*
X212518920Y-92005508D03*
X210750000Y-108410000D03*
X215200000Y-102120000D03*
X206338112Y-104149194D03*
D19*
X215120378Y-96923396D03*
D18*
X210425189Y-94307101D03*
D19*
X209976361Y-102491677D03*
D18*
X190700000Y-111400000D03*
D19*
X197230577Y-100812483D03*
X195109256Y-98974006D03*
D18*
X181530000Y-109300000D03*
D19*
X207044793Y-91902938D03*
X196382048Y-96569843D03*
D18*
X174600000Y-109610000D03*
D19*
X199300000Y-86320001D03*
D18*
X173400000Y-96000000D03*
D19*
X204888172Y-91508285D03*
X194897124Y-98196188D03*
X195604231Y-97347660D03*
D18*
X173400000Y-109580000D03*
X175950000Y-109650000D03*
X189650000Y-109780000D03*
D19*
X205850207Y-104567220D03*
D18*
X218208500Y-106161500D03*
D19*
X200792725Y-97922936D03*
D18*
X217358500Y-106161500D03*
X218658500Y-104261500D03*
D19*
X210807027Y-101661012D03*
X199846872Y-95792024D03*
D18*
X217708500Y-104161500D03*
X191230000Y-94170000D03*
D20*
X202206133Y-103383877D03*
D19*
X199935260Y-100273606D03*
X202420000Y-94800000D03*
X211938398Y-101661012D03*
D18*
X219099269Y-106108935D03*
X202700000Y-88500000D03*
D19*
X198079105Y-94872786D03*
D21*
X199600000Y-94350000D03*
D18*
X193880000Y-102820000D03*
X190400000Y-109770000D03*
%TO.N,+3V3*%
X219893865Y-106013541D03*
D19*
X214200283Y-102792383D03*
D18*
X208690000Y-87840000D03*
X204130000Y-87720000D03*
D19*
X203513680Y-97532376D03*
D18*
X205900000Y-91380000D03*
D19*
X212504083Y-97701214D03*
X209696798Y-94326782D03*
D20*
X208473574Y-101024615D03*
D19*
X208817335Y-98134389D03*
D18*
X221908500Y-108411500D03*
D19*
X202081746Y-101932630D03*
D20*
X205390589Y-103226573D03*
D18*
X210500000Y-104750000D03*
D19*
X204787936Y-95942130D03*
D18*
X203990000Y-90530000D03*
X216358500Y-104311500D03*
%TO.N,VBUS*%
X218720000Y-100830000D03*
X219830000Y-108730000D03*
X220178917Y-108268364D03*
%TO.N,/USBBOOT*%
X198800000Y-87700000D03*
X208300000Y-90600000D03*
%TO.N,/QSPI_SD1*%
X213086706Y-92573294D03*
X213070000Y-90910000D03*
%TO.N,/QSPI_SD3*%
X214418124Y-95018124D03*
X215960000Y-91390000D03*
%TO.N,/QSPI_SD0*%
X217028124Y-92408124D03*
X215601537Y-92261538D03*
%TO.N,FC_RESET*%
X202220000Y-90370000D03*
D19*
X200111249Y-100951250D03*
%TO.N,SWCLK*%
X203566152Y-98937250D03*
%TO.N,SWDIO*%
X203594538Y-99681113D03*
D18*
%TO.N,RF1_IO2*%
X203581552Y-100390997D03*
X186700000Y-109610000D03*
%TO.N,RF1_RST*%
X187270000Y-92452800D03*
X205730000Y-94070000D03*
%TO.N,RF1_IO5*%
X198751041Y-104021882D03*
X194430000Y-99520000D03*
%TO.N,RF1_IO4*%
X195400000Y-100960000D03*
X196420000Y-102086200D03*
%TO.N,RF1_IO1*%
X199020000Y-93670000D03*
D19*
X203541506Y-96764297D03*
D18*
%TO.N,SPI1_CS0*%
X203330000Y-92920000D03*
X202250000Y-91200000D03*
%TO.N,SPI1_MOSI*%
X200580000Y-91340400D03*
X201440000Y-92452800D03*
%TO.N,SPI1_SCK*%
X202668243Y-92452799D03*
X201470000Y-91270000D03*
D19*
%TO.N,unconnected-(U18-GPIO7-Pad10)*%
X205681816Y-96066340D03*
%TO.N,+1V1*%
X211655555Y-99610402D03*
X208242799Y-99662248D03*
X212433372Y-99610402D03*
D18*
%TO.N,BOOTSEL*%
X209480000Y-89600000D03*
X212000000Y-93400000D03*
%TD*%
D22*
%TO.N,GND*%
X202679682Y-95059682D02*
X202679682Y-95116625D01*
D23*
X204454956Y-98266899D02*
X201136688Y-98266899D01*
X206112799Y-98443223D02*
X206112799Y-98549742D01*
D22*
X202420000Y-94800000D02*
X202679682Y-95059682D01*
D23*
X202420000Y-94800000D02*
X202630107Y-95010107D01*
X204737799Y-98549742D02*
X204454956Y-98266899D01*
X201136688Y-98266899D02*
X200792725Y-97922936D01*
X202630107Y-95010107D02*
X202679683Y-95010107D01*
D22*
X202679682Y-95116625D02*
X204737799Y-97174741D01*
D23*
X202679683Y-95010107D02*
X206112799Y-98443223D01*
%TD*%
%TA.AperFunction,Conductor*%
%TO.N,GND*%
G36*
X171251021Y-84520185D02*
G01*
X171296776Y-84572989D01*
X171306720Y-84642147D01*
X171277695Y-84705703D01*
X171256867Y-84724818D01*
X171211403Y-84757849D01*
X171211402Y-84757850D01*
X171769437Y-85315885D01*
X171767374Y-85316740D01*
X171628156Y-85409762D01*
X171509762Y-85528156D01*
X171416740Y-85667374D01*
X171415885Y-85669437D01*
X170857850Y-85111402D01*
X170857849Y-85111403D01*
X170780177Y-85218310D01*
X170664052Y-85446215D01*
X170664051Y-85446218D01*
X170585013Y-85689476D01*
X170545000Y-85942110D01*
X170545000Y-86197889D01*
X170585013Y-86450523D01*
X170664051Y-86693781D01*
X170664052Y-86693784D01*
X170780175Y-86921686D01*
X170857850Y-87028595D01*
X170857850Y-87028596D01*
X171415884Y-86470561D01*
X171416740Y-86472626D01*
X171509762Y-86611844D01*
X171628156Y-86730238D01*
X171767374Y-86823260D01*
X171769437Y-86824114D01*
X171211402Y-87382148D01*
X171318313Y-87459824D01*
X171546215Y-87575947D01*
X171546218Y-87575948D01*
X171789476Y-87654986D01*
X172042111Y-87695000D01*
X172297889Y-87695000D01*
X172550523Y-87654986D01*
X172793781Y-87575948D01*
X172793784Y-87575947D01*
X173021685Y-87459825D01*
X173128595Y-87382148D01*
X173128596Y-87382148D01*
X172570562Y-86824114D01*
X172572626Y-86823260D01*
X172711844Y-86730238D01*
X172830238Y-86611844D01*
X172923260Y-86472626D01*
X172924114Y-86470562D01*
X173482148Y-87028596D01*
X173482148Y-87028595D01*
X173559825Y-86921685D01*
X173675947Y-86693784D01*
X173675948Y-86693781D01*
X173754986Y-86450523D01*
X173795000Y-86197889D01*
X173795000Y-85942110D01*
X173754986Y-85689476D01*
X173675948Y-85446218D01*
X173675947Y-85446215D01*
X173559824Y-85218313D01*
X173482148Y-85111403D01*
X173482148Y-85111402D01*
X172924114Y-85669436D01*
X172923260Y-85667374D01*
X172830238Y-85528156D01*
X172711844Y-85409762D01*
X172572626Y-85316740D01*
X172570560Y-85315884D01*
X173128596Y-84757850D01*
X173083131Y-84724818D01*
X173040466Y-84669488D01*
X173034487Y-84599874D01*
X173067093Y-84538080D01*
X173127932Y-84503722D01*
X173156017Y-84500500D01*
X176263982Y-84500500D01*
X176331021Y-84520185D01*
X176376776Y-84572989D01*
X176386720Y-84642147D01*
X176357695Y-84705703D01*
X176336867Y-84724818D01*
X176291403Y-84757849D01*
X176291402Y-84757850D01*
X176849437Y-85315885D01*
X176847374Y-85316740D01*
X176708156Y-85409762D01*
X176589762Y-85528156D01*
X176496740Y-85667374D01*
X176495885Y-85669437D01*
X175937850Y-85111402D01*
X175937849Y-85111403D01*
X175860177Y-85218310D01*
X175744052Y-85446215D01*
X175744051Y-85446218D01*
X175665013Y-85689476D01*
X175625000Y-85942110D01*
X175625000Y-86197889D01*
X175665013Y-86450523D01*
X175744051Y-86693781D01*
X175744052Y-86693784D01*
X175860175Y-86921686D01*
X175937850Y-87028595D01*
X175937850Y-87028596D01*
X176495884Y-86470561D01*
X176496740Y-86472626D01*
X176589762Y-86611844D01*
X176708156Y-86730238D01*
X176847374Y-86823260D01*
X176849437Y-86824114D01*
X176291402Y-87382148D01*
X176398313Y-87459824D01*
X176626215Y-87575947D01*
X176626218Y-87575948D01*
X176869476Y-87654986D01*
X177122111Y-87695000D01*
X177377889Y-87695000D01*
X177630523Y-87654986D01*
X177728592Y-87623122D01*
X198019500Y-87623122D01*
X198019500Y-87776877D01*
X198049491Y-87927656D01*
X198049494Y-87927665D01*
X198108326Y-88069701D01*
X198108327Y-88069703D01*
X198193745Y-88197539D01*
X198193748Y-88197543D01*
X198302456Y-88306251D01*
X198302460Y-88306254D01*
X198430294Y-88391671D01*
X198430295Y-88391671D01*
X198430296Y-88391672D01*
X198430298Y-88391673D01*
X198524988Y-88430894D01*
X198572336Y-88450506D01*
X198572338Y-88450506D01*
X198572343Y-88450508D01*
X198723122Y-88480499D01*
X198723126Y-88480500D01*
X198723127Y-88480500D01*
X198876874Y-88480500D01*
X198876875Y-88480499D01*
X198927136Y-88470502D01*
X199027656Y-88450508D01*
X199027659Y-88450506D01*
X199027664Y-88450506D01*
X199169706Y-88391671D01*
X199297540Y-88306254D01*
X199406254Y-88197540D01*
X199491671Y-88069706D01*
X199550506Y-87927664D01*
X199552653Y-87916874D01*
X199576521Y-87796877D01*
X199580500Y-87776873D01*
X199580500Y-87643122D01*
X203349500Y-87643122D01*
X203349500Y-87796877D01*
X203379491Y-87947656D01*
X203379494Y-87947665D01*
X203438326Y-88089701D01*
X203438327Y-88089703D01*
X203523745Y-88217539D01*
X203523748Y-88217543D01*
X203632456Y-88326251D01*
X203632460Y-88326254D01*
X203760294Y-88411671D01*
X203760295Y-88411671D01*
X203760296Y-88411672D01*
X203760298Y-88411673D01*
X203843786Y-88446254D01*
X203902336Y-88470506D01*
X203902338Y-88470506D01*
X203902343Y-88470508D01*
X204053122Y-88500499D01*
X204053126Y-88500500D01*
X204053127Y-88500500D01*
X204206874Y-88500500D01*
X204206875Y-88500499D01*
X204259957Y-88489941D01*
X204357656Y-88470508D01*
X204357659Y-88470506D01*
X204357664Y-88470506D01*
X204499706Y-88411671D01*
X204627540Y-88326254D01*
X204736254Y-88217540D01*
X204821671Y-88089706D01*
X204880506Y-87947664D01*
X204884485Y-87927664D01*
X204900502Y-87847136D01*
X204910500Y-87796873D01*
X204910500Y-87763122D01*
X207909500Y-87763122D01*
X207909500Y-87916877D01*
X207939491Y-88067656D01*
X207939494Y-88067665D01*
X207998326Y-88209701D01*
X207998327Y-88209703D01*
X208083745Y-88337539D01*
X208083748Y-88337543D01*
X208192456Y-88446251D01*
X208192460Y-88446254D01*
X208320294Y-88531671D01*
X208320295Y-88531671D01*
X208320296Y-88531672D01*
X208320298Y-88531673D01*
X208414988Y-88570894D01*
X208462336Y-88590506D01*
X208462338Y-88590506D01*
X208462343Y-88590508D01*
X208613122Y-88620499D01*
X208613126Y-88620500D01*
X208613127Y-88620500D01*
X208766874Y-88620500D01*
X208766875Y-88620499D01*
X208817136Y-88610502D01*
X208917656Y-88590508D01*
X208917659Y-88590506D01*
X208917664Y-88590506D01*
X209059706Y-88531671D01*
X209187540Y-88446254D01*
X209296254Y-88337540D01*
X209381671Y-88209706D01*
X209440506Y-88067664D01*
X209449111Y-88024406D01*
X209468353Y-87927665D01*
X209470500Y-87916873D01*
X209470500Y-87763127D01*
X209446631Y-87643127D01*
X209440508Y-87612343D01*
X209440505Y-87612334D01*
X209381673Y-87470298D01*
X209381672Y-87470296D01*
X209374675Y-87459825D01*
X209296254Y-87342460D01*
X209296251Y-87342456D01*
X209187543Y-87233748D01*
X209187539Y-87233745D01*
X209059703Y-87148327D01*
X209059701Y-87148326D01*
X208917665Y-87089494D01*
X208917656Y-87089491D01*
X208766877Y-87059500D01*
X208766873Y-87059500D01*
X208613127Y-87059500D01*
X208613122Y-87059500D01*
X208462343Y-87089491D01*
X208462334Y-87089494D01*
X208320298Y-87148326D01*
X208320296Y-87148327D01*
X208192460Y-87233745D01*
X208192456Y-87233748D01*
X208083748Y-87342456D01*
X208083745Y-87342460D01*
X207998327Y-87470296D01*
X207998326Y-87470298D01*
X207939494Y-87612334D01*
X207939491Y-87612343D01*
X207909500Y-87763122D01*
X204910500Y-87763122D01*
X204910500Y-87643127D01*
X204897942Y-87579993D01*
X204880508Y-87492343D01*
X204880505Y-87492334D01*
X204821673Y-87350298D01*
X204821672Y-87350296D01*
X204816433Y-87342456D01*
X204736254Y-87222460D01*
X204736251Y-87222456D01*
X204627543Y-87113748D01*
X204627539Y-87113745D01*
X204499703Y-87028327D01*
X204499701Y-87028326D01*
X204413189Y-86992492D01*
X204413187Y-86992492D01*
X204357664Y-86969494D01*
X204357657Y-86969492D01*
X204357656Y-86969492D01*
X204357656Y-86969491D01*
X204206877Y-86939500D01*
X204206873Y-86939500D01*
X204053127Y-86939500D01*
X204053122Y-86939500D01*
X203902343Y-86969491D01*
X203902334Y-86969494D01*
X203760298Y-87028326D01*
X203760296Y-87028327D01*
X203632460Y-87113745D01*
X203632456Y-87113748D01*
X203523748Y-87222456D01*
X203523745Y-87222460D01*
X203438327Y-87350296D01*
X203438326Y-87350298D01*
X203379494Y-87492334D01*
X203379491Y-87492343D01*
X203349500Y-87643122D01*
X199580500Y-87643122D01*
X199580500Y-87623127D01*
X199571116Y-87575948D01*
X199550508Y-87472343D01*
X199550505Y-87472334D01*
X199491673Y-87330298D01*
X199491672Y-87330296D01*
X199406254Y-87202460D01*
X199406251Y-87202456D01*
X199297543Y-87093748D01*
X199297539Y-87093745D01*
X199169703Y-87008327D01*
X199169701Y-87008326D01*
X199027665Y-86949494D01*
X199027656Y-86949491D01*
X198876877Y-86919500D01*
X198876873Y-86919500D01*
X198723127Y-86919500D01*
X198723122Y-86919500D01*
X198572343Y-86949491D01*
X198572334Y-86949494D01*
X198430298Y-87008326D01*
X198430296Y-87008327D01*
X198302460Y-87093745D01*
X198302456Y-87093748D01*
X198193748Y-87202456D01*
X198193745Y-87202460D01*
X198108327Y-87330296D01*
X198108326Y-87330298D01*
X198049494Y-87472334D01*
X198049491Y-87472343D01*
X198019500Y-87623122D01*
X177728592Y-87623122D01*
X177873781Y-87575948D01*
X177873784Y-87575947D01*
X178009983Y-87506550D01*
X178101685Y-87459825D01*
X178208595Y-87382148D01*
X178208596Y-87382148D01*
X177650562Y-86824114D01*
X177652626Y-86823260D01*
X177791844Y-86730238D01*
X177910238Y-86611844D01*
X178003260Y-86472626D01*
X178004114Y-86470562D01*
X178562148Y-87028596D01*
X178562148Y-87028595D01*
X178639825Y-86921685D01*
X178660048Y-86881995D01*
X220199500Y-86881995D01*
X220199500Y-87118004D01*
X220199501Y-87118020D01*
X220230080Y-87350296D01*
X220230307Y-87352014D01*
X220255602Y-87446416D01*
X220291394Y-87579993D01*
X220381714Y-87798045D01*
X220381719Y-87798056D01*
X220450319Y-87916873D01*
X220499727Y-88002450D01*
X220499729Y-88002453D01*
X220499730Y-88002454D01*
X220643406Y-88189697D01*
X220643412Y-88189704D01*
X220810295Y-88356587D01*
X220810302Y-88356593D01*
X220882081Y-88411671D01*
X220997550Y-88500273D01*
X221128918Y-88576118D01*
X221201943Y-88618280D01*
X221201948Y-88618282D01*
X221201951Y-88618284D01*
X221420007Y-88708606D01*
X221647986Y-88769693D01*
X221881989Y-88800500D01*
X221881996Y-88800500D01*
X222118004Y-88800500D01*
X222118011Y-88800500D01*
X222352014Y-88769693D01*
X222579993Y-88708606D01*
X222798049Y-88618284D01*
X223002450Y-88500273D01*
X223189699Y-88356592D01*
X223356592Y-88189699D01*
X223500273Y-88002450D01*
X223618284Y-87798049D01*
X223708606Y-87579993D01*
X223769693Y-87352014D01*
X223800500Y-87118011D01*
X223800500Y-86881989D01*
X223769693Y-86647986D01*
X223708606Y-86420007D01*
X223618284Y-86201951D01*
X223618282Y-86201948D01*
X223618280Y-86201943D01*
X223576118Y-86128918D01*
X223500273Y-85997550D01*
X223356592Y-85810301D01*
X223356587Y-85810295D01*
X223189704Y-85643412D01*
X223189697Y-85643406D01*
X223002454Y-85499730D01*
X223002453Y-85499729D01*
X223002450Y-85499727D01*
X222909765Y-85446215D01*
X222798056Y-85381719D01*
X222798045Y-85381714D01*
X222579993Y-85291394D01*
X222352010Y-85230306D01*
X222118020Y-85199501D01*
X222118017Y-85199500D01*
X222118011Y-85199500D01*
X221881989Y-85199500D01*
X221881983Y-85199500D01*
X221881979Y-85199501D01*
X221647989Y-85230306D01*
X221420006Y-85291394D01*
X221201954Y-85381714D01*
X221201943Y-85381719D01*
X220997545Y-85499730D01*
X220810302Y-85643406D01*
X220810295Y-85643412D01*
X220643412Y-85810295D01*
X220643406Y-85810302D01*
X220499730Y-85997545D01*
X220381719Y-86201943D01*
X220381714Y-86201954D01*
X220291394Y-86420006D01*
X220230306Y-86647989D01*
X220199501Y-86881979D01*
X220199500Y-86881995D01*
X178660048Y-86881995D01*
X178755947Y-86693784D01*
X178755948Y-86693781D01*
X178834986Y-86450523D01*
X178875000Y-86197889D01*
X178875000Y-85942110D01*
X178834986Y-85689476D01*
X178755948Y-85446218D01*
X178755947Y-85446215D01*
X178639824Y-85218313D01*
X178562148Y-85111403D01*
X178562148Y-85111402D01*
X178004114Y-85669436D01*
X178003260Y-85667374D01*
X177910238Y-85528156D01*
X177791844Y-85409762D01*
X177652626Y-85316740D01*
X177650560Y-85315884D01*
X178208596Y-84757850D01*
X178163131Y-84724818D01*
X178120466Y-84669488D01*
X178114487Y-84599874D01*
X178147093Y-84538080D01*
X178207932Y-84503722D01*
X178236017Y-84500500D01*
X224345500Y-84500500D01*
X224412539Y-84520185D01*
X224458294Y-84572989D01*
X224469500Y-84624500D01*
X224469500Y-114865500D01*
X224449815Y-114932539D01*
X224397011Y-114978294D01*
X224345500Y-114989500D01*
X164324500Y-114989500D01*
X164257461Y-114969815D01*
X164211706Y-114917011D01*
X164200500Y-114865500D01*
X164200500Y-111881995D01*
X165199500Y-111881995D01*
X165199500Y-112118004D01*
X165199501Y-112118020D01*
X165230306Y-112352010D01*
X165291394Y-112579993D01*
X165381714Y-112798045D01*
X165381719Y-112798056D01*
X165452677Y-112920957D01*
X165499727Y-113002450D01*
X165499729Y-113002453D01*
X165499730Y-113002454D01*
X165643406Y-113189697D01*
X165643412Y-113189704D01*
X165810295Y-113356587D01*
X165810301Y-113356592D01*
X165997550Y-113500273D01*
X166128918Y-113576118D01*
X166201943Y-113618280D01*
X166201948Y-113618282D01*
X166201951Y-113618284D01*
X166420007Y-113708606D01*
X166647986Y-113769693D01*
X166881989Y-113800500D01*
X166881996Y-113800500D01*
X167118004Y-113800500D01*
X167118011Y-113800500D01*
X167352014Y-113769693D01*
X167579993Y-113708606D01*
X167798049Y-113618284D01*
X168002450Y-113500273D01*
X168189699Y-113356592D01*
X168356592Y-113189699D01*
X168500273Y-113002450D01*
X168618284Y-112798049D01*
X168708606Y-112579993D01*
X168769693Y-112352014D01*
X168800500Y-112118011D01*
X168800500Y-111881995D01*
X220199500Y-111881995D01*
X220199500Y-112118004D01*
X220199501Y-112118020D01*
X220230306Y-112352010D01*
X220291394Y-112579993D01*
X220381714Y-112798045D01*
X220381719Y-112798056D01*
X220452677Y-112920957D01*
X220499727Y-113002450D01*
X220499729Y-113002453D01*
X220499730Y-113002454D01*
X220643406Y-113189697D01*
X220643412Y-113189704D01*
X220810295Y-113356587D01*
X220810301Y-113356592D01*
X220997550Y-113500273D01*
X221128918Y-113576118D01*
X221201943Y-113618280D01*
X221201948Y-113618282D01*
X221201951Y-113618284D01*
X221420007Y-113708606D01*
X221647986Y-113769693D01*
X221881989Y-113800500D01*
X221881996Y-113800500D01*
X222118004Y-113800500D01*
X222118011Y-113800500D01*
X222352014Y-113769693D01*
X222579993Y-113708606D01*
X222798049Y-113618284D01*
X223002450Y-113500273D01*
X223189699Y-113356592D01*
X223356592Y-113189699D01*
X223500273Y-113002450D01*
X223618284Y-112798049D01*
X223708606Y-112579993D01*
X223769693Y-112352014D01*
X223800500Y-112118011D01*
X223800500Y-111881989D01*
X223769693Y-111647986D01*
X223708606Y-111420007D01*
X223618284Y-111201951D01*
X223618282Y-111201948D01*
X223618280Y-111201943D01*
X223576118Y-111128918D01*
X223500273Y-110997550D01*
X223356592Y-110810301D01*
X223356587Y-110810295D01*
X223189704Y-110643412D01*
X223189697Y-110643406D01*
X223002454Y-110499730D01*
X223002453Y-110499729D01*
X223002450Y-110499727D01*
X222920957Y-110452677D01*
X222798056Y-110381719D01*
X222798045Y-110381714D01*
X222579993Y-110291394D01*
X222352010Y-110230306D01*
X222118020Y-110199501D01*
X222118017Y-110199500D01*
X222118011Y-110199500D01*
X221881989Y-110199500D01*
X221881983Y-110199500D01*
X221881979Y-110199501D01*
X221647989Y-110230306D01*
X221420006Y-110291394D01*
X221201954Y-110381714D01*
X221201943Y-110381719D01*
X220997545Y-110499730D01*
X220810302Y-110643406D01*
X220810295Y-110643412D01*
X220643412Y-110810295D01*
X220643406Y-110810302D01*
X220499730Y-110997545D01*
X220381719Y-111201943D01*
X220381714Y-111201954D01*
X220291394Y-111420006D01*
X220230306Y-111647989D01*
X220199501Y-111881979D01*
X220199500Y-111881995D01*
X168800500Y-111881995D01*
X168800500Y-111881989D01*
X168769693Y-111647986D01*
X168708606Y-111420007D01*
X168618284Y-111201951D01*
X168618282Y-111201948D01*
X168618280Y-111201943D01*
X168576118Y-111128918D01*
X168500273Y-110997550D01*
X168356592Y-110810301D01*
X168356587Y-110810295D01*
X168189704Y-110643412D01*
X168189697Y-110643406D01*
X168002454Y-110499730D01*
X168002453Y-110499729D01*
X168002450Y-110499727D01*
X167920957Y-110452677D01*
X167798056Y-110381719D01*
X167798045Y-110381714D01*
X167579993Y-110291394D01*
X167352010Y-110230306D01*
X167118020Y-110199501D01*
X167118017Y-110199500D01*
X167118011Y-110199500D01*
X166881989Y-110199500D01*
X166881983Y-110199500D01*
X166881979Y-110199501D01*
X166647989Y-110230306D01*
X166420006Y-110291394D01*
X166201954Y-110381714D01*
X166201943Y-110381719D01*
X165997545Y-110499730D01*
X165810302Y-110643406D01*
X165810295Y-110643412D01*
X165643412Y-110810295D01*
X165643406Y-110810302D01*
X165499730Y-110997545D01*
X165381719Y-111201943D01*
X165381714Y-111201954D01*
X165291394Y-111420006D01*
X165230306Y-111647989D01*
X165199501Y-111881979D01*
X165199500Y-111881995D01*
X164200500Y-111881995D01*
X164200500Y-109533122D01*
X185919500Y-109533122D01*
X185919500Y-109686877D01*
X185949491Y-109837656D01*
X185949494Y-109837665D01*
X186008326Y-109979701D01*
X186008327Y-109979703D01*
X186093745Y-110107539D01*
X186093748Y-110107543D01*
X186202456Y-110216251D01*
X186202460Y-110216254D01*
X186330294Y-110301671D01*
X186330295Y-110301671D01*
X186330296Y-110301672D01*
X186330298Y-110301673D01*
X186424988Y-110340894D01*
X186472336Y-110360506D01*
X186472338Y-110360506D01*
X186472343Y-110360508D01*
X186623122Y-110390499D01*
X186623126Y-110390500D01*
X186623127Y-110390500D01*
X186776874Y-110390500D01*
X186776875Y-110390499D01*
X186827136Y-110380502D01*
X186927656Y-110360508D01*
X186927659Y-110360506D01*
X186927664Y-110360506D01*
X187069706Y-110301671D01*
X187197540Y-110216254D01*
X187306254Y-110107540D01*
X187391671Y-109979706D01*
X187450506Y-109837664D01*
X187480500Y-109686873D01*
X187480500Y-109533127D01*
X187475999Y-109510499D01*
X187450508Y-109382343D01*
X187450505Y-109382334D01*
X187391673Y-109240298D01*
X187391672Y-109240296D01*
X187359401Y-109192000D01*
X187306254Y-109112460D01*
X187306251Y-109112456D01*
X187197543Y-109003748D01*
X187197539Y-109003745D01*
X187069703Y-108918327D01*
X187069701Y-108918326D01*
X186927665Y-108859494D01*
X186927656Y-108859491D01*
X186776877Y-108829500D01*
X186776873Y-108829500D01*
X186623127Y-108829500D01*
X186623122Y-108829500D01*
X186472343Y-108859491D01*
X186472334Y-108859494D01*
X186330298Y-108918326D01*
X186330296Y-108918327D01*
X186202460Y-109003745D01*
X186202456Y-109003748D01*
X186093748Y-109112456D01*
X186093745Y-109112460D01*
X186008327Y-109240296D01*
X186008326Y-109240298D01*
X185949494Y-109382334D01*
X185949491Y-109382343D01*
X185919500Y-109533122D01*
X164200500Y-109533122D01*
X164200500Y-108653122D01*
X219049500Y-108653122D01*
X219049500Y-108806877D01*
X219079491Y-108957656D01*
X219079494Y-108957665D01*
X219138326Y-109099701D01*
X219138327Y-109099703D01*
X219223745Y-109227539D01*
X219223748Y-109227543D01*
X219332456Y-109336251D01*
X219332460Y-109336254D01*
X219460294Y-109421671D01*
X219460295Y-109421671D01*
X219460296Y-109421672D01*
X219460298Y-109421673D01*
X219554988Y-109460894D01*
X219602336Y-109480506D01*
X219602338Y-109480506D01*
X219602343Y-109480508D01*
X219753122Y-109510499D01*
X219753126Y-109510500D01*
X219753127Y-109510500D01*
X219906874Y-109510500D01*
X219906875Y-109510499D01*
X219957136Y-109500502D01*
X220057656Y-109480508D01*
X220057659Y-109480506D01*
X220057664Y-109480506D01*
X220199706Y-109421671D01*
X220327540Y-109336254D01*
X220436254Y-109227540D01*
X220521671Y-109099706D01*
X220576955Y-108966237D01*
X220620795Y-108911833D01*
X220622547Y-108910639D01*
X220676457Y-108874618D01*
X220785171Y-108765904D01*
X220870588Y-108638070D01*
X220908176Y-108547323D01*
X220952013Y-108492923D01*
X221018307Y-108470857D01*
X221086007Y-108488135D01*
X221133618Y-108539271D01*
X221144352Y-108570586D01*
X221157992Y-108639157D01*
X221157994Y-108639165D01*
X221216826Y-108781201D01*
X221216827Y-108781203D01*
X221302245Y-108909039D01*
X221302248Y-108909043D01*
X221410956Y-109017751D01*
X221410960Y-109017754D01*
X221538794Y-109103171D01*
X221538795Y-109103171D01*
X221538796Y-109103172D01*
X221538798Y-109103173D01*
X221633488Y-109142394D01*
X221680836Y-109162006D01*
X221680838Y-109162006D01*
X221680843Y-109162008D01*
X221831622Y-109191999D01*
X221831626Y-109192000D01*
X221831627Y-109192000D01*
X221985374Y-109192000D01*
X221985375Y-109191999D01*
X222035636Y-109182002D01*
X222136156Y-109162008D01*
X222136159Y-109162006D01*
X222136164Y-109162006D01*
X222278206Y-109103171D01*
X222406040Y-109017754D01*
X222514754Y-108909040D01*
X222600171Y-108781206D01*
X222659006Y-108639164D01*
X222659006Y-108639159D01*
X222659008Y-108639156D01*
X222686221Y-108502343D01*
X222689000Y-108488373D01*
X222689000Y-108334627D01*
X222670178Y-108240000D01*
X222659008Y-108183843D01*
X222659005Y-108183834D01*
X222600173Y-108041798D01*
X222600172Y-108041796D01*
X222599444Y-108040707D01*
X222514754Y-107913960D01*
X222514751Y-107913956D01*
X222406043Y-107805248D01*
X222406039Y-107805245D01*
X222278203Y-107719827D01*
X222278201Y-107719826D01*
X222136165Y-107660994D01*
X222136156Y-107660991D01*
X221985377Y-107631000D01*
X221985373Y-107631000D01*
X221831627Y-107631000D01*
X221831622Y-107631000D01*
X221680843Y-107660991D01*
X221680834Y-107660994D01*
X221538798Y-107719826D01*
X221538796Y-107719827D01*
X221410960Y-107805245D01*
X221410956Y-107805248D01*
X221302248Y-107913956D01*
X221302245Y-107913960D01*
X221216827Y-108041796D01*
X221216826Y-108041798D01*
X221179242Y-108132537D01*
X221135402Y-108186941D01*
X221069107Y-108209006D01*
X221001408Y-108191727D01*
X220953797Y-108140590D01*
X220943064Y-108109276D01*
X220929425Y-108040707D01*
X220929422Y-108040698D01*
X220925871Y-108032126D01*
X220879471Y-107920104D01*
X220870590Y-107898662D01*
X220870589Y-107898660D01*
X220851659Y-107870330D01*
X220785171Y-107770824D01*
X220785168Y-107770820D01*
X220676460Y-107662112D01*
X220676456Y-107662109D01*
X220548620Y-107576691D01*
X220548618Y-107576690D01*
X220406582Y-107517858D01*
X220406573Y-107517855D01*
X220255794Y-107487864D01*
X220255790Y-107487864D01*
X220102044Y-107487864D01*
X220102039Y-107487864D01*
X219951260Y-107517855D01*
X219951251Y-107517858D01*
X219809215Y-107576690D01*
X219809213Y-107576691D01*
X219681377Y-107662109D01*
X219681373Y-107662112D01*
X219572665Y-107770820D01*
X219572662Y-107770824D01*
X219487244Y-107898660D01*
X219431961Y-108032126D01*
X219388120Y-108086529D01*
X219386293Y-108087773D01*
X219332468Y-108123739D01*
X219332463Y-108123743D01*
X219223744Y-108232461D01*
X219138327Y-108360296D01*
X219138326Y-108360298D01*
X219079494Y-108502334D01*
X219079491Y-108502343D01*
X219049500Y-108653122D01*
X164200500Y-108653122D01*
X164200500Y-106783713D01*
X193669501Y-106783713D01*
X193669501Y-106996286D01*
X193702754Y-107206239D01*
X193768445Y-107408414D01*
X193864952Y-107597820D01*
X193989891Y-107769786D01*
X194140214Y-107920109D01*
X194312180Y-108045048D01*
X194312182Y-108045049D01*
X194312185Y-108045051D01*
X194501589Y-108141557D01*
X194703758Y-108207246D01*
X194913714Y-108240500D01*
X194913715Y-108240500D01*
X195126287Y-108240500D01*
X195126288Y-108240500D01*
X195336244Y-108207246D01*
X195538413Y-108141557D01*
X195727817Y-108045051D01*
X195814139Y-107982335D01*
X195899787Y-107920109D01*
X195899789Y-107920106D01*
X195899793Y-107920104D01*
X196050105Y-107769792D01*
X196050107Y-107769788D01*
X196050110Y-107769786D01*
X196175049Y-107597820D01*
X196175048Y-107597820D01*
X196175052Y-107597816D01*
X196179795Y-107588506D01*
X196227767Y-107537710D01*
X196295588Y-107520913D01*
X196361723Y-107543448D01*
X196400766Y-107588505D01*
X196405373Y-107597547D01*
X196444728Y-107651716D01*
X197077037Y-107019408D01*
X197094075Y-107082993D01*
X197159901Y-107197007D01*
X197252993Y-107290099D01*
X197367007Y-107355925D01*
X197430590Y-107372962D01*
X196798282Y-108005269D01*
X196798282Y-108005270D01*
X196852449Y-108044624D01*
X197041782Y-108141095D01*
X197243870Y-108206757D01*
X197453754Y-108240000D01*
X197666246Y-108240000D01*
X197876127Y-108206757D01*
X197876130Y-108206757D01*
X198078217Y-108141095D01*
X198267554Y-108044622D01*
X198321716Y-108005270D01*
X198321717Y-108005270D01*
X197689408Y-107372962D01*
X197752993Y-107355925D01*
X197867007Y-107290099D01*
X197960099Y-107197007D01*
X198025925Y-107082993D01*
X198042962Y-107019408D01*
X198713181Y-107689628D01*
X198746666Y-107750951D01*
X198749500Y-107777300D01*
X198749500Y-107787865D01*
X198749501Y-107787876D01*
X198755908Y-107847483D01*
X198806202Y-107982328D01*
X198806206Y-107982335D01*
X198892452Y-108097544D01*
X198892455Y-108097547D01*
X199007664Y-108183793D01*
X199007671Y-108183797D01*
X199142517Y-108234091D01*
X199142516Y-108234091D01*
X199149444Y-108234835D01*
X199202127Y-108240500D01*
X200997872Y-108240499D01*
X201057483Y-108234091D01*
X201192331Y-108183796D01*
X201307546Y-108097546D01*
X201393796Y-107982331D01*
X201444091Y-107847483D01*
X201450500Y-107787873D01*
X201450499Y-105992128D01*
X201444537Y-105936663D01*
X219113365Y-105936663D01*
X219113365Y-106090418D01*
X219143356Y-106241197D01*
X219143359Y-106241206D01*
X219202191Y-106383242D01*
X219202192Y-106383244D01*
X219287610Y-106511080D01*
X219287613Y-106511084D01*
X219396321Y-106619792D01*
X219396325Y-106619795D01*
X219524159Y-106705212D01*
X219524160Y-106705212D01*
X219524161Y-106705213D01*
X219524163Y-106705214D01*
X219618853Y-106744435D01*
X219666201Y-106764047D01*
X219666203Y-106764047D01*
X219666208Y-106764049D01*
X219816987Y-106794040D01*
X219816991Y-106794041D01*
X219816992Y-106794041D01*
X219970739Y-106794041D01*
X219970740Y-106794040D01*
X220022661Y-106783713D01*
X220121521Y-106764049D01*
X220121524Y-106764047D01*
X220121529Y-106764047D01*
X220263571Y-106705212D01*
X220391405Y-106619795D01*
X220500119Y-106511081D01*
X220585536Y-106383247D01*
X220644371Y-106241205D01*
X220674365Y-106090414D01*
X220674365Y-105936668D01*
X220673539Y-105932516D01*
X220644373Y-105785884D01*
X220644370Y-105785875D01*
X220639752Y-105774727D01*
X220601533Y-105682455D01*
X220585538Y-105643839D01*
X220585537Y-105643837D01*
X220581933Y-105638444D01*
X220500119Y-105516001D01*
X220500116Y-105515997D01*
X220391408Y-105407289D01*
X220391404Y-105407286D01*
X220263568Y-105321868D01*
X220263566Y-105321867D01*
X220121530Y-105263035D01*
X220121521Y-105263032D01*
X219970742Y-105233041D01*
X219970738Y-105233041D01*
X219816992Y-105233041D01*
X219816987Y-105233041D01*
X219666208Y-105263032D01*
X219666199Y-105263035D01*
X219524163Y-105321867D01*
X219524161Y-105321868D01*
X219396325Y-105407286D01*
X219396321Y-105407289D01*
X219287613Y-105515997D01*
X219287610Y-105516001D01*
X219202192Y-105643837D01*
X219202191Y-105643839D01*
X219143359Y-105785875D01*
X219143356Y-105785884D01*
X219113365Y-105936663D01*
X201444537Y-105936663D01*
X201444091Y-105932517D01*
X201393796Y-105797669D01*
X201393795Y-105797668D01*
X201393793Y-105797664D01*
X201307547Y-105682455D01*
X201307544Y-105682452D01*
X201192335Y-105596206D01*
X201192328Y-105596202D01*
X201057482Y-105545908D01*
X201057483Y-105545908D01*
X200997883Y-105539501D01*
X200997881Y-105539500D01*
X200997873Y-105539500D01*
X200997864Y-105539500D01*
X199202129Y-105539500D01*
X199202123Y-105539501D01*
X199142516Y-105545908D01*
X199007671Y-105596202D01*
X199007664Y-105596206D01*
X198892455Y-105682452D01*
X198892452Y-105682455D01*
X198806206Y-105797664D01*
X198806202Y-105797671D01*
X198755908Y-105932517D01*
X198749501Y-105992116D01*
X198749501Y-105992125D01*
X198749500Y-105992135D01*
X198749500Y-106002690D01*
X198729815Y-106069729D01*
X198713181Y-106090371D01*
X198042962Y-106760590D01*
X198025925Y-106697007D01*
X197960099Y-106582993D01*
X197867007Y-106489901D01*
X197752993Y-106424075D01*
X197689409Y-106407037D01*
X198321716Y-105774728D01*
X198267550Y-105735375D01*
X198078217Y-105638904D01*
X197876129Y-105573242D01*
X197666246Y-105540000D01*
X197453754Y-105540000D01*
X197243872Y-105573242D01*
X197243869Y-105573242D01*
X197041782Y-105638904D01*
X196852439Y-105735380D01*
X196798282Y-105774727D01*
X196798282Y-105774728D01*
X197430591Y-106407037D01*
X197367007Y-106424075D01*
X197252993Y-106489901D01*
X197159901Y-106582993D01*
X197094075Y-106697007D01*
X197077037Y-106760590D01*
X196444728Y-106128282D01*
X196444727Y-106128282D01*
X196405380Y-106182440D01*
X196400763Y-106191501D01*
X196352785Y-106242294D01*
X196284963Y-106259086D01*
X196218830Y-106236545D01*
X196179796Y-106191495D01*
X196175049Y-106182179D01*
X196050110Y-106010213D01*
X195899787Y-105859890D01*
X195727821Y-105734951D01*
X195538415Y-105638444D01*
X195538414Y-105638443D01*
X195538413Y-105638443D01*
X195336244Y-105572754D01*
X195336242Y-105572753D01*
X195336241Y-105572753D01*
X195174958Y-105547208D01*
X195126288Y-105539500D01*
X194913714Y-105539500D01*
X194865043Y-105547208D01*
X194703761Y-105572753D01*
X194501586Y-105638444D01*
X194312180Y-105734951D01*
X194140214Y-105859890D01*
X193989891Y-106010213D01*
X193864952Y-106182179D01*
X193768445Y-106371585D01*
X193702754Y-106573760D01*
X193669501Y-106783713D01*
X164200500Y-106783713D01*
X164200500Y-103945004D01*
X197970541Y-103945004D01*
X197970541Y-104098759D01*
X198000532Y-104249538D01*
X198000535Y-104249547D01*
X198059367Y-104391583D01*
X198059368Y-104391585D01*
X198144786Y-104519421D01*
X198144789Y-104519425D01*
X198253497Y-104628133D01*
X198253501Y-104628136D01*
X198381335Y-104713553D01*
X198381336Y-104713553D01*
X198381337Y-104713554D01*
X198381339Y-104713555D01*
X198476029Y-104752776D01*
X198523377Y-104772388D01*
X198523379Y-104772388D01*
X198523384Y-104772390D01*
X198674163Y-104802381D01*
X198674167Y-104802382D01*
X198674168Y-104802382D01*
X198827915Y-104802382D01*
X198827916Y-104802381D01*
X198878177Y-104792384D01*
X198978697Y-104772390D01*
X198978700Y-104772388D01*
X198978705Y-104772388D01*
X199120747Y-104713553D01*
X199181256Y-104673122D01*
X209719500Y-104673122D01*
X209719500Y-104826877D01*
X209749491Y-104977656D01*
X209749494Y-104977665D01*
X209808326Y-105119701D01*
X209808327Y-105119703D01*
X209893745Y-105247539D01*
X209893748Y-105247543D01*
X210002456Y-105356251D01*
X210002460Y-105356254D01*
X210130294Y-105441671D01*
X210130295Y-105441671D01*
X210130296Y-105441672D01*
X210130298Y-105441673D01*
X210224988Y-105480894D01*
X210272336Y-105500506D01*
X210272338Y-105500506D01*
X210272343Y-105500508D01*
X210423122Y-105530499D01*
X210423126Y-105530500D01*
X210423127Y-105530500D01*
X210576874Y-105530500D01*
X210576875Y-105530499D01*
X210649785Y-105515997D01*
X210727656Y-105500508D01*
X210727659Y-105500506D01*
X210727664Y-105500506D01*
X210869706Y-105441671D01*
X210997540Y-105356254D01*
X211106254Y-105247540D01*
X211191671Y-105119706D01*
X211250506Y-104977664D01*
X211262424Y-104917751D01*
X211280499Y-104826877D01*
X211280500Y-104826874D01*
X211280500Y-104673126D01*
X211280499Y-104673122D01*
X211250508Y-104522343D01*
X211250505Y-104522334D01*
X211249298Y-104519421D01*
X211195018Y-104388374D01*
X211191673Y-104380298D01*
X211191672Y-104380296D01*
X211136300Y-104297426D01*
X211106254Y-104252460D01*
X211106251Y-104252456D01*
X211088417Y-104234622D01*
X215578000Y-104234622D01*
X215578000Y-104388377D01*
X215607991Y-104539156D01*
X215607994Y-104539165D01*
X215666826Y-104681201D01*
X215666827Y-104681203D01*
X215752245Y-104809039D01*
X215752248Y-104809043D01*
X215860956Y-104917751D01*
X215860960Y-104917754D01*
X215988794Y-105003171D01*
X215988795Y-105003171D01*
X215988796Y-105003172D01*
X215988798Y-105003173D01*
X216083488Y-105042394D01*
X216130836Y-105062006D01*
X216130838Y-105062006D01*
X216130843Y-105062008D01*
X216281622Y-105091999D01*
X216281626Y-105092000D01*
X216281627Y-105092000D01*
X216435374Y-105092000D01*
X216435375Y-105091999D01*
X216485636Y-105082002D01*
X216586156Y-105062008D01*
X216586159Y-105062006D01*
X216586164Y-105062006D01*
X216728206Y-105003171D01*
X216856040Y-104917754D01*
X216964754Y-104809040D01*
X217050171Y-104681206D01*
X217109006Y-104539164D01*
X217112354Y-104522336D01*
X217129002Y-104438636D01*
X217139000Y-104388373D01*
X217139000Y-104334000D01*
X217158685Y-104266961D01*
X217211489Y-104221206D01*
X217263000Y-104210000D01*
X217600000Y-104210000D01*
X217600000Y-103510000D01*
X218100000Y-103510000D01*
X218100000Y-104210000D01*
X218498492Y-104210000D01*
X218498495Y-104209999D01*
X218691681Y-104171572D01*
X218691693Y-104171569D01*
X218873671Y-104096192D01*
X218873684Y-104096185D01*
X219037462Y-103986751D01*
X219037466Y-103986748D01*
X219176748Y-103847466D01*
X219176751Y-103847462D01*
X219286185Y-103683684D01*
X219286192Y-103683671D01*
X219361569Y-103501692D01*
X219361569Y-103501690D01*
X219369862Y-103460000D01*
X218566988Y-103460000D01*
X218584205Y-103450060D01*
X218640060Y-103394205D01*
X218679556Y-103325796D01*
X218700000Y-103249496D01*
X218700000Y-103170504D01*
X218679556Y-103094204D01*
X218640060Y-103025795D01*
X218584205Y-102969940D01*
X218566988Y-102960000D01*
X219369862Y-102960000D01*
X220760138Y-102960000D01*
X221563012Y-102960000D01*
X221545795Y-102969940D01*
X221489940Y-103025795D01*
X221450444Y-103094204D01*
X221430000Y-103170504D01*
X221430000Y-103249496D01*
X221450444Y-103325796D01*
X221489940Y-103394205D01*
X221545795Y-103450060D01*
X221563012Y-103460000D01*
X220760138Y-103460000D01*
X220768430Y-103501690D01*
X220768430Y-103501692D01*
X220843807Y-103683671D01*
X220843814Y-103683684D01*
X220953248Y-103847462D01*
X220953251Y-103847466D01*
X221092533Y-103986748D01*
X221092537Y-103986751D01*
X221256315Y-104096185D01*
X221256328Y-104096192D01*
X221438306Y-104171569D01*
X221438318Y-104171572D01*
X221631504Y-104209999D01*
X221631508Y-104210000D01*
X221780000Y-104210000D01*
X221780000Y-103510000D01*
X222280000Y-103510000D01*
X222280000Y-104210000D01*
X222428492Y-104210000D01*
X222428495Y-104209999D01*
X222621681Y-104171572D01*
X222621693Y-104171569D01*
X222803671Y-104096192D01*
X222803684Y-104096185D01*
X222967462Y-103986751D01*
X222967466Y-103986748D01*
X223106748Y-103847466D01*
X223106751Y-103847462D01*
X223216185Y-103683684D01*
X223216192Y-103683671D01*
X223291569Y-103501692D01*
X223291569Y-103501690D01*
X223299862Y-103460000D01*
X222496988Y-103460000D01*
X222514205Y-103450060D01*
X222570060Y-103394205D01*
X222609556Y-103325796D01*
X222630000Y-103249496D01*
X222630000Y-103170504D01*
X222609556Y-103094204D01*
X222570060Y-103025795D01*
X222514205Y-102969940D01*
X222496988Y-102960000D01*
X223299862Y-102960000D01*
X223291569Y-102918309D01*
X223291569Y-102918307D01*
X223216192Y-102736328D01*
X223216185Y-102736315D01*
X223106751Y-102572537D01*
X223106748Y-102572533D01*
X222967466Y-102433251D01*
X222967462Y-102433248D01*
X222803684Y-102323814D01*
X222803671Y-102323807D01*
X222621693Y-102248430D01*
X222621681Y-102248427D01*
X222428495Y-102210000D01*
X222280000Y-102210000D01*
X222280000Y-102910000D01*
X221780000Y-102910000D01*
X221780000Y-102210000D01*
X221631504Y-102210000D01*
X221438318Y-102248427D01*
X221438306Y-102248430D01*
X221256328Y-102323807D01*
X221256315Y-102323814D01*
X221092537Y-102433248D01*
X221092533Y-102433251D01*
X220953251Y-102572533D01*
X220953248Y-102572537D01*
X220843814Y-102736315D01*
X220843807Y-102736328D01*
X220768430Y-102918307D01*
X220768430Y-102918309D01*
X220760138Y-102960000D01*
X219369862Y-102960000D01*
X219361569Y-102918309D01*
X219361569Y-102918307D01*
X219286192Y-102736328D01*
X219286185Y-102736315D01*
X219176751Y-102572537D01*
X219176748Y-102572533D01*
X219037466Y-102433251D01*
X219037462Y-102433248D01*
X218868613Y-102320426D01*
X218870110Y-102318184D01*
X218828677Y-102276788D01*
X218813794Y-102208522D01*
X218838181Y-102143046D01*
X218839111Y-102141819D01*
X218843703Y-102135832D01*
X218843715Y-102135821D01*
X218920008Y-102003678D01*
X218959500Y-101856293D01*
X218959500Y-101703707D01*
X218956750Y-101693444D01*
X218958409Y-101623596D01*
X218997569Y-101565732D01*
X219029066Y-101546788D01*
X219089706Y-101521671D01*
X219217540Y-101436254D01*
X219326254Y-101327540D01*
X219411671Y-101199706D01*
X219470506Y-101057664D01*
X219474642Y-101036874D01*
X219500499Y-100906877D01*
X219500500Y-100906874D01*
X219500500Y-100753126D01*
X219500499Y-100753122D01*
X219470508Y-100602343D01*
X219470505Y-100602334D01*
X219411673Y-100460298D01*
X219411672Y-100460296D01*
X219373271Y-100402826D01*
X219326254Y-100332460D01*
X219326251Y-100332456D01*
X219217543Y-100223748D01*
X219217539Y-100223745D01*
X219089703Y-100138327D01*
X219089701Y-100138326D01*
X218947665Y-100079494D01*
X218947656Y-100079491D01*
X218796877Y-100049500D01*
X218796873Y-100049500D01*
X218643127Y-100049500D01*
X218643122Y-100049500D01*
X218492343Y-100079491D01*
X218492334Y-100079494D01*
X218350298Y-100138326D01*
X218350296Y-100138327D01*
X218222460Y-100223745D01*
X218222456Y-100223748D01*
X218113748Y-100332456D01*
X218113745Y-100332460D01*
X218028327Y-100460296D01*
X218028326Y-100460298D01*
X217969494Y-100602334D01*
X217969491Y-100602343D01*
X217939500Y-100753122D01*
X217939500Y-100906877D01*
X217969491Y-101057656D01*
X217969493Y-101057660D01*
X217969494Y-101057664D01*
X217979852Y-101082670D01*
X218029552Y-101202660D01*
X218037020Y-101272129D01*
X218005744Y-101334608D01*
X218002672Y-101337792D01*
X217916282Y-101424182D01*
X217839993Y-101556318D01*
X217837331Y-101566254D01*
X217800500Y-101703707D01*
X217800500Y-101856293D01*
X217806526Y-101878781D01*
X217839993Y-102003681D01*
X217916282Y-102135817D01*
X217916284Y-102135819D01*
X217916285Y-102135821D01*
X218024179Y-102243715D01*
X218024180Y-102243716D01*
X218024182Y-102243717D01*
X218037996Y-102251692D01*
X218086214Y-102302257D01*
X218100000Y-102359081D01*
X218100000Y-102910000D01*
X217600000Y-102910000D01*
X217600000Y-102210000D01*
X217201504Y-102210000D01*
X217008318Y-102248427D01*
X217008306Y-102248430D01*
X216826328Y-102323807D01*
X216826315Y-102323814D01*
X216662537Y-102433248D01*
X216662533Y-102433251D01*
X216523251Y-102572533D01*
X216523248Y-102572537D01*
X216413814Y-102736315D01*
X216413807Y-102736328D01*
X216338430Y-102918307D01*
X216338430Y-102918309D01*
X216330138Y-102960000D01*
X217133012Y-102960000D01*
X217115795Y-102969940D01*
X217059940Y-103025795D01*
X217020444Y-103094204D01*
X217000000Y-103170504D01*
X217000000Y-103249496D01*
X217020444Y-103325796D01*
X217059940Y-103394205D01*
X217115795Y-103450060D01*
X217133012Y-103460000D01*
X216330136Y-103460000D01*
X216298109Y-103499024D01*
X216240363Y-103538358D01*
X216226448Y-103541975D01*
X216130843Y-103560991D01*
X216130834Y-103560994D01*
X215988798Y-103619826D01*
X215988796Y-103619827D01*
X215860960Y-103705245D01*
X215860956Y-103705248D01*
X215752248Y-103813956D01*
X215752245Y-103813960D01*
X215666827Y-103941796D01*
X215666826Y-103941798D01*
X215607994Y-104083834D01*
X215607991Y-104083843D01*
X215578000Y-104234622D01*
X211088417Y-104234622D01*
X210997543Y-104143748D01*
X210997539Y-104143745D01*
X210869703Y-104058327D01*
X210869701Y-104058326D01*
X210727665Y-103999494D01*
X210727656Y-103999491D01*
X210576877Y-103969500D01*
X210576873Y-103969500D01*
X210423127Y-103969500D01*
X210423122Y-103969500D01*
X210272343Y-103999491D01*
X210272334Y-103999494D01*
X210130298Y-104058326D01*
X210130296Y-104058327D01*
X210002460Y-104143745D01*
X210002456Y-104143748D01*
X209893748Y-104252456D01*
X209893745Y-104252460D01*
X209808327Y-104380296D01*
X209808326Y-104380298D01*
X209749494Y-104522334D01*
X209749491Y-104522343D01*
X209719500Y-104673122D01*
X199181256Y-104673122D01*
X199248581Y-104628136D01*
X199248584Y-104628133D01*
X199297364Y-104579354D01*
X199357292Y-104519425D01*
X199357295Y-104519422D01*
X199442712Y-104391588D01*
X199501547Y-104249546D01*
X199509414Y-104209999D01*
X199531540Y-104098759D01*
X199531541Y-104098756D01*
X199531541Y-103945008D01*
X199531540Y-103945004D01*
X199501549Y-103794225D01*
X199501546Y-103794216D01*
X199442714Y-103652180D01*
X199442713Y-103652178D01*
X199357295Y-103524342D01*
X199357292Y-103524338D01*
X199248584Y-103415630D01*
X199248580Y-103415627D01*
X199120744Y-103330209D01*
X199120742Y-103330208D01*
X198978706Y-103271376D01*
X198978697Y-103271373D01*
X198937885Y-103263256D01*
X198827918Y-103241382D01*
X198827914Y-103241382D01*
X198674168Y-103241382D01*
X198674163Y-103241382D01*
X198523384Y-103271373D01*
X198523375Y-103271376D01*
X198381339Y-103330208D01*
X198381337Y-103330209D01*
X198253501Y-103415627D01*
X198253497Y-103415630D01*
X198144789Y-103524338D01*
X198144786Y-103524342D01*
X198059368Y-103652178D01*
X198059367Y-103652180D01*
X198000535Y-103794216D01*
X198000532Y-103794225D01*
X197970541Y-103945004D01*
X164200500Y-103945004D01*
X164200500Y-103147726D01*
X204590089Y-103147726D01*
X204590089Y-103305419D01*
X204620850Y-103460062D01*
X204620853Y-103460074D01*
X204681191Y-103605745D01*
X204681198Y-103605758D01*
X204768799Y-103736861D01*
X204768802Y-103736865D01*
X204880296Y-103848359D01*
X204880300Y-103848362D01*
X205011403Y-103935963D01*
X205011416Y-103935970D01*
X205092366Y-103969500D01*
X205157092Y-103996310D01*
X205311742Y-104027072D01*
X205311745Y-104027073D01*
X205311747Y-104027073D01*
X205469433Y-104027073D01*
X205469434Y-104027072D01*
X205624086Y-103996310D01*
X205755691Y-103941798D01*
X205769761Y-103935970D01*
X205769761Y-103935969D01*
X205769768Y-103935967D01*
X205900878Y-103848362D01*
X206012378Y-103736862D01*
X206099983Y-103605752D01*
X206160326Y-103460070D01*
X206191089Y-103305415D01*
X206191089Y-103147731D01*
X206191089Y-103147728D01*
X206191088Y-103147726D01*
X206162790Y-103005464D01*
X206160326Y-102993076D01*
X206150743Y-102969940D01*
X206099986Y-102847400D01*
X206099979Y-102847387D01*
X206057113Y-102783234D01*
X206015148Y-102720430D01*
X213469783Y-102720430D01*
X213469783Y-102864335D01*
X213497853Y-103005454D01*
X213497856Y-103005464D01*
X213552920Y-103138402D01*
X213552925Y-103138411D01*
X213632865Y-103258049D01*
X213632868Y-103258053D01*
X213734612Y-103359797D01*
X213734616Y-103359800D01*
X213854254Y-103439740D01*
X213854260Y-103439743D01*
X213854261Y-103439744D01*
X213987204Y-103494811D01*
X214128330Y-103522882D01*
X214128334Y-103522883D01*
X214128335Y-103522883D01*
X214272232Y-103522883D01*
X214272233Y-103522882D01*
X214413362Y-103494811D01*
X214546305Y-103439744D01*
X214665950Y-103359800D01*
X214767700Y-103258050D01*
X214847644Y-103138405D01*
X214902711Y-103005462D01*
X214930783Y-102864331D01*
X214930783Y-102720435D01*
X214902711Y-102579304D01*
X214851598Y-102455906D01*
X214847645Y-102446363D01*
X214847640Y-102446354D01*
X214767700Y-102326716D01*
X214767697Y-102326712D01*
X214665953Y-102224968D01*
X214665949Y-102224965D01*
X214546311Y-102145025D01*
X214546302Y-102145020D01*
X214413364Y-102089956D01*
X214413365Y-102089956D01*
X214413362Y-102089955D01*
X214413358Y-102089954D01*
X214413354Y-102089953D01*
X214272235Y-102061883D01*
X214272231Y-102061883D01*
X214128335Y-102061883D01*
X214128330Y-102061883D01*
X213987211Y-102089953D01*
X213987201Y-102089956D01*
X213854263Y-102145020D01*
X213854254Y-102145025D01*
X213734616Y-102224965D01*
X213734612Y-102224968D01*
X213632868Y-102326712D01*
X213632865Y-102326716D01*
X213552925Y-102446354D01*
X213552920Y-102446363D01*
X213497856Y-102579301D01*
X213497853Y-102579311D01*
X213469783Y-102720430D01*
X206015148Y-102720430D01*
X206012378Y-102716284D01*
X206012375Y-102716280D01*
X205900881Y-102604786D01*
X205900877Y-102604783D01*
X205769774Y-102517182D01*
X205769761Y-102517175D01*
X205624090Y-102456837D01*
X205624078Y-102456834D01*
X205469434Y-102426073D01*
X205469431Y-102426073D01*
X205311747Y-102426073D01*
X205311744Y-102426073D01*
X205157099Y-102456834D01*
X205157087Y-102456837D01*
X205011416Y-102517175D01*
X205011403Y-102517182D01*
X204880300Y-102604783D01*
X204880296Y-102604786D01*
X204768802Y-102716280D01*
X204768799Y-102716284D01*
X204681198Y-102847387D01*
X204681191Y-102847400D01*
X204620853Y-102993071D01*
X204620850Y-102993083D01*
X204590089Y-103147726D01*
X164200500Y-103147726D01*
X164200500Y-99443122D01*
X193649500Y-99443122D01*
X193649500Y-99596877D01*
X193679491Y-99747656D01*
X193679494Y-99747665D01*
X193738326Y-99889701D01*
X193738327Y-99889703D01*
X193823745Y-100017539D01*
X193823748Y-100017543D01*
X193932456Y-100126251D01*
X193932460Y-100126254D01*
X194060294Y-100211671D01*
X194060295Y-100211671D01*
X194060296Y-100211672D01*
X194060298Y-100211673D01*
X194103743Y-100229668D01*
X194202336Y-100270506D01*
X194202338Y-100270506D01*
X194202343Y-100270508D01*
X194353122Y-100300499D01*
X194353126Y-100300500D01*
X194353127Y-100300500D01*
X194506874Y-100300500D01*
X194506875Y-100300499D01*
X194561460Y-100289642D01*
X194663639Y-100269318D01*
X194663870Y-100270481D01*
X194727418Y-100269904D01*
X194786537Y-100307143D01*
X194816138Y-100370433D01*
X194806824Y-100439679D01*
X194796668Y-100458084D01*
X194708330Y-100590291D01*
X194708326Y-100590298D01*
X194649494Y-100732334D01*
X194649493Y-100732341D01*
X194619500Y-100883122D01*
X194619500Y-101036877D01*
X194649491Y-101187656D01*
X194649494Y-101187665D01*
X194708326Y-101329701D01*
X194708327Y-101329703D01*
X194793745Y-101457539D01*
X194793748Y-101457543D01*
X194902456Y-101566251D01*
X194902460Y-101566254D01*
X195030294Y-101651671D01*
X195030295Y-101651671D01*
X195030296Y-101651672D01*
X195030298Y-101651673D01*
X195102912Y-101681750D01*
X195172336Y-101710506D01*
X195172338Y-101710506D01*
X195172343Y-101710508D01*
X195323122Y-101740499D01*
X195323126Y-101740500D01*
X195323127Y-101740500D01*
X195476874Y-101740500D01*
X195476874Y-101740499D01*
X195519861Y-101731949D01*
X195589452Y-101738176D01*
X195644630Y-101781038D01*
X195667875Y-101846928D01*
X195665670Y-101877757D01*
X195639500Y-102009322D01*
X195639500Y-102163077D01*
X195669491Y-102313856D01*
X195669494Y-102313865D01*
X195728326Y-102455901D01*
X195728327Y-102455903D01*
X195813745Y-102583739D01*
X195813748Y-102583743D01*
X195922456Y-102692451D01*
X195922460Y-102692454D01*
X196050294Y-102777871D01*
X196050295Y-102777871D01*
X196050296Y-102777872D01*
X196050298Y-102777873D01*
X196144988Y-102817094D01*
X196192336Y-102836706D01*
X196192338Y-102836706D01*
X196192343Y-102836708D01*
X196343122Y-102866699D01*
X196343126Y-102866700D01*
X196343127Y-102866700D01*
X196496874Y-102866700D01*
X196496875Y-102866699D01*
X196547136Y-102856702D01*
X196647656Y-102836708D01*
X196647659Y-102836706D01*
X196647664Y-102836706D01*
X196789706Y-102777871D01*
X196917540Y-102692454D01*
X197026254Y-102583740D01*
X197111671Y-102455906D01*
X197170506Y-102313864D01*
X197184460Y-102243715D01*
X197200499Y-102163077D01*
X197200500Y-102163074D01*
X197200500Y-102009326D01*
X197200499Y-102009323D01*
X197199555Y-102004579D01*
X197170932Y-101860677D01*
X201351246Y-101860677D01*
X201351246Y-102004582D01*
X201379316Y-102145701D01*
X201379319Y-102145711D01*
X201434383Y-102278649D01*
X201434388Y-102278658D01*
X201514328Y-102398296D01*
X201514331Y-102398300D01*
X201616075Y-102500044D01*
X201616079Y-102500047D01*
X201735717Y-102579987D01*
X201735723Y-102579990D01*
X201735724Y-102579991D01*
X201868667Y-102635058D01*
X202009793Y-102663129D01*
X202009797Y-102663130D01*
X202009798Y-102663130D01*
X202153695Y-102663130D01*
X202153696Y-102663129D01*
X202294825Y-102635058D01*
X202427768Y-102579991D01*
X202547413Y-102500047D01*
X202649163Y-102398297D01*
X202729107Y-102278652D01*
X202784174Y-102145709D01*
X202812246Y-102004578D01*
X202812246Y-101860682D01*
X202784174Y-101719551D01*
X202729107Y-101586608D01*
X202729106Y-101586607D01*
X202729103Y-101586601D01*
X202649163Y-101466963D01*
X202649160Y-101466959D01*
X202547416Y-101365215D01*
X202547412Y-101365212D01*
X202427774Y-101285272D01*
X202427765Y-101285267D01*
X202294827Y-101230203D01*
X202294828Y-101230203D01*
X202294825Y-101230202D01*
X202294821Y-101230201D01*
X202294817Y-101230200D01*
X202153698Y-101202130D01*
X202153694Y-101202130D01*
X202009798Y-101202130D01*
X202009793Y-101202130D01*
X201868674Y-101230200D01*
X201868664Y-101230203D01*
X201735726Y-101285267D01*
X201735717Y-101285272D01*
X201616079Y-101365212D01*
X201616075Y-101365215D01*
X201514331Y-101466959D01*
X201514328Y-101466963D01*
X201434388Y-101586601D01*
X201434383Y-101586610D01*
X201379319Y-101719548D01*
X201379316Y-101719558D01*
X201351246Y-101860677D01*
X197170932Y-101860677D01*
X197170506Y-101858536D01*
X197143921Y-101794353D01*
X197111673Y-101716498D01*
X197111672Y-101716496D01*
X197103127Y-101703708D01*
X197026254Y-101588660D01*
X197026251Y-101588656D01*
X196917543Y-101479948D01*
X196917539Y-101479945D01*
X196789703Y-101394527D01*
X196789701Y-101394526D01*
X196647665Y-101335694D01*
X196647656Y-101335691D01*
X196496877Y-101305700D01*
X196496873Y-101305700D01*
X196343127Y-101305700D01*
X196300135Y-101314251D01*
X196230544Y-101308022D01*
X196175367Y-101265158D01*
X196152124Y-101199268D01*
X196154328Y-101168446D01*
X196180500Y-101036873D01*
X196180500Y-100883127D01*
X196180500Y-100883124D01*
X196179739Y-100879297D01*
X199380749Y-100879297D01*
X199380749Y-101023202D01*
X199408819Y-101164321D01*
X199408822Y-101164331D01*
X199463886Y-101297269D01*
X199463891Y-101297278D01*
X199543831Y-101416916D01*
X199543834Y-101416920D01*
X199645578Y-101518664D01*
X199645582Y-101518667D01*
X199765220Y-101598607D01*
X199765226Y-101598610D01*
X199765227Y-101598611D01*
X199898170Y-101653678D01*
X200039296Y-101681749D01*
X200039300Y-101681750D01*
X200039301Y-101681750D01*
X200183198Y-101681750D01*
X200183199Y-101681749D01*
X200324328Y-101653678D01*
X200457271Y-101598611D01*
X200576916Y-101518667D01*
X200678666Y-101416917D01*
X200758610Y-101297272D01*
X200813677Y-101164329D01*
X200841749Y-101023198D01*
X200841749Y-100879302D01*
X200813677Y-100738171D01*
X200758610Y-100605228D01*
X200758609Y-100605227D01*
X200758606Y-100605221D01*
X200678666Y-100485583D01*
X200678663Y-100485579D01*
X200576919Y-100383835D01*
X200576915Y-100383832D01*
X200457277Y-100303892D01*
X200457268Y-100303887D01*
X200332447Y-100252185D01*
X200324328Y-100248822D01*
X200324324Y-100248821D01*
X200324320Y-100248820D01*
X200183201Y-100220750D01*
X200183197Y-100220750D01*
X200039301Y-100220750D01*
X200039296Y-100220750D01*
X199898177Y-100248820D01*
X199898167Y-100248823D01*
X199765229Y-100303887D01*
X199765220Y-100303892D01*
X199645582Y-100383832D01*
X199645578Y-100383835D01*
X199543834Y-100485579D01*
X199543831Y-100485583D01*
X199463891Y-100605221D01*
X199463886Y-100605230D01*
X199408822Y-100738168D01*
X199408821Y-100738171D01*
X199380749Y-100879297D01*
X196179739Y-100879297D01*
X196150507Y-100732341D01*
X196150505Y-100732334D01*
X196091673Y-100590298D01*
X196091672Y-100590296D01*
X196040907Y-100514322D01*
X196006254Y-100462460D01*
X196006251Y-100462456D01*
X195897543Y-100353748D01*
X195897539Y-100353745D01*
X195769703Y-100268327D01*
X195769701Y-100268326D01*
X195627665Y-100209494D01*
X195627656Y-100209491D01*
X195476877Y-100179500D01*
X195476873Y-100179500D01*
X195323127Y-100179500D01*
X195323122Y-100179500D01*
X195166361Y-100210682D01*
X195166130Y-100209522D01*
X195102556Y-100210088D01*
X195043445Y-100172836D01*
X195013857Y-100109541D01*
X195023186Y-100040297D01*
X195033331Y-100021914D01*
X195036254Y-100017540D01*
X195121671Y-99889706D01*
X195180506Y-99747664D01*
X195193498Y-99682351D01*
X195210499Y-99596877D01*
X195210500Y-99596874D01*
X195210500Y-99443126D01*
X195210499Y-99443122D01*
X195180508Y-99292343D01*
X195180505Y-99292334D01*
X195179223Y-99289240D01*
X195154007Y-99228362D01*
X195121673Y-99150298D01*
X195121672Y-99150296D01*
X195117956Y-99144735D01*
X195036254Y-99022460D01*
X195036251Y-99022456D01*
X194927543Y-98913748D01*
X194927539Y-98913745D01*
X194799703Y-98828327D01*
X194799701Y-98828326D01*
X194657665Y-98769494D01*
X194657656Y-98769491D01*
X194506877Y-98739500D01*
X194506873Y-98739500D01*
X194353127Y-98739500D01*
X194353122Y-98739500D01*
X194202343Y-98769491D01*
X194202334Y-98769494D01*
X194060298Y-98828326D01*
X194060296Y-98828327D01*
X193932460Y-98913745D01*
X193932456Y-98913748D01*
X193823748Y-99022456D01*
X193823745Y-99022460D01*
X193738327Y-99150296D01*
X193738326Y-99150298D01*
X193679494Y-99292334D01*
X193679491Y-99292343D01*
X193649500Y-99443122D01*
X164200500Y-99443122D01*
X164200500Y-97460423D01*
X202783180Y-97460423D01*
X202783180Y-97604328D01*
X202811250Y-97745447D01*
X202811253Y-97745457D01*
X202866317Y-97878395D01*
X202866322Y-97878404D01*
X202946262Y-97998042D01*
X202946265Y-97998046D01*
X203048012Y-98099793D01*
X203122017Y-98149241D01*
X203166822Y-98202853D01*
X203175529Y-98272178D01*
X203145375Y-98335205D01*
X203122018Y-98355444D01*
X203100487Y-98369830D01*
X203100481Y-98369835D01*
X202998737Y-98471579D01*
X202998734Y-98471583D01*
X202918794Y-98591221D01*
X202918789Y-98591230D01*
X202863725Y-98724168D01*
X202863722Y-98724178D01*
X202835652Y-98865297D01*
X202835652Y-99009202D01*
X202863722Y-99150321D01*
X202863725Y-99150331D01*
X202918786Y-99283262D01*
X202919225Y-99284082D01*
X202919324Y-99284561D01*
X202921122Y-99288900D01*
X202920299Y-99289240D01*
X202933473Y-99352484D01*
X202924433Y-99389998D01*
X202892112Y-99468027D01*
X202892108Y-99468041D01*
X202864038Y-99609160D01*
X202864038Y-99753065D01*
X202892108Y-99894183D01*
X202892111Y-99894195D01*
X202898393Y-99909361D01*
X202905860Y-99978830D01*
X202891228Y-100015101D01*
X202892754Y-100015917D01*
X202889877Y-100021298D01*
X202831046Y-100163331D01*
X202831043Y-100163340D01*
X202801052Y-100314119D01*
X202801052Y-100467874D01*
X202831043Y-100618653D01*
X202831046Y-100618662D01*
X202889878Y-100760698D01*
X202889879Y-100760700D01*
X202975297Y-100888536D01*
X202975300Y-100888540D01*
X203084008Y-100997248D01*
X203084012Y-100997251D01*
X203211846Y-101082668D01*
X203211847Y-101082668D01*
X203211848Y-101082669D01*
X203211850Y-101082670D01*
X203262045Y-101103461D01*
X203353888Y-101141503D01*
X203353890Y-101141503D01*
X203353895Y-101141505D01*
X203504674Y-101171496D01*
X203504678Y-101171497D01*
X203504679Y-101171497D01*
X203658426Y-101171497D01*
X203658427Y-101171496D01*
X203708688Y-101161499D01*
X203809208Y-101141505D01*
X203809211Y-101141503D01*
X203809216Y-101141503D01*
X203951258Y-101082668D01*
X204079092Y-100997251D01*
X204187806Y-100888537D01*
X204273223Y-100760703D01*
X204332058Y-100618661D01*
X204334732Y-100605221D01*
X204362051Y-100467874D01*
X204362052Y-100467871D01*
X204362052Y-100314123D01*
X204362051Y-100314119D01*
X204332060Y-100163340D01*
X204332057Y-100163331D01*
X204319592Y-100133237D01*
X204278425Y-100033852D01*
X204270957Y-99964384D01*
X204278424Y-99938954D01*
X204296966Y-99894192D01*
X204325038Y-99753061D01*
X204325038Y-99609165D01*
X204322593Y-99596874D01*
X204321284Y-99590295D01*
X207512299Y-99590295D01*
X207512299Y-99734200D01*
X207540369Y-99875319D01*
X207540372Y-99875329D01*
X207595436Y-100008267D01*
X207595441Y-100008276D01*
X207675381Y-100127914D01*
X207675384Y-100127918D01*
X207777128Y-100229662D01*
X207777136Y-100229668D01*
X207866893Y-100289642D01*
X207911699Y-100343254D01*
X207920406Y-100412579D01*
X207890252Y-100475606D01*
X207885685Y-100480424D01*
X207851788Y-100514321D01*
X207851784Y-100514326D01*
X207764183Y-100645429D01*
X207764176Y-100645442D01*
X207703838Y-100791113D01*
X207703835Y-100791125D01*
X207673074Y-100945768D01*
X207673074Y-101103461D01*
X207703835Y-101258104D01*
X207703838Y-101258116D01*
X207764176Y-101403787D01*
X207764183Y-101403800D01*
X207851784Y-101534903D01*
X207851787Y-101534907D01*
X207963281Y-101646401D01*
X207963285Y-101646404D01*
X208094388Y-101734005D01*
X208094401Y-101734012D01*
X208207934Y-101781038D01*
X208240077Y-101794352D01*
X208394727Y-101825114D01*
X208394730Y-101825115D01*
X208394732Y-101825115D01*
X208552418Y-101825115D01*
X208552419Y-101825114D01*
X208707071Y-101794352D01*
X208852753Y-101734009D01*
X208983863Y-101646404D01*
X208983866Y-101646401D01*
X209022369Y-101607899D01*
X209095360Y-101534907D01*
X209095363Y-101534904D01*
X209182968Y-101403794D01*
X209186807Y-101394527D01*
X209211177Y-101335691D01*
X209243311Y-101258112D01*
X209274074Y-101103457D01*
X209274074Y-100945773D01*
X209274074Y-100945770D01*
X209274073Y-100945768D01*
X209266336Y-100906873D01*
X209243311Y-100791118D01*
X209227575Y-100753127D01*
X209182971Y-100645442D01*
X209182964Y-100645429D01*
X209095363Y-100514326D01*
X209095360Y-100514322D01*
X208983866Y-100402828D01*
X208983862Y-100402825D01*
X208852753Y-100315220D01*
X208849587Y-100313528D01*
X208848240Y-100312205D01*
X208847688Y-100311836D01*
X208847758Y-100311731D01*
X208799745Y-100264563D01*
X208784287Y-100196425D01*
X208807217Y-100133237D01*
X208806832Y-100132980D01*
X208807881Y-100131410D01*
X208808122Y-100130746D01*
X208809570Y-100128882D01*
X208890156Y-100008276D01*
X208890156Y-100008275D01*
X208890160Y-100008270D01*
X208945227Y-99875327D01*
X208973299Y-99734196D01*
X208973299Y-99590300D01*
X208973229Y-99589949D01*
X208966587Y-99556553D01*
X208962986Y-99538449D01*
X210925055Y-99538449D01*
X210925055Y-99682354D01*
X210953125Y-99823473D01*
X210953128Y-99823483D01*
X211008192Y-99956421D01*
X211008197Y-99956430D01*
X211088137Y-100076068D01*
X211088140Y-100076072D01*
X211189884Y-100177816D01*
X211189888Y-100177819D01*
X211309526Y-100257759D01*
X211309535Y-100257764D01*
X211334088Y-100267934D01*
X211442476Y-100312830D01*
X211583602Y-100340901D01*
X211583606Y-100340902D01*
X211583607Y-100340902D01*
X211727504Y-100340902D01*
X211727505Y-100340901D01*
X211868634Y-100312830D01*
X211997012Y-100259653D01*
X212066479Y-100252185D01*
X212091913Y-100259653D01*
X212220293Y-100312830D01*
X212361419Y-100340901D01*
X212361423Y-100340902D01*
X212361424Y-100340902D01*
X212505321Y-100340902D01*
X212505322Y-100340901D01*
X212646451Y-100312830D01*
X212779394Y-100257763D01*
X212899039Y-100177819D01*
X213000789Y-100076069D01*
X213080733Y-99956424D01*
X213135800Y-99823481D01*
X213163872Y-99682350D01*
X213163872Y-99538454D01*
X213135800Y-99397323D01*
X213080733Y-99264380D01*
X213080732Y-99264379D01*
X213080729Y-99264373D01*
X213000789Y-99144735D01*
X213000786Y-99144731D01*
X212899042Y-99042987D01*
X212899038Y-99042984D01*
X212779400Y-98963044D01*
X212779391Y-98963039D01*
X212671006Y-98918145D01*
X212646451Y-98907974D01*
X212646447Y-98907973D01*
X212646443Y-98907972D01*
X212505324Y-98879902D01*
X212505320Y-98879902D01*
X212361424Y-98879902D01*
X212361419Y-98879902D01*
X212220300Y-98907972D01*
X212220286Y-98907976D01*
X212091915Y-98961149D01*
X212022446Y-98968618D01*
X211997010Y-98961149D01*
X211915363Y-98927330D01*
X211868634Y-98907974D01*
X211868630Y-98907973D01*
X211868626Y-98907972D01*
X211727507Y-98879902D01*
X211727503Y-98879902D01*
X211583607Y-98879902D01*
X211583602Y-98879902D01*
X211442483Y-98907972D01*
X211442473Y-98907975D01*
X211309535Y-98963039D01*
X211309526Y-98963044D01*
X211189888Y-99042984D01*
X211189884Y-99042987D01*
X211088140Y-99144731D01*
X211088137Y-99144735D01*
X211008197Y-99264373D01*
X211008192Y-99264382D01*
X210953128Y-99397320D01*
X210953125Y-99397330D01*
X210925055Y-99538449D01*
X208962986Y-99538449D01*
X208945228Y-99449176D01*
X208945227Y-99449169D01*
X208890160Y-99316226D01*
X208890159Y-99316225D01*
X208890156Y-99316219D01*
X208810216Y-99196581D01*
X208810213Y-99196577D01*
X208708468Y-99094832D01*
X208704217Y-99091992D01*
X208659411Y-99038380D01*
X208650704Y-98969055D01*
X208680858Y-98906027D01*
X208740301Y-98869307D01*
X208773107Y-98864889D01*
X208889284Y-98864889D01*
X208889285Y-98864888D01*
X209030414Y-98836817D01*
X209163357Y-98781750D01*
X209283002Y-98701806D01*
X209384752Y-98600056D01*
X209464696Y-98480411D01*
X209519763Y-98347468D01*
X209547835Y-98206337D01*
X209547835Y-98062441D01*
X209519763Y-97921310D01*
X209464696Y-97788367D01*
X209464695Y-97788366D01*
X209464692Y-97788360D01*
X209400351Y-97692067D01*
X209400350Y-97692066D01*
X209384749Y-97668718D01*
X209345292Y-97629261D01*
X211773583Y-97629261D01*
X211773583Y-97773166D01*
X211794515Y-97878398D01*
X211801655Y-97914293D01*
X211811826Y-97938848D01*
X211856720Y-98047233D01*
X211856725Y-98047242D01*
X211936665Y-98166880D01*
X211936668Y-98166884D01*
X212038412Y-98268628D01*
X212038416Y-98268631D01*
X212158054Y-98348571D01*
X212158060Y-98348574D01*
X212158061Y-98348575D01*
X212291004Y-98403642D01*
X212432130Y-98431713D01*
X212432134Y-98431714D01*
X212432135Y-98431714D01*
X212576032Y-98431714D01*
X212576033Y-98431713D01*
X212717162Y-98403642D01*
X212850105Y-98348575D01*
X212969750Y-98268631D01*
X213071500Y-98166881D01*
X213151444Y-98047236D01*
X213206511Y-97914293D01*
X213234583Y-97773162D01*
X213234583Y-97629266D01*
X213206511Y-97488135D01*
X213151444Y-97355192D01*
X213151443Y-97355191D01*
X213151440Y-97355185D01*
X213071500Y-97235547D01*
X213071497Y-97235543D01*
X212969753Y-97133799D01*
X212969749Y-97133796D01*
X212850111Y-97053856D01*
X212850102Y-97053851D01*
X212717164Y-96998787D01*
X212717165Y-96998787D01*
X212717162Y-96998786D01*
X212717158Y-96998785D01*
X212717154Y-96998784D01*
X212576035Y-96970714D01*
X212576031Y-96970714D01*
X212432135Y-96970714D01*
X212432130Y-96970714D01*
X212291011Y-96998784D01*
X212291001Y-96998787D01*
X212158063Y-97053851D01*
X212158054Y-97053856D01*
X212038416Y-97133796D01*
X212038412Y-97133799D01*
X211936668Y-97235543D01*
X211936665Y-97235547D01*
X211856725Y-97355185D01*
X211856720Y-97355194D01*
X211801656Y-97488132D01*
X211801653Y-97488142D01*
X211773583Y-97629261D01*
X209345292Y-97629261D01*
X209283005Y-97566974D01*
X209283001Y-97566971D01*
X209163363Y-97487031D01*
X209163354Y-97487026D01*
X209030416Y-97431962D01*
X209030417Y-97431962D01*
X209030414Y-97431961D01*
X209030410Y-97431960D01*
X209030406Y-97431959D01*
X208889287Y-97403889D01*
X208889283Y-97403889D01*
X208745387Y-97403889D01*
X208745382Y-97403889D01*
X208604263Y-97431959D01*
X208604253Y-97431962D01*
X208471315Y-97487026D01*
X208471306Y-97487031D01*
X208351668Y-97566971D01*
X208351664Y-97566974D01*
X208249920Y-97668718D01*
X208249917Y-97668722D01*
X208169977Y-97788360D01*
X208169972Y-97788369D01*
X208114908Y-97921307D01*
X208114905Y-97921317D01*
X208086835Y-98062436D01*
X208086835Y-98206341D01*
X208114905Y-98347460D01*
X208114908Y-98347470D01*
X208169972Y-98480408D01*
X208169977Y-98480417D01*
X208249917Y-98600055D01*
X208249920Y-98600059D01*
X208351665Y-98701804D01*
X208355917Y-98704645D01*
X208400723Y-98758257D01*
X208409430Y-98827582D01*
X208379276Y-98890610D01*
X208319833Y-98927330D01*
X208287027Y-98931748D01*
X208170846Y-98931748D01*
X208029727Y-98959818D01*
X208029717Y-98959821D01*
X207896779Y-99014885D01*
X207896770Y-99014890D01*
X207777132Y-99094830D01*
X207777128Y-99094833D01*
X207675384Y-99196577D01*
X207675381Y-99196581D01*
X207595441Y-99316219D01*
X207595436Y-99316228D01*
X207540372Y-99449166D01*
X207540369Y-99449176D01*
X207512299Y-99590295D01*
X204321284Y-99590295D01*
X204296967Y-99468041D01*
X204296966Y-99468034D01*
X204241899Y-99335091D01*
X204241893Y-99335082D01*
X204241468Y-99334286D01*
X204241369Y-99333811D01*
X204239568Y-99329463D01*
X204240391Y-99329121D01*
X204227215Y-99265886D01*
X204236253Y-99228370D01*
X204268580Y-99150329D01*
X204296652Y-99009198D01*
X204296652Y-98865302D01*
X204268580Y-98724171D01*
X204213513Y-98591228D01*
X204213512Y-98591227D01*
X204213509Y-98591221D01*
X204133569Y-98471583D01*
X204133566Y-98471579D01*
X204031822Y-98369835D01*
X204031818Y-98369832D01*
X203957814Y-98320384D01*
X203913009Y-98266772D01*
X203904302Y-98197447D01*
X203934456Y-98134419D01*
X203957818Y-98114178D01*
X203979344Y-98099795D01*
X203979343Y-98099795D01*
X203979347Y-98099793D01*
X204081097Y-97998043D01*
X204161041Y-97878398D01*
X204216108Y-97745455D01*
X204244180Y-97604324D01*
X204244180Y-97460428D01*
X204216108Y-97319297D01*
X204177610Y-97226357D01*
X204170142Y-97156889D01*
X204186641Y-97116037D01*
X204185995Y-97115692D01*
X204188861Y-97110326D01*
X204188867Y-97110319D01*
X204243934Y-96977376D01*
X204272006Y-96836245D01*
X204272006Y-96704692D01*
X204291691Y-96637653D01*
X204344495Y-96591898D01*
X204413653Y-96581954D01*
X204443459Y-96590131D01*
X204574857Y-96644558D01*
X204715983Y-96672629D01*
X204715987Y-96672630D01*
X204715988Y-96672630D01*
X204859885Y-96672630D01*
X204859886Y-96672629D01*
X205001015Y-96644558D01*
X205084228Y-96610089D01*
X205153696Y-96602621D01*
X205210489Y-96631049D01*
X205211439Y-96629892D01*
X205216149Y-96633757D01*
X205335787Y-96713697D01*
X205335793Y-96713700D01*
X205335794Y-96713701D01*
X205468737Y-96768768D01*
X205609863Y-96796839D01*
X205609867Y-96796840D01*
X205609868Y-96796840D01*
X205753765Y-96796840D01*
X205753766Y-96796839D01*
X205894895Y-96768768D01*
X206027838Y-96713701D01*
X206147483Y-96633757D01*
X206249233Y-96532007D01*
X206329177Y-96412362D01*
X206384244Y-96279419D01*
X206412316Y-96138288D01*
X206412316Y-95994392D01*
X206384244Y-95853261D01*
X206329177Y-95720318D01*
X206329176Y-95720317D01*
X206329173Y-95720311D01*
X206249233Y-95600673D01*
X206249230Y-95600669D01*
X206147486Y-95498925D01*
X206147482Y-95498922D01*
X206027844Y-95418982D01*
X206027835Y-95418977D01*
X205894897Y-95363913D01*
X205894898Y-95363913D01*
X205894895Y-95363912D01*
X205894891Y-95363911D01*
X205894887Y-95363910D01*
X205753768Y-95335840D01*
X205753764Y-95335840D01*
X205609868Y-95335840D01*
X205609863Y-95335840D01*
X205468744Y-95363910D01*
X205468739Y-95363911D01*
X205468737Y-95363912D01*
X205468735Y-95363913D01*
X205385522Y-95398380D01*
X205316053Y-95405848D01*
X205259263Y-95377419D01*
X205258313Y-95378578D01*
X205253602Y-95374712D01*
X205133964Y-95294772D01*
X205133955Y-95294767D01*
X205015708Y-95245788D01*
X205001015Y-95239702D01*
X205001011Y-95239701D01*
X205001007Y-95239700D01*
X204859888Y-95211630D01*
X204859884Y-95211630D01*
X204715988Y-95211630D01*
X204715983Y-95211630D01*
X204574864Y-95239700D01*
X204574854Y-95239703D01*
X204441916Y-95294767D01*
X204441907Y-95294772D01*
X204322269Y-95374712D01*
X204322265Y-95374715D01*
X204220521Y-95476459D01*
X204220518Y-95476463D01*
X204140578Y-95596101D01*
X204140573Y-95596110D01*
X204085509Y-95729048D01*
X204085506Y-95729058D01*
X204057436Y-95870177D01*
X204057436Y-96001734D01*
X204037751Y-96068773D01*
X203984947Y-96114528D01*
X203915789Y-96124472D01*
X203885984Y-96116295D01*
X203754591Y-96061871D01*
X203754587Y-96061869D01*
X203754585Y-96061869D01*
X203754581Y-96061868D01*
X203754577Y-96061867D01*
X203613458Y-96033797D01*
X203613454Y-96033797D01*
X203469558Y-96033797D01*
X203469553Y-96033797D01*
X203328434Y-96061867D01*
X203328424Y-96061870D01*
X203195486Y-96116934D01*
X203195477Y-96116939D01*
X203075839Y-96196879D01*
X203075835Y-96196882D01*
X202974091Y-96298626D01*
X202974088Y-96298630D01*
X202894148Y-96418268D01*
X202894143Y-96418277D01*
X202839079Y-96551215D01*
X202839076Y-96551225D01*
X202811006Y-96692344D01*
X202811006Y-96836249D01*
X202839076Y-96977368D01*
X202839080Y-96977382D01*
X202877574Y-97070315D01*
X202885043Y-97139784D01*
X202868547Y-97180641D01*
X202869189Y-97180984D01*
X202866319Y-97186351D01*
X202811253Y-97319294D01*
X202811250Y-97319304D01*
X202783180Y-97460423D01*
X164200500Y-97460423D01*
X164200500Y-93593122D01*
X198239500Y-93593122D01*
X198239500Y-93746877D01*
X198269491Y-93897656D01*
X198269494Y-93897665D01*
X198328326Y-94039701D01*
X198328327Y-94039703D01*
X198413745Y-94167539D01*
X198413748Y-94167543D01*
X198522456Y-94276251D01*
X198522460Y-94276254D01*
X198650294Y-94361671D01*
X198650295Y-94361671D01*
X198650296Y-94361672D01*
X198650298Y-94361673D01*
X198708535Y-94385795D01*
X198792336Y-94420506D01*
X198792338Y-94420506D01*
X198792343Y-94420508D01*
X198943122Y-94450499D01*
X198943126Y-94450500D01*
X198943127Y-94450500D01*
X199096874Y-94450500D01*
X199096875Y-94450499D01*
X199147136Y-94440502D01*
X199247656Y-94420508D01*
X199247659Y-94420506D01*
X199247664Y-94420506D01*
X199389706Y-94361671D01*
X199517540Y-94276254D01*
X199626254Y-94167540D01*
X199711671Y-94039706D01*
X199730966Y-93993122D01*
X204949500Y-93993122D01*
X204949500Y-94146877D01*
X204979491Y-94297656D01*
X204979494Y-94297665D01*
X205038326Y-94439701D01*
X205038327Y-94439703D01*
X205123745Y-94567539D01*
X205123748Y-94567543D01*
X205232456Y-94676251D01*
X205232460Y-94676254D01*
X205360294Y-94761671D01*
X205360295Y-94761671D01*
X205360296Y-94761672D01*
X205360298Y-94761673D01*
X205434607Y-94792452D01*
X205502336Y-94820506D01*
X205502338Y-94820506D01*
X205502343Y-94820508D01*
X205653122Y-94850499D01*
X205653126Y-94850500D01*
X205653127Y-94850500D01*
X205806874Y-94850500D01*
X205806875Y-94850499D01*
X205857136Y-94840502D01*
X205957656Y-94820508D01*
X205957659Y-94820506D01*
X205957664Y-94820506D01*
X206099706Y-94761671D01*
X206227540Y-94676254D01*
X206336254Y-94567540D01*
X206421671Y-94439706D01*
X206480506Y-94297664D01*
X206489026Y-94254829D01*
X208966298Y-94254829D01*
X208966298Y-94398734D01*
X208994368Y-94539853D01*
X208994371Y-94539863D01*
X209049435Y-94672801D01*
X209049440Y-94672810D01*
X209129380Y-94792448D01*
X209129383Y-94792452D01*
X209231127Y-94894196D01*
X209231131Y-94894199D01*
X209350769Y-94974139D01*
X209350775Y-94974142D01*
X209350776Y-94974143D01*
X209483719Y-95029210D01*
X209556487Y-95043684D01*
X209624845Y-95057281D01*
X209624849Y-95057282D01*
X209624850Y-95057282D01*
X209768747Y-95057282D01*
X209768748Y-95057281D01*
X209909877Y-95029210D01*
X210042820Y-94974143D01*
X210092054Y-94941246D01*
X213637624Y-94941246D01*
X213637624Y-95095001D01*
X213667615Y-95245780D01*
X213667618Y-95245789D01*
X213726450Y-95387825D01*
X213726451Y-95387827D01*
X213811869Y-95515663D01*
X213811872Y-95515667D01*
X213920580Y-95624375D01*
X213920584Y-95624378D01*
X214048418Y-95709795D01*
X214048419Y-95709795D01*
X214048420Y-95709796D01*
X214048422Y-95709797D01*
X214143112Y-95749018D01*
X214190460Y-95768630D01*
X214190462Y-95768630D01*
X214190467Y-95768632D01*
X214341246Y-95798623D01*
X214341250Y-95798624D01*
X214341251Y-95798624D01*
X214494998Y-95798624D01*
X214494999Y-95798623D01*
X214501986Y-95797233D01*
X214518432Y-95793963D01*
X214645780Y-95768632D01*
X214645783Y-95768630D01*
X214645788Y-95768630D01*
X214787830Y-95709795D01*
X214915664Y-95624378D01*
X215024378Y-95515664D01*
X215109795Y-95387830D01*
X215168630Y-95245788D01*
X215169841Y-95239703D01*
X215198623Y-95095001D01*
X215198624Y-95094998D01*
X215198624Y-94941250D01*
X215198623Y-94941247D01*
X215172689Y-94810865D01*
X215172688Y-94810863D01*
X215168630Y-94790460D01*
X215121324Y-94676251D01*
X215109797Y-94648422D01*
X215109796Y-94648420D01*
X215024378Y-94520584D01*
X215024375Y-94520580D01*
X214915667Y-94411872D01*
X214915663Y-94411869D01*
X214787827Y-94326451D01*
X214787825Y-94326450D01*
X214772253Y-94320000D01*
X216330138Y-94320000D01*
X217133012Y-94320000D01*
X217115795Y-94329940D01*
X217059940Y-94385795D01*
X217020444Y-94454204D01*
X217000000Y-94530504D01*
X217000000Y-94609496D01*
X217020444Y-94685796D01*
X217059940Y-94754205D01*
X217115795Y-94810060D01*
X217133012Y-94820000D01*
X216330138Y-94820000D01*
X216338430Y-94861690D01*
X216338430Y-94861692D01*
X216413807Y-95043671D01*
X216413814Y-95043684D01*
X216523248Y-95207462D01*
X216523251Y-95207466D01*
X216662533Y-95346748D01*
X216662537Y-95346751D01*
X216826315Y-95456185D01*
X216826328Y-95456192D01*
X217008306Y-95531569D01*
X217008318Y-95531572D01*
X217201504Y-95569999D01*
X217201508Y-95570000D01*
X217600000Y-95570000D01*
X217600000Y-94870000D01*
X218100000Y-94870000D01*
X218100000Y-95420918D01*
X218080315Y-95487957D01*
X218038002Y-95528304D01*
X218024182Y-95536283D01*
X218024176Y-95536287D01*
X217916287Y-95644176D01*
X217916282Y-95644182D01*
X217839993Y-95776318D01*
X217839992Y-95776322D01*
X217800500Y-95923707D01*
X217800500Y-96076293D01*
X217832812Y-96196882D01*
X217839993Y-96223681D01*
X217916282Y-96355817D01*
X217916284Y-96355819D01*
X217916285Y-96355821D01*
X218024179Y-96463715D01*
X218024180Y-96463716D01*
X218024182Y-96463717D01*
X218156318Y-96540006D01*
X218156319Y-96540006D01*
X218156322Y-96540008D01*
X218303707Y-96579500D01*
X218303710Y-96579500D01*
X218456290Y-96579500D01*
X218456293Y-96579500D01*
X218603678Y-96540008D01*
X218735821Y-96463715D01*
X218843715Y-96355821D01*
X218920008Y-96223678D01*
X218959500Y-96076293D01*
X218959500Y-95923707D01*
X218920008Y-95776322D01*
X218915566Y-95768629D01*
X218843716Y-95644181D01*
X218843715Y-95644179D01*
X218843712Y-95644176D01*
X218839108Y-95638176D01*
X218813912Y-95573007D01*
X218827949Y-95504562D01*
X218869939Y-95461558D01*
X218868613Y-95459574D01*
X219037462Y-95346751D01*
X219037466Y-95346748D01*
X219176748Y-95207466D01*
X219176751Y-95207462D01*
X219286185Y-95043684D01*
X219286192Y-95043671D01*
X219361569Y-94861692D01*
X219361569Y-94861690D01*
X219369862Y-94820000D01*
X218566988Y-94820000D01*
X218584205Y-94810060D01*
X218640060Y-94754205D01*
X218679556Y-94685796D01*
X218700000Y-94609496D01*
X218700000Y-94530504D01*
X218679556Y-94454204D01*
X218640060Y-94385795D01*
X218584205Y-94329940D01*
X218566988Y-94320000D01*
X219369862Y-94320000D01*
X220760138Y-94320000D01*
X221563012Y-94320000D01*
X221545795Y-94329940D01*
X221489940Y-94385795D01*
X221450444Y-94454204D01*
X221430000Y-94530504D01*
X221430000Y-94609496D01*
X221450444Y-94685796D01*
X221489940Y-94754205D01*
X221545795Y-94810060D01*
X221563012Y-94820000D01*
X220760138Y-94820000D01*
X220768430Y-94861690D01*
X220768430Y-94861692D01*
X220843807Y-95043671D01*
X220843814Y-95043684D01*
X220953248Y-95207462D01*
X220953251Y-95207466D01*
X221092533Y-95346748D01*
X221092537Y-95346751D01*
X221256315Y-95456185D01*
X221256328Y-95456192D01*
X221438306Y-95531569D01*
X221438318Y-95531572D01*
X221631504Y-95569999D01*
X221631508Y-95570000D01*
X221780000Y-95570000D01*
X221780000Y-94870000D01*
X222280000Y-94870000D01*
X222280000Y-95570000D01*
X222428492Y-95570000D01*
X222428495Y-95569999D01*
X222621681Y-95531572D01*
X222621693Y-95531569D01*
X222803671Y-95456192D01*
X222803684Y-95456185D01*
X222967462Y-95346751D01*
X222967466Y-95346748D01*
X223106748Y-95207466D01*
X223106751Y-95207462D01*
X223216185Y-95043684D01*
X223216192Y-95043671D01*
X223291569Y-94861692D01*
X223291569Y-94861690D01*
X223299862Y-94820000D01*
X222496988Y-94820000D01*
X222514205Y-94810060D01*
X222570060Y-94754205D01*
X222609556Y-94685796D01*
X222630000Y-94609496D01*
X222630000Y-94530504D01*
X222609556Y-94454204D01*
X222570060Y-94385795D01*
X222514205Y-94329940D01*
X222496988Y-94320000D01*
X223299862Y-94320000D01*
X223291569Y-94278309D01*
X223291569Y-94278307D01*
X223216192Y-94096328D01*
X223216185Y-94096315D01*
X223106751Y-93932537D01*
X223106748Y-93932533D01*
X222967466Y-93793251D01*
X222967462Y-93793248D01*
X222803684Y-93683814D01*
X222803671Y-93683807D01*
X222621693Y-93608430D01*
X222621681Y-93608427D01*
X222428495Y-93570000D01*
X222280000Y-93570000D01*
X222280000Y-94270000D01*
X221780000Y-94270000D01*
X221780000Y-93570000D01*
X221631504Y-93570000D01*
X221438318Y-93608427D01*
X221438306Y-93608430D01*
X221256328Y-93683807D01*
X221256315Y-93683814D01*
X221092537Y-93793248D01*
X221092533Y-93793251D01*
X220953251Y-93932533D01*
X220953248Y-93932537D01*
X220843814Y-94096315D01*
X220843807Y-94096328D01*
X220768430Y-94278307D01*
X220768430Y-94278309D01*
X220760138Y-94320000D01*
X219369862Y-94320000D01*
X219361569Y-94278309D01*
X219361569Y-94278307D01*
X219286192Y-94096328D01*
X219286185Y-94096315D01*
X219176751Y-93932537D01*
X219176748Y-93932533D01*
X219037466Y-93793251D01*
X219037462Y-93793248D01*
X218873684Y-93683814D01*
X218873671Y-93683807D01*
X218691693Y-93608430D01*
X218691681Y-93608427D01*
X218498495Y-93570000D01*
X218100000Y-93570000D01*
X218100000Y-94270000D01*
X217600000Y-94270000D01*
X217600000Y-93570000D01*
X217201504Y-93570000D01*
X217008318Y-93608427D01*
X217008306Y-93608430D01*
X216826328Y-93683807D01*
X216826315Y-93683814D01*
X216662537Y-93793248D01*
X216662533Y-93793251D01*
X216523251Y-93932533D01*
X216523248Y-93932537D01*
X216413814Y-94096315D01*
X216413807Y-94096328D01*
X216338430Y-94278307D01*
X216338430Y-94278309D01*
X216330138Y-94320000D01*
X214772253Y-94320000D01*
X214645789Y-94267618D01*
X214645780Y-94267615D01*
X214495001Y-94237624D01*
X214494997Y-94237624D01*
X214341251Y-94237624D01*
X214341246Y-94237624D01*
X214190467Y-94267615D01*
X214190458Y-94267618D01*
X214048422Y-94326450D01*
X214048420Y-94326451D01*
X213920584Y-94411869D01*
X213920580Y-94411872D01*
X213811872Y-94520580D01*
X213811869Y-94520584D01*
X213726451Y-94648420D01*
X213726450Y-94648422D01*
X213667618Y-94790458D01*
X213667615Y-94790467D01*
X213637624Y-94941246D01*
X210092054Y-94941246D01*
X210162465Y-94894199D01*
X210162468Y-94894196D01*
X210209187Y-94847478D01*
X210264212Y-94792452D01*
X210264215Y-94792449D01*
X210344159Y-94672804D01*
X210399226Y-94539861D01*
X210427298Y-94398730D01*
X210427298Y-94254834D01*
X210399226Y-94113703D01*
X210344159Y-93980760D01*
X210344158Y-93980759D01*
X210344155Y-93980753D01*
X210264215Y-93861115D01*
X210264212Y-93861111D01*
X210162468Y-93759367D01*
X210162464Y-93759364D01*
X210042826Y-93679424D01*
X210042817Y-93679419D01*
X209917868Y-93627664D01*
X209909877Y-93624354D01*
X209909873Y-93624353D01*
X209909869Y-93624352D01*
X209768750Y-93596282D01*
X209768746Y-93596282D01*
X209624850Y-93596282D01*
X209624845Y-93596282D01*
X209483726Y-93624352D01*
X209483716Y-93624355D01*
X209350778Y-93679419D01*
X209350769Y-93679424D01*
X209231131Y-93759364D01*
X209231127Y-93759367D01*
X209129383Y-93861111D01*
X209129380Y-93861115D01*
X209049440Y-93980753D01*
X209049435Y-93980762D01*
X208994371Y-94113700D01*
X208994368Y-94113710D01*
X208966298Y-94254829D01*
X206489026Y-94254829D01*
X206510500Y-94146873D01*
X206510500Y-93993127D01*
X206510232Y-93991782D01*
X206480508Y-93842343D01*
X206480505Y-93842334D01*
X206421673Y-93700298D01*
X206421672Y-93700296D01*
X206410654Y-93683807D01*
X206336254Y-93572460D01*
X206336251Y-93572456D01*
X206227543Y-93463748D01*
X206227539Y-93463745D01*
X206162275Y-93420137D01*
X206158393Y-93417543D01*
X206099706Y-93378329D01*
X206099703Y-93378327D01*
X206099702Y-93378327D01*
X206099701Y-93378326D01*
X205966424Y-93323122D01*
X211219500Y-93323122D01*
X211219500Y-93476877D01*
X211249491Y-93627656D01*
X211249494Y-93627665D01*
X211308326Y-93769701D01*
X211308327Y-93769703D01*
X211393745Y-93897539D01*
X211393748Y-93897543D01*
X211502456Y-94006251D01*
X211502460Y-94006254D01*
X211630294Y-94091671D01*
X211630295Y-94091671D01*
X211630296Y-94091672D01*
X211630298Y-94091673D01*
X211724988Y-94130894D01*
X211772336Y-94150506D01*
X211772338Y-94150506D01*
X211772343Y-94150508D01*
X211923122Y-94180499D01*
X211923126Y-94180500D01*
X211923127Y-94180500D01*
X212076874Y-94180500D01*
X212076875Y-94180499D01*
X212142033Y-94167539D01*
X212227656Y-94150508D01*
X212227659Y-94150506D01*
X212227664Y-94150506D01*
X212369706Y-94091671D01*
X212497540Y-94006254D01*
X212606254Y-93897540D01*
X212691671Y-93769706D01*
X212750506Y-93627664D01*
X212751165Y-93624355D01*
X212780499Y-93476877D01*
X212780500Y-93476874D01*
X212780500Y-93459271D01*
X212800185Y-93392232D01*
X212852989Y-93346477D01*
X212922147Y-93336533D01*
X212928686Y-93337653D01*
X213009831Y-93353793D01*
X213009832Y-93353794D01*
X213009833Y-93353794D01*
X213163580Y-93353794D01*
X213163581Y-93353793D01*
X213244721Y-93337654D01*
X213314362Y-93323802D01*
X213314365Y-93323800D01*
X213314370Y-93323800D01*
X213456412Y-93264965D01*
X213584246Y-93179548D01*
X213692960Y-93070834D01*
X213778377Y-92943000D01*
X213837212Y-92800958D01*
X213838139Y-92796301D01*
X213858818Y-92692336D01*
X213867206Y-92650167D01*
X213867206Y-92496421D01*
X213860389Y-92462148D01*
X213837214Y-92345637D01*
X213837211Y-92345628D01*
X213787690Y-92226071D01*
X213787682Y-92226053D01*
X213778377Y-92203588D01*
X213765730Y-92184660D01*
X214821037Y-92184660D01*
X214821037Y-92338415D01*
X214851028Y-92489194D01*
X214851031Y-92489203D01*
X214909863Y-92631239D01*
X214909864Y-92631241D01*
X214995282Y-92759077D01*
X214995285Y-92759081D01*
X215103993Y-92867789D01*
X215103997Y-92867792D01*
X215231831Y-92953209D01*
X215231832Y-92953209D01*
X215231833Y-92953210D01*
X215231835Y-92953211D01*
X215326525Y-92992432D01*
X215373873Y-93012044D01*
X215373875Y-93012044D01*
X215373880Y-93012046D01*
X215524659Y-93042037D01*
X215524663Y-93042038D01*
X215524664Y-93042038D01*
X215678411Y-93042038D01*
X215678412Y-93042037D01*
X215728673Y-93032040D01*
X215829193Y-93012046D01*
X215829196Y-93012044D01*
X215829201Y-93012044D01*
X215971243Y-92953209D01*
X216099077Y-92867792D01*
X216170569Y-92796299D01*
X216231890Y-92762816D01*
X216301582Y-92767800D01*
X216357516Y-92809671D01*
X216361338Y-92815073D01*
X216366302Y-92822501D01*
X216421869Y-92905664D01*
X216530580Y-93014375D01*
X216530584Y-93014378D01*
X216658418Y-93099795D01*
X216658419Y-93099795D01*
X216658420Y-93099796D01*
X216658422Y-93099797D01*
X216753112Y-93139018D01*
X216800460Y-93158630D01*
X216800462Y-93158630D01*
X216800467Y-93158632D01*
X216951246Y-93188623D01*
X216951250Y-93188624D01*
X216951251Y-93188624D01*
X217104998Y-93188624D01*
X217104999Y-93188623D01*
X217155260Y-93178626D01*
X217255780Y-93158632D01*
X217255783Y-93158630D01*
X217255788Y-93158630D01*
X217397830Y-93099795D01*
X217525664Y-93014378D01*
X217634378Y-92905664D01*
X217719795Y-92777830D01*
X217778630Y-92635788D01*
X217778660Y-92635640D01*
X217802851Y-92514022D01*
X217808624Y-92484997D01*
X217808624Y-92331251D01*
X217808356Y-92329906D01*
X217778632Y-92180467D01*
X217778629Y-92180458D01*
X217719797Y-92038422D01*
X217719796Y-92038420D01*
X217716758Y-92033874D01*
X217634378Y-91910584D01*
X217634375Y-91910580D01*
X217525667Y-91801872D01*
X217525663Y-91801869D01*
X217397827Y-91716451D01*
X217397825Y-91716450D01*
X217255789Y-91657618D01*
X217255780Y-91657615D01*
X217105001Y-91627624D01*
X217104997Y-91627624D01*
X216951251Y-91627624D01*
X216951246Y-91627624D01*
X216880538Y-91641689D01*
X216810946Y-91635462D01*
X216755769Y-91592599D01*
X216732525Y-91526709D01*
X216734730Y-91495879D01*
X216740500Y-91466873D01*
X216740500Y-91313126D01*
X216740499Y-91313122D01*
X216710508Y-91162343D01*
X216710505Y-91162334D01*
X216651673Y-91020298D01*
X216651672Y-91020296D01*
X216644991Y-91010298D01*
X216566254Y-90892460D01*
X216566251Y-90892456D01*
X216457543Y-90783748D01*
X216457539Y-90783745D01*
X216329703Y-90698327D01*
X216329701Y-90698326D01*
X216187665Y-90639494D01*
X216187656Y-90639491D01*
X216036877Y-90609500D01*
X216036873Y-90609500D01*
X215883127Y-90609500D01*
X215883122Y-90609500D01*
X215732343Y-90639491D01*
X215732334Y-90639494D01*
X215590298Y-90698326D01*
X215590296Y-90698327D01*
X215462460Y-90783745D01*
X215462456Y-90783748D01*
X215353748Y-90892456D01*
X215353745Y-90892460D01*
X215268327Y-91020296D01*
X215268326Y-91020298D01*
X215209494Y-91162334D01*
X215209491Y-91162343D01*
X215179500Y-91313122D01*
X215179500Y-91466877D01*
X215187558Y-91507387D01*
X215181331Y-91576979D01*
X215138467Y-91632156D01*
X215134833Y-91634679D01*
X215104002Y-91655280D01*
X215104000Y-91655281D01*
X214995283Y-91763998D01*
X214909864Y-91891834D01*
X214909863Y-91891836D01*
X214851031Y-92033872D01*
X214851028Y-92033881D01*
X214821037Y-92184660D01*
X213765730Y-92184660D01*
X213692960Y-92075754D01*
X213692957Y-92075750D01*
X213584249Y-91967042D01*
X213584245Y-91967039D01*
X213456412Y-91881623D01*
X213446562Y-91877543D01*
X213386698Y-91852747D01*
X213332298Y-91808908D01*
X213310232Y-91742614D01*
X213327511Y-91674915D01*
X213378647Y-91627304D01*
X213386685Y-91623632D01*
X213439706Y-91601671D01*
X213567540Y-91516254D01*
X213676254Y-91407540D01*
X213761671Y-91279706D01*
X213820506Y-91137664D01*
X213820787Y-91136254D01*
X213843852Y-91020294D01*
X213850500Y-90986873D01*
X213850500Y-90833127D01*
X213840678Y-90783746D01*
X213820508Y-90682343D01*
X213820505Y-90682334D01*
X213818243Y-90676874D01*
X213782215Y-90589893D01*
X213761673Y-90540298D01*
X213761672Y-90540296D01*
X213757180Y-90533574D01*
X213676254Y-90412460D01*
X213676251Y-90412456D01*
X213567543Y-90303748D01*
X213567539Y-90303745D01*
X213439703Y-90218327D01*
X213439701Y-90218326D01*
X213297665Y-90159494D01*
X213297656Y-90159491D01*
X213146877Y-90129500D01*
X213146873Y-90129500D01*
X212993127Y-90129500D01*
X212993122Y-90129500D01*
X212842343Y-90159491D01*
X212842334Y-90159494D01*
X212700298Y-90218326D01*
X212700296Y-90218327D01*
X212572460Y-90303745D01*
X212572456Y-90303748D01*
X212463748Y-90412456D01*
X212463745Y-90412460D01*
X212378327Y-90540296D01*
X212378326Y-90540298D01*
X212319494Y-90682334D01*
X212319491Y-90682343D01*
X212289500Y-90833122D01*
X212289500Y-90986877D01*
X212319491Y-91137656D01*
X212319494Y-91137665D01*
X212378326Y-91279701D01*
X212378327Y-91279703D01*
X212463745Y-91407539D01*
X212463748Y-91407543D01*
X212572456Y-91516251D01*
X212572460Y-91516254D01*
X212700294Y-91601671D01*
X212770005Y-91630546D01*
X212824407Y-91674384D01*
X212846473Y-91740678D01*
X212829195Y-91808378D01*
X212778058Y-91855989D01*
X212770005Y-91859667D01*
X212717002Y-91881621D01*
X212589166Y-91967039D01*
X212589162Y-91967042D01*
X212480454Y-92075750D01*
X212480451Y-92075754D01*
X212395033Y-92203590D01*
X212395032Y-92203592D01*
X212336200Y-92345628D01*
X212336197Y-92345637D01*
X212306206Y-92496416D01*
X212306206Y-92514022D01*
X212286521Y-92581061D01*
X212233717Y-92626816D01*
X212164559Y-92636760D01*
X212158016Y-92635640D01*
X212113528Y-92626791D01*
X212076873Y-92619500D01*
X211923127Y-92619500D01*
X211923122Y-92619500D01*
X211772343Y-92649491D01*
X211772334Y-92649494D01*
X211630298Y-92708326D01*
X211630296Y-92708327D01*
X211502460Y-92793745D01*
X211502456Y-92793748D01*
X211393748Y-92902456D01*
X211393745Y-92902460D01*
X211308327Y-93030296D01*
X211308326Y-93030298D01*
X211249494Y-93172334D01*
X211249491Y-93172343D01*
X211219500Y-93323122D01*
X205966424Y-93323122D01*
X205957665Y-93319494D01*
X205957656Y-93319491D01*
X205806877Y-93289500D01*
X205806873Y-93289500D01*
X205653127Y-93289500D01*
X205653122Y-93289500D01*
X205502343Y-93319491D01*
X205502334Y-93319494D01*
X205360298Y-93378326D01*
X205360296Y-93378327D01*
X205232460Y-93463745D01*
X205232456Y-93463748D01*
X205123748Y-93572456D01*
X205123745Y-93572460D01*
X205038327Y-93700296D01*
X205038326Y-93700298D01*
X204979494Y-93842334D01*
X204979491Y-93842343D01*
X204949500Y-93993122D01*
X199730966Y-93993122D01*
X199770506Y-93897664D01*
X199781512Y-93842336D01*
X199800499Y-93746877D01*
X199800500Y-93746874D01*
X199800500Y-93593126D01*
X199800499Y-93593122D01*
X199770508Y-93442343D01*
X199770505Y-93442334D01*
X199760236Y-93417543D01*
X199750894Y-93394988D01*
X199711673Y-93300298D01*
X199711672Y-93300296D01*
X199704458Y-93289500D01*
X199626254Y-93172460D01*
X199626251Y-93172456D01*
X199517543Y-93063748D01*
X199517539Y-93063745D01*
X199389703Y-92978327D01*
X199389701Y-92978326D01*
X199247665Y-92919494D01*
X199247656Y-92919491D01*
X199096877Y-92889500D01*
X199096873Y-92889500D01*
X198943127Y-92889500D01*
X198943122Y-92889500D01*
X198792343Y-92919491D01*
X198792334Y-92919494D01*
X198650298Y-92978326D01*
X198650296Y-92978327D01*
X198522460Y-93063745D01*
X198522456Y-93063748D01*
X198413748Y-93172456D01*
X198413745Y-93172460D01*
X198328327Y-93300296D01*
X198328326Y-93300298D01*
X198269494Y-93442334D01*
X198269491Y-93442343D01*
X198239500Y-93593122D01*
X164200500Y-93593122D01*
X164200500Y-91022110D01*
X170545000Y-91022110D01*
X170545000Y-91277889D01*
X170585013Y-91530523D01*
X170664051Y-91773781D01*
X170664052Y-91773784D01*
X170780175Y-92001686D01*
X170857850Y-92108595D01*
X170857850Y-92108596D01*
X171415884Y-91550561D01*
X171416740Y-91552626D01*
X171509762Y-91691844D01*
X171628156Y-91810238D01*
X171767374Y-91903260D01*
X171769437Y-91904114D01*
X171211402Y-92462148D01*
X171318313Y-92539824D01*
X171546215Y-92655947D01*
X171546218Y-92655948D01*
X171789476Y-92734986D01*
X172042111Y-92775000D01*
X172297889Y-92775000D01*
X172550523Y-92734986D01*
X172793781Y-92655948D01*
X172793784Y-92655947D01*
X173021685Y-92539825D01*
X173128595Y-92462148D01*
X173128596Y-92462148D01*
X172570562Y-91904114D01*
X172572626Y-91903260D01*
X172711844Y-91810238D01*
X172830238Y-91691844D01*
X172923260Y-91552626D01*
X172924114Y-91550562D01*
X173482148Y-92108596D01*
X173482148Y-92108595D01*
X173559825Y-92001685D01*
X173675947Y-91773784D01*
X173675948Y-91773781D01*
X173754986Y-91530523D01*
X173795000Y-91277889D01*
X173795000Y-91022110D01*
X175625000Y-91022110D01*
X175625000Y-91277889D01*
X175665013Y-91530523D01*
X175744051Y-91773781D01*
X175744052Y-91773784D01*
X175860175Y-92001686D01*
X175937850Y-92108595D01*
X175937850Y-92108596D01*
X176495884Y-91550561D01*
X176496740Y-91552626D01*
X176589762Y-91691844D01*
X176708156Y-91810238D01*
X176847374Y-91903260D01*
X176849437Y-91904114D01*
X176291402Y-92462148D01*
X176398313Y-92539824D01*
X176626215Y-92655947D01*
X176626218Y-92655948D01*
X176869476Y-92734986D01*
X177122111Y-92775000D01*
X177377889Y-92775000D01*
X177630523Y-92734986D01*
X177873781Y-92655948D01*
X177873784Y-92655947D01*
X178101685Y-92539825D01*
X178208595Y-92462148D01*
X178208596Y-92462148D01*
X178203964Y-92457516D01*
X178122370Y-92375922D01*
X186489500Y-92375922D01*
X186489500Y-92529677D01*
X186519491Y-92680456D01*
X186519494Y-92680465D01*
X186578326Y-92822501D01*
X186578327Y-92822503D01*
X186663745Y-92950339D01*
X186663748Y-92950343D01*
X186772456Y-93059051D01*
X186772459Y-93059053D01*
X186772460Y-93059054D01*
X186900294Y-93144471D01*
X186900295Y-93144471D01*
X186900296Y-93144472D01*
X186900298Y-93144473D01*
X186967866Y-93172460D01*
X187042336Y-93203306D01*
X187042338Y-93203306D01*
X187042343Y-93203308D01*
X187193122Y-93233299D01*
X187193126Y-93233300D01*
X187193127Y-93233300D01*
X187346874Y-93233300D01*
X187346875Y-93233299D01*
X187397136Y-93223302D01*
X187497656Y-93203308D01*
X187497659Y-93203306D01*
X187497664Y-93203306D01*
X187639706Y-93144471D01*
X187767540Y-93059054D01*
X187876254Y-92950340D01*
X187961671Y-92822506D01*
X188020506Y-92680464D01*
X188026533Y-92650167D01*
X188046398Y-92550294D01*
X188050500Y-92529673D01*
X188050500Y-92375927D01*
X188044473Y-92345628D01*
X188020508Y-92225143D01*
X188020505Y-92225134D01*
X187961673Y-92083098D01*
X187961672Y-92083096D01*
X187956766Y-92075754D01*
X187876254Y-91955260D01*
X187876253Y-91955259D01*
X187876251Y-91955256D01*
X187767543Y-91846548D01*
X187767539Y-91846545D01*
X187639703Y-91761127D01*
X187639701Y-91761126D01*
X187497665Y-91702294D01*
X187497656Y-91702291D01*
X187346877Y-91672300D01*
X187346873Y-91672300D01*
X187193127Y-91672300D01*
X187193122Y-91672300D01*
X187042343Y-91702291D01*
X187042334Y-91702294D01*
X186900298Y-91761126D01*
X186900296Y-91761127D01*
X186772460Y-91846545D01*
X186772456Y-91846548D01*
X186663748Y-91955256D01*
X186663745Y-91955260D01*
X186578327Y-92083096D01*
X186578326Y-92083098D01*
X186519494Y-92225134D01*
X186519491Y-92225143D01*
X186489500Y-92375922D01*
X178122370Y-92375922D01*
X177650562Y-91904114D01*
X177652626Y-91903260D01*
X177791844Y-91810238D01*
X177910238Y-91691844D01*
X178003260Y-91552626D01*
X178004114Y-91550562D01*
X178562148Y-92108596D01*
X178562148Y-92108595D01*
X178639825Y-92001685D01*
X178755947Y-91773784D01*
X178755948Y-91773781D01*
X178834986Y-91530523D01*
X178875000Y-91277889D01*
X178875000Y-91263522D01*
X199799500Y-91263522D01*
X199799500Y-91417277D01*
X199829491Y-91568056D01*
X199829494Y-91568065D01*
X199888326Y-91710101D01*
X199888327Y-91710103D01*
X199973745Y-91837939D01*
X199973748Y-91837943D01*
X200082456Y-91946651D01*
X200082460Y-91946654D01*
X200210294Y-92032071D01*
X200210295Y-92032071D01*
X200210296Y-92032072D01*
X200210298Y-92032073D01*
X200304988Y-92071294D01*
X200352336Y-92090906D01*
X200352338Y-92090906D01*
X200352343Y-92090908D01*
X200503122Y-92120899D01*
X200503126Y-92120900D01*
X200559133Y-92120900D01*
X200626172Y-92140585D01*
X200671927Y-92193389D01*
X200681871Y-92262547D01*
X200680750Y-92269091D01*
X200659500Y-92375922D01*
X200659500Y-92529677D01*
X200689491Y-92680456D01*
X200689494Y-92680465D01*
X200748326Y-92822501D01*
X200748327Y-92822503D01*
X200833745Y-92950339D01*
X200833748Y-92950343D01*
X200942456Y-93059051D01*
X200942459Y-93059053D01*
X200942460Y-93059054D01*
X201070294Y-93144471D01*
X201070295Y-93144471D01*
X201070296Y-93144472D01*
X201070298Y-93144473D01*
X201137866Y-93172460D01*
X201212336Y-93203306D01*
X201212338Y-93203306D01*
X201212343Y-93203308D01*
X201363122Y-93233299D01*
X201363126Y-93233300D01*
X201363127Y-93233300D01*
X201516874Y-93233300D01*
X201516875Y-93233299D01*
X201567136Y-93223302D01*
X201667656Y-93203308D01*
X201667659Y-93203306D01*
X201667664Y-93203306D01*
X201809706Y-93144471D01*
X201937540Y-93059054D01*
X201937544Y-93059050D01*
X201966441Y-93030154D01*
X202027764Y-92996669D01*
X202097456Y-93001653D01*
X202141803Y-93030154D01*
X202170699Y-93059050D01*
X202170703Y-93059053D01*
X202298537Y-93144470D01*
X202298538Y-93144470D01*
X202298539Y-93144471D01*
X202298541Y-93144472D01*
X202383224Y-93179548D01*
X202440579Y-93203305D01*
X202440581Y-93203305D01*
X202440586Y-93203307D01*
X202552658Y-93225599D01*
X202614569Y-93257983D01*
X202634789Y-93284744D01*
X202634945Y-93284641D01*
X202636732Y-93287315D01*
X202637825Y-93288762D01*
X202638327Y-93289701D01*
X202638329Y-93289706D01*
X202669618Y-93336533D01*
X202723745Y-93417539D01*
X202723748Y-93417543D01*
X202832456Y-93526251D01*
X202832460Y-93526254D01*
X202960294Y-93611671D01*
X202960295Y-93611671D01*
X202960296Y-93611672D01*
X202960298Y-93611673D01*
X202998905Y-93627664D01*
X203102336Y-93670506D01*
X203102338Y-93670506D01*
X203102343Y-93670508D01*
X203253122Y-93700499D01*
X203253126Y-93700500D01*
X203253127Y-93700500D01*
X203406874Y-93700500D01*
X203406875Y-93700499D01*
X203490760Y-93683814D01*
X203557656Y-93670508D01*
X203557659Y-93670506D01*
X203557664Y-93670506D01*
X203699706Y-93611671D01*
X203827540Y-93526254D01*
X203936254Y-93417540D01*
X204021671Y-93289706D01*
X204080506Y-93147664D01*
X204081142Y-93144471D01*
X204107482Y-93012044D01*
X204110500Y-92996873D01*
X204110500Y-92843127D01*
X204100678Y-92793746D01*
X204080508Y-92692343D01*
X204080505Y-92692334D01*
X204077420Y-92684887D01*
X204021671Y-92550294D01*
X203936254Y-92422460D01*
X203936251Y-92422456D01*
X203827543Y-92313748D01*
X203827539Y-92313745D01*
X203699703Y-92228327D01*
X203699701Y-92228326D01*
X203557665Y-92169494D01*
X203557657Y-92169492D01*
X203445583Y-92147199D01*
X203383672Y-92114814D01*
X203363454Y-92088053D01*
X203363298Y-92088158D01*
X203361496Y-92085461D01*
X203360414Y-92084029D01*
X203359914Y-92083093D01*
X203274497Y-91955259D01*
X203274494Y-91955255D01*
X203165786Y-91846547D01*
X203165782Y-91846544D01*
X203037946Y-91761126D01*
X203037944Y-91761125D01*
X203001751Y-91746134D01*
X202947347Y-91702294D01*
X202925282Y-91636000D01*
X202939854Y-91573103D01*
X202941664Y-91569716D01*
X202941671Y-91569706D01*
X203000506Y-91427664D01*
X203004509Y-91407543D01*
X203027556Y-91291672D01*
X203030500Y-91276873D01*
X203030500Y-91123127D01*
X203025411Y-91097543D01*
X203000508Y-90972343D01*
X203000505Y-90972334D01*
X202999827Y-90970698D01*
X202941671Y-90830294D01*
X202936810Y-90823019D01*
X202934502Y-90815649D01*
X202929219Y-90810014D01*
X202924208Y-90782774D01*
X202915932Y-90756345D01*
X202917657Y-90747162D01*
X202916578Y-90741297D01*
X202925010Y-90708018D01*
X202925189Y-90707070D01*
X202970506Y-90597664D01*
X202970918Y-90595587D01*
X202973979Y-90588128D01*
X202992274Y-90565264D01*
X203008325Y-90540765D01*
X203013851Y-90538299D01*
X203017633Y-90533574D01*
X203045388Y-90524230D01*
X203072133Y-90512299D01*
X203078115Y-90513212D01*
X203083851Y-90511282D01*
X203112249Y-90518426D01*
X203141201Y-90522849D01*
X203145740Y-90526852D01*
X203151609Y-90528329D01*
X203171639Y-90549695D01*
X203193602Y-90569066D01*
X203196416Y-90576124D01*
X203199395Y-90579302D01*
X203200861Y-90587274D01*
X203210319Y-90610995D01*
X203239492Y-90757657D01*
X203239494Y-90757665D01*
X203298326Y-90899701D01*
X203298327Y-90899703D01*
X203383745Y-91027539D01*
X203383748Y-91027543D01*
X203492456Y-91136251D01*
X203492460Y-91136254D01*
X203620294Y-91221671D01*
X203620295Y-91221671D01*
X203620296Y-91221672D01*
X203620298Y-91221673D01*
X203649378Y-91233718D01*
X203762336Y-91280506D01*
X203762338Y-91280506D01*
X203762343Y-91280508D01*
X203913122Y-91310499D01*
X203913126Y-91310500D01*
X203913127Y-91310500D01*
X204066874Y-91310500D01*
X204066875Y-91310499D01*
X204103964Y-91303122D01*
X205119500Y-91303122D01*
X205119500Y-91456877D01*
X205149491Y-91607656D01*
X205149494Y-91607665D01*
X205208326Y-91749701D01*
X205208327Y-91749703D01*
X205293745Y-91877539D01*
X205293748Y-91877543D01*
X205402456Y-91986251D01*
X205402460Y-91986254D01*
X205530294Y-92071671D01*
X205530295Y-92071671D01*
X205530296Y-92071672D01*
X205530298Y-92071673D01*
X205619440Y-92108596D01*
X205672336Y-92130506D01*
X205672338Y-92130506D01*
X205672343Y-92130508D01*
X205823122Y-92160499D01*
X205823126Y-92160500D01*
X205823127Y-92160500D01*
X205976874Y-92160500D01*
X205976875Y-92160499D01*
X206043742Y-92147199D01*
X206127656Y-92130508D01*
X206127659Y-92130506D01*
X206127664Y-92130506D01*
X206269706Y-92071671D01*
X206397540Y-91986254D01*
X206506254Y-91877540D01*
X206591671Y-91749706D01*
X206650506Y-91607664D01*
X206654289Y-91588648D01*
X206680499Y-91456877D01*
X206680500Y-91456874D01*
X206680500Y-91303126D01*
X206680499Y-91303122D01*
X206650508Y-91152343D01*
X206650505Y-91152334D01*
X206649537Y-91149998D01*
X206598816Y-91027543D01*
X206591673Y-91010298D01*
X206591672Y-91010296D01*
X206566312Y-90972343D01*
X206506254Y-90882460D01*
X206506251Y-90882456D01*
X206397543Y-90773748D01*
X206397539Y-90773745D01*
X206269706Y-90688329D01*
X206255237Y-90682336D01*
X206127664Y-90629494D01*
X206127659Y-90629493D01*
X206127657Y-90629492D01*
X206127656Y-90629491D01*
X205976877Y-90599500D01*
X205976873Y-90599500D01*
X205823127Y-90599500D01*
X205823122Y-90599500D01*
X205672343Y-90629491D01*
X205672334Y-90629494D01*
X205530298Y-90688326D01*
X205530296Y-90688327D01*
X205402460Y-90773745D01*
X205402456Y-90773748D01*
X205293748Y-90882456D01*
X205293745Y-90882460D01*
X205208327Y-91010296D01*
X205208326Y-91010298D01*
X205149494Y-91152334D01*
X205149491Y-91152343D01*
X205119500Y-91303122D01*
X204103964Y-91303122D01*
X204117136Y-91300502D01*
X204217656Y-91280508D01*
X204217659Y-91280506D01*
X204217664Y-91280506D01*
X204359706Y-91221671D01*
X204487540Y-91136254D01*
X204596254Y-91027540D01*
X204681671Y-90899706D01*
X204740506Y-90757664D01*
X204740506Y-90757659D01*
X204740508Y-90757656D01*
X204770499Y-90606877D01*
X204770500Y-90606874D01*
X204770500Y-90523122D01*
X207519500Y-90523122D01*
X207519500Y-90676877D01*
X207549491Y-90827656D01*
X207549494Y-90827665D01*
X207608326Y-90969701D01*
X207608327Y-90969703D01*
X207693745Y-91097539D01*
X207693748Y-91097543D01*
X207802456Y-91206251D01*
X207802460Y-91206254D01*
X207930294Y-91291671D01*
X207930295Y-91291671D01*
X207930296Y-91291672D01*
X207930298Y-91291673D01*
X207982094Y-91313127D01*
X208072336Y-91350506D01*
X208072338Y-91350506D01*
X208072343Y-91350508D01*
X208223122Y-91380499D01*
X208223126Y-91380500D01*
X208223127Y-91380500D01*
X208376874Y-91380500D01*
X208376875Y-91380499D01*
X208427136Y-91370502D01*
X208527656Y-91350508D01*
X208527659Y-91350506D01*
X208527664Y-91350506D01*
X208669706Y-91291671D01*
X208797540Y-91206254D01*
X208906254Y-91097540D01*
X208991671Y-90969706D01*
X209050506Y-90827664D01*
X209051430Y-90823022D01*
X209076232Y-90698329D01*
X209080500Y-90676873D01*
X209080500Y-90523127D01*
X209072910Y-90484969D01*
X209079137Y-90415377D01*
X209122000Y-90360200D01*
X209187889Y-90336955D01*
X209241975Y-90346214D01*
X209252336Y-90350506D01*
X209252340Y-90350506D01*
X209252343Y-90350508D01*
X209403122Y-90380499D01*
X209403126Y-90380500D01*
X209403127Y-90380500D01*
X209556874Y-90380500D01*
X209556875Y-90380499D01*
X209607136Y-90370502D01*
X209707656Y-90350508D01*
X209707659Y-90350506D01*
X209707664Y-90350506D01*
X209849706Y-90291671D01*
X209977540Y-90206254D01*
X210086254Y-90097540D01*
X210171671Y-89969706D01*
X210230506Y-89827664D01*
X210260500Y-89676873D01*
X210260500Y-89523127D01*
X210260232Y-89521782D01*
X210230508Y-89372343D01*
X210230505Y-89372334D01*
X210171673Y-89230298D01*
X210171672Y-89230296D01*
X210148481Y-89195589D01*
X210086254Y-89102460D01*
X210086251Y-89102456D01*
X209977543Y-88993748D01*
X209977539Y-88993745D01*
X209849703Y-88908327D01*
X209849701Y-88908326D01*
X209707665Y-88849494D01*
X209707656Y-88849491D01*
X209556877Y-88819500D01*
X209556873Y-88819500D01*
X209403127Y-88819500D01*
X209403122Y-88819500D01*
X209252343Y-88849491D01*
X209252334Y-88849494D01*
X209110298Y-88908326D01*
X209110296Y-88908327D01*
X208982460Y-88993745D01*
X208982456Y-88993748D01*
X208873748Y-89102456D01*
X208873745Y-89102460D01*
X208788327Y-89230296D01*
X208788326Y-89230298D01*
X208729494Y-89372334D01*
X208729491Y-89372343D01*
X208699500Y-89523122D01*
X208699500Y-89523126D01*
X208699500Y-89523127D01*
X208699500Y-89676873D01*
X208699790Y-89678329D01*
X208707090Y-89715032D01*
X208700861Y-89784624D01*
X208657997Y-89839801D01*
X208592107Y-89863044D01*
X208538024Y-89853785D01*
X208527664Y-89849494D01*
X208527656Y-89849491D01*
X208376877Y-89819500D01*
X208376873Y-89819500D01*
X208223127Y-89819500D01*
X208223122Y-89819500D01*
X208072343Y-89849491D01*
X208072334Y-89849494D01*
X207930298Y-89908326D01*
X207930296Y-89908327D01*
X207802460Y-89993745D01*
X207802456Y-89993748D01*
X207693748Y-90102456D01*
X207693745Y-90102460D01*
X207608327Y-90230296D01*
X207608326Y-90230298D01*
X207549494Y-90372334D01*
X207549491Y-90372343D01*
X207519500Y-90523122D01*
X204770500Y-90523122D01*
X204770500Y-90453126D01*
X204770499Y-90453122D01*
X204740508Y-90302343D01*
X204740505Y-90302334D01*
X204738839Y-90298313D01*
X204710667Y-90230298D01*
X204681673Y-90160298D01*
X204681672Y-90160296D01*
X204669671Y-90142336D01*
X204596254Y-90032460D01*
X204596251Y-90032456D01*
X204487543Y-89923748D01*
X204487539Y-89923745D01*
X204359703Y-89838327D01*
X204359701Y-89838326D01*
X204217665Y-89779494D01*
X204217656Y-89779491D01*
X204066877Y-89749500D01*
X204066873Y-89749500D01*
X203913127Y-89749500D01*
X203913122Y-89749500D01*
X203762343Y-89779491D01*
X203762334Y-89779494D01*
X203620298Y-89838326D01*
X203620296Y-89838327D01*
X203492460Y-89923745D01*
X203492456Y-89923748D01*
X203383748Y-90032456D01*
X203383745Y-90032460D01*
X203298327Y-90160296D01*
X203298326Y-90160298D01*
X203237163Y-90307964D01*
X203235675Y-90307347D01*
X203201648Y-90359256D01*
X203137832Y-90387705D01*
X203068766Y-90377135D01*
X203016379Y-90330904D01*
X202999680Y-90289003D01*
X202970508Y-90142343D01*
X202970505Y-90142334D01*
X202911673Y-90000298D01*
X202911672Y-90000296D01*
X202907295Y-89993746D01*
X202826254Y-89872460D01*
X202826251Y-89872456D01*
X202717543Y-89763748D01*
X202717539Y-89763745D01*
X202589703Y-89678327D01*
X202589701Y-89678326D01*
X202447665Y-89619494D01*
X202447656Y-89619491D01*
X202296877Y-89589500D01*
X202296873Y-89589500D01*
X202143127Y-89589500D01*
X202143122Y-89589500D01*
X201992343Y-89619491D01*
X201992334Y-89619494D01*
X201850298Y-89678326D01*
X201850296Y-89678327D01*
X201722460Y-89763745D01*
X201722456Y-89763748D01*
X201613748Y-89872456D01*
X201613745Y-89872460D01*
X201528327Y-90000296D01*
X201528326Y-90000298D01*
X201469494Y-90142334D01*
X201469491Y-90142343D01*
X201439500Y-90293122D01*
X201439500Y-90378511D01*
X201419815Y-90445550D01*
X201367011Y-90491305D01*
X201339692Y-90500128D01*
X201242342Y-90519492D01*
X201242334Y-90519494D01*
X201100298Y-90578326D01*
X201032734Y-90623471D01*
X200966056Y-90644348D01*
X200916393Y-90634930D01*
X200858607Y-90610995D01*
X200807664Y-90589894D01*
X200807660Y-90589893D01*
X200807656Y-90589891D01*
X200656877Y-90559900D01*
X200656873Y-90559900D01*
X200503127Y-90559900D01*
X200503122Y-90559900D01*
X200352343Y-90589891D01*
X200352334Y-90589894D01*
X200210298Y-90648726D01*
X200210296Y-90648727D01*
X200082460Y-90734145D01*
X200082456Y-90734148D01*
X199973748Y-90842856D01*
X199973745Y-90842860D01*
X199888327Y-90970696D01*
X199888326Y-90970698D01*
X199829494Y-91112734D01*
X199829491Y-91112743D01*
X199799500Y-91263522D01*
X178875000Y-91263522D01*
X178875000Y-91022110D01*
X178834986Y-90769476D01*
X178755948Y-90526218D01*
X178755947Y-90526215D01*
X178639824Y-90298313D01*
X178562148Y-90191403D01*
X178562148Y-90191402D01*
X178004114Y-90749436D01*
X178003260Y-90747374D01*
X177910238Y-90608156D01*
X177791844Y-90489762D01*
X177652626Y-90396740D01*
X177650560Y-90395884D01*
X178208596Y-89837850D01*
X178101686Y-89760175D01*
X177873784Y-89644052D01*
X177873781Y-89644051D01*
X177630523Y-89565013D01*
X177377889Y-89525000D01*
X177122111Y-89525000D01*
X176869476Y-89565013D01*
X176626218Y-89644051D01*
X176626215Y-89644052D01*
X176398310Y-89760177D01*
X176291403Y-89837849D01*
X176291402Y-89837850D01*
X176849437Y-90395885D01*
X176847374Y-90396740D01*
X176708156Y-90489762D01*
X176589762Y-90608156D01*
X176496740Y-90747374D01*
X176495885Y-90749437D01*
X175937850Y-90191402D01*
X175937849Y-90191403D01*
X175860177Y-90298310D01*
X175744052Y-90526215D01*
X175744051Y-90526218D01*
X175665013Y-90769476D01*
X175625000Y-91022110D01*
X173795000Y-91022110D01*
X173754986Y-90769476D01*
X173675948Y-90526218D01*
X173675947Y-90526215D01*
X173559824Y-90298313D01*
X173482148Y-90191403D01*
X173482148Y-90191402D01*
X172924114Y-90749436D01*
X172923260Y-90747374D01*
X172830238Y-90608156D01*
X172711844Y-90489762D01*
X172572626Y-90396740D01*
X172570560Y-90395884D01*
X173128596Y-89837850D01*
X173021686Y-89760175D01*
X172793784Y-89644052D01*
X172793781Y-89644051D01*
X172550523Y-89565013D01*
X172297889Y-89525000D01*
X172042111Y-89525000D01*
X171789476Y-89565013D01*
X171546218Y-89644051D01*
X171546215Y-89644052D01*
X171318310Y-89760177D01*
X171211403Y-89837849D01*
X171211402Y-89837850D01*
X171769437Y-90395885D01*
X171767374Y-90396740D01*
X171628156Y-90489762D01*
X171509762Y-90608156D01*
X171416740Y-90747374D01*
X171415885Y-90749437D01*
X170857850Y-90191402D01*
X170857849Y-90191403D01*
X170780177Y-90298310D01*
X170664052Y-90526215D01*
X170664051Y-90526218D01*
X170585013Y-90769476D01*
X170545000Y-91022110D01*
X164200500Y-91022110D01*
X164200500Y-86881995D01*
X165199500Y-86881995D01*
X165199500Y-87118004D01*
X165199501Y-87118020D01*
X165230080Y-87350296D01*
X165230307Y-87352014D01*
X165255602Y-87446416D01*
X165291394Y-87579993D01*
X165381714Y-87798045D01*
X165381719Y-87798056D01*
X165450319Y-87916873D01*
X165499727Y-88002450D01*
X165499729Y-88002453D01*
X165499730Y-88002454D01*
X165643406Y-88189697D01*
X165643412Y-88189704D01*
X165810295Y-88356587D01*
X165810302Y-88356593D01*
X165882081Y-88411671D01*
X165997550Y-88500273D01*
X166128918Y-88576118D01*
X166201943Y-88618280D01*
X166201948Y-88618282D01*
X166201951Y-88618284D01*
X166420007Y-88708606D01*
X166647986Y-88769693D01*
X166881989Y-88800500D01*
X166881996Y-88800500D01*
X167118004Y-88800500D01*
X167118011Y-88800500D01*
X167352014Y-88769693D01*
X167579993Y-88708606D01*
X167798049Y-88618284D01*
X168002450Y-88500273D01*
X168015915Y-88489941D01*
X173184500Y-88489941D01*
X173184500Y-88730059D01*
X173195657Y-88800500D01*
X173222063Y-88967222D01*
X173296265Y-89195593D01*
X173386325Y-89372343D01*
X173405276Y-89409536D01*
X173546414Y-89603796D01*
X173716204Y-89773586D01*
X173910464Y-89914724D01*
X173928169Y-89923745D01*
X174124406Y-90023734D01*
X174124408Y-90023734D01*
X174124411Y-90023736D01*
X174352778Y-90097937D01*
X174589941Y-90135500D01*
X174589942Y-90135500D01*
X174830058Y-90135500D01*
X174830059Y-90135500D01*
X175067222Y-90097937D01*
X175295589Y-90023736D01*
X175509536Y-89914724D01*
X175703796Y-89773586D01*
X175873586Y-89603796D01*
X176014724Y-89409536D01*
X176123736Y-89195589D01*
X176197937Y-88967222D01*
X176235500Y-88730059D01*
X176235500Y-88489941D01*
X176197937Y-88252778D01*
X176123736Y-88024411D01*
X176123734Y-88024408D01*
X176123734Y-88024406D01*
X176014723Y-87810463D01*
X176004850Y-87796874D01*
X175873586Y-87616204D01*
X175703796Y-87446414D01*
X175509536Y-87305276D01*
X175295593Y-87196265D01*
X175067222Y-87122063D01*
X174830059Y-87084500D01*
X174589941Y-87084500D01*
X174531552Y-87093748D01*
X174352777Y-87122063D01*
X174124406Y-87196265D01*
X173910463Y-87305276D01*
X173716201Y-87446416D01*
X173546416Y-87616201D01*
X173405276Y-87810463D01*
X173296265Y-88024406D01*
X173222063Y-88252777D01*
X173205621Y-88356587D01*
X173184500Y-88489941D01*
X168015915Y-88489941D01*
X168117919Y-88411671D01*
X168150471Y-88386693D01*
X168165750Y-88374968D01*
X168189699Y-88356592D01*
X168356592Y-88189699D01*
X168500273Y-88002450D01*
X168618284Y-87798049D01*
X168708606Y-87579993D01*
X168769693Y-87352014D01*
X168800500Y-87118011D01*
X168800500Y-86881989D01*
X168769693Y-86647986D01*
X168708606Y-86420007D01*
X168618284Y-86201951D01*
X168618282Y-86201948D01*
X168618280Y-86201943D01*
X168564275Y-86108404D01*
X168500273Y-85997550D01*
X168491627Y-85986282D01*
X168356593Y-85810302D01*
X168356587Y-85810295D01*
X168189704Y-85643412D01*
X168189697Y-85643406D01*
X168002454Y-85499730D01*
X168002453Y-85499729D01*
X168002450Y-85499727D01*
X167909765Y-85446215D01*
X167798056Y-85381719D01*
X167798045Y-85381714D01*
X167579993Y-85291394D01*
X167352010Y-85230306D01*
X167118020Y-85199501D01*
X167118017Y-85199500D01*
X167118011Y-85199500D01*
X166881989Y-85199500D01*
X166881983Y-85199500D01*
X166881979Y-85199501D01*
X166647989Y-85230306D01*
X166420006Y-85291394D01*
X166201954Y-85381714D01*
X166201943Y-85381719D01*
X165997545Y-85499730D01*
X165810302Y-85643406D01*
X165810295Y-85643412D01*
X165643412Y-85810295D01*
X165643406Y-85810302D01*
X165499730Y-85997545D01*
X165381719Y-86201943D01*
X165381714Y-86201954D01*
X165291394Y-86420006D01*
X165230306Y-86647989D01*
X165199501Y-86881979D01*
X165199500Y-86881995D01*
X164200500Y-86881995D01*
X164200500Y-84624500D01*
X164220185Y-84557461D01*
X164272989Y-84511706D01*
X164324500Y-84500500D01*
X171183982Y-84500500D01*
X171251021Y-84520185D01*
G37*
%TD.AperFunction*%
%TD*%
M02*
