M48
; DRILL file {KiCad 9.0.0} date 2025-04-09T19:33:59-0700
; FORMAT={-:-/ absolute / inch / decimal}
; #@! TF.CreationDate,2025-04-09T19:33:59-07:00
; #@! TF.GenerationSoftware,Kicad,Pcbnew,9.0.0
; #@! TF.FileFunction,Plated,1,4,PTH
FMAT,2
INCH
; #@! TA.AperFunction,Plated,PTH,ViaDrill
T1C0.0079
; #@! TA.AperFunction,Plated,PTH,ComponentDrill
T2C0.0079
; #@! TA.AperFunction,Plated,PTH,ComponentDrill
T3C0.0098
; #@! TA.AperFunction,Plated,PTH,ViaDrill
T4C0.0118
; #@! TA.AperFunction,Plated,PTH,ComponentDrill
T5C0.0118
; #@! TA.AperFunction,Plated,PTH,ViaDrill
T6C0.0157
; #@! TA.AperFunction,Plated,PTH,ComponentDrill
T7C0.0236
; #@! TA.AperFunction,Plated,PTH,ComponentDrill
T8C0.0256
; #@! TA.AperFunction,Plated,PTH,ComponentDrill
T9C0.0335
; #@! TA.AperFunction,Plated,PTH,ComponentDrill
T10C0.0394
; #@! TA.AperFunction,Plated,PTH,ComponentDrill
T11C0.0433
; #@! TA.AperFunction,Plated,PTH,ComponentDrill
T12C0.0591
; #@! TA.AperFunction,Plated,PTH,ComponentDrill
T13C0.0669
; #@! TA.AperFunction,Plated,PTH,ComponentDrill
T14C0.1260
%
G90
G05
T1
X6.1693Y-2.7362
X6.2404Y-3.0608
X6.3113Y-4.1454
X6.3504Y-4.1102
X6.3583Y-3.2088
X6.5508Y-4.0441
X6.6142Y-4.1533
X6.6142Y-4.2165
X6.6142Y-4.2717
X6.6378Y-4.3189
X6.6693Y-4.3819
X6.7087Y-4.4402
X6.8602Y-3.8979
X6.8799Y-3.3858
X6.8976Y-4.2638
X6.9134Y-4.4402
X6.9291Y-3.6417
X6.9449Y-4.0591
X6.9587Y-3.6614
X6.9764Y-4.3425
X6.9819Y-3.6811
X7.0092Y-3.5519
X7.063Y-4.2244
X7.0939Y-3.1328
X7.1091Y-3.0
X7.1142Y-3.9055
X7.2087Y-4.1929
X7.2142Y-2.5985
X7.3146Y-3.2677
X7.315Y-3.2323
X7.3425Y-3.6406
X7.3858Y-3.2189
X7.3889Y-3.3898
X7.4783Y-3.3693
X7.4902Y-3.563
X7.5984Y-3.2795
X7.6823Y-4.5571
X7.6823Y-4.6161
X7.6823Y-4.6752
X7.685Y-3.2835
X7.6863Y-4.498
X7.7126Y-3.4606
X7.7433Y-3.4998
X7.752Y-3.4606
X7.7795Y-2.8347
X7.7874Y-3.4843
X7.7874Y-3.5315
X7.7874Y-3.5787
X7.7874Y-3.622
X7.7953Y-3.3917
X7.7953Y-3.6614
X7.8189Y-3.4606
X7.8189Y-3.6811
X7.8346Y-3.4173
X7.8506Y-3.2043
X7.8543Y-3.6811
X7.8583Y-2.5945
X7.8622Y-3.4606
X7.8833Y-3.201
X7.8898Y-3.6811
X7.8937Y-3.3344
X7.9055Y-2.6378
X7.9291Y-3.6732
X7.9479Y-3.4936
X7.9543Y-3.152
X7.9724Y-3.1301
X7.9894Y-3.5829
X7.9921Y-3.3848
X8.0039Y-3.3273
X8.0127Y-3.407
X8.0131Y-3.6316
X8.014Y-3.1435
X8.0323Y-3.3058
X8.0533Y-3.4446
X8.0748Y-3.4646
X8.0954Y-3.5694
X8.0956Y-3.1456
X8.0965Y-3.4921
X8.1063Y-3.0539
X8.1339Y-3.5591
X8.1614Y-2.8858
X8.1771Y-3.2761
X8.1814Y-3.4369
X8.2037Y-3.3346
X8.2677Y-3.1614
X8.2972Y-3.2382
X8.3177Y-3.5748
X8.3189Y-3.0669
X8.3189Y-3.2165
X8.3307Y-3.3189
X8.3307Y-3.3651
X8.3622Y-3.2874
X8.378Y-4.1772
X8.4567Y-3.2559
X8.4646Y-3.3663
X8.5372Y-3.3994
X8.5693Y-3.1338
X8.5866Y-4.0733
X8.61Y-4.0354
X8.672Y-4.2372
X8.685Y-3.1929
X8.689Y-3.3031
T2
X7.2815Y-3.4724
X7.2815Y-3.5157
X7.3327Y-3.4724
X7.3327Y-3.5157
T3
X8.0369Y-3.363
X8.0751Y-3.3247
X8.0751Y-3.4012
X8.1134Y-3.2864
X8.1134Y-3.363
X8.1134Y-3.4395
X8.1517Y-3.3247
X8.1517Y-3.4012
X8.19Y-3.363
T4
X6.1693Y-4.7008
X6.2213Y-2.322
X6.2244Y-2.3937
X6.2362Y-4.5866
X6.2642Y-2.3224
X6.265Y-2.3937
X6.2795Y-4.2126
X6.2835Y-4.4961
X6.2835Y-4.5571
X6.3075Y-2.3087
X6.3346Y-4.5827
X6.3496Y-2.2925
X6.4008Y-2.2913
X6.4449Y-4.0472
X6.4524Y-2.2925
X6.4736Y-2.3323
X6.4768Y-2.3764
X6.4783Y-2.415
X6.7835Y-3.9843
X6.811Y-3.937
X6.8701Y-2.9764
X6.8898Y-2.8346
X6.9488Y-3.9252
X7.0394Y-4.6772
X7.0591Y-4.0207
X7.0709Y-2.9134
X7.1016Y-3.489
X7.1457Y-3.2874
X7.1457Y-4.0472
X7.1986Y-3.5512
X7.2185Y-3.4094
X7.2205Y-3.471
X7.248Y-4.0778
X7.2569Y-3.3642
X7.3091Y-3.6378
X7.3149Y-3.8856
X7.3189Y-3.9754
X7.3474Y-3.6024
X7.3563Y-3.9222
X7.3583Y-3.9951
X7.3661Y-2.9449
X7.3689Y-3.3343
X7.3898Y-4.8622
X7.4262Y-3.499
X7.451Y-3.9523
X7.4733Y-4.0108
X7.4764Y-3.3214
X7.4892Y-3.9537
X7.5238Y-3.9567
X7.5404Y-3.8494
X7.5896Y-3.8486
X7.6024Y-3.4291
X7.6044Y-3.9586
X7.6368Y-3.9577
X7.6683Y-3.9606
X7.6873Y-3.4308
X7.7047Y-3.9596
X7.7116Y-3.5039
X7.7402Y-3.7017
X7.8583Y-2.3623
X7.9134Y-2.4173
X7.9449Y-5.1142
X7.9538Y-4.9276
X7.9606Y-2.6142
X7.9804Y-2.7102
X7.982Y-5.0445
X7.9822Y-4.4551
X7.9882Y-4.3858
X7.9911Y-4.8937
X7.9921Y-4.4252
X7.9952Y-3.7495
X8.0069Y-2.9055
X8.0079Y-2.4685
X8.0097Y-2.6987
X8.0296Y-2.9606
X8.0472Y-3.8425
X8.0551Y-4.0614
X8.0748Y-3.6535
X8.0906Y-4.5472
X8.1027Y-4.2536
X8.1027Y-4.2851
X8.1027Y-4.3166
X8.1144Y-2.9136
X8.1392Y-3.6063
X8.1565Y-4.2795
X8.1653Y-3.9984
X8.1778Y-4.5959
X8.1918Y-4.3099
X8.2005Y-2.8895
X8.2145Y-4.0778
X8.2456Y-4.0831
X8.248Y-3.3661
X8.2501Y-4.2629
X8.2569Y-4.6427
X8.2588Y-3.5591
X8.2844Y-4.7372
X8.2965Y-4.6195
X8.3065Y-4.5892
X8.3238Y-3.7717
X8.3287Y-4.5669
X8.3303Y-4.3627
X8.3346Y-3.4252
X8.3695Y-4.0754
X8.375Y-2.4163
X8.375Y-3.874
X8.3937Y-3.4187
X8.398Y-4.3588
X8.4055Y-2.4331
X8.4114Y-4.3287
X8.4144Y-4.9537
X8.421Y-4.2258
X8.4213Y-3.3636
X8.4528Y-3.4921
X8.4764Y-3.5197
X8.4793Y-4.6171
X8.499Y-3.7643
X8.5035Y-4.0423
X8.5157Y-4.4016
X8.5157Y-4.437
X8.5276Y-4.0197
X8.5394Y-4.5709
X8.5451Y-2.8171
X8.5551Y-4.4022
X8.5965Y-2.6152
X8.622Y-4.8071
X8.6535Y-4.3189
X8.6742Y-4.9518
X8.7142Y-5.0488
X8.7205Y-4.0709
X8.7207Y-4.9411
X8.7323Y-5.1031
X8.752Y-4.0039
X8.7598Y-3.9094
X8.7646Y-4.2618
X8.8858Y-4.6102
X8.8898Y-4.4961
X8.8925Y-4.4291
X8.8925Y-5.0271
T5
X7.2808Y-4.5295
X7.2808Y-4.5807
X7.2808Y-4.6319
X7.2808Y-4.6831
X7.2808Y-4.7343
X7.3319Y-4.5295
X7.3319Y-4.5807
X7.3319Y-4.6319
X7.3319Y-4.6831
X7.3319Y-4.7343
X7.3831Y-4.5295
X7.3831Y-4.5807
X7.3831Y-4.6319
X7.3831Y-4.6831
X7.3831Y-4.7343
T6
X5.9941Y-2.9232
X6.0039Y-3.0118
X6.1378Y-4.5945
X6.1417Y-2.7953
X6.1417Y-4.3701
X6.1417Y-4.4291
X6.1811Y-3.4646
X6.1811Y-3.8976
X6.2205Y-3.4646
X6.2205Y-3.8976
X6.2441Y-4.3227
X6.2598Y-3.4646
X6.2598Y-3.8976
X6.2992Y-3.4646
X6.2992Y-3.8976
X6.3386Y-3.4646
X6.3386Y-3.8976
X6.3386Y-4.3701
X6.3514Y-3.248
X6.3701Y-4.6496
X6.3771Y-4.0636
X6.378Y-3.4646
X6.378Y-3.4646
X6.378Y-3.8976
X6.378Y-4.4291
X6.3898Y-4.7087
X6.3976Y-3.3169
X6.3976Y-4.3701
X6.4173Y-3.4646
X6.4173Y-3.8976
X6.4469Y-3.3169
X6.4567Y-3.4646
X6.4567Y-3.8976
X6.4961Y-3.4646
X6.4961Y-3.8976
X6.5059Y-4.0636
X6.5157Y-4.2126
X6.5354Y-3.4646
X6.5354Y-3.8976
X6.5551Y-4.5669
X6.565Y-3.2874
X6.5748Y-3.4646
X6.5748Y-3.8976
X6.5748Y-3.8976
X6.5911Y-4.2485
X6.5945Y-3.1988
X6.5945Y-4.3504
X6.6142Y-3.3106
X6.6142Y-3.4646
X6.6142Y-3.8976
X6.6142Y-4.4882
X6.6339Y-5.3937
X6.6457Y-2.5709
X6.6535Y-3.4646
X6.6535Y-3.8976
X6.6826Y-3.2584
X6.6929Y-3.4646
X6.6929Y-3.8976
X6.7028Y-3.3169
X6.7102Y-2.9748
X6.7266Y-3.2845
X6.7323Y-3.4646
X6.752Y-3.9173
X6.7618Y-3.3106
X6.7717Y-3.4646
X6.8012Y-3.3465
X6.8012Y-3.4055
X6.811Y-3.4646
X6.8463Y-4.2921
X6.8504Y-3.3337
X6.9695Y-4.4124
X7.0623Y-3.7767
X7.0979Y-3.6311
X7.1358Y-3.6417
X7.1516Y-3.0965
X7.1626Y-4.7106
X7.1732Y-3.6684
X7.2047Y-4.4893
X7.2441Y-4.8031
X7.2874Y-5.0945
X7.3307Y-5.0118
X7.3425Y-4.8819
X7.3543Y-4.126
X7.3818Y-3.4217
X7.3819Y-5.0394
X7.4016Y-4.3701
X7.4055Y-5.0906
X7.4213Y-5.2559
X7.4982Y-4.5229
X7.5Y-5.2362
X7.503Y-3.4449
X7.5079Y-4.8287
X7.5079Y-4.9695
X7.5079Y-4.7933
X7.5079Y-4.9341
X7.516Y-4.0256
X7.5236Y-3.2244
X7.5347Y-3.5535
X7.5387Y-3.6788
X7.5394Y-4.4222
X7.5481Y-3.4587
X7.5512Y-3.5177
X7.5785Y-3.0903
X7.5787Y-3.6909
X7.5827Y-4.3583
X7.6142Y-4.2953
X7.622Y-4.3583
X7.6223Y-4.2215
X7.6339Y-2.3622
X7.6339Y-4.2598
X7.6378Y-4.9291
X7.6378Y-4.9685
X7.6496Y-2.9134
X7.664Y-4.1158
X7.726Y-4.1598
X7.7433Y-4.2854
X7.7441Y-3.9764
X7.7731Y-2.9134
X7.7795Y-4.5276
X7.7825Y-5.2441
X7.814Y-2.6151
X7.815Y-4.5276
X7.8179Y-5.2441
X7.8386Y-4.7598
X7.8386Y-4.8858
X7.8397Y-4.128
X7.8467Y-4.2461
X7.87Y-2.8543
X7.874Y-2.7559
X7.8976Y-5.0748
X7.9055Y-3.0079
X7.9133Y-2.5395
X7.9136Y-4.1634
X7.9163Y-4.5276
X7.9191Y-4.8404
X7.9203Y-5.2441
X7.9341Y-2.7447
X7.9518Y-4.5276
X7.9557Y-5.2441
X7.9697Y-4.0413
X8.0307Y-4.41
X8.0551Y-4.5472
X8.0632Y-4.3878
X8.1299Y-4.0787
X8.1614Y-4.0339
X8.2087Y-2.6811
X8.2126Y-3.9094
X8.2165Y-2.8465
X8.2283Y-4.8297
X8.2283Y-4.9646
X8.2283Y-4.7943
X8.2283Y-4.9272
X8.2638Y-2.9685
X8.2677Y-3.063
X8.2953Y-3.626
X8.2992Y-3.6929
X8.3376Y-4.6762
X8.3386Y-4.2047
X8.3386Y-4.7165
X8.341Y-4.2476
X8.35Y-4.7549
X8.3504Y-4.7931
X8.3583Y-4.2835
X8.3661Y-4.8543
X8.3819Y-3.0088
X8.3819Y-5.0591
X8.3898Y-3.8386
X8.3898Y-3.9921
X8.4016Y-4.4449
X8.4094Y-2.9724
X8.4252Y-2.7559
X8.4449Y-4.5472
X8.4449Y-3.0709
X8.4449Y-3.7913
X8.4685Y-4.2087
X8.4876Y-2.621
X8.5039Y-2.4803
X8.5528Y-3.2299
X8.5713Y-3.2647
X8.5787Y-4.8346
X8.5906Y-3.4252
X8.5945Y-2.874
X8.5948Y-4.7314
X8.5984Y-4.6614
X8.6033Y-4.1181
X8.6033Y-4.1614
X8.622Y-2.9921
X8.622Y-4.626
X8.6309Y-3.8465
X8.645Y-4.7195
X8.6535Y-4.6811
X8.6575Y-3.7047
X8.6614Y-3.752
X8.664Y-3.8251
X8.6654Y-4.813
X8.6811Y-4.5366
X8.7087Y-4.5709
X8.7283Y-4.374
X8.7595Y-4.6008
X8.7835Y-3.0157
X8.8406Y-5.0551
X8.8583Y-4.252
T8
X8.1998Y-3.7618
X8.1998Y-3.8118
X8.2498Y-3.7618
X8.2498Y-3.8118
T9
X5.9252Y-4.5276
X5.9252Y-4.6063
X5.9252Y-4.685
X5.9252Y-4.7638
X5.9252Y-4.8425
X5.9252Y-4.9213
X5.938Y-4.2913
X5.938Y-4.3701
X6.0039Y-4.5276
X6.0039Y-4.6063
X6.0039Y-4.685
X6.0039Y-4.7638
X6.0039Y-4.8425
X6.0039Y-4.9213
X6.0167Y-4.2913
X6.0167Y-4.3701
X6.1772Y-5.1614
X6.1772Y-5.2402
X6.2559Y-5.1614
X6.2559Y-5.2402
X6.4134Y-5.2362
X6.4134Y-4.8425
X6.4134Y-4.9213
X6.4134Y-5.0
X6.4134Y-5.0787
X6.4134Y-5.1575
X6.4921Y-4.8425
X6.4921Y-4.9213
X6.4921Y-5.0
X6.4921Y-5.0787
X6.4921Y-5.1575
X6.4921Y-5.2362
X6.6496Y-5.1604
X6.6496Y-5.2392
X6.6535Y-4.8455
X6.6535Y-4.9242
X6.7283Y-5.1604
X6.7283Y-5.2392
X6.7323Y-4.8455
X6.7323Y-4.9242
X6.8858Y-5.1624
X6.8858Y-5.2411
X6.8898Y-4.8455
X6.8898Y-4.9242
X6.9646Y-5.1624
X6.9646Y-5.2411
X6.9685Y-4.8455
X6.9685Y-4.9242
X7.126Y-5.0827
X7.126Y-5.1614
X7.2047Y-5.0827
X7.2047Y-5.1614
X8.748Y-2.4921
X8.748Y-2.5709
X8.748Y-2.6496
X8.748Y-2.7283
X8.748Y-2.8071
X8.748Y-2.8858
X8.8268Y-2.4921
X8.8268Y-2.5709
X8.8268Y-2.6496
X8.8268Y-2.7283
X8.8268Y-2.8071
X8.8268Y-2.8858
T10
X5.8661Y-5.1575
X6.0236Y-5.1575
X6.2598Y-4.9764
X7.1185Y-4.9144
X7.2185Y-4.9144
X7.2598Y-3.0866
X7.4094Y-3.0866
X7.5866Y-5.2598
X7.6457Y-3.3543
X7.6575Y-3.1201
X7.7362Y-4.8189
X8.0709Y-2.3697
X8.0709Y-2.4697
X8.0709Y-2.5697
X8.0709Y-2.6697
X8.0709Y-2.7697
X8.0709Y-2.8697
T12
X6.0433Y-2.3622
T13
X5.9433Y-2.2622
X5.9433Y-2.4622
X6.1433Y-2.2622
X6.1433Y-2.4622
T14
X5.7992Y-5.4331
X8.9488Y-5.4331
T7
G00X8.6917Y-3.0748
M15
G01X8.6484Y-3.0748
M16
G05
G00X8.6917Y-3.415
M15
G01X8.6484Y-3.415
M16
G05
G00X8.8465Y-3.0748
M15
G01X8.8228Y-3.0748
M16
G05
G00X8.8465Y-3.415
M15
G01X8.8228Y-3.415
M16
G05
T11
G00X8.4449Y-5.1417
M15
G01X8.4449Y-5.189
M16
G05
G00X8.6339Y-5.1417
M15
G01X8.6339Y-5.189
M16
G05
G00X8.8228Y-5.1417
M15
G01X8.8228Y-5.189
M16
G05
M30
