%TF.GenerationSoftware,KiCad,Pcbnew,9.0.0*%
%TF.CreationDate,2026-04-17T00:13:25-07:00*%
%TF.ProjectId,proves_radio_stick_V1,70726f76-6573-45f7-9261-64696f5f7374,rev?*%
%TF.SameCoordinates,Original*%
%TF.FileFunction,Copper,L1,Top*%
%TF.FilePolarity,Positive*%
%FSLAX46Y46*%
G04 Gerber Fmt 4.6, Leading zero omitted, Abs format (unit mm)*
G04 Created by KiCad (PCBNEW 9.0.0) date 2026-04-17 00:13:25*
%MOMM*%
%LPD*%
G01*
G04 APERTURE LIST*
G04 Aperture macros list*
%AMRoundRect*
0 Rectangle with rounded corners*
0 $1 Rounding radius*
0 $2 $3 $4 $5 $6 $7 $8 $9 X,Y pos of 4 corners*
0 Add a 4 corners polygon primitive as box body*
4,1,4,$2,$3,$4,$5,$6,$7,$8,$9,$2,$3,0*
0 Add four circle primitives for the rounded corners*
1,1,$1+$1,$2,$3*
1,1,$1+$1,$4,$5*
1,1,$1+$1,$6,$7*
1,1,$1+$1,$8,$9*
0 Add four rect primitives between the rounded corners*
20,1,$1+$1,$2,$3,$4,$5,0*
20,1,$1+$1,$4,$5,$6,$7,0*
20,1,$1+$1,$6,$7,$8,$9,0*
20,1,$1+$1,$8,$9,$2,$3,0*%
%AMRotRect*
0 Rectangle, with rotation*
0 The origin of the aperture is its center*
0 $1 length*
0 $2 width*
0 $3 Rotation angle, in degrees counterclockwise*
0 Add horizontal line*
21,1,$1,$2,0,0,$3*%
%AMFreePoly0*
4,1,18,-0.437500,0.050000,-0.433694,0.069134,-0.422855,0.085355,-0.406634,0.096194,-0.387500,0.100000,0.387500,0.100000,0.437500,0.050000,0.437500,-0.050000,0.433694,-0.069134,0.422855,-0.085355,0.406634,-0.096194,0.387500,-0.100000,-0.387500,-0.100000,-0.406634,-0.096194,-0.422855,-0.085355,-0.433694,-0.069134,-0.437500,-0.050000,-0.437500,0.050000,-0.437500,0.050000,$1*%
%AMFreePoly1*
4,1,18,-0.437500,0.050000,-0.433694,0.069134,-0.422855,0.085355,-0.406634,0.096194,-0.387500,0.100000,0.387500,0.100000,0.406634,0.096194,0.422855,0.085355,0.433694,0.069134,0.437500,0.050000,0.437500,-0.050000,0.387500,-0.100000,-0.387500,-0.100000,-0.406634,-0.096194,-0.422855,-0.085355,-0.433694,-0.069134,-0.437500,-0.050000,-0.437500,0.050000,-0.437500,0.050000,$1*%
%AMFreePoly2*
4,1,18,-0.100000,0.387500,-0.050000,0.437500,0.050000,0.437500,0.069134,0.433694,0.085355,0.422855,0.096194,0.406634,0.100000,0.387500,0.100000,-0.387500,0.096194,-0.406634,0.085355,-0.422855,0.069134,-0.433694,0.050000,-0.437500,-0.050000,-0.437500,-0.069134,-0.433694,-0.085355,-0.422855,-0.096194,-0.406634,-0.100000,-0.387500,-0.100000,0.387500,-0.100000,0.387500,$1*%
%AMFreePoly3*
4,1,18,-0.100000,0.387500,-0.096194,0.406634,-0.085355,0.422855,-0.069134,0.433694,-0.050000,0.437500,0.050000,0.437500,0.100000,0.387500,0.100000,-0.387500,0.096194,-0.406634,0.085355,-0.422855,0.069134,-0.433694,0.050000,-0.437500,-0.050000,-0.437500,-0.069134,-0.433694,-0.085355,-0.422855,-0.096194,-0.406634,-0.100000,-0.387500,-0.100000,0.387500,-0.100000,0.387500,$1*%
%AMFreePoly4*
4,1,18,-0.437500,0.050000,-0.433694,0.069134,-0.422855,0.085355,-0.406634,0.096194,-0.387500,0.100000,0.387500,0.100000,0.406634,0.096194,0.422855,0.085355,0.433694,0.069134,0.437500,0.050000,0.437500,-0.050000,0.433694,-0.069134,0.422855,-0.085355,0.406634,-0.096194,0.387500,-0.100000,-0.387500,-0.100000,-0.437500,-0.050000,-0.437500,0.050000,-0.437500,0.050000,$1*%
%AMFreePoly5*
4,1,18,-0.437500,0.050000,-0.387500,0.100000,0.387500,0.100000,0.406634,0.096194,0.422855,0.085355,0.433694,0.069134,0.437500,0.050000,0.437500,-0.050000,0.433694,-0.069134,0.422855,-0.085355,0.406634,-0.096194,0.387500,-0.100000,-0.387500,-0.100000,-0.406634,-0.096194,-0.422855,-0.085355,-0.433694,-0.069134,-0.437500,-0.050000,-0.437500,0.050000,-0.437500,0.050000,$1*%
%AMFreePoly6*
4,1,18,-0.100000,0.387500,-0.096194,0.406634,-0.085355,0.422855,-0.069134,0.433694,-0.050000,0.437500,0.050000,0.437500,0.069134,0.433694,0.085355,0.422855,0.096194,0.406634,0.100000,0.387500,0.100000,-0.387500,0.050000,-0.437500,-0.050000,-0.437500,-0.069134,-0.433694,-0.085355,-0.422855,-0.096194,-0.406634,-0.100000,-0.387500,-0.100000,0.387500,-0.100000,0.387500,$1*%
%AMFreePoly7*
4,1,18,-0.100000,0.387500,-0.096194,0.406634,-0.085355,0.422855,-0.069134,0.433694,-0.050000,0.437500,0.050000,0.437500,0.069134,0.433694,0.085355,0.422855,0.096194,0.406634,0.100000,0.387500,0.100000,-0.387500,0.096194,-0.406634,0.085355,-0.422855,0.069134,-0.433694,0.050000,-0.437500,-0.050000,-0.437500,-0.100000,-0.387500,-0.100000,0.387500,-0.100000,0.387500,$1*%
G04 Aperture macros list end*
%TA.AperFunction,SMDPad,CuDef*%
%ADD10RoundRect,0.162500X-0.650000X-0.162500X0.650000X-0.162500X0.650000X0.162500X-0.650000X0.162500X0*%
%TD*%
%TA.AperFunction,SMDPad,CuDef*%
%ADD11RoundRect,0.135000X-0.135000X-0.185000X0.135000X-0.185000X0.135000X0.185000X-0.135000X0.185000X0*%
%TD*%
%TA.AperFunction,SMDPad,CuDef*%
%ADD12RoundRect,0.135000X0.135000X0.185000X-0.135000X0.185000X-0.135000X-0.185000X0.135000X-0.185000X0*%
%TD*%
%TA.AperFunction,SMDPad,CuDef*%
%ADD13RoundRect,0.140000X-0.170000X0.140000X-0.170000X-0.140000X0.170000X-0.140000X0.170000X0.140000X0*%
%TD*%
%TA.AperFunction,SMDPad,CuDef*%
%ADD14RoundRect,0.135000X-0.035355X0.226274X-0.226274X0.035355X0.035355X-0.226274X0.226274X-0.035355X0*%
%TD*%
%TA.AperFunction,ComponentPad*%
%ADD15C,2.600000*%
%TD*%
%TA.AperFunction,ConnectorPad*%
%ADD16C,4.400000*%
%TD*%
%TA.AperFunction,SMDPad,CuDef*%
%ADD17R,0.900000X1.800000*%
%TD*%
%TA.AperFunction,SMDPad,CuDef*%
%ADD18R,1.800000X0.900000*%
%TD*%
%TA.AperFunction,SMDPad,CuDef*%
%ADD19R,0.900000X0.900000*%
%TD*%
%TA.AperFunction,SMDPad,CuDef*%
%ADD20RoundRect,0.135000X-0.185000X0.135000X-0.185000X-0.135000X0.185000X-0.135000X0.185000X0.135000X0*%
%TD*%
%TA.AperFunction,SMDPad,CuDef*%
%ADD21RoundRect,0.140000X0.170000X-0.140000X0.170000X0.140000X-0.170000X0.140000X-0.170000X-0.140000X0*%
%TD*%
%TA.AperFunction,SMDPad,CuDef*%
%ADD22RoundRect,0.135000X0.185000X-0.135000X0.185000X0.135000X-0.185000X0.135000X-0.185000X-0.135000X0*%
%TD*%
%TA.AperFunction,SMDPad,CuDef*%
%ADD23RoundRect,0.140000X-0.140000X-0.170000X0.140000X-0.170000X0.140000X0.170000X-0.140000X0.170000X0*%
%TD*%
%TA.AperFunction,SMDPad,CuDef*%
%ADD24R,1.700000X0.700000*%
%TD*%
%TA.AperFunction,SMDPad,CuDef*%
%ADD25RoundRect,0.250000X-0.250000X-0.475000X0.250000X-0.475000X0.250000X0.475000X-0.250000X0.475000X0*%
%TD*%
%TA.AperFunction,ComponentPad*%
%ADD26R,1.700000X1.700000*%
%TD*%
%TA.AperFunction,ComponentPad*%
%ADD27C,1.700000*%
%TD*%
%TA.AperFunction,SMDPad,CuDef*%
%ADD28RoundRect,0.225000X-0.225000X-0.250000X0.225000X-0.250000X0.225000X0.250000X-0.225000X0.250000X0*%
%TD*%
%TA.AperFunction,SMDPad,CuDef*%
%ADD29R,3.800000X1.200000*%
%TD*%
%TA.AperFunction,SMDPad,CuDef*%
%ADD30RoundRect,0.218750X0.256250X-0.218750X0.256250X0.218750X-0.256250X0.218750X-0.256250X-0.218750X0*%
%TD*%
%TA.AperFunction,ComponentPad*%
%ADD31C,2.050000*%
%TD*%
%TA.AperFunction,ComponentPad*%
%ADD32C,2.250000*%
%TD*%
%TA.AperFunction,SMDPad,CuDef*%
%ADD33RoundRect,0.140000X-0.021213X0.219203X-0.219203X0.021213X0.021213X-0.219203X0.219203X-0.021213X0*%
%TD*%
%TA.AperFunction,SMDPad,CuDef*%
%ADD34R,0.530000X0.470000*%
%TD*%
%TA.AperFunction,SMDPad,CuDef*%
%ADD35RoundRect,0.140000X0.219203X0.021213X0.021213X0.219203X-0.219203X-0.021213X-0.021213X-0.219203X0*%
%TD*%
%TA.AperFunction,SMDPad,CuDef*%
%ADD36RoundRect,0.125000X-0.125000X0.125000X-0.125000X-0.125000X0.125000X-0.125000X0.125000X0.125000X0*%
%TD*%
%TA.AperFunction,SMDPad,CuDef*%
%ADD37FreePoly0,270.000000*%
%TD*%
%TA.AperFunction,SMDPad,CuDef*%
%ADD38RoundRect,0.050000X-0.050000X0.387500X-0.050000X-0.387500X0.050000X-0.387500X0.050000X0.387500X0*%
%TD*%
%TA.AperFunction,SMDPad,CuDef*%
%ADD39FreePoly1,270.000000*%
%TD*%
%TA.AperFunction,SMDPad,CuDef*%
%ADD40FreePoly2,270.000000*%
%TD*%
%TA.AperFunction,SMDPad,CuDef*%
%ADD41RoundRect,0.050000X-0.387500X0.050000X-0.387500X-0.050000X0.387500X-0.050000X0.387500X0.050000X0*%
%TD*%
%TA.AperFunction,SMDPad,CuDef*%
%ADD42FreePoly3,270.000000*%
%TD*%
%TA.AperFunction,SMDPad,CuDef*%
%ADD43FreePoly4,270.000000*%
%TD*%
%TA.AperFunction,SMDPad,CuDef*%
%ADD44FreePoly5,270.000000*%
%TD*%
%TA.AperFunction,SMDPad,CuDef*%
%ADD45FreePoly6,270.000000*%
%TD*%
%TA.AperFunction,SMDPad,CuDef*%
%ADD46FreePoly7,270.000000*%
%TD*%
%TA.AperFunction,ComponentPad*%
%ADD47C,0.600000*%
%TD*%
%TA.AperFunction,SMDPad,CuDef*%
%ADD48RoundRect,0.153000X-1.547000X-1.547000X1.547000X-1.547000X1.547000X1.547000X-1.547000X1.547000X0*%
%TD*%
%TA.AperFunction,SMDPad,CuDef*%
%ADD49R,0.600000X0.250000*%
%TD*%
%TA.AperFunction,SMDPad,CuDef*%
%ADD50O,0.600000X0.250000*%
%TD*%
%TA.AperFunction,SMDPad,CuDef*%
%ADD51R,1.500000X0.300000*%
%TD*%
%TA.AperFunction,SMDPad,CuDef*%
%ADD52RoundRect,0.150000X0.150000X0.625000X-0.150000X0.625000X-0.150000X-0.625000X0.150000X-0.625000X0*%
%TD*%
%TA.AperFunction,SMDPad,CuDef*%
%ADD53RoundRect,0.250000X0.350000X0.650000X-0.350000X0.650000X-0.350000X-0.650000X0.350000X-0.650000X0*%
%TD*%
%TA.AperFunction,SMDPad,CuDef*%
%ADD54RoundRect,0.225000X0.250000X-0.225000X0.250000X0.225000X-0.250000X0.225000X-0.250000X-0.225000X0*%
%TD*%
%TA.AperFunction,SMDPad,CuDef*%
%ADD55RoundRect,0.140000X0.140000X0.170000X-0.140000X0.170000X-0.140000X-0.170000X0.140000X-0.170000X0*%
%TD*%
%TA.AperFunction,SMDPad,CuDef*%
%ADD56R,1.450000X0.600000*%
%TD*%
%TA.AperFunction,SMDPad,CuDef*%
%ADD57R,1.450000X0.300000*%
%TD*%
%TA.AperFunction,ComponentPad*%
%ADD58O,2.100000X1.000000*%
%TD*%
%TA.AperFunction,ComponentPad*%
%ADD59O,1.600000X1.000000*%
%TD*%
%TA.AperFunction,SMDPad,CuDef*%
%ADD60RotRect,1.400000X1.200000X225.000000*%
%TD*%
%TA.AperFunction,ViaPad*%
%ADD61C,0.560000*%
%TD*%
%TA.AperFunction,ViaPad*%
%ADD62C,0.460000*%
%TD*%
%TA.AperFunction,ViaPad*%
%ADD63C,0.600000*%
%TD*%
%TA.AperFunction,ViaPad*%
%ADD64C,0.800000*%
%TD*%
%TA.AperFunction,Conductor*%
%ADD65C,0.152400*%
%TD*%
%TA.AperFunction,Conductor*%
%ADD66C,0.500000*%
%TD*%
%TA.AperFunction,Conductor*%
%ADD67C,0.250000*%
%TD*%
%TA.AperFunction,Conductor*%
%ADD68C,0.127000*%
%TD*%
%TA.AperFunction,Conductor*%
%ADD69C,0.300000*%
%TD*%
%TA.AperFunction,Conductor*%
%ADD70C,0.200000*%
%TD*%
%TA.AperFunction,Conductor*%
%ADD71C,0.400000*%
%TD*%
%TA.AperFunction,Conductor*%
%ADD72C,0.342392*%
%TD*%
G04 APERTURE END LIST*
D10*
%TO.P,U11,1,~{CS}*%
%TO.N,BOOTSEL*%
X211012500Y-88505000D03*
%TO.P,U11,2,DO(IO1)*%
%TO.N,/QSPI_SD1*%
X211012500Y-89775000D03*
%TO.P,U11,3,IO2*%
%TO.N,/QSPI_SD2*%
X211012500Y-91045000D03*
%TO.P,U11,4,GND*%
%TO.N,GND*%
X211012500Y-92315000D03*
%TO.P,U11,5,DI(IO0)*%
%TO.N,/QSPI_SD0*%
X218187500Y-92315000D03*
%TO.P,U11,6,CLK*%
%TO.N,/QSPI_SCLK*%
X218187500Y-91045000D03*
%TO.P,U11,7,IO3*%
%TO.N,/QSPI_SD3*%
X218187500Y-89775000D03*
%TO.P,U11,8,VCC*%
%TO.N,+3V3*%
X218187500Y-88505000D03*
%TD*%
D11*
%TO.P,R7,1,1*%
%TO.N,USB_DM*%
X213479008Y-98903295D03*
%TO.P,R7,2,2*%
%TO.N,USB_D-*%
X214499006Y-98903295D03*
%TD*%
D12*
%TO.P,R94,1*%
%TO.N,+3V3*%
X213664620Y-102792382D03*
%TO.P,R94,2*%
%TO.N,/VREG_AVDD*%
X212644622Y-102792382D03*
%TD*%
D13*
%TO.P,C2,1*%
%TO.N,+3V3*%
X219800000Y-89320000D03*
%TO.P,C2,2*%
%TO.N,GND*%
X219800000Y-90280000D03*
%TD*%
D14*
%TO.P,R93,1*%
%TO.N,/XOUT*%
X200737826Y-98719448D03*
%TO.P,R93,2*%
%TO.N,Net-(C64-Pad1)*%
X200016578Y-99440696D03*
%TD*%
D15*
%TO.P,H2,1*%
%TO.N,N/C*%
X222000000Y-112000000D03*
D16*
X222000000Y-112000000D03*
%TD*%
D17*
%TO.P,U3,1,GND*%
%TO.N,GND*%
X173390001Y-108090000D03*
%TO.P,U3,2,GND*%
X174660001Y-108090000D03*
%TO.P,U3,3,GND*%
X175930001Y-108090000D03*
%TO.P,U3,4,GND*%
X181500001Y-108090000D03*
%TO.P,U3,5,GND*%
X182770001Y-108090000D03*
%TO.P,U3,6,RXEN*%
%TO.N,RF1_RX_EN*%
X184040001Y-108090000D03*
%TO.P,U3,7,TXEN*%
%TO.N,RF1_TX_EN*%
X185310001Y-108090000D03*
%TO.P,U3,8,DIO2*%
%TO.N,RF1_IO2*%
X186580001Y-108089999D03*
%TO.P,U3,9,VCC*%
%TO.N,+3V3*%
X187850001Y-108090000D03*
%TO.P,U3,10,GND*%
%TO.N,GND*%
X189120001Y-108090000D03*
%TO.P,U3,11,GND*%
X190390000Y-108090000D03*
D18*
%TO.P,U3,12,GND*%
X192390001Y-102989999D03*
%TO.P,U3,13,DIO3*%
%TO.N,RF1_IO3*%
X192390001Y-101720000D03*
%TO.P,U3,14,DIO4*%
%TO.N,RF1_IO4*%
X192390001Y-100450000D03*
%TO.P,U3,15,DIO5*%
%TO.N,RF1_IO5*%
X192390000Y-99180000D03*
D17*
%TO.P,U3,16,GND*%
%TO.N,GND*%
X190390000Y-94090000D03*
%TO.P,U3,17,DIO1*%
%TO.N,RF1_IO1*%
X189120001Y-94090000D03*
%TO.P,U3,18,DIO0*%
%TO.N,RF1_IO0*%
X187850001Y-94090000D03*
%TO.P,U3,19,RST*%
%TO.N,RF1_RST*%
X186580001Y-94090001D03*
%TO.P,U3,20,MISO*%
%TO.N,SPI1_MISO*%
X185310001Y-94090000D03*
%TO.P,U3,21,MOSI*%
%TO.N,SPI1_MOSI*%
X184040001Y-94090000D03*
%TO.P,U3,22,SCK*%
%TO.N,SPI1_SCK*%
X182770001Y-94090000D03*
%TO.P,U3,23,NSS*%
%TO.N,SPI1_CS0*%
X181500001Y-94090000D03*
%TO.P,U3,24,GND*%
%TO.N,GND*%
X175930001Y-94090000D03*
%TO.P,U3,25,ANT*%
%TO.N,Net-(J2-In)*%
X174660001Y-94090000D03*
%TO.P,U3,26,GND*%
%TO.N,GND*%
X173390001Y-94090000D03*
%TD*%
D19*
%TO.P,SW2,A,P*%
%TO.N,FC_RESET*%
X201100000Y-85270001D03*
%TO.P,SW2,A',P1*%
X201100000Y-89369999D03*
%TO.P,SW2,B,S*%
%TO.N,GND*%
X202700000Y-85270001D03*
%TO.P,SW2,B',S1*%
X202700000Y-89369999D03*
%TD*%
D20*
%TO.P,R27,1,1*%
%TO.N,GND*%
X215163500Y-94401500D03*
%TO.P,R27,2,2*%
%TO.N,Net-(J12-CC2)*%
X215163500Y-95421500D03*
%TD*%
D21*
%TO.P,C72,1*%
%TO.N,+3V3*%
X205079462Y-93160755D03*
%TO.P,C72,2*%
%TO.N,GND*%
X205079462Y-92200755D03*
%TD*%
D22*
%TO.P,R26,1,1*%
%TO.N,GND*%
X215163500Y-101211500D03*
%TO.P,R26,2,2*%
%TO.N,Net-(J12-CC1)*%
X215163500Y-100191500D03*
%TD*%
D11*
%TO.P,R6,1,1*%
%TO.N,SCL0*%
X206390000Y-86650000D03*
%TO.P,R6,2,2*%
%TO.N,+3V3*%
X207410000Y-86650000D03*
%TD*%
D23*
%TO.P,C73,1*%
%TO.N,+3V3*%
X209301722Y-93762629D03*
%TO.P,C73,2*%
%TO.N,GND*%
X210261722Y-93762629D03*
%TD*%
D12*
%TO.P,R3,1,1*%
%TO.N,Net-(U2-FB)*%
X220668500Y-105161500D03*
%TO.P,R3,2,2*%
%TO.N,GND*%
X219648500Y-105161500D03*
%TD*%
D24*
%TO.P,L3,1,1*%
%TO.N,+1V1*%
X213564743Y-100041773D03*
%TO.P,L3,2,2*%
%TO.N,/VREG_LX*%
X213564743Y-101441773D03*
%TD*%
D23*
%TO.P,C1,1*%
%TO.N,+3V3*%
X187870000Y-109790000D03*
%TO.P,C1,2*%
%TO.N,GND*%
X188830000Y-109790000D03*
%TD*%
D22*
%TO.P,R5,1,1*%
%TO.N,RF1_RST*%
X206090000Y-93169999D03*
%TO.P,R5,2,2*%
%TO.N,+3V3*%
X206090000Y-92150001D03*
%TD*%
D25*
%TO.P,C3,1*%
%TO.N,+3V3*%
X187670000Y-111400000D03*
%TO.P,C3,2*%
%TO.N,GND*%
X189570000Y-111400000D03*
%TD*%
D11*
%TO.P,R25,1,1*%
%TO.N,SDA0*%
X206390000Y-87600000D03*
%TO.P,R25,2,2*%
%TO.N,+3V3*%
X207410000Y-87600000D03*
%TD*%
D26*
%TO.P,J1,1,Pin_1*%
%TO.N,SWDIO*%
X200100000Y-106890000D03*
D27*
%TO.P,J1,2,Pin_2*%
%TO.N,GND*%
X197560000Y-106890000D03*
%TO.P,J1,3,Pin_3*%
%TO.N,SWCLK*%
X195020001Y-106890000D03*
%TD*%
D28*
%TO.P,C75,1*%
%TO.N,+3V3*%
X208025000Y-104350000D03*
%TO.P,C75,2*%
%TO.N,GND*%
X209575000Y-104350000D03*
%TD*%
D29*
%TO.P,L1,1,1*%
%TO.N,Net-(U2-SW)*%
X213358500Y-107551500D03*
%TO.P,L1,2,2*%
%TO.N,+3V3*%
X213358500Y-105171500D03*
%TD*%
D23*
%TO.P,C74,1*%
%TO.N,+3V3*%
X213509007Y-96923396D03*
%TO.P,C74,2*%
%TO.N,GND*%
X214469007Y-96923396D03*
%TD*%
D30*
%TO.P,D3,1,K*%
%TO.N,GND*%
X209920000Y-108367501D03*
%TO.P,D3,2,A*%
%TO.N,Net-(D3-A)*%
X209920000Y-106792499D03*
%TD*%
D22*
%TO.P,R4,1,1*%
%TO.N,+3V3*%
X220958500Y-107971500D03*
%TO.P,R4,2,2*%
%TO.N,Net-(U2-FB)*%
X220958500Y-106951500D03*
%TD*%
D20*
%TO.P,R1,1,1*%
%TO.N,+3V3*%
X204170000Y-88470001D03*
%TO.P,R1,2,2*%
%TO.N,FC_RESET*%
X204170000Y-89489999D03*
%TD*%
D22*
%TO.P,R39,1,1*%
%TO.N,SCL1*%
X205402477Y-90379999D03*
%TO.P,R39,2,2*%
%TO.N,+3V3*%
X205402477Y-89360001D03*
%TD*%
D31*
%TO.P,J2,1,In*%
%TO.N,Net-(J2-In)*%
X174710000Y-88610000D03*
D32*
%TO.P,J2,2,Ext*%
%TO.N,GND*%
X172170000Y-86070000D03*
X172170000Y-91150000D03*
X177250000Y-86070000D03*
X177250000Y-91150000D03*
%TD*%
D33*
%TO.P,C70,1*%
%TO.N,+1V1*%
X201370687Y-99394735D03*
%TO.P,C70,2*%
%TO.N,GND*%
X200691865Y-100073557D03*
%TD*%
D34*
%TO.P,C66,1*%
%TO.N,+1V1*%
X212009108Y-100085351D03*
%TO.P,C66,2*%
%TO.N,GND*%
X212009108Y-101115351D03*
%TD*%
D35*
%TO.P,C63,1*%
%TO.N,/XIN*%
X201176232Y-97262807D03*
%TO.P,C63,2*%
%TO.N,GND*%
X200497410Y-96583985D03*
%TD*%
D15*
%TO.P,H4,1*%
%TO.N,N/C*%
X222000000Y-87000000D03*
D16*
X222000000Y-87000000D03*
%TD*%
D23*
%TO.P,C76,1*%
%TO.N,+3V3*%
X208650000Y-103120000D03*
%TO.P,C76,2*%
%TO.N,GND*%
X209610000Y-103120000D03*
%TD*%
D20*
%TO.P,R2,1*%
%TO.N,+3V3*%
X209390000Y-87860001D03*
%TO.P,R2,2*%
%TO.N,BOOTSEL*%
X209390000Y-88879999D03*
%TD*%
D11*
%TO.P,R8,1,1*%
%TO.N,USB_DP*%
X213479008Y-97913345D03*
%TO.P,R8,2,2*%
%TO.N,USB_D+*%
X214499006Y-97913345D03*
%TD*%
D15*
%TO.P,H3,1*%
%TO.N,N/C*%
X167000000Y-87000000D03*
D16*
X167000000Y-87000000D03*
%TD*%
D13*
%TO.P,C67,1*%
%TO.N,+1V1*%
X206790660Y-103118484D03*
%TO.P,C67,2*%
%TO.N,GND*%
X206790660Y-104078484D03*
%TD*%
D36*
%TO.P,D4,1,K*%
%TO.N,/USBBOOT*%
X209000000Y-90542501D03*
%TO.P,D4,2,A*%
%TO.N,Net-(D4-A)*%
X209000000Y-92742499D03*
%TD*%
D37*
%TO.P,U18,1,IOVDD*%
%TO.N,+3V3*%
X208912799Y-95112241D03*
D38*
%TO.P,U18,2,GPIO0*%
%TO.N,TX*%
X208512799Y-95112242D03*
%TO.P,U18,3,GPIO1*%
%TO.N,RX*%
X208112799Y-95112242D03*
%TO.P,U18,4,GPIO2*%
%TO.N,SDA1*%
X207712799Y-95112242D03*
%TO.P,U18,5,GPIO3*%
%TO.N,SCL1*%
X207312800Y-95112242D03*
%TO.P,U18,6,DVDD*%
%TO.N,+1V1*%
X206912799Y-95112242D03*
%TO.P,U18,7,GPIO4*%
%TO.N,SDA0*%
X206512799Y-95112242D03*
%TO.P,U18,8,GPIO5*%
%TO.N,SCL0*%
X206112799Y-95112241D03*
%TO.P,U18,9,GPIO6*%
%TO.N,RF1_RST*%
X205712799Y-95112242D03*
%TO.P,U18,10,GPIO7*%
%TO.N,unconnected-(U18-GPIO7-Pad10)*%
X205312799Y-95112242D03*
%TO.P,U18,11,IOVDD*%
%TO.N,+3V3*%
X204912798Y-95112242D03*
%TO.P,U18,12,GPIO8*%
%TO.N,SPI1_MISO*%
X204512799Y-95112242D03*
%TO.P,U18,13,GPIO9*%
%TO.N,SPI1_CS0*%
X204112799Y-95112242D03*
%TO.P,U18,14,GPIO10*%
%TO.N,SPI1_SCK*%
X203712799Y-95112242D03*
D39*
%TO.P,U18,15,GPIO11*%
%TO.N,SPI1_MOSI*%
X203312799Y-95112241D03*
D40*
%TO.P,U18,16,GPIO12*%
%TO.N,unconnected-(U18-GPIO12-Pad16)*%
X202675298Y-95749742D03*
D41*
%TO.P,U18,17,GPIO13*%
%TO.N,unconnected-(U18-GPIO13-Pad17)*%
X202675299Y-96149742D03*
%TO.P,U18,18,GPIO14*%
%TO.N,RF1_IO0*%
X202675299Y-96549742D03*
%TO.P,U18,19,GPIO15*%
%TO.N,RF1_IO1*%
X202675299Y-96949742D03*
%TO.P,U18,20,IOVDD*%
%TO.N,+3V3*%
X202675299Y-97349741D03*
%TO.P,U18,21,XIN*%
%TO.N,/XIN*%
X202675299Y-97749742D03*
%TO.P,U18,22,XOUT*%
%TO.N,/XOUT*%
X202675299Y-98149742D03*
%TO.P,U18,23,DVDD*%
%TO.N,+1V1*%
X202675298Y-98549742D03*
%TO.P,U18,24,SWCLK*%
%TO.N,SWCLK*%
X202675299Y-98949742D03*
%TO.P,U18,25,SWD*%
%TO.N,SWDIO*%
X202675299Y-99349742D03*
%TO.P,U18,26,RUN*%
%TO.N,FC_RESET*%
X202675299Y-99749743D03*
%TO.P,U18,27,GPIO16*%
%TO.N,RF1_IO2*%
X202675299Y-100149742D03*
%TO.P,U18,28,GPIO17*%
%TO.N,RF1_IO3*%
X202675299Y-100549742D03*
%TO.P,U18,29,GPIO18*%
%TO.N,RF1_IO4*%
X202675299Y-100949742D03*
D42*
%TO.P,U18,30,IOVDD*%
%TO.N,+3V3*%
X202675298Y-101349742D03*
D43*
%TO.P,U18,31,GPIO19*%
%TO.N,RF1_IO5*%
X203312799Y-101987243D03*
D38*
%TO.P,U18,32,GPIO20*%
%TO.N,RF1_RX_EN*%
X203712799Y-101987242D03*
%TO.P,U18,33,GPIO21*%
%TO.N,RF1_TX_EN*%
X204112799Y-101987242D03*
%TO.P,U18,34,GPIO22*%
%TO.N,unconnected-(U18-GPIO22-Pad34)*%
X204512799Y-101987242D03*
%TO.P,U18,35,GPIO23*%
%TO.N,unconnected-(U18-GPIO23-Pad35)*%
X204912798Y-101987242D03*
%TO.P,U18,36,GPIO24*%
%TO.N,unconnected-(U18-GPIO24-Pad36)*%
X205312799Y-101987242D03*
%TO.P,U18,37,GPIO25*%
%TO.N,unconnected-(U18-GPIO25-Pad37)*%
X205712799Y-101987242D03*
%TO.P,U18,38,IOVDD*%
%TO.N,+3V3*%
X206112799Y-101987243D03*
%TO.P,U18,39,DVDD*%
%TO.N,+1V1*%
X206512799Y-101987242D03*
%TO.P,U18,40,GPIO26_ADC0*%
%TO.N,unconnected-(U18-GPIO26_ADC0-Pad40)*%
X206912799Y-101987242D03*
%TO.P,U18,41,GPIO27_ADC1*%
%TO.N,unconnected-(U18-GPIO27_ADC1-Pad41)*%
X207312800Y-101987242D03*
%TO.P,U18,42,GPIO28_ADC2*%
%TO.N,unconnected-(U18-GPIO28_ADC2-Pad42)*%
X207712799Y-101987242D03*
%TO.P,U18,43,GPIO29_ADC3*%
%TO.N,unconnected-(U18-GPIO29_ADC3-Pad43)*%
X208112799Y-101987242D03*
%TO.P,U18,44,ADC_AVDD*%
%TO.N,+3V3*%
X208512799Y-101987242D03*
D44*
%TO.P,U18,45,IOVDD*%
X208912799Y-101987243D03*
D45*
%TO.P,U18,46,VREG_AVDD*%
%TO.N,/VREG_AVDD*%
X209550300Y-101349742D03*
D41*
%TO.P,U18,47,VREG_PGND*%
%TO.N,GND*%
X209550299Y-100949742D03*
%TO.P,U18,48,VREG_LX*%
%TO.N,/VREG_LX*%
X209550299Y-100549742D03*
%TO.P,U18,49,VREG_VIN*%
%TO.N,+3V3*%
X209550299Y-100149742D03*
%TO.P,U18,50,VREG_FB*%
%TO.N,+1V1*%
X209550299Y-99749743D03*
%TO.P,U18,51,USB_DM*%
%TO.N,USB_DM*%
X209550299Y-99349742D03*
%TO.P,U18,52,USB_DP*%
%TO.N,USB_DP*%
X209550299Y-98949742D03*
%TO.P,U18,53,USB_OTP_VDD*%
%TO.N,+3V3*%
X209550300Y-98549742D03*
%TO.P,U18,54,QSPI_IOVDD*%
X209550299Y-98149742D03*
%TO.P,U18,55,QSPI_SD3*%
%TO.N,/QSPI_SD3*%
X209550299Y-97749742D03*
%TO.P,U18,56,QSPI_SCLK*%
%TO.N,/QSPI_SCLK*%
X209550299Y-97349741D03*
%TO.P,U18,57,QSPI_SD0*%
%TO.N,/QSPI_SD0*%
X209550299Y-96949742D03*
%TO.P,U18,58,QSPI_SD2*%
%TO.N,/QSPI_SD2*%
X209550299Y-96549742D03*
%TO.P,U18,59,QSPI_SD1*%
%TO.N,/QSPI_SD1*%
X209550299Y-96149742D03*
D46*
%TO.P,U18,60,QSPI_SS*%
%TO.N,BOOTSEL*%
X209550300Y-95749742D03*
D47*
%TO.P,U18,61,GND*%
%TO.N,GND*%
X207487799Y-97174742D03*
X206112799Y-97174742D03*
X204737799Y-97174742D03*
X207487799Y-98549742D03*
X206112799Y-98549742D03*
D48*
X206112799Y-98549742D03*
D47*
X204737799Y-98549742D03*
X207487799Y-99924742D03*
X206112799Y-99924742D03*
X204737799Y-99924742D03*
%TD*%
D49*
%TO.P,U2,1,EN*%
%TO.N,VBUS*%
X219338500Y-108211500D03*
D50*
%TO.P,U2,2,PG*%
%TO.N,unconnected-(U2-PG-Pad2)*%
X219328500Y-107711500D03*
%TO.P,U2,3,FB*%
%TO.N,Net-(U2-FB)*%
X219328500Y-107211500D03*
%TO.P,U2,4,VOS*%
%TO.N,+3V3*%
X219328500Y-106711500D03*
D51*
%TO.P,U2,5,GND*%
%TO.N,GND*%
X217978500Y-106861500D03*
%TO.P,U2,6,SW*%
%TO.N,Net-(U2-SW)*%
X217978500Y-107461500D03*
%TO.P,U2,7,VIN*%
%TO.N,VBUS*%
X217978500Y-108061500D03*
%TD*%
D13*
%TO.P,C77,1*%
%TO.N,+3V3*%
X205871421Y-103118484D03*
%TO.P,C77,2*%
%TO.N,GND*%
X205871421Y-104078484D03*
%TD*%
D20*
%TO.P,R11,1,1*%
%TO.N,GND*%
X194020000Y-103440001D03*
%TO.P,R11,2,2*%
%TO.N,RF1_RX_EN*%
X194020000Y-104459999D03*
%TD*%
D21*
%TO.P,C69,1*%
%TO.N,+1V1*%
X207130071Y-93514309D03*
%TO.P,C69,2*%
%TO.N,GND*%
X207130071Y-92554309D03*
%TD*%
D12*
%TO.P,R12,1,1*%
%TO.N,GND*%
X204929999Y-104020000D03*
%TO.P,R12,2,2*%
%TO.N,RF1_TX_EN*%
X203910001Y-104020000D03*
%TD*%
D52*
%TO.P,J22,1,Pin_1*%
%TO.N,SWDIO*%
X206360000Y-105795000D03*
%TO.P,J22,2,Pin_2*%
%TO.N,GND*%
X205360000Y-105795001D03*
%TO.P,J22,3,Pin_3*%
%TO.N,SWCLK*%
X204360000Y-105795000D03*
D53*
%TO.P,J22,MP*%
%TO.N,N/C*%
X207660000Y-108320001D03*
X203060000Y-108320001D03*
%TD*%
D54*
%TO.P,C15,1,1*%
%TO.N,VBUS*%
X216358500Y-108236500D03*
%TO.P,C15,2,2*%
%TO.N,GND*%
X216358500Y-106686500D03*
%TD*%
D13*
%TO.P,C64,1*%
%TO.N,Net-(C64-Pad1)*%
X198998345Y-99978930D03*
%TO.P,C64,2*%
%TO.N,GND*%
X198998345Y-100938930D03*
%TD*%
D19*
%TO.P,SW1,A,P*%
%TO.N,/USBBOOT*%
X197800000Y-85270002D03*
%TO.P,SW1,A',P1*%
X197800000Y-89370000D03*
%TO.P,SW1,B,S*%
%TO.N,GND*%
X199400000Y-85270002D03*
%TO.P,SW1,B',S1*%
X199400000Y-89370000D03*
%TD*%
D55*
%TO.P,C68,1*%
%TO.N,/VREG_AVDD*%
X211797001Y-102792382D03*
%TO.P,C68,2*%
%TO.N,GND*%
X210837001Y-102792382D03*
%TD*%
D34*
%TO.P,C65,1*%
%TO.N,+3V3*%
X211019159Y-100085351D03*
%TO.P,C65,2*%
%TO.N,GND*%
X211019159Y-101115351D03*
%TD*%
D56*
%TO.P,J12,A1,GND*%
%TO.N,GND*%
X216935000Y-102140000D03*
%TO.P,J12,A4,VBUS*%
%TO.N,VBUS*%
X216935000Y-101340001D03*
D57*
%TO.P,J12,A5,CC1*%
%TO.N,Net-(J12-CC1)*%
X216935001Y-100140000D03*
%TO.P,J12,A6,D+*%
%TO.N,USB_D+*%
X216935000Y-99140000D03*
%TO.P,J12,A7,D-*%
%TO.N,USB_D-*%
X216935000Y-98640000D03*
%TO.P,J12,A8,SBU1*%
%TO.N,unconnected-(J12-SBU1-PadA8)*%
X216935001Y-97640000D03*
D56*
%TO.P,J12,A9,VBUS*%
%TO.N,VBUS*%
X216935000Y-96439999D03*
%TO.P,J12,A12,GND*%
%TO.N,GND*%
X216935000Y-95640000D03*
%TO.P,J12,B1,GND*%
X216935000Y-95640000D03*
%TO.P,J12,B4,VBUS*%
%TO.N,VBUS*%
X216935000Y-96439999D03*
D57*
%TO.P,J12,B5,CC2*%
%TO.N,Net-(J12-CC2)*%
X216935000Y-97140000D03*
%TO.P,J12,B6,D+*%
%TO.N,USB_D+*%
X216935000Y-98140000D03*
%TO.P,J12,B7,D-*%
%TO.N,USB_D-*%
X216935000Y-99640000D03*
%TO.P,J12,B8,SBU2*%
%TO.N,unconnected-(J12-SBU2-PadB8)*%
X216935000Y-100640000D03*
D56*
%TO.P,J12,B9,VBUS*%
%TO.N,VBUS*%
X216935000Y-101340001D03*
%TO.P,J12,B12,GND*%
%TO.N,GND*%
X216935000Y-102140000D03*
D58*
%TO.P,J12,S1,SHIELD*%
X217850000Y-103210000D03*
D59*
X222030000Y-103210000D03*
D58*
X217850000Y-94570000D03*
D59*
X222030000Y-94570000D03*
%TD*%
D12*
%TO.P,R80,1,1*%
%TO.N,+3V3*%
X210409999Y-105580000D03*
%TO.P,R80,2,2*%
%TO.N,Net-(D3-A)*%
X209390001Y-105580000D03*
%TD*%
D22*
%TO.P,R41,1,1*%
%TO.N,SDA1*%
X206350000Y-90389385D03*
%TO.P,R41,2,2*%
%TO.N,+3V3*%
X206350000Y-89369387D03*
%TD*%
D60*
%TO.P,Y1,1,1*%
%TO.N,/XIN*%
X197902328Y-96534487D03*
%TO.P,Y1,2,2*%
%TO.N,GND*%
X196346693Y-98090122D03*
%TO.P,Y1,3,3*%
%TO.N,Net-(C64-Pad1)*%
X197548774Y-99292203D03*
%TO.P,Y1,4,4*%
%TO.N,GND*%
X199104409Y-97736568D03*
%TD*%
D13*
%TO.P,C78,1*%
%TO.N,+3V3*%
X201473217Y-102595225D03*
%TO.P,C78,2*%
%TO.N,GND*%
X201473217Y-103555225D03*
%TD*%
D35*
%TO.P,C71,1*%
%TO.N,+3V3*%
X200699411Y-95419411D03*
%TO.P,C71,2*%
%TO.N,GND*%
X200020589Y-94740589D03*
%TD*%
D22*
%TO.P,R10,1,1*%
%TO.N,BOOTSEL*%
X211210000Y-94779999D03*
%TO.P,R10,2,2*%
%TO.N,Net-(D4-A)*%
X211210000Y-93760001D03*
%TD*%
D11*
%TO.P,R9,1,1*%
%TO.N,SPI1_CS0*%
X202980000Y-91180000D03*
%TO.P,R9,2,2*%
%TO.N,+3V3*%
X204000000Y-91180000D03*
%TD*%
D28*
%TO.P,C14,1,1*%
%TO.N,+3V3*%
X216383500Y-105161500D03*
%TO.P,C14,2,2*%
%TO.N,GND*%
X217933500Y-105161500D03*
%TD*%
D15*
%TO.P,H2,1*%
%TO.N,N/C*%
X167000000Y-112000000D03*
D16*
X167000000Y-112000000D03*
%TD*%
D61*
%TO.N,GND*%
X182870000Y-109290000D03*
D62*
X197230577Y-95721315D03*
D61*
X202700000Y-86200000D03*
D62*
X196382048Y-100246798D03*
X195745652Y-99610402D03*
D61*
X176000000Y-95900000D03*
D62*
X199069054Y-95014208D03*
X199200000Y-88520001D03*
D61*
X220300000Y-90300000D03*
X212518920Y-92005508D03*
X210750000Y-108410000D03*
X215200000Y-102120000D03*
X206338112Y-104149194D03*
D62*
X215120378Y-96923396D03*
D61*
X210425189Y-94307101D03*
D62*
X209976361Y-102491677D03*
D61*
X190700000Y-111400000D03*
D62*
X197230577Y-100812483D03*
X195109256Y-98974006D03*
D61*
X181530000Y-109300000D03*
D62*
X207044793Y-91902938D03*
X196382048Y-96569843D03*
D61*
X174600000Y-109610000D03*
D62*
X199300000Y-86320001D03*
D61*
X173400000Y-96000000D03*
D62*
X204888172Y-91508285D03*
X194897124Y-98196188D03*
X195604231Y-97347660D03*
D61*
X173400000Y-109580000D03*
X175950000Y-109650000D03*
X189650000Y-109780000D03*
D62*
X205850207Y-104567220D03*
D61*
X218208500Y-106161500D03*
D62*
X200792725Y-97922936D03*
D61*
X217358500Y-106161500D03*
X218658500Y-104261500D03*
D62*
X210807027Y-101661012D03*
X199846872Y-95792024D03*
D61*
X217708500Y-104161500D03*
X191230000Y-94170000D03*
D63*
X202206133Y-103383877D03*
D62*
X199935260Y-100273606D03*
X202420000Y-94800000D03*
X211938398Y-101661012D03*
D61*
X219099269Y-106108935D03*
X202700000Y-88500000D03*
D62*
X198079105Y-94872786D03*
D64*
X199600000Y-94350000D03*
D61*
X193880000Y-102820000D03*
X190400000Y-109770000D03*
%TO.N,+3V3*%
X219893865Y-106013541D03*
D62*
X214200283Y-102792383D03*
D61*
X208690000Y-87840000D03*
X204130000Y-87720000D03*
D62*
X203513680Y-97532376D03*
D61*
X205900000Y-91380000D03*
D62*
X212504083Y-97701214D03*
X209696798Y-94326782D03*
D63*
X208473574Y-101024615D03*
D62*
X208817335Y-98134389D03*
D61*
X221908500Y-108411500D03*
D62*
X202081746Y-101932630D03*
D63*
X205390589Y-103226573D03*
D61*
X210500000Y-104750000D03*
D62*
X204787936Y-95942130D03*
D61*
X203990000Y-90530000D03*
X216358500Y-104311500D03*
%TO.N,VBUS*%
X218720000Y-100830000D03*
X219830000Y-108730000D03*
X220178917Y-108268364D03*
%TO.N,/USBBOOT*%
X198800000Y-87700000D03*
X208300000Y-90600000D03*
%TO.N,/QSPI_SD1*%
X213086706Y-92573294D03*
X213070000Y-90910000D03*
%TO.N,/QSPI_SD3*%
X214418124Y-95018124D03*
X215960000Y-91390000D03*
%TO.N,/QSPI_SD0*%
X217028124Y-92408124D03*
X215601537Y-92261538D03*
%TO.N,FC_RESET*%
X202220000Y-90370000D03*
D62*
X200111249Y-100951250D03*
%TO.N,SWCLK*%
X203566152Y-98937250D03*
%TO.N,SWDIO*%
X203594538Y-99681113D03*
D61*
%TO.N,RF1_IO2*%
X203581552Y-100390997D03*
X186700000Y-109610000D03*
%TO.N,RF1_RST*%
X187270000Y-92452800D03*
X205730000Y-94070000D03*
%TO.N,RF1_IO5*%
X198751041Y-104021882D03*
X194430000Y-99520000D03*
%TO.N,RF1_IO4*%
X195400000Y-100960000D03*
X196420000Y-102086200D03*
%TO.N,RF1_IO1*%
X199020000Y-93670000D03*
D62*
X203541506Y-96764297D03*
D61*
%TO.N,SPI1_CS0*%
X203330000Y-92920000D03*
X202250000Y-91200000D03*
%TO.N,SPI1_MOSI*%
X200580000Y-91340400D03*
X201440000Y-92452800D03*
%TO.N,SPI1_SCK*%
X202668243Y-92452799D03*
X201470000Y-91270000D03*
D62*
%TO.N,unconnected-(U18-GPIO7-Pad10)*%
X205681816Y-96066340D03*
%TO.N,+1V1*%
X211655555Y-99610402D03*
X208242799Y-99662248D03*
X212433372Y-99610402D03*
D61*
%TO.N,BOOTSEL*%
X209480000Y-89600000D03*
X212000000Y-93400000D03*
%TD*%
D65*
%TO.N,GND*%
X210277065Y-102792382D02*
X209976361Y-102491677D01*
D66*
X188830000Y-110455000D02*
X189395000Y-111020000D01*
D67*
X205360000Y-105795001D02*
X205360000Y-105057427D01*
D68*
X210496123Y-100965894D02*
X210736316Y-101206087D01*
D65*
X192840003Y-103440001D02*
X192390001Y-102989999D01*
X204929999Y-104020000D02*
X205812937Y-104020000D01*
X204853918Y-91542538D02*
X204853918Y-91975212D01*
D67*
X206790660Y-104078484D02*
X206719950Y-104149194D01*
D65*
X190390000Y-94090000D02*
X191150000Y-94090000D01*
X175930001Y-109630001D02*
X175950000Y-109650000D01*
X182770001Y-108090000D02*
X182770001Y-109190001D01*
D67*
X210261722Y-93762629D02*
X210425189Y-93926096D01*
D65*
X175930001Y-108090000D02*
X175930001Y-109630001D01*
D67*
X209610000Y-102858038D02*
X209976361Y-102491677D01*
D65*
X210837002Y-102792382D02*
X210277065Y-102792382D01*
D67*
X200020589Y-94740589D02*
X199990589Y-94740589D01*
X209575000Y-103155000D02*
X209575000Y-104350000D01*
D66*
X189570000Y-111400000D02*
X190700000Y-111400000D01*
X173390001Y-92370001D02*
X172170000Y-91150000D01*
D65*
X202700000Y-85270001D02*
X202700000Y-86200000D01*
D66*
X190390000Y-108090000D02*
X190390000Y-109760000D01*
D65*
X207130071Y-92554309D02*
X207044793Y-92469031D01*
D69*
X199400000Y-88720001D02*
X199200000Y-88520001D01*
D66*
X175930001Y-95830001D02*
X176000000Y-95900000D01*
D65*
X174660001Y-108090000D02*
X174660001Y-109549999D01*
X174660001Y-109549999D02*
X174600000Y-109610000D01*
X202700000Y-89369999D02*
X202700000Y-88500000D01*
D67*
X216915000Y-102120000D02*
X216935000Y-102140000D01*
D65*
X220280000Y-90280000D02*
X220300000Y-90300000D01*
X191150000Y-94090000D02*
X191230000Y-94170000D01*
X206338112Y-104149194D02*
X206790660Y-104149194D01*
D67*
X216935000Y-102295000D02*
X217850000Y-103210000D01*
D66*
X189640000Y-109790000D02*
X189650000Y-109780000D01*
D65*
X195067395Y-98225038D02*
X196587675Y-98225038D01*
D67*
X209610000Y-103120000D02*
X209610000Y-102858038D01*
D66*
X188830000Y-108380001D02*
X189120001Y-108090000D01*
D70*
X214469007Y-96923396D02*
X215120378Y-96923396D01*
D67*
X215163500Y-94401500D02*
X217681500Y-94401500D01*
D65*
X207044793Y-92469031D02*
X207044793Y-91902938D01*
X200491815Y-100273606D02*
X199935260Y-100273606D01*
D69*
X199399999Y-85270001D02*
X199400000Y-86220001D01*
D67*
X217681500Y-94401500D02*
X217850000Y-94570000D01*
D65*
X173390001Y-109570001D02*
X173400000Y-109580000D01*
D67*
X210425189Y-93926096D02*
X210425189Y-94307101D01*
D65*
X194020000Y-103440001D02*
X192840003Y-103440001D01*
D67*
X216935000Y-95640000D02*
X216935000Y-95485000D01*
D71*
X216833500Y-106686500D02*
X217358500Y-106161500D01*
D67*
X206719950Y-104149194D02*
X206338112Y-104149194D01*
D65*
X211532500Y-92315000D02*
X212209428Y-92315000D01*
D71*
X217978500Y-106861500D02*
X216533500Y-106861500D01*
X216358500Y-106686500D02*
X216833500Y-106686500D01*
D67*
X215163500Y-101211500D02*
X215163500Y-102083500D01*
D65*
X221910000Y-103330000D02*
X222030000Y-103210000D01*
X211019159Y-101115351D02*
X212009108Y-101115351D01*
X196346693Y-98090122D02*
X195604231Y-97347660D01*
D67*
X216935000Y-102140000D02*
X216935000Y-102295000D01*
D65*
X202700000Y-88500000D02*
X202700000Y-89370001D01*
X181500001Y-108090000D02*
X181500001Y-109270001D01*
X212209428Y-92315000D02*
X212518920Y-92005508D01*
D68*
X202034786Y-103555225D02*
X201473217Y-103555225D01*
D65*
X173390001Y-108090000D02*
X173390001Y-109570001D01*
X205812937Y-104020000D02*
X205871421Y-104078484D01*
D66*
X189650000Y-109780000D02*
X190390000Y-109780000D01*
X188830000Y-109790000D02*
X189640000Y-109790000D01*
X188830000Y-109790000D02*
X188830000Y-108380001D01*
D65*
X204853918Y-91975212D02*
X205079462Y-92200756D01*
D66*
X175930001Y-92469999D02*
X177250000Y-91150000D01*
D65*
X194020000Y-102960000D02*
X193880000Y-102820000D01*
X205942132Y-104149194D02*
X206338112Y-104149194D01*
X199528674Y-98054768D02*
X199660504Y-97922936D01*
X219800000Y-90280000D02*
X220280000Y-90280000D01*
X209920000Y-108367501D02*
X210707501Y-108367501D01*
X182770001Y-109190001D02*
X182870000Y-109290000D01*
D68*
X202206133Y-103383877D02*
X202034786Y-103555225D01*
D67*
X215163500Y-102083500D02*
X215200000Y-102120000D01*
X221805000Y-94345000D02*
X222030000Y-94570000D01*
D66*
X188830000Y-109790000D02*
X188830000Y-110455000D01*
D71*
X216533500Y-106861500D02*
X216358500Y-106686500D01*
D65*
X210707501Y-108367501D02*
X210750000Y-108410000D01*
D69*
X199400000Y-89370001D02*
X199400000Y-88720001D01*
D66*
X189120001Y-108090000D02*
X190390000Y-108090000D01*
D67*
X209610000Y-103120000D02*
X209575000Y-103155000D01*
D65*
X195038546Y-98196187D02*
X195067395Y-98225038D01*
D67*
X216935000Y-95640000D02*
X216402000Y-95640000D01*
D66*
X175930001Y-94090000D02*
X175930001Y-92469999D01*
X190390000Y-109760000D02*
X190400000Y-109770000D01*
D65*
X181500001Y-109270001D02*
X181530000Y-109300000D01*
X200691864Y-100073557D02*
X200491815Y-100273606D01*
X196587675Y-98225038D02*
X196770957Y-98408320D01*
X202700000Y-86200000D02*
X202700000Y-88500000D01*
X194020000Y-103440001D02*
X194020000Y-102960000D01*
D66*
X175930001Y-94090000D02*
X175930001Y-95830001D01*
D67*
X216402000Y-95640000D02*
X215163500Y-94401500D01*
X221955000Y-103285000D02*
X222030000Y-103210000D01*
D65*
X205850207Y-104099698D02*
X205850207Y-104567220D01*
D68*
X209521053Y-100965894D02*
X210496123Y-100965894D01*
D66*
X190390000Y-109780000D02*
X190400000Y-109770000D01*
D67*
X199990589Y-94740589D02*
X199600000Y-94350000D01*
D65*
X205871421Y-104078484D02*
X205942132Y-104149194D01*
D67*
X216935000Y-95485000D02*
X217850000Y-94570000D01*
D65*
X204888172Y-91508285D02*
X204853918Y-91542538D01*
D66*
X173390001Y-94090000D02*
X173390001Y-92370001D01*
D65*
X205871421Y-104078484D02*
X205850207Y-104099698D01*
D67*
X215200000Y-102120000D02*
X216915000Y-102120000D01*
D66*
X173390001Y-94090000D02*
X173390001Y-95990001D01*
D69*
X199400000Y-86220001D02*
X199300000Y-86320001D01*
D67*
X205360000Y-105057427D02*
X205850207Y-104567220D01*
D65*
X199660504Y-97922936D02*
X200792725Y-97922936D01*
D66*
X173390001Y-95990001D02*
X173400000Y-96000000D01*
D65*
%TO.N,+3V3*%
X209550300Y-98549742D02*
X209400846Y-98400288D01*
X208912799Y-95112241D02*
X209696798Y-94328243D01*
D66*
X187850001Y-111014999D02*
X187845000Y-111020000D01*
D65*
X204170000Y-88470001D02*
X204170000Y-87760000D01*
D68*
X212504083Y-97701214D02*
X212291951Y-97489082D01*
D65*
X204000000Y-90540000D02*
X203990000Y-90530000D01*
D68*
X212504083Y-97701214D02*
X212362662Y-97701214D01*
D65*
X208512800Y-101987242D02*
X208512800Y-101063841D01*
X200699411Y-95903293D02*
X200699411Y-95419411D01*
X208512800Y-101987242D02*
X208512800Y-100685625D01*
X203207622Y-97349741D02*
X202675299Y-97349741D01*
X209301723Y-93931707D02*
X209301722Y-93762629D01*
X209550300Y-98549742D02*
X209786782Y-98549742D01*
X209509970Y-98149742D02*
X209330135Y-98329577D01*
X206112799Y-102877106D02*
X205871421Y-103118484D01*
X209550299Y-98149742D02*
X209509970Y-98149742D01*
D68*
X212433372Y-97630503D02*
X212433372Y-97347660D01*
D70*
X219893865Y-106146135D02*
X219893865Y-106013541D01*
D65*
X210709970Y-100149741D02*
X210736316Y-100176087D01*
X219800000Y-89320000D02*
X218985000Y-88505000D01*
X202145859Y-97349741D02*
X200699411Y-95903293D01*
D68*
X212291951Y-97489082D02*
X212433372Y-97347660D01*
D65*
X210409999Y-105580000D02*
X210409999Y-104840001D01*
X208710001Y-87860001D02*
X208690000Y-87840000D01*
X204787936Y-95942130D02*
X204912799Y-95817267D01*
X209550299Y-98149742D02*
X209550299Y-98250834D01*
X209786782Y-98549742D02*
X210170631Y-98165894D01*
X208512800Y-101987242D02*
X208512800Y-102925680D01*
D70*
X219328500Y-106711500D02*
X219893865Y-106146135D01*
D65*
X213664621Y-102792382D02*
X214200283Y-102792383D01*
X208512800Y-101063841D02*
X208473574Y-101024615D01*
D68*
X212079819Y-97701214D02*
X212504083Y-97701214D01*
D65*
X209390000Y-87860001D02*
X208710001Y-87860001D01*
D70*
X208912799Y-101987242D02*
X208912799Y-102312368D01*
D65*
X205390589Y-103226573D02*
X205763333Y-103226572D01*
X209330135Y-98329577D02*
X209134948Y-98134388D01*
X209400846Y-98400288D02*
X209330135Y-98329577D01*
D67*
X208650000Y-103725000D02*
X208025000Y-104350000D01*
D68*
X211674440Y-98106594D02*
X211726266Y-98054768D01*
D65*
X209550299Y-100149741D02*
X210709970Y-100149741D01*
D72*
X221083500Y-108411500D02*
X220958500Y-108286500D01*
D65*
X202675299Y-101349742D02*
X202092412Y-101932630D01*
X206112799Y-101987242D02*
X206112799Y-102877106D01*
X209550300Y-98549742D02*
X209550299Y-98149742D01*
X201473217Y-102541157D02*
X201473217Y-102595225D01*
D68*
X211726266Y-98054768D02*
X212079819Y-97701214D01*
D72*
X221908500Y-108411500D02*
X221083500Y-108411500D01*
D65*
X209550299Y-98250834D02*
X209400846Y-98400288D01*
X204912798Y-93327418D02*
X205079461Y-93160755D01*
X202092412Y-101932630D02*
X202081746Y-101932630D01*
X202675299Y-97349741D02*
X202145859Y-97349741D01*
D68*
X209521053Y-98165894D02*
X210170631Y-98165894D01*
D66*
X187850001Y-108090000D02*
X187850001Y-111014999D01*
D65*
X204912799Y-95817267D02*
X204912799Y-95112242D01*
X203513680Y-97532376D02*
X203390257Y-97532376D01*
D68*
X212857636Y-96923396D02*
X213509009Y-96923396D01*
D65*
X208512800Y-101987242D02*
X208912799Y-101987242D01*
X202675299Y-101349742D02*
X202675299Y-101393145D01*
D68*
X212433372Y-97347660D02*
X212857636Y-96923396D01*
D65*
X212950000Y-105580000D02*
X213358500Y-105171500D01*
X206090000Y-92150001D02*
X206090000Y-91570000D01*
D68*
X210229931Y-98106594D02*
X211674440Y-98106594D01*
D65*
X202081746Y-101932630D02*
X201473217Y-102541157D01*
X208512800Y-100685625D02*
X209048683Y-100149741D01*
D68*
X212362662Y-97701214D02*
X212221240Y-97559792D01*
D65*
X209134948Y-98134388D02*
X208817335Y-98134389D01*
X205763333Y-103226572D02*
X205871421Y-103118484D01*
X204912799Y-95112242D02*
X204912798Y-93327418D01*
X206090000Y-91570000D02*
X205900000Y-91380000D01*
X209696798Y-94326782D02*
X209301723Y-93931707D01*
D72*
X216383500Y-104336500D02*
X216358500Y-104311500D01*
D65*
X203390257Y-97532376D02*
X203207622Y-97349741D01*
D68*
X210170631Y-98165894D02*
X210229931Y-98106594D01*
D72*
X216383500Y-105161500D02*
X216383500Y-104336500D01*
D65*
X210409999Y-105580000D02*
X212950000Y-105580000D01*
X210409999Y-104840001D02*
X210500000Y-104750000D01*
X209048683Y-100149741D02*
X209550299Y-100149741D01*
D68*
X211726266Y-98054768D02*
X212221240Y-97559792D01*
D65*
X209696798Y-94328243D02*
X209696798Y-94326782D01*
X204000000Y-91180000D02*
X204000000Y-90540000D01*
X218985000Y-88505000D02*
X218187500Y-88505000D01*
D68*
X212504083Y-97701214D02*
X212433372Y-97630503D01*
D67*
X208650000Y-103120000D02*
X208650000Y-103725000D01*
D65*
X204170000Y-87760000D02*
X204130000Y-87720000D01*
D68*
X212221240Y-97559792D02*
X212291951Y-97489082D01*
D71*
%TO.N,VBUS*%
X217978500Y-108061500D02*
X216533500Y-108061500D01*
X219830000Y-108703000D02*
X219830000Y-108730000D01*
X219830000Y-108730000D02*
X216852000Y-108730000D01*
X216935000Y-96439999D02*
X217716912Y-96439999D01*
X217716912Y-96439999D02*
X218720000Y-97443087D01*
X219830000Y-108730000D02*
X219830000Y-108617281D01*
X217978500Y-108061500D02*
X218154500Y-108237500D01*
X218154500Y-108237500D02*
X219364500Y-108237500D01*
X219830000Y-108617281D02*
X220178917Y-108268364D01*
X218226913Y-100830000D02*
X218720000Y-100830000D01*
X217716912Y-101340001D02*
X218226913Y-100830000D01*
X216533500Y-108061500D02*
X216358500Y-108236500D01*
X218720000Y-97443087D02*
X218720000Y-100830000D01*
X216852000Y-108730000D02*
X216358500Y-108236500D01*
X216935000Y-101340001D02*
X217716912Y-101340001D01*
D65*
%TO.N,/XIN*%
X202675299Y-97749741D02*
X201663167Y-97749742D01*
X198644790Y-96534487D02*
X198326592Y-96852685D01*
X201176232Y-97262807D02*
X200327704Y-97262807D01*
X200327704Y-97262807D02*
X199599384Y-96534487D01*
X201361793Y-97139064D02*
X201299976Y-97139064D01*
X199599384Y-96534487D02*
X198644790Y-96534487D01*
X201663167Y-97749742D02*
X201176232Y-97262807D01*
%TO.N,/VREG_AVDD*%
X211172831Y-102168212D02*
X211797001Y-102792382D01*
X209550300Y-101349742D02*
X210368770Y-102168212D01*
X211797001Y-102792382D02*
X212645480Y-102792382D01*
X210368770Y-102168212D02*
X211172831Y-102168212D01*
%TO.N,/USBBOOT*%
X208300000Y-90600000D02*
X208942501Y-90600000D01*
X197800000Y-88700000D02*
X198800000Y-87700000D01*
X208942501Y-90600000D02*
X209000000Y-90542501D01*
X197800000Y-89370001D02*
X197800001Y-85270001D01*
X197800000Y-89370000D02*
X197800000Y-88700000D01*
%TO.N,/VREG_LX*%
X210105325Y-100603152D02*
X212436171Y-100603152D01*
X210051916Y-100549742D02*
X210105325Y-100603152D01*
X212436171Y-100603152D02*
X213274794Y-101441773D01*
X213274794Y-101441773D02*
X213564743Y-101441773D01*
X209550299Y-100549741D02*
X210051916Y-100549742D01*
%TO.N,/XOUT*%
X202675299Y-98149742D02*
X201307533Y-98149742D01*
X201307533Y-98149742D02*
X200737825Y-98719448D01*
D68*
X202618716Y-98193231D02*
X202646054Y-98165894D01*
D65*
%TO.N,/QSPI_SD1*%
X213070000Y-90910000D02*
X211935000Y-89775000D01*
X209521053Y-96165894D02*
X210786711Y-96165895D01*
X210786711Y-96165895D02*
X213086706Y-93865900D01*
X211935000Y-89775000D02*
X211532500Y-89775000D01*
X213086706Y-93865900D02*
X213086706Y-92573294D01*
%TO.N,/QSPI_SD3*%
X215960000Y-91390000D02*
X217575000Y-89775000D01*
X217575000Y-89775000D02*
X218707500Y-89775000D01*
X213211190Y-96004156D02*
X211449454Y-97765892D01*
X213211190Y-96004156D02*
X213432092Y-96004156D01*
X213432092Y-96004156D02*
X214418124Y-95018124D01*
X211449454Y-97765892D02*
X209521053Y-97765893D01*
%TO.N,/QSPI_SD2*%
X213700000Y-92400001D02*
X212344999Y-91045000D01*
X209521053Y-96565893D02*
X210952397Y-96565893D01*
X212344999Y-91045000D02*
X211532500Y-91045000D01*
X213700000Y-93818290D02*
X213700000Y-92400001D01*
X210952397Y-96565893D02*
X213700000Y-93818290D01*
%TO.N,/QSPI_SD0*%
X209521053Y-96965894D02*
X211118082Y-96965894D01*
X217028124Y-92408124D02*
X217056248Y-92380000D01*
X218642500Y-92380000D02*
X218707500Y-92315000D01*
X215601537Y-92482439D02*
X215601537Y-92261538D01*
X217056248Y-92380000D02*
X218642500Y-92380000D01*
X211118082Y-96965894D02*
X215601537Y-92482439D01*
%TO.N,/QSPI_SCLK*%
X209521053Y-97365894D02*
X211283767Y-97365894D01*
X217604661Y-91045000D02*
X218707500Y-91045000D01*
X211283767Y-97365894D02*
X217604661Y-91045000D01*
%TO.N,Net-(D3-A)*%
X209390001Y-105580000D02*
X209390001Y-106262500D01*
X209390001Y-106262500D02*
X209920000Y-106792499D01*
%TO.N,Net-(D4-A)*%
X211210000Y-93760001D02*
X210624999Y-93175000D01*
X209432501Y-93175000D02*
X209000000Y-92742499D01*
X210624999Y-93175000D02*
X209432501Y-93175000D01*
%TO.N,SDA1*%
X207712799Y-95112242D02*
X207712799Y-94365578D01*
X207712799Y-94365578D02*
X208269600Y-93808777D01*
%TO.N,SCL1*%
X207763398Y-93815195D02*
X207763398Y-91835296D01*
X207312800Y-95112242D02*
X207312800Y-94265794D01*
X207312800Y-94265794D02*
X207763398Y-93815195D01*
%TO.N,SDA0*%
X206535598Y-94587827D02*
X206538592Y-94584833D01*
X206512799Y-95112242D02*
X206535598Y-95089442D01*
X206535598Y-95089442D02*
X206535598Y-94587827D01*
%TO.N,FC_RESET*%
X201125000Y-85245001D02*
X201100000Y-85270001D01*
X202220000Y-90370000D02*
X202100001Y-90370000D01*
X204170000Y-89562000D02*
X204170000Y-89489999D01*
X200872392Y-100951250D02*
X202073901Y-99749742D01*
X200111249Y-100951250D02*
X200872392Y-100951250D01*
X202220000Y-90370000D02*
X203362000Y-90370000D01*
X202100001Y-90370000D02*
X201100000Y-89369999D01*
X203362000Y-90370000D02*
X204170000Y-89562000D01*
X202073901Y-99749742D02*
X202675299Y-99749742D01*
X201100000Y-85270001D02*
X201100000Y-89370001D01*
%TO.N,SWCLK*%
X203558148Y-98945253D02*
X203468695Y-98945253D01*
X203468695Y-98945253D02*
X203464207Y-98949741D01*
D67*
X204060000Y-105495000D02*
X196415001Y-105495000D01*
D65*
X203566152Y-98937250D02*
X203558148Y-98945253D01*
D67*
X196415001Y-105495000D02*
X195020001Y-106890000D01*
X204360000Y-105795000D02*
X204060000Y-105495000D01*
D65*
X203464207Y-98949741D02*
X202675299Y-98949741D01*
%TO.N,SWDIO*%
X203263167Y-99349742D02*
X203594538Y-99681113D01*
D67*
X206033998Y-106896001D02*
X206360000Y-106569999D01*
D65*
X202675299Y-99349742D02*
X203263167Y-99349742D01*
D67*
X200100000Y-106890000D02*
X200106000Y-106896000D01*
X206360000Y-106569999D02*
X206360000Y-105795000D01*
X200106000Y-106896000D02*
X206033998Y-106896001D01*
D65*
%TO.N,RF1_TX_EN*%
X202397200Y-105092800D02*
X187137200Y-105092800D01*
X187137200Y-105092800D02*
X185310001Y-106919999D01*
X185310001Y-106919999D02*
X185310001Y-108090000D01*
X204112799Y-101987242D02*
X204112799Y-103377201D01*
X204112799Y-103377201D02*
X202397200Y-105092800D01*
%TO.N,RF1_IO2*%
X203340297Y-100149742D02*
X203581552Y-100390997D01*
X202418802Y-100149741D02*
X202396004Y-100172540D01*
X186700000Y-109610000D02*
X186580001Y-109490001D01*
X202675299Y-100149741D02*
X202418802Y-100149741D01*
X202675299Y-100149742D02*
X203340297Y-100149742D01*
X186580001Y-109490001D02*
X186580001Y-108089999D01*
%TO.N,RF1_RX_EN*%
X202166678Y-104739400D02*
X186756201Y-104739400D01*
X186756201Y-104739400D02*
X184040001Y-107455600D01*
X203712799Y-101987242D02*
X203712799Y-103193279D01*
X203712799Y-103193279D02*
X202166678Y-104739400D01*
X184040001Y-107455600D02*
X184040001Y-108090000D01*
%TO.N,RF1_IO3*%
X202675299Y-100549741D02*
X202690553Y-100564996D01*
X200793426Y-101530000D02*
X192600000Y-101530000D01*
X201773684Y-100549742D02*
X200793426Y-101530000D01*
X202675299Y-100549742D02*
X201773684Y-100549742D01*
%TO.N,RF1_RST*%
X186580001Y-94090001D02*
X186580001Y-93142799D01*
X205730000Y-94070000D02*
X205730000Y-93529999D01*
X205730000Y-93529999D02*
X206090000Y-93169999D01*
X205730000Y-95095041D02*
X205712799Y-95112242D01*
X186580001Y-93142799D02*
X187270000Y-92452800D01*
X205730000Y-94070000D02*
X205730000Y-95095041D01*
%TO.N,RF1_IO5*%
X192669999Y-99060000D02*
X192599999Y-98990000D01*
X202293870Y-104112425D02*
X198841584Y-104112425D01*
X198841584Y-104112425D02*
X198751041Y-104021882D01*
X203312799Y-102084171D02*
X203312799Y-101987242D01*
X194430000Y-99520000D02*
X193970000Y-99060000D01*
X203312799Y-103093496D02*
X202293870Y-104112425D01*
X203312799Y-101987243D02*
X203312799Y-103093496D01*
X193970000Y-99060000D02*
X192669999Y-99060000D01*
D68*
%TO.N,RF1_IO4*%
X202168335Y-100965894D02*
X201048029Y-102086200D01*
X195400000Y-100960000D02*
X194700000Y-100260000D01*
X201048029Y-102086200D02*
X196420000Y-102086200D01*
X194700000Y-100260000D02*
X192600000Y-100260000D01*
X202168335Y-100965894D02*
X202646054Y-100965894D01*
D65*
%TO.N,RF1_IO0*%
X188657600Y-92250000D02*
X188060000Y-92847600D01*
X198637200Y-93112800D02*
X197774400Y-92250000D01*
X199320506Y-93112800D02*
X198637200Y-93112800D01*
X197774400Y-92250000D02*
X188657600Y-92250000D01*
X202675299Y-96549742D02*
X201845644Y-96549742D01*
X201338558Y-96042656D02*
X201338558Y-95130852D01*
X201338558Y-95130852D02*
X199320506Y-93112800D01*
X188060000Y-92847600D02*
X188060000Y-93900000D01*
X201845644Y-96549742D02*
X201338558Y-96042656D01*
%TO.N,RF1_IO1*%
X189330000Y-92847600D02*
X189330000Y-93900000D01*
X189574200Y-92603400D02*
X189330000Y-92847600D01*
X203339908Y-96965895D02*
X202646054Y-96965895D01*
X203541506Y-96764297D02*
X203339908Y-96965895D01*
X197403400Y-92603400D02*
X189574200Y-92603400D01*
X198470000Y-93670000D02*
X197403400Y-92603400D01*
X199020000Y-93670000D02*
X198470000Y-93670000D01*
D70*
%TO.N,USB_D-*%
X217912000Y-98640000D02*
X217961000Y-98689000D01*
X214769005Y-98903295D02*
X215505710Y-99640000D01*
X217961000Y-98689000D02*
X217961000Y-99468000D01*
X217961000Y-99468000D02*
X217789000Y-99640000D01*
X215505710Y-99640000D02*
X216935000Y-99640000D01*
X214499006Y-98903295D02*
X214769005Y-98903295D01*
X217789000Y-99640000D02*
X216935000Y-99640000D01*
X216935000Y-98640000D02*
X217912000Y-98640000D01*
%TO.N,USB_D+*%
X215958000Y-99140000D02*
X216935000Y-99140000D01*
X214725661Y-98140000D02*
X215390000Y-98140000D01*
X215390000Y-98572000D02*
X215958000Y-99140000D01*
X215390000Y-98140000D02*
X216935000Y-98140000D01*
X215390000Y-98140000D02*
X215390000Y-98572000D01*
X214499006Y-97913345D02*
X214725661Y-98140000D01*
D65*
%TO.N,unconnected-(U18-GPIO28_ADC2-Pad42)*%
X207712799Y-101987242D02*
X207695757Y-102004284D01*
D67*
%TO.N,Net-(J12-CC1)*%
X216935001Y-100140000D02*
X215215000Y-100140000D01*
X215215000Y-100140000D02*
X215163500Y-100191500D01*
%TO.N,Net-(J12-CC2)*%
X215884000Y-96142000D02*
X215884000Y-97065999D01*
X215958001Y-97140000D02*
X216935000Y-97140000D01*
X215163500Y-95421500D02*
X215884000Y-96142000D01*
X215884000Y-97065999D02*
X215958001Y-97140000D01*
D65*
%TO.N,SPI1_CS0*%
X204135598Y-95089443D02*
X204135598Y-93650888D01*
X204112799Y-95112242D02*
X204135598Y-95089443D01*
X203735959Y-93251249D02*
X203661249Y-93251249D01*
X202960000Y-91200000D02*
X202980000Y-91180000D01*
X201479800Y-90429800D02*
X184127800Y-90429800D01*
X181710000Y-92847600D02*
X181710000Y-93900000D01*
X204135598Y-93650888D02*
X203735959Y-93251249D01*
X202250000Y-91200000D02*
X202960000Y-91200000D01*
X184127800Y-90429800D02*
X181710000Y-92847600D01*
X203661249Y-93251249D02*
X203330000Y-92920000D01*
X202250000Y-91200000D02*
X201479800Y-90429800D01*
%TO.N,SPI1_MOSI*%
X203311695Y-94381695D02*
X203311695Y-95111137D01*
X184250000Y-93900000D02*
X184250000Y-92847600D01*
X185757200Y-91340400D02*
X200580000Y-91340400D01*
X203311695Y-95111137D02*
X203312799Y-95112241D01*
X184250000Y-92847600D02*
X185757200Y-91340400D01*
X201440000Y-92452800D02*
X201440000Y-92510000D01*
X201440000Y-92510000D02*
X203311695Y-94381695D01*
%TO.N,SPI1_SCK*%
X203735959Y-94265959D02*
X203735959Y-95089082D01*
X185044400Y-90783200D02*
X200983200Y-90783200D01*
X182980000Y-92847600D02*
X185044400Y-90783200D01*
X202668243Y-92452799D02*
X202668243Y-93198243D01*
X200983200Y-90783200D02*
X201470000Y-91270000D01*
X202668243Y-93198243D02*
X203735959Y-94265959D01*
X203735959Y-95089082D02*
X203712799Y-95112242D01*
X182980000Y-93900000D02*
X182980000Y-92847600D01*
%TO.N,SPI1_MISO*%
X186471000Y-91896600D02*
X203146600Y-91896600D01*
X204492262Y-93477445D02*
X204512800Y-93497983D01*
X203146600Y-91896600D02*
X204492262Y-93242262D01*
X185520000Y-92847600D02*
X186471000Y-91896600D01*
X204512800Y-93497983D02*
X204512800Y-95112242D01*
X185520000Y-93900000D02*
X185520000Y-92847600D01*
X204492262Y-93242262D02*
X204492262Y-93477445D01*
%TO.N,unconnected-(U18-GPIO7-Pad10)*%
X205681816Y-96066340D02*
X205568536Y-96066340D01*
X205312799Y-95810603D02*
X205312799Y-95112242D01*
X205568536Y-96066340D02*
X205312799Y-95810603D01*
%TO.N,Net-(C64-Pad1)*%
X200016578Y-99440696D02*
X199478343Y-99978930D01*
X199478343Y-99978930D02*
X198341567Y-99978930D01*
X198341567Y-99978930D02*
X197973039Y-99610402D01*
%TO.N,+1V1*%
X203877380Y-98408320D02*
X204098788Y-98408320D01*
X210500340Y-99573151D02*
X210323750Y-99749741D01*
X208090000Y-99963955D02*
X208090000Y-99751823D01*
X201370687Y-99352738D02*
X201370687Y-99394733D01*
X206912800Y-95112242D02*
X206912801Y-96365549D01*
X206912801Y-96355269D02*
X207130071Y-96572541D01*
X204135599Y-100279176D02*
X204386064Y-100529641D01*
X206493675Y-100741773D02*
X206705807Y-100529641D01*
X208090000Y-99539691D02*
X208090000Y-96820308D01*
X203877380Y-98408320D02*
X203886656Y-98408320D01*
X211534159Y-99610402D02*
X211496908Y-99573151D01*
X204386064Y-100529641D02*
X206281543Y-100529641D01*
X208090000Y-99539691D02*
X208120021Y-99539691D01*
X207839534Y-100529641D02*
X208090000Y-100279175D01*
X204098788Y-98408320D02*
X204135599Y-98445131D01*
X206917939Y-95117382D02*
X206917939Y-96572541D01*
X206512799Y-101987242D02*
X206512799Y-102840623D01*
X203877380Y-98408320D02*
X203923467Y-98408320D01*
X208120021Y-99963955D02*
X208090000Y-99963955D01*
X206493675Y-100529641D02*
X206705807Y-100529641D01*
X207130071Y-96572541D02*
X206917939Y-96572541D01*
X204098788Y-96857118D02*
X204098788Y-98196188D01*
X208090000Y-99751823D02*
X208090000Y-99539691D01*
X202173683Y-98549742D02*
X201370687Y-99352738D01*
X211496908Y-99573151D02*
X210500340Y-99573151D01*
X206912801Y-96365549D02*
X206705807Y-96572541D01*
X211655555Y-99610402D02*
X212433372Y-99610402D01*
X206493675Y-100741773D02*
X206493675Y-100529641D01*
X206281543Y-100529641D02*
X206493675Y-100529641D01*
X208332153Y-99751823D02*
X208090000Y-99751823D01*
X211655555Y-99610402D02*
X211534159Y-99610402D01*
X209548218Y-99751823D02*
X208332153Y-99751823D01*
X202675299Y-98549742D02*
X202173683Y-98549742D01*
X203886656Y-98408320D02*
X204098788Y-98196188D01*
X207842233Y-96572542D02*
X207130071Y-96572541D01*
X208090000Y-100279175D02*
X208090000Y-99963955D01*
X203877380Y-98408320D02*
X203377792Y-98408320D01*
X206705807Y-100529641D02*
X207839534Y-100529641D01*
X204135599Y-98445131D02*
X204135599Y-100279176D01*
X208332153Y-99751823D02*
X208120021Y-99963955D01*
X206917939Y-96572541D02*
X206705807Y-96572541D01*
X206512799Y-102840623D02*
X206790661Y-103118485D01*
X208120021Y-99539691D02*
X208332153Y-99751823D01*
X203236371Y-98549742D02*
X202675299Y-98549742D01*
X209550299Y-99749742D02*
X209548218Y-99751823D01*
X206705807Y-96572541D02*
X204383366Y-96572541D01*
X206912800Y-95112242D02*
X206912801Y-96355269D01*
X206912800Y-93731580D02*
X207130071Y-93514308D01*
X208090000Y-96820308D02*
X207842233Y-96572542D01*
X203377792Y-98408320D02*
X203236371Y-98549742D01*
X206790660Y-103103509D02*
X206790660Y-103189195D01*
X206512799Y-100760896D02*
X206493675Y-100741773D01*
X206912800Y-95112242D02*
X206917939Y-95117382D01*
X204383366Y-96572541D02*
X204098788Y-96857118D01*
X206912800Y-95112242D02*
X206912800Y-93731580D01*
X210323750Y-99749741D02*
X209550299Y-99749742D01*
X206512799Y-100760896D02*
X206281543Y-100529641D01*
X206512799Y-101987242D02*
X206512799Y-100760896D01*
X204098788Y-98196188D02*
X204098788Y-98408320D01*
%TO.N,BOOTSEL*%
X212000000Y-93989999D02*
X212000000Y-93400000D01*
X211012500Y-88505000D02*
X209764999Y-88505000D01*
X211210000Y-95176919D02*
X211210000Y-94779999D01*
X209480000Y-89600000D02*
X209480000Y-88969999D01*
X210665605Y-95721314D02*
X211210000Y-95176919D01*
D68*
X209521053Y-95765894D02*
X209523208Y-95763741D01*
D65*
X209578727Y-95721315D02*
X210665605Y-95721314D01*
X209764999Y-88505000D02*
X209390000Y-88879999D01*
X209550300Y-95749742D02*
X209578727Y-95721315D01*
X211210000Y-94779999D02*
X212000000Y-93989999D01*
X209480000Y-88969999D02*
X209390000Y-88879999D01*
%TO.N,USB_DP*%
X210331202Y-98742724D02*
X210594895Y-98479032D01*
X210124185Y-98949741D02*
X210331202Y-98742724D01*
X213125302Y-98267052D02*
X213479008Y-97913346D01*
X212155491Y-98474071D02*
X212357547Y-98272014D01*
X210124185Y-98949741D02*
X210124184Y-98949741D01*
X212362509Y-98267052D02*
X213125302Y-98267052D01*
X212150530Y-98479032D02*
X212150530Y-98479030D01*
X212357547Y-98272014D02*
X212362509Y-98267052D01*
X212150530Y-98479030D02*
X212155491Y-98474071D01*
X210594895Y-98479032D02*
X212150531Y-98479031D01*
X212150531Y-98479031D02*
X212150530Y-98479032D01*
X209550299Y-98949741D02*
X210124185Y-98949741D01*
%TO.N,USB_DM*%
X210270567Y-99303141D02*
X210270567Y-99303143D01*
X210270567Y-99303141D02*
X210477585Y-99096124D01*
X210741277Y-98832432D02*
X212296913Y-98832432D01*
X212508891Y-98620452D02*
X213196165Y-98620452D01*
X212296913Y-98832432D02*
X212503930Y-98625413D01*
X209550299Y-99349742D02*
X210223967Y-99349742D01*
X212503930Y-98625413D02*
X212508891Y-98620452D01*
X210477585Y-99096124D02*
X210741277Y-98832432D01*
X213196165Y-98620452D02*
X213479008Y-98903295D01*
X210223967Y-99349742D02*
X210270567Y-99303141D01*
D67*
%TO.N,Net-(U2-SW)*%
X217978500Y-107461500D02*
X215858500Y-107461500D01*
D66*
X213267000Y-107551500D02*
X215514758Y-107551500D01*
X215606258Y-107551500D02*
X215696258Y-107461500D01*
D67*
%TO.N,Net-(U2-FB)*%
X220958500Y-106951500D02*
X220958500Y-105451500D01*
D70*
X219708500Y-107211500D02*
X220283500Y-106636500D01*
X220283500Y-106636500D02*
X220958500Y-106636500D01*
D67*
X220958500Y-105451500D02*
X220668500Y-105161500D01*
D70*
X219328500Y-107211500D02*
X219708500Y-107211500D01*
D65*
%TO.N,unconnected-(U18-GPIO12-Pad16)*%
X202675298Y-95749742D02*
X202675298Y-95468024D01*
%TO.N,unconnected-(U18-GPIO13-Pad17)*%
X202675299Y-96149742D02*
X202175068Y-96149742D01*
X201691958Y-95666632D02*
X201691958Y-94984468D01*
X202175068Y-96149742D02*
X201691958Y-95666632D01*
%TD*%
%TA.AperFunction,Conductor*%
%TO.N,GND*%
G36*
X222914538Y-101712701D02*
G01*
X222972841Y-101724298D01*
X222995372Y-101733630D01*
X223039584Y-101763172D01*
X223056827Y-101780415D01*
X223086369Y-101824627D01*
X223095701Y-101847157D01*
X223107299Y-101905461D01*
X223108500Y-101917655D01*
X223108500Y-102946068D01*
X223090194Y-102990262D01*
X223046000Y-103008568D01*
X223001806Y-102990262D01*
X222988258Y-102969986D01*
X222950335Y-102878432D01*
X222950331Y-102878424D01*
X222873726Y-102763776D01*
X222776223Y-102666273D01*
X222661575Y-102589669D01*
X222534180Y-102536900D01*
X222398944Y-102510000D01*
X222280000Y-102510000D01*
X222280000Y-102910000D01*
X221780000Y-102910000D01*
X221780000Y-102510000D01*
X221661056Y-102510000D01*
X221525819Y-102536900D01*
X221398424Y-102589669D01*
X221283776Y-102666273D01*
X221186273Y-102763776D01*
X221109668Y-102878424D01*
X221109664Y-102878432D01*
X221075878Y-102959999D01*
X221075879Y-102960000D01*
X221563012Y-102960000D01*
X221545795Y-102969940D01*
X221489940Y-103025795D01*
X221450444Y-103094204D01*
X221430000Y-103170504D01*
X221430000Y-103249496D01*
X221450444Y-103325796D01*
X221489940Y-103394205D01*
X221545795Y-103450060D01*
X221563012Y-103460000D01*
X221075878Y-103460000D01*
X221109664Y-103541567D01*
X221109668Y-103541575D01*
X221186273Y-103656223D01*
X221283776Y-103753726D01*
X221398424Y-103830330D01*
X221525819Y-103883099D01*
X221661055Y-103909999D01*
X221661056Y-103910000D01*
X221780000Y-103910000D01*
X221780000Y-103510000D01*
X222280000Y-103510000D01*
X222280000Y-103910000D01*
X222398944Y-103910000D01*
X222398944Y-103909999D01*
X222534180Y-103883099D01*
X222661575Y-103830330D01*
X222776223Y-103753726D01*
X222873726Y-103656223D01*
X222950331Y-103541575D01*
X222950332Y-103541572D01*
X222988257Y-103450014D01*
X223022082Y-103416189D01*
X223069917Y-103416188D01*
X223103742Y-103450013D01*
X223108500Y-103473931D01*
X223108500Y-106055344D01*
X223107299Y-106067538D01*
X223095701Y-106125842D01*
X223086369Y-106148372D01*
X223056827Y-106192584D01*
X223039584Y-106209827D01*
X222995372Y-106239369D01*
X222972842Y-106248701D01*
X222928284Y-106257564D01*
X222914536Y-106260299D01*
X222902345Y-106261500D01*
X221346500Y-106261500D01*
X221302306Y-106243194D01*
X221284000Y-106199000D01*
X221284000Y-105408647D01*
X221278930Y-105389726D01*
X221278930Y-105389724D01*
X221261819Y-105325864D01*
X221261815Y-105325855D01*
X221218967Y-105251641D01*
X221218960Y-105251632D01*
X221157306Y-105189978D01*
X221139000Y-105145784D01*
X221139000Y-104937190D01*
X221138999Y-104937177D01*
X221132568Y-104888327D01*
X221082700Y-104781386D01*
X221082565Y-104781096D01*
X221082563Y-104781094D01*
X221082563Y-104781093D01*
X220998906Y-104697436D01*
X220891672Y-104647431D01*
X220842822Y-104641000D01*
X220842816Y-104641000D01*
X220494184Y-104641000D01*
X220494177Y-104641000D01*
X220445327Y-104647431D01*
X220338093Y-104697436D01*
X220254436Y-104781093D01*
X220214868Y-104865947D01*
X220179600Y-104898264D01*
X220131810Y-104896177D01*
X220101580Y-104865947D01*
X220062148Y-104781386D01*
X219978613Y-104697851D01*
X219898500Y-104660493D01*
X219898500Y-105099000D01*
X219880194Y-105143194D01*
X219836000Y-105161500D01*
X219648500Y-105161500D01*
X219648500Y-105349000D01*
X219630194Y-105393194D01*
X219586000Y-105411500D01*
X219181890Y-105411500D01*
X219184922Y-105434538D01*
X219184924Y-105434544D01*
X219234851Y-105541613D01*
X219318386Y-105625148D01*
X219425455Y-105675076D01*
X219434004Y-105676201D01*
X219475432Y-105700117D01*
X219487815Y-105746322D01*
X219479976Y-105769417D01*
X219446110Y-105828075D01*
X219446108Y-105828078D01*
X219413366Y-105950275D01*
X219413365Y-105950283D01*
X219413365Y-106076799D01*
X219430412Y-106140422D01*
X219429309Y-106148795D01*
X219432541Y-106156597D01*
X219426297Y-106171672D01*
X219424167Y-106187849D01*
X219414235Y-106200792D01*
X219371833Y-106243194D01*
X219327641Y-106261500D01*
X218858500Y-106261500D01*
X218858500Y-106457284D01*
X218840194Y-106501478D01*
X218796000Y-106519784D01*
X218783807Y-106518583D01*
X218748198Y-106511500D01*
X218128500Y-106511500D01*
X218128500Y-106799000D01*
X218110194Y-106843194D01*
X218066000Y-106861500D01*
X217891000Y-106861500D01*
X217846806Y-106843194D01*
X217828500Y-106799000D01*
X217828500Y-106511500D01*
X217208802Y-106511500D01*
X217150465Y-106523103D01*
X217150461Y-106523105D01*
X217130722Y-106536295D01*
X217083806Y-106545627D01*
X217044032Y-106519051D01*
X217033499Y-106484328D01*
X217033499Y-106428053D01*
X217033498Y-106428049D01*
X217017737Y-106328530D01*
X217017737Y-106328529D01*
X216956617Y-106208576D01*
X216920152Y-106172111D01*
X216901846Y-106127917D01*
X216920152Y-106083723D01*
X216964346Y-106065417D01*
X216964814Y-106065418D01*
X216978743Y-106065533D01*
X217002195Y-106061647D01*
X217048294Y-106054009D01*
X217048294Y-106054008D01*
X217048298Y-106054008D01*
X217125737Y-106005351D01*
X217183825Y-105947261D01*
X217196761Y-105937335D01*
X217261252Y-105900102D01*
X217286627Y-105882801D01*
X217343649Y-105811298D01*
X217348888Y-105788342D01*
X217376568Y-105749330D01*
X217423728Y-105741317D01*
X217454015Y-105758056D01*
X217455576Y-105759617D01*
X217575530Y-105820737D01*
X217675049Y-105836499D01*
X218183500Y-105836499D01*
X218191947Y-105836499D01*
X218191950Y-105836498D01*
X218291469Y-105820737D01*
X218291470Y-105820737D01*
X218411423Y-105759617D01*
X218506617Y-105664423D01*
X218567737Y-105544470D01*
X218567739Y-105544463D01*
X218583498Y-105444964D01*
X218583500Y-105444948D01*
X218583500Y-105411500D01*
X218183500Y-105411500D01*
X218183500Y-105836499D01*
X217675049Y-105836499D01*
X217683500Y-105836498D01*
X217683500Y-104911500D01*
X218183500Y-104911500D01*
X218583499Y-104911500D01*
X218583499Y-104911499D01*
X219181888Y-104911499D01*
X219181889Y-104911500D01*
X219398500Y-104911500D01*
X219398500Y-104660493D01*
X219318386Y-104697851D01*
X219318386Y-104697852D01*
X219234852Y-104781386D01*
X219234851Y-104781386D01*
X219184923Y-104888456D01*
X219184922Y-104888461D01*
X219181888Y-104911499D01*
X218583499Y-104911499D01*
X218583499Y-104878053D01*
X218583498Y-104878049D01*
X218567737Y-104778530D01*
X218567737Y-104778529D01*
X218506617Y-104658576D01*
X218411423Y-104563382D01*
X218291470Y-104502262D01*
X218291463Y-104502260D01*
X218191964Y-104486501D01*
X218191949Y-104486500D01*
X218183500Y-104486500D01*
X218183500Y-104911500D01*
X217683500Y-104911500D01*
X217683500Y-104486499D01*
X217675056Y-104486500D01*
X217575531Y-104502262D01*
X217575526Y-104502263D01*
X217454874Y-104563739D01*
X217407186Y-104567492D01*
X217370812Y-104536425D01*
X217364000Y-104508051D01*
X217364000Y-103972500D01*
X217382306Y-103928306D01*
X217426500Y-103910000D01*
X217600000Y-103910000D01*
X217600000Y-103510000D01*
X218100000Y-103510000D01*
X218100000Y-103910000D01*
X218468944Y-103910000D01*
X218468944Y-103909999D01*
X218604180Y-103883099D01*
X218731575Y-103830330D01*
X218846223Y-103753726D01*
X218943726Y-103656223D01*
X219020331Y-103541575D01*
X219020335Y-103541567D01*
X219054121Y-103460000D01*
X218566988Y-103460000D01*
X218584205Y-103450060D01*
X218640060Y-103394205D01*
X218679556Y-103325796D01*
X218700000Y-103249496D01*
X218700000Y-103170504D01*
X218679556Y-103094204D01*
X218640060Y-103025795D01*
X218584205Y-102969940D01*
X218566988Y-102960000D01*
X219054121Y-102960000D01*
X219054121Y-102959999D01*
X219020335Y-102878432D01*
X219020331Y-102878424D01*
X218943726Y-102763776D01*
X218846223Y-102666273D01*
X218731575Y-102589669D01*
X218604180Y-102536900D01*
X218468944Y-102510000D01*
X217922500Y-102510000D01*
X217878306Y-102491694D01*
X217860000Y-102447500D01*
X217860000Y-102230425D01*
X217878306Y-102186231D01*
X217922500Y-102167925D01*
X217966694Y-102186231D01*
X218024173Y-102243710D01*
X218024177Y-102243713D01*
X218024179Y-102243715D01*
X218156322Y-102320008D01*
X218303707Y-102359500D01*
X218303708Y-102359500D01*
X218456292Y-102359500D01*
X218456293Y-102359500D01*
X218603678Y-102320008D01*
X218735821Y-102243715D01*
X218843715Y-102135821D01*
X218920008Y-102003678D01*
X218959500Y-101856293D01*
X218959500Y-101774000D01*
X218977806Y-101729806D01*
X219022000Y-101711500D01*
X222902345Y-101711500D01*
X222914538Y-101712701D01*
G37*
%TD.AperFunction*%
%TA.AperFunction,Conductor*%
G36*
X217166694Y-102158306D02*
G01*
X217185000Y-102202500D01*
X217185000Y-102646000D01*
X217166694Y-102690194D01*
X217158500Y-102693588D01*
X217158500Y-102154911D01*
X217166694Y-102158306D01*
G37*
%TD.AperFunction*%
%TD*%
%TA.AperFunction,Conductor*%
%TO.N,GND*%
G36*
X198619024Y-94005345D02*
G01*
X198644083Y-94023551D01*
X200134781Y-95514249D01*
X200157806Y-95550392D01*
X200180775Y-95613497D01*
X200180777Y-95613502D01*
X200193196Y-95629686D01*
X200211224Y-95653180D01*
X200308286Y-95750242D01*
X200363157Y-95805112D01*
X200390935Y-95859629D01*
X200381364Y-95920061D01*
X200338099Y-95963326D01*
X200336109Y-95964312D01*
X200267962Y-95997130D01*
X200244977Y-96016174D01*
X200193355Y-96067797D01*
X200533472Y-96407914D01*
X200540590Y-96421885D01*
X200551678Y-96432973D01*
X200554130Y-96448460D01*
X200561249Y-96462431D01*
X200558796Y-96477918D01*
X200561249Y-96493405D01*
X200554130Y-96507375D01*
X200551678Y-96522863D01*
X200533472Y-96547922D01*
X200461347Y-96620047D01*
X200406830Y-96647824D01*
X200346398Y-96638253D01*
X200321339Y-96620047D01*
X199981221Y-96279929D01*
X199928685Y-96332466D01*
X199874169Y-96360244D01*
X199813737Y-96350673D01*
X199788677Y-96332467D01*
X199769281Y-96313071D01*
X199706189Y-96276644D01*
X199706188Y-96276643D01*
X199706187Y-96276643D01*
X199635812Y-96257787D01*
X199635810Y-96257787D01*
X198940136Y-96257787D01*
X198881945Y-96238880D01*
X198870132Y-96228791D01*
X198500970Y-95859629D01*
X198100850Y-95459509D01*
X198085484Y-95449242D01*
X198051270Y-95426381D01*
X198051268Y-95426380D01*
X197973040Y-95410821D01*
X197973038Y-95410821D01*
X197894808Y-95426380D01*
X197894805Y-95426381D01*
X197845228Y-95459508D01*
X196827349Y-96477387D01*
X196794222Y-96526964D01*
X196794221Y-96526967D01*
X196778662Y-96605197D01*
X196778662Y-96605198D01*
X196794221Y-96683427D01*
X196794222Y-96683429D01*
X196827350Y-96733009D01*
X197703806Y-97609465D01*
X197753386Y-97642593D01*
X197805482Y-97652954D01*
X197858866Y-97682849D01*
X197884483Y-97738413D01*
X197885170Y-97750052D01*
X197885170Y-97863360D01*
X197925686Y-97967942D01*
X197941361Y-97987732D01*
X198291236Y-98337607D01*
X198928339Y-97700505D01*
X198982856Y-97672728D01*
X199043288Y-97682299D01*
X199068347Y-97700505D01*
X199104409Y-97736567D01*
X199140470Y-97700506D01*
X199194986Y-97672728D01*
X199255418Y-97682299D01*
X199280478Y-97700505D01*
X199846870Y-98266896D01*
X200267450Y-97846317D01*
X200283127Y-97826527D01*
X200283131Y-97826520D01*
X200323646Y-97721941D01*
X200323648Y-97721935D01*
X200323648Y-97638507D01*
X200342555Y-97580316D01*
X200392055Y-97544352D01*
X200422648Y-97539507D01*
X200689969Y-97539507D01*
X200748160Y-97558414D01*
X200759972Y-97568503D01*
X200864198Y-97672728D01*
X200942463Y-97750993D01*
X200982142Y-97781441D01*
X201057804Y-97808979D01*
X201106019Y-97846648D01*
X201122885Y-97905463D01*
X201101959Y-97962959D01*
X201093948Y-97972013D01*
X200913748Y-98152212D01*
X200859232Y-98179989D01*
X200809886Y-98175238D01*
X200761628Y-98157674D01*
X200643313Y-98157674D01*
X200535789Y-98196809D01*
X200532127Y-98198142D01*
X200493044Y-98228132D01*
X200246510Y-98474666D01*
X200216520Y-98513749D01*
X200216518Y-98513753D01*
X200216518Y-98513754D01*
X200205683Y-98543524D01*
X200176052Y-98624935D01*
X200176052Y-98743249D01*
X200181078Y-98757058D01*
X200183213Y-98818206D01*
X200148998Y-98868931D01*
X200091503Y-98889858D01*
X200054189Y-98883948D01*
X200040380Y-98878922D01*
X199922065Y-98878922D01*
X199810884Y-98919388D01*
X199810879Y-98919390D01*
X199771796Y-98949380D01*
X199525262Y-99195914D01*
X199495272Y-99234997D01*
X199495270Y-99235001D01*
X199495270Y-99235002D01*
X199471713Y-99299725D01*
X199454804Y-99346183D01*
X199454804Y-99441408D01*
X199435897Y-99499599D01*
X199386397Y-99535563D01*
X199325211Y-99535563D01*
X199313966Y-99531133D01*
X199257832Y-99504958D01*
X199257833Y-99504958D01*
X199241303Y-99502782D01*
X199208246Y-99498430D01*
X199208244Y-99498430D01*
X198788448Y-99498430D01*
X198788437Y-99498431D01*
X198738858Y-99504957D01*
X198731586Y-99507077D01*
X198731132Y-99505520D01*
X198679247Y-99511886D01*
X198625735Y-99482218D01*
X198599883Y-99426763D01*
X198611563Y-99366703D01*
X198621625Y-99351894D01*
X198623743Y-99349311D01*
X198623752Y-99349303D01*
X198656880Y-99299724D01*
X198672440Y-99221492D01*
X198668563Y-99202002D01*
X198656880Y-99143262D01*
X198656879Y-99143260D01*
X198623754Y-99093684D01*
X198623752Y-99093681D01*
X198079811Y-98549740D01*
X198503368Y-98549740D01*
X198853238Y-98899609D01*
X198873030Y-98915288D01*
X198873034Y-98915290D01*
X198977613Y-98955805D01*
X198977619Y-98955807D01*
X199089777Y-98955807D01*
X199089779Y-98955806D01*
X199194362Y-98915290D01*
X199214156Y-98899612D01*
X199214159Y-98899609D01*
X199634737Y-98479029D01*
X199104408Y-97948700D01*
X198503368Y-98549740D01*
X198079811Y-98549740D01*
X197747296Y-98217225D01*
X197697716Y-98184097D01*
X197697715Y-98184096D01*
X197645619Y-98173735D01*
X197592235Y-98143839D01*
X197566618Y-98088275D01*
X197565932Y-98076637D01*
X197565932Y-97963332D01*
X197565931Y-97963329D01*
X197525415Y-97858747D01*
X197509740Y-97838957D01*
X197159865Y-97489082D01*
X195745652Y-98903294D01*
X196095522Y-99253163D01*
X196115314Y-99268842D01*
X196115318Y-99268844D01*
X196219897Y-99309359D01*
X196219903Y-99309361D01*
X196333208Y-99309361D01*
X196391399Y-99328268D01*
X196427363Y-99377768D01*
X196430306Y-99389048D01*
X196440667Y-99441144D01*
X196440668Y-99441145D01*
X196461980Y-99473042D01*
X196473796Y-99490725D01*
X197350252Y-100367181D01*
X197399832Y-100400309D01*
X197429767Y-100406263D01*
X197478062Y-100415869D01*
X197478063Y-100415869D01*
X197478064Y-100415869D01*
X197504140Y-100410682D01*
X197556295Y-100400309D01*
X197605874Y-100367181D01*
X197902186Y-100070867D01*
X197956701Y-100043091D01*
X198017133Y-100052662D01*
X198042192Y-100070868D01*
X198120152Y-100148828D01*
X198120151Y-100148828D01*
X198171667Y-100200344D01*
X198171670Y-100200346D01*
X198234761Y-100236772D01*
X198234762Y-100236772D01*
X198234765Y-100236774D01*
X198305139Y-100255630D01*
X198377995Y-100255630D01*
X198453319Y-100255630D01*
X198511510Y-100274537D01*
X198535103Y-100298842D01*
X198539641Y-100305495D01*
X198545121Y-100317246D01*
X198553099Y-100325224D01*
X198558325Y-100332885D01*
X198564435Y-100353782D01*
X198574322Y-100373186D01*
X198572841Y-100382531D01*
X198575497Y-100391611D01*
X198568157Y-100412108D01*
X198564751Y-100433618D01*
X198557314Y-100442391D01*
X198554871Y-100449215D01*
X198546951Y-100454617D01*
X198535331Y-100468327D01*
X198513707Y-100484286D01*
X198513703Y-100484290D01*
X198434939Y-100591009D01*
X198391132Y-100716202D01*
X198388345Y-100745929D01*
X198388345Y-100788929D01*
X198388346Y-100788930D01*
X198899345Y-100788930D01*
X198914257Y-100793775D01*
X198929938Y-100793775D01*
X198942623Y-100802991D01*
X198957536Y-100807837D01*
X198966752Y-100820522D01*
X198979438Y-100829739D01*
X198984283Y-100844651D01*
X198993500Y-100857337D01*
X198998345Y-100887930D01*
X198998345Y-100989930D01*
X198979438Y-101048121D01*
X198929938Y-101084085D01*
X198899345Y-101088930D01*
X198388347Y-101088930D01*
X198388346Y-101088931D01*
X198388346Y-101131939D01*
X198389576Y-101145064D01*
X198376180Y-101204765D01*
X198330251Y-101245190D01*
X198291008Y-101253300D01*
X196651740Y-101253300D01*
X196593549Y-101234393D01*
X196581736Y-101224304D01*
X194939496Y-99582063D01*
X194911719Y-99527546D01*
X194910500Y-99512059D01*
X194910500Y-99456742D01*
X194910500Y-99456741D01*
X194877755Y-99334534D01*
X194814496Y-99224966D01*
X194725034Y-99135504D01*
X194615466Y-99072245D01*
X194493259Y-99039500D01*
X194437941Y-99039500D01*
X194379750Y-99020593D01*
X194367937Y-99010504D01*
X194012533Y-98655100D01*
X193984756Y-98600583D01*
X193994327Y-98540151D01*
X194012527Y-98515099D01*
X194422872Y-98104754D01*
X195127454Y-98104754D01*
X195127454Y-98216914D01*
X195167970Y-98321496D01*
X195183645Y-98341286D01*
X195533520Y-98691161D01*
X196134559Y-98090121D01*
X195604230Y-97559792D01*
X195183651Y-97980372D01*
X195167974Y-98000162D01*
X195167970Y-98000169D01*
X195127455Y-98104748D01*
X195127454Y-98104754D01*
X194422872Y-98104754D01*
X195179966Y-97347660D01*
X195816364Y-97347660D01*
X196346692Y-97877988D01*
X196947732Y-97276948D01*
X196597863Y-96927080D01*
X196578071Y-96911401D01*
X196578067Y-96911399D01*
X196473488Y-96870884D01*
X196473483Y-96870883D01*
X196361322Y-96870883D01*
X196256739Y-96911399D01*
X196236949Y-96927074D01*
X195816364Y-97347660D01*
X195179966Y-97347660D01*
X198504075Y-94023550D01*
X198558592Y-93995774D01*
X198619024Y-94005345D01*
G37*
%TD.AperFunction*%
%TA.AperFunction,Conductor*%
G36*
X199944513Y-99984903D02*
G01*
X199966494Y-99992904D01*
X200014709Y-100030572D01*
X200030530Y-100071179D01*
X200047458Y-100183497D01*
X200105010Y-100303004D01*
X200124054Y-100325989D01*
X200149811Y-100351746D01*
X200177588Y-100406263D01*
X200168017Y-100466695D01*
X200124752Y-100509960D01*
X200079807Y-100520750D01*
X200054573Y-100520750D01*
X199945082Y-100550088D01*
X199846916Y-100606764D01*
X199766757Y-100686923D01*
X199762814Y-100692063D01*
X199761288Y-100690892D01*
X199722434Y-100725869D01*
X199661583Y-100732258D01*
X199608598Y-100701660D01*
X199588733Y-100668122D01*
X199561750Y-100591009D01*
X199482986Y-100484290D01*
X199482984Y-100484288D01*
X199461359Y-100468328D01*
X199425767Y-100418560D01*
X199426225Y-100357376D01*
X199437356Y-100334392D01*
X199442940Y-100325874D01*
X199451569Y-100317246D01*
X199458888Y-100301550D01*
X199462801Y-100295582D01*
X199481360Y-100280686D01*
X199497593Y-100263278D01*
X199508584Y-100258836D01*
X199510518Y-100257285D01*
X199512682Y-100257181D01*
X199519965Y-100254238D01*
X199585146Y-100236774D01*
X199648241Y-100200345D01*
X199840653Y-100007931D01*
X199862779Y-99996657D01*
X199883366Y-99982771D01*
X199889605Y-99982988D01*
X199895169Y-99980154D01*
X199944513Y-99984903D01*
G37*
%TD.AperFunction*%
%TD*%
%TA.AperFunction,Conductor*%
%TO.N,+1V1*%
G36*
X213234782Y-99407546D02*
G01*
X213255832Y-99417362D01*
X213255833Y-99417362D01*
X213255835Y-99417363D01*
X213304692Y-99423795D01*
X213304693Y-99423795D01*
X213653322Y-99423795D01*
X213653324Y-99423795D01*
X213702181Y-99417363D01*
X213702183Y-99417362D01*
X213723234Y-99407546D01*
X213765073Y-99398270D01*
X214212941Y-99398270D01*
X214254780Y-99407546D01*
X214275830Y-99417362D01*
X214275831Y-99417362D01*
X214275833Y-99417363D01*
X214324690Y-99423795D01*
X214324691Y-99423795D01*
X214673320Y-99423795D01*
X214673322Y-99423795D01*
X214722179Y-99417363D01*
X214722181Y-99417361D01*
X214725612Y-99416910D01*
X214747186Y-99420908D01*
X214769128Y-99420908D01*
X214776641Y-99426366D01*
X214785773Y-99428059D01*
X214800876Y-99443974D01*
X214818628Y-99456872D01*
X214821498Y-99465705D01*
X214827890Y-99472441D01*
X214837535Y-99515063D01*
X214837535Y-99688979D01*
X214818628Y-99747170D01*
X214789369Y-99771289D01*
X214790193Y-99772465D01*
X214783100Y-99777431D01*
X214699433Y-99861098D01*
X214649432Y-99968324D01*
X214649432Y-99968325D01*
X214643000Y-100017185D01*
X214643000Y-100365817D01*
X214649833Y-100417719D01*
X214638683Y-100477880D01*
X214594300Y-100519997D01*
X214551680Y-100529641D01*
X212794981Y-100529641D01*
X212736790Y-100510734D01*
X212724977Y-100500645D01*
X212606068Y-100381736D01*
X212542976Y-100345309D01*
X212542975Y-100345308D01*
X212542974Y-100345308D01*
X212472599Y-100326452D01*
X212472597Y-100326452D01*
X211613134Y-100326452D01*
X211554943Y-100307545D01*
X211518979Y-100258045D01*
X211514134Y-100227452D01*
X211514134Y-99497270D01*
X211533041Y-99439079D01*
X211582541Y-99403115D01*
X211613134Y-99398270D01*
X213192943Y-99398270D01*
X213234782Y-99407546D01*
G37*
%TD.AperFunction*%
%TD*%
%TA.AperFunction,Conductor*%
%TO.N,+3V3*%
G36*
X217158500Y-105722135D02*
G01*
X217063464Y-105777005D01*
X217063460Y-105777008D01*
X216980427Y-105860040D01*
X215447305Y-105847473D01*
X215458499Y-105791198D01*
X215458500Y-105791198D01*
X215458500Y-105444950D01*
X215733501Y-105444950D01*
X215749262Y-105544469D01*
X215749262Y-105544470D01*
X215810382Y-105664423D01*
X215905576Y-105759617D01*
X216025530Y-105820737D01*
X216125049Y-105836499D01*
X216633500Y-105836499D01*
X216641947Y-105836499D01*
X216641950Y-105836498D01*
X216741469Y-105820737D01*
X216741470Y-105820737D01*
X216861423Y-105759617D01*
X216956617Y-105664423D01*
X217017737Y-105544470D01*
X217017739Y-105544463D01*
X217033498Y-105444964D01*
X217033500Y-105444948D01*
X217033500Y-105411500D01*
X216633500Y-105411500D01*
X216633500Y-105836499D01*
X216125049Y-105836499D01*
X216133500Y-105836498D01*
X216133500Y-105411500D01*
X215733501Y-105411500D01*
X215733501Y-105444950D01*
X215458500Y-105444950D01*
X215458500Y-105421500D01*
X213421000Y-105421500D01*
X213376806Y-105403194D01*
X213358500Y-105359000D01*
X213358500Y-104984000D01*
X213376806Y-104939806D01*
X213421000Y-104921500D01*
X215458500Y-104921500D01*
X215458500Y-104878051D01*
X215733500Y-104878051D01*
X215733500Y-104911500D01*
X216133500Y-104911500D01*
X216633500Y-104911500D01*
X217033499Y-104911500D01*
X217033499Y-104878053D01*
X217033498Y-104878049D01*
X217017737Y-104778530D01*
X217017737Y-104778529D01*
X216956617Y-104658576D01*
X216861423Y-104563382D01*
X216741470Y-104502262D01*
X216741463Y-104502260D01*
X216641964Y-104486501D01*
X216641949Y-104486500D01*
X216633500Y-104486500D01*
X216633500Y-104911500D01*
X216133500Y-104911500D01*
X216133500Y-104486499D01*
X216125056Y-104486500D01*
X216025531Y-104502262D01*
X216025529Y-104502262D01*
X215905576Y-104563382D01*
X215810382Y-104658576D01*
X215749262Y-104778529D01*
X215749260Y-104778536D01*
X215733501Y-104878035D01*
X215733500Y-104878051D01*
X215458500Y-104878051D01*
X215458500Y-104551802D01*
X215458499Y-104551801D01*
X215446896Y-104493465D01*
X215446894Y-104493461D01*
X215402691Y-104427308D01*
X215379033Y-104411500D01*
X215408500Y-104411500D01*
X215408500Y-103921500D01*
X217158500Y-103921500D01*
X217158500Y-105722135D01*
G37*
%TD.AperFunction*%
%TD*%
%TA.AperFunction,Conductor*%
%TO.N,GND*%
G36*
X212338743Y-100898759D02*
G01*
X212350550Y-100908843D01*
X212404376Y-100962669D01*
X212432153Y-101017183D01*
X212433372Y-101032671D01*
X212433372Y-101774143D01*
X212414465Y-101832334D01*
X212364965Y-101868298D01*
X212334372Y-101873143D01*
X210693895Y-101873143D01*
X210635704Y-101854236D01*
X210599740Y-101804736D01*
X210594895Y-101774143D01*
X210594895Y-100978852D01*
X210613802Y-100920661D01*
X210663302Y-100884697D01*
X210693895Y-100879852D01*
X212280552Y-100879852D01*
X212338743Y-100898759D01*
G37*
%TD.AperFunction*%
%TD*%
%TA.AperFunction,Conductor*%
%TO.N,+3V3*%
G36*
X171250172Y-84520185D02*
G01*
X171295927Y-84572989D01*
X171305871Y-84642147D01*
X171276846Y-84705703D01*
X171256018Y-84724818D01*
X171111064Y-84830132D01*
X171111059Y-84830136D01*
X170930136Y-85011059D01*
X170930132Y-85011064D01*
X170779750Y-85218049D01*
X170663589Y-85446024D01*
X170663588Y-85446027D01*
X170584526Y-85689359D01*
X170554712Y-85877593D01*
X170544500Y-85942070D01*
X170544500Y-86197930D01*
X170557004Y-86276873D01*
X170584526Y-86450640D01*
X170663588Y-86693972D01*
X170663589Y-86693975D01*
X170731630Y-86827511D01*
X170778501Y-86919500D01*
X170779750Y-86921950D01*
X170930132Y-87128935D01*
X170930136Y-87128940D01*
X171111059Y-87309863D01*
X171111064Y-87309867D01*
X171181727Y-87361206D01*
X171318053Y-87460252D01*
X171467080Y-87536185D01*
X171546024Y-87576410D01*
X171546027Y-87576411D01*
X171588140Y-87590094D01*
X171789361Y-87655474D01*
X172042070Y-87695500D01*
X172042071Y-87695500D01*
X172297929Y-87695500D01*
X172297930Y-87695500D01*
X172550639Y-87655474D01*
X172793975Y-87576410D01*
X173021947Y-87460252D01*
X173228942Y-87309862D01*
X173409862Y-87128942D01*
X173560252Y-86921947D01*
X173676410Y-86693975D01*
X173755474Y-86450639D01*
X173795500Y-86197930D01*
X173795500Y-85942070D01*
X173755474Y-85689361D01*
X173715942Y-85567693D01*
X173676411Y-85446027D01*
X173676410Y-85446024D01*
X173636185Y-85367080D01*
X173560252Y-85218053D01*
X173541038Y-85191607D01*
X173409867Y-85011064D01*
X173409863Y-85011059D01*
X173228940Y-84830136D01*
X173228935Y-84830132D01*
X173083982Y-84724818D01*
X173041316Y-84669488D01*
X173035337Y-84599875D01*
X173067942Y-84538080D01*
X173128781Y-84503723D01*
X173156867Y-84500500D01*
X176263133Y-84500500D01*
X176330172Y-84520185D01*
X176375927Y-84572989D01*
X176385871Y-84642147D01*
X176356846Y-84705703D01*
X176336018Y-84724818D01*
X176191064Y-84830132D01*
X176191059Y-84830136D01*
X176010136Y-85011059D01*
X176010132Y-85011064D01*
X175859750Y-85218049D01*
X175743589Y-85446024D01*
X175743588Y-85446027D01*
X175664526Y-85689359D01*
X175634712Y-85877593D01*
X175624500Y-85942070D01*
X175624500Y-86197930D01*
X175637004Y-86276873D01*
X175664526Y-86450640D01*
X175743588Y-86693972D01*
X175743589Y-86693975D01*
X175811630Y-86827511D01*
X175858501Y-86919500D01*
X175859750Y-86921950D01*
X176010132Y-87128935D01*
X176010136Y-87128940D01*
X176191059Y-87309863D01*
X176191064Y-87309867D01*
X176261727Y-87361206D01*
X176398053Y-87460252D01*
X176547080Y-87536185D01*
X176626024Y-87576410D01*
X176626027Y-87576411D01*
X176668140Y-87590094D01*
X176869361Y-87655474D01*
X177122070Y-87695500D01*
X177122071Y-87695500D01*
X177377929Y-87695500D01*
X177377930Y-87695500D01*
X177630639Y-87655474D01*
X177873975Y-87576410D01*
X178101947Y-87460252D01*
X178308942Y-87309862D01*
X178489862Y-87128942D01*
X178640252Y-86921947D01*
X178756410Y-86693975D01*
X178835474Y-86450639D01*
X178875500Y-86197930D01*
X178875500Y-85942070D01*
X178835474Y-85689361D01*
X178795942Y-85567693D01*
X178756411Y-85446027D01*
X178756410Y-85446024D01*
X178716185Y-85367080D01*
X178640252Y-85218053D01*
X178621038Y-85191607D01*
X178489867Y-85011064D01*
X178489863Y-85011059D01*
X178308940Y-84830136D01*
X178308935Y-84830132D01*
X178163982Y-84724818D01*
X178121316Y-84669488D01*
X178115337Y-84599875D01*
X178147942Y-84538080D01*
X178208781Y-84503723D01*
X178236867Y-84500500D01*
X196756393Y-84500500D01*
X196823432Y-84520185D01*
X196869187Y-84572989D01*
X196879131Y-84642147D01*
X196872575Y-84667832D01*
X196855909Y-84712516D01*
X196855908Y-84712518D01*
X196849501Y-84772118D01*
X196849500Y-84772137D01*
X196849500Y-85767872D01*
X196849501Y-85767878D01*
X196855908Y-85827485D01*
X196906202Y-85962330D01*
X196906206Y-85962337D01*
X196992452Y-86077546D01*
X196992455Y-86077549D01*
X197107664Y-86163795D01*
X197107671Y-86163799D01*
X197120538Y-86168597D01*
X197142631Y-86176837D01*
X197198565Y-86218707D01*
X197222984Y-86284171D01*
X197223300Y-86293020D01*
X197223300Y-88346981D01*
X197203615Y-88414020D01*
X197150811Y-88459775D01*
X197142635Y-88463162D01*
X197107667Y-88476204D01*
X197107665Y-88476205D01*
X196992455Y-88562452D01*
X196992452Y-88562455D01*
X196906206Y-88677664D01*
X196906202Y-88677671D01*
X196855908Y-88812517D01*
X196852729Y-88842092D01*
X196849500Y-88872127D01*
X196849500Y-89360001D01*
X196849501Y-89729100D01*
X196829817Y-89796139D01*
X196777013Y-89841894D01*
X196725501Y-89853100D01*
X184203724Y-89853100D01*
X184051876Y-89853100D01*
X183905202Y-89892401D01*
X183905201Y-89892401D01*
X183905199Y-89892402D01*
X183905198Y-89892402D01*
X183773701Y-89968322D01*
X183773695Y-89968327D01*
X181248527Y-92493495D01*
X181248525Y-92493498D01*
X181171157Y-92627501D01*
X181120589Y-92675716D01*
X181063772Y-92689500D01*
X181002131Y-92689500D01*
X181002124Y-92689501D01*
X180942517Y-92695908D01*
X180807672Y-92746202D01*
X180807665Y-92746206D01*
X180692456Y-92832452D01*
X180692453Y-92832455D01*
X180606207Y-92947664D01*
X180606203Y-92947671D01*
X180555909Y-93082517D01*
X180550328Y-93134431D01*
X180549502Y-93142123D01*
X180549501Y-93142135D01*
X180549501Y-95037870D01*
X180549502Y-95037876D01*
X180555909Y-95097483D01*
X180606203Y-95232328D01*
X180606207Y-95232335D01*
X180692453Y-95347544D01*
X180692456Y-95347547D01*
X180807665Y-95433793D01*
X180807672Y-95433797D01*
X180942518Y-95484091D01*
X180942517Y-95484091D01*
X180949445Y-95484835D01*
X181002128Y-95490500D01*
X181997873Y-95490499D01*
X182057484Y-95484091D01*
X182091668Y-95471340D01*
X182161359Y-95466357D01*
X182178328Y-95471338D01*
X182212518Y-95484091D01*
X182272128Y-95490500D01*
X183267873Y-95490499D01*
X183327484Y-95484091D01*
X183361668Y-95471340D01*
X183431359Y-95466357D01*
X183448328Y-95471338D01*
X183482518Y-95484091D01*
X183542128Y-95490500D01*
X184537873Y-95490499D01*
X184597484Y-95484091D01*
X184631668Y-95471340D01*
X184701359Y-95466357D01*
X184718328Y-95471338D01*
X184752518Y-95484091D01*
X184812128Y-95490500D01*
X185807873Y-95490499D01*
X185867484Y-95484091D01*
X185901665Y-95471341D01*
X185971354Y-95466356D01*
X185988329Y-95471340D01*
X186022518Y-95484092D01*
X186082128Y-95490501D01*
X187077873Y-95490500D01*
X187137484Y-95484092D01*
X187171668Y-95471341D01*
X187241357Y-95466356D01*
X187258330Y-95471339D01*
X187292518Y-95484091D01*
X187352128Y-95490500D01*
X188347873Y-95490499D01*
X188407484Y-95484091D01*
X188441668Y-95471340D01*
X188511359Y-95466357D01*
X188528328Y-95471338D01*
X188562518Y-95484091D01*
X188622128Y-95490500D01*
X189617873Y-95490499D01*
X189677484Y-95484091D01*
X189711665Y-95471341D01*
X189781357Y-95466356D01*
X189798327Y-95471338D01*
X189832517Y-95484091D01*
X189892127Y-95490500D01*
X190887872Y-95490499D01*
X190947483Y-95484091D01*
X191082331Y-95433796D01*
X191197546Y-95347546D01*
X191283796Y-95232331D01*
X191334091Y-95097483D01*
X191334091Y-95097482D01*
X191340856Y-95034569D01*
X191341971Y-95034688D01*
X191363647Y-94973147D01*
X191418802Y-94930256D01*
X191440068Y-94924005D01*
X191457664Y-94920506D01*
X191599706Y-94861671D01*
X191727540Y-94776254D01*
X191836254Y-94667540D01*
X191921671Y-94539706D01*
X191980506Y-94397664D01*
X191987720Y-94361400D01*
X192010499Y-94246877D01*
X192010500Y-94246874D01*
X192010500Y-94093126D01*
X192010499Y-94093122D01*
X191980508Y-93942343D01*
X191980505Y-93942334D01*
X191921673Y-93800298D01*
X191921672Y-93800296D01*
X191916705Y-93792863D01*
X191836254Y-93672460D01*
X191836251Y-93672456D01*
X191727543Y-93563748D01*
X191727539Y-93563745D01*
X191599703Y-93478327D01*
X191599701Y-93478326D01*
X191455653Y-93418661D01*
X191401249Y-93374821D01*
X191379184Y-93308527D01*
X191396463Y-93240827D01*
X191447600Y-93193216D01*
X191503105Y-93180100D01*
X197113161Y-93180100D01*
X197180200Y-93199785D01*
X197200842Y-93216419D01*
X197810900Y-93826477D01*
X197844385Y-93887800D01*
X197839401Y-93957492D01*
X197810900Y-94001839D01*
X195207544Y-96605197D01*
X194822523Y-96990218D01*
X194065430Y-97747312D01*
X193655092Y-98157649D01*
X193655079Y-98157663D01*
X193603552Y-98217994D01*
X193602050Y-98219900D01*
X193601130Y-98219174D01*
X193549305Y-98259053D01*
X193479685Y-98264960D01*
X193461104Y-98259637D01*
X193397485Y-98235909D01*
X193397483Y-98235908D01*
X193337883Y-98229501D01*
X193337881Y-98229500D01*
X193337873Y-98229500D01*
X193337864Y-98229500D01*
X191442129Y-98229500D01*
X191442123Y-98229501D01*
X191382516Y-98235908D01*
X191247671Y-98286202D01*
X191247664Y-98286206D01*
X191132455Y-98372452D01*
X191132452Y-98372455D01*
X191046206Y-98487664D01*
X191046202Y-98487671D01*
X190995908Y-98622517D01*
X190989501Y-98682116D01*
X190989500Y-98682135D01*
X190989500Y-99677870D01*
X190989501Y-99677876D01*
X190995908Y-99737483D01*
X191008659Y-99771668D01*
X191013643Y-99841360D01*
X191008659Y-99858334D01*
X190995909Y-99892516D01*
X190989502Y-99952116D01*
X190989501Y-99952135D01*
X190989501Y-100947870D01*
X190989502Y-100947876D01*
X190995909Y-101007481D01*
X191008660Y-101041669D01*
X191013643Y-101111361D01*
X191008660Y-101128331D01*
X190995909Y-101162518D01*
X190989502Y-101222116D01*
X190989501Y-101222135D01*
X190989501Y-102217870D01*
X190989502Y-102217876D01*
X190995909Y-102277483D01*
X191008659Y-102311667D01*
X191013643Y-102381359D01*
X191008660Y-102398330D01*
X190995909Y-102432517D01*
X190989502Y-102492115D01*
X190989501Y-102492134D01*
X190989501Y-103487869D01*
X190989502Y-103487875D01*
X190995909Y-103547482D01*
X191046203Y-103682327D01*
X191046207Y-103682334D01*
X191132453Y-103797543D01*
X191132456Y-103797546D01*
X191247665Y-103883792D01*
X191247672Y-103883796D01*
X191351491Y-103922518D01*
X191407425Y-103964389D01*
X191431842Y-104029853D01*
X191416991Y-104098126D01*
X191367585Y-104147532D01*
X191308158Y-104162700D01*
X186832125Y-104162700D01*
X186680277Y-104162700D01*
X186533603Y-104202001D01*
X186533602Y-104202001D01*
X186533600Y-104202002D01*
X186533599Y-104202002D01*
X186402102Y-104277922D01*
X186402096Y-104277927D01*
X184026841Y-106653181D01*
X183965518Y-106686666D01*
X183939160Y-106689500D01*
X183542130Y-106689500D01*
X183542124Y-106689501D01*
X183482519Y-106695908D01*
X183448332Y-106708659D01*
X183378640Y-106713642D01*
X183361670Y-106708659D01*
X183344141Y-106702121D01*
X183327484Y-106695909D01*
X183327483Y-106695908D01*
X183267884Y-106689501D01*
X183267882Y-106689500D01*
X183267874Y-106689500D01*
X183267865Y-106689500D01*
X182272130Y-106689500D01*
X182272124Y-106689501D01*
X182212519Y-106695908D01*
X182178332Y-106708659D01*
X182108640Y-106713642D01*
X182091670Y-106708659D01*
X182074141Y-106702121D01*
X182057484Y-106695909D01*
X182057483Y-106695908D01*
X181997884Y-106689501D01*
X181997882Y-106689500D01*
X181997874Y-106689500D01*
X181997865Y-106689500D01*
X181002130Y-106689500D01*
X181002124Y-106689501D01*
X180942517Y-106695908D01*
X180807672Y-106746202D01*
X180807665Y-106746206D01*
X180692456Y-106832452D01*
X180692453Y-106832455D01*
X180606207Y-106947664D01*
X180606203Y-106947671D01*
X180555909Y-107082517D01*
X180549502Y-107142116D01*
X180549502Y-107142123D01*
X180549501Y-107142135D01*
X180549501Y-109037870D01*
X180549502Y-109037876D01*
X180555909Y-109097483D01*
X180606203Y-109232328D01*
X180606207Y-109232335D01*
X180692453Y-109347544D01*
X180692456Y-109347547D01*
X180714589Y-109364116D01*
X180756460Y-109420050D01*
X180761895Y-109439191D01*
X180779491Y-109527656D01*
X180779494Y-109527665D01*
X180838326Y-109669701D01*
X180838327Y-109669703D01*
X180923745Y-109797539D01*
X180923748Y-109797543D01*
X181032456Y-109906251D01*
X181032460Y-109906254D01*
X181160294Y-109991671D01*
X181160295Y-109991671D01*
X181160296Y-109991672D01*
X181160298Y-109991673D01*
X181227965Y-110019701D01*
X181302336Y-110050506D01*
X181302338Y-110050506D01*
X181302343Y-110050508D01*
X181453122Y-110080499D01*
X181453126Y-110080500D01*
X181453127Y-110080500D01*
X181606874Y-110080500D01*
X181606875Y-110080499D01*
X181657152Y-110070499D01*
X181757656Y-110050508D01*
X181757659Y-110050506D01*
X181757664Y-110050506D01*
X181899706Y-109991671D01*
X182027540Y-109906254D01*
X182056138Y-109877656D01*
X182117319Y-109816476D01*
X182178642Y-109782991D01*
X182248334Y-109787975D01*
X182292681Y-109816476D01*
X182372456Y-109896251D01*
X182372460Y-109896254D01*
X182500294Y-109981671D01*
X182500295Y-109981671D01*
X182500296Y-109981672D01*
X182500298Y-109981673D01*
X182538905Y-109997664D01*
X182642336Y-110040506D01*
X182642338Y-110040506D01*
X182642343Y-110040508D01*
X182793122Y-110070499D01*
X182793126Y-110070500D01*
X182793127Y-110070500D01*
X182946874Y-110070500D01*
X182946875Y-110070499D01*
X182997136Y-110060502D01*
X183097656Y-110040508D01*
X183097659Y-110040506D01*
X183097664Y-110040506D01*
X183239706Y-109981671D01*
X183367540Y-109896254D01*
X183476254Y-109787540D01*
X183561671Y-109659706D01*
X183583738Y-109606432D01*
X183600052Y-109567046D01*
X183643893Y-109512643D01*
X183710187Y-109490578D01*
X183714613Y-109490499D01*
X184537872Y-109490499D01*
X184537873Y-109490499D01*
X184597484Y-109484091D01*
X184631668Y-109471340D01*
X184701359Y-109466357D01*
X184718328Y-109471338D01*
X184752518Y-109484091D01*
X184812128Y-109490500D01*
X185795500Y-109490499D01*
X185862539Y-109510183D01*
X185908294Y-109562987D01*
X185919500Y-109614499D01*
X185919500Y-109686877D01*
X185949491Y-109837656D01*
X185949494Y-109837665D01*
X186008326Y-109979701D01*
X186008327Y-109979703D01*
X186093745Y-110107539D01*
X186093748Y-110107543D01*
X186202456Y-110216251D01*
X186202460Y-110216254D01*
X186330294Y-110301671D01*
X186330295Y-110301671D01*
X186330296Y-110301672D01*
X186330298Y-110301673D01*
X186424988Y-110340894D01*
X186472336Y-110360506D01*
X186472338Y-110360506D01*
X186472343Y-110360508D01*
X186623122Y-110390499D01*
X186623126Y-110390500D01*
X186623127Y-110390500D01*
X186776872Y-110390500D01*
X186776873Y-110390500D01*
X186787564Y-110388373D01*
X186857154Y-110394597D01*
X186912334Y-110437457D01*
X186935582Y-110503345D01*
X186929466Y-110548992D01*
X186905144Y-110622391D01*
X186895000Y-110721677D01*
X186895000Y-110770000D01*
X187595000Y-110770000D01*
X187595000Y-109991362D01*
X187614685Y-109924323D01*
X187620000Y-109917727D01*
X187620000Y-109606432D01*
X187602835Y-109574997D01*
X187600717Y-109555302D01*
X188049500Y-109555302D01*
X188049500Y-110024697D01*
X188052356Y-110060991D01*
X188052357Y-110060994D01*
X188074576Y-110137469D01*
X188079500Y-110172065D01*
X188079500Y-110528922D01*
X188102502Y-110644561D01*
X188096275Y-110714152D01*
X188095000Y-110716097D01*
X188095000Y-111994999D01*
X188118308Y-111994999D01*
X188118322Y-111994998D01*
X188217607Y-111984855D01*
X188378481Y-111931547D01*
X188378492Y-111931542D01*
X188522731Y-111842573D01*
X188531959Y-111833345D01*
X188593279Y-111799856D01*
X188662971Y-111804835D01*
X188707327Y-111833339D01*
X188716955Y-111842967D01*
X188716959Y-111842970D01*
X188861294Y-111931998D01*
X188861297Y-111931999D01*
X188861303Y-111932003D01*
X189022292Y-111985349D01*
X189121655Y-111995500D01*
X189668344Y-111995499D01*
X189668352Y-111995498D01*
X189668355Y-111995498D01*
X189722760Y-111989940D01*
X189767708Y-111985349D01*
X189928697Y-111932003D01*
X190073044Y-111842968D01*
X190192968Y-111723044D01*
X190282003Y-111578697D01*
X190335349Y-111417708D01*
X190345500Y-111318345D01*
X190345499Y-110721656D01*
X190341969Y-110687101D01*
X190354738Y-110618410D01*
X190402619Y-110567525D01*
X190465327Y-110550500D01*
X190476874Y-110550500D01*
X190476875Y-110550499D01*
X190546025Y-110536745D01*
X190627656Y-110520508D01*
X190627659Y-110520506D01*
X190627664Y-110520506D01*
X190769706Y-110461671D01*
X190897540Y-110376254D01*
X191006254Y-110267540D01*
X191091671Y-110139706D01*
X191150506Y-109997664D01*
X191153688Y-109981671D01*
X191180499Y-109846877D01*
X191180500Y-109846874D01*
X191180500Y-109693126D01*
X191180499Y-109693122D01*
X191150508Y-109542343D01*
X191150506Y-109542340D01*
X191150506Y-109542336D01*
X191149936Y-109540960D01*
X191149646Y-109539505D01*
X191148739Y-109536513D01*
X191149033Y-109536423D01*
X191148310Y-109532788D01*
X191145523Y-109528450D01*
X191140500Y-109493515D01*
X191140500Y-109452320D01*
X191160185Y-109385281D01*
X191190192Y-109353051D01*
X191197546Y-109347546D01*
X191283796Y-109232331D01*
X191334091Y-109097483D01*
X191340500Y-109037873D01*
X191340499Y-107142128D01*
X191334091Y-107082517D01*
X191332141Y-107077290D01*
X191283797Y-106947671D01*
X191283793Y-106947664D01*
X191197547Y-106832455D01*
X191197544Y-106832452D01*
X191082335Y-106746206D01*
X191082328Y-106746202D01*
X190947482Y-106695908D01*
X190947483Y-106695908D01*
X190887883Y-106689501D01*
X190887881Y-106689500D01*
X190887873Y-106689500D01*
X190887864Y-106689500D01*
X189892129Y-106689500D01*
X189892123Y-106689501D01*
X189832518Y-106695908D01*
X189798331Y-106708659D01*
X189728639Y-106713642D01*
X189711667Y-106708658D01*
X189677483Y-106695908D01*
X189677484Y-106695908D01*
X189617884Y-106689501D01*
X189617882Y-106689500D01*
X189617874Y-106689500D01*
X189617865Y-106689500D01*
X188622130Y-106689500D01*
X188622124Y-106689501D01*
X188562521Y-106695908D01*
X188562518Y-106695908D01*
X188562518Y-106695909D01*
X188527621Y-106708925D01*
X188527618Y-106708926D01*
X188457926Y-106713909D01*
X188440953Y-106708925D01*
X188407380Y-106696403D01*
X188407373Y-106696401D01*
X188347845Y-106690000D01*
X188100001Y-106690000D01*
X188100001Y-108190807D01*
X188097618Y-108214999D01*
X188079500Y-108306080D01*
X188079500Y-109407934D01*
X188074576Y-109442530D01*
X188052357Y-109519005D01*
X188052356Y-109519008D01*
X188049500Y-109555302D01*
X187600717Y-109555302D01*
X187600001Y-109548639D01*
X187600001Y-106690000D01*
X187352156Y-106690000D01*
X187292625Y-106696401D01*
X187292624Y-106696402D01*
X187259046Y-106708925D01*
X187189354Y-106713907D01*
X187172384Y-106708925D01*
X187171671Y-106708659D01*
X187137484Y-106695908D01*
X187137482Y-106695907D01*
X187137480Y-106695907D01*
X187077884Y-106689500D01*
X187077882Y-106689499D01*
X187077874Y-106689499D01*
X187077866Y-106689499D01*
X186655439Y-106689499D01*
X186588400Y-106669814D01*
X186542645Y-106617010D01*
X186532701Y-106547852D01*
X186561726Y-106484296D01*
X186567758Y-106477818D01*
X186873114Y-106172463D01*
X187339758Y-105705819D01*
X187401081Y-105672334D01*
X187427439Y-105669500D01*
X194031243Y-105669500D01*
X194098282Y-105689185D01*
X194144037Y-105741989D01*
X194153981Y-105811147D01*
X194124956Y-105874703D01*
X194118924Y-105881181D01*
X193989895Y-106010209D01*
X193989891Y-106010213D01*
X193864952Y-106182179D01*
X193768445Y-106371585D01*
X193768444Y-106371587D01*
X193768444Y-106371588D01*
X193748589Y-106432696D01*
X193702754Y-106573760D01*
X193669501Y-106783713D01*
X193669501Y-106996286D01*
X193695063Y-107157682D01*
X193702755Y-107206243D01*
X193765343Y-107398869D01*
X193768445Y-107408414D01*
X193864952Y-107597820D01*
X193989891Y-107769786D01*
X194140214Y-107920109D01*
X194312180Y-108045048D01*
X194312182Y-108045049D01*
X194312185Y-108045051D01*
X194501589Y-108141557D01*
X194703758Y-108207246D01*
X194913714Y-108240500D01*
X194913715Y-108240500D01*
X195126287Y-108240500D01*
X195126288Y-108240500D01*
X195336244Y-108207246D01*
X195538413Y-108141557D01*
X195727817Y-108045051D01*
X195814139Y-107982335D01*
X195899787Y-107920109D01*
X195899789Y-107920106D01*
X195899793Y-107920104D01*
X196050105Y-107769792D01*
X196050107Y-107769788D01*
X196050110Y-107769786D01*
X196175049Y-107597820D01*
X196175051Y-107597817D01*
X196175052Y-107597816D01*
X196179513Y-107589058D01*
X196227484Y-107538262D01*
X196295304Y-107521464D01*
X196361441Y-107543998D01*
X196400484Y-107589054D01*
X196404949Y-107597817D01*
X196529890Y-107769786D01*
X196680213Y-107920109D01*
X196852179Y-108045048D01*
X196852181Y-108045049D01*
X196852184Y-108045051D01*
X197041588Y-108141557D01*
X197243757Y-108207246D01*
X197453713Y-108240500D01*
X197453714Y-108240500D01*
X197666286Y-108240500D01*
X197666287Y-108240500D01*
X197876243Y-108207246D01*
X198078412Y-108141557D01*
X198267816Y-108045051D01*
X198439792Y-107920104D01*
X198553329Y-107806566D01*
X198614648Y-107773084D01*
X198684340Y-107778068D01*
X198740274Y-107819939D01*
X198757189Y-107850917D01*
X198806202Y-107982328D01*
X198806206Y-107982335D01*
X198892452Y-108097544D01*
X198892455Y-108097547D01*
X199007664Y-108183793D01*
X199007671Y-108183797D01*
X199142517Y-108234091D01*
X199142516Y-108234091D01*
X199149444Y-108234835D01*
X199202127Y-108240500D01*
X200997872Y-108240499D01*
X201057483Y-108234091D01*
X201192331Y-108183796D01*
X201307546Y-108097546D01*
X201393796Y-107982331D01*
X201444091Y-107847483D01*
X201450500Y-107787873D01*
X201450499Y-107645499D01*
X201470183Y-107578461D01*
X201522987Y-107532706D01*
X201574499Y-107521500D01*
X201835500Y-107521500D01*
X201902539Y-107541185D01*
X201948294Y-107593989D01*
X201959500Y-107645500D01*
X201959500Y-109020002D01*
X201959501Y-109020019D01*
X201970000Y-109122797D01*
X201970001Y-109122800D01*
X202025185Y-109289332D01*
X202025187Y-109289337D01*
X202052402Y-109333460D01*
X202117288Y-109438657D01*
X202241344Y-109562713D01*
X202390666Y-109654815D01*
X202557203Y-109710000D01*
X202659991Y-109720501D01*
X203460008Y-109720500D01*
X203460016Y-109720499D01*
X203460019Y-109720499D01*
X203516302Y-109714749D01*
X203562797Y-109710000D01*
X203729334Y-109654815D01*
X203878656Y-109562713D01*
X204002712Y-109438657D01*
X204094814Y-109289335D01*
X204149999Y-109122798D01*
X204160500Y-109020010D01*
X204160499Y-107645499D01*
X204180184Y-107578461D01*
X204232987Y-107532706D01*
X204284499Y-107521500D01*
X205947724Y-107521500D01*
X205947728Y-107521501D01*
X205972391Y-107521501D01*
X206095606Y-107521501D01*
X206095606Y-107521500D01*
X206174485Y-107505811D01*
X206216450Y-107497464D01*
X206264449Y-107477582D01*
X206330284Y-107450313D01*
X206375875Y-107419848D01*
X206442551Y-107398969D01*
X206509932Y-107417452D01*
X206556623Y-107469429D01*
X206568126Y-107535551D01*
X206559500Y-107619982D01*
X206559500Y-109020002D01*
X206559501Y-109020019D01*
X206570000Y-109122797D01*
X206570001Y-109122800D01*
X206625185Y-109289332D01*
X206625187Y-109289337D01*
X206652402Y-109333460D01*
X206717288Y-109438657D01*
X206841344Y-109562713D01*
X206990666Y-109654815D01*
X207157203Y-109710000D01*
X207259991Y-109720501D01*
X208060008Y-109720500D01*
X208060016Y-109720499D01*
X208060019Y-109720499D01*
X208116302Y-109714749D01*
X208162797Y-109710000D01*
X208329334Y-109654815D01*
X208478656Y-109562713D01*
X208602712Y-109438657D01*
X208694814Y-109289335D01*
X208749999Y-109122798D01*
X208760500Y-109020010D01*
X208760499Y-108915459D01*
X208780183Y-108848424D01*
X208832986Y-108802668D01*
X208902145Y-108792724D01*
X208965701Y-108821748D01*
X209002204Y-108876454D01*
X209007450Y-108892285D01*
X209007455Y-108892296D01*
X209095716Y-109035388D01*
X209095719Y-109035392D01*
X209214608Y-109154281D01*
X209214612Y-109154284D01*
X209357704Y-109242545D01*
X209357707Y-109242546D01*
X209357713Y-109242550D01*
X209517315Y-109295437D01*
X209615826Y-109305501D01*
X209615831Y-109305501D01*
X210224169Y-109305501D01*
X210224174Y-109305501D01*
X210322685Y-109295437D01*
X210482287Y-109242550D01*
X210482292Y-109242546D01*
X210482294Y-109242546D01*
X210520868Y-109218752D01*
X210551145Y-109200076D01*
X210618537Y-109181635D01*
X210640431Y-109183996D01*
X210673127Y-109190500D01*
X210826874Y-109190500D01*
X210826875Y-109190499D01*
X210895507Y-109176848D01*
X210977656Y-109160508D01*
X210977659Y-109160506D01*
X210977664Y-109160506D01*
X211119706Y-109101671D01*
X211247540Y-109016254D01*
X211356254Y-108907540D01*
X211441671Y-108779706D01*
X211462861Y-108728546D01*
X211506701Y-108674144D01*
X211572994Y-108652078D01*
X211577422Y-108651999D01*
X215306371Y-108651999D01*
X215306372Y-108651999D01*
X215306372Y-108651998D01*
X215309696Y-108651821D01*
X215309769Y-108653191D01*
X215373119Y-108664615D01*
X215424261Y-108712220D01*
X215435329Y-108736495D01*
X215446497Y-108770196D01*
X215446501Y-108770205D01*
X215535529Y-108914540D01*
X215535532Y-108914544D01*
X215655455Y-109034467D01*
X215655459Y-109034470D01*
X215799794Y-109123498D01*
X215799797Y-109123499D01*
X215799803Y-109123503D01*
X215960792Y-109176849D01*
X216060155Y-109187000D01*
X216266979Y-109186999D01*
X216334019Y-109206683D01*
X216354661Y-109223318D01*
X216405454Y-109274111D01*
X216405458Y-109274114D01*
X216520182Y-109350771D01*
X216520189Y-109350775D01*
X216591952Y-109380500D01*
X216647671Y-109403580D01*
X216666891Y-109407403D01*
X216730472Y-109420050D01*
X216783004Y-109430500D01*
X216783007Y-109430500D01*
X219456945Y-109430500D01*
X219504397Y-109439939D01*
X219602336Y-109480506D01*
X219602338Y-109480506D01*
X219602343Y-109480508D01*
X219753122Y-109510499D01*
X219753126Y-109510500D01*
X219753127Y-109510500D01*
X219906874Y-109510500D01*
X219906875Y-109510499D01*
X219957136Y-109500502D01*
X220057656Y-109480508D01*
X220057659Y-109480506D01*
X220057664Y-109480506D01*
X220199706Y-109421671D01*
X220327540Y-109336254D01*
X220436254Y-109227540D01*
X220521671Y-109099706D01*
X220576955Y-108966237D01*
X220620795Y-108911833D01*
X220622547Y-108910639D01*
X220676457Y-108874618D01*
X220785171Y-108765904D01*
X220801524Y-108741430D01*
X221208500Y-108741430D01*
X221243622Y-108738667D01*
X221243628Y-108738666D01*
X221397688Y-108693907D01*
X221397691Y-108693906D01*
X221535785Y-108612238D01*
X221535794Y-108612231D01*
X221649231Y-108498794D01*
X221649238Y-108498785D01*
X221730904Y-108360694D01*
X221771344Y-108221500D01*
X221208500Y-108221500D01*
X221208500Y-108741430D01*
X220801524Y-108741430D01*
X220870588Y-108638070D01*
X220929423Y-108496028D01*
X220959417Y-108345237D01*
X220959417Y-108191491D01*
X220935696Y-108072237D01*
X220941923Y-108002648D01*
X220958500Y-107977352D01*
X220958500Y-107845999D01*
X220960986Y-107837532D01*
X220959698Y-107828801D01*
X220970679Y-107804521D01*
X220978185Y-107778960D01*
X220984854Y-107773181D01*
X220988491Y-107765140D01*
X221010855Y-107750651D01*
X221030989Y-107733205D01*
X221041264Y-107730949D01*
X221047130Y-107727150D01*
X221081164Y-107722193D01*
X221082046Y-107722000D01*
X221082319Y-107721999D01*
X221207680Y-107721999D01*
X221213794Y-107721517D01*
X221218439Y-107721501D01*
X221218490Y-107721515D01*
X221218893Y-107721500D01*
X221771344Y-107721500D01*
X221730904Y-107582305D01*
X221697081Y-107525112D01*
X221679898Y-107457388D01*
X221697082Y-107398869D01*
X221725006Y-107351652D01*
X221731369Y-107340893D01*
X221753767Y-107263798D01*
X221776164Y-107186708D01*
X221776165Y-107186702D01*
X221779000Y-107150681D01*
X221778999Y-106890998D01*
X221798683Y-106823961D01*
X221851487Y-106778206D01*
X221902999Y-106767000D01*
X222902332Y-106767000D01*
X222902345Y-106767000D01*
X222951905Y-106764565D01*
X222964096Y-106763364D01*
X223013156Y-106756086D01*
X223071462Y-106744488D01*
X223166284Y-106715724D01*
X223188814Y-106706392D01*
X223276216Y-106659675D01*
X223320428Y-106630133D01*
X223397026Y-106567269D01*
X223414269Y-106550026D01*
X223477133Y-106473428D01*
X223506675Y-106429216D01*
X223553392Y-106341814D01*
X223562724Y-106319284D01*
X223591487Y-106224465D01*
X223603085Y-106166161D01*
X223610365Y-106117085D01*
X223611566Y-106104891D01*
X223614000Y-106055344D01*
X223614000Y-103473931D01*
X223604285Y-103375305D01*
X223599527Y-103351387D01*
X223597690Y-103342561D01*
X223564385Y-103253269D01*
X223559401Y-103183579D01*
X223566005Y-103162485D01*
X223575520Y-103139517D01*
X223593524Y-103088484D01*
X223614000Y-102946068D01*
X223614000Y-101917655D01*
X223611566Y-101868108D01*
X223610365Y-101855914D01*
X223603085Y-101806838D01*
X223591487Y-101748534D01*
X223562724Y-101653715D01*
X223562722Y-101653710D01*
X223553398Y-101631198D01*
X223553395Y-101631192D01*
X223553392Y-101631185D01*
X223506675Y-101543783D01*
X223477133Y-101499571D01*
X223414269Y-101422973D01*
X223397026Y-101405730D01*
X223320428Y-101342866D01*
X223276216Y-101313324D01*
X223276215Y-101313323D01*
X223276213Y-101313322D01*
X223276214Y-101313322D01*
X223188808Y-101266604D01*
X223166269Y-101257269D01*
X223071463Y-101228512D01*
X223071458Y-101228511D01*
X223013155Y-101216914D01*
X223013147Y-101216912D01*
X223013133Y-101216910D01*
X222964090Y-101209636D01*
X222964074Y-101209634D01*
X222951911Y-101208436D01*
X222951897Y-101208435D01*
X222902345Y-101206000D01*
X222902332Y-101206000D01*
X219592095Y-101206000D01*
X219525056Y-101186315D01*
X219479301Y-101133511D01*
X219469357Y-101064353D01*
X219470478Y-101057809D01*
X219500499Y-100906877D01*
X219500500Y-100906874D01*
X219500500Y-100753126D01*
X219500499Y-100753122D01*
X219470508Y-100602343D01*
X219470505Y-100602334D01*
X219429939Y-100504397D01*
X219420500Y-100456945D01*
X219420500Y-97374089D01*
X219417242Y-97357717D01*
X219417241Y-97357716D01*
X219417240Y-97357707D01*
X219393580Y-97238759D01*
X219386725Y-97222210D01*
X219340777Y-97111279D01*
X219264112Y-96996541D01*
X219264111Y-96996540D01*
X218821234Y-96553664D01*
X218787749Y-96492341D01*
X218792733Y-96422650D01*
X218821234Y-96378302D01*
X218831358Y-96368178D01*
X218843715Y-96355821D01*
X218920008Y-96223678D01*
X218959500Y-96076293D01*
X218959500Y-95923707D01*
X218920008Y-95776322D01*
X218917707Y-95772336D01*
X218843716Y-95644180D01*
X218839415Y-95638576D01*
X218814218Y-95573407D01*
X218828254Y-95504962D01*
X218868898Y-95459984D01*
X218980698Y-95385281D01*
X219037782Y-95347139D01*
X219177139Y-95207782D01*
X219286632Y-95043914D01*
X219289136Y-95037870D01*
X219337749Y-94920506D01*
X219362051Y-94861835D01*
X219379075Y-94776251D01*
X219400500Y-94668543D01*
X220729499Y-94668543D01*
X220767947Y-94861829D01*
X220767950Y-94861839D01*
X220843364Y-95043907D01*
X220843371Y-95043920D01*
X220952860Y-95207781D01*
X220952863Y-95207785D01*
X221092214Y-95347136D01*
X221092218Y-95347139D01*
X221256079Y-95456628D01*
X221256092Y-95456635D01*
X221433923Y-95530294D01*
X221438165Y-95532051D01*
X221438169Y-95532051D01*
X221438170Y-95532052D01*
X221631456Y-95570500D01*
X221631459Y-95570500D01*
X222428543Y-95570500D01*
X222600549Y-95536285D01*
X222621835Y-95532051D01*
X222780438Y-95466356D01*
X222803907Y-95456635D01*
X222803907Y-95456634D01*
X222803914Y-95456632D01*
X222967782Y-95347139D01*
X223107139Y-95207782D01*
X223216632Y-95043914D01*
X223219136Y-95037870D01*
X223267749Y-94920506D01*
X223292051Y-94861835D01*
X223309075Y-94776251D01*
X223330500Y-94668543D01*
X223330500Y-94471456D01*
X223292052Y-94278170D01*
X223292051Y-94278169D01*
X223292051Y-94278165D01*
X223279090Y-94246873D01*
X223216635Y-94096092D01*
X223216628Y-94096079D01*
X223107139Y-93932218D01*
X223107136Y-93932214D01*
X222967785Y-93792863D01*
X222967781Y-93792860D01*
X222803920Y-93683371D01*
X222803907Y-93683364D01*
X222621839Y-93607950D01*
X222621829Y-93607947D01*
X222428543Y-93569500D01*
X222428541Y-93569500D01*
X221631459Y-93569500D01*
X221631457Y-93569500D01*
X221438170Y-93607947D01*
X221438160Y-93607950D01*
X221256092Y-93683364D01*
X221256079Y-93683371D01*
X221092218Y-93792860D01*
X221092214Y-93792863D01*
X220952863Y-93932214D01*
X220952860Y-93932218D01*
X220843371Y-94096079D01*
X220843364Y-94096092D01*
X220767950Y-94278160D01*
X220767947Y-94278170D01*
X220729500Y-94471456D01*
X220729500Y-94471459D01*
X220729500Y-94668541D01*
X220729500Y-94668543D01*
X220729499Y-94668543D01*
X219400500Y-94668543D01*
X219400500Y-94471456D01*
X219362052Y-94278170D01*
X219362051Y-94278169D01*
X219362051Y-94278165D01*
X219349090Y-94246873D01*
X219286635Y-94096092D01*
X219286628Y-94096079D01*
X219177139Y-93932218D01*
X219177136Y-93932214D01*
X219037785Y-93792863D01*
X219037781Y-93792860D01*
X218873920Y-93683371D01*
X218873907Y-93683364D01*
X218691839Y-93607950D01*
X218691829Y-93607947D01*
X218498543Y-93569500D01*
X218498541Y-93569500D01*
X217201459Y-93569500D01*
X217201457Y-93569500D01*
X217008170Y-93607947D01*
X217008160Y-93607950D01*
X216826093Y-93683364D01*
X216826080Y-93683371D01*
X216718728Y-93755102D01*
X216652050Y-93775980D01*
X216649837Y-93776000D01*
X215988599Y-93776000D01*
X215921560Y-93756315D01*
X215875805Y-93703511D01*
X215865861Y-93634353D01*
X215894886Y-93570797D01*
X215900918Y-93564319D01*
X216090416Y-93374821D01*
X216410835Y-93054401D01*
X216472157Y-93020918D01*
X216541849Y-93025902D01*
X216567406Y-93038982D01*
X216658418Y-93099795D01*
X216658421Y-93099796D01*
X216658422Y-93099797D01*
X216697857Y-93116131D01*
X216800460Y-93158630D01*
X216800462Y-93158630D01*
X216800467Y-93158632D01*
X216951246Y-93188623D01*
X216951250Y-93188624D01*
X216951251Y-93188624D01*
X217104998Y-93188624D01*
X217104999Y-93188623D01*
X217255788Y-93158630D01*
X217316911Y-93133311D01*
X217386379Y-93125843D01*
X217401252Y-93129487D01*
X217417113Y-93134430D01*
X217483909Y-93140500D01*
X218891090Y-93140499D01*
X218891097Y-93140499D01*
X218957882Y-93134431D01*
X218957885Y-93134430D01*
X218957887Y-93134430D01*
X219111602Y-93086531D01*
X219249388Y-93003236D01*
X219363236Y-92889388D01*
X219446531Y-92751602D01*
X219494430Y-92597887D01*
X219500500Y-92531091D01*
X219500499Y-92098910D01*
X219500499Y-92098909D01*
X219500499Y-92098901D01*
X219494431Y-92032117D01*
X219494428Y-92032106D01*
X219446532Y-91878401D01*
X219446531Y-91878400D01*
X219446531Y-91878398D01*
X219365373Y-91744147D01*
X219347538Y-91676596D01*
X219365373Y-91615852D01*
X219446531Y-91481602D01*
X219494430Y-91327887D01*
X219500500Y-91261091D01*
X219500500Y-91184500D01*
X219520185Y-91117461D01*
X219572989Y-91071706D01*
X219624500Y-91060500D01*
X220034682Y-91060500D01*
X220034690Y-91060500D01*
X220060917Y-91058436D01*
X220077312Y-91057146D01*
X220077413Y-91058436D01*
X220113598Y-91058712D01*
X220201985Y-91076294D01*
X220223126Y-91080500D01*
X220223127Y-91080500D01*
X220376874Y-91080500D01*
X220376875Y-91080499D01*
X220427136Y-91070502D01*
X220527656Y-91050508D01*
X220527659Y-91050506D01*
X220527664Y-91050506D01*
X220669706Y-90991671D01*
X220797540Y-90906254D01*
X220906254Y-90797540D01*
X220991671Y-90669706D01*
X221050506Y-90527664D01*
X221050833Y-90526024D01*
X221080499Y-90376877D01*
X221080500Y-90376874D01*
X221080500Y-90223126D01*
X221080499Y-90223122D01*
X221050508Y-90072343D01*
X221050505Y-90072334D01*
X220991673Y-89930298D01*
X220991672Y-89930296D01*
X220981266Y-89914723D01*
X220906254Y-89802460D01*
X220906251Y-89802456D01*
X220797543Y-89693748D01*
X220789057Y-89688078D01*
X220744253Y-89634465D01*
X220735546Y-89565140D01*
X220765701Y-89502113D01*
X220825144Y-89465394D01*
X220895003Y-89466642D01*
X220911752Y-89473256D01*
X220964935Y-89498868D01*
X221152575Y-89564526D01*
X221251216Y-89599042D01*
X221251228Y-89599046D01*
X221546937Y-89666540D01*
X221546946Y-89666541D01*
X221546951Y-89666542D01*
X221738094Y-89688078D01*
X221848337Y-89700499D01*
X221848340Y-89700500D01*
X221848343Y-89700500D01*
X222151660Y-89700500D01*
X222151661Y-89700499D01*
X222314537Y-89682148D01*
X222453048Y-89666542D01*
X222453051Y-89666541D01*
X222453063Y-89666540D01*
X222748772Y-89599046D01*
X223035065Y-89498868D01*
X223308341Y-89367265D01*
X223565164Y-89205892D01*
X223802304Y-89016779D01*
X224016779Y-88802304D01*
X224205892Y-88565164D01*
X224240506Y-88510075D01*
X224292840Y-88463785D01*
X224361894Y-88453136D01*
X224425742Y-88481511D01*
X224464115Y-88539901D01*
X224469500Y-88576048D01*
X224469500Y-110423951D01*
X224449815Y-110490990D01*
X224397011Y-110536745D01*
X224327853Y-110546689D01*
X224264297Y-110517664D01*
X224240507Y-110489924D01*
X224205894Y-110434839D01*
X224205893Y-110434838D01*
X224205892Y-110434836D01*
X224016779Y-110197696D01*
X223802304Y-109983221D01*
X223800360Y-109981671D01*
X223720177Y-109917727D01*
X223565164Y-109794108D01*
X223308341Y-109632735D01*
X223308338Y-109632733D01*
X223035068Y-109501133D01*
X222748783Y-109400957D01*
X222748771Y-109400953D01*
X222514764Y-109347543D01*
X222453063Y-109333460D01*
X222453060Y-109333459D01*
X222453048Y-109333457D01*
X222151663Y-109299500D01*
X222151657Y-109299500D01*
X221848343Y-109299500D01*
X221848336Y-109299500D01*
X221546951Y-109333457D01*
X221546937Y-109333460D01*
X221251228Y-109400953D01*
X221251216Y-109400957D01*
X220964931Y-109501133D01*
X220691661Y-109632733D01*
X220434837Y-109794107D01*
X220197696Y-109983220D01*
X219983220Y-110197696D01*
X219794107Y-110434837D01*
X219632733Y-110691661D01*
X219501133Y-110964931D01*
X219400957Y-111251216D01*
X219400953Y-111251228D01*
X219333460Y-111546937D01*
X219333457Y-111546951D01*
X219299500Y-111848336D01*
X219299500Y-112151663D01*
X219333457Y-112453048D01*
X219333460Y-112453062D01*
X219400953Y-112748771D01*
X219400957Y-112748783D01*
X219501133Y-113035068D01*
X219632733Y-113308338D01*
X219632735Y-113308341D01*
X219794108Y-113565164D01*
X219983221Y-113802304D01*
X220197696Y-114016779D01*
X220434836Y-114205892D01*
X220691659Y-114367265D01*
X220964935Y-114498868D01*
X221179951Y-114574105D01*
X221251216Y-114599042D01*
X221251228Y-114599046D01*
X221546937Y-114666540D01*
X221546946Y-114666541D01*
X221546951Y-114666542D01*
X221747874Y-114689180D01*
X221848337Y-114700499D01*
X221848340Y-114700500D01*
X221848343Y-114700500D01*
X222151660Y-114700500D01*
X222151661Y-114700499D01*
X222305694Y-114683144D01*
X222453048Y-114666542D01*
X222453051Y-114666541D01*
X222453063Y-114666540D01*
X222748772Y-114599046D01*
X223035065Y-114498868D01*
X223308341Y-114367265D01*
X223565164Y-114205892D01*
X223802304Y-114016779D01*
X224016779Y-113802304D01*
X224205892Y-113565164D01*
X224240506Y-113510075D01*
X224292840Y-113463785D01*
X224361894Y-113453136D01*
X224425742Y-113481511D01*
X224464115Y-113539901D01*
X224469500Y-113576048D01*
X224469500Y-114865500D01*
X224449815Y-114932539D01*
X224397011Y-114978294D01*
X224345500Y-114989500D01*
X164324500Y-114989500D01*
X164257461Y-114969815D01*
X164211706Y-114917011D01*
X164200500Y-114865500D01*
X164200500Y-112905719D01*
X164220185Y-112838680D01*
X164272989Y-112792925D01*
X164342147Y-112782981D01*
X164405703Y-112812006D01*
X164441541Y-112864764D01*
X164501133Y-113035068D01*
X164632733Y-113308338D01*
X164632735Y-113308341D01*
X164794108Y-113565164D01*
X164983221Y-113802304D01*
X165197696Y-114016779D01*
X165434836Y-114205892D01*
X165691659Y-114367265D01*
X165964935Y-114498868D01*
X166179951Y-114574105D01*
X166251216Y-114599042D01*
X166251228Y-114599046D01*
X166546937Y-114666540D01*
X166546946Y-114666541D01*
X166546951Y-114666542D01*
X166747874Y-114689180D01*
X166848337Y-114700499D01*
X166848340Y-114700500D01*
X166848343Y-114700500D01*
X167151660Y-114700500D01*
X167151661Y-114700499D01*
X167305694Y-114683144D01*
X167453048Y-114666542D01*
X167453051Y-114666541D01*
X167453063Y-114666540D01*
X167748772Y-114599046D01*
X168035065Y-114498868D01*
X168308341Y-114367265D01*
X168565164Y-114205892D01*
X168802304Y-114016779D01*
X169016779Y-113802304D01*
X169205892Y-113565164D01*
X169367265Y-113308341D01*
X169498868Y-113035065D01*
X169599046Y-112748772D01*
X169666540Y-112453063D01*
X169700500Y-112151657D01*
X169700500Y-111848343D01*
X169686347Y-111722728D01*
X169666542Y-111546951D01*
X169666541Y-111546946D01*
X169666540Y-111546937D01*
X169614360Y-111318322D01*
X186895001Y-111318322D01*
X186905144Y-111417607D01*
X186958452Y-111578481D01*
X186958457Y-111578492D01*
X187047424Y-111722728D01*
X187047427Y-111722732D01*
X187167267Y-111842572D01*
X187167271Y-111842575D01*
X187311507Y-111931542D01*
X187311518Y-111931547D01*
X187472393Y-111984855D01*
X187571683Y-111994999D01*
X187595000Y-111994998D01*
X187595000Y-111270000D01*
X186895001Y-111270000D01*
X186895001Y-111318322D01*
X169614360Y-111318322D01*
X169599046Y-111251228D01*
X169599042Y-111251216D01*
X169599042Y-111251215D01*
X169544128Y-111094280D01*
X169498868Y-110964935D01*
X169367265Y-110691659D01*
X169205892Y-110434836D01*
X169016779Y-110197696D01*
X168802304Y-109983221D01*
X168800360Y-109981671D01*
X168720177Y-109917727D01*
X168565164Y-109794108D01*
X168308341Y-109632735D01*
X168308338Y-109632733D01*
X168035068Y-109501133D01*
X167748783Y-109400957D01*
X167748771Y-109400953D01*
X167514764Y-109347543D01*
X167453063Y-109333460D01*
X167453060Y-109333459D01*
X167453048Y-109333457D01*
X167151663Y-109299500D01*
X167151657Y-109299500D01*
X166848343Y-109299500D01*
X166848336Y-109299500D01*
X166546951Y-109333457D01*
X166546937Y-109333460D01*
X166251228Y-109400953D01*
X166251216Y-109400957D01*
X165964931Y-109501133D01*
X165691661Y-109632733D01*
X165434837Y-109794107D01*
X165197696Y-109983220D01*
X164983220Y-110197696D01*
X164794107Y-110434837D01*
X164632733Y-110691661D01*
X164501133Y-110964931D01*
X164441541Y-111135235D01*
X164400820Y-111192011D01*
X164335867Y-111217758D01*
X164267305Y-111204302D01*
X164216902Y-111155914D01*
X164200500Y-111094280D01*
X164200500Y-107142135D01*
X172439501Y-107142135D01*
X172439501Y-109037870D01*
X172439502Y-109037876D01*
X172445909Y-109097483D01*
X172496203Y-109232328D01*
X172496204Y-109232329D01*
X172496205Y-109232331D01*
X172582455Y-109347546D01*
X172582458Y-109347548D01*
X172588723Y-109353813D01*
X172586974Y-109355561D01*
X172620957Y-109400961D01*
X172626391Y-109468477D01*
X172619500Y-109503125D01*
X172619500Y-109656877D01*
X172649491Y-109807656D01*
X172649494Y-109807665D01*
X172708326Y-109949701D01*
X172708327Y-109949703D01*
X172793745Y-110077539D01*
X172793748Y-110077543D01*
X172902456Y-110186251D01*
X172902459Y-110186253D01*
X172902460Y-110186254D01*
X173030294Y-110271671D01*
X173030295Y-110271671D01*
X173030296Y-110271672D01*
X173030298Y-110271673D01*
X173102721Y-110301671D01*
X173172336Y-110330506D01*
X173172338Y-110330506D01*
X173172343Y-110330508D01*
X173323122Y-110360499D01*
X173323126Y-110360500D01*
X173323127Y-110360500D01*
X173476874Y-110360500D01*
X173476875Y-110360499D01*
X173527136Y-110350502D01*
X173627656Y-110330508D01*
X173627659Y-110330506D01*
X173627664Y-110330506D01*
X173769706Y-110271671D01*
X173897540Y-110186254D01*
X173897550Y-110186243D01*
X173902250Y-110182388D01*
X173903041Y-110183352D01*
X173958626Y-110152993D01*
X174028318Y-110157969D01*
X174072680Y-110186475D01*
X174102456Y-110216251D01*
X174102460Y-110216254D01*
X174230294Y-110301671D01*
X174230295Y-110301671D01*
X174230296Y-110301672D01*
X174230298Y-110301673D01*
X174324988Y-110340894D01*
X174372336Y-110360506D01*
X174372338Y-110360506D01*
X174372343Y-110360508D01*
X174523122Y-110390499D01*
X174523126Y-110390500D01*
X174523127Y-110390500D01*
X174676874Y-110390500D01*
X174676875Y-110390499D01*
X174748508Y-110376251D01*
X174827656Y-110360508D01*
X174827659Y-110360506D01*
X174827664Y-110360506D01*
X174969706Y-110301671D01*
X175097540Y-110216254D01*
X175131406Y-110182388D01*
X175167319Y-110146476D01*
X175228642Y-110112991D01*
X175298334Y-110117975D01*
X175342681Y-110146476D01*
X175452456Y-110256251D01*
X175452460Y-110256254D01*
X175580294Y-110341671D01*
X175580295Y-110341671D01*
X175580296Y-110341672D01*
X175580298Y-110341673D01*
X175663786Y-110376254D01*
X175722336Y-110400506D01*
X175722338Y-110400506D01*
X175722343Y-110400508D01*
X175873122Y-110430499D01*
X175873126Y-110430500D01*
X175873127Y-110430500D01*
X176026874Y-110430500D01*
X176026875Y-110430499D01*
X176077136Y-110420502D01*
X176177656Y-110400508D01*
X176177659Y-110400506D01*
X176177664Y-110400506D01*
X176319706Y-110341671D01*
X176447540Y-110256254D01*
X176556254Y-110147540D01*
X176641671Y-110019706D01*
X176700506Y-109877664D01*
X176706631Y-109846874D01*
X176730499Y-109726877D01*
X176730500Y-109726874D01*
X176730500Y-109573126D01*
X176730499Y-109573125D01*
X176707173Y-109455854D01*
X176713400Y-109386265D01*
X176733502Y-109355597D01*
X176732232Y-109354646D01*
X176748094Y-109333457D01*
X176823797Y-109232331D01*
X176874092Y-109097483D01*
X176880501Y-109037873D01*
X176880500Y-107142128D01*
X176874092Y-107082517D01*
X176872142Y-107077290D01*
X176823798Y-106947671D01*
X176823794Y-106947664D01*
X176737548Y-106832455D01*
X176737545Y-106832452D01*
X176622336Y-106746206D01*
X176622329Y-106746202D01*
X176487483Y-106695908D01*
X176487484Y-106695908D01*
X176427884Y-106689501D01*
X176427882Y-106689500D01*
X176427874Y-106689500D01*
X176427865Y-106689500D01*
X175432130Y-106689500D01*
X175432124Y-106689501D01*
X175372519Y-106695908D01*
X175338332Y-106708659D01*
X175268640Y-106713642D01*
X175251670Y-106708659D01*
X175234141Y-106702121D01*
X175217484Y-106695909D01*
X175217483Y-106695908D01*
X175157884Y-106689501D01*
X175157882Y-106689500D01*
X175157874Y-106689500D01*
X175157865Y-106689500D01*
X174162130Y-106689500D01*
X174162124Y-106689501D01*
X174102519Y-106695908D01*
X174068332Y-106708659D01*
X173998640Y-106713642D01*
X173981670Y-106708659D01*
X173964141Y-106702121D01*
X173947484Y-106695909D01*
X173947483Y-106695908D01*
X173887884Y-106689501D01*
X173887882Y-106689500D01*
X173887874Y-106689500D01*
X173887865Y-106689500D01*
X172892130Y-106689500D01*
X172892124Y-106689501D01*
X172832517Y-106695908D01*
X172697672Y-106746202D01*
X172697665Y-106746206D01*
X172582456Y-106832452D01*
X172582453Y-106832455D01*
X172496207Y-106947664D01*
X172496203Y-106947671D01*
X172445909Y-107082517D01*
X172439502Y-107142116D01*
X172439502Y-107142123D01*
X172439501Y-107142135D01*
X164200500Y-107142135D01*
X164200500Y-91022070D01*
X170544500Y-91022070D01*
X170544500Y-91277930D01*
X170556225Y-91351956D01*
X170584526Y-91530640D01*
X170663588Y-91773972D01*
X170663589Y-91773975D01*
X170723641Y-91891832D01*
X170776101Y-91994790D01*
X170779750Y-92001950D01*
X170930132Y-92208935D01*
X170930136Y-92208940D01*
X171111059Y-92389863D01*
X171111064Y-92389867D01*
X171225901Y-92473300D01*
X171318053Y-92540252D01*
X171431160Y-92597883D01*
X171546024Y-92656410D01*
X171546027Y-92656411D01*
X171620056Y-92680464D01*
X171789361Y-92735474D01*
X172042070Y-92775500D01*
X172042071Y-92775500D01*
X172297928Y-92775500D01*
X172297930Y-92775500D01*
X172368791Y-92764276D01*
X172438081Y-92773230D01*
X172491534Y-92818226D01*
X172512174Y-92884977D01*
X172498758Y-92939155D01*
X172499304Y-92939359D01*
X172497532Y-92944109D01*
X172497022Y-92946170D01*
X172496206Y-92947663D01*
X172445909Y-93082517D01*
X172440328Y-93134431D01*
X172439502Y-93142123D01*
X172439501Y-93142135D01*
X172439501Y-95037870D01*
X172439502Y-95037876D01*
X172445909Y-95097483D01*
X172496203Y-95232328D01*
X172496204Y-95232329D01*
X172496205Y-95232331D01*
X172578872Y-95342760D01*
X172582455Y-95347546D01*
X172589809Y-95353051D01*
X172631682Y-95408983D01*
X172639501Y-95452320D01*
X172639501Y-95810363D01*
X172637118Y-95834554D01*
X172619500Y-95923123D01*
X172619500Y-96076877D01*
X172649491Y-96227656D01*
X172649494Y-96227665D01*
X172708326Y-96369701D01*
X172708327Y-96369703D01*
X172793745Y-96497539D01*
X172793748Y-96497543D01*
X172902456Y-96606251D01*
X172902460Y-96606254D01*
X173030294Y-96691671D01*
X173030295Y-96691671D01*
X173030296Y-96691672D01*
X173030298Y-96691673D01*
X173124988Y-96730894D01*
X173172336Y-96750506D01*
X173172338Y-96750506D01*
X173172343Y-96750508D01*
X173323122Y-96780499D01*
X173323126Y-96780500D01*
X173323127Y-96780500D01*
X173476874Y-96780500D01*
X173476875Y-96780499D01*
X173527136Y-96770502D01*
X173627656Y-96750508D01*
X173627659Y-96750506D01*
X173627664Y-96750506D01*
X173769706Y-96691671D01*
X173897540Y-96606254D01*
X174006254Y-96497540D01*
X174091671Y-96369706D01*
X174150506Y-96227664D01*
X174151299Y-96223681D01*
X174180499Y-96076877D01*
X174180500Y-96076874D01*
X174180500Y-95923126D01*
X174180499Y-95923123D01*
X174164462Y-95842501D01*
X174150506Y-95772336D01*
X174149938Y-95770964D01*
X174149649Y-95769512D01*
X174148736Y-95766501D01*
X174149032Y-95766411D01*
X174148311Y-95762788D01*
X174145524Y-95758450D01*
X174140501Y-95723515D01*
X174140501Y-95614499D01*
X174160186Y-95547460D01*
X174212990Y-95501705D01*
X174264496Y-95490499D01*
X175055501Y-95490499D01*
X175122540Y-95510184D01*
X175168295Y-95562988D01*
X175179501Y-95614499D01*
X175179501Y-95903919D01*
X175179501Y-95903921D01*
X175179500Y-95903921D01*
X175208341Y-96048908D01*
X175208343Y-96048914D01*
X175264915Y-96185492D01*
X175264921Y-96185502D01*
X175280578Y-96208936D01*
X175292034Y-96230370D01*
X175308325Y-96269699D01*
X175308327Y-96269703D01*
X175393745Y-96397539D01*
X175393748Y-96397543D01*
X175502456Y-96506251D01*
X175502460Y-96506254D01*
X175630294Y-96591671D01*
X175630295Y-96591671D01*
X175630296Y-96591672D01*
X175630298Y-96591673D01*
X175724988Y-96630894D01*
X175772336Y-96650506D01*
X175772338Y-96650506D01*
X175772343Y-96650508D01*
X175923122Y-96680499D01*
X175923126Y-96680500D01*
X175923127Y-96680500D01*
X176076874Y-96680500D01*
X176076875Y-96680499D01*
X176127136Y-96670502D01*
X176227656Y-96650508D01*
X176227659Y-96650506D01*
X176227664Y-96650506D01*
X176369706Y-96591671D01*
X176497540Y-96506254D01*
X176606254Y-96397540D01*
X176691671Y-96269706D01*
X176750506Y-96127664D01*
X176752876Y-96115753D01*
X176780499Y-95976877D01*
X176780500Y-95976874D01*
X176780500Y-95823126D01*
X176780499Y-95823122D01*
X176750508Y-95672343D01*
X176750505Y-95672334D01*
X176738843Y-95644180D01*
X176705213Y-95562988D01*
X176689940Y-95526114D01*
X176688313Y-95517937D01*
X176685524Y-95513597D01*
X176680501Y-95478662D01*
X176680501Y-95452320D01*
X176700186Y-95385281D01*
X176730193Y-95353051D01*
X176737547Y-95347546D01*
X176823797Y-95232331D01*
X176874092Y-95097483D01*
X176880501Y-95037873D01*
X176880500Y-93142128D01*
X176874524Y-93086532D01*
X176874092Y-93082516D01*
X176823798Y-92947672D01*
X176823797Y-92947669D01*
X176820541Y-92943319D01*
X176796124Y-92877858D01*
X176810975Y-92809584D01*
X176860379Y-92760178D01*
X176928651Y-92745325D01*
X176939189Y-92746534D01*
X177122070Y-92775500D01*
X177122072Y-92775500D01*
X177377929Y-92775500D01*
X177377930Y-92775500D01*
X177630639Y-92735474D01*
X177873975Y-92656410D01*
X178101947Y-92540252D01*
X178308942Y-92389862D01*
X178489862Y-92208942D01*
X178640252Y-92001947D01*
X178756410Y-91773975D01*
X178835474Y-91530639D01*
X178875500Y-91277930D01*
X178875500Y-91022070D01*
X178835474Y-90769361D01*
X178788435Y-90624589D01*
X178756411Y-90526027D01*
X178756410Y-90526024D01*
X178716185Y-90447080D01*
X178640252Y-90298053D01*
X178591024Y-90230296D01*
X178489867Y-90091064D01*
X178489863Y-90091059D01*
X178308940Y-89910136D01*
X178308935Y-89910132D01*
X178101950Y-89759750D01*
X178101949Y-89759749D01*
X178101947Y-89759748D01*
X177980731Y-89697985D01*
X177873975Y-89643589D01*
X177873972Y-89643588D01*
X177630640Y-89564526D01*
X177504284Y-89544513D01*
X177377930Y-89524500D01*
X177122070Y-89524500D01*
X177084220Y-89530495D01*
X176869359Y-89564526D01*
X176626027Y-89643588D01*
X176626024Y-89643589D01*
X176398049Y-89759750D01*
X176191064Y-89910132D01*
X176191059Y-89910136D01*
X176010136Y-90091059D01*
X176010132Y-90091064D01*
X175859750Y-90298049D01*
X175743589Y-90526024D01*
X175743588Y-90526027D01*
X175664526Y-90769359D01*
X175624781Y-91020294D01*
X175624500Y-91022070D01*
X175624500Y-91277930D01*
X175626732Y-91292022D01*
X175664525Y-91530638D01*
X175676228Y-91566656D01*
X175678222Y-91636497D01*
X175645978Y-91692653D01*
X175347047Y-91991585D01*
X175344054Y-91996065D01*
X175307683Y-92050500D01*
X175264920Y-92114498D01*
X175264913Y-92114510D01*
X175208344Y-92251081D01*
X175208341Y-92251091D01*
X175179501Y-92396078D01*
X175179501Y-92565500D01*
X175159816Y-92632539D01*
X175107012Y-92678294D01*
X175055501Y-92689500D01*
X174264501Y-92689500D01*
X174197462Y-92669815D01*
X174151707Y-92617011D01*
X174140501Y-92565500D01*
X174140501Y-92296080D01*
X174111660Y-92151093D01*
X174111659Y-92151092D01*
X174111659Y-92151088D01*
X174111657Y-92151083D01*
X174055088Y-92014512D01*
X174055086Y-92014508D01*
X174055085Y-92014506D01*
X174010329Y-91947524D01*
X174004317Y-91938526D01*
X173972955Y-91891587D01*
X173774021Y-91692653D01*
X173740536Y-91631330D01*
X173743772Y-91566652D01*
X173755474Y-91530639D01*
X173795500Y-91277930D01*
X173795500Y-91022070D01*
X173755474Y-90769361D01*
X173708435Y-90624589D01*
X173676411Y-90526027D01*
X173676410Y-90526024D01*
X173636185Y-90447080D01*
X173560252Y-90298053D01*
X173511024Y-90230296D01*
X173409867Y-90091064D01*
X173409863Y-90091059D01*
X173228940Y-89910136D01*
X173228935Y-89910132D01*
X173021950Y-89759750D01*
X173021949Y-89759749D01*
X173021947Y-89759748D01*
X172900731Y-89697985D01*
X172793975Y-89643589D01*
X172793972Y-89643588D01*
X172550640Y-89564526D01*
X172424284Y-89544513D01*
X172297930Y-89524500D01*
X172042070Y-89524500D01*
X172004220Y-89530495D01*
X171789359Y-89564526D01*
X171546027Y-89643588D01*
X171546024Y-89643589D01*
X171318049Y-89759750D01*
X171111064Y-89910132D01*
X171111059Y-89910136D01*
X170930136Y-90091059D01*
X170930132Y-90091064D01*
X170779750Y-90298049D01*
X170663589Y-90526024D01*
X170663588Y-90526027D01*
X170584526Y-90769359D01*
X170544781Y-91020294D01*
X170544500Y-91022070D01*
X164200500Y-91022070D01*
X164200500Y-87905719D01*
X164220185Y-87838680D01*
X164272989Y-87792925D01*
X164342147Y-87782981D01*
X164405703Y-87812006D01*
X164441541Y-87864764D01*
X164501133Y-88035068D01*
X164632733Y-88308338D01*
X164657014Y-88346981D01*
X164794108Y-88565164D01*
X164935193Y-88742078D01*
X164971720Y-88787883D01*
X164983221Y-88802304D01*
X165197696Y-89016779D01*
X165434836Y-89205892D01*
X165691659Y-89367265D01*
X165964935Y-89498868D01*
X166152575Y-89564526D01*
X166251216Y-89599042D01*
X166251228Y-89599046D01*
X166546937Y-89666540D01*
X166546946Y-89666541D01*
X166546951Y-89666542D01*
X166738094Y-89688078D01*
X166848337Y-89700499D01*
X166848340Y-89700500D01*
X166848343Y-89700500D01*
X167151660Y-89700500D01*
X167151661Y-89700499D01*
X167314537Y-89682148D01*
X167453048Y-89666542D01*
X167453051Y-89666541D01*
X167453063Y-89666540D01*
X167748772Y-89599046D01*
X168035065Y-89498868D01*
X168308341Y-89367265D01*
X168565164Y-89205892D01*
X168802304Y-89016779D01*
X169016779Y-88802304D01*
X169205892Y-88565164D01*
X169253158Y-88489941D01*
X173184500Y-88489941D01*
X173184500Y-88730059D01*
X173202244Y-88842092D01*
X173222063Y-88967222D01*
X173296265Y-89195593D01*
X173383738Y-89367265D01*
X173405276Y-89409536D01*
X173546414Y-89603796D01*
X173716204Y-89773586D01*
X173910464Y-89914724D01*
X174011543Y-89966226D01*
X174124406Y-90023734D01*
X174124408Y-90023734D01*
X174124411Y-90023736D01*
X174352778Y-90097937D01*
X174589941Y-90135500D01*
X174589942Y-90135500D01*
X174830058Y-90135500D01*
X174830059Y-90135500D01*
X175067222Y-90097937D01*
X175295589Y-90023736D01*
X175509536Y-89914724D01*
X175703796Y-89773586D01*
X175873586Y-89603796D01*
X176014724Y-89409536D01*
X176123736Y-89195589D01*
X176197937Y-88967222D01*
X176235500Y-88730059D01*
X176235500Y-88489941D01*
X176197937Y-88252778D01*
X176123736Y-88024411D01*
X176123733Y-88024405D01*
X176123732Y-88024402D01*
X176052764Y-87885122D01*
X176014724Y-87810464D01*
X175873586Y-87616204D01*
X175703796Y-87446414D01*
X175509536Y-87305276D01*
X175295593Y-87196265D01*
X175067222Y-87122063D01*
X174830059Y-87084500D01*
X174589941Y-87084500D01*
X174471359Y-87103281D01*
X174352777Y-87122063D01*
X174124406Y-87196265D01*
X173910463Y-87305276D01*
X173716201Y-87446416D01*
X173546416Y-87616201D01*
X173405276Y-87810463D01*
X173296268Y-88024402D01*
X173296266Y-88024405D01*
X173296264Y-88024411D01*
X173246489Y-88177603D01*
X173222063Y-88252777D01*
X173187658Y-88470001D01*
X173184500Y-88489941D01*
X169253158Y-88489941D01*
X169367265Y-88308341D01*
X169498868Y-88035065D01*
X169599046Y-87748772D01*
X169666540Y-87453063D01*
X169671735Y-87406961D01*
X169695474Y-87196264D01*
X169700500Y-87151657D01*
X169700500Y-86848343D01*
X169684112Y-86702893D01*
X169666542Y-86546951D01*
X169666541Y-86546946D01*
X169666540Y-86546937D01*
X169599046Y-86251228D01*
X169587666Y-86218707D01*
X169565694Y-86155914D01*
X169498868Y-85964935D01*
X169367265Y-85691659D01*
X169205892Y-85434836D01*
X169016779Y-85197696D01*
X168802304Y-84983221D01*
X168565164Y-84794108D01*
X168462332Y-84729494D01*
X168416041Y-84677159D01*
X168405393Y-84608106D01*
X168433768Y-84544257D01*
X168492158Y-84505885D01*
X168528304Y-84500500D01*
X171183133Y-84500500D01*
X171250172Y-84520185D01*
G37*
%TD.AperFunction*%
%TA.AperFunction,Conductor*%
G36*
X208218039Y-104369685D02*
G01*
X208263794Y-104422489D01*
X208275000Y-104474000D01*
X208275000Y-105324999D01*
X208298308Y-105324999D01*
X208298322Y-105324998D01*
X208397605Y-105314856D01*
X208456496Y-105295341D01*
X208526324Y-105292939D01*
X208586366Y-105328670D01*
X208617560Y-105391190D01*
X208619501Y-105413047D01*
X208619501Y-105829169D01*
X208619502Y-105829191D01*
X208622336Y-105865205D01*
X208667130Y-106019388D01*
X208667132Y-106019393D01*
X208717703Y-106104905D01*
X208748866Y-106157598D01*
X208776982Y-106185714D01*
X208810467Y-106247035D01*
X208813301Y-106273395D01*
X208813301Y-106338424D01*
X208822187Y-106371588D01*
X208852602Y-106485099D01*
X208876116Y-106525825D01*
X208927887Y-106615496D01*
X208944500Y-106677495D01*
X208944500Y-107059180D01*
X208954563Y-107157682D01*
X209007450Y-107317283D01*
X209007455Y-107317294D01*
X209095716Y-107460386D01*
X209095719Y-107460391D01*
X209127648Y-107492320D01*
X209161133Y-107553644D01*
X209156147Y-107623335D01*
X209127648Y-107667680D01*
X209095719Y-107699608D01*
X209095716Y-107699613D01*
X209007455Y-107842705D01*
X209007451Y-107842714D01*
X209002203Y-107858548D01*
X208962431Y-107915992D01*
X208897915Y-107942814D01*
X208829140Y-107930498D01*
X208777940Y-107882955D01*
X208760499Y-107819542D01*
X208760499Y-107619999D01*
X208760498Y-107619982D01*
X208749999Y-107517204D01*
X208749998Y-107517201D01*
X208737372Y-107479098D01*
X208694814Y-107350667D01*
X208602712Y-107201345D01*
X208478656Y-107077289D01*
X208347330Y-106996287D01*
X208329336Y-106985188D01*
X208329331Y-106985186D01*
X208327862Y-106984699D01*
X208162797Y-106930002D01*
X208162795Y-106930001D01*
X208060010Y-106919501D01*
X207259998Y-106919501D01*
X207259980Y-106919502D01*
X207196094Y-106926029D01*
X207127401Y-106913259D01*
X207076517Y-106865378D01*
X207059597Y-106797588D01*
X207076759Y-106739553D01*
X207111744Y-106680398D01*
X207112588Y-106677495D01*
X207157597Y-106522573D01*
X207157598Y-106522567D01*
X207157826Y-106519675D01*
X207160500Y-106485694D01*
X207160500Y-105279548D01*
X207180185Y-105212509D01*
X207232989Y-105166754D01*
X207302147Y-105156810D01*
X207349597Y-105174010D01*
X207491507Y-105261542D01*
X207491518Y-105261547D01*
X207652393Y-105314855D01*
X207751683Y-105324999D01*
X207775000Y-105324998D01*
X207775000Y-104474000D01*
X207794685Y-104406961D01*
X207847489Y-104361206D01*
X207899000Y-104350000D01*
X208151000Y-104350000D01*
X208218039Y-104369685D01*
G37*
%TD.AperFunction*%
%TA.AperFunction,Conductor*%
G36*
X214544286Y-102562067D02*
G01*
X214580349Y-102597490D01*
X214593748Y-102617543D01*
X214702456Y-102726251D01*
X214702460Y-102726254D01*
X214830294Y-102811671D01*
X214830295Y-102811671D01*
X214830296Y-102811672D01*
X214830298Y-102811673D01*
X214890739Y-102836708D01*
X214972336Y-102870506D01*
X214972338Y-102870506D01*
X214972343Y-102870508D01*
X215123122Y-102900499D01*
X215123126Y-102900500D01*
X215123127Y-102900500D01*
X215276874Y-102900500D01*
X215276875Y-102900499D01*
X215353239Y-102885310D01*
X215427656Y-102870508D01*
X215427659Y-102870506D01*
X215427664Y-102870506D01*
X215569706Y-102811671D01*
X215637461Y-102766397D01*
X215655507Y-102760747D01*
X215671417Y-102750523D01*
X215702376Y-102746071D01*
X215704138Y-102745520D01*
X215706352Y-102745500D01*
X215751423Y-102745500D01*
X215818462Y-102765185D01*
X215850692Y-102795192D01*
X215852452Y-102797544D01*
X215852453Y-102797545D01*
X215852454Y-102797546D01*
X215871323Y-102811671D01*
X215967664Y-102883793D01*
X215967671Y-102883797D01*
X216006181Y-102898160D01*
X216102517Y-102934091D01*
X216162127Y-102940500D01*
X216182409Y-102940499D01*
X216249446Y-102960181D01*
X216295203Y-103012983D01*
X216305150Y-103082141D01*
X216304029Y-103088688D01*
X216299500Y-103111458D01*
X216299500Y-103111459D01*
X216299500Y-103308541D01*
X216299500Y-103308543D01*
X216299499Y-103308543D01*
X216337947Y-103501829D01*
X216337950Y-103501839D01*
X216413364Y-103683907D01*
X216413371Y-103683920D01*
X216522860Y-103847781D01*
X216522863Y-103847785D01*
X216596578Y-103921500D01*
X215408500Y-103921500D01*
X215408500Y-104093799D01*
X215365879Y-104077903D01*
X215365872Y-104077901D01*
X215306344Y-104071500D01*
X213608500Y-104071500D01*
X213608500Y-104411500D01*
X213108500Y-104411500D01*
X213108500Y-104071500D01*
X211410655Y-104071500D01*
X211351127Y-104077901D01*
X211351120Y-104077903D01*
X211216413Y-104128145D01*
X211216406Y-104128149D01*
X211101312Y-104214309D01*
X211101309Y-104214312D01*
X211015149Y-104329406D01*
X211015145Y-104329413D01*
X210964903Y-104464120D01*
X210964901Y-104464127D01*
X210958500Y-104523655D01*
X210958500Y-104688724D01*
X210951425Y-104712818D01*
X210948399Y-104737743D01*
X210941750Y-104745765D01*
X210938815Y-104755763D01*
X210919839Y-104772204D01*
X210903816Y-104791541D01*
X210893883Y-104794696D01*
X210886011Y-104801518D01*
X210861159Y-104805091D01*
X210837226Y-104812694D01*
X210822088Y-104810709D01*
X210816853Y-104811462D01*
X210802189Y-104808440D01*
X210617188Y-104758509D01*
X210596805Y-104746034D01*
X210574477Y-104737523D01*
X210567549Y-104728129D01*
X210557594Y-104722036D01*
X210547191Y-104700522D01*
X210533009Y-104681290D01*
X210530196Y-104665374D01*
X210527179Y-104659134D01*
X210527958Y-104652711D01*
X210525499Y-104638798D01*
X210525499Y-104051656D01*
X210521928Y-104016701D01*
X210515349Y-103952292D01*
X210515348Y-103952289D01*
X210462003Y-103791303D01*
X210458001Y-103784815D01*
X210439561Y-103717425D01*
X210460482Y-103650762D01*
X210514124Y-103605991D01*
X210583454Y-103597329D01*
X210592798Y-103599438D01*
X210596006Y-103600024D01*
X210596008Y-103600025D01*
X210632311Y-103602882D01*
X210632319Y-103602882D01*
X211041683Y-103602882D01*
X211041691Y-103602882D01*
X211077994Y-103600025D01*
X211077996Y-103600024D01*
X211077998Y-103600024D01*
X211118976Y-103588118D01*
X211233396Y-103554876D01*
X211253880Y-103542761D01*
X211321602Y-103525578D01*
X211380120Y-103542761D01*
X211400606Y-103554876D01*
X211400608Y-103554876D01*
X211400609Y-103554877D01*
X211556003Y-103600024D01*
X211556006Y-103600024D01*
X211556008Y-103600025D01*
X211592311Y-103602882D01*
X211592319Y-103602882D01*
X212001683Y-103602882D01*
X212001691Y-103602882D01*
X212037994Y-103600025D01*
X212173177Y-103560750D01*
X212243044Y-103560949D01*
X212253527Y-103564757D01*
X212409413Y-103610046D01*
X212409416Y-103610046D01*
X212409418Y-103610047D01*
X212445441Y-103612882D01*
X212843802Y-103612881D01*
X212879826Y-103610047D01*
X213034015Y-103565251D01*
X213091992Y-103530963D01*
X213159714Y-103513780D01*
X213218234Y-103530963D01*
X213275427Y-103564787D01*
X213414620Y-103605226D01*
X213414620Y-103605225D01*
X213914620Y-103605225D01*
X214053814Y-103564786D01*
X214191905Y-103483120D01*
X214191914Y-103483113D01*
X214305351Y-103369676D01*
X214305358Y-103369667D01*
X214387026Y-103231573D01*
X214387027Y-103231570D01*
X214431786Y-103077510D01*
X214431787Y-103077504D01*
X214434551Y-103042382D01*
X213914620Y-103042382D01*
X213914620Y-103605225D01*
X213414620Y-103605225D01*
X213414620Y-103052816D01*
X213414624Y-103051809D01*
X213414659Y-103047440D01*
X213415122Y-103041563D01*
X213415121Y-102916381D01*
X213434805Y-102849344D01*
X213487608Y-102803588D01*
X213539121Y-102792382D01*
X213664620Y-102792382D01*
X213664620Y-102666382D01*
X213684305Y-102599343D01*
X213737109Y-102553588D01*
X213788620Y-102542382D01*
X214477247Y-102542382D01*
X214544286Y-102562067D01*
G37*
%TD.AperFunction*%
%TA.AperFunction,Conductor*%
G36*
X208593039Y-102889685D02*
G01*
X208638794Y-102942489D01*
X208650000Y-102994000D01*
X208650000Y-103246000D01*
X208630315Y-103313039D01*
X208577511Y-103358794D01*
X208526000Y-103370000D01*
X207845174Y-103370000D01*
X207843433Y-103371041D01*
X207815288Y-103374965D01*
X207728096Y-103377030D01*
X207698848Y-103369189D01*
X207669068Y-103363653D01*
X207665431Y-103360230D01*
X207660609Y-103358938D01*
X207640241Y-103336527D01*
X207618184Y-103315772D01*
X207616823Y-103310761D01*
X207613617Y-103307233D01*
X207609964Y-103285495D01*
X207601160Y-103253065D01*
X207601160Y-103049242D01*
X207620845Y-102982203D01*
X207673649Y-102936448D01*
X207725160Y-102925242D01*
X207805902Y-102925242D01*
X207824446Y-102923015D01*
X207894363Y-102914619D01*
X207894364Y-102914618D01*
X207898014Y-102914180D01*
X207927584Y-102914180D01*
X207931233Y-102914618D01*
X207931235Y-102914619D01*
X208001152Y-102923015D01*
X208019696Y-102925242D01*
X208019697Y-102925242D01*
X208205896Y-102925242D01*
X208205901Y-102925242D01*
X208294363Y-102914619D01*
X208385584Y-102878646D01*
X208392566Y-102877318D01*
X208396139Y-102875023D01*
X208431074Y-102870000D01*
X208526000Y-102870000D01*
X208593039Y-102889685D01*
G37*
%TD.AperFunction*%
%TA.AperFunction,Conductor*%
G36*
X205219695Y-102925242D02*
G01*
X205219697Y-102925242D01*
X205405902Y-102925242D01*
X205424446Y-102923015D01*
X205494363Y-102914619D01*
X205494364Y-102914618D01*
X205498014Y-102914180D01*
X205527584Y-102914180D01*
X205531233Y-102914618D01*
X205531235Y-102914619D01*
X205601152Y-102923015D01*
X205619696Y-102925242D01*
X205747421Y-102925242D01*
X205756106Y-102927792D01*
X205765068Y-102926504D01*
X205789108Y-102937482D01*
X205814460Y-102944927D01*
X205820387Y-102951767D01*
X205828624Y-102955529D01*
X205842913Y-102977763D01*
X205860215Y-102997731D01*
X205862502Y-103008245D01*
X205866398Y-103014307D01*
X205871421Y-103049242D01*
X205871421Y-103173984D01*
X205851736Y-103241023D01*
X205798932Y-103286778D01*
X205747421Y-103297984D01*
X205636723Y-103297984D01*
X205600434Y-103300840D01*
X205600429Y-103300840D01*
X205600428Y-103300841D01*
X205600425Y-103300841D01*
X205600424Y-103300842D01*
X205524399Y-103322928D01*
X205489955Y-103322828D01*
X205455540Y-103323022D01*
X205454857Y-103322727D01*
X205454529Y-103322727D01*
X205453875Y-103322304D01*
X205426686Y-103310583D01*
X205319396Y-103247133D01*
X205319387Y-103247129D01*
X205165207Y-103202335D01*
X205165201Y-103202334D01*
X205129187Y-103199500D01*
X204813499Y-103199500D01*
X204804813Y-103196949D01*
X204795852Y-103198238D01*
X204771811Y-103187259D01*
X204746460Y-103179815D01*
X204740532Y-103172974D01*
X204732296Y-103169213D01*
X204718006Y-103146978D01*
X204700705Y-103127011D01*
X204698417Y-103116496D01*
X204694522Y-103110435D01*
X204689499Y-103075500D01*
X204689499Y-103049092D01*
X204709184Y-102982053D01*
X204761988Y-102936298D01*
X204815990Y-102926240D01*
X204815990Y-102925242D01*
X205005899Y-102925242D01*
X205005900Y-102925242D01*
X205094362Y-102914619D01*
X205094366Y-102914617D01*
X205098008Y-102914180D01*
X205127578Y-102914180D01*
X205219695Y-102925242D01*
G37*
%TD.AperFunction*%
%TA.AperFunction,Conductor*%
G36*
X202132607Y-102364910D02*
G01*
X202178362Y-102417714D01*
X202188306Y-102486872D01*
X202159281Y-102550428D01*
X202100503Y-102588202D01*
X202089759Y-102590842D01*
X201972643Y-102614138D01*
X201972631Y-102614141D01*
X201826960Y-102674479D01*
X201826947Y-102674486D01*
X201708207Y-102753827D01*
X201690160Y-102759477D01*
X201674251Y-102769702D01*
X201643291Y-102774153D01*
X201641530Y-102774705D01*
X201639316Y-102774725D01*
X201597217Y-102774725D01*
X201530178Y-102755040D01*
X201484423Y-102702236D01*
X201473217Y-102650725D01*
X201473217Y-102509991D01*
X201489097Y-102455909D01*
X201486323Y-102454522D01*
X201486326Y-102454516D01*
X201491692Y-102447070D01*
X201492902Y-102442952D01*
X201509536Y-102422310D01*
X201509547Y-102422298D01*
X201509550Y-102422293D01*
X201550301Y-102381542D01*
X201611624Y-102348058D01*
X201637981Y-102345225D01*
X202065568Y-102345225D01*
X202132607Y-102364910D01*
G37*
%TD.AperFunction*%
%TA.AperFunction,Conductor*%
G36*
X202655338Y-101569927D02*
G01*
X202701093Y-101622731D01*
X202712299Y-101674242D01*
X202712299Y-102417845D01*
X202722922Y-102506307D01*
X202727177Y-102517097D01*
X202729235Y-102531529D01*
X202726228Y-102552269D01*
X202728110Y-102573144D01*
X202721316Y-102586152D01*
X202719211Y-102600675D01*
X202705468Y-102616497D01*
X202695766Y-102635076D01*
X202683017Y-102642346D01*
X202673395Y-102653426D01*
X202653279Y-102659307D01*
X202635073Y-102669691D01*
X202620417Y-102668915D01*
X202606333Y-102673033D01*
X202586231Y-102667105D01*
X202565301Y-102665997D01*
X202559025Y-102663594D01*
X202439634Y-102614141D01*
X202439624Y-102614138D01*
X202316400Y-102589627D01*
X202254489Y-102557242D01*
X202219915Y-102496526D01*
X202223656Y-102426756D01*
X202241432Y-102393557D01*
X202277721Y-102345225D01*
X202235248Y-102199029D01*
X202152938Y-102059850D01*
X202152931Y-102059841D01*
X202100148Y-102007058D01*
X202066663Y-101945735D01*
X202071647Y-101876043D01*
X202100146Y-101831697D01*
X202345284Y-101586561D01*
X202372211Y-101571857D01*
X202398030Y-101555265D01*
X202404230Y-101554373D01*
X202406607Y-101553076D01*
X202432965Y-101550242D01*
X202588299Y-101550242D01*
X202655338Y-101569927D01*
G37*
%TD.AperFunction*%
%TA.AperFunction,Conductor*%
G36*
X208899622Y-101881605D02*
G01*
X208904779Y-101884602D01*
X208904782Y-101884605D01*
X209037749Y-101939682D01*
X209121822Y-101950242D01*
X209227583Y-101950242D01*
X209294622Y-101969927D01*
X209340377Y-102022731D01*
X209350321Y-102091889D01*
X209341726Y-102122692D01*
X209337167Y-102133431D01*
X209329000Y-102145655D01*
X209273933Y-102278598D01*
X209272507Y-102285764D01*
X209267521Y-102297512D01*
X209253098Y-102315093D01*
X209242546Y-102335230D01*
X209225611Y-102348599D01*
X209223207Y-102351531D01*
X209220991Y-102352246D01*
X209216499Y-102355794D01*
X209192630Y-102369910D01*
X209124906Y-102387093D01*
X209066389Y-102369911D01*
X209046195Y-102357968D01*
X208890909Y-102312854D01*
X208854644Y-102310000D01*
X208837299Y-102310000D01*
X208828613Y-102307449D01*
X208819652Y-102308738D01*
X208795611Y-102297759D01*
X208770260Y-102290315D01*
X208764332Y-102283474D01*
X208756096Y-102279713D01*
X208741806Y-102257478D01*
X208724505Y-102237511D01*
X208722217Y-102226996D01*
X208718322Y-102220935D01*
X208713299Y-102186000D01*
X208713299Y-101988805D01*
X208732984Y-101921766D01*
X208785788Y-101876011D01*
X208854946Y-101866067D01*
X208899622Y-101881605D01*
G37*
%TD.AperFunction*%
%TA.AperFunction,Conductor*%
G36*
X209424261Y-93782314D02*
G01*
X209470016Y-93835118D01*
X209481222Y-93886629D01*
X209481222Y-93997326D01*
X209484078Y-94033620D01*
X209484079Y-94033626D01*
X209529225Y-94189018D01*
X209529227Y-94189022D01*
X209529228Y-94189024D01*
X209534454Y-94197862D01*
X209551722Y-94260981D01*
X209551722Y-94567132D01*
X209566787Y-94562756D01*
X209636656Y-94562955D01*
X209695327Y-94600896D01*
X209715944Y-94634380D01*
X209733515Y-94676802D01*
X209733516Y-94676804D01*
X209818934Y-94804640D01*
X209818937Y-94804644D01*
X209927646Y-94913353D01*
X209933869Y-94917511D01*
X209978675Y-94971124D01*
X209987382Y-95040448D01*
X209957228Y-95103476D01*
X209897785Y-95140196D01*
X209864979Y-95144614D01*
X209502804Y-95144614D01*
X209502800Y-95144615D01*
X209501603Y-95144936D01*
X209501301Y-95145017D01*
X209469212Y-95149241D01*
X209237299Y-95149241D01*
X209170260Y-95129556D01*
X209124505Y-95076752D01*
X209113299Y-95025241D01*
X209113299Y-94681645D01*
X209113299Y-94681640D01*
X209102676Y-94593178D01*
X209060368Y-94485892D01*
X209051722Y-94440402D01*
X209051722Y-93886629D01*
X209054272Y-93877943D01*
X209052984Y-93868982D01*
X209063962Y-93844941D01*
X209071407Y-93819590D01*
X209078247Y-93813662D01*
X209082009Y-93805426D01*
X209104243Y-93791136D01*
X209124211Y-93773835D01*
X209134725Y-93771547D01*
X209140787Y-93767652D01*
X209175722Y-93762629D01*
X209357222Y-93762629D01*
X209424261Y-93782314D01*
G37*
%TD.AperFunction*%
%TA.AperFunction,Conductor*%
G36*
X220472326Y-84500685D02*
G01*
X220472961Y-84500506D01*
X220505838Y-84510525D01*
X220538735Y-84520185D01*
X220539165Y-84520681D01*
X220539796Y-84520874D01*
X220562061Y-84547105D01*
X220584490Y-84572989D01*
X220584583Y-84573638D01*
X220585010Y-84574141D01*
X220589555Y-84608215D01*
X220594434Y-84642147D01*
X220594160Y-84642745D01*
X220594248Y-84643398D01*
X220579665Y-84674486D01*
X220565409Y-84705703D01*
X220564761Y-84706258D01*
X220564576Y-84706654D01*
X220537668Y-84729494D01*
X220434837Y-84794107D01*
X220197696Y-84983220D01*
X219983220Y-85197696D01*
X219794107Y-85434837D01*
X219632733Y-85691661D01*
X219501133Y-85964931D01*
X219400957Y-86251216D01*
X219400953Y-86251228D01*
X219333460Y-86546937D01*
X219333457Y-86546951D01*
X219299500Y-86848336D01*
X219299500Y-87151663D01*
X219333457Y-87453048D01*
X219333460Y-87453066D01*
X219378349Y-87649739D01*
X219374076Y-87719478D01*
X219332777Y-87775835D01*
X219267565Y-87800918D01*
X219199144Y-87786763D01*
X219193307Y-87783447D01*
X219111397Y-87733930D01*
X218957792Y-87686065D01*
X218891043Y-87680000D01*
X218437500Y-87680000D01*
X218437500Y-88381000D01*
X218417815Y-88448039D01*
X218365011Y-88493794D01*
X218313500Y-88505000D01*
X218187500Y-88505000D01*
X218187500Y-88631000D01*
X218167815Y-88698039D01*
X218115011Y-88743794D01*
X218063500Y-88755000D01*
X216878085Y-88755000D01*
X216881064Y-88787792D01*
X216881067Y-88787802D01*
X216928927Y-88941392D01*
X217009918Y-89075366D01*
X217027754Y-89142920D01*
X217009918Y-89203665D01*
X216988364Y-89239319D01*
X216928469Y-89338397D01*
X216880569Y-89492116D01*
X216874500Y-89558911D01*
X216874500Y-89608560D01*
X216854815Y-89675599D01*
X216838181Y-89696241D01*
X215960862Y-90573560D01*
X215899539Y-90607045D01*
X215885342Y-90609281D01*
X215883129Y-90609499D01*
X215732343Y-90639491D01*
X215732334Y-90639494D01*
X215590298Y-90698326D01*
X215590296Y-90698327D01*
X215462460Y-90783745D01*
X215462456Y-90783748D01*
X215353748Y-90892456D01*
X215353745Y-90892460D01*
X215268327Y-91020296D01*
X215268326Y-91020298D01*
X215209494Y-91162334D01*
X215209491Y-91162343D01*
X215179500Y-91313122D01*
X215179500Y-91466877D01*
X215187558Y-91507387D01*
X215181331Y-91576979D01*
X215138467Y-91632156D01*
X215134833Y-91634679D01*
X215104002Y-91655280D01*
X215104000Y-91655281D01*
X214995281Y-91763999D01*
X214909864Y-91891834D01*
X214909863Y-91891836D01*
X214851031Y-92033872D01*
X214851028Y-92033881D01*
X214821037Y-92184660D01*
X214821037Y-92184665D01*
X214821037Y-92338411D01*
X214821037Y-92338413D01*
X214821036Y-92338413D01*
X214826182Y-92364278D01*
X214819955Y-92433870D01*
X214792246Y-92476151D01*
X214488381Y-92780017D01*
X214427058Y-92813502D01*
X214357367Y-92808518D01*
X214301433Y-92766647D01*
X214277016Y-92701182D01*
X214276700Y-92692336D01*
X214276700Y-92324079D01*
X214276700Y-92324077D01*
X214237399Y-92177403D01*
X214214699Y-92138086D01*
X214161477Y-92045902D01*
X214161472Y-92045896D01*
X213686696Y-91571120D01*
X213653211Y-91509797D01*
X213658195Y-91440105D01*
X213673701Y-91413160D01*
X213672870Y-91412605D01*
X213729477Y-91327887D01*
X213761671Y-91279706D01*
X213820506Y-91137664D01*
X213825561Y-91112254D01*
X213849545Y-90991672D01*
X213850500Y-90986873D01*
X213850500Y-90833127D01*
X213840678Y-90783746D01*
X213820508Y-90682343D01*
X213820505Y-90682334D01*
X213815274Y-90669706D01*
X213781666Y-90588566D01*
X213761673Y-90540298D01*
X213761672Y-90540296D01*
X213753231Y-90527664D01*
X213676254Y-90412460D01*
X213676251Y-90412456D01*
X213567543Y-90303748D01*
X213567539Y-90303745D01*
X213439703Y-90218327D01*
X213439701Y-90218326D01*
X213297665Y-90159494D01*
X213297656Y-90159491D01*
X213146870Y-90129499D01*
X213144658Y-90129281D01*
X213143574Y-90128843D01*
X213140898Y-90128311D01*
X213140998Y-90127803D01*
X213079872Y-90103118D01*
X213069137Y-90093560D01*
X212289104Y-89313527D01*
X212289098Y-89313522D01*
X212266628Y-89300549D01*
X212255852Y-89289988D01*
X212244885Y-89284611D01*
X212222513Y-89257313D01*
X212214094Y-89243387D01*
X212190373Y-89204148D01*
X212172538Y-89136595D01*
X212190374Y-89075851D01*
X212271531Y-88941602D01*
X212319430Y-88787887D01*
X212325500Y-88721091D01*
X212325499Y-88288910D01*
X212325499Y-88288901D01*
X212322419Y-88254999D01*
X216878085Y-88254999D01*
X216878085Y-88255000D01*
X217937500Y-88255000D01*
X217937500Y-87680000D01*
X217483957Y-87680000D01*
X217417207Y-87686065D01*
X217263603Y-87733929D01*
X217125919Y-87817163D01*
X217012163Y-87930919D01*
X216928927Y-88068607D01*
X216881067Y-88222197D01*
X216881064Y-88222207D01*
X216878085Y-88254999D01*
X212322419Y-88254999D01*
X212319431Y-88222117D01*
X212319428Y-88222106D01*
X212271532Y-88068401D01*
X212271531Y-88068400D01*
X212271531Y-88068398D01*
X212188236Y-87930612D01*
X212188234Y-87930610D01*
X212188233Y-87930608D01*
X212074391Y-87816766D01*
X212063966Y-87810464D01*
X211936602Y-87733469D01*
X211782887Y-87685570D01*
X211782885Y-87685569D01*
X211782883Y-87685569D01*
X211736117Y-87681319D01*
X211716091Y-87679500D01*
X211716088Y-87679500D01*
X210316138Y-87679500D01*
X210249099Y-87659815D01*
X210203344Y-87607011D01*
X210197061Y-87590094D01*
X210162405Y-87470808D01*
X210080738Y-87332715D01*
X210080731Y-87332706D01*
X209967294Y-87219269D01*
X209967285Y-87219262D01*
X209829191Y-87137594D01*
X209829188Y-87137593D01*
X209675130Y-87092835D01*
X209640000Y-87090069D01*
X209640000Y-87736001D01*
X209620315Y-87803040D01*
X209567511Y-87848795D01*
X209516000Y-87860001D01*
X209390000Y-87860001D01*
X209390000Y-87985499D01*
X209387514Y-87993964D01*
X209388802Y-88002694D01*
X209377821Y-88026973D01*
X209370315Y-88052538D01*
X209363647Y-88058315D01*
X209360011Y-88066356D01*
X209337646Y-88080845D01*
X209317511Y-88098293D01*
X209307235Y-88100548D01*
X209301372Y-88104347D01*
X209267340Y-88109303D01*
X209266456Y-88109498D01*
X209266079Y-88109499D01*
X209140820Y-88109500D01*
X209134681Y-88109982D01*
X209130037Y-88110000D01*
X209129985Y-88109985D01*
X209129581Y-88110001D01*
X208577156Y-88110001D01*
X208617594Y-88249194D01*
X208651418Y-88306388D01*
X208668599Y-88374112D01*
X208651418Y-88432628D01*
X208617131Y-88490604D01*
X208617130Y-88490607D01*
X208572335Y-88644790D01*
X208572334Y-88644796D01*
X208569500Y-88680810D01*
X208569500Y-89079168D01*
X208569501Y-89079190D01*
X208572335Y-89115204D01*
X208617129Y-89269387D01*
X208617131Y-89269392D01*
X208692401Y-89396667D01*
X208709584Y-89464391D01*
X208707286Y-89483978D01*
X208700222Y-89519500D01*
X208699500Y-89523128D01*
X208699500Y-89676873D01*
X208703699Y-89697985D01*
X208701124Y-89726753D01*
X208701480Y-89755640D01*
X208698047Y-89761129D01*
X208697470Y-89767577D01*
X208679746Y-89790390D01*
X208664432Y-89814879D01*
X208657086Y-89819560D01*
X208654606Y-89822753D01*
X208634978Y-89834325D01*
X208626443Y-89838350D01*
X208624610Y-89838883D01*
X208621835Y-89840523D01*
X208616594Y-89842996D01*
X208587563Y-89847535D01*
X208559085Y-89854759D01*
X208550530Y-89853326D01*
X208547563Y-89853791D01*
X208544061Y-89852243D01*
X208533674Y-89850504D01*
X208533639Y-89850682D01*
X208527821Y-89849524D01*
X208527697Y-89849504D01*
X208527659Y-89849492D01*
X208376877Y-89819500D01*
X208376873Y-89819500D01*
X208223127Y-89819500D01*
X208223122Y-89819500D01*
X208072343Y-89849491D01*
X208072334Y-89849494D01*
X207930298Y-89908326D01*
X207930296Y-89908327D01*
X207802460Y-89993745D01*
X207802456Y-89993748D01*
X207693748Y-90102456D01*
X207693745Y-90102460D01*
X207608327Y-90230296D01*
X207608326Y-90230298D01*
X207549494Y-90372334D01*
X207549491Y-90372343D01*
X207519500Y-90523122D01*
X207519500Y-90676877D01*
X207549491Y-90827656D01*
X207549494Y-90827665D01*
X207608326Y-90969701D01*
X207608327Y-90969703D01*
X207687929Y-91088835D01*
X207696567Y-91116424D01*
X207707950Y-91143006D01*
X207706881Y-91149362D01*
X207708807Y-91155513D01*
X207701158Y-91183394D01*
X207696363Y-91211908D01*
X207692027Y-91216677D01*
X207690322Y-91222893D01*
X207668812Y-91242214D01*
X207649364Y-91263608D01*
X207641016Y-91267182D01*
X207638344Y-91269583D01*
X207616919Y-91277501D01*
X207533221Y-91299927D01*
X207463372Y-91298264D01*
X207432239Y-91283255D01*
X207390819Y-91255579D01*
X207390812Y-91255575D01*
X207257874Y-91200511D01*
X207257875Y-91200511D01*
X207257872Y-91200510D01*
X207257868Y-91200509D01*
X207257864Y-91200508D01*
X207116745Y-91172438D01*
X207116741Y-91172438D01*
X207085043Y-91172438D01*
X207018004Y-91152753D01*
X206972249Y-91099949D01*
X206962305Y-91030791D01*
X206991330Y-90967235D01*
X206997362Y-90960757D01*
X207041130Y-90916988D01*
X207041135Y-90916983D01*
X207122869Y-90778778D01*
X207167665Y-90624589D01*
X207170500Y-90588566D01*
X207170499Y-90190205D01*
X207167665Y-90154181D01*
X207122869Y-89999992D01*
X207088580Y-89942013D01*
X207071398Y-89874292D01*
X207088582Y-89815772D01*
X207122404Y-89758582D01*
X207162844Y-89619387D01*
X206610434Y-89619387D01*
X206609978Y-89619386D01*
X206605329Y-89619368D01*
X206599181Y-89618885D01*
X206473884Y-89618885D01*
X206473544Y-89618884D01*
X206440229Y-89608968D01*
X206406961Y-89599200D01*
X206406806Y-89599021D01*
X206406577Y-89598953D01*
X206383838Y-89572515D01*
X206361206Y-89546396D01*
X206361149Y-89546134D01*
X206361017Y-89545981D01*
X206360838Y-89544707D01*
X206350000Y-89494885D01*
X206350000Y-89243387D01*
X206369685Y-89176348D01*
X206422489Y-89130593D01*
X206474000Y-89119387D01*
X207162844Y-89119387D01*
X207122404Y-88980192D01*
X207040738Y-88842101D01*
X207040731Y-88842092D01*
X206927294Y-88728655D01*
X206927285Y-88728648D01*
X206789191Y-88646980D01*
X206789188Y-88646978D01*
X206722407Y-88627577D01*
X206699308Y-88612825D01*
X206674534Y-88601102D01*
X206670286Y-88594291D01*
X206663521Y-88589971D01*
X206652064Y-88565073D01*
X206637561Y-88541817D01*
X206637670Y-88533789D01*
X206634315Y-88526498D01*
X206638137Y-88499360D01*
X206638510Y-88471953D01*
X206642941Y-88465259D01*
X206644061Y-88457312D01*
X206661950Y-88436546D01*
X206677080Y-88413694D01*
X206685541Y-88409163D01*
X206689665Y-88404377D01*
X206707027Y-88395017D01*
X206714526Y-88391714D01*
X206779393Y-88372869D01*
X206843749Y-88334808D01*
X206850516Y-88331829D01*
X206878118Y-88328242D01*
X206905093Y-88321398D01*
X206912977Y-88323713D01*
X206919804Y-88322826D01*
X206935905Y-88330445D01*
X206963612Y-88338581D01*
X207020805Y-88372404D01*
X207160000Y-88412844D01*
X207160000Y-88412843D01*
X207660000Y-88412843D01*
X207799194Y-88372404D01*
X207937285Y-88290738D01*
X207937294Y-88290731D01*
X208050731Y-88177294D01*
X208050738Y-88177285D01*
X208132406Y-88039191D01*
X208132407Y-88039188D01*
X208177166Y-87885128D01*
X208177167Y-87885122D01*
X208179931Y-87850000D01*
X207660000Y-87850000D01*
X207660000Y-88412843D01*
X207160000Y-88412843D01*
X207160000Y-87860408D01*
X207160004Y-87859404D01*
X207160039Y-87855034D01*
X207160500Y-87849181D01*
X207160499Y-87723999D01*
X207180183Y-87656962D01*
X207232986Y-87611206D01*
X207238525Y-87610001D01*
X208577156Y-87610001D01*
X209140000Y-87610001D01*
X209140000Y-87090069D01*
X209139999Y-87090069D01*
X209104869Y-87092835D01*
X209104868Y-87092835D01*
X208950811Y-87137593D01*
X208950808Y-87137594D01*
X208812714Y-87219262D01*
X208812705Y-87219269D01*
X208699268Y-87332706D01*
X208699261Y-87332715D01*
X208617595Y-87470806D01*
X208577156Y-87610001D01*
X207238525Y-87610001D01*
X207284499Y-87600000D01*
X207410000Y-87600000D01*
X207410000Y-87474000D01*
X207429685Y-87406961D01*
X207482489Y-87361206D01*
X207534000Y-87350000D01*
X208179931Y-87350000D01*
X208177167Y-87314877D01*
X208177166Y-87314871D01*
X208132054Y-87159595D01*
X208132054Y-87090405D01*
X208177166Y-86935128D01*
X208177167Y-86935122D01*
X208179931Y-86900000D01*
X207534000Y-86900000D01*
X207466961Y-86880315D01*
X207421206Y-86827511D01*
X207410000Y-86776000D01*
X207410000Y-86650000D01*
X207284499Y-86650000D01*
X207276032Y-86647513D01*
X207267301Y-86648802D01*
X207243021Y-86637820D01*
X207217460Y-86630315D01*
X207211681Y-86623645D01*
X207203640Y-86620009D01*
X207189151Y-86597644D01*
X207171705Y-86577511D01*
X207169449Y-86567235D01*
X207165650Y-86561370D01*
X207160693Y-86527335D01*
X207160500Y-86526454D01*
X207160499Y-86526249D01*
X207160499Y-86400820D01*
X207160017Y-86394705D01*
X207160001Y-86390061D01*
X207160015Y-86390009D01*
X207160000Y-86389607D01*
X207160000Y-85837154D01*
X207660000Y-85837154D01*
X207660000Y-86400000D01*
X208179931Y-86400000D01*
X208177167Y-86364877D01*
X208177166Y-86364871D01*
X208132407Y-86210811D01*
X208132406Y-86210808D01*
X208050738Y-86072714D01*
X208050731Y-86072705D01*
X207937294Y-85959268D01*
X207937285Y-85959261D01*
X207799191Y-85877593D01*
X207799188Y-85877591D01*
X207660001Y-85837153D01*
X207660000Y-85837154D01*
X207160000Y-85837154D01*
X207159998Y-85837153D01*
X207020811Y-85877591D01*
X207020810Y-85877592D01*
X206963611Y-85911419D01*
X206895886Y-85928600D01*
X206837371Y-85911419D01*
X206780174Y-85877593D01*
X206779393Y-85877131D01*
X206779392Y-85877130D01*
X206779391Y-85877130D01*
X206779388Y-85877129D01*
X206625208Y-85832335D01*
X206625202Y-85832334D01*
X206589181Y-85829500D01*
X206190830Y-85829500D01*
X206190808Y-85829501D01*
X206154794Y-85832335D01*
X206000611Y-85877129D01*
X206000606Y-85877131D01*
X205862404Y-85958863D01*
X205862396Y-85958869D01*
X205748869Y-86072396D01*
X205748863Y-86072404D01*
X205667131Y-86210606D01*
X205667129Y-86210611D01*
X205622335Y-86364791D01*
X205622335Y-86364795D01*
X205619500Y-86400811D01*
X205619500Y-86899169D01*
X205619501Y-86899191D01*
X205622334Y-86935201D01*
X205667425Y-87090405D01*
X205667425Y-87159593D01*
X205622334Y-87314797D01*
X205619500Y-87350811D01*
X205619500Y-87849169D01*
X205619501Y-87849191D01*
X205622335Y-87885205D01*
X205667129Y-88039388D01*
X205667131Y-88039393D01*
X205748863Y-88177595D01*
X205748869Y-88177603D01*
X205862396Y-88291130D01*
X205862400Y-88291133D01*
X205862402Y-88291135D01*
X206000607Y-88372869D01*
X206017593Y-88377804D01*
X206017903Y-88378001D01*
X206018272Y-88378003D01*
X206047271Y-88396757D01*
X206076478Y-88415409D01*
X206076632Y-88415744D01*
X206076942Y-88415945D01*
X206091210Y-88447425D01*
X206105685Y-88478881D01*
X206105633Y-88479246D01*
X206105786Y-88479583D01*
X206100756Y-88513868D01*
X206095939Y-88548068D01*
X206095698Y-88548346D01*
X206095645Y-88548713D01*
X206072925Y-88574781D01*
X206050336Y-88601003D01*
X206049898Y-88601202D01*
X206049739Y-88601386D01*
X206017593Y-88615956D01*
X205925289Y-88642773D01*
X205855420Y-88642574D01*
X205841876Y-88637654D01*
X205687607Y-88592835D01*
X205652477Y-88590069D01*
X205652477Y-89236001D01*
X205632792Y-89303040D01*
X205579988Y-89348795D01*
X205528477Y-89360001D01*
X205276477Y-89360001D01*
X205209438Y-89340316D01*
X205163683Y-89287512D01*
X205152477Y-89236001D01*
X205152477Y-88590069D01*
X205120000Y-88592625D01*
X205120000Y-88596001D01*
X205100315Y-88663040D01*
X205047511Y-88708795D01*
X204996000Y-88720001D01*
X204430434Y-88720001D01*
X204429978Y-88720000D01*
X204425329Y-88719982D01*
X204419181Y-88719499D01*
X204293884Y-88719499D01*
X204293544Y-88719498D01*
X204260229Y-88709582D01*
X204226961Y-88699814D01*
X204226806Y-88699635D01*
X204226577Y-88699567D01*
X204203838Y-88673129D01*
X204181206Y-88647010D01*
X204181149Y-88646748D01*
X204181017Y-88646595D01*
X204180838Y-88645321D01*
X204170000Y-88595499D01*
X204170000Y-88470001D01*
X204044000Y-88470001D01*
X203976961Y-88450316D01*
X203931206Y-88397512D01*
X203920000Y-88346001D01*
X203920000Y-88220001D01*
X204420000Y-88220001D01*
X204982844Y-88220001D01*
X204942404Y-88080806D01*
X204860738Y-87942715D01*
X204860731Y-87942706D01*
X204747294Y-87829269D01*
X204747285Y-87829262D01*
X204609191Y-87747594D01*
X204609188Y-87747593D01*
X204455130Y-87702835D01*
X204420000Y-87700069D01*
X204420000Y-88220001D01*
X203920000Y-88220001D01*
X203920000Y-87700069D01*
X203919999Y-87700069D01*
X203884869Y-87702835D01*
X203884868Y-87702835D01*
X203730811Y-87747593D01*
X203730808Y-87747594D01*
X203592714Y-87829262D01*
X203592705Y-87829269D01*
X203488381Y-87933594D01*
X203427058Y-87967079D01*
X203357366Y-87962095D01*
X203301433Y-87920223D01*
X203277016Y-87854759D01*
X203276700Y-87845913D01*
X203276700Y-86777920D01*
X203296385Y-86710881D01*
X203304846Y-86699256D01*
X203306249Y-86697544D01*
X203306254Y-86697540D01*
X203391671Y-86569706D01*
X203450506Y-86427664D01*
X203455848Y-86400811D01*
X203477288Y-86293019D01*
X203480500Y-86276873D01*
X203480500Y-86154946D01*
X203500185Y-86087907D01*
X203505234Y-86080634D01*
X203507543Y-86077548D01*
X203507546Y-86077547D01*
X203593796Y-85962332D01*
X203644091Y-85827484D01*
X203650500Y-85767874D01*
X203650499Y-84772129D01*
X203644091Y-84712518D01*
X203644091Y-84712517D01*
X203627425Y-84667833D01*
X203622441Y-84598141D01*
X203655926Y-84536818D01*
X203717250Y-84503334D01*
X203743607Y-84500500D01*
X220471696Y-84500500D01*
X220472326Y-84500685D01*
G37*
%TD.AperFunction*%
%TD*%
M02*
