M48
; DRILL file {KiCad 9.0.0} date 2026-04-17T00:13:25-0700
; FORMAT={-:-/ absolute / inch / decimal}
; #@! TF.CreationDate,2026-04-17T00:13:25-07:00
; #@! TF.GenerationSoftware,Kicad,Pcbnew,9.0.0
; #@! TF.FileFunction,Plated,1,4,PTH
FMAT,2
INCH
; #@! TA.AperFunction,Plated,PTH,ViaDrill
T1C0.0079
; #@! TA.AperFunction,Plated,PTH,ComponentDrill
T2C0.0098
; #@! TA.AperFunction,Plated,PTH,ViaDrill
T3C0.0118
; #@! TA.AperFunction,Plated,PTH,ViaDrill
T4C0.0157
; #@! TA.AperFunction,Plated,PTH,ComponentDrill
T5C0.0236
; #@! TA.AperFunction,Plated,PTH,ComponentDrill
T6C0.0394
; #@! TA.AperFunction,Plated,PTH,ComponentDrill
T7C0.0591
; #@! TA.AperFunction,Plated,PTH,ComponentDrill
T8C0.0669
; #@! TA.AperFunction,Plated,PTH,ComponentDrill
T9C0.0866
%
G90
G05
T1
X7.6731Y-3.866
X7.6815Y-3.8966
X7.701Y-3.8326
X7.7065Y-3.9217
X7.7316Y-3.802
X7.7316Y-3.9467
X7.765Y-3.7686
X7.765Y-3.969
X7.7984Y-3.7351
X7.8374Y-3.7407
X7.8425Y-3.485
X7.8465Y-3.3984
X7.868Y-3.7713
X7.8715Y-3.9478
X7.8784Y-3.9745
X7.9052Y-3.8552
X7.956Y-4.0131
X7.9693Y-3.7323
X8.0123Y-3.8399
X8.0134Y-3.8096
X8.0144Y-3.8952
X8.0155Y-3.9245
X8.0625Y-3.7772
X8.0665Y-3.6027
X8.0977Y-3.7821
X8.1043Y-4.1168
X8.1514Y-3.6182
X8.1985Y-3.9237
X8.2212Y-3.8636
X8.2558Y-3.7137
X8.2668Y-4.0351
X8.2995Y-4.0024
X8.3329Y-3.9217
X8.344Y-4.0024
X8.3635Y-3.9217
X8.3663Y-3.8465
X8.4331Y-4.0469
X8.4693Y-3.8159
T2
X8.0605Y-3.8258
X8.0605Y-3.8799
X8.0605Y-3.934
X8.1147Y-3.8258
X8.1147Y-3.8799
X8.1147Y-3.934
X8.1688Y-3.8258
X8.1688Y-3.8799
X8.1688Y-3.934
T3
X6.8268Y-3.7795
X6.8268Y-4.3142
X6.874Y-4.3154
X6.9272Y-4.3169
X6.9291Y-3.7756
X7.1469Y-4.3031
X7.1996Y-4.3028
X7.3504Y-4.3154
X7.3728Y-3.6399
X7.4665Y-4.322
X7.4961Y-4.3217
X7.5079Y-4.3858
X7.5287Y-3.7075
X7.6331Y-4.048
X7.6547Y-3.9181
X7.6929Y-3.9748
X7.7331Y-4.0191
X7.8248Y-4.0953
X7.8268Y-3.4528
X7.8354Y-3.6878
X7.8969Y-3.5961
X7.9307Y-3.6399
X7.9319Y-3.5933
X7.9609Y-4.0702
X7.9614Y-3.5579
X7.9626Y-3.5906
X7.9791Y-3.6399
X7.9803Y-3.3937
X7.9803Y-3.4843
X8.0051Y-3.6583
X8.015Y-3.9524
X8.0311Y-3.5642
X8.0366Y-3.4535
X8.0862Y-4.064
X8.0996Y-3.7035
X8.1063Y-3.5976
X8.1235Y-4.1004
X8.2008Y-3.5669
X8.2076Y-3.9773
X8.2161Y-3.4583
X8.2472Y-3.5276
X8.2845Y-3.7129
X8.2874Y-4.124
X8.2972Y-4.2681
X8.3465Y-3.6772
X8.3669Y-3.6223
X8.3886Y-3.5791
X8.3892Y-3.6446
X8.4417Y-3.7409
X8.4724Y-4.0205
X8.4882Y-3.6323
X8.5024Y-3.598
X8.5181Y-4.1068
X8.5444Y-3.6381
X8.5574Y-4.1796
X8.5712Y-4.1008
X8.5909Y-4.1796
X8.6086Y-4.1048
X8.611Y-3.9697
X8.626Y-4.1775
X8.6547Y-4.2807
X8.6572Y-4.1738
X8.6685Y-4.2625
X8.6732Y-3.5551
X8.7366Y-4.2682
T4
X7.8583Y-3.7146
T6
X7.678Y-4.2083
X7.778Y-4.2083
X7.878Y-4.2083
T7
X6.8783Y-3.4886
T8
X6.7783Y-3.3886
X6.7783Y-3.5886
X6.9783Y-3.3886
X6.9783Y-3.5886
T9
X6.5748Y-3.4252
X6.5748Y-4.4094
X8.7402Y-3.4252
X8.7402Y-4.4094
T5
G00X8.5551Y-3.7232
M15
G01X8.5984Y-3.7232
M16
G05
G00X8.5551Y-4.0634
M15
G01X8.5984Y-4.0634
M16
G05
G00X8.7295Y-3.7232
M15
G01X8.7531Y-3.7232
M16
G05
G00X8.7295Y-4.0634
M15
G01X8.7531Y-4.0634
M16
G05
M30
