G04 #@! TF.GenerationSoftware,KiCad,Pcbnew,10.0.1*
G04 #@! TF.CreationDate,2026-09-13T18:50:51-07:00*
G04 #@! TF.ProjectId,proves_radio_stick_V2,70726f76-6573-45f7-9261-64696f5f7374,rev?*
G04 #@! TF.SameCoordinates,Original*
G04 #@! TF.FileFunction,Soldermask,Bot*
G04 #@! TF.FilePolarity,Negative*
%FSLAX46Y46*%
G04 Gerber Fmt 4.6, Leading zero omitted, Abs format (unit mm)*
G04 Created by KiCad (PCBNEW 10.0.1) date 2026-09-13 18:50:51*
%MOMM*%
%LPD*%
G01*
G04 APERTURE LIST*
G04 Aperture macros list*
%AMRoundRect*
0 Rectangle with rounded corners*
0 $1 Rounding radius*
0 $2 $3 $4 $5 $6 $7 $8 $9 X,Y pos of 4 corners*
0 Add a 4 corners polygon primitive as box body*
4,1,4,$2,$3,$4,$5,$6,$7,$8,$9,$2,$3,0*
0 Add four circle primitives for the rounded corners*
1,1,$1+$1,$2,$3*
1,1,$1+$1,$4,$5*
1,1,$1+$1,$6,$7*
1,1,$1+$1,$8,$9*
0 Add four rect primitives between the rounded corners*
20,1,$1+$1,$2,$3,$4,$5,0*
20,1,$1+$1,$4,$5,$6,$7,0*
20,1,$1+$1,$6,$7,$8,$9,0*
20,1,$1+$1,$8,$9,$2,$3,0*%
G04 Aperture macros list end*
%ADD10C,2.000000*%
%ADD11R,1.700000X1.700000*%
%ADD12C,1.700000*%
%ADD13C,2.600000*%
%ADD14C,4.400000*%
%ADD15C,2.050000*%
%ADD16C,2.250000*%
%ADD17RoundRect,0.249999X-0.850001X-0.850001X0.850001X-0.850001X0.850001X0.850001X-0.850001X0.850001X0*%
%ADD18C,2.200000*%
%ADD19C,0.650000*%
%ADD20O,2.100000X1.000000*%
%ADD21O,1.600000X1.000000*%
%ADD22RoundRect,0.140000X0.140000X0.170000X-0.140000X0.170000X-0.140000X-0.170000X0.140000X-0.170000X0*%
%ADD23RoundRect,0.135000X0.135000X0.185000X-0.135000X0.185000X-0.135000X-0.185000X0.135000X-0.185000X0*%
%ADD24RoundRect,0.250000X-0.325000X-1.100000X0.325000X-1.100000X0.325000X1.100000X-0.325000X1.100000X0*%
%ADD25RoundRect,0.150000X0.150000X-0.512500X0.150000X0.512500X-0.150000X0.512500X-0.150000X-0.512500X0*%
G04 APERTURE END LIST*
D10*
X206120000Y-85900000D03*
D11*
X225550000Y-85600000D03*
D12*
X228090000Y-85600000D03*
X230629999Y-85600000D03*
X233170000Y-85600000D03*
X235710000Y-85600000D03*
X238250000Y-85600000D03*
D13*
X242500000Y-112000000D03*
D14*
X242500000Y-112000000D03*
D10*
X195920000Y-85900000D03*
D15*
X169200000Y-88610000D03*
D16*
X166660000Y-86070000D03*
X166660000Y-91150000D03*
X171740000Y-86070000D03*
X171740000Y-91150000D03*
D10*
X209520000Y-85900000D03*
D13*
X242500000Y-87000000D03*
D14*
X242500000Y-87000000D03*
D13*
X168000000Y-100750000D03*
D14*
X168000000Y-100750000D03*
D10*
X192520000Y-85900000D03*
D17*
X214640000Y-113500000D03*
D18*
X217180000Y-113500000D03*
X219720000Y-113500000D03*
X222260000Y-113500000D03*
X224800000Y-113500000D03*
X227340000Y-113500000D03*
X229880000Y-113500000D03*
X232420000Y-113500000D03*
X234960000Y-113500000D03*
X237500000Y-113500000D03*
D19*
X238880000Y-101780000D03*
X238880000Y-96000000D03*
D20*
X238350000Y-103210000D03*
D21*
X242530000Y-103210000D03*
D20*
X238350000Y-94570000D03*
D21*
X242530000Y-94570000D03*
D10*
X202720000Y-85900000D03*
X199320000Y-85900000D03*
D13*
X168000000Y-112000000D03*
D14*
X168000000Y-112000000D03*
D10*
X189120000Y-85900000D03*
D22*
X201680000Y-112500000D03*
X200720000Y-112500000D03*
D23*
X201710000Y-114900000D03*
X200690000Y-114900000D03*
D24*
X206940000Y-114000000D03*
X209890000Y-114000000D03*
D23*
X207960000Y-96000000D03*
X206940000Y-96000000D03*
D22*
X205380000Y-116350000D03*
X204420000Y-116350000D03*
D25*
X205050000Y-114737500D03*
X204100000Y-114737500D03*
X203150000Y-114737500D03*
X203150000Y-112462500D03*
X204100000Y-112462500D03*
X205050000Y-112462500D03*
D23*
X205420000Y-95600000D03*
X204400000Y-95600000D03*
M02*
