M48
; DRILL file KiCad 10.0.1 date 2026-09-13T10:26:26
; FORMAT={-:-/ absolute / metric / decimal}
; #@! TF.CreationDate,2026-09-13T10:26:26-07:00
; #@! TF.GenerationSoftware,Kicad,Pcbnew,10.0.1
; #@! TF.FileFunction,Plated,1,4,PTH
FMAT,2
METRIC
; #@! TA.AperFunction,Plated,PTH,ViaDrill
T1C0.200
; #@! TA.AperFunction,Plated,PTH,ComponentDrill
T2C0.250
; #@! TA.AperFunction,Plated,PTH,ViaDrill
T3C0.300
; #@! TA.AperFunction,Plated,PTH,ViaDrill
T4C0.400
; #@! TA.AperFunction,Plated,PTH,ComponentDrill
T5C0.600
; #@! TA.AperFunction,Plated,PTH,ComponentDrill
T6C1.000
; #@! TA.AperFunction,Plated,PTH,ComponentDrill
T7C1.100
; #@! TA.AperFunction,Plated,PTH,ComponentDrill
T8C1.500
; #@! TA.AperFunction,Plated,PTH,ComponentDrill
T9C1.700
; #@! TA.AperFunction,Plated,PTH,ComponentDrill
T10C2.200
%
G90
G05
T1
X215.397Y-98.196
X215.609Y-98.974
X216.104Y-97.348
X216.246Y-99.61
X216.882Y-96.57
X216.882Y-100.247
X217.731Y-95.721
X217.731Y-100.812
X218.579Y-94.873
X219.569Y-95.014
X219.7Y-88.52
X219.8Y-86.32
X220.347Y-95.792
X220.435Y-100.274
X220.611Y-100.951
X221.293Y-97.923
X222.582Y-101.933
X224.014Y-97.532
X224.042Y-96.764
X224.066Y-98.937
X224.34Y-99.6
X225.203Y-91.539
X225.288Y-95.942
X226.182Y-96.066
X226.35Y-104.567
X227.545Y-91.903
X228.743Y-99.662
X229.317Y-98.134
X229.72Y-94.4
X230.692Y-102.708
X231.307Y-101.661
X232.156Y-99.61
X232.438Y-101.661
X232.933Y-99.61
X233.004Y-97.701
X234.7Y-102.792
X235.62Y-96.923
T2
X225.238Y-97.175
X225.238Y-98.55
X225.238Y-99.925
X226.613Y-97.175
X226.613Y-98.55
X226.613Y-99.925
X227.988Y-97.175
X227.988Y-98.55
X227.988Y-99.925
T3
X165.6Y-94.0
X165.6Y-97.0
X165.6Y-104.0
X165.6Y-107.0
X165.9Y-88.0
X165.9Y-89.1
X167.0Y-88.6
X168.2Y-86.9
X168.2Y-90.3
X168.4Y-85.0
X168.4Y-92.2
X170.0Y-85.0
X170.0Y-92.3
X170.4Y-87.0
X170.4Y-90.2
X170.5Y-116.6
X172.5Y-116.6
X173.2Y-87.3
X173.2Y-89.9
X174.0Y-85.1
X174.0Y-92.2
X174.5Y-116.6
X175.6Y-85.1
X176.2Y-116.4
X177.0Y-98.5
X177.0Y-101.5
X177.0Y-110.0
X178.688Y-85.2
X179.02Y-87.95
X179.02Y-89.55
X179.02Y-90.85
X179.02Y-110.65
X179.02Y-111.95
X179.02Y-113.55
X179.1Y-115.6
X180.0Y-85.1
X180.0Y-98.5
X180.0Y-101.5
X180.0Y-110.0
X181.56Y-110.65
X181.56Y-111.95
X181.56Y-113.55
X182.0Y-85.1
X183.0Y-98.5
X183.0Y-101.5
X183.0Y-110.0
X183.4Y-116.5
X184.0Y-85.1
X184.1Y-87.95
X184.1Y-89.55
X184.1Y-90.85
X184.1Y-110.65
X184.1Y-111.95
X184.1Y-113.55
X184.2Y-116.6
X185.3Y-116.6
X186.0Y-85.1
X186.0Y-98.5
X186.0Y-101.5
X186.0Y-110.0
X187.5Y-84.9
X189.0Y-98.5
X189.0Y-101.5
X189.0Y-110.0
X190.9Y-84.9
X191.5Y-116.6
X191.7Y-92.2
X191.7Y-110.65
X191.7Y-111.95
X191.7Y-113.55
X192.9Y-98.5
X192.9Y-101.5
X193.5Y-116.6
X194.24Y-91.6
X194.24Y-110.65
X194.24Y-111.95
X194.24Y-113.55
X194.3Y-84.9
X195.5Y-98.5
X195.5Y-101.5
X195.5Y-116.6
X196.78Y-92.8
X196.78Y-104.45
X197.5Y-116.6
X197.7Y-84.9
X198.0Y-98.5
X198.0Y-101.5
X199.32Y-93.4
X199.32Y-105.15
X199.5Y-116.6
X200.6Y-98.5
X200.6Y-101.5
X200.6Y-110.75
X200.6Y-114.55
X201.1Y-84.9
X201.86Y-94.0
X201.86Y-108.5
X202.0Y-116.6
X203.1Y-98.5
X203.1Y-101.5
X203.1Y-110.0
X204.1Y-116.6
X204.4Y-94.6
X204.5Y-84.9
X205.42Y-96.5
X205.7Y-98.5
X205.7Y-101.5
X205.7Y-110.0
X206.94Y-95.2
X206.94Y-113.3
X206.94Y-114.9
X207.9Y-84.9
X208.3Y-98.5
X208.3Y-101.5
X208.3Y-110.0
X208.44Y-116.55
X208.8Y-96.0
X209.48Y-87.95
X209.48Y-89.55
X209.48Y-90.85
X209.48Y-110.65
X209.48Y-111.95
X209.48Y-113.55
X209.89Y-114.5
X211.0Y-98.5
X211.0Y-101.5
X211.0Y-110.0
X211.3Y-84.9
X211.7Y-115.7
X212.5Y-110.0
X212.5Y-111.0
X212.5Y-112.0
X212.5Y-113.0
X212.5Y-114.0
X212.5Y-116.6
X212.7Y-85.0
X213.7Y-85.0
X214.38Y-102.82
X214.7Y-85.0
X216.0Y-105.15
X217.0Y-104.45
X217.373Y-89.874
X218.6Y-92.45
X219.0Y-93.65
X219.3Y-87.7
X219.3Y-91.25
X219.3Y-105.9
X220.393Y-106.0
X221.1Y-103.1
X221.94Y-92.453
X222.706Y-103.384
X222.72Y-90.37
X222.75Y-91.2
X223.168Y-92.453
X223.2Y-86.2
X223.2Y-88.5
X223.83Y-92.92
X224.082Y-100.391
X224.49Y-90.53
X224.51Y-101.07
X224.621Y-107.501
X224.63Y-87.72
X225.187Y-102.89
X225.51Y-100.83
X225.9Y-88.6
X226.01Y-103.31
X226.23Y-94.07
X226.398Y-101.095
X226.704Y-91.686
X226.9Y-88.6
X227.569Y-101.105
X227.6Y-90.044
X228.076Y-102.898
X228.403Y-96.011
X228.7Y-101.0
X228.856Y-89.8
X229.1Y-96.5
X229.2Y-88.2
X229.356Y-104.924
X229.5Y-91.5
X229.939Y-102.025
X230.167Y-90.145
X230.925Y-94.307
X231.25Y-108.41
X231.3Y-105.0
X232.0Y-103.7
X232.5Y-93.4
X233.019Y-92.006
X233.2Y-103.7
X233.57Y-90.91
X233.587Y-92.573
X234.4Y-103.7
X234.918Y-95.018
X235.6Y-103.7
X235.7Y-102.12
X236.102Y-92.262
X236.46Y-91.39
X236.858Y-104.311
X237.2Y-88.5
X237.528Y-92.408
X237.858Y-106.161
X238.208Y-104.161
X238.7Y-87.6
X238.708Y-106.161
X239.158Y-104.261
X239.22Y-100.83
X239.599Y-106.109
X239.99Y-109.02
X240.394Y-106.014
X240.679Y-108.268
X240.8Y-90.3
X242.408Y-108.411
T4
X217.5Y-103.0
T6
X189.12Y-85.9
X192.52Y-85.9
X195.92Y-85.9
X199.32Y-85.9
X202.72Y-85.9
X206.12Y-85.9
X209.52Y-85.9
X225.55Y-85.6
X228.09Y-85.6
X230.63Y-85.6
X233.17Y-85.6
X235.71Y-85.6
X238.25Y-85.6
T7
X214.64Y-113.5
X217.18Y-113.5
X219.72Y-113.5
X222.26Y-113.5
X224.8Y-113.5
X227.34Y-113.5
X229.88Y-113.5
X232.42Y-113.5
X234.96Y-113.5
X237.5Y-113.5
T8
X169.2Y-88.61
T9
X166.66Y-86.07
X166.66Y-91.15
X171.74Y-86.07
X171.74Y-91.15
T10
X168.0Y-100.75
X168.0Y-112.0
X242.5Y-87.0
X242.5Y-112.0
T5
X237.8Y-94.57G85X238.9Y-94.57
G05
X237.8Y-103.21G85X238.9Y-103.21
G05
X242.23Y-94.57G85X242.83Y-94.57
G05
X242.23Y-103.21G85X242.83Y-103.21
G05
M30
