G04 #@! TF.GenerationSoftware,KiCad,Pcbnew,10.0.1*
G04 #@! TF.CreationDate,2026-09-13T00:36:41-07:00*
G04 #@! TF.ProjectId,proves_radio_stick_V2,70726f76-6573-45f7-9261-64696f5f7374,rev?*
G04 #@! TF.SameCoordinates,Original*
G04 #@! TF.FileFunction,Copper,L1,Top*
G04 #@! TF.FilePolarity,Positive*
%FSLAX46Y46*%
G04 Gerber Fmt 4.6, Leading zero omitted, Abs format (unit mm)*
G04 Created by KiCad (PCBNEW 10.0.1) date 2026-09-13 00:36:41*
%MOMM*%
%LPD*%
G01*
G04 APERTURE LIST*
G04 Aperture macros list*
%AMRoundRect*
0 Rectangle with rounded corners*
0 $1 Rounding radius*
0 $2 $3 $4 $5 $6 $7 $8 $9 X,Y pos of 4 corners*
0 Add a 4 corners polygon primitive as box body*
4,1,4,$2,$3,$4,$5,$6,$7,$8,$9,$2,$3,0*
0 Add four circle primitives for the rounded corners*
1,1,$1+$1,$2,$3*
1,1,$1+$1,$4,$5*
1,1,$1+$1,$6,$7*
1,1,$1+$1,$8,$9*
0 Add four rect primitives between the rounded corners*
20,1,$1+$1,$2,$3,$4,$5,0*
20,1,$1+$1,$4,$5,$6,$7,0*
20,1,$1+$1,$6,$7,$8,$9,0*
20,1,$1+$1,$8,$9,$2,$3,0*%
%AMRotRect*
0 Rectangle, with rotation*
0 The origin of the aperture is its center*
0 $1 length*
0 $2 width*
0 $3 Rotation angle, in degrees counterclockwise*
0 Add horizontal line*
21,1,$1,$2,0,0,$3*%
%AMFreePoly0*
4,1,18,-0.437500,0.050000,-0.433694,0.069134,-0.422855,0.085355,-0.406634,0.096194,-0.387500,0.100000,0.387500,0.100000,0.437500,0.050000,0.437500,-0.050000,0.433694,-0.069134,0.422855,-0.085355,0.406634,-0.096194,0.387500,-0.100000,-0.387500,-0.100000,-0.406634,-0.096194,-0.422855,-0.085355,-0.433694,-0.069134,-0.437500,-0.050000,-0.437500,0.050000,-0.437500,0.050000,$1*%
%AMFreePoly1*
4,1,18,-0.437500,0.050000,-0.433694,0.069134,-0.422855,0.085355,-0.406634,0.096194,-0.387500,0.100000,0.387500,0.100000,0.406634,0.096194,0.422855,0.085355,0.433694,0.069134,0.437500,0.050000,0.437500,-0.050000,0.387500,-0.100000,-0.387500,-0.100000,-0.406634,-0.096194,-0.422855,-0.085355,-0.433694,-0.069134,-0.437500,-0.050000,-0.437500,0.050000,-0.437500,0.050000,$1*%
%AMFreePoly2*
4,1,18,-0.100000,0.387500,-0.050000,0.437500,0.050000,0.437500,0.069134,0.433694,0.085355,0.422855,0.096194,0.406634,0.100000,0.387500,0.100000,-0.387500,0.096194,-0.406634,0.085355,-0.422855,0.069134,-0.433694,0.050000,-0.437500,-0.050000,-0.437500,-0.069134,-0.433694,-0.085355,-0.422855,-0.096194,-0.406634,-0.100000,-0.387500,-0.100000,0.387500,-0.100000,0.387500,$1*%
%AMFreePoly3*
4,1,18,-0.100000,0.387500,-0.096194,0.406634,-0.085355,0.422855,-0.069134,0.433694,-0.050000,0.437500,0.050000,0.437500,0.100000,0.387500,0.100000,-0.387500,0.096194,-0.406634,0.085355,-0.422855,0.069134,-0.433694,0.050000,-0.437500,-0.050000,-0.437500,-0.069134,-0.433694,-0.085355,-0.422855,-0.096194,-0.406634,-0.100000,-0.387500,-0.100000,0.387500,-0.100000,0.387500,$1*%
%AMFreePoly4*
4,1,18,-0.437500,0.050000,-0.433694,0.069134,-0.422855,0.085355,-0.406634,0.096194,-0.387500,0.100000,0.387500,0.100000,0.406634,0.096194,0.422855,0.085355,0.433694,0.069134,0.437500,0.050000,0.437500,-0.050000,0.433694,-0.069134,0.422855,-0.085355,0.406634,-0.096194,0.387500,-0.100000,-0.387500,-0.100000,-0.437500,-0.050000,-0.437500,0.050000,-0.437500,0.050000,$1*%
%AMFreePoly5*
4,1,18,-0.437500,0.050000,-0.387500,0.100000,0.387500,0.100000,0.406634,0.096194,0.422855,0.085355,0.433694,0.069134,0.437500,0.050000,0.437500,-0.050000,0.433694,-0.069134,0.422855,-0.085355,0.406634,-0.096194,0.387500,-0.100000,-0.387500,-0.100000,-0.406634,-0.096194,-0.422855,-0.085355,-0.433694,-0.069134,-0.437500,-0.050000,-0.437500,0.050000,-0.437500,0.050000,$1*%
%AMFreePoly6*
4,1,18,-0.100000,0.387500,-0.096194,0.406634,-0.085355,0.422855,-0.069134,0.433694,-0.050000,0.437500,0.050000,0.437500,0.069134,0.433694,0.085355,0.422855,0.096194,0.406634,0.100000,0.387500,0.100000,-0.387500,0.050000,-0.437500,-0.050000,-0.437500,-0.069134,-0.433694,-0.085355,-0.422855,-0.096194,-0.406634,-0.100000,-0.387500,-0.100000,0.387500,-0.100000,0.387500,$1*%
%AMFreePoly7*
4,1,18,-0.100000,0.387500,-0.096194,0.406634,-0.085355,0.422855,-0.069134,0.433694,-0.050000,0.437500,0.050000,0.437500,0.069134,0.433694,0.085355,0.422855,0.096194,0.406634,0.100000,0.387500,0.100000,-0.387500,0.096194,-0.406634,0.085355,-0.422855,0.069134,-0.433694,0.050000,-0.437500,-0.050000,-0.437500,-0.100000,-0.387500,-0.100000,0.387500,-0.100000,0.387500,$1*%
G04 Aperture macros list end*
G04 #@! TA.AperFunction,SMDPad,CuDef*
%ADD10RoundRect,0.162500X-0.650000X-0.162500X0.650000X-0.162500X0.650000X0.162500X-0.650000X0.162500X0*%
G04 #@! TD*
G04 #@! TA.AperFunction,ComponentPad*
%ADD11C,2.000000*%
G04 #@! TD*
G04 #@! TA.AperFunction,SMDPad,CuDef*
%ADD12RoundRect,0.135000X-0.135000X-0.185000X0.135000X-0.185000X0.135000X0.185000X-0.135000X0.185000X0*%
G04 #@! TD*
G04 #@! TA.AperFunction,SMDPad,CuDef*
%ADD13RoundRect,0.135000X0.135000X0.185000X-0.135000X0.185000X-0.135000X-0.185000X0.135000X-0.185000X0*%
G04 #@! TD*
G04 #@! TA.AperFunction,SMDPad,CuDef*
%ADD14RoundRect,0.140000X-0.170000X0.140000X-0.170000X-0.140000X0.170000X-0.140000X0.170000X0.140000X0*%
G04 #@! TD*
G04 #@! TA.AperFunction,ComponentPad*
%ADD15R,1.700000X1.700000*%
G04 #@! TD*
G04 #@! TA.AperFunction,ComponentPad*
%ADD16C,1.700000*%
G04 #@! TD*
G04 #@! TA.AperFunction,SMDPad,CuDef*
%ADD17RoundRect,0.135000X-0.035355X0.226274X-0.226274X0.035355X0.035355X-0.226274X0.226274X-0.035355X0*%
G04 #@! TD*
G04 #@! TA.AperFunction,ComponentPad*
%ADD18C,2.600000*%
G04 #@! TD*
G04 #@! TA.AperFunction,ConnectorPad*
%ADD19C,4.400000*%
G04 #@! TD*
G04 #@! TA.AperFunction,SMDPad,CuDef*
%ADD20R,0.900000X0.900000*%
G04 #@! TD*
G04 #@! TA.AperFunction,SMDPad,CuDef*
%ADD21RoundRect,0.135000X-0.185000X0.135000X-0.185000X-0.135000X0.185000X-0.135000X0.185000X0.135000X0*%
G04 #@! TD*
G04 #@! TA.AperFunction,SMDPad,CuDef*
%ADD22RoundRect,0.140000X0.170000X-0.140000X0.170000X0.140000X-0.170000X0.140000X-0.170000X-0.140000X0*%
G04 #@! TD*
G04 #@! TA.AperFunction,SMDPad,CuDef*
%ADD23RoundRect,0.135000X0.185000X-0.135000X0.185000X0.135000X-0.185000X0.135000X-0.185000X-0.135000X0*%
G04 #@! TD*
G04 #@! TA.AperFunction,SMDPad,CuDef*
%ADD24RoundRect,0.140000X-0.140000X-0.170000X0.140000X-0.170000X0.140000X0.170000X-0.140000X0.170000X0*%
G04 #@! TD*
G04 #@! TA.AperFunction,SMDPad,CuDef*
%ADD25R,1.700000X0.700000*%
G04 #@! TD*
G04 #@! TA.AperFunction,SMDPad,CuDef*
%ADD26RoundRect,0.250000X-0.250000X-0.475000X0.250000X-0.475000X0.250000X0.475000X-0.250000X0.475000X0*%
G04 #@! TD*
G04 #@! TA.AperFunction,SMDPad,CuDef*
%ADD27RoundRect,0.225000X-0.225000X-0.250000X0.225000X-0.250000X0.225000X0.250000X-0.225000X0.250000X0*%
G04 #@! TD*
G04 #@! TA.AperFunction,SMDPad,CuDef*
%ADD28R,3.800000X1.200000*%
G04 #@! TD*
G04 #@! TA.AperFunction,SMDPad,CuDef*
%ADD29RoundRect,0.218750X0.256250X-0.218750X0.256250X0.218750X-0.256250X0.218750X-0.256250X-0.218750X0*%
G04 #@! TD*
G04 #@! TA.AperFunction,ComponentPad*
%ADD30C,2.050000*%
G04 #@! TD*
G04 #@! TA.AperFunction,ComponentPad*
%ADD31C,2.250000*%
G04 #@! TD*
G04 #@! TA.AperFunction,SMDPad,CuDef*
%ADD32RoundRect,0.140000X-0.021213X0.219203X-0.219203X0.021213X0.021213X-0.219203X0.219203X-0.021213X0*%
G04 #@! TD*
G04 #@! TA.AperFunction,SMDPad,CuDef*
%ADD33R,0.530000X0.470000*%
G04 #@! TD*
G04 #@! TA.AperFunction,SMDPad,CuDef*
%ADD34RoundRect,0.140000X0.219203X0.021213X0.021213X0.219203X-0.219203X-0.021213X-0.021213X-0.219203X0*%
G04 #@! TD*
G04 #@! TA.AperFunction,SMDPad,CuDef*
%ADD35RoundRect,0.125000X-0.125000X0.125000X-0.125000X-0.125000X0.125000X-0.125000X0.125000X0.125000X0*%
G04 #@! TD*
G04 #@! TA.AperFunction,SMDPad,CuDef*
%ADD36FreePoly0,270.000000*%
G04 #@! TD*
G04 #@! TA.AperFunction,SMDPad,CuDef*
%ADD37RoundRect,0.050000X-0.050000X0.387500X-0.050000X-0.387500X0.050000X-0.387500X0.050000X0.387500X0*%
G04 #@! TD*
G04 #@! TA.AperFunction,SMDPad,CuDef*
%ADD38FreePoly1,270.000000*%
G04 #@! TD*
G04 #@! TA.AperFunction,SMDPad,CuDef*
%ADD39FreePoly2,270.000000*%
G04 #@! TD*
G04 #@! TA.AperFunction,SMDPad,CuDef*
%ADD40RoundRect,0.050000X-0.387500X0.050000X-0.387500X-0.050000X0.387500X-0.050000X0.387500X0.050000X0*%
G04 #@! TD*
G04 #@! TA.AperFunction,SMDPad,CuDef*
%ADD41FreePoly3,270.000000*%
G04 #@! TD*
G04 #@! TA.AperFunction,SMDPad,CuDef*
%ADD42FreePoly4,270.000000*%
G04 #@! TD*
G04 #@! TA.AperFunction,SMDPad,CuDef*
%ADD43FreePoly5,270.000000*%
G04 #@! TD*
G04 #@! TA.AperFunction,SMDPad,CuDef*
%ADD44FreePoly6,270.000000*%
G04 #@! TD*
G04 #@! TA.AperFunction,SMDPad,CuDef*
%ADD45FreePoly7,270.000000*%
G04 #@! TD*
G04 #@! TA.AperFunction,ComponentPad*
%ADD46C,0.600000*%
G04 #@! TD*
G04 #@! TA.AperFunction,SMDPad,CuDef*
%ADD47RoundRect,0.153000X-1.547000X-1.547000X1.547000X-1.547000X1.547000X1.547000X-1.547000X1.547000X0*%
G04 #@! TD*
G04 #@! TA.AperFunction,SMDPad,CuDef*
%ADD48R,0.600000X0.250000*%
G04 #@! TD*
G04 #@! TA.AperFunction,SMDPad,CuDef*
%ADD49O,0.600000X0.250000*%
G04 #@! TD*
G04 #@! TA.AperFunction,SMDPad,CuDef*
%ADD50R,1.500000X0.300000*%
G04 #@! TD*
G04 #@! TA.AperFunction,ComponentPad*
%ADD51RoundRect,0.249999X-0.850001X-0.850001X0.850001X-0.850001X0.850001X0.850001X-0.850001X0.850001X0*%
G04 #@! TD*
G04 #@! TA.AperFunction,ComponentPad*
%ADD52C,2.200000*%
G04 #@! TD*
G04 #@! TA.AperFunction,SMDPad,CuDef*
%ADD53RoundRect,0.150000X0.150000X0.625000X-0.150000X0.625000X-0.150000X-0.625000X0.150000X-0.625000X0*%
G04 #@! TD*
G04 #@! TA.AperFunction,SMDPad,CuDef*
%ADD54RoundRect,0.250000X0.350000X0.650000X-0.350000X0.650000X-0.350000X-0.650000X0.350000X-0.650000X0*%
G04 #@! TD*
G04 #@! TA.AperFunction,SMDPad,CuDef*
%ADD55RoundRect,0.225000X0.250000X-0.225000X0.250000X0.225000X-0.250000X0.225000X-0.250000X-0.225000X0*%
G04 #@! TD*
G04 #@! TA.AperFunction,SMDPad,CuDef*
%ADD56RoundRect,0.140000X0.140000X0.170000X-0.140000X0.170000X-0.140000X-0.170000X0.140000X-0.170000X0*%
G04 #@! TD*
G04 #@! TA.AperFunction,SMDPad,CuDef*
%ADD57R,1.450000X0.600000*%
G04 #@! TD*
G04 #@! TA.AperFunction,SMDPad,CuDef*
%ADD58R,1.450000X0.300000*%
G04 #@! TD*
G04 #@! TA.AperFunction,ComponentPad*
%ADD59O,2.100000X1.000000*%
G04 #@! TD*
G04 #@! TA.AperFunction,ComponentPad*
%ADD60O,1.600000X1.000000*%
G04 #@! TD*
G04 #@! TA.AperFunction,SMDPad,CuDef*
%ADD61RotRect,1.400000X1.200000X225.000000*%
G04 #@! TD*
G04 #@! TA.AperFunction,SMDPad,CuDef*
%ADD62RoundRect,0.218750X-0.218750X-0.256250X0.218750X-0.256250X0.218750X0.256250X-0.218750X0.256250X0*%
G04 #@! TD*
G04 #@! TA.AperFunction,SMDPad,CuDef*
%ADD63R,1.500000X2.800000*%
G04 #@! TD*
G04 #@! TA.AperFunction,SMDPad,CuDef*
%ADD64RoundRect,0.218750X0.218750X0.381250X-0.218750X0.381250X-0.218750X-0.381250X0.218750X-0.381250X0*%
G04 #@! TD*
G04 #@! TA.AperFunction,SMDPad,CuDef*
%ADD65RoundRect,0.225000X-0.250000X0.225000X-0.250000X-0.225000X0.250000X-0.225000X0.250000X0.225000X0*%
G04 #@! TD*
G04 #@! TA.AperFunction,ViaPad*
%ADD66C,0.460000*%
G04 #@! TD*
G04 #@! TA.AperFunction,ViaPad*
%ADD67C,0.560000*%
G04 #@! TD*
G04 #@! TA.AperFunction,ViaPad*
%ADD68C,0.800000*%
G04 #@! TD*
G04 #@! TA.AperFunction,ViaPad*
%ADD69C,0.600000*%
G04 #@! TD*
G04 #@! TA.AperFunction,Conductor*
%ADD70C,0.127000*%
G04 #@! TD*
G04 #@! TA.AperFunction,Conductor*
%ADD71C,0.152400*%
G04 #@! TD*
G04 #@! TA.AperFunction,Conductor*
%ADD72C,0.250000*%
G04 #@! TD*
G04 #@! TA.AperFunction,Conductor*
%ADD73C,0.300000*%
G04 #@! TD*
G04 #@! TA.AperFunction,Conductor*
%ADD74C,0.200000*%
G04 #@! TD*
G04 #@! TA.AperFunction,Conductor*
%ADD75C,0.400000*%
G04 #@! TD*
G04 #@! TA.AperFunction,Conductor*
%ADD76C,0.348996*%
G04 #@! TD*
G04 #@! TA.AperFunction,Conductor*
%ADD77C,0.342392*%
G04 #@! TD*
G04 #@! TA.AperFunction,Conductor*
%ADD78C,0.500000*%
G04 #@! TD*
G04 #@! TA.AperFunction,Conductor*
%ADD79C,0.800000*%
G04 #@! TD*
G04 #@! TA.AperFunction,Conductor*
%ADD80C,0.360000*%
G04 #@! TD*
G04 APERTURE END LIST*
D10*
X231512500Y-88505000D03*
X231512500Y-89775000D03*
X231512500Y-91045000D03*
X231512500Y-92315000D03*
X238687500Y-92315000D03*
X238687500Y-91045000D03*
X238687500Y-89775000D03*
X238687500Y-88505000D03*
D11*
X206120000Y-85900000D03*
D12*
X233979008Y-98903295D03*
X234999006Y-98903295D03*
D13*
X234164620Y-102792382D03*
X233144622Y-102792382D03*
D14*
X240300000Y-89320000D03*
X240300000Y-90280000D03*
D15*
X225550000Y-85600000D03*
D16*
X228090000Y-85600000D03*
X230629999Y-85600000D03*
X233170000Y-85600000D03*
X235710000Y-85600000D03*
X238250000Y-85600000D03*
D17*
X221237826Y-98719448D03*
X220516578Y-99440696D03*
D18*
X242500000Y-112000000D03*
D19*
X242500000Y-112000000D03*
D20*
X221600000Y-85270001D03*
X221600000Y-89369999D03*
X223200000Y-85270001D03*
X223200000Y-89369999D03*
D21*
X235663500Y-94401500D03*
X235663500Y-95421500D03*
D22*
X225579462Y-93160755D03*
X225579462Y-92200755D03*
D23*
X235663500Y-101211500D03*
X235663500Y-100191500D03*
D24*
X229801722Y-93762629D03*
X230761722Y-93762629D03*
D13*
X241168500Y-105161500D03*
X240148500Y-105161500D03*
D11*
X195920000Y-85900000D03*
D25*
X234064743Y-100041773D03*
X234064743Y-101441773D03*
D24*
X178080000Y-115600000D03*
X177120000Y-115600000D03*
D23*
X226590000Y-93169999D03*
X226590000Y-92150001D03*
D26*
X180350000Y-115600000D03*
X182250000Y-115600000D03*
D27*
X228725000Y-104350000D03*
X230275000Y-104350000D03*
D28*
X233858500Y-107551500D03*
X233858500Y-105171500D03*
D24*
X234009007Y-96923396D03*
X234969007Y-96923396D03*
D29*
X230420000Y-108367501D03*
X230420000Y-106792499D03*
D23*
X241458500Y-107971500D03*
X241458500Y-106951500D03*
D21*
X224670000Y-88470001D03*
X224670000Y-89489999D03*
D23*
X225902477Y-90379999D03*
X225902477Y-89360001D03*
D30*
X169200000Y-88610000D03*
D31*
X166660000Y-86070000D03*
X166660000Y-91150000D03*
X171740000Y-86070000D03*
X171740000Y-91150000D03*
D32*
X221870687Y-99394735D03*
X221191865Y-100073557D03*
D33*
X232509108Y-100085351D03*
X232509108Y-101115351D03*
D34*
X221676232Y-97262807D03*
X220997410Y-96583985D03*
D11*
X209520000Y-85900000D03*
D18*
X242500000Y-87000000D03*
D19*
X242500000Y-87000000D03*
D24*
X229220000Y-103120000D03*
X230180000Y-103120000D03*
D21*
X229890000Y-88190001D03*
X229890000Y-89209999D03*
D12*
X233979008Y-97913345D03*
X234999006Y-97913345D03*
D18*
X168000000Y-100750000D03*
D19*
X168000000Y-100750000D03*
D14*
X227290660Y-103118484D03*
X227290660Y-104078484D03*
D35*
X229500000Y-90542501D03*
X229500000Y-92742499D03*
D36*
X229412799Y-95112241D03*
D37*
X229012799Y-95112242D03*
X228612799Y-95112242D03*
X228212799Y-95112242D03*
X227812800Y-95112242D03*
X227412799Y-95112242D03*
X227012799Y-95112242D03*
X226612799Y-95112241D03*
X226212799Y-95112242D03*
X225812799Y-95112242D03*
X225412798Y-95112242D03*
X225012799Y-95112242D03*
X224612799Y-95112242D03*
X224212799Y-95112242D03*
D38*
X223812799Y-95112241D03*
D39*
X223175298Y-95749742D03*
D40*
X223175299Y-96149742D03*
X223175299Y-96549742D03*
X223175299Y-96949742D03*
X223175299Y-97349741D03*
X223175299Y-97749742D03*
X223175299Y-98149742D03*
X223175298Y-98549742D03*
X223175299Y-98949742D03*
X223175299Y-99349742D03*
X223175299Y-99749743D03*
X223175299Y-100149742D03*
X223175299Y-100549742D03*
X223175299Y-100949742D03*
D41*
X223175298Y-101349742D03*
D42*
X223812799Y-101987243D03*
D37*
X224212799Y-101987242D03*
X224612799Y-101987242D03*
X225012799Y-101987242D03*
X225412798Y-101987242D03*
X225812799Y-101987242D03*
X226212799Y-101987242D03*
X226612799Y-101987243D03*
X227012799Y-101987242D03*
X227412799Y-101987242D03*
X227812800Y-101987242D03*
X228212799Y-101987242D03*
X228612799Y-101987242D03*
X229012799Y-101987242D03*
D43*
X229412799Y-101987243D03*
D44*
X230050300Y-101349742D03*
D40*
X230050299Y-100949742D03*
X230050299Y-100549742D03*
X230050299Y-100149742D03*
X230050299Y-99749743D03*
X230050299Y-99349742D03*
X230050299Y-98949742D03*
X230050300Y-98549742D03*
X230050299Y-98149742D03*
X230050299Y-97749742D03*
X230050299Y-97349741D03*
X230050299Y-96949742D03*
X230050299Y-96549742D03*
X230050299Y-96149742D03*
D45*
X230050300Y-95749742D03*
D46*
X227987799Y-97174742D03*
X226612799Y-97174742D03*
X225237799Y-97174742D03*
X227987799Y-98549742D03*
X226612799Y-98549742D03*
D47*
X226612799Y-98549742D03*
D46*
X225237799Y-98549742D03*
X227987799Y-99924742D03*
X226612799Y-99924742D03*
X225237799Y-99924742D03*
D11*
X192520000Y-85900000D03*
D48*
X239838500Y-108211500D03*
D49*
X239828500Y-107711500D03*
X239828500Y-107211500D03*
X239828500Y-106711500D03*
D50*
X238478500Y-106861500D03*
X238478500Y-107461500D03*
X238478500Y-108061500D03*
D51*
X214640000Y-113500000D03*
D52*
X217180000Y-113500000D03*
X219720000Y-113500000D03*
X222260000Y-113500000D03*
X224800000Y-113500000D03*
X227340000Y-113500000D03*
X229880000Y-113500000D03*
X232420000Y-113500000D03*
X234960000Y-113500000D03*
X237500000Y-113500000D03*
D14*
X226371421Y-103118484D03*
X226371421Y-104078484D03*
D21*
X218300000Y-103490001D03*
X218300000Y-104509999D03*
D22*
X227630071Y-93514309D03*
X227630071Y-92554309D03*
D13*
X225429999Y-104020000D03*
X224410001Y-104020000D03*
D53*
X226860000Y-105795000D03*
X225860000Y-105795001D03*
X224860000Y-105795000D03*
D54*
X228160000Y-108320001D03*
X223560000Y-108320001D03*
D55*
X236858500Y-108236500D03*
X236858500Y-106686500D03*
D14*
X219498345Y-99978930D03*
X219498345Y-100938930D03*
D20*
X218300000Y-85270002D03*
X218300000Y-89370000D03*
X219900000Y-85270002D03*
X219900000Y-89370000D03*
D56*
X232297001Y-102792382D03*
X231337001Y-102792382D03*
D33*
X231519159Y-100085351D03*
X231519159Y-101115351D03*
D57*
X237435000Y-102140000D03*
X237435000Y-101340001D03*
D58*
X237435001Y-100140000D03*
X237435000Y-99140000D03*
X237435000Y-98640000D03*
X237435001Y-97640000D03*
D57*
X237435000Y-96439999D03*
X237435000Y-95640000D03*
X237435000Y-95640000D03*
X237435000Y-96439999D03*
D58*
X237435000Y-97140000D03*
X237435000Y-98140000D03*
X237435000Y-99640000D03*
X237435000Y-100640000D03*
D57*
X237435000Y-101340001D03*
X237435000Y-102140000D03*
D59*
X238350000Y-103210000D03*
D60*
X242530000Y-103210000D03*
D59*
X238350000Y-94570000D03*
D60*
X242530000Y-94570000D03*
D13*
X230909999Y-105580000D03*
X229890001Y-105580000D03*
D23*
X226850000Y-90389385D03*
X226850000Y-89369387D03*
D61*
X218402328Y-96534487D03*
X216846693Y-98090122D03*
X218048774Y-99292203D03*
X219604409Y-97736568D03*
D11*
X202720000Y-85900000D03*
D14*
X221973217Y-102595225D03*
X221973217Y-103555225D03*
D62*
X213112500Y-89500000D03*
X214687500Y-89500000D03*
D34*
X221199411Y-95419411D03*
X220520589Y-94740589D03*
D23*
X231710000Y-94779999D03*
X231710000Y-93760001D03*
D12*
X223480000Y-91180000D03*
X224500000Y-91180000D03*
D27*
X236883500Y-105161500D03*
X238433500Y-105161500D03*
D11*
X199320000Y-85900000D03*
D18*
X168000000Y-112000000D03*
D19*
X168000000Y-112000000D03*
D13*
X216909999Y-89500000D03*
X215890001Y-89500000D03*
D11*
X189120000Y-85900000D03*
D63*
X179020000Y-112750000D03*
X181560000Y-112750000D03*
X184100000Y-112750000D03*
X191700000Y-112750000D03*
X194240000Y-112750000D03*
X196780000Y-112750000D03*
X199320000Y-112750000D03*
X201860000Y-112750000D03*
X204400000Y-112750000D03*
X206940000Y-112750000D03*
X209480000Y-112750000D03*
X209480000Y-88750000D03*
X206940000Y-88750000D03*
X204400000Y-88750000D03*
X201860000Y-88750000D03*
X199320000Y-88750000D03*
X196780000Y-88750000D03*
X194240000Y-88750000D03*
X191700000Y-88750000D03*
X184100000Y-88750000D03*
X181560000Y-88750000D03*
X179020000Y-88750000D03*
D64*
X210562500Y-115700000D03*
X208437500Y-115700000D03*
D65*
X203100000Y-114925000D03*
X203100000Y-116475000D03*
D14*
X205670000Y-115020000D03*
X205670000Y-115980000D03*
D56*
X180680000Y-86400000D03*
X179720000Y-86400000D03*
D62*
X177112500Y-85200000D03*
X178687500Y-85200000D03*
D66*
X217730577Y-95721315D03*
D67*
X223200000Y-86200000D03*
D66*
X216882048Y-100246798D03*
X216245652Y-99610402D03*
D67*
X214700000Y-85000000D03*
D66*
X219569054Y-95014208D03*
X219700000Y-88520001D03*
D67*
X240800000Y-90300000D03*
X233018920Y-92005508D03*
X231250000Y-108410000D03*
X212500000Y-111000000D03*
X235700000Y-102120000D03*
X213700000Y-85000000D03*
D66*
X235620378Y-96923396D03*
D67*
X230925189Y-94307101D03*
D66*
X230692342Y-102707658D03*
X217730577Y-100812483D03*
X215609256Y-98974006D03*
D67*
X212500000Y-114000000D03*
D66*
X227544793Y-91902938D03*
X216882048Y-96569843D03*
X219800000Y-86320001D03*
X225203040Y-91539164D03*
X215397124Y-98196188D03*
X216104231Y-97347660D03*
X226350207Y-104567220D03*
D67*
X212500000Y-112000000D03*
X238708500Y-106161500D03*
X212500000Y-110000000D03*
D66*
X221292725Y-97922936D03*
D67*
X237858500Y-106161500D03*
X239158500Y-104261500D03*
D66*
X231307027Y-101661012D03*
X220346872Y-95792024D03*
D67*
X238208500Y-104161500D03*
D68*
X217500000Y-103000000D03*
D67*
X212700000Y-85000000D03*
D69*
X222706133Y-103383877D03*
D66*
X220435260Y-100273606D03*
D67*
X212500000Y-113000000D03*
D66*
X232438398Y-101661012D03*
D67*
X239599269Y-106108935D03*
X223200000Y-88500000D03*
D66*
X218579105Y-94872786D03*
D67*
X214380000Y-102820000D03*
X240393865Y-106013541D03*
D66*
X234700283Y-102792383D03*
D67*
X226900000Y-88600000D03*
X224630000Y-87720000D03*
D66*
X224013680Y-97532376D03*
D67*
X226704293Y-91685707D03*
X238700000Y-87600000D03*
X229356199Y-104924153D03*
D66*
X233004083Y-97701214D03*
X229720000Y-94400000D03*
D67*
X232000000Y-103700000D03*
X229200000Y-88200000D03*
D66*
X229317335Y-98134389D03*
D67*
X242408500Y-108411500D03*
X234400000Y-103700000D03*
X229939020Y-102025048D03*
D66*
X222581746Y-101932630D03*
D67*
X226010000Y-103310000D03*
X231300000Y-105000000D03*
D66*
X225287936Y-95942130D03*
D67*
X233200000Y-103700000D03*
X237200000Y-88500000D03*
X225900000Y-88600000D03*
X224490000Y-90530000D03*
X235600000Y-103700000D03*
X236858500Y-104311500D03*
X239220000Y-100830000D03*
X239990000Y-109020000D03*
X240678917Y-108268364D03*
X219300000Y-87700000D03*
X229500000Y-91500000D03*
X233586706Y-92573294D03*
X233570000Y-90910000D03*
X234918124Y-95018124D03*
X236460000Y-91390000D03*
X237528124Y-92408124D03*
X236101537Y-92261538D03*
X229100000Y-96500000D03*
X228402778Y-96011478D03*
X228856200Y-89800000D03*
X227600000Y-90043800D03*
X222720000Y-90370000D03*
D66*
X220611249Y-100951250D03*
X224066152Y-98937250D03*
X224340000Y-99600000D03*
D67*
X224081552Y-100390997D03*
X226230000Y-94070000D03*
D66*
X224041506Y-96764297D03*
D67*
X223830000Y-92920000D03*
X222750000Y-91200000D03*
X221940000Y-92452800D03*
X223168243Y-92452799D03*
D66*
X232155555Y-99610402D03*
X228742799Y-99662248D03*
X232933372Y-99610402D03*
D67*
X230167252Y-90144682D03*
X232500000Y-93400000D03*
X226398425Y-101095025D03*
X224510000Y-101070000D03*
X228700000Y-101000000D03*
X227568998Y-101105404D03*
X225510000Y-100830000D03*
X224620685Y-107501001D03*
X228075960Y-102897702D03*
X225186783Y-102890334D03*
X217373002Y-89873600D03*
D66*
X226181816Y-96066340D03*
D67*
X194240000Y-91600000D03*
X191700000Y-92200000D03*
X196780000Y-92800000D03*
X199320000Y-93400000D03*
X201860000Y-94000000D03*
X204400000Y-94600000D03*
X206940000Y-95200000D03*
X219300000Y-91250000D03*
X218600000Y-92450000D03*
X219000000Y-93650000D03*
X196780000Y-104450000D03*
X217000000Y-104450000D03*
X199320000Y-105150000D03*
X216000000Y-105150000D03*
X201860000Y-108500000D03*
X211700000Y-115700000D03*
X185300000Y-116600000D03*
X202000000Y-116600000D03*
X179100000Y-115600000D03*
X176200000Y-116400000D03*
X183400000Y-116500000D03*
X209480000Y-90850000D03*
X184100000Y-90850000D03*
X179020000Y-90850000D03*
X179020000Y-110650000D03*
X181560000Y-110650000D03*
X184100000Y-110650000D03*
X191700000Y-110650000D03*
X194240000Y-110650000D03*
X209480000Y-110650000D03*
X170500000Y-116600000D03*
X172500000Y-116600000D03*
X174500000Y-116600000D03*
X184200000Y-116600000D03*
X191500000Y-116600000D03*
X193500000Y-116600000D03*
X195500000Y-116600000D03*
X197500000Y-116600000D03*
X199500000Y-116600000D03*
X212500000Y-116600000D03*
X205420000Y-96500000D03*
X208800000Y-96000000D03*
X179020000Y-87950000D03*
X179020000Y-89550000D03*
X184100000Y-87950000D03*
X184100000Y-89550000D03*
X209480000Y-87950000D03*
X209480000Y-89550000D03*
X179020000Y-111950000D03*
X179020000Y-113550000D03*
X181560000Y-111950000D03*
X181560000Y-113550000D03*
X184100000Y-111950000D03*
X184100000Y-113550000D03*
X191700000Y-111950000D03*
X191700000Y-113550000D03*
X194240000Y-111950000D03*
X194240000Y-113550000D03*
X209480000Y-111950000D03*
X209480000Y-113550000D03*
X175600000Y-85100000D03*
X178687500Y-85200000D03*
X180000000Y-85100000D03*
X182000000Y-85100000D03*
X184000000Y-85100000D03*
X186000000Y-85100000D03*
X170400000Y-87000000D03*
X170400000Y-90200000D03*
X173200000Y-87300000D03*
X173200000Y-89900000D03*
X168400000Y-85000000D03*
X168200000Y-86900000D03*
X165900000Y-88000000D03*
X167000000Y-88600000D03*
X165900000Y-89100000D03*
X168200000Y-90300000D03*
X168400000Y-92200000D03*
X174000000Y-85100000D03*
X170000000Y-85000000D03*
X174000000Y-92200000D03*
X170000000Y-92300000D03*
X206940000Y-113300000D03*
X206940000Y-114900000D03*
X209890000Y-114500000D03*
X177000000Y-98500000D03*
X180000000Y-98500000D03*
X183000000Y-98500000D03*
X186000000Y-98500000D03*
X189000000Y-98500000D03*
X192900000Y-98500000D03*
X195500000Y-98500000D03*
X198000000Y-98500000D03*
X200600000Y-98500000D03*
X203100000Y-98500000D03*
X205700000Y-98500000D03*
X208300000Y-98500000D03*
X211000000Y-98500000D03*
X177000000Y-101500000D03*
X180000000Y-101500000D03*
X183000000Y-101500000D03*
X186000000Y-101500000D03*
X189000000Y-101500000D03*
X192900000Y-101500000D03*
X195500000Y-101500000D03*
X198000000Y-101500000D03*
X200600000Y-101500000D03*
X203100000Y-101500000D03*
X205700000Y-101500000D03*
X208300000Y-101500000D03*
X211000000Y-101500000D03*
X177000000Y-110000000D03*
X180000000Y-110000000D03*
X183000000Y-110000000D03*
X186000000Y-110000000D03*
X189000000Y-110000000D03*
X203100000Y-110000000D03*
X205700000Y-110000000D03*
X208300000Y-110000000D03*
X211000000Y-110000000D03*
X187500000Y-84900000D03*
X190900000Y-84900000D03*
X194300000Y-84900000D03*
X197700000Y-84900000D03*
X201100000Y-84900000D03*
X204500000Y-84900000D03*
X207900000Y-84900000D03*
X211300000Y-84900000D03*
X165600000Y-94000000D03*
X165600000Y-97000000D03*
X165600000Y-104000000D03*
X165600000Y-107000000D03*
X220392623Y-106000000D03*
X219300000Y-105900000D03*
X208440000Y-116550000D03*
X204100000Y-116600000D03*
X200600000Y-110750000D03*
X200600000Y-114550000D03*
X221100000Y-103100000D03*
D70*
X230996123Y-100965894D02*
X231236316Y-101206087D01*
D71*
X213340003Y-103440001D02*
X212890001Y-102989999D01*
X225429999Y-104020000D02*
X226312937Y-104020000D01*
D72*
X227290660Y-104078484D02*
X227219950Y-104149194D01*
X230075000Y-103155000D02*
X230075000Y-104350000D01*
D71*
X225353918Y-91975212D02*
X225579462Y-92200756D01*
D72*
X230761722Y-93762629D02*
X230925189Y-93926096D01*
D71*
X223200000Y-85270001D02*
X223200000Y-86200000D01*
X227630071Y-92554309D02*
X227544793Y-92469031D01*
D73*
X219900000Y-88720001D02*
X219700000Y-88520001D01*
D71*
X223200000Y-89369999D02*
X223200000Y-88500000D01*
D72*
X225908714Y-105008714D02*
X226350207Y-104567220D01*
X237415000Y-102120000D02*
X237435000Y-102140000D01*
D71*
X240780000Y-90280000D02*
X240800000Y-90300000D01*
D72*
X230110000Y-103120000D02*
X230075000Y-103155000D01*
D71*
X226838112Y-104149194D02*
X227290660Y-104149194D01*
D72*
X237435000Y-102295000D02*
X238350000Y-103210000D01*
D71*
X215567395Y-98225038D02*
X217087675Y-98225038D01*
D72*
X225860000Y-105057427D02*
X225908714Y-105008714D01*
D74*
X234969007Y-96923396D02*
X235620378Y-96923396D01*
D72*
X235663500Y-94401500D02*
X238181500Y-94401500D01*
D71*
X227544793Y-92469031D02*
X227544793Y-91902938D01*
X220991815Y-100273606D02*
X220435260Y-100273606D01*
D72*
X230692342Y-102707658D02*
X230260380Y-102707658D01*
D71*
X225203040Y-91539164D02*
X225350544Y-91539164D01*
D72*
X218300000Y-103490001D02*
X217990001Y-103490001D01*
D71*
X225429999Y-104020000D02*
X225429999Y-104529999D01*
D73*
X219899999Y-85270001D02*
X219900000Y-86220001D01*
D72*
X238181500Y-94401500D02*
X238350000Y-94570000D01*
X230925189Y-93926096D02*
X230925189Y-94307101D01*
D71*
X214520000Y-103440001D02*
X213340003Y-103440001D01*
D72*
X237435000Y-95640000D02*
X237435000Y-95485000D01*
D75*
X237333500Y-106686500D02*
X237858500Y-106161500D01*
D72*
X227219950Y-104149194D02*
X226838112Y-104149194D01*
X225860000Y-105795001D02*
X225860000Y-105057427D01*
D71*
X232032500Y-92315000D02*
X232709428Y-92315000D01*
D75*
X238478500Y-106861500D02*
X237033500Y-106861500D01*
X236858500Y-106686500D02*
X237333500Y-106686500D01*
D72*
X235663500Y-101211500D02*
X235663500Y-102083500D01*
D71*
X242410000Y-103330000D02*
X242530000Y-103210000D01*
X231519159Y-101115351D02*
X232509108Y-101115351D01*
X225353918Y-91542538D02*
X225353918Y-91975212D01*
X216846693Y-98090122D02*
X216104231Y-97347660D01*
D72*
X237435000Y-102140000D02*
X237435000Y-102295000D01*
D71*
X223200000Y-88500000D02*
X223200000Y-89370001D01*
X232709428Y-92315000D02*
X233018920Y-92005508D01*
D70*
X222534786Y-103555225D02*
X221973217Y-103555225D01*
D71*
X226312937Y-104020000D02*
X226371421Y-104078484D01*
D72*
X230260380Y-102707658D02*
X230110000Y-102858038D01*
D71*
X214520000Y-102960000D02*
X214380000Y-102820000D01*
X226442132Y-104149194D02*
X226838112Y-104149194D01*
X220028674Y-98054768D02*
X220160504Y-97922936D01*
X240300000Y-90280000D02*
X240780000Y-90280000D01*
X225429999Y-104529999D02*
X225908714Y-105008714D01*
X230420000Y-108367501D02*
X231207501Y-108367501D01*
D70*
X222706133Y-103383877D02*
X222534786Y-103555225D01*
D72*
X235663500Y-102083500D02*
X235700000Y-102120000D01*
X242305000Y-94345000D02*
X242530000Y-94570000D01*
D75*
X237033500Y-106861500D02*
X236858500Y-106686500D01*
D71*
X231207501Y-108367501D02*
X231250000Y-108410000D01*
D73*
X219900000Y-89370001D02*
X219900000Y-88720001D01*
D71*
X230777065Y-102792382D02*
X231337002Y-102792382D01*
X215538546Y-98196187D02*
X215567395Y-98225038D01*
D72*
X237435000Y-95640000D02*
X236902000Y-95640000D01*
D71*
X230692342Y-102707658D02*
X230777065Y-102792382D01*
X221191864Y-100073557D02*
X220991815Y-100273606D01*
X217087675Y-98225038D02*
X217270957Y-98408320D01*
X223200000Y-86200000D02*
X223200000Y-88500000D01*
X214520000Y-103440001D02*
X214520000Y-102960000D01*
D72*
X217990001Y-103490001D02*
X217500000Y-103000000D01*
X236902000Y-95640000D02*
X235663500Y-94401500D01*
X242455000Y-103285000D02*
X242530000Y-103210000D01*
D71*
X226350207Y-104099698D02*
X226350207Y-104567220D01*
D70*
X230021053Y-100965894D02*
X230996123Y-100965894D01*
D71*
X225350544Y-91539164D02*
X225353918Y-91542538D01*
X226371421Y-104078484D02*
X226442132Y-104149194D01*
D72*
X237435000Y-95485000D02*
X238350000Y-94570000D01*
X230110000Y-102858038D02*
X230110000Y-103120000D01*
D71*
X226371421Y-104078484D02*
X226350207Y-104099698D01*
D72*
X235700000Y-102120000D02*
X237415000Y-102120000D01*
D73*
X219900000Y-86220001D02*
X219800000Y-86320001D01*
D71*
X220160504Y-97922936D02*
X221292725Y-97922936D01*
X237205000Y-88505000D02*
X237200000Y-88500000D01*
X229720000Y-94013430D02*
X229801723Y-93931707D01*
X230050300Y-98549742D02*
X229900846Y-98400288D01*
X224670000Y-88470001D02*
X224670000Y-87760000D01*
X229412799Y-101987243D02*
X229312799Y-101887243D01*
D70*
X233004083Y-97701214D02*
X232791951Y-97489082D01*
D71*
X224500000Y-90540000D02*
X224490000Y-90530000D01*
X226704293Y-91685707D02*
X226590000Y-91800000D01*
D70*
X233004083Y-97701214D02*
X232862662Y-97701214D01*
D71*
X221199411Y-95903293D02*
X221199411Y-95419411D01*
X226093428Y-103226572D02*
X226263333Y-103226572D01*
X223707622Y-97349741D02*
X223175299Y-97349741D01*
X229720000Y-94805040D02*
X229412799Y-95112241D01*
X230050300Y-98549742D02*
X230286782Y-98549742D01*
X230009970Y-98149742D02*
X229830135Y-98329577D01*
X226612799Y-102877106D02*
X226371421Y-103118484D01*
D76*
X225902477Y-89360001D02*
X226840614Y-89360001D01*
D71*
X230050299Y-98149742D02*
X230009970Y-98149742D01*
D70*
X232933372Y-97630503D02*
X232933372Y-97347660D01*
D74*
X240393865Y-106146135D02*
X240393865Y-106013541D01*
D71*
X226010000Y-103310000D02*
X226093428Y-103226572D01*
X229312799Y-101887243D02*
X229312799Y-100385626D01*
X231209970Y-100149741D02*
X231236316Y-100176087D01*
X240300000Y-89320000D02*
X239485000Y-88505000D01*
X222645859Y-97349741D02*
X221199411Y-95903293D01*
D70*
X232791951Y-97489082D02*
X232933372Y-97347660D01*
D71*
X225287936Y-95942130D02*
X225412799Y-95817267D01*
D76*
X226840614Y-89360001D02*
X226850000Y-89369387D01*
D71*
X238687500Y-88505000D02*
X238687500Y-87612500D01*
X229412799Y-101987243D02*
X229901215Y-101987243D01*
X229901215Y-101987243D02*
X229939020Y-102025048D01*
D76*
X226850000Y-89369387D02*
X226850000Y-88650000D01*
D71*
X228725000Y-104350000D02*
X228782046Y-104350000D01*
X226263333Y-103226572D02*
X226371421Y-103118484D01*
X230050299Y-98149742D02*
X230050299Y-98250834D01*
X230286782Y-98549742D02*
X230670631Y-98165894D01*
X229012800Y-101987242D02*
X229012800Y-102925680D01*
D76*
X225902477Y-89360001D02*
X225902477Y-88602477D01*
D74*
X239828500Y-106711500D02*
X240393865Y-106146135D01*
D71*
X226590000Y-91800000D02*
X226590000Y-92150001D01*
X234164621Y-102792382D02*
X234700283Y-102792383D01*
D70*
X232579819Y-97701214D02*
X233004083Y-97701214D01*
D76*
X226850000Y-88650000D02*
X226900000Y-88600000D01*
D71*
X230909999Y-105390001D02*
X230909999Y-105580000D01*
D74*
X229412799Y-101987242D02*
X229412799Y-102312368D01*
D71*
X231300000Y-105000000D02*
X230909999Y-105390001D01*
X229830135Y-98329577D02*
X229634948Y-98134388D01*
X229900846Y-98400288D02*
X229830135Y-98329577D01*
D72*
X229150000Y-103725000D02*
X228525000Y-104350000D01*
D70*
X232174440Y-98106594D02*
X232226266Y-98054768D01*
D71*
X230050299Y-100149741D02*
X231209970Y-100149741D01*
D77*
X241583500Y-108411500D02*
X241458500Y-108286500D01*
D71*
X223175299Y-101349742D02*
X222592412Y-101932630D01*
X226612799Y-101987242D02*
X226612799Y-102877106D01*
X230050300Y-98549742D02*
X230050299Y-98149742D01*
X221973217Y-102541157D02*
X221973217Y-102595225D01*
D70*
X232226266Y-98054768D02*
X232579819Y-97701214D01*
D77*
X242408500Y-108411500D02*
X241583500Y-108411500D01*
D76*
X225902477Y-88602477D02*
X225900000Y-88600000D01*
D71*
X230050299Y-98250834D02*
X229900846Y-98400288D01*
X225412798Y-93327418D02*
X225579461Y-93160755D01*
X222592412Y-101932630D02*
X222581746Y-101932630D01*
X223175299Y-97349741D02*
X222645859Y-97349741D01*
D70*
X230021053Y-98165894D02*
X230670631Y-98165894D01*
D71*
X229548683Y-100149742D02*
X230050299Y-100149742D01*
X225412799Y-95817267D02*
X225412799Y-95112242D01*
X224013680Y-97532376D02*
X223890257Y-97532376D01*
D70*
X233357636Y-96923396D02*
X234009009Y-96923396D01*
D76*
X229209999Y-88190001D02*
X229200000Y-88200000D01*
D71*
X229012800Y-101987242D02*
X229412799Y-101987242D01*
X238687500Y-88505000D02*
X237205000Y-88505000D01*
X238687500Y-87612500D02*
X238700000Y-87600000D01*
X228782046Y-104350000D02*
X229356199Y-104924153D01*
X229720000Y-94400000D02*
X229720000Y-94013430D01*
X223175299Y-101349742D02*
X223175299Y-101393145D01*
D76*
X229890000Y-88190001D02*
X229209999Y-88190001D01*
D70*
X232933372Y-97347660D02*
X233357636Y-96923396D01*
D71*
X233450000Y-105580000D02*
X233858500Y-105171500D01*
D70*
X230729931Y-98106594D02*
X232174440Y-98106594D01*
D71*
X222581746Y-101932630D02*
X221973217Y-102541157D01*
X229801723Y-93931707D02*
X229801722Y-93762629D01*
D70*
X232862662Y-97701214D02*
X232721240Y-97559792D01*
D71*
X229634948Y-98134388D02*
X229317335Y-98134389D01*
X229312799Y-100385626D02*
X229548683Y-100149742D01*
X225412799Y-95112242D02*
X225412798Y-93327418D01*
D77*
X236883500Y-104336500D02*
X236858500Y-104311500D01*
D71*
X223890257Y-97532376D02*
X223707622Y-97349741D01*
D70*
X230670631Y-98165894D02*
X230729931Y-98106594D01*
D77*
X236883500Y-105161500D02*
X236883500Y-104336500D01*
D71*
X230909999Y-105580000D02*
X233450000Y-105580000D01*
X229720000Y-94400000D02*
X229720000Y-94805040D01*
X229548683Y-100149741D02*
X230050299Y-100149741D01*
D70*
X232226266Y-98054768D02*
X232721240Y-97559792D01*
D71*
X224500000Y-91180000D02*
X224500000Y-90540000D01*
X239485000Y-88505000D02*
X238687500Y-88505000D01*
D70*
X233004083Y-97701214D02*
X232933372Y-97630503D01*
D72*
X229150000Y-103120000D02*
X229150000Y-103725000D01*
D71*
X224670000Y-87760000D02*
X224630000Y-87720000D01*
D70*
X232721240Y-97559792D02*
X232791951Y-97489082D01*
D75*
X238478500Y-108061500D02*
X237033500Y-108061500D01*
X239990000Y-109020000D02*
X239700000Y-108730000D01*
X240330000Y-108680000D02*
X240330000Y-108617281D01*
X237435000Y-96439999D02*
X238216912Y-96439999D01*
X240307000Y-108703000D02*
X239990000Y-109020000D01*
X238216912Y-96439999D02*
X239220000Y-97443087D01*
X238478500Y-108061500D02*
X238654500Y-108237500D01*
X238654500Y-108237500D02*
X239864500Y-108237500D01*
X237352000Y-108730000D02*
X236858500Y-108236500D01*
X240330000Y-108703000D02*
X240307000Y-108703000D01*
X238726913Y-100830000D02*
X239220000Y-100830000D01*
X238216912Y-101340001D02*
X238726913Y-100830000D01*
X237033500Y-108061500D02*
X236858500Y-108236500D01*
X239700000Y-108730000D02*
X237352000Y-108730000D01*
X239990000Y-109020000D02*
X240330000Y-108680000D01*
X239220000Y-97443087D02*
X239220000Y-100830000D01*
X237435000Y-101340001D02*
X238216912Y-101340001D01*
X240330000Y-108617281D02*
X240678917Y-108268364D01*
D71*
X223175299Y-97749741D02*
X222163167Y-97749742D01*
X219144790Y-96534487D02*
X218826592Y-96852685D01*
X221676232Y-97262807D02*
X220827704Y-97262807D01*
X220827704Y-97262807D02*
X220099384Y-96534487D01*
X221861793Y-97139064D02*
X221799976Y-97139064D01*
X220099384Y-96534487D02*
X219144790Y-96534487D01*
X222163167Y-97749742D02*
X221676232Y-97262807D01*
X231672831Y-102168212D02*
X232297001Y-102792382D01*
X230050300Y-101349742D02*
X230868770Y-102168212D01*
X232297001Y-102792382D02*
X233145480Y-102792382D01*
X230868770Y-102168212D02*
X231672831Y-102168212D01*
X229442501Y-91442501D02*
X229442501Y-90600000D01*
X218300000Y-88700000D02*
X219300000Y-87700000D01*
X229500000Y-91500000D02*
X229442501Y-91442501D01*
X229442501Y-90600000D02*
X229500000Y-90542501D01*
X218300000Y-89370001D02*
X218300001Y-85270001D01*
X218300000Y-89370000D02*
X218300000Y-88700000D01*
X230605325Y-100603152D02*
X232936171Y-100603152D01*
X230551916Y-100549742D02*
X230605325Y-100603152D01*
X232936171Y-100603152D02*
X233774794Y-101441773D01*
X233774794Y-101441773D02*
X234064743Y-101441773D01*
X230050299Y-100549741D02*
X230551916Y-100549742D01*
X223175299Y-98149742D02*
X221807533Y-98149742D01*
X221807533Y-98149742D02*
X221237825Y-98719448D01*
X233570000Y-90910000D02*
X232435000Y-89775000D01*
X230021053Y-96165894D02*
X231286711Y-96165895D01*
X231286711Y-96165895D02*
X233586706Y-93865900D01*
X232435000Y-89775000D02*
X232032500Y-89775000D01*
X233586706Y-93865900D02*
X233586706Y-92573294D01*
X236460000Y-91390000D02*
X238075000Y-89775000D01*
X238075000Y-89775000D02*
X239207500Y-89775000D01*
X233711190Y-96004156D02*
X231949454Y-97765892D01*
X233711190Y-96004156D02*
X233932092Y-96004156D01*
X233932092Y-96004156D02*
X234918124Y-95018124D01*
X231949454Y-97765892D02*
X230021053Y-97765893D01*
X234200000Y-92400001D02*
X232844999Y-91045000D01*
X230021053Y-96565893D02*
X231452397Y-96565893D01*
X232844999Y-91045000D02*
X232032500Y-91045000D01*
X234200000Y-93818290D02*
X234200000Y-92400001D01*
X231452397Y-96565893D02*
X234200000Y-93818290D01*
X230021053Y-96965894D02*
X231618082Y-96965894D01*
X237528124Y-92408124D02*
X237556248Y-92380000D01*
X239142500Y-92380000D02*
X239207500Y-92315000D01*
X236101537Y-92482439D02*
X236101537Y-92261538D01*
X237556248Y-92380000D02*
X239142500Y-92380000D01*
X231618082Y-96965894D02*
X236101537Y-92482439D01*
X229012799Y-96209851D02*
X229012799Y-95112242D01*
X229100000Y-96297052D02*
X229012799Y-96209851D01*
X229100000Y-96500000D02*
X229100000Y-96297052D01*
X230021053Y-97365894D02*
X231783767Y-97365894D01*
X238104661Y-91045000D02*
X239207500Y-91045000D01*
X231783767Y-97365894D02*
X238104661Y-91045000D01*
X228612799Y-95112242D02*
X228612799Y-95801457D01*
X228612799Y-95801457D02*
X228402778Y-96011478D01*
X229890001Y-105580000D02*
X229890001Y-106262500D01*
X229890001Y-106262500D02*
X230420000Y-106792499D01*
X231710000Y-93760001D02*
X231124999Y-93175000D01*
X229932501Y-93175000D02*
X229500000Y-92742499D01*
X231124999Y-93175000D02*
X229932501Y-93175000D01*
X228856200Y-89800000D02*
X228642800Y-89586600D01*
X228642800Y-87587199D02*
X230629999Y-85600000D01*
X227600000Y-90043800D02*
X227195585Y-90043800D01*
X227195585Y-90043800D02*
X226850000Y-90389385D01*
X228769600Y-93808777D02*
X228769600Y-90000000D01*
X228769600Y-89886600D02*
X228856200Y-89800000D01*
X228212799Y-95112242D02*
X228212799Y-94365578D01*
X228212799Y-94365578D02*
X228769600Y-93808777D01*
X228769600Y-90000000D02*
X228769600Y-89886600D01*
X228642800Y-89586600D02*
X228642800Y-87587199D01*
X227812800Y-94265794D02*
X228300000Y-93778594D01*
X228300000Y-91400000D02*
X228000000Y-91100000D01*
X228300000Y-93778594D02*
X228300000Y-91400000D01*
X228090000Y-89690000D02*
X228090000Y-85600000D01*
X226622478Y-91100000D02*
X225902477Y-90379999D01*
X228300000Y-91400000D02*
X228300000Y-89900000D01*
X228300000Y-89900000D02*
X228090000Y-89690000D01*
X228000000Y-91100000D02*
X226622478Y-91100000D01*
X227812800Y-95112242D02*
X227812800Y-94265794D01*
X221625000Y-85245001D02*
X221600000Y-85270001D01*
X222720000Y-90370000D02*
X222600001Y-90370000D01*
X224670000Y-89562000D02*
X224670000Y-89489999D01*
X221372392Y-100951250D02*
X222573901Y-99749742D01*
X220611249Y-100951250D02*
X221372392Y-100951250D01*
X222720000Y-90370000D02*
X223862000Y-90370000D01*
X222600001Y-90370000D02*
X221600000Y-89369999D01*
X223862000Y-90370000D02*
X224670000Y-89562000D01*
X222573901Y-99749742D02*
X223175299Y-99749742D01*
X221600000Y-85270001D02*
X221600000Y-89370001D01*
D72*
X226860000Y-106569999D02*
X226860000Y-105795000D01*
D71*
X224058148Y-98945253D02*
X223968695Y-98945253D01*
X223968695Y-98945253D02*
X223964207Y-98949741D01*
D72*
X223162486Y-106896001D02*
X226533998Y-106896001D01*
X226533998Y-106896001D02*
X226860000Y-106569999D01*
D71*
X224066152Y-98937250D02*
X224058148Y-98945253D01*
X223964207Y-98949741D02*
X223175299Y-98949741D01*
D72*
X224855000Y-105800000D02*
X224860000Y-105795000D01*
D71*
X223763167Y-99349742D02*
X223175299Y-99349742D01*
X224013425Y-99600000D02*
X223763167Y-99349742D01*
D72*
X221690000Y-105800000D02*
X224855000Y-105800000D01*
D71*
X224340000Y-99600000D02*
X224013425Y-99600000D01*
X224612799Y-101987242D02*
X224612799Y-103377201D01*
X224612799Y-103377201D02*
X222897200Y-105092800D01*
X223840297Y-100149742D02*
X224081552Y-100390997D01*
X222918802Y-100149741D02*
X222896004Y-100172540D01*
X223175299Y-100149741D02*
X222918802Y-100149741D01*
X223175299Y-100149742D02*
X223840297Y-100149742D01*
X224212799Y-101987242D02*
X224212799Y-103193279D01*
X224212799Y-103193279D02*
X222666678Y-104739400D01*
X226230000Y-94070000D02*
X226230000Y-93529999D01*
X226230000Y-93529999D02*
X226590000Y-93169999D01*
X226230000Y-95095041D02*
X226212799Y-95112242D01*
X226230000Y-94070000D02*
X226230000Y-95095041D01*
X219820506Y-93112800D02*
X221838558Y-95130852D01*
X221838558Y-95130852D02*
X221838558Y-96042656D01*
X221838558Y-96042656D02*
X222345644Y-96549742D01*
X222345644Y-96549742D02*
X223175299Y-96549742D01*
X223839908Y-96965895D02*
X223146054Y-96965895D01*
X224041506Y-96764297D02*
X223839908Y-96965895D01*
D74*
X238412000Y-98640000D02*
X238461000Y-98689000D01*
X235269005Y-98903295D02*
X236005710Y-99640000D01*
X238461000Y-98689000D02*
X238461000Y-99468000D01*
X238461000Y-99468000D02*
X238289000Y-99640000D01*
X236005710Y-99640000D02*
X237435000Y-99640000D01*
X234999006Y-98903295D02*
X235269005Y-98903295D01*
X238289000Y-99640000D02*
X237435000Y-99640000D01*
X237435000Y-98640000D02*
X238412000Y-98640000D01*
X236458000Y-99140000D02*
X237435000Y-99140000D01*
X235225661Y-98140000D02*
X235890000Y-98140000D01*
X235890000Y-98572000D02*
X236458000Y-99140000D01*
X235890000Y-98140000D02*
X237435000Y-98140000D01*
X235890000Y-98140000D02*
X235890000Y-98572000D01*
X234999006Y-97913345D02*
X235225661Y-98140000D01*
D72*
X237435001Y-100140000D02*
X235715000Y-100140000D01*
X235715000Y-100140000D02*
X235663500Y-100191500D01*
X236384000Y-96142000D02*
X236384000Y-97065999D01*
X236458001Y-97140000D02*
X237435000Y-97140000D01*
X235663500Y-95421500D02*
X236384000Y-96142000D01*
X236384000Y-97065999D02*
X236458001Y-97140000D01*
D71*
X224635598Y-95089443D02*
X224635598Y-93650888D01*
X224612799Y-95112242D02*
X224635598Y-95089443D01*
X224235959Y-93251249D02*
X224161249Y-93251249D01*
X223460000Y-91200000D02*
X223480000Y-91180000D01*
X224635598Y-93650888D02*
X224235959Y-93251249D01*
X222750000Y-91200000D02*
X223460000Y-91200000D01*
X224161249Y-93251249D02*
X223830000Y-92920000D01*
X223811695Y-94381695D02*
X223811695Y-95111137D01*
X223811695Y-95111137D02*
X223812799Y-95112241D01*
X221940000Y-92452800D02*
X221940000Y-92510000D01*
X221940000Y-92510000D02*
X223811695Y-94381695D01*
X224235959Y-94265959D02*
X224235959Y-95089082D01*
X223168243Y-93198243D02*
X224235959Y-94265959D01*
X224235959Y-95089082D02*
X224212799Y-95112242D01*
X225012800Y-93497983D02*
X225012800Y-95112242D01*
X223645600Y-91895600D02*
X224992262Y-93242262D01*
X224992262Y-93242262D02*
X224992262Y-93477445D01*
X220479200Y-91897600D02*
X220940800Y-91897600D01*
X220940800Y-91897600D02*
X220942800Y-91895600D01*
X224992262Y-93477445D02*
X225012800Y-93497983D01*
X220942800Y-91895600D02*
X223645600Y-91895600D01*
X220516578Y-99440696D02*
X219978343Y-99978930D01*
X219978343Y-99978930D02*
X218841567Y-99978930D01*
X218841567Y-99978930D02*
X218473039Y-99610402D01*
X224377380Y-98408320D02*
X224598788Y-98408320D01*
X231000340Y-99573151D02*
X230823750Y-99749741D01*
X228590000Y-99963955D02*
X228590000Y-99751823D01*
X221870687Y-99352738D02*
X221870687Y-99394733D01*
X227412800Y-95112242D02*
X227412801Y-96365549D01*
X227412801Y-96355269D02*
X227630071Y-96572541D01*
X226993675Y-100741773D02*
X227205807Y-100529641D01*
X228590000Y-99539691D02*
X228590000Y-96820308D01*
X232034159Y-99610402D02*
X231996908Y-99573151D01*
X228590000Y-99539691D02*
X228620021Y-99539691D01*
X228339534Y-100529641D02*
X228590000Y-100279175D01*
X227417939Y-95117382D02*
X227417939Y-96572541D01*
X227012799Y-101987242D02*
X227012799Y-102840623D01*
X228620021Y-99963955D02*
X228590000Y-99963955D01*
X226993675Y-100529641D02*
X227205807Y-100529641D01*
X227630071Y-96572541D02*
X227417939Y-96572541D01*
X224598788Y-96857118D02*
X224598788Y-98196188D01*
X228590000Y-99751823D02*
X228590000Y-99539691D01*
X222673683Y-98549742D02*
X221870687Y-99352738D01*
X231996908Y-99573151D02*
X231000340Y-99573151D01*
X227412801Y-96365549D02*
X227205807Y-96572541D01*
X232155555Y-99610402D02*
X232933372Y-99610402D01*
X226993675Y-100741773D02*
X226993675Y-100529641D01*
X226781543Y-100529641D02*
X226993675Y-100529641D01*
X228832153Y-99751823D02*
X228590000Y-99751823D01*
X232155555Y-99610402D02*
X232034159Y-99610402D01*
X230048218Y-99751823D02*
X228832153Y-99751823D01*
X223175299Y-98549742D02*
X222673683Y-98549742D01*
X224386656Y-98408320D02*
X224598788Y-98196188D01*
X228342233Y-96572542D02*
X227630071Y-96572541D01*
X228590000Y-100279175D02*
X228590000Y-99963955D01*
X224377380Y-98408320D02*
X223877792Y-98408320D01*
X227205807Y-100529641D02*
X228339534Y-100529641D01*
X228832153Y-99751823D02*
X228620021Y-99963955D01*
X227417939Y-96572541D02*
X227205807Y-96572541D01*
X227012799Y-102840623D02*
X227290661Y-103118485D01*
X228620021Y-99539691D02*
X228832153Y-99751823D01*
X223736371Y-98549742D02*
X223175299Y-98549742D01*
X230050299Y-99749742D02*
X230048218Y-99751823D01*
X227205807Y-96572541D02*
X224883366Y-96572541D01*
X227412800Y-95112242D02*
X227412801Y-96355269D01*
X227412800Y-93731580D02*
X227630071Y-93514308D01*
X228590000Y-96820308D02*
X228342233Y-96572542D01*
X223877792Y-98408320D02*
X223736371Y-98549742D01*
X227290660Y-103103509D02*
X227290660Y-103189195D01*
X227012799Y-100760896D02*
X226993675Y-100741773D01*
X227412800Y-95112242D02*
X227417939Y-95117382D01*
X224883366Y-96572541D02*
X224598788Y-96857118D01*
X227412800Y-95112242D02*
X227412800Y-93731580D01*
X226778844Y-100526942D02*
X226781543Y-100529641D01*
X230823750Y-99749741D02*
X230050299Y-99749742D01*
X227012799Y-100760896D02*
X226781543Y-100529641D01*
X227012799Y-101987242D02*
X227012799Y-100760896D01*
X224598788Y-98196188D02*
X224598788Y-98408320D01*
X232500000Y-93989999D02*
X232500000Y-93400000D01*
X231710000Y-95176919D02*
X231710000Y-94779999D01*
X230594999Y-88505000D02*
X230055000Y-89044999D01*
X231165605Y-95721314D02*
X231710000Y-95176919D01*
D70*
X230021053Y-95765894D02*
X230023208Y-95763741D01*
D71*
X230078727Y-95721315D02*
X231165605Y-95721314D01*
X231512500Y-88505000D02*
X230594999Y-88505000D01*
X230050300Y-95749742D02*
X230078727Y-95721315D01*
X231710000Y-94779999D02*
X232500000Y-93989999D01*
X230167252Y-89487251D02*
X229890000Y-89209999D01*
X230167252Y-90144682D02*
X230167252Y-89487251D01*
X230831202Y-98742724D02*
X231094895Y-98479032D01*
X230624185Y-98949741D02*
X230831202Y-98742724D01*
X233625302Y-98267052D02*
X233979008Y-97913346D01*
X232655491Y-98474071D02*
X232857547Y-98272014D01*
X232862509Y-98267052D02*
X233625302Y-98267052D01*
X232650530Y-98479032D02*
X232650530Y-98479030D01*
X232857547Y-98272014D02*
X232862509Y-98267052D01*
X232650530Y-98479030D02*
X232655491Y-98474071D01*
X231094895Y-98479032D02*
X232650531Y-98479031D01*
X232650531Y-98479031D02*
X232650530Y-98479032D01*
X230050299Y-98949741D02*
X230624185Y-98949741D01*
X230770567Y-99303141D02*
X230770567Y-99303143D01*
X230770567Y-99303141D02*
X230977585Y-99096124D01*
X231241277Y-98832432D02*
X232796913Y-98832432D01*
X233008891Y-98620452D02*
X233696165Y-98620452D01*
X232796913Y-98832432D02*
X233003930Y-98625413D01*
X230050299Y-99349742D02*
X230723967Y-99349742D01*
X233003930Y-98625413D02*
X233008891Y-98620452D01*
X230977585Y-99096124D02*
X231241277Y-98832432D01*
X233696165Y-98620452D02*
X233979008Y-98903295D01*
X230723967Y-99349742D02*
X230770567Y-99303141D01*
D72*
X238478500Y-107461500D02*
X236358500Y-107461500D01*
D78*
X233767000Y-107551500D02*
X236014758Y-107551500D01*
X236106258Y-107551500D02*
X236196258Y-107461500D01*
D72*
X241458500Y-106951500D02*
X241458500Y-105451500D01*
D74*
X240208500Y-107211500D02*
X240783500Y-106636500D01*
X240783500Y-106636500D02*
X241458500Y-106636500D01*
D72*
X241458500Y-105451500D02*
X241168500Y-105161500D01*
D74*
X239828500Y-107211500D02*
X240208500Y-107211500D01*
D71*
X226212799Y-101987242D02*
X226212799Y-101280651D01*
X226212799Y-101280651D02*
X226398425Y-101095025D01*
X225012799Y-101402383D02*
X225012799Y-101987242D01*
X224680416Y-101070000D02*
X225012799Y-101402383D01*
X224510000Y-101070000D02*
X224680416Y-101070000D01*
X228700000Y-101000000D02*
X228428766Y-101000000D01*
X228428766Y-101000000D02*
X228212799Y-101215967D01*
X228212799Y-101215967D02*
X228212799Y-101987242D01*
X227412799Y-101987242D02*
X227412799Y-101261603D01*
X227412799Y-101261603D02*
X227568998Y-101105404D01*
X225625598Y-100945598D02*
X225625598Y-101085841D01*
X225812799Y-101273042D02*
X225812799Y-101987242D01*
X224620685Y-111139315D02*
X222260000Y-113500000D01*
X225510000Y-100830000D02*
X225625598Y-100945598D01*
X225625598Y-101085841D02*
X225812799Y-101273042D01*
X224620685Y-107501001D02*
X224620685Y-111139315D01*
D70*
X229400000Y-109000000D02*
X229900000Y-109500000D01*
X228612799Y-101987242D02*
X228620460Y-101994903D01*
X228620460Y-101994903D02*
X228620460Y-103179540D01*
X228189500Y-103610500D02*
X228091008Y-103610500D01*
X229900000Y-109500000D02*
X230960000Y-109500000D01*
X228010500Y-106110500D02*
X229400000Y-107500000D01*
X229400000Y-107500000D02*
X229400000Y-109000000D01*
X228620460Y-103179540D02*
X228189500Y-103610500D01*
X228010500Y-103691008D02*
X228010500Y-106110500D01*
X228091008Y-103610500D02*
X228010500Y-103691008D01*
X230960000Y-109500000D02*
X234960000Y-113500000D01*
D71*
X228073975Y-102897702D02*
X227812800Y-102636527D01*
X227812800Y-102636527D02*
X227812800Y-101987242D01*
X228075960Y-102897702D02*
X228073975Y-102897702D01*
X225412798Y-102664319D02*
X225186783Y-102890334D01*
X225412798Y-101987242D02*
X225412798Y-102664319D01*
D70*
X215890001Y-89500000D02*
X214687500Y-89500000D01*
D71*
X217283599Y-89873600D02*
X216909999Y-89500000D01*
X226181816Y-96066340D02*
X226068536Y-96066340D01*
X225812799Y-95810603D02*
X225812799Y-95112242D01*
X217373002Y-89873600D02*
X217283599Y-89873600D01*
X226068536Y-96066340D02*
X225812799Y-95810603D01*
X227012799Y-95112242D02*
X227035598Y-95089442D01*
D74*
X194240000Y-88750000D02*
X194240000Y-91600000D01*
X191700000Y-88750000D02*
X191700000Y-92200000D01*
X196780000Y-88750000D02*
X196780000Y-92800000D01*
X199320000Y-88750000D02*
X199320000Y-93400000D01*
X201860000Y-88750000D02*
X201860000Y-94000000D01*
X204400000Y-88750000D02*
X204400000Y-94600000D01*
X206940000Y-88750000D02*
X206940000Y-95200000D01*
D71*
X223168243Y-92452799D02*
X223168243Y-93198243D01*
D72*
X220520000Y-94740000D02*
X219570000Y-95010000D01*
D71*
X219300000Y-91250000D02*
X222750000Y-91200000D01*
X218600000Y-92450000D02*
X219150000Y-91900000D01*
X219150000Y-91900000D02*
X220479200Y-91897600D01*
X219000000Y-93650000D02*
X219820000Y-93110000D01*
D72*
X189120000Y-85900000D02*
X191700000Y-87600000D01*
X192520000Y-85900000D02*
X194240000Y-87600000D01*
X195920000Y-85900000D02*
X196780000Y-87600000D01*
X199320000Y-85900000D02*
X199320000Y-87600000D01*
X202720000Y-85900000D02*
X201860000Y-87600000D01*
X206120000Y-85900000D02*
X204400000Y-87600000D01*
X209520000Y-85900000D02*
X206940000Y-87600000D01*
D74*
X196780000Y-112750000D02*
X196780000Y-104450000D01*
D71*
X222666678Y-104739400D02*
X218900000Y-104740000D01*
X218900000Y-104740000D02*
X218300000Y-104510000D01*
X218300000Y-104510000D02*
X217000000Y-104450000D01*
D74*
X199320000Y-112750000D02*
X199320000Y-105150000D01*
D71*
X222897200Y-105092800D02*
X222600000Y-105200000D01*
X222600000Y-105200000D02*
X216400000Y-105200000D01*
X216400000Y-105200000D02*
X216000000Y-105150000D01*
D74*
X201860000Y-112750000D02*
X201860000Y-108500000D01*
D79*
X204400000Y-115000000D02*
X204400000Y-112750000D01*
X206940000Y-115000000D02*
X206940000Y-112750000D01*
X203100000Y-115000000D02*
X203100000Y-114925000D01*
X205670000Y-115000000D02*
X205670000Y-115020000D01*
X210560000Y-115700000D02*
X211700000Y-115700000D01*
D73*
X203100000Y-116475000D02*
X202000000Y-116600000D01*
X178080000Y-115600000D02*
X179100000Y-115600000D01*
X180350000Y-115600000D02*
X179100000Y-115600000D01*
X177120000Y-115600000D02*
X176200000Y-116400000D01*
X182250000Y-115600000D02*
X183400000Y-116500000D01*
D78*
X209480000Y-88750000D02*
X209480000Y-90850000D01*
X184100000Y-88750000D02*
X184100000Y-90850000D01*
X179020000Y-88750000D02*
X179020000Y-90850000D01*
X179020000Y-112750000D02*
X179020000Y-110650000D01*
X181560000Y-112750000D02*
X181560000Y-110650000D01*
X184100000Y-112750000D02*
X184100000Y-110650000D01*
X191700000Y-112750000D02*
X191700000Y-110650000D01*
X194240000Y-112750000D02*
X194240000Y-110650000D01*
X209480000Y-112750000D02*
X209480000Y-110650000D01*
D79*
X203100000Y-115000000D02*
X206940000Y-115000000D01*
D80*
X181560000Y-88750000D02*
X181560000Y-86400000D01*
X181560000Y-86400000D02*
X180680000Y-86400000D01*
X179720000Y-86400000D02*
X176400000Y-86400000D01*
X176400000Y-86400000D02*
X174200000Y-88600000D01*
X174200000Y-88600000D02*
X169200000Y-88610000D01*
X177112500Y-85200000D02*
X177112500Y-86400000D01*
D72*
X220392623Y-106000000D02*
X220592623Y-105800000D01*
X220592623Y-105800000D02*
X221690000Y-105800000D01*
X219300000Y-105900000D02*
X219300000Y-106500000D01*
X219300000Y-106500000D02*
X219696001Y-106896001D01*
X219696001Y-106896001D02*
X223162486Y-106896001D01*
D78*
X208438000Y-115700000D02*
X208440000Y-116550000D01*
D71*
X223175299Y-100949742D02*
X222400000Y-100949742D01*
X222400000Y-100949742D02*
X221100000Y-102249742D01*
X221100000Y-102249742D02*
X221100000Y-103100000D01*
G04 #@! TA.AperFunction,Conductor*
G36*
X243405399Y-101711801D02*
G01*
X243411482Y-101712400D01*
X243417547Y-101713299D01*
X243466805Y-101723097D01*
X243478520Y-101726650D01*
X243489687Y-101731275D01*
X243500488Y-101737049D01*
X243534469Y-101759755D01*
X243543939Y-101767527D01*
X243552471Y-101776059D01*
X243560244Y-101785530D01*
X243582949Y-101819510D01*
X243588725Y-101830318D01*
X243593345Y-101841473D01*
X243596901Y-101853193D01*
X243606700Y-101902449D01*
X243607600Y-101908516D01*
X243608199Y-101914596D01*
X243608500Y-101920724D01*
X243608500Y-102933636D01*
X243603742Y-102957553D01*
X243601167Y-102963772D01*
X243567341Y-102997595D01*
X243519506Y-102997594D01*
X243519503Y-102997592D01*
X243485684Y-102963772D01*
X243450335Y-102878432D01*
X243450331Y-102878424D01*
X243373726Y-102763776D01*
X243276223Y-102666273D01*
X243276222Y-102666272D01*
X243161578Y-102589670D01*
X243161575Y-102589669D01*
X243034178Y-102536899D01*
X242898944Y-102510000D01*
X242780000Y-102510000D01*
X242780000Y-102847500D01*
X242761694Y-102891694D01*
X242717500Y-102910000D01*
X242342500Y-102910000D01*
X242298306Y-102891694D01*
X242280000Y-102847500D01*
X242280000Y-102510000D01*
X242161056Y-102510000D01*
X242025820Y-102536899D01*
X241898423Y-102589669D01*
X241898420Y-102589670D01*
X241783776Y-102666272D01*
X241686272Y-102763776D01*
X241609668Y-102878423D01*
X241609668Y-102878424D01*
X241609662Y-102878435D01*
X241575877Y-102959997D01*
X241575878Y-102959999D01*
X241575879Y-102960000D01*
X241919674Y-102960000D01*
X241963868Y-102978306D01*
X241982174Y-103022500D01*
X241973800Y-103053750D01*
X241950446Y-103094198D01*
X241950442Y-103094207D01*
X241930001Y-103170497D01*
X241930000Y-103170505D01*
X241930000Y-103249494D01*
X241930001Y-103249502D01*
X241950442Y-103325792D01*
X241950446Y-103325801D01*
X241973800Y-103366250D01*
X241980044Y-103413676D01*
X241950924Y-103451626D01*
X241919674Y-103460000D01*
X241575877Y-103460000D01*
X241604171Y-103528306D01*
X241609664Y-103541567D01*
X241609666Y-103541572D01*
X241609668Y-103541574D01*
X241609668Y-103541575D01*
X241686272Y-103656222D01*
X241783776Y-103753726D01*
X241898420Y-103830328D01*
X241898422Y-103830328D01*
X241898424Y-103830330D01*
X242025819Y-103883099D01*
X242155017Y-103908798D01*
X242158979Y-103910000D01*
X242161056Y-103910000D01*
X242280000Y-103910000D01*
X242280000Y-103572500D01*
X242298306Y-103528306D01*
X242342500Y-103510000D01*
X242717500Y-103510000D01*
X242761694Y-103528306D01*
X242780000Y-103572500D01*
X242780000Y-103910000D01*
X242898944Y-103910000D01*
X242910617Y-103910000D01*
X242917538Y-103906300D01*
X243034180Y-103883099D01*
X243161575Y-103830330D01*
X243276223Y-103753726D01*
X243373726Y-103656223D01*
X243450331Y-103541575D01*
X243450332Y-103541572D01*
X243450336Y-103541563D01*
X243450679Y-103540862D01*
X243451170Y-103539547D01*
X243483500Y-103461496D01*
X243497046Y-103441224D01*
X243501811Y-103436459D01*
X243513292Y-103431705D01*
X243517324Y-103427674D01*
X243523027Y-103427674D01*
X243546007Y-103418159D01*
X243590197Y-103436468D01*
X243590199Y-103436470D01*
X243608500Y-103480659D01*
X243608500Y-106052274D01*
X243608199Y-106058402D01*
X243607600Y-106064482D01*
X243606700Y-106070549D01*
X243596901Y-106119805D01*
X243593345Y-106131525D01*
X243588725Y-106142680D01*
X243582949Y-106153488D01*
X243560244Y-106187468D01*
X243552471Y-106196939D01*
X243543939Y-106205471D01*
X243534468Y-106213244D01*
X243500488Y-106235949D01*
X243489685Y-106241724D01*
X243478530Y-106246345D01*
X243466803Y-106249902D01*
X243428283Y-106257564D01*
X243428282Y-106257564D01*
X243417543Y-106259700D01*
X243411480Y-106260600D01*
X243408440Y-106260899D01*
X243405399Y-106261199D01*
X243399272Y-106261500D01*
X241858931Y-106261500D01*
X241835009Y-106256740D01*
X241829628Y-106254511D01*
X241826217Y-106253098D01*
X241826216Y-106253097D01*
X241792399Y-106219276D01*
X241792396Y-106219270D01*
X241792396Y-106219268D01*
X241788758Y-106210486D01*
X241784000Y-106186568D01*
X241784000Y-105408647D01*
X241783999Y-105408644D01*
X241779991Y-105393687D01*
X241779991Y-105393681D01*
X241761821Y-105325868D01*
X241761814Y-105325852D01*
X241761812Y-105325849D01*
X241718971Y-105251648D01*
X241718969Y-105251644D01*
X241718967Y-105251641D01*
X241718960Y-105251632D01*
X241666093Y-105198765D01*
X241652549Y-105178494D01*
X241643756Y-105157267D01*
X241639000Y-105133352D01*
X241639000Y-104937193D01*
X241639000Y-104937190D01*
X241638999Y-104937177D01*
X241632568Y-104888327D01*
X241583128Y-104782303D01*
X241582620Y-104781150D01*
X241498907Y-104697436D01*
X241391671Y-104647430D01*
X241342828Y-104641000D01*
X241342822Y-104641000D01*
X241342816Y-104641000D01*
X240994184Y-104641000D01*
X240994177Y-104641000D01*
X240994170Y-104641000D01*
X240945327Y-104647430D01*
X240838091Y-104697436D01*
X240838091Y-104697437D01*
X240754437Y-104781090D01*
X240720121Y-104854680D01*
X240705704Y-104874344D01*
X240699865Y-104879695D01*
X240654915Y-104896058D01*
X240613444Y-104877811D01*
X240609372Y-104873739D01*
X240596922Y-104855959D01*
X240562147Y-104781384D01*
X240478614Y-104697851D01*
X240398500Y-104660493D01*
X240398500Y-105086568D01*
X240393740Y-105110492D01*
X240390098Y-105119282D01*
X240356284Y-105153097D01*
X240350257Y-105155594D01*
X240347492Y-105156739D01*
X240323569Y-105161500D01*
X240148500Y-105161500D01*
X240148500Y-105336568D01*
X240143740Y-105360492D01*
X240140098Y-105369282D01*
X240106284Y-105403097D01*
X240100257Y-105405594D01*
X240097492Y-105406739D01*
X240073569Y-105411500D01*
X239681890Y-105411500D01*
X239684922Y-105434540D01*
X239684927Y-105434551D01*
X239734852Y-105541615D01*
X239818384Y-105625147D01*
X239818385Y-105625147D01*
X239818386Y-105625148D01*
X239925455Y-105675076D01*
X239925456Y-105675076D01*
X239925458Y-105675077D01*
X239930051Y-105676416D01*
X239929782Y-105677336D01*
X239944768Y-105682415D01*
X239953011Y-105687174D01*
X239982130Y-105725111D01*
X239982852Y-105727803D01*
X239976619Y-105775230D01*
X239976612Y-105775243D01*
X239947114Y-105826335D01*
X239946316Y-105827619D01*
X239946107Y-105828081D01*
X239913367Y-105950269D01*
X239913365Y-105950279D01*
X239913365Y-106076804D01*
X239925265Y-106121212D01*
X239925266Y-106121215D01*
X239927194Y-106128411D01*
X239927996Y-106140664D01*
X239928234Y-106140633D01*
X239928713Y-106144271D01*
X239928472Y-106147937D01*
X239928788Y-106152748D01*
X239928234Y-106156954D01*
X239927885Y-106156908D01*
X239927120Y-106168602D01*
X239926298Y-106171667D01*
X239926297Y-106171672D01*
X239926296Y-106171676D01*
X239925239Y-106175624D01*
X239924010Y-106175294D01*
X239908709Y-106206317D01*
X239880623Y-106234403D01*
X239860348Y-106247951D01*
X239839126Y-106256742D01*
X239815208Y-106261500D01*
X239358500Y-106261500D01*
X239358500Y-106444852D01*
X239353740Y-106468776D01*
X239350098Y-106477566D01*
X239316282Y-106511382D01*
X239311525Y-106513353D01*
X239275409Y-106516912D01*
X239248201Y-106511500D01*
X239248198Y-106511500D01*
X238628500Y-106511500D01*
X238628500Y-106786568D01*
X238623740Y-106810492D01*
X238620098Y-106819282D01*
X238586284Y-106853097D01*
X238580257Y-106855594D01*
X238577492Y-106856739D01*
X238553569Y-106861500D01*
X238403431Y-106861500D01*
X238379509Y-106856740D01*
X238374128Y-106854511D01*
X238370717Y-106853098D01*
X238336899Y-106819276D01*
X238333258Y-106810486D01*
X238328500Y-106786568D01*
X238328500Y-106511500D01*
X237708802Y-106511500D01*
X237708799Y-106511500D01*
X237650467Y-106523102D01*
X237650457Y-106523107D01*
X237641056Y-106529389D01*
X237618525Y-106538721D01*
X237609454Y-106540525D01*
X237562538Y-106531191D01*
X237537452Y-106497359D01*
X237536188Y-106493190D01*
X237533499Y-106475056D01*
X237533499Y-106428053D01*
X237533311Y-106426528D01*
X237533069Y-106425340D01*
X237518506Y-106333385D01*
X237518312Y-106330925D01*
X237517737Y-106328530D01*
X237517737Y-106328529D01*
X237456617Y-106208576D01*
X237419367Y-106171326D01*
X237412908Y-106155732D01*
X237402890Y-106142143D01*
X237404064Y-106134382D01*
X237401061Y-106127132D01*
X237407520Y-106111537D01*
X237410046Y-106094845D01*
X237416229Y-106090512D01*
X237419367Y-106082938D01*
X237448550Y-106066461D01*
X237453155Y-106065321D01*
X237453437Y-106065323D01*
X237453949Y-106065325D01*
X237533388Y-106049687D01*
X237554623Y-106040891D01*
X237575664Y-106032378D01*
X237575666Y-106032376D01*
X237575675Y-106032373D01*
X237575703Y-106032360D01*
X237575960Y-106032227D01*
X237576718Y-106031842D01*
X237577198Y-106031566D01*
X237577298Y-106031498D01*
X237577303Y-106031497D01*
X237579166Y-106030253D01*
X237580887Y-106029146D01*
X237634595Y-105995930D01*
X237634597Y-105995926D01*
X237637184Y-105993513D01*
X237638749Y-105991684D01*
X237642447Y-105988039D01*
X237644257Y-105986832D01*
X237684019Y-105947068D01*
X237684149Y-105946941D01*
X237684351Y-105946858D01*
X237696769Y-105937330D01*
X237730000Y-105918146D01*
X237752355Y-105903208D01*
X237765298Y-105893276D01*
X237777127Y-105883475D01*
X237830051Y-105808887D01*
X237845452Y-105771704D01*
X237879276Y-105737881D01*
X237927111Y-105737880D01*
X237947388Y-105751429D01*
X237955576Y-105759617D01*
X238075530Y-105820737D01*
X238175049Y-105836499D01*
X238683500Y-105836499D01*
X238691944Y-105836499D01*
X238691947Y-105836499D01*
X238691950Y-105836498D01*
X238786613Y-105821505D01*
X238789073Y-105821312D01*
X238791466Y-105820737D01*
X238791469Y-105820737D01*
X238791470Y-105820737D01*
X238911423Y-105759617D01*
X239006617Y-105664423D01*
X239067737Y-105544470D01*
X239067739Y-105544463D01*
X239083498Y-105444964D01*
X239083500Y-105444948D01*
X239083500Y-105411500D01*
X238683500Y-105411500D01*
X238683500Y-105836499D01*
X238175049Y-105836499D01*
X238183500Y-105836498D01*
X238183500Y-104911500D01*
X238683500Y-104911500D01*
X239083338Y-104911500D01*
X239083499Y-104911500D01*
X239083499Y-104911499D01*
X239681888Y-104911499D01*
X239681889Y-104911500D01*
X239898500Y-104911500D01*
X239898500Y-104660493D01*
X239816858Y-104698563D01*
X239813543Y-104702694D01*
X239739694Y-104776543D01*
X239735563Y-104779858D01*
X239684923Y-104888454D01*
X239684923Y-104888455D01*
X239684922Y-104888459D01*
X239683906Y-104896177D01*
X239681888Y-104911499D01*
X239083499Y-104911499D01*
X239083499Y-104878053D01*
X239083498Y-104878049D01*
X239068506Y-104783385D01*
X239068312Y-104780925D01*
X239067737Y-104778530D01*
X239067737Y-104778529D01*
X239006617Y-104658576D01*
X238911423Y-104563382D01*
X238911422Y-104563381D01*
X238872447Y-104543522D01*
X238791470Y-104502262D01*
X238791465Y-104502260D01*
X238791462Y-104502259D01*
X238691977Y-104486502D01*
X238691960Y-104486500D01*
X238691949Y-104486500D01*
X238683500Y-104486500D01*
X238683500Y-104911500D01*
X238183500Y-104911500D01*
X238183500Y-104486499D01*
X238183500Y-104486498D01*
X238175062Y-104486499D01*
X238080387Y-104501493D01*
X238077924Y-104501686D01*
X238075530Y-104502261D01*
X237954875Y-104563739D01*
X237907187Y-104567492D01*
X237870812Y-104536426D01*
X237864000Y-104508051D01*
X237864000Y-103984000D01*
X237863699Y-103980945D01*
X237864906Y-103980826D01*
X237873471Y-103937775D01*
X237913246Y-103911201D01*
X237925437Y-103910000D01*
X238100000Y-103910000D01*
X238100000Y-103572500D01*
X238118306Y-103528306D01*
X238162500Y-103510000D01*
X238537500Y-103510000D01*
X238581694Y-103528306D01*
X238600000Y-103572500D01*
X238600000Y-103910000D01*
X238968944Y-103910000D01*
X238980617Y-103910000D01*
X238987538Y-103906300D01*
X239104180Y-103883099D01*
X239231575Y-103830330D01*
X239346223Y-103753726D01*
X239443726Y-103656223D01*
X239520331Y-103541575D01*
X239520335Y-103541567D01*
X239554121Y-103460000D01*
X239210326Y-103460000D01*
X239166132Y-103441694D01*
X239147826Y-103397500D01*
X239156200Y-103366250D01*
X239179553Y-103325801D01*
X239179552Y-103325801D01*
X239179556Y-103325796D01*
X239200000Y-103249496D01*
X239200000Y-103170504D01*
X239179556Y-103094204D01*
X239156200Y-103053750D01*
X239149956Y-103006324D01*
X239179076Y-102968374D01*
X239210326Y-102960000D01*
X239554121Y-102960000D01*
X239554121Y-102959999D01*
X239554120Y-102959996D01*
X239520336Y-102878435D01*
X239520335Y-102878432D01*
X239520331Y-102878424D01*
X239443726Y-102763776D01*
X239346223Y-102666273D01*
X239346222Y-102666272D01*
X239231578Y-102589670D01*
X239231575Y-102589669D01*
X239104178Y-102536899D01*
X238968944Y-102510000D01*
X238434931Y-102510000D01*
X238411009Y-102505240D01*
X238405628Y-102503011D01*
X238402217Y-102501598D01*
X238368399Y-102467776D01*
X238368396Y-102467770D01*
X238368396Y-102467768D01*
X238364758Y-102458986D01*
X238360000Y-102435068D01*
X238360000Y-102242856D01*
X238364754Y-102218947D01*
X238367331Y-102212725D01*
X238401150Y-102178900D01*
X238448983Y-102178895D01*
X238455214Y-102181475D01*
X238475481Y-102195018D01*
X238524173Y-102243710D01*
X238524177Y-102243713D01*
X238524179Y-102243715D01*
X238656322Y-102320008D01*
X238803707Y-102359500D01*
X238803708Y-102359500D01*
X238956292Y-102359500D01*
X238956293Y-102359500D01*
X239103678Y-102320008D01*
X239235821Y-102243715D01*
X239343715Y-102135821D01*
X239420008Y-102003678D01*
X239459500Y-101856293D01*
X239459500Y-101786431D01*
X239464258Y-101762513D01*
X239465401Y-101759755D01*
X239467899Y-101753722D01*
X239501722Y-101719899D01*
X239510513Y-101716257D01*
X239534431Y-101711500D01*
X243399274Y-101711500D01*
X243405399Y-101711801D01*
G37*
G04 #@! TD.AperFunction*
G04 #@! TA.AperFunction,Conductor*
G36*
X237121443Y-105865227D02*
G01*
X237131144Y-105864363D01*
X237142709Y-105874036D01*
X237156639Y-105879806D01*
X237165368Y-105892987D01*
X237167837Y-105895052D01*
X237169245Y-105897747D01*
X237177397Y-105917892D01*
X237192933Y-105943074D01*
X237193967Y-105945052D01*
X237195906Y-105966824D01*
X237199392Y-105988407D01*
X237198001Y-105990333D01*
X237198212Y-105992699D01*
X237184188Y-106009466D01*
X237171392Y-106027191D01*
X237169047Y-106027569D01*
X237167523Y-106029392D01*
X237138575Y-106036500D01*
X237108500Y-106036500D01*
X237108500Y-106611568D01*
X237103740Y-106635492D01*
X237100098Y-106644282D01*
X237066284Y-106678097D01*
X237060257Y-106680594D01*
X237057492Y-106681739D01*
X237033569Y-106686500D01*
X236683431Y-106686500D01*
X236659509Y-106681740D01*
X236654128Y-106679511D01*
X236650717Y-106678098D01*
X236616899Y-106644276D01*
X236613258Y-106635486D01*
X236608500Y-106611568D01*
X236608500Y-106036500D01*
X236608499Y-106036499D01*
X236597013Y-106031742D01*
X236597503Y-106030558D01*
X236567650Y-106018193D01*
X236549344Y-105973999D01*
X236560871Y-105937833D01*
X236579859Y-105911073D01*
X236584412Y-105900082D01*
X236618237Y-105866257D01*
X236642154Y-105861500D01*
X237112445Y-105861500D01*
X237121443Y-105865227D01*
G37*
G04 #@! TD.AperFunction*
G04 #@! TA.AperFunction,Conductor*
G36*
X176207589Y-84618306D02*
G01*
X176225895Y-84662500D01*
X176222723Y-84682159D01*
X176184562Y-84797319D01*
X176174500Y-84895818D01*
X176174500Y-85504178D01*
X176177256Y-85531147D01*
X176163538Y-85576973D01*
X176121433Y-85599676D01*
X176115080Y-85600000D01*
X175699999Y-85600000D01*
X173718686Y-87878511D01*
X173675873Y-87899848D01*
X173671523Y-87900000D01*
X170662500Y-87900000D01*
X170618306Y-87881694D01*
X170600000Y-87837500D01*
X170600000Y-87400000D01*
X170150220Y-87400000D01*
X170113485Y-87388064D01*
X169999536Y-87305276D01*
X169785592Y-87196265D01*
X169785590Y-87196264D01*
X169557220Y-87122062D01*
X169320072Y-87084501D01*
X169320060Y-87084500D01*
X169320059Y-87084500D01*
X169079941Y-87084500D01*
X169079939Y-87084500D01*
X169079927Y-87084501D01*
X168842780Y-87122062D01*
X168842779Y-87122062D01*
X168614409Y-87196264D01*
X168614407Y-87196265D01*
X168400463Y-87305276D01*
X168206196Y-87446420D01*
X168036420Y-87616196D01*
X167895276Y-87810463D01*
X167786265Y-88024407D01*
X167786264Y-88024409D01*
X167712062Y-88252779D01*
X167712062Y-88252780D01*
X167674501Y-88489927D01*
X167674500Y-88489943D01*
X167674500Y-88730056D01*
X167674501Y-88730072D01*
X167712062Y-88967219D01*
X167712062Y-88967220D01*
X167786264Y-89195590D01*
X167786265Y-89195592D01*
X167839464Y-89300000D01*
X167895276Y-89409536D01*
X168036414Y-89603796D01*
X168036417Y-89603799D01*
X168036420Y-89603803D01*
X168206196Y-89773579D01*
X168206199Y-89773581D01*
X168206204Y-89773586D01*
X168400464Y-89914724D01*
X168614411Y-90023736D01*
X168842778Y-90097937D01*
X168942735Y-90113768D01*
X169079927Y-90135498D01*
X169079933Y-90135498D01*
X169079941Y-90135500D01*
X169079943Y-90135500D01*
X169320057Y-90135500D01*
X169320059Y-90135500D01*
X169557222Y-90097937D01*
X169785589Y-90023736D01*
X169999536Y-89914724D01*
X170141011Y-89811935D01*
X170177748Y-89800000D01*
X170600000Y-89800000D01*
X170600000Y-89362500D01*
X170618306Y-89318306D01*
X170662500Y-89300000D01*
X174700000Y-89300000D01*
X176881694Y-87118306D01*
X176925888Y-87100000D01*
X180279048Y-87100000D01*
X180323242Y-87118306D01*
X180341548Y-87162500D01*
X180337607Y-87184342D01*
X180315909Y-87242515D01*
X180309500Y-87302119D01*
X180309500Y-90197864D01*
X180309501Y-90197881D01*
X180315909Y-90257486D01*
X180366203Y-90392331D01*
X180366206Y-90392336D01*
X180452451Y-90507543D01*
X180452456Y-90507548D01*
X180567663Y-90593793D01*
X180567668Y-90593796D01*
X180702514Y-90644090D01*
X180702515Y-90644090D01*
X180702517Y-90644091D01*
X180762127Y-90650500D01*
X182357872Y-90650499D01*
X182417483Y-90644091D01*
X182552331Y-90593796D01*
X182552336Y-90593793D01*
X182667543Y-90507548D01*
X182667542Y-90507548D01*
X182667546Y-90507546D01*
X182699439Y-90464943D01*
X182753793Y-90392336D01*
X182753796Y-90392331D01*
X182804090Y-90257486D01*
X182804090Y-90257485D01*
X182804091Y-90257483D01*
X182810500Y-90197873D01*
X182810499Y-87302128D01*
X182804091Y-87242517D01*
X182790265Y-87205448D01*
X182753796Y-87107668D01*
X182753793Y-87107663D01*
X182667548Y-86992456D01*
X182667543Y-86992451D01*
X182552336Y-86906206D01*
X182552331Y-86906203D01*
X182417485Y-86855909D01*
X182417487Y-86855909D01*
X182356209Y-86849321D01*
X182356327Y-86848221D01*
X182315994Y-86828912D01*
X182300000Y-86787158D01*
X182300000Y-85600000D01*
X179684417Y-85600000D01*
X179640223Y-85581694D01*
X179621917Y-85537500D01*
X179622241Y-85531147D01*
X179624999Y-85504147D01*
X179625000Y-85504141D01*
X179625000Y-85450000D01*
X178750000Y-85450000D01*
X178705806Y-85431694D01*
X178687500Y-85387500D01*
X178687500Y-85012500D01*
X178705806Y-84968306D01*
X178750000Y-84950000D01*
X179624999Y-84950000D01*
X179624999Y-84895860D01*
X179624998Y-84895848D01*
X179614944Y-84797425D01*
X179614943Y-84797418D01*
X179576750Y-84682159D01*
X179580226Y-84634450D01*
X179616419Y-84603172D01*
X179636078Y-84600000D01*
X188859599Y-84600000D01*
X188903793Y-84618306D01*
X188922099Y-84662500D01*
X188903793Y-84706694D01*
X188869376Y-84724230D01*
X188838887Y-84729059D01*
X188838878Y-84729061D01*
X188659169Y-84787452D01*
X188659161Y-84787456D01*
X188490798Y-84873241D01*
X188337927Y-84984309D01*
X188337919Y-84984316D01*
X188204316Y-85117919D01*
X188204309Y-85117927D01*
X188093241Y-85270798D01*
X188007456Y-85439161D01*
X188007452Y-85439169D01*
X187949061Y-85618878D01*
X187949059Y-85618887D01*
X187919501Y-85805505D01*
X187919500Y-85805521D01*
X187919500Y-85994478D01*
X187919501Y-85994494D01*
X187949059Y-86181112D01*
X187949061Y-86181121D01*
X188007452Y-86360830D01*
X188007456Y-86360838D01*
X188093241Y-86529201D01*
X188204309Y-86682072D01*
X188204316Y-86682080D01*
X188337919Y-86815683D01*
X188337927Y-86815690D01*
X188490801Y-86926760D01*
X188659168Y-87012547D01*
X188838882Y-87070940D01*
X188985315Y-87094132D01*
X189025505Y-87100498D01*
X189025511Y-87100498D01*
X189025519Y-87100500D01*
X189025521Y-87100500D01*
X189214479Y-87100500D01*
X189214481Y-87100500D01*
X189401118Y-87070940D01*
X189580832Y-87012547D01*
X189749199Y-86926760D01*
X189874697Y-86835579D01*
X189921208Y-86824412D01*
X189945820Y-86833954D01*
X190055474Y-86906206D01*
X190721388Y-87344986D01*
X190748219Y-87384587D01*
X190749500Y-87397174D01*
X190749500Y-90169748D01*
X190761132Y-90228230D01*
X190761133Y-90228232D01*
X190805447Y-90294552D01*
X190871767Y-90338866D01*
X190871769Y-90338867D01*
X190930252Y-90350500D01*
X191337000Y-90350500D01*
X191381194Y-90368806D01*
X191399500Y-90413000D01*
X191399500Y-91795081D01*
X191381194Y-91839275D01*
X191315508Y-91904960D01*
X191315505Y-91904964D01*
X191252244Y-92014534D01*
X191252243Y-92014537D01*
X191219501Y-92136734D01*
X191219500Y-92136742D01*
X191219500Y-92263257D01*
X191219501Y-92263265D01*
X191252243Y-92385462D01*
X191252244Y-92385465D01*
X191315505Y-92495035D01*
X191315508Y-92495039D01*
X191404960Y-92584491D01*
X191404964Y-92584494D01*
X191404966Y-92584496D01*
X191456999Y-92614537D01*
X191514534Y-92647755D01*
X191514537Y-92647756D01*
X191589319Y-92667793D01*
X191636741Y-92680500D01*
X191636742Y-92680500D01*
X191763258Y-92680500D01*
X191763259Y-92680500D01*
X191885466Y-92647755D01*
X191995034Y-92584496D01*
X192084496Y-92495034D01*
X192147755Y-92385466D01*
X192180500Y-92263259D01*
X192180500Y-92136741D01*
X192156657Y-92047756D01*
X192147756Y-92014537D01*
X192147755Y-92014534D01*
X192084496Y-91904966D01*
X192084494Y-91904964D01*
X192084491Y-91904960D01*
X192018806Y-91839275D01*
X192000500Y-91795081D01*
X192000500Y-90413000D01*
X192018806Y-90368806D01*
X192063000Y-90350500D01*
X192469748Y-90350500D01*
X192528231Y-90338867D01*
X192594552Y-90294552D01*
X192638867Y-90228231D01*
X192650500Y-90169748D01*
X192650500Y-87330252D01*
X192638867Y-87271769D01*
X192619319Y-87242513D01*
X192594551Y-87205446D01*
X192593415Y-87204310D01*
X192592800Y-87202825D01*
X192591132Y-87200329D01*
X192591628Y-87199997D01*
X192575109Y-87160116D01*
X192593415Y-87115922D01*
X192627830Y-87098385D01*
X192801118Y-87070940D01*
X192980832Y-87012547D01*
X193073752Y-86965201D01*
X193121437Y-86961449D01*
X193146059Y-86976438D01*
X193162266Y-86992456D01*
X193321600Y-87149938D01*
X193321602Y-87149939D01*
X193340166Y-87194025D01*
X193329634Y-87229114D01*
X193301133Y-87271767D01*
X193301132Y-87271769D01*
X193289500Y-87330251D01*
X193289500Y-90169748D01*
X193301132Y-90228230D01*
X193301133Y-90228232D01*
X193345447Y-90294552D01*
X193411767Y-90338866D01*
X193411769Y-90338867D01*
X193470252Y-90350500D01*
X193877000Y-90350500D01*
X193921194Y-90368806D01*
X193939500Y-90413000D01*
X193939500Y-91195081D01*
X193921194Y-91239275D01*
X193855508Y-91304960D01*
X193855505Y-91304964D01*
X193792244Y-91414534D01*
X193792243Y-91414537D01*
X193759501Y-91536734D01*
X193759500Y-91536742D01*
X193759500Y-91663257D01*
X193759501Y-91663265D01*
X193792243Y-91785462D01*
X193792244Y-91785465D01*
X193855505Y-91895035D01*
X193855508Y-91895039D01*
X193944960Y-91984491D01*
X193944964Y-91984494D01*
X193944966Y-91984496D01*
X193996999Y-92014537D01*
X194054534Y-92047755D01*
X194054537Y-92047756D01*
X194129319Y-92067793D01*
X194176741Y-92080500D01*
X194176742Y-92080500D01*
X194303258Y-92080500D01*
X194303259Y-92080500D01*
X194425466Y-92047755D01*
X194535034Y-91984496D01*
X194624496Y-91895034D01*
X194687755Y-91785466D01*
X194720500Y-91663259D01*
X194720500Y-91536741D01*
X194687755Y-91414534D01*
X194624496Y-91304966D01*
X194624494Y-91304964D01*
X194624491Y-91304960D01*
X194558806Y-91239275D01*
X194540500Y-91195081D01*
X194540500Y-90413000D01*
X194558806Y-90368806D01*
X194603000Y-90350500D01*
X195009748Y-90350500D01*
X195068231Y-90338867D01*
X195134552Y-90294552D01*
X195178867Y-90228231D01*
X195190500Y-90169748D01*
X195190500Y-87330252D01*
X195178867Y-87271769D01*
X195178866Y-87271767D01*
X195134552Y-87205447D01*
X195068232Y-87161133D01*
X195068230Y-87161132D01*
X195009748Y-87149500D01*
X194272917Y-87149500D01*
X194228982Y-87131452D01*
X193603665Y-86513406D01*
X193585101Y-86469319D01*
X193591912Y-86440580D01*
X193632547Y-86360832D01*
X193690940Y-86181118D01*
X193720500Y-85994481D01*
X193720500Y-85805519D01*
X193690940Y-85618882D01*
X193632547Y-85439168D01*
X193546760Y-85270801D01*
X193435690Y-85117927D01*
X193435683Y-85117919D01*
X193302080Y-84984316D01*
X193302072Y-84984309D01*
X193149201Y-84873241D01*
X192980838Y-84787456D01*
X192980830Y-84787452D01*
X192801121Y-84729061D01*
X192801118Y-84729060D01*
X192801112Y-84729059D01*
X192770624Y-84724230D01*
X192729837Y-84699236D01*
X192718671Y-84652723D01*
X192743665Y-84611936D01*
X192780401Y-84600000D01*
X195659599Y-84600000D01*
X195703793Y-84618306D01*
X195722099Y-84662500D01*
X195703793Y-84706694D01*
X195669376Y-84724230D01*
X195638887Y-84729059D01*
X195638878Y-84729061D01*
X195459169Y-84787452D01*
X195459161Y-84787456D01*
X195290798Y-84873241D01*
X195137927Y-84984309D01*
X195137919Y-84984316D01*
X195004316Y-85117919D01*
X195004309Y-85117927D01*
X194893241Y-85270798D01*
X194807456Y-85439161D01*
X194807452Y-85439169D01*
X194749061Y-85618878D01*
X194749059Y-85618887D01*
X194719501Y-85805505D01*
X194719500Y-85805521D01*
X194719500Y-85994478D01*
X194719501Y-85994494D01*
X194749059Y-86181112D01*
X194749061Y-86181121D01*
X194807452Y-86360830D01*
X194807456Y-86360838D01*
X194893241Y-86529201D01*
X195004309Y-86682072D01*
X195004316Y-86682080D01*
X195137919Y-86815683D01*
X195137927Y-86815690D01*
X195290801Y-86926760D01*
X195459168Y-87012547D01*
X195638882Y-87070940D01*
X195785315Y-87094132D01*
X195825505Y-87100498D01*
X195825511Y-87100498D01*
X195825519Y-87100500D01*
X195825521Y-87100500D01*
X195839507Y-87100500D01*
X195883701Y-87118806D01*
X195902007Y-87163000D01*
X195887048Y-87199113D01*
X195888868Y-87200329D01*
X195841133Y-87271767D01*
X195841132Y-87271769D01*
X195829500Y-87330251D01*
X195829500Y-90169748D01*
X195841132Y-90228230D01*
X195841133Y-90228232D01*
X195885447Y-90294552D01*
X195951767Y-90338866D01*
X195951769Y-90338867D01*
X196010252Y-90350500D01*
X196417000Y-90350500D01*
X196461194Y-90368806D01*
X196479500Y-90413000D01*
X196479500Y-92395081D01*
X196461194Y-92439275D01*
X196395508Y-92504960D01*
X196395505Y-92504964D01*
X196332244Y-92614534D01*
X196332243Y-92614537D01*
X196299501Y-92736734D01*
X196299500Y-92736742D01*
X196299500Y-92863257D01*
X196299501Y-92863265D01*
X196332243Y-92985462D01*
X196332244Y-92985465D01*
X196395505Y-93095035D01*
X196395508Y-93095039D01*
X196484960Y-93184491D01*
X196484964Y-93184494D01*
X196484966Y-93184496D01*
X196536999Y-93214537D01*
X196594534Y-93247755D01*
X196594537Y-93247756D01*
X196669319Y-93267793D01*
X196716741Y-93280500D01*
X196716742Y-93280500D01*
X196843258Y-93280500D01*
X196843259Y-93280500D01*
X196965466Y-93247755D01*
X197075034Y-93184496D01*
X197164496Y-93095034D01*
X197227755Y-92985466D01*
X197260500Y-92863259D01*
X197260500Y-92736741D01*
X197236657Y-92647756D01*
X197227756Y-92614537D01*
X197227755Y-92614534D01*
X197164496Y-92504966D01*
X197164494Y-92504964D01*
X197164491Y-92504960D01*
X197098806Y-92439275D01*
X197080500Y-92395081D01*
X197080500Y-90413000D01*
X197098806Y-90368806D01*
X197143000Y-90350500D01*
X197549748Y-90350500D01*
X197608231Y-90338867D01*
X197674552Y-90294552D01*
X197718867Y-90228231D01*
X197730500Y-90169748D01*
X197730500Y-87330252D01*
X197718867Y-87271769D01*
X197718866Y-87271767D01*
X197674552Y-87205447D01*
X197608232Y-87161133D01*
X197608230Y-87161132D01*
X197549748Y-87149500D01*
X196955306Y-87149500D01*
X196911112Y-87131194D01*
X196899536Y-87115213D01*
X196804199Y-86926758D01*
X196753013Y-86825577D01*
X196749399Y-86777879D01*
X196764586Y-86753175D01*
X196835690Y-86682073D01*
X196946760Y-86529199D01*
X197032547Y-86360832D01*
X197090940Y-86181118D01*
X197120500Y-85994481D01*
X197120500Y-85805519D01*
X197090940Y-85618882D01*
X197032547Y-85439168D01*
X196946760Y-85270801D01*
X196835690Y-85117927D01*
X196835683Y-85117919D01*
X196702080Y-84984316D01*
X196702072Y-84984309D01*
X196549201Y-84873241D01*
X196380838Y-84787456D01*
X196380830Y-84787452D01*
X196201121Y-84729061D01*
X196201118Y-84729060D01*
X196201112Y-84729059D01*
X196170624Y-84724230D01*
X196129837Y-84699236D01*
X196118671Y-84652723D01*
X196143665Y-84611936D01*
X196180401Y-84600000D01*
X199059599Y-84600000D01*
X199103793Y-84618306D01*
X199122099Y-84662500D01*
X199103793Y-84706694D01*
X199069376Y-84724230D01*
X199038887Y-84729059D01*
X199038878Y-84729061D01*
X198859169Y-84787452D01*
X198859161Y-84787456D01*
X198690798Y-84873241D01*
X198537927Y-84984309D01*
X198537919Y-84984316D01*
X198404316Y-85117919D01*
X198404309Y-85117927D01*
X198293241Y-85270798D01*
X198207456Y-85439161D01*
X198207452Y-85439169D01*
X198149061Y-85618878D01*
X198149059Y-85618887D01*
X198119501Y-85805505D01*
X198119500Y-85805521D01*
X198119500Y-85994478D01*
X198119501Y-85994494D01*
X198149059Y-86181112D01*
X198149061Y-86181121D01*
X198207452Y-86360830D01*
X198207456Y-86360838D01*
X198293241Y-86529201D01*
X198404309Y-86682072D01*
X198404316Y-86682080D01*
X198537919Y-86815683D01*
X198537927Y-86815690D01*
X198690801Y-86926760D01*
X198859168Y-87012547D01*
X198905371Y-87027559D01*
X198941745Y-87058626D01*
X198945498Y-87106314D01*
X198914431Y-87142688D01*
X198886057Y-87149500D01*
X198550252Y-87149500D01*
X198491769Y-87161132D01*
X198491767Y-87161133D01*
X198425447Y-87205447D01*
X198381133Y-87271767D01*
X198381132Y-87271769D01*
X198369500Y-87330251D01*
X198369500Y-90169748D01*
X198381132Y-90228230D01*
X198381133Y-90228232D01*
X198425447Y-90294552D01*
X198491767Y-90338866D01*
X198491769Y-90338867D01*
X198550252Y-90350500D01*
X198957000Y-90350500D01*
X199001194Y-90368806D01*
X199019500Y-90413000D01*
X199019500Y-92995081D01*
X199001194Y-93039275D01*
X198935508Y-93104960D01*
X198935505Y-93104964D01*
X198872244Y-93214534D01*
X198872243Y-93214537D01*
X198839501Y-93336734D01*
X198839500Y-93336742D01*
X198839500Y-93463257D01*
X198839501Y-93463265D01*
X198872243Y-93585462D01*
X198872244Y-93585465D01*
X198935505Y-93695035D01*
X198935508Y-93695039D01*
X199024960Y-93784491D01*
X199024964Y-93784494D01*
X199024966Y-93784496D01*
X199076999Y-93814537D01*
X199134534Y-93847755D01*
X199134537Y-93847756D01*
X199209319Y-93867793D01*
X199256741Y-93880500D01*
X199256742Y-93880500D01*
X199383258Y-93880500D01*
X199383259Y-93880500D01*
X199505466Y-93847755D01*
X199615034Y-93784496D01*
X199704496Y-93695034D01*
X199767755Y-93585466D01*
X199800500Y-93463259D01*
X199800500Y-93336741D01*
X199776657Y-93247756D01*
X199767756Y-93214537D01*
X199767755Y-93214534D01*
X199704496Y-93104966D01*
X199704494Y-93104964D01*
X199704491Y-93104960D01*
X199638806Y-93039275D01*
X199620500Y-92995081D01*
X199620500Y-90413000D01*
X199638806Y-90368806D01*
X199683000Y-90350500D01*
X200089748Y-90350500D01*
X200148231Y-90338867D01*
X200214552Y-90294552D01*
X200258867Y-90228231D01*
X200270500Y-90169748D01*
X200270500Y-87330252D01*
X200258867Y-87271769D01*
X200258866Y-87271767D01*
X200214552Y-87205447D01*
X200148232Y-87161133D01*
X200148230Y-87161132D01*
X200089748Y-87149500D01*
X199753943Y-87149500D01*
X199709749Y-87131194D01*
X199691443Y-87087000D01*
X199709749Y-87042806D01*
X199734628Y-87027559D01*
X199780832Y-87012547D01*
X199949199Y-86926760D01*
X200102073Y-86815690D01*
X200235690Y-86682073D01*
X200346760Y-86529199D01*
X200432547Y-86360832D01*
X200490940Y-86181118D01*
X200520500Y-85994481D01*
X200520500Y-85805519D01*
X200490940Y-85618882D01*
X200432547Y-85439168D01*
X200346760Y-85270801D01*
X200235690Y-85117927D01*
X200235683Y-85117919D01*
X200102080Y-84984316D01*
X200102072Y-84984309D01*
X199949201Y-84873241D01*
X199780838Y-84787456D01*
X199780830Y-84787452D01*
X199601121Y-84729061D01*
X199601118Y-84729060D01*
X199601112Y-84729059D01*
X199570624Y-84724230D01*
X199529837Y-84699236D01*
X199518671Y-84652723D01*
X199543665Y-84611936D01*
X199580401Y-84600000D01*
X202459599Y-84600000D01*
X202503793Y-84618306D01*
X202522099Y-84662500D01*
X202503793Y-84706694D01*
X202469376Y-84724230D01*
X202438887Y-84729059D01*
X202438878Y-84729061D01*
X202259169Y-84787452D01*
X202259161Y-84787456D01*
X202090798Y-84873241D01*
X201937927Y-84984309D01*
X201937919Y-84984316D01*
X201804316Y-85117919D01*
X201804309Y-85117927D01*
X201693241Y-85270798D01*
X201607456Y-85439161D01*
X201607452Y-85439169D01*
X201549061Y-85618878D01*
X201549059Y-85618887D01*
X201519501Y-85805505D01*
X201519500Y-85805521D01*
X201519500Y-85994478D01*
X201519501Y-85994494D01*
X201549059Y-86181112D01*
X201549061Y-86181121D01*
X201607452Y-86360830D01*
X201607456Y-86360838D01*
X201693241Y-86529201D01*
X201804309Y-86682072D01*
X201804316Y-86682080D01*
X201875408Y-86753171D01*
X201893714Y-86797365D01*
X201886984Y-86825578D01*
X201740464Y-87115213D01*
X201704180Y-87146385D01*
X201684694Y-87149500D01*
X201090252Y-87149500D01*
X201031769Y-87161132D01*
X201031767Y-87161133D01*
X200965447Y-87205447D01*
X200921133Y-87271767D01*
X200921132Y-87271769D01*
X200909500Y-87330251D01*
X200909500Y-90169748D01*
X200921132Y-90228230D01*
X200921133Y-90228232D01*
X200965447Y-90294552D01*
X201031767Y-90338866D01*
X201031769Y-90338867D01*
X201090252Y-90350500D01*
X201497000Y-90350500D01*
X201541194Y-90368806D01*
X201559500Y-90413000D01*
X201559500Y-93595081D01*
X201541194Y-93639275D01*
X201475508Y-93704960D01*
X201475505Y-93704964D01*
X201412244Y-93814534D01*
X201412243Y-93814537D01*
X201379501Y-93936734D01*
X201379500Y-93936742D01*
X201379500Y-94063257D01*
X201379501Y-94063265D01*
X201412243Y-94185462D01*
X201412244Y-94185465D01*
X201475505Y-94295035D01*
X201475508Y-94295039D01*
X201564960Y-94384491D01*
X201564964Y-94384494D01*
X201564966Y-94384496D01*
X201616999Y-94414537D01*
X201674534Y-94447755D01*
X201674537Y-94447756D01*
X201749319Y-94467793D01*
X201796741Y-94480500D01*
X201796742Y-94480500D01*
X201923258Y-94480500D01*
X201923259Y-94480500D01*
X202045466Y-94447755D01*
X202155034Y-94384496D01*
X202244496Y-94295034D01*
X202307755Y-94185466D01*
X202340500Y-94063259D01*
X202340500Y-93936741D01*
X202316657Y-93847756D01*
X202307756Y-93814537D01*
X202307755Y-93814534D01*
X202244496Y-93704966D01*
X202244494Y-93704964D01*
X202244491Y-93704960D01*
X202178806Y-93639275D01*
X202160500Y-93595081D01*
X202160500Y-90413000D01*
X202178806Y-90368806D01*
X202223000Y-90350500D01*
X202629748Y-90350500D01*
X202688231Y-90338867D01*
X202754552Y-90294552D01*
X202798867Y-90228231D01*
X202810500Y-90169748D01*
X202810500Y-87330252D01*
X202798867Y-87271769D01*
X202798866Y-87271767D01*
X202751132Y-87200329D01*
X202752951Y-87199113D01*
X202737993Y-87163000D01*
X202756299Y-87118806D01*
X202800493Y-87100500D01*
X202814479Y-87100500D01*
X202814481Y-87100500D01*
X203001118Y-87070940D01*
X203180832Y-87012547D01*
X203349199Y-86926760D01*
X203502073Y-86815690D01*
X203635690Y-86682073D01*
X203746760Y-86529199D01*
X203832547Y-86360832D01*
X203890940Y-86181118D01*
X203920500Y-85994481D01*
X203920500Y-85805519D01*
X203890940Y-85618882D01*
X203832547Y-85439168D01*
X203746760Y-85270801D01*
X203635690Y-85117927D01*
X203635683Y-85117919D01*
X203502080Y-84984316D01*
X203502072Y-84984309D01*
X203349201Y-84873241D01*
X203180838Y-84787456D01*
X203180830Y-84787452D01*
X203001121Y-84729061D01*
X203001118Y-84729060D01*
X203001112Y-84729059D01*
X202970624Y-84724230D01*
X202929837Y-84699236D01*
X202918671Y-84652723D01*
X202943665Y-84611936D01*
X202980401Y-84600000D01*
X205859599Y-84600000D01*
X205903793Y-84618306D01*
X205922099Y-84662500D01*
X205903793Y-84706694D01*
X205869376Y-84724230D01*
X205838887Y-84729059D01*
X205838878Y-84729061D01*
X205659169Y-84787452D01*
X205659161Y-84787456D01*
X205490798Y-84873241D01*
X205337927Y-84984309D01*
X205337919Y-84984316D01*
X205204316Y-85117919D01*
X205204309Y-85117927D01*
X205093241Y-85270798D01*
X205007456Y-85439161D01*
X205007452Y-85439169D01*
X204949061Y-85618878D01*
X204949059Y-85618887D01*
X204919501Y-85805505D01*
X204919500Y-85805521D01*
X204919500Y-85994478D01*
X204919501Y-85994494D01*
X204949059Y-86181112D01*
X204949061Y-86181121D01*
X205007452Y-86360830D01*
X205007456Y-86360838D01*
X205048086Y-86440580D01*
X205051839Y-86488268D01*
X205036333Y-86513406D01*
X204411018Y-87131452D01*
X204367083Y-87149500D01*
X203630252Y-87149500D01*
X203571769Y-87161132D01*
X203571767Y-87161133D01*
X203505447Y-87205447D01*
X203461133Y-87271767D01*
X203461132Y-87271769D01*
X203449500Y-87330251D01*
X203449500Y-90169748D01*
X203461132Y-90228230D01*
X203461133Y-90228232D01*
X203505447Y-90294552D01*
X203571767Y-90338866D01*
X203571769Y-90338867D01*
X203630252Y-90350500D01*
X204037000Y-90350500D01*
X204081194Y-90368806D01*
X204099500Y-90413000D01*
X204099500Y-94195081D01*
X204081194Y-94239275D01*
X204015508Y-94304960D01*
X204015505Y-94304964D01*
X203952244Y-94414534D01*
X203952243Y-94414537D01*
X203919501Y-94536734D01*
X203919500Y-94536742D01*
X203919500Y-94663257D01*
X203919501Y-94663265D01*
X203952243Y-94785462D01*
X203952244Y-94785465D01*
X204015505Y-94895035D01*
X204015508Y-94895039D01*
X204104960Y-94984491D01*
X204104964Y-94984494D01*
X204104966Y-94984496D01*
X204156999Y-95014537D01*
X204214534Y-95047755D01*
X204214537Y-95047756D01*
X204289319Y-95067793D01*
X204336741Y-95080500D01*
X204336742Y-95080500D01*
X204463258Y-95080500D01*
X204463259Y-95080500D01*
X204585466Y-95047755D01*
X204695034Y-94984496D01*
X204784496Y-94895034D01*
X204847755Y-94785466D01*
X204880500Y-94663259D01*
X204880500Y-94536741D01*
X204856657Y-94447756D01*
X204847756Y-94414537D01*
X204847755Y-94414534D01*
X204784496Y-94304966D01*
X204784494Y-94304964D01*
X204784491Y-94304960D01*
X204718806Y-94239275D01*
X204700500Y-94195081D01*
X204700500Y-90413000D01*
X204718806Y-90368806D01*
X204763000Y-90350500D01*
X205169748Y-90350500D01*
X205228231Y-90338867D01*
X205294552Y-90294552D01*
X205338867Y-90228231D01*
X205350500Y-90169748D01*
X205350500Y-87330252D01*
X205338867Y-87271769D01*
X205319318Y-87242513D01*
X205310365Y-87229113D01*
X205301033Y-87182197D01*
X205318396Y-87149939D01*
X205493939Y-86976437D01*
X205538238Y-86958391D01*
X205566247Y-86965202D01*
X205659159Y-87012543D01*
X205659166Y-87012546D01*
X205659168Y-87012547D01*
X205838882Y-87070940D01*
X206012167Y-87098385D01*
X206052954Y-87123379D01*
X206064121Y-87169893D01*
X206048678Y-87200202D01*
X206048868Y-87200329D01*
X206047799Y-87201928D01*
X206046588Y-87204306D01*
X206045450Y-87205443D01*
X206001133Y-87271767D01*
X206001132Y-87271769D01*
X205989500Y-87330251D01*
X205989500Y-90169748D01*
X206001132Y-90228230D01*
X206001133Y-90228232D01*
X206045447Y-90294552D01*
X206111767Y-90338866D01*
X206111769Y-90338867D01*
X206170252Y-90350500D01*
X206577000Y-90350500D01*
X206621194Y-90368806D01*
X206639500Y-90413000D01*
X206639500Y-94795081D01*
X206621194Y-94839275D01*
X206555508Y-94904960D01*
X206555505Y-94904964D01*
X206492244Y-95014534D01*
X206492243Y-95014537D01*
X206459501Y-95136734D01*
X206459500Y-95136742D01*
X206459500Y-95263257D01*
X206459501Y-95263265D01*
X206492243Y-95385462D01*
X206492244Y-95385465D01*
X206555505Y-95495035D01*
X206555508Y-95495039D01*
X206644960Y-95584491D01*
X206644964Y-95584494D01*
X206644966Y-95584496D01*
X206754534Y-95647755D01*
X206754537Y-95647756D01*
X206829319Y-95667793D01*
X206876741Y-95680500D01*
X206876742Y-95680500D01*
X207003258Y-95680500D01*
X207003259Y-95680500D01*
X207125466Y-95647755D01*
X207235034Y-95584496D01*
X207324496Y-95495034D01*
X207387755Y-95385466D01*
X207420500Y-95263259D01*
X207420500Y-95136741D01*
X207396657Y-95047756D01*
X207387756Y-95014537D01*
X207387755Y-95014534D01*
X207324496Y-94904966D01*
X207324494Y-94904964D01*
X207324491Y-94904960D01*
X207258806Y-94839275D01*
X207240500Y-94795081D01*
X207240500Y-90413000D01*
X207258806Y-90368806D01*
X207303000Y-90350500D01*
X207709748Y-90350500D01*
X207768231Y-90338867D01*
X207834552Y-90294552D01*
X207878867Y-90228231D01*
X207890500Y-90169748D01*
X207890500Y-89804151D01*
X212175001Y-89804151D01*
X212185055Y-89902574D01*
X212185056Y-89902581D01*
X212237906Y-90062074D01*
X212326112Y-90205078D01*
X212444921Y-90323887D01*
X212587925Y-90412093D01*
X212747421Y-90464944D01*
X212845854Y-90474999D01*
X212862500Y-90474998D01*
X212862500Y-89750000D01*
X212175001Y-89750000D01*
X212175001Y-89804151D01*
X207890500Y-89804151D01*
X207890500Y-89195849D01*
X212175000Y-89195849D01*
X212175000Y-89250000D01*
X212862500Y-89250000D01*
X212862500Y-88525000D01*
X212862499Y-88524999D01*
X212845862Y-88525000D01*
X212845846Y-88525001D01*
X212747425Y-88535055D01*
X212747418Y-88535056D01*
X212587925Y-88587906D01*
X212444921Y-88676112D01*
X212326112Y-88794921D01*
X212237906Y-88937925D01*
X212185055Y-89097421D01*
X212175000Y-89195849D01*
X207890500Y-89195849D01*
X207890500Y-87397174D01*
X207908806Y-87352980D01*
X207918608Y-87344988D01*
X208694179Y-86833953D01*
X208741153Y-86824924D01*
X208765303Y-86835580D01*
X208890801Y-86926760D01*
X209059168Y-87012547D01*
X209238882Y-87070940D01*
X209385315Y-87094132D01*
X209425505Y-87100498D01*
X209425511Y-87100498D01*
X209425519Y-87100500D01*
X209425521Y-87100500D01*
X209614479Y-87100500D01*
X209614481Y-87100500D01*
X209801118Y-87070940D01*
X209980832Y-87012547D01*
X210149199Y-86926760D01*
X210302073Y-86815690D01*
X210435690Y-86682073D01*
X210546760Y-86529199D01*
X210632547Y-86360832D01*
X210690940Y-86181118D01*
X210720500Y-85994481D01*
X210720500Y-85805519D01*
X210690940Y-85618882D01*
X210632547Y-85439168D01*
X210546760Y-85270801D01*
X210435690Y-85117927D01*
X210435683Y-85117919D01*
X210302080Y-84984316D01*
X210302072Y-84984309D01*
X210149201Y-84873241D01*
X209980838Y-84787456D01*
X209980830Y-84787452D01*
X209801121Y-84729061D01*
X209801118Y-84729060D01*
X209801112Y-84729059D01*
X209770624Y-84724230D01*
X209729837Y-84699236D01*
X209718671Y-84652723D01*
X209743665Y-84611936D01*
X209780401Y-84600000D01*
X215538460Y-84600000D01*
X215582654Y-84618306D01*
X215600952Y-84661531D01*
X215615475Y-85599676D01*
X215667258Y-88944943D01*
X215649638Y-88989415D01*
X215631180Y-89002554D01*
X215559593Y-89035937D01*
X215475937Y-89119593D01*
X215439259Y-89198248D01*
X215403990Y-89230565D01*
X215356201Y-89228478D01*
X215323884Y-89193209D01*
X215320884Y-89181611D01*
X215309951Y-89112580D01*
X215249658Y-88994249D01*
X215155751Y-88900342D01*
X215037421Y-88840049D01*
X215037414Y-88840047D01*
X214939259Y-88824501D01*
X214939247Y-88824500D01*
X214939246Y-88824500D01*
X214435754Y-88824500D01*
X214435752Y-88824500D01*
X214435740Y-88824501D01*
X214337585Y-88840047D01*
X214337578Y-88840049D01*
X214219248Y-88900342D01*
X214125342Y-88994248D01*
X214120822Y-89003119D01*
X214084446Y-89034184D01*
X214036758Y-89030429D01*
X214005807Y-88994401D01*
X213987093Y-88937925D01*
X213898887Y-88794921D01*
X213780078Y-88676112D01*
X213637074Y-88587906D01*
X213477578Y-88535055D01*
X213379150Y-88525000D01*
X213362500Y-88525000D01*
X213362500Y-90474999D01*
X213379140Y-90474999D01*
X213379151Y-90474998D01*
X213477574Y-90464944D01*
X213477581Y-90464943D01*
X213637074Y-90412093D01*
X213780078Y-90323887D01*
X213898887Y-90205078D01*
X213987093Y-90062073D01*
X214005807Y-90005599D01*
X214037085Y-89969405D01*
X214084793Y-89965929D01*
X214120822Y-89996882D01*
X214125340Y-90005749D01*
X214125342Y-90005751D01*
X214219249Y-90099658D01*
X214337580Y-90159951D01*
X214337583Y-90159951D01*
X214337585Y-90159952D01*
X214435740Y-90175498D01*
X214435746Y-90175498D01*
X214435754Y-90175500D01*
X214435756Y-90175500D01*
X214939244Y-90175500D01*
X214939246Y-90175500D01*
X214975564Y-90169748D01*
X215037414Y-90159952D01*
X215037414Y-90159951D01*
X215037420Y-90159951D01*
X215155751Y-90099658D01*
X215249658Y-90005751D01*
X215309951Y-89887420D01*
X215320884Y-89818387D01*
X215345878Y-89777601D01*
X215392392Y-89766434D01*
X215433179Y-89791428D01*
X215439259Y-89801751D01*
X215475937Y-89880406D01*
X215559594Y-89964063D01*
X215559595Y-89964063D01*
X215559597Y-89964065D01*
X215629973Y-89996882D01*
X215648458Y-90005502D01*
X215680775Y-90040770D01*
X215684537Y-90061179D01*
X215795542Y-97232082D01*
X215795542Y-97232084D01*
X215679967Y-97347660D01*
X214922873Y-98104754D01*
X214442530Y-98585097D01*
X215838090Y-99980657D01*
X215910025Y-104627731D01*
X215892405Y-104672203D01*
X215863709Y-104689068D01*
X215814536Y-104702244D01*
X215814534Y-104702244D01*
X215704964Y-104765505D01*
X215704960Y-104765508D01*
X215615508Y-104854960D01*
X215615505Y-104854964D01*
X215552244Y-104964534D01*
X215552243Y-104964537D01*
X215519501Y-105086734D01*
X215519500Y-105086742D01*
X215519500Y-105213257D01*
X215519501Y-105213265D01*
X215552243Y-105335462D01*
X215552244Y-105335465D01*
X215615505Y-105445035D01*
X215615508Y-105445039D01*
X215704960Y-105534491D01*
X215704964Y-105534494D01*
X215704966Y-105534496D01*
X215814534Y-105597755D01*
X215879916Y-105615274D01*
X215917865Y-105644392D01*
X215926232Y-105674676D01*
X216023919Y-111985183D01*
X216006299Y-112029655D01*
X215962393Y-112048643D01*
X215928615Y-112039345D01*
X215809122Y-111965641D01*
X215642691Y-111910492D01*
X215539986Y-111900000D01*
X214890000Y-111900000D01*
X214890000Y-113009252D01*
X214852292Y-112987482D01*
X214712409Y-112950000D01*
X214567591Y-112950000D01*
X214427708Y-112987482D01*
X214390000Y-113009252D01*
X214390000Y-111900000D01*
X213740024Y-111900000D01*
X213740012Y-111900001D01*
X213637312Y-111910492D01*
X213637305Y-111910493D01*
X213470877Y-111965641D01*
X213321656Y-112057682D01*
X213197682Y-112181656D01*
X213105641Y-112330877D01*
X213050492Y-112497308D01*
X213040000Y-112600013D01*
X213040000Y-113250000D01*
X214149252Y-113250000D01*
X214127482Y-113287708D01*
X214090000Y-113427591D01*
X214090000Y-113572409D01*
X214127482Y-113712292D01*
X214149252Y-113750000D01*
X213040001Y-113750000D01*
X213040001Y-114399987D01*
X213050492Y-114502687D01*
X213050493Y-114502694D01*
X213105641Y-114669122D01*
X213197682Y-114818343D01*
X213321656Y-114942317D01*
X213470877Y-115034358D01*
X213637308Y-115089507D01*
X213740018Y-115099999D01*
X214390000Y-115099999D01*
X214390000Y-113990747D01*
X214427708Y-114012518D01*
X214567591Y-114050000D01*
X214712409Y-114050000D01*
X214852292Y-114012518D01*
X214890000Y-113990747D01*
X214890000Y-115099999D01*
X215539976Y-115099999D01*
X215539987Y-115099998D01*
X215642687Y-115089507D01*
X215642694Y-115089506D01*
X215809122Y-115034358D01*
X215958343Y-114942317D01*
X215963592Y-114937068D01*
X216007785Y-114918759D01*
X216051980Y-114937062D01*
X216070282Y-114980292D01*
X216099021Y-116836775D01*
X216081401Y-116881247D01*
X216037495Y-116900235D01*
X216036768Y-116900242D01*
X208885265Y-116927694D01*
X208841001Y-116909557D01*
X208822525Y-116865434D01*
X208830897Y-116833946D01*
X208887755Y-116735466D01*
X208920500Y-116613259D01*
X208920500Y-116486741D01*
X208913603Y-116461001D01*
X208919846Y-116413575D01*
X208929779Y-116400630D01*
X208954213Y-116376196D01*
X208999658Y-116330751D01*
X209059951Y-116212420D01*
X209061651Y-116201688D01*
X209075498Y-116114259D01*
X209075500Y-116114243D01*
X209075500Y-115285756D01*
X209924500Y-115285756D01*
X209924500Y-116114243D01*
X209924501Y-116114259D01*
X209940047Y-116212414D01*
X209940049Y-116212421D01*
X209984927Y-116300498D01*
X210000342Y-116330751D01*
X210094249Y-116424658D01*
X210212580Y-116484951D01*
X210212583Y-116484951D01*
X210212585Y-116484952D01*
X210310740Y-116500498D01*
X210310746Y-116500498D01*
X210310754Y-116500500D01*
X210310756Y-116500500D01*
X210814244Y-116500500D01*
X210814246Y-116500500D01*
X210901119Y-116486741D01*
X210912414Y-116484952D01*
X210912414Y-116484951D01*
X210912420Y-116484951D01*
X211030751Y-116424658D01*
X211124658Y-116330751D01*
X211124659Y-116330748D01*
X211127551Y-116326770D01*
X211129888Y-116328468D01*
X211159073Y-116303554D01*
X211178372Y-116300500D01*
X211779056Y-116300500D01*
X211779057Y-116300500D01*
X211931784Y-116259577D01*
X212068716Y-116180520D01*
X212180520Y-116068716D01*
X212259577Y-115931784D01*
X212300500Y-115779057D01*
X212300500Y-115620943D01*
X212259577Y-115468216D01*
X212180520Y-115331284D01*
X212068716Y-115219480D01*
X211972464Y-115163909D01*
X211931783Y-115140422D01*
X211931780Y-115140421D01*
X211779063Y-115099501D01*
X211779058Y-115099500D01*
X211779057Y-115099500D01*
X211779056Y-115099500D01*
X211178372Y-115099500D01*
X211134178Y-115081194D01*
X211128100Y-115072830D01*
X211127551Y-115073230D01*
X211124659Y-115069250D01*
X211030751Y-114975342D01*
X210912421Y-114915049D01*
X210912414Y-114915047D01*
X210814259Y-114899501D01*
X210814247Y-114899500D01*
X210814246Y-114899500D01*
X210310754Y-114899500D01*
X210310752Y-114899500D01*
X210310740Y-114899501D01*
X210212585Y-114915047D01*
X210212578Y-114915049D01*
X210094248Y-114975342D01*
X210000342Y-115069248D01*
X209940049Y-115187578D01*
X209940047Y-115187585D01*
X209924501Y-115285740D01*
X209924500Y-115285756D01*
X209075500Y-115285756D01*
X209075498Y-115285740D01*
X209059952Y-115187585D01*
X209059950Y-115187578D01*
X209035923Y-115140423D01*
X208999658Y-115069249D01*
X208905751Y-114975342D01*
X208899804Y-114972312D01*
X208787421Y-114915049D01*
X208787414Y-114915047D01*
X208689259Y-114899501D01*
X208689247Y-114899500D01*
X208689246Y-114899500D01*
X208185754Y-114899500D01*
X208185752Y-114899500D01*
X208185740Y-114899501D01*
X208087585Y-114915047D01*
X208087578Y-114915049D01*
X207969248Y-114975342D01*
X207875342Y-115069248D01*
X207815049Y-115187578D01*
X207815047Y-115187585D01*
X207799501Y-115285740D01*
X207799500Y-115285756D01*
X207799500Y-116114243D01*
X207799501Y-116114259D01*
X207815047Y-116212414D01*
X207815049Y-116212421D01*
X207875342Y-116330751D01*
X207949163Y-116404572D01*
X207967469Y-116448766D01*
X207965340Y-116464939D01*
X207959501Y-116486734D01*
X207959500Y-116486742D01*
X207959500Y-116613257D01*
X207959501Y-116613265D01*
X207992243Y-116735462D01*
X207992244Y-116735465D01*
X208051070Y-116837354D01*
X208057313Y-116884780D01*
X208028193Y-116922731D01*
X207997183Y-116931104D01*
X204119046Y-116945991D01*
X204074782Y-116927854D01*
X204056306Y-116883731D01*
X204059479Y-116863829D01*
X204064857Y-116847600D01*
X204074999Y-116748322D01*
X204075000Y-116748313D01*
X204075000Y-116725000D01*
X202125001Y-116725000D01*
X202125001Y-116748323D01*
X202135142Y-116847597D01*
X202135144Y-116847608D01*
X202143109Y-116871645D01*
X202139632Y-116919354D01*
X202103439Y-116950631D01*
X202084021Y-116953803D01*
X192785190Y-116989500D01*
X165263000Y-116989500D01*
X165218806Y-116971194D01*
X165200500Y-116927000D01*
X165200500Y-115850000D01*
X176341211Y-115850000D01*
X176342856Y-115870921D01*
X176387968Y-116026196D01*
X176387969Y-116026197D01*
X176470279Y-116165377D01*
X176584622Y-116279720D01*
X176723802Y-116362030D01*
X176723803Y-116362031D01*
X176869999Y-116404505D01*
X176870000Y-116404504D01*
X176870000Y-115850000D01*
X176341211Y-115850000D01*
X165200500Y-115850000D01*
X165200500Y-115349999D01*
X176341208Y-115349999D01*
X176341209Y-115350000D01*
X176870000Y-115350000D01*
X176870000Y-114795494D01*
X176869999Y-114795493D01*
X177370000Y-114795493D01*
X177370000Y-116404505D01*
X177516196Y-116362031D01*
X177516197Y-116362030D01*
X177655377Y-116279720D01*
X177655379Y-116279719D01*
X177769719Y-116165379D01*
X177769720Y-116165377D01*
X177788228Y-116134080D01*
X177826480Y-116105357D01*
X177850183Y-116103928D01*
X177850511Y-116103971D01*
X177850513Y-116103972D01*
X177900099Y-116110500D01*
X178259900Y-116110499D01*
X178309487Y-116103972D01*
X178418316Y-116053224D01*
X178458540Y-116013000D01*
X178502735Y-115968806D01*
X178546929Y-115950500D01*
X178745082Y-115950500D01*
X178789276Y-115968806D01*
X178789277Y-115968807D01*
X178804961Y-115984492D01*
X178804964Y-115984494D01*
X178804966Y-115984496D01*
X178914534Y-116047755D01*
X178914537Y-116047756D01*
X178989319Y-116067793D01*
X179036741Y-116080500D01*
X179036742Y-116080500D01*
X179163258Y-116080500D01*
X179163259Y-116080500D01*
X179285466Y-116047755D01*
X179395034Y-115984496D01*
X179410723Y-115968807D01*
X179454916Y-115950500D01*
X179587000Y-115950500D01*
X179631194Y-115968806D01*
X179649500Y-116013000D01*
X179649500Y-116129266D01*
X179650478Y-116139699D01*
X179652353Y-116159696D01*
X179652354Y-116159701D01*
X179697207Y-116287882D01*
X179697207Y-116287883D01*
X179737528Y-116342516D01*
X179777850Y-116397150D01*
X179887118Y-116477793D01*
X180015301Y-116522646D01*
X180045734Y-116525500D01*
X180045738Y-116525500D01*
X180654262Y-116525500D01*
X180654266Y-116525500D01*
X180684699Y-116522646D01*
X180812882Y-116477793D01*
X180922150Y-116397150D01*
X181002793Y-116287882D01*
X181047646Y-116159699D01*
X181050500Y-116129266D01*
X181050500Y-116124987D01*
X181250001Y-116124987D01*
X181260492Y-116227687D01*
X181260493Y-116227694D01*
X181315641Y-116394121D01*
X181407682Y-116543343D01*
X181531656Y-116667317D01*
X181680878Y-116759358D01*
X181847308Y-116814507D01*
X181950017Y-116824999D01*
X182500000Y-116824999D01*
X182549976Y-116824999D01*
X182549987Y-116824998D01*
X182652687Y-116814507D01*
X182652694Y-116814506D01*
X182819121Y-116759358D01*
X182968343Y-116667317D01*
X183092317Y-116543343D01*
X183184358Y-116394121D01*
X183238742Y-116230000D01*
X204865495Y-116230000D01*
X204907968Y-116376196D01*
X204907969Y-116376197D01*
X204990279Y-116515377D01*
X205104622Y-116629720D01*
X205243802Y-116712030D01*
X205243803Y-116712031D01*
X205399078Y-116757143D01*
X205420000Y-116758789D01*
X205920000Y-116758789D01*
X205940921Y-116757143D01*
X206096196Y-116712031D01*
X206096197Y-116712030D01*
X206235377Y-116629720D01*
X206235379Y-116629719D01*
X206349719Y-116515379D01*
X206349720Y-116515377D01*
X206432030Y-116376197D01*
X206432031Y-116376196D01*
X206474505Y-116230000D01*
X205920000Y-116230000D01*
X205920000Y-116758789D01*
X205420000Y-116758789D01*
X205420000Y-116230000D01*
X204865495Y-116230000D01*
X183238742Y-116230000D01*
X183239507Y-116227691D01*
X183249999Y-116124986D01*
X183250000Y-116124977D01*
X183250000Y-115850000D01*
X182500000Y-115850000D01*
X182500000Y-116824999D01*
X181950017Y-116824999D01*
X182000000Y-116824998D01*
X182000000Y-115850000D01*
X181250001Y-115850000D01*
X181250001Y-116124987D01*
X181050500Y-116124987D01*
X181050500Y-115075013D01*
X181250000Y-115075013D01*
X181250000Y-115350000D01*
X182000000Y-115350000D01*
X182500000Y-115350000D01*
X183249999Y-115350000D01*
X183249999Y-115075024D01*
X183249998Y-115075012D01*
X183239507Y-114972312D01*
X183239506Y-114972305D01*
X183184358Y-114805878D01*
X183092317Y-114656656D01*
X182968343Y-114532682D01*
X182819121Y-114440641D01*
X182652691Y-114385492D01*
X182549986Y-114375000D01*
X182500000Y-114375000D01*
X182500000Y-115350000D01*
X182000000Y-115350000D01*
X182000000Y-114375000D01*
X181999999Y-114374999D01*
X181950025Y-114375000D01*
X181950011Y-114375001D01*
X181847312Y-114385492D01*
X181847305Y-114385493D01*
X181680878Y-114440641D01*
X181531656Y-114532682D01*
X181407682Y-114656656D01*
X181315641Y-114805878D01*
X181260492Y-114972308D01*
X181250000Y-115075013D01*
X181050500Y-115075013D01*
X181050500Y-115070734D01*
X181047646Y-115040301D01*
X181045658Y-115034621D01*
X181032759Y-114997756D01*
X181002793Y-114912118D01*
X180993481Y-114899501D01*
X180976783Y-114876875D01*
X180922150Y-114802850D01*
X180812882Y-114722207D01*
X180684701Y-114677354D01*
X180684696Y-114677353D01*
X180664699Y-114675478D01*
X180654266Y-114674500D01*
X180045734Y-114674500D01*
X180036124Y-114675401D01*
X180015303Y-114677353D01*
X180015298Y-114677354D01*
X179887117Y-114722207D01*
X179887116Y-114722207D01*
X179777850Y-114802850D01*
X179697207Y-114912116D01*
X179697207Y-114912117D01*
X179652354Y-115040298D01*
X179652353Y-115040303D01*
X179650233Y-115062908D01*
X179649640Y-115069248D01*
X179649500Y-115070737D01*
X179649500Y-115187000D01*
X179631194Y-115231194D01*
X179587000Y-115249500D01*
X179454918Y-115249500D01*
X179410724Y-115231194D01*
X179410723Y-115231193D01*
X179395038Y-115215507D01*
X179395035Y-115215505D01*
X179395034Y-115215504D01*
X179322804Y-115173802D01*
X179285465Y-115152244D01*
X179285462Y-115152243D01*
X179163265Y-115119501D01*
X179163260Y-115119500D01*
X179163259Y-115119500D01*
X179036741Y-115119500D01*
X179036740Y-115119500D01*
X179036734Y-115119501D01*
X178914537Y-115152243D01*
X178914534Y-115152244D01*
X178804964Y-115215505D01*
X178804961Y-115215507D01*
X178789277Y-115231193D01*
X178745084Y-115249500D01*
X178546929Y-115249500D01*
X178502735Y-115231194D01*
X178418318Y-115146777D01*
X178309486Y-115096027D01*
X178259901Y-115089500D01*
X177900108Y-115089500D01*
X177900105Y-115089500D01*
X177900100Y-115089501D01*
X177850513Y-115096028D01*
X177850511Y-115096028D01*
X177850182Y-115096072D01*
X177803977Y-115083689D01*
X177788230Y-115065921D01*
X177769720Y-115034622D01*
X177655377Y-114920279D01*
X177516197Y-114837969D01*
X177516196Y-114837968D01*
X177370000Y-114795493D01*
X176869999Y-114795493D01*
X176723803Y-114837968D01*
X176723802Y-114837969D01*
X176584622Y-114920279D01*
X176584621Y-114920281D01*
X176470281Y-115034621D01*
X176470279Y-115034622D01*
X176387969Y-115173802D01*
X176387968Y-115173803D01*
X176342854Y-115329086D01*
X176342854Y-115329091D01*
X176341208Y-115349999D01*
X165200500Y-115349999D01*
X165200500Y-111865191D01*
X165599500Y-111865191D01*
X165599500Y-112134809D01*
X165606789Y-112199500D01*
X165629686Y-112402720D01*
X165629688Y-112402733D01*
X165689683Y-112665588D01*
X165689683Y-112665590D01*
X165778728Y-112920068D01*
X165895716Y-113162997D01*
X166039158Y-113391283D01*
X166039170Y-113391300D01*
X166207255Y-113602072D01*
X166207260Y-113602078D01*
X166207266Y-113602085D01*
X166397915Y-113792734D01*
X166397922Y-113792740D01*
X166397927Y-113792744D01*
X166608699Y-113960829D01*
X166608705Y-113960833D01*
X166608711Y-113960838D01*
X166837003Y-114104284D01*
X167079921Y-114221267D01*
X167079927Y-114221269D01*
X167079931Y-114221271D01*
X167229745Y-114273692D01*
X167334409Y-114310316D01*
X167597268Y-114370312D01*
X167865191Y-114400500D01*
X167865194Y-114400500D01*
X168134806Y-114400500D01*
X168134809Y-114400500D01*
X168402732Y-114370312D01*
X168665591Y-114310316D01*
X168920079Y-114221267D01*
X169162997Y-114104284D01*
X169391289Y-113960838D01*
X169602085Y-113792734D01*
X169792734Y-113602085D01*
X169960838Y-113391289D01*
X170104284Y-113162997D01*
X170221267Y-112920079D01*
X170310316Y-112665591D01*
X170370312Y-112402732D01*
X170400500Y-112134809D01*
X170400500Y-111865191D01*
X170370312Y-111597268D01*
X170310316Y-111334409D01*
X170308861Y-111330251D01*
X195829500Y-111330251D01*
X195829500Y-114169748D01*
X195841132Y-114228230D01*
X195841133Y-114228232D01*
X195885447Y-114294552D01*
X195951767Y-114338866D01*
X195951769Y-114338867D01*
X196010252Y-114350500D01*
X197549748Y-114350500D01*
X197608231Y-114338867D01*
X197674552Y-114294552D01*
X197718867Y-114228231D01*
X197730500Y-114169748D01*
X197730500Y-111330252D01*
X197730500Y-111330251D01*
X198369500Y-111330251D01*
X198369500Y-114169748D01*
X198381132Y-114228230D01*
X198381133Y-114228232D01*
X198425447Y-114294552D01*
X198491767Y-114338866D01*
X198491769Y-114338867D01*
X198550252Y-114350500D01*
X200074554Y-114350500D01*
X200118748Y-114368806D01*
X200137054Y-114413000D01*
X200134924Y-114429176D01*
X200119501Y-114486734D01*
X200119500Y-114486742D01*
X200119500Y-114613257D01*
X200119501Y-114613265D01*
X200152243Y-114735462D01*
X200152244Y-114735465D01*
X200152245Y-114735466D01*
X200211424Y-114837968D01*
X200215505Y-114845035D01*
X200215508Y-114845039D01*
X200304960Y-114934491D01*
X200304964Y-114934494D01*
X200304966Y-114934496D01*
X200414534Y-114997755D01*
X200414537Y-114997756D01*
X200489319Y-115017793D01*
X200536741Y-115030500D01*
X200536742Y-115030500D01*
X200663258Y-115030500D01*
X200663259Y-115030500D01*
X200785466Y-114997755D01*
X200895034Y-114934496D01*
X200984496Y-114845034D01*
X201047755Y-114735466D01*
X201080500Y-114613259D01*
X201080500Y-114486741D01*
X201065076Y-114429176D01*
X201071319Y-114381750D01*
X201109270Y-114352630D01*
X201125446Y-114350500D01*
X202448760Y-114350500D01*
X202492954Y-114368806D01*
X202511260Y-114413000D01*
X202501994Y-114441525D01*
X202503705Y-114442397D01*
X202440282Y-114566869D01*
X202440279Y-114566879D01*
X202424501Y-114666498D01*
X202424500Y-114666514D01*
X202424500Y-115183485D01*
X202424501Y-115183501D01*
X202440279Y-115283120D01*
X202440282Y-115283130D01*
X202501471Y-115403219D01*
X202578918Y-115480666D01*
X202597224Y-115524860D01*
X202578918Y-115569054D01*
X202554387Y-115584186D01*
X202541520Y-115588450D01*
X202541519Y-115588451D01*
X202397268Y-115677426D01*
X202277426Y-115797268D01*
X202188453Y-115941515D01*
X202135142Y-116102398D01*
X202125000Y-116201677D01*
X202125000Y-116225000D01*
X204074999Y-116225000D01*
X204074999Y-116201688D01*
X204074998Y-116201676D01*
X204064857Y-116102402D01*
X204064856Y-116102395D01*
X204011546Y-115941515D01*
X203922573Y-115797268D01*
X203832499Y-115707194D01*
X203814193Y-115663000D01*
X203832499Y-115618806D01*
X203876693Y-115600500D01*
X204320943Y-115600500D01*
X204479057Y-115600500D01*
X204819876Y-115600500D01*
X204864070Y-115618806D01*
X204882376Y-115663000D01*
X204879894Y-115680437D01*
X204865494Y-115729999D01*
X204865495Y-115730000D01*
X206474505Y-115730000D01*
X206474505Y-115729999D01*
X206460106Y-115680437D01*
X206465355Y-115632890D01*
X206502687Y-115602982D01*
X206520124Y-115600500D01*
X207019056Y-115600500D01*
X207019057Y-115600500D01*
X207171784Y-115559577D01*
X207308716Y-115480520D01*
X207420520Y-115368716D01*
X207499577Y-115231784D01*
X207540500Y-115079057D01*
X207540500Y-114413000D01*
X207558806Y-114368806D01*
X207603000Y-114350500D01*
X207709748Y-114350500D01*
X207768231Y-114338867D01*
X207834552Y-114294552D01*
X207878867Y-114228231D01*
X207890500Y-114169748D01*
X207890500Y-111330252D01*
X207878867Y-111271769D01*
X207878866Y-111271767D01*
X207834552Y-111205447D01*
X207768232Y-111161133D01*
X207768230Y-111161132D01*
X207709748Y-111149500D01*
X206170252Y-111149500D01*
X206111769Y-111161132D01*
X206111767Y-111161133D01*
X206045447Y-111205447D01*
X206001133Y-111271767D01*
X206001132Y-111271769D01*
X205989500Y-111330251D01*
X205989500Y-114169748D01*
X206001132Y-114228230D01*
X206001133Y-114228232D01*
X206048868Y-114299671D01*
X206047048Y-114300886D01*
X206062007Y-114337000D01*
X206043701Y-114381194D01*
X205999507Y-114399500D01*
X205340493Y-114399500D01*
X205296299Y-114381194D01*
X205277993Y-114337000D01*
X205292951Y-114300886D01*
X205291132Y-114299671D01*
X205338866Y-114228232D01*
X205338867Y-114228231D01*
X205350500Y-114169748D01*
X205350500Y-111330252D01*
X205338867Y-111271769D01*
X205338866Y-111271767D01*
X205294552Y-111205447D01*
X205228232Y-111161133D01*
X205228230Y-111161132D01*
X205169748Y-111149500D01*
X203630252Y-111149500D01*
X203571769Y-111161132D01*
X203571767Y-111161133D01*
X203505447Y-111205447D01*
X203461133Y-111271767D01*
X203461132Y-111271769D01*
X203449500Y-111330251D01*
X203449500Y-114169751D01*
X203455666Y-114200751D01*
X203446333Y-114247667D01*
X203406559Y-114274242D01*
X203385943Y-114274648D01*
X203385940Y-114274693D01*
X203385488Y-114274657D01*
X203384600Y-114274675D01*
X203383501Y-114274501D01*
X203383489Y-114274500D01*
X203383488Y-114274500D01*
X202865820Y-114274500D01*
X202821626Y-114256194D01*
X202803320Y-114212000D01*
X202804521Y-114199807D01*
X202805118Y-114196804D01*
X202810500Y-114169748D01*
X202810500Y-111330252D01*
X202798867Y-111271769D01*
X202798866Y-111271767D01*
X202754552Y-111205447D01*
X202688232Y-111161133D01*
X202688230Y-111161132D01*
X202629748Y-111149500D01*
X202223000Y-111149500D01*
X202178806Y-111131194D01*
X202160500Y-111087000D01*
X202160500Y-108904918D01*
X202178806Y-108860724D01*
X202244496Y-108795034D01*
X202307755Y-108685466D01*
X202340500Y-108563259D01*
X202340500Y-108436741D01*
X202307755Y-108314534D01*
X202244496Y-108204966D01*
X202244494Y-108204964D01*
X202244491Y-108204960D01*
X202155039Y-108115508D01*
X202155035Y-108115505D01*
X202155034Y-108115504D01*
X202100250Y-108083874D01*
X202045465Y-108052244D01*
X202045462Y-108052243D01*
X201923265Y-108019501D01*
X201923260Y-108019500D01*
X201923259Y-108019500D01*
X201796741Y-108019500D01*
X201796740Y-108019500D01*
X201796734Y-108019501D01*
X201674537Y-108052243D01*
X201674534Y-108052244D01*
X201564964Y-108115505D01*
X201564960Y-108115508D01*
X201475508Y-108204960D01*
X201475505Y-108204964D01*
X201412244Y-108314534D01*
X201412243Y-108314537D01*
X201379501Y-108436734D01*
X201379500Y-108436742D01*
X201379500Y-108563257D01*
X201379501Y-108563265D01*
X201412243Y-108685462D01*
X201412244Y-108685465D01*
X201475505Y-108795035D01*
X201541194Y-108860724D01*
X201559500Y-108904918D01*
X201559500Y-111087000D01*
X201541194Y-111131194D01*
X201497000Y-111149500D01*
X201090252Y-111149500D01*
X201031769Y-111161132D01*
X201031767Y-111161133D01*
X200965447Y-111205447D01*
X200921133Y-111271767D01*
X200921132Y-111271769D01*
X200909500Y-111330251D01*
X200909500Y-114065602D01*
X200891194Y-114109796D01*
X200847000Y-114128102D01*
X200815751Y-114119729D01*
X200785469Y-114102246D01*
X200785462Y-114102243D01*
X200663265Y-114069501D01*
X200663260Y-114069500D01*
X200663259Y-114069500D01*
X200536741Y-114069500D01*
X200536740Y-114069500D01*
X200536734Y-114069501D01*
X200414537Y-114102243D01*
X200414534Y-114102244D01*
X200384251Y-114119729D01*
X200364248Y-114131277D01*
X200316824Y-114137520D01*
X200278873Y-114108400D01*
X200270500Y-114077150D01*
X200270500Y-111330252D01*
X200258867Y-111271769D01*
X200258866Y-111271767D01*
X200214552Y-111205447D01*
X200148232Y-111161133D01*
X200148230Y-111161132D01*
X200089748Y-111149500D01*
X199683000Y-111149500D01*
X199638806Y-111131194D01*
X199620500Y-111087000D01*
X199620500Y-105554918D01*
X199638806Y-105510724D01*
X199670448Y-105479082D01*
X199704496Y-105445034D01*
X199767755Y-105335466D01*
X199800500Y-105213259D01*
X199800500Y-105086741D01*
X199767755Y-104964534D01*
X199704496Y-104854966D01*
X199704494Y-104854964D01*
X199704491Y-104854960D01*
X199615039Y-104765508D01*
X199615035Y-104765505D01*
X199615034Y-104765504D01*
X199560250Y-104733874D01*
X199505465Y-104702244D01*
X199505462Y-104702243D01*
X199383265Y-104669501D01*
X199383260Y-104669500D01*
X199383259Y-104669500D01*
X199256741Y-104669500D01*
X199256740Y-104669500D01*
X199256734Y-104669501D01*
X199134537Y-104702243D01*
X199134534Y-104702244D01*
X199024964Y-104765505D01*
X199024960Y-104765508D01*
X198935508Y-104854960D01*
X198935505Y-104854964D01*
X198872244Y-104964534D01*
X198872243Y-104964537D01*
X198839501Y-105086734D01*
X198839500Y-105086742D01*
X198839500Y-105213257D01*
X198839501Y-105213265D01*
X198872243Y-105335462D01*
X198872244Y-105335465D01*
X198935505Y-105445035D01*
X199001194Y-105510724D01*
X199019500Y-105554918D01*
X199019500Y-111087000D01*
X199001194Y-111131194D01*
X198957000Y-111149500D01*
X198550252Y-111149500D01*
X198491769Y-111161132D01*
X198491767Y-111161133D01*
X198425447Y-111205447D01*
X198381133Y-111271767D01*
X198381132Y-111271769D01*
X198369500Y-111330251D01*
X197730500Y-111330251D01*
X197718867Y-111271769D01*
X197718866Y-111271767D01*
X197674552Y-111205447D01*
X197608232Y-111161133D01*
X197608230Y-111161132D01*
X197549748Y-111149500D01*
X197143000Y-111149500D01*
X197098806Y-111131194D01*
X197080500Y-111087000D01*
X197080500Y-104854918D01*
X197098806Y-104810724D01*
X197121445Y-104788085D01*
X197164496Y-104745034D01*
X197227755Y-104635466D01*
X197260500Y-104513259D01*
X197260500Y-104386741D01*
X197247793Y-104339319D01*
X197227756Y-104264537D01*
X197227755Y-104264534D01*
X197185722Y-104191731D01*
X197164496Y-104154966D01*
X197164494Y-104154964D01*
X197164491Y-104154960D01*
X197075039Y-104065508D01*
X197075035Y-104065505D01*
X197075034Y-104065504D01*
X197020250Y-104033874D01*
X196965465Y-104002244D01*
X196965462Y-104002243D01*
X196843265Y-103969501D01*
X196843260Y-103969500D01*
X196843259Y-103969500D01*
X196716741Y-103969500D01*
X196716740Y-103969500D01*
X196716734Y-103969501D01*
X196594537Y-104002243D01*
X196594534Y-104002244D01*
X196484964Y-104065505D01*
X196484960Y-104065508D01*
X196395508Y-104154960D01*
X196395505Y-104154964D01*
X196332244Y-104264534D01*
X196332243Y-104264537D01*
X196299501Y-104386734D01*
X196299500Y-104386742D01*
X196299500Y-104513257D01*
X196299501Y-104513265D01*
X196332243Y-104635462D01*
X196332244Y-104635465D01*
X196351895Y-104669501D01*
X196395338Y-104744747D01*
X196395505Y-104745035D01*
X196461194Y-104810724D01*
X196479500Y-104854918D01*
X196479500Y-111087000D01*
X196461194Y-111131194D01*
X196417000Y-111149500D01*
X196010252Y-111149500D01*
X195951769Y-111161132D01*
X195951767Y-111161133D01*
X195885447Y-111205447D01*
X195841133Y-111271767D01*
X195841132Y-111271769D01*
X195829500Y-111330251D01*
X170308861Y-111330251D01*
X170265191Y-111205448D01*
X170221271Y-111079931D01*
X170221269Y-111079927D01*
X170221267Y-111079921D01*
X170104284Y-110837003D01*
X169960838Y-110608711D01*
X169960833Y-110608705D01*
X169960829Y-110608699D01*
X169792744Y-110397927D01*
X169792740Y-110397922D01*
X169792734Y-110397915D01*
X169602085Y-110207266D01*
X169602078Y-110207260D01*
X169602072Y-110207255D01*
X169391300Y-110039170D01*
X169391283Y-110039158D01*
X169162997Y-109895716D01*
X168920079Y-109778733D01*
X168920076Y-109778732D01*
X168920068Y-109778728D01*
X168665589Y-109689683D01*
X168402733Y-109629688D01*
X168402720Y-109629686D01*
X168226659Y-109609849D01*
X168134809Y-109599500D01*
X167865191Y-109599500D01*
X167782761Y-109608787D01*
X167597279Y-109629686D01*
X167597266Y-109629688D01*
X167334411Y-109689683D01*
X167334409Y-109689683D01*
X167079931Y-109778728D01*
X166837002Y-109895716D01*
X166608716Y-110039158D01*
X166608699Y-110039170D01*
X166397927Y-110207255D01*
X166397907Y-110207273D01*
X166207273Y-110397907D01*
X166207255Y-110397927D01*
X166039170Y-110608699D01*
X166039158Y-110608716D01*
X165895716Y-110837002D01*
X165778728Y-111079931D01*
X165689683Y-111334409D01*
X165689683Y-111334411D01*
X165629688Y-111597266D01*
X165629686Y-111597279D01*
X165608787Y-111782761D01*
X165599500Y-111865191D01*
X165200500Y-111865191D01*
X165200500Y-100615194D01*
X165599500Y-100615194D01*
X165599500Y-100884805D01*
X165629686Y-101152720D01*
X165629688Y-101152733D01*
X165689683Y-101415588D01*
X165689683Y-101415590D01*
X165778728Y-101670068D01*
X165895716Y-101912997D01*
X166039158Y-102141283D01*
X166039170Y-102141300D01*
X166207255Y-102352072D01*
X166207260Y-102352078D01*
X166207266Y-102352085D01*
X166397915Y-102542734D01*
X166397922Y-102542740D01*
X166397927Y-102542744D01*
X166608699Y-102710829D01*
X166608705Y-102710833D01*
X166608711Y-102710838D01*
X166837003Y-102854284D01*
X167079921Y-102971267D01*
X167079927Y-102971269D01*
X167079931Y-102971271D01*
X167229745Y-103023692D01*
X167334409Y-103060316D01*
X167597268Y-103120312D01*
X167865191Y-103150500D01*
X167865194Y-103150500D01*
X168134806Y-103150500D01*
X168134809Y-103150500D01*
X168402732Y-103120312D01*
X168665591Y-103060316D01*
X168920079Y-102971267D01*
X169162997Y-102854284D01*
X169391289Y-102710838D01*
X169602085Y-102542734D01*
X169792734Y-102352085D01*
X169960838Y-102141289D01*
X170104284Y-101912997D01*
X170221267Y-101670079D01*
X170310316Y-101415591D01*
X170370312Y-101152732D01*
X170400500Y-100884809D01*
X170400500Y-100615191D01*
X170370312Y-100347268D01*
X170310316Y-100084409D01*
X170274012Y-99980657D01*
X170221271Y-99829931D01*
X170221269Y-99829927D01*
X170221267Y-99829921D01*
X170104284Y-99587003D01*
X169960838Y-99358711D01*
X169960833Y-99358705D01*
X169960829Y-99358699D01*
X169792744Y-99147927D01*
X169792740Y-99147922D01*
X169792734Y-99147915D01*
X169602085Y-98957266D01*
X169602078Y-98957260D01*
X169602072Y-98957255D01*
X169391300Y-98789170D01*
X169391283Y-98789158D01*
X169162997Y-98645716D01*
X168920079Y-98528733D01*
X168920076Y-98528732D01*
X168920068Y-98528728D01*
X168665589Y-98439683D01*
X168402733Y-98379688D01*
X168402720Y-98379686D01*
X168226659Y-98359849D01*
X168134809Y-98349500D01*
X167865191Y-98349500D01*
X167782761Y-98358787D01*
X167597279Y-98379686D01*
X167597266Y-98379688D01*
X167334411Y-98439683D01*
X167334409Y-98439683D01*
X167079931Y-98528728D01*
X166837002Y-98645716D01*
X166608716Y-98789158D01*
X166608699Y-98789170D01*
X166397927Y-98957255D01*
X166397907Y-98957273D01*
X166207273Y-99147907D01*
X166207255Y-99147927D01*
X166039170Y-99358699D01*
X166039158Y-99358716D01*
X165895716Y-99587002D01*
X165778728Y-99829931D01*
X165689683Y-100084409D01*
X165689683Y-100084411D01*
X165629688Y-100347266D01*
X165629686Y-100347279D01*
X165599500Y-100615194D01*
X165200500Y-100615194D01*
X165200500Y-96436742D01*
X204939500Y-96436742D01*
X204939500Y-96563257D01*
X204939501Y-96563265D01*
X204972243Y-96685462D01*
X204972244Y-96685465D01*
X205035505Y-96795035D01*
X205035508Y-96795039D01*
X205124960Y-96884491D01*
X205124964Y-96884494D01*
X205124966Y-96884496D01*
X205234534Y-96947755D01*
X205234537Y-96947756D01*
X205309319Y-96967793D01*
X205356741Y-96980500D01*
X205356742Y-96980500D01*
X205483258Y-96980500D01*
X205483259Y-96980500D01*
X205605466Y-96947755D01*
X205715034Y-96884496D01*
X205804496Y-96795034D01*
X205867755Y-96685466D01*
X205900500Y-96563259D01*
X205900500Y-96436741D01*
X205867755Y-96314534D01*
X205804496Y-96204966D01*
X205804494Y-96204964D01*
X205804491Y-96204960D01*
X205715039Y-96115508D01*
X205715035Y-96115505D01*
X205715034Y-96115504D01*
X205660250Y-96083874D01*
X205605465Y-96052244D01*
X205605462Y-96052243D01*
X205483265Y-96019501D01*
X205483260Y-96019500D01*
X205483259Y-96019500D01*
X205356741Y-96019500D01*
X205356740Y-96019500D01*
X205356734Y-96019501D01*
X205234537Y-96052243D01*
X205234534Y-96052244D01*
X205124964Y-96115505D01*
X205124960Y-96115508D01*
X205035508Y-96204960D01*
X205035505Y-96204964D01*
X204972244Y-96314534D01*
X204972243Y-96314537D01*
X204939501Y-96436734D01*
X204939500Y-96436742D01*
X165200500Y-96436742D01*
X165200500Y-95936742D01*
X208319500Y-95936742D01*
X208319500Y-96063257D01*
X208319501Y-96063265D01*
X208352243Y-96185462D01*
X208352244Y-96185465D01*
X208415505Y-96295035D01*
X208415508Y-96295039D01*
X208504960Y-96384491D01*
X208504964Y-96384494D01*
X208504966Y-96384496D01*
X208595445Y-96436734D01*
X208614534Y-96447755D01*
X208614537Y-96447756D01*
X208689319Y-96467793D01*
X208736741Y-96480500D01*
X208736742Y-96480500D01*
X208863258Y-96480500D01*
X208863259Y-96480500D01*
X208985466Y-96447755D01*
X209095034Y-96384496D01*
X209184496Y-96295034D01*
X209247755Y-96185466D01*
X209280500Y-96063259D01*
X209280500Y-95936741D01*
X209247755Y-95814534D01*
X209184496Y-95704966D01*
X209184494Y-95704964D01*
X209184491Y-95704960D01*
X209095039Y-95615508D01*
X209095035Y-95615505D01*
X209095034Y-95615504D01*
X209040250Y-95583874D01*
X208985465Y-95552244D01*
X208985462Y-95552243D01*
X208863265Y-95519501D01*
X208863260Y-95519500D01*
X208863259Y-95519500D01*
X208736741Y-95519500D01*
X208736740Y-95519500D01*
X208736734Y-95519501D01*
X208614537Y-95552243D01*
X208614534Y-95552244D01*
X208504964Y-95615505D01*
X208504960Y-95615508D01*
X208415508Y-95704960D01*
X208415505Y-95704964D01*
X208352244Y-95814534D01*
X208352243Y-95814537D01*
X208319501Y-95936734D01*
X208319500Y-95936742D01*
X165200500Y-95936742D01*
X165200500Y-84662500D01*
X165218806Y-84618306D01*
X165263000Y-84600000D01*
X176163395Y-84600000D01*
X176207589Y-84618306D01*
G37*
G04 #@! TD.AperFunction*
G04 #@! TA.AperFunction,Conductor*
G36*
X192303793Y-84618306D02*
G01*
X192322099Y-84662500D01*
X192303793Y-84706694D01*
X192269376Y-84724230D01*
X192238887Y-84729059D01*
X192238878Y-84729061D01*
X192059169Y-84787452D01*
X192059161Y-84787456D01*
X191890798Y-84873241D01*
X191737927Y-84984309D01*
X191737919Y-84984316D01*
X191604316Y-85117919D01*
X191604309Y-85117927D01*
X191493241Y-85270798D01*
X191407456Y-85439161D01*
X191407452Y-85439169D01*
X191349061Y-85618878D01*
X191349059Y-85618887D01*
X191319501Y-85805505D01*
X191319500Y-85805521D01*
X191319500Y-85994478D01*
X191319501Y-85994494D01*
X191349059Y-86181112D01*
X191349061Y-86181121D01*
X191407452Y-86360830D01*
X191407456Y-86360838D01*
X191493241Y-86529201D01*
X191604309Y-86682072D01*
X191604316Y-86682080D01*
X191737919Y-86815683D01*
X191737927Y-86815690D01*
X191890801Y-86926760D01*
X192059168Y-87012547D01*
X192105371Y-87027559D01*
X192141745Y-87058626D01*
X192145498Y-87106314D01*
X192114431Y-87142688D01*
X192086057Y-87149500D01*
X191626632Y-87149500D01*
X191592244Y-87139189D01*
X190593783Y-86481289D01*
X190303780Y-86290202D01*
X190276950Y-86250601D01*
X190278727Y-86218701D01*
X190290940Y-86181118D01*
X190320500Y-85994481D01*
X190320500Y-85805519D01*
X190290940Y-85618882D01*
X190232547Y-85439168D01*
X190146760Y-85270801D01*
X190035690Y-85117927D01*
X190035683Y-85117919D01*
X189902080Y-84984316D01*
X189902072Y-84984309D01*
X189749201Y-84873241D01*
X189580838Y-84787456D01*
X189580830Y-84787452D01*
X189401121Y-84729061D01*
X189401118Y-84729060D01*
X189401112Y-84729059D01*
X189370624Y-84724230D01*
X189329837Y-84699236D01*
X189318671Y-84652723D01*
X189343665Y-84611936D01*
X189380401Y-84600000D01*
X192259599Y-84600000D01*
X192303793Y-84618306D01*
G37*
G04 #@! TD.AperFunction*
G04 #@! TA.AperFunction,Conductor*
G36*
X209303793Y-84618306D02*
G01*
X209322099Y-84662500D01*
X209303793Y-84706694D01*
X209269376Y-84724230D01*
X209238887Y-84729059D01*
X209238878Y-84729061D01*
X209059169Y-84787452D01*
X209059161Y-84787456D01*
X208890798Y-84873241D01*
X208737927Y-84984309D01*
X208737919Y-84984316D01*
X208604316Y-85117919D01*
X208604309Y-85117927D01*
X208493241Y-85270798D01*
X208407456Y-85439161D01*
X208407452Y-85439169D01*
X208349061Y-85618878D01*
X208349059Y-85618887D01*
X208319501Y-85805505D01*
X208319500Y-85805521D01*
X208319500Y-85994478D01*
X208319501Y-85994494D01*
X208349059Y-86181112D01*
X208349061Y-86181121D01*
X208361271Y-86218699D01*
X208357518Y-86266387D01*
X208336218Y-86290202D01*
X207047756Y-87139189D01*
X207013368Y-87149500D01*
X206553943Y-87149500D01*
X206509749Y-87131194D01*
X206491443Y-87087000D01*
X206509749Y-87042806D01*
X206534627Y-87027559D01*
X206580832Y-87012547D01*
X206749199Y-86926760D01*
X206902073Y-86815690D01*
X207035690Y-86682073D01*
X207146760Y-86529199D01*
X207232547Y-86360832D01*
X207290940Y-86181118D01*
X207320500Y-85994481D01*
X207320500Y-85805519D01*
X207290940Y-85618882D01*
X207232547Y-85439168D01*
X207146760Y-85270801D01*
X207035690Y-85117927D01*
X207035683Y-85117919D01*
X206902080Y-84984316D01*
X206902072Y-84984309D01*
X206749201Y-84873241D01*
X206580838Y-84787456D01*
X206580830Y-84787452D01*
X206401121Y-84729061D01*
X206401118Y-84729060D01*
X206401112Y-84729059D01*
X206370624Y-84724230D01*
X206329837Y-84699236D01*
X206318671Y-84652723D01*
X206343665Y-84611936D01*
X206380401Y-84600000D01*
X209259599Y-84600000D01*
X209303793Y-84618306D01*
G37*
G04 #@! TD.AperFunction*
G04 #@! TA.AperFunction,Conductor*
G36*
X219217241Y-94108815D02*
G01*
X219251767Y-94131235D01*
X220634781Y-95514249D01*
X220657806Y-95550392D01*
X220680775Y-95613497D01*
X220680777Y-95613502D01*
X220711224Y-95653180D01*
X220808286Y-95750242D01*
X220863157Y-95805112D01*
X220890935Y-95859629D01*
X220881364Y-95920061D01*
X220838099Y-95963326D01*
X220836109Y-95964312D01*
X220767962Y-95997130D01*
X220744977Y-96016174D01*
X220693355Y-96067797D01*
X221033472Y-96407914D01*
X221040590Y-96421885D01*
X221051678Y-96432973D01*
X221054130Y-96448460D01*
X221061249Y-96462431D01*
X221058796Y-96477918D01*
X221061249Y-96493405D01*
X221054130Y-96507375D01*
X221051678Y-96522863D01*
X221033472Y-96547922D01*
X220961347Y-96620047D01*
X220906830Y-96647824D01*
X220846398Y-96638253D01*
X220821339Y-96620047D01*
X220481221Y-96279929D01*
X220428685Y-96332466D01*
X220374169Y-96360244D01*
X220313737Y-96350673D01*
X220288677Y-96332467D01*
X220269281Y-96313071D01*
X220206189Y-96276644D01*
X220206188Y-96276643D01*
X220206187Y-96276643D01*
X220135812Y-96257787D01*
X220135810Y-96257787D01*
X219440136Y-96257787D01*
X219381945Y-96238880D01*
X219370132Y-96228791D01*
X219000970Y-95859629D01*
X218600850Y-95459509D01*
X218585484Y-95449242D01*
X218551270Y-95426381D01*
X218551268Y-95426380D01*
X218473040Y-95410821D01*
X218473038Y-95410821D01*
X218394808Y-95426380D01*
X218394805Y-95426381D01*
X218345228Y-95459508D01*
X217327349Y-96477387D01*
X217294222Y-96526964D01*
X217294221Y-96526967D01*
X217278662Y-96605197D01*
X217278662Y-96605198D01*
X217294221Y-96683427D01*
X217294222Y-96683429D01*
X217327350Y-96733009D01*
X218203806Y-97609465D01*
X218253386Y-97642593D01*
X218305482Y-97652954D01*
X218358866Y-97682849D01*
X218384483Y-97738413D01*
X218385170Y-97750052D01*
X218385170Y-97863360D01*
X218425686Y-97967942D01*
X218441361Y-97987732D01*
X218791236Y-98337607D01*
X219428339Y-97700505D01*
X219482856Y-97672728D01*
X219543288Y-97682299D01*
X219568347Y-97700505D01*
X219604409Y-97736567D01*
X219640470Y-97700506D01*
X219694986Y-97672728D01*
X219755418Y-97682299D01*
X219780478Y-97700505D01*
X220346870Y-98266896D01*
X220767450Y-97846317D01*
X220783127Y-97826527D01*
X220783131Y-97826520D01*
X220823646Y-97721941D01*
X220823648Y-97721935D01*
X220823648Y-97638507D01*
X220842555Y-97580316D01*
X220892055Y-97544352D01*
X220922648Y-97539507D01*
X221189969Y-97539507D01*
X221248160Y-97558414D01*
X221259972Y-97568503D01*
X221364198Y-97672728D01*
X221442463Y-97750993D01*
X221482142Y-97781441D01*
X221557804Y-97808979D01*
X221606019Y-97846648D01*
X221622885Y-97905463D01*
X221601959Y-97962959D01*
X221593948Y-97972013D01*
X221413748Y-98152212D01*
X221359232Y-98179989D01*
X221309886Y-98175238D01*
X221261628Y-98157674D01*
X221143313Y-98157674D01*
X221035789Y-98196809D01*
X221032127Y-98198142D01*
X220993044Y-98228132D01*
X220746510Y-98474666D01*
X220716520Y-98513749D01*
X220676052Y-98624935D01*
X220676052Y-98743249D01*
X220681078Y-98757058D01*
X220683213Y-98818206D01*
X220648998Y-98868931D01*
X220591503Y-98889858D01*
X220554189Y-98883948D01*
X220540380Y-98878922D01*
X220422065Y-98878922D01*
X220310884Y-98919388D01*
X220310879Y-98919390D01*
X220271796Y-98949380D01*
X220025262Y-99195914D01*
X219995272Y-99234997D01*
X219995270Y-99235001D01*
X219995270Y-99235002D01*
X219971713Y-99299725D01*
X219954804Y-99346183D01*
X219954804Y-99441408D01*
X219935897Y-99499599D01*
X219886397Y-99535563D01*
X219825211Y-99535563D01*
X219813966Y-99531133D01*
X219757832Y-99504958D01*
X219757833Y-99504958D01*
X219741303Y-99502782D01*
X219708246Y-99498430D01*
X219708244Y-99498430D01*
X219288448Y-99498430D01*
X219288437Y-99498431D01*
X219238858Y-99504957D01*
X219231586Y-99507077D01*
X219231132Y-99505520D01*
X219179247Y-99511886D01*
X219125735Y-99482218D01*
X219099883Y-99426763D01*
X219111563Y-99366703D01*
X219121625Y-99351894D01*
X219123743Y-99349311D01*
X219123752Y-99349303D01*
X219156880Y-99299724D01*
X219172440Y-99221492D01*
X219168563Y-99202002D01*
X219156880Y-99143262D01*
X219156879Y-99143260D01*
X219123754Y-99093684D01*
X219123752Y-99093681D01*
X218579811Y-98549740D01*
X219003368Y-98549740D01*
X219353238Y-98899609D01*
X219373030Y-98915288D01*
X219373034Y-98915290D01*
X219477613Y-98955805D01*
X219477619Y-98955807D01*
X219589777Y-98955807D01*
X219589779Y-98955806D01*
X219694362Y-98915290D01*
X219714156Y-98899612D01*
X219714159Y-98899609D01*
X220134737Y-98479029D01*
X219604408Y-97948700D01*
X219003368Y-98549740D01*
X218579811Y-98549740D01*
X218247296Y-98217225D01*
X218197716Y-98184097D01*
X218197715Y-98184096D01*
X218145619Y-98173735D01*
X218092235Y-98143839D01*
X218066618Y-98088275D01*
X218065932Y-98076637D01*
X218065932Y-97963332D01*
X218065931Y-97963329D01*
X218025415Y-97858747D01*
X218009740Y-97838957D01*
X217659865Y-97489082D01*
X216245652Y-98903294D01*
X216595522Y-99253163D01*
X216615314Y-99268842D01*
X216615318Y-99268844D01*
X216719897Y-99309359D01*
X216719903Y-99309361D01*
X216833208Y-99309361D01*
X216891399Y-99328268D01*
X216927363Y-99377768D01*
X216930306Y-99389048D01*
X216940667Y-99441144D01*
X216940668Y-99441145D01*
X216961980Y-99473042D01*
X216973796Y-99490725D01*
X217850252Y-100367181D01*
X217899832Y-100400309D01*
X217929767Y-100406263D01*
X217978062Y-100415869D01*
X217978063Y-100415869D01*
X217978064Y-100415869D01*
X218004140Y-100410682D01*
X218056295Y-100400309D01*
X218105874Y-100367181D01*
X218402186Y-100070867D01*
X218456701Y-100043091D01*
X218517133Y-100052662D01*
X218542192Y-100070868D01*
X218620152Y-100148828D01*
X218620151Y-100148828D01*
X218671667Y-100200344D01*
X218671670Y-100200346D01*
X218734761Y-100236772D01*
X218734762Y-100236772D01*
X218734765Y-100236774D01*
X218805139Y-100255630D01*
X218877995Y-100255630D01*
X218953319Y-100255630D01*
X219011510Y-100274537D01*
X219035103Y-100298842D01*
X219039641Y-100305495D01*
X219045121Y-100317246D01*
X219053099Y-100325224D01*
X219058325Y-100332885D01*
X219064435Y-100353782D01*
X219074322Y-100373186D01*
X219072841Y-100382531D01*
X219075497Y-100391611D01*
X219068157Y-100412108D01*
X219064751Y-100433618D01*
X219057314Y-100442391D01*
X219054871Y-100449215D01*
X219046951Y-100454617D01*
X219035331Y-100468327D01*
X219013707Y-100484286D01*
X219013703Y-100484290D01*
X218934939Y-100591009D01*
X218891132Y-100716202D01*
X218888345Y-100745929D01*
X218888345Y-100788929D01*
X218888346Y-100788930D01*
X219399345Y-100788930D01*
X219457536Y-100807837D01*
X219493500Y-100857337D01*
X219498345Y-100887930D01*
X219498345Y-100938929D01*
X219498346Y-100938930D01*
X219549345Y-100938930D01*
X219607536Y-100957837D01*
X219643500Y-101007337D01*
X219648345Y-101037930D01*
X219648345Y-101518928D01*
X219648346Y-101518929D01*
X219721349Y-101518929D01*
X219751066Y-101516143D01*
X219751071Y-101516142D01*
X219876265Y-101472335D01*
X219982984Y-101393571D01*
X219982986Y-101393569D01*
X220061749Y-101286851D01*
X220083363Y-101225081D01*
X220120428Y-101176400D01*
X220179028Y-101158802D01*
X220236780Y-101179009D01*
X220262542Y-101208273D01*
X220266761Y-101215580D01*
X220266763Y-101215583D01*
X220346916Y-101295736D01*
X220445082Y-101352412D01*
X220554573Y-101381750D01*
X220554575Y-101381750D01*
X220667923Y-101381750D01*
X220667925Y-101381750D01*
X220777416Y-101352412D01*
X220875582Y-101295736D01*
X220896250Y-101275068D01*
X220914373Y-101256946D01*
X220968890Y-101229169D01*
X220984376Y-101227950D01*
X221408818Y-101227950D01*
X221408820Y-101227950D01*
X221448563Y-101217301D01*
X221509663Y-101220502D01*
X221557213Y-101259007D01*
X221573049Y-101318107D01*
X221551123Y-101375229D01*
X221544189Y-101382931D01*
X219462280Y-103464841D01*
X219407763Y-103492618D01*
X219347331Y-103483047D01*
X219322272Y-103464841D01*
X216946363Y-101088931D01*
X218888346Y-101088931D01*
X218888346Y-101131933D01*
X218891131Y-101161651D01*
X218891132Y-101161656D01*
X218934939Y-101286850D01*
X219013703Y-101393569D01*
X219013705Y-101393571D01*
X219120424Y-101472335D01*
X219245617Y-101516142D01*
X219275344Y-101518929D01*
X219348344Y-101518928D01*
X219348345Y-101518928D01*
X219348345Y-101088931D01*
X219348344Y-101088930D01*
X218888347Y-101088930D01*
X218888346Y-101088931D01*
X216946363Y-101088931D01*
X214442530Y-98585097D01*
X214922873Y-98104754D01*
X215627454Y-98104754D01*
X215627454Y-98216914D01*
X215667970Y-98321496D01*
X215683645Y-98341286D01*
X216033520Y-98691161D01*
X216634559Y-98090121D01*
X216104230Y-97559792D01*
X215683651Y-97980372D01*
X215667974Y-98000162D01*
X215667970Y-98000169D01*
X215627455Y-98104748D01*
X215627454Y-98104754D01*
X214922873Y-98104754D01*
X215679967Y-97347660D01*
X216316364Y-97347660D01*
X216846692Y-97877988D01*
X217447732Y-97276948D01*
X217097863Y-96927080D01*
X217078071Y-96911401D01*
X217078067Y-96911399D01*
X216973488Y-96870884D01*
X216973483Y-96870883D01*
X216861322Y-96870883D01*
X216756739Y-96911399D01*
X216736949Y-96927074D01*
X216316364Y-97347660D01*
X215679967Y-97347660D01*
X218868131Y-94159494D01*
X218922646Y-94131719D01*
X218938133Y-94130500D01*
X219063257Y-94130500D01*
X219063259Y-94130500D01*
X219156142Y-94105612D01*
X219217241Y-94108815D01*
G37*
G04 #@! TD.AperFunction*
G04 #@! TA.AperFunction,Conductor*
G36*
X220444513Y-99984903D02*
G01*
X220466494Y-99992904D01*
X220514709Y-100030572D01*
X220530530Y-100071179D01*
X220547458Y-100183497D01*
X220605010Y-100303004D01*
X220624054Y-100325989D01*
X220649811Y-100351746D01*
X220677588Y-100406263D01*
X220668017Y-100466695D01*
X220624752Y-100509960D01*
X220579807Y-100520750D01*
X220554573Y-100520750D01*
X220445082Y-100550088D01*
X220346916Y-100606764D01*
X220266757Y-100686923D01*
X220262814Y-100692063D01*
X220261288Y-100690892D01*
X220222434Y-100725869D01*
X220161583Y-100732258D01*
X220108598Y-100701660D01*
X220088733Y-100668122D01*
X220061750Y-100591009D01*
X219982986Y-100484290D01*
X219982984Y-100484288D01*
X219961359Y-100468328D01*
X219925767Y-100418560D01*
X219926225Y-100357376D01*
X219937356Y-100334392D01*
X219942940Y-100325874D01*
X219951569Y-100317246D01*
X219958888Y-100301550D01*
X219962801Y-100295582D01*
X219981360Y-100280686D01*
X219997593Y-100263278D01*
X220008584Y-100258836D01*
X220010518Y-100257285D01*
X220012682Y-100257181D01*
X220019965Y-100254238D01*
X220085146Y-100236774D01*
X220148241Y-100200345D01*
X220340653Y-100007931D01*
X220362779Y-99996657D01*
X220383366Y-99982771D01*
X220389605Y-99982988D01*
X220395169Y-99980154D01*
X220444513Y-99984903D01*
G37*
G04 #@! TD.AperFunction*
G04 #@! TA.AperFunction,Conductor*
G36*
X233703522Y-99400615D02*
G01*
X233724204Y-99405200D01*
X233744602Y-99412125D01*
X233755832Y-99417362D01*
X233755833Y-99417362D01*
X233756494Y-99417670D01*
X233757941Y-99417926D01*
X233762258Y-99418209D01*
X233782083Y-99420818D01*
X233804692Y-99423795D01*
X233804693Y-99423795D01*
X234153322Y-99423795D01*
X234153323Y-99423795D01*
X234153324Y-99423795D01*
X234202181Y-99417363D01*
X234202285Y-99417331D01*
X234203304Y-99416839D01*
X234213419Y-99412122D01*
X234233811Y-99405200D01*
X234254492Y-99400615D01*
X234275916Y-99398270D01*
X234702098Y-99398270D01*
X234723520Y-99400615D01*
X234744202Y-99405200D01*
X234764600Y-99412125D01*
X234774668Y-99416820D01*
X234775750Y-99417343D01*
X234775824Y-99417359D01*
X234775830Y-99417362D01*
X234775831Y-99417362D01*
X234775833Y-99417363D01*
X234775850Y-99417365D01*
X234778562Y-99417966D01*
X234782256Y-99418209D01*
X234802081Y-99420818D01*
X234824690Y-99423795D01*
X234824691Y-99423795D01*
X235173320Y-99423795D01*
X235173321Y-99423795D01*
X235173322Y-99423795D01*
X235210070Y-99418957D01*
X235239037Y-99419419D01*
X235240040Y-99419583D01*
X235247186Y-99420908D01*
X235248102Y-99420908D01*
X235252735Y-99421669D01*
X235276922Y-99434167D01*
X235301940Y-99444907D01*
X235301988Y-99444949D01*
X235302380Y-99445293D01*
X235304123Y-99448223D01*
X235307092Y-99449758D01*
X235318261Y-99471993D01*
X235333637Y-99497843D01*
X235335091Y-99504265D01*
X235337535Y-99526126D01*
X235337535Y-99673298D01*
X235332689Y-99703894D01*
X235327543Y-99719730D01*
X235296361Y-99765524D01*
X235270275Y-99787027D01*
X235267299Y-99793198D01*
X235265790Y-99794740D01*
X235199433Y-99861097D01*
X235199431Y-99861100D01*
X235149433Y-99968321D01*
X235148828Y-99971050D01*
X235148585Y-99974759D01*
X235143000Y-100017181D01*
X235143000Y-100365820D01*
X235147786Y-100402175D01*
X235146976Y-100433135D01*
X235144546Y-100446248D01*
X235115352Y-100500019D01*
X235115336Y-100500035D01*
X235114033Y-100501271D01*
X235067767Y-100526000D01*
X235063354Y-100526999D01*
X235062484Y-100527196D01*
X235040619Y-100529641D01*
X233310661Y-100529641D01*
X233280068Y-100524795D01*
X233256841Y-100517248D01*
X233217431Y-100493098D01*
X233106068Y-100381736D01*
X233106065Y-100381734D01*
X233059880Y-100355068D01*
X233059875Y-100355066D01*
X233042976Y-100345309D01*
X233042975Y-100345308D01*
X233042974Y-100345308D01*
X233024123Y-100340257D01*
X233024118Y-100340255D01*
X232972600Y-100326452D01*
X232972599Y-100326452D01*
X232972597Y-100326452D01*
X232128814Y-100326452D01*
X232098221Y-100321606D01*
X232085535Y-100317484D01*
X232036035Y-100281520D01*
X232036028Y-100281510D01*
X232033034Y-100277388D01*
X232014134Y-100219208D01*
X232014134Y-99512950D01*
X232018977Y-99482364D01*
X232023100Y-99469673D01*
X232023103Y-99469669D01*
X232023103Y-99469664D01*
X232023106Y-99469656D01*
X232041093Y-99444907D01*
X232059057Y-99420176D01*
X232060101Y-99419419D01*
X232063197Y-99417170D01*
X232064342Y-99416798D01*
X232121377Y-99398270D01*
X233682100Y-99398270D01*
X233703522Y-99400615D01*
G37*
G04 #@! TD.AperFunction*
G04 #@! TA.AperFunction,Conductor*
G36*
X230982885Y-103229806D02*
G01*
X230982886Y-103229807D01*
X230998682Y-103245604D01*
X230998683Y-103245604D01*
X230998685Y-103245606D01*
X231107514Y-103296354D01*
X231157100Y-103302882D01*
X231516901Y-103302881D01*
X231566488Y-103296354D01*
X231675317Y-103245606D01*
X231691116Y-103229807D01*
X231735309Y-103211500D01*
X231898691Y-103211500D01*
X231942885Y-103229806D01*
X231942886Y-103229807D01*
X231958682Y-103245604D01*
X231958683Y-103245604D01*
X231958685Y-103245606D01*
X232067514Y-103296354D01*
X232117100Y-103302882D01*
X232476901Y-103302881D01*
X232526488Y-103296354D01*
X232635317Y-103245606D01*
X232651117Y-103229806D01*
X232669421Y-103222224D01*
X232695309Y-103211500D01*
X232743383Y-103211500D01*
X232787577Y-103229806D01*
X232787578Y-103229807D01*
X232814215Y-103256445D01*
X232814216Y-103256445D01*
X232814218Y-103256447D01*
X232921449Y-103306450D01*
X232970306Y-103312882D01*
X232970312Y-103312882D01*
X233318932Y-103312882D01*
X233318938Y-103312882D01*
X233367795Y-103306450D01*
X233475026Y-103256447D01*
X233501666Y-103229807D01*
X233545860Y-103211500D01*
X237037000Y-103211500D01*
X237081194Y-103229806D01*
X237099500Y-103274000D01*
X237099500Y-103278993D01*
X237126419Y-103414326D01*
X237126419Y-103414327D01*
X237179225Y-103541811D01*
X237179226Y-103541813D01*
X237234123Y-103623972D01*
X237255886Y-103656542D01*
X237353458Y-103754114D01*
X237468189Y-103830775D01*
X237569920Y-103872913D01*
X237603742Y-103906736D01*
X237606226Y-103919226D01*
X237617339Y-103930339D01*
X237640194Y-103939806D01*
X237658500Y-103984000D01*
X237658500Y-105385612D01*
X237646441Y-105414723D01*
X237658500Y-105447407D01*
X237658500Y-105686051D01*
X237640194Y-105730245D01*
X237627251Y-105740177D01*
X237563467Y-105777002D01*
X237498947Y-105841522D01*
X237498690Y-105841628D01*
X237498583Y-105841882D01*
X237476699Y-105850737D01*
X237454752Y-105859827D01*
X237454240Y-105859825D01*
X237411935Y-105859478D01*
X237367893Y-105840810D01*
X237349950Y-105796467D01*
X237368254Y-105752786D01*
X237456617Y-105664423D01*
X237517737Y-105544470D01*
X237517739Y-105544463D01*
X237533498Y-105444964D01*
X237533692Y-105442507D01*
X237544092Y-105422092D01*
X237533500Y-105411500D01*
X236233501Y-105411500D01*
X236233501Y-105444950D01*
X236249262Y-105544469D01*
X236249262Y-105544470D01*
X236310382Y-105664423D01*
X236390002Y-105744043D01*
X236408308Y-105788237D01*
X236390002Y-105832431D01*
X236345808Y-105850737D01*
X236345296Y-105850735D01*
X236020488Y-105848072D01*
X235976445Y-105829404D01*
X235958500Y-105785574D01*
X235958500Y-105421500D01*
X231758500Y-105421500D01*
X231758500Y-105750124D01*
X231740194Y-105794318D01*
X231696000Y-105812624D01*
X231695488Y-105812622D01*
X231448499Y-105810597D01*
X231448497Y-105810598D01*
X230926077Y-105806316D01*
X230909999Y-105767500D01*
X230909999Y-105580000D01*
X230722499Y-105580000D01*
X230678305Y-105561694D01*
X230659999Y-105517500D01*
X230659999Y-105330000D01*
X231159999Y-105330000D01*
X231376609Y-105330000D01*
X231376609Y-105329999D01*
X231373576Y-105306961D01*
X231373574Y-105306955D01*
X231323647Y-105199886D01*
X231240112Y-105116351D01*
X231159999Y-105078993D01*
X231159999Y-105330000D01*
X230659999Y-105330000D01*
X230659999Y-105057301D01*
X230659981Y-105057276D01*
X230658500Y-105043749D01*
X230658500Y-105035090D01*
X230667892Y-105012414D01*
X230668289Y-105010167D01*
X230669041Y-105009639D01*
X230676806Y-104990896D01*
X230692626Y-104979402D01*
X230753220Y-104948528D01*
X230848528Y-104853220D01*
X230909719Y-104733126D01*
X230909720Y-104733120D01*
X230925498Y-104633501D01*
X230925500Y-104633485D01*
X230925500Y-104551801D01*
X231758500Y-104551801D01*
X231758500Y-104921500D01*
X233608500Y-104921500D01*
X234108500Y-104921500D01*
X235958500Y-104921500D01*
X235958500Y-104878051D01*
X236233500Y-104878051D01*
X236233500Y-104911500D01*
X236633500Y-104911500D01*
X237133500Y-104911500D01*
X237533499Y-104911500D01*
X237533499Y-104878053D01*
X237533498Y-104878049D01*
X237517737Y-104778530D01*
X237517737Y-104778529D01*
X237456617Y-104658576D01*
X237361423Y-104563382D01*
X237241470Y-104502262D01*
X237241463Y-104502260D01*
X237141964Y-104486501D01*
X237141949Y-104486500D01*
X237133500Y-104486500D01*
X237133500Y-104911500D01*
X236633500Y-104911500D01*
X236633500Y-104486499D01*
X236625056Y-104486500D01*
X236525531Y-104502262D01*
X236525529Y-104502262D01*
X236405576Y-104563382D01*
X236310382Y-104658576D01*
X236249262Y-104778529D01*
X236249260Y-104778536D01*
X236233501Y-104878035D01*
X236233500Y-104878051D01*
X235958500Y-104878051D01*
X235958500Y-104551802D01*
X235958499Y-104551801D01*
X235946896Y-104493465D01*
X235946894Y-104493461D01*
X235902691Y-104427308D01*
X235836538Y-104383105D01*
X235836534Y-104383103D01*
X235778198Y-104371500D01*
X234108500Y-104371500D01*
X234108500Y-104921500D01*
X233608500Y-104921500D01*
X233608500Y-104371500D01*
X231938802Y-104371500D01*
X231880465Y-104383103D01*
X231880461Y-104383105D01*
X231814308Y-104427308D01*
X231770105Y-104493461D01*
X231770103Y-104493465D01*
X231758500Y-104551801D01*
X230925500Y-104551801D01*
X230925500Y-104066514D01*
X230925498Y-104066498D01*
X230909720Y-103966879D01*
X230909719Y-103966877D01*
X230909719Y-103966874D01*
X230909717Y-103966871D01*
X230909717Y-103966869D01*
X230848528Y-103846780D01*
X230753218Y-103751470D01*
X230692625Y-103720595D01*
X230661559Y-103684220D01*
X230658500Y-103664908D01*
X230658500Y-103349186D01*
X230658522Y-103347524D01*
X230658608Y-103344267D01*
X230660500Y-103329901D01*
X230660500Y-103273165D01*
X230660522Y-103272338D01*
X230669947Y-103251191D01*
X230678806Y-103229806D01*
X230679632Y-103229463D01*
X230679997Y-103228646D01*
X230701619Y-103220356D01*
X230723000Y-103211500D01*
X230938691Y-103211500D01*
X230982885Y-103229806D01*
G37*
G04 #@! TD.AperFunction*
G04 #@! TA.AperFunction,Conductor*
G36*
X232838743Y-100898759D02*
G01*
X232850550Y-100908843D01*
X232904376Y-100962669D01*
X232932153Y-101017183D01*
X232933372Y-101032671D01*
X232933372Y-101774143D01*
X232914465Y-101832334D01*
X232864965Y-101868298D01*
X232834372Y-101873143D01*
X231193895Y-101873143D01*
X231135704Y-101854236D01*
X231099740Y-101804736D01*
X231094895Y-101774143D01*
X231094895Y-100978852D01*
X231113802Y-100920661D01*
X231163302Y-100884697D01*
X231193895Y-100879852D01*
X232780552Y-100879852D01*
X232838743Y-100898759D01*
G37*
G04 #@! TD.AperFunction*
M02*
